<?xml version="1.0" encoding="utf-8" standalone="no"?>
<!DOCTYPE svg PUBLIC "-//W3C//DTD SVG 1.1//EN"
  "http://www.w3.org/Graphics/SVG/1.1/DTD/svg11.dtd">
<svg xmlns:xlink="http://www.w3.org/1999/xlink" width="432pt" height="432pt" viewBox="0 0 432 432" xmlns="http://www.w3.org/2000/svg" version="1.1">
 <metadata>
  <rdf:RDF xmlns:dc="http://purl.org/dc/elements/1.1/" xmlns:cc="http://creativecommons.org/ns#" xmlns:rdf="http://www.w3.org/1999/02/22-rdf-syntax-ns#">
   <cc:Work>
    <dc:type rdf:resource="http://purl.org/dc/dcmitype/StillImage"/>
    <dc:date>2024-09-06T16:23:06.518795</dc:date>
    <dc:format>image/svg+xml</dc:format>
    <dc:creator>
     <cc:Agent>
      <dc:title>Matplotlib v3.9.1, https://matplotlib.org/</dc:title>
     </cc:Agent>
    </dc:creator>
   </cc:Work>
  </rdf:RDF>
 </metadata>
 <defs>
  <style type="text/css">*{stroke-linejoin: round; stroke-linecap: butt}</style>
 </defs>
 <g id="figure_1">
  <g id="patch_1">
   <path d="M 0 432 
L 432 432 
L 432 0 
L 0 0 
z
" style="fill: #ffffff"/>
  </g>
  <g id="axes_1">
   <g id="patch_2">
    <path d="M 387.72 218.16 
C 387.72 196.319058 383.417811 174.690491 375.059644 154.512092 
C 366.701477 134.333692 354.449878 115.997879 339.006 100.554 
C 323.562121 85.110122 305.226308 72.858523 285.047908 64.500356 
C 264.869509 56.142189 243.240942 51.84 221.4 51.84 
C 199.559058 51.84 177.930491 56.142189 157.752092 64.500356 
C 137.573692 72.858523 119.237879 85.110122 103.794 100.554 
C 88.350122 115.997879 76.098523 134.333692 67.740356 154.512092 
C 59.382189 174.690491 55.08 196.319058 55.08 218.16 
C 55.08 240.000942 59.382189 261.629509 67.740356 281.807908 
C 76.098523 301.986308 88.350122 320.322121 103.794 335.766 
C 119.237879 351.209878 137.573692 363.461477 157.752092 371.819644 
C 177.930491 380.177811 199.559058 384.48 221.4 384.48 
C 243.240942 384.48 264.869509 380.177811 285.047908 371.819644 
C 305.226308 363.461477 323.562121 351.209878 339.006 335.766 
C 354.449878 320.322121 366.701477 301.986308 375.059644 281.807908 
C 383.417811 261.629509 387.72 240.000942 387.72 218.16 
M 221.4 218.16 
C 221.4 218.16 221.4 218.16 221.4 218.16 
C 221.4 218.16 221.4 218.16 221.4 218.16 
C 221.4 218.16 221.4 218.16 221.4 218.16 
C 221.4 218.16 221.4 218.16 221.4 218.16 
C 221.4 218.16 221.4 218.16 221.4 218.16 
C 221.4 218.16 221.4 218.16 221.4 218.16 
C 221.4 218.16 221.4 218.16 221.4 218.16 
C 221.4 218.16 221.4 218.16 221.4 218.16 
C 221.4 218.16 221.4 218.16 221.4 218.16 
C 221.4 218.16 221.4 218.16 221.4 218.16 
C 221.4 218.16 221.4 218.16 221.4 218.16 
C 221.4 218.16 221.4 218.16 221.4 218.16 
C 221.4 218.16 221.4 218.16 221.4 218.16 
C 221.4 218.16 221.4 218.16 221.4 218.16 
C 221.4 218.16 221.4 218.16 221.4 218.16 
C 221.4 218.16 221.4 218.16 221.4 218.16 
z
" style="fill: #eaeaf2"/>
   </g>
   <g id="matplotlib.axis_1">
    <g id="xtick_1">
     <g id="line2d_1">
      <path d="M 221.4 218.16 
L 221.4 51.84 
" clip-path="url(#pc8c8471b0b)" style="fill: none; stroke: #ffffff; stroke-linecap: round"/>
     </g>
     <g id="text_1">
      <!-- 0° -->
      <g style="fill: #262626" transform="translate(216.142344 38.183672) scale(0.11 -0.11)">
       <defs>
        <path id="ArialMT-30" d="M 266 2259 
Q 266 3072 433 3567 
Q 600 4063 929 4331 
Q 1259 4600 1759 4600 
Q 2128 4600 2406 4451 
Q 2684 4303 2865 4023 
Q 3047 3744 3150 3342 
Q 3253 2941 3253 2259 
Q 3253 1453 3087 958 
Q 2922 463 2592 192 
Q 2263 -78 1759 -78 
Q 1097 -78 719 397 
Q 266 969 266 2259 
z
M 844 2259 
Q 844 1131 1108 757 
Q 1372 384 1759 384 
Q 2147 384 2411 759 
Q 2675 1134 2675 2259 
Q 2675 3391 2411 3762 
Q 2147 4134 1753 4134 
Q 1366 4134 1134 3806 
Q 844 3388 844 2259 
z
" transform="scale(0.015625)"/>
        <path id="ArialMT-b0" d="M 400 3794 
Q 400 4153 654 4406 
Q 909 4659 1266 4659 
Q 1628 4659 1881 4406 
Q 2134 4153 2134 3794 
Q 2134 3434 1879 3179 
Q 1625 2925 1266 2925 
Q 909 2925 654 3178 
Q 400 3431 400 3794 
z
M 741 3794 
Q 741 3575 895 3420 
Q 1050 3266 1269 3266 
Q 1484 3266 1639 3420 
Q 1794 3575 1794 3794 
Q 1794 4013 1639 4167 
Q 1484 4322 1269 4322 
Q 1050 4322 895 4167 
Q 741 4013 741 3794 
z
" transform="scale(0.015625)"/>
       </defs>
       <use xlink:href="#ArialMT-30"/>
       <use xlink:href="#ArialMT-b0" x="55.615234"/>
      </g>
     </g>
    </g>
    <g id="xtick_2">
     <g id="line2d_2">
      <path d="M 221.4 218.16 
L 339.006 100.554 
" clip-path="url(#pc8c8471b0b)" style="fill: none; stroke: #ffffff; stroke-linecap: round"/>
     </g>
     <g id="text_2">
      <!-- 45° -->
      <g style="fill: #262626" transform="translate(342.35709 91.73041) scale(0.11 -0.11)">
       <defs>
        <path id="ArialMT-34" d="M 2069 0 
L 2069 1097 
L 81 1097 
L 81 1613 
L 2172 4581 
L 2631 4581 
L 2631 1613 
L 3250 1613 
L 3250 1097 
L 2631 1097 
L 2631 0 
L 2069 0 
z
M 2069 1613 
L 2069 3678 
L 634 1613 
L 2069 1613 
z
" transform="scale(0.015625)"/>
        <path id="ArialMT-35" d="M 266 1200 
L 856 1250 
Q 922 819 1161 601 
Q 1400 384 1738 384 
Q 2144 384 2425 690 
Q 2706 997 2706 1503 
Q 2706 1984 2436 2262 
Q 2166 2541 1728 2541 
Q 1456 2541 1237 2417 
Q 1019 2294 894 2097 
L 366 2166 
L 809 4519 
L 3088 4519 
L 3088 3981 
L 1259 3981 
L 1013 2750 
Q 1425 3038 1878 3038 
Q 2478 3038 2890 2622 
Q 3303 2206 3303 1553 
Q 3303 931 2941 478 
Q 2500 -78 1738 -78 
Q 1113 -78 717 272 
Q 322 622 266 1200 
z
" transform="scale(0.015625)"/>
       </defs>
       <use xlink:href="#ArialMT-34"/>
       <use xlink:href="#ArialMT-35" x="55.615234"/>
       <use xlink:href="#ArialMT-b0" x="111.230469"/>
      </g>
     </g>
    </g>
    <g id="xtick_3">
     <g id="line2d_3">
      <path d="M 221.4 218.16 
L 387.72 218.16 
" clip-path="url(#pc8c8471b0b)" style="fill: none; stroke: #ffffff; stroke-linecap: round"/>
     </g>
     <g id="text_3">
      <!-- 90° -->
      <g style="fill: #262626" transform="translate(395.903828 221.003672) scale(0.11 -0.11)">
       <defs>
        <path id="ArialMT-39" d="M 350 1059 
L 891 1109 
Q 959 728 1153 556 
Q 1347 384 1650 384 
Q 1909 384 2104 503 
Q 2300 622 2425 820 
Q 2550 1019 2634 1356 
Q 2719 1694 2719 2044 
Q 2719 2081 2716 2156 
Q 2547 1888 2255 1720 
Q 1963 1553 1622 1553 
Q 1053 1553 659 1965 
Q 266 2378 266 3053 
Q 266 3750 677 4175 
Q 1088 4600 1706 4600 
Q 2153 4600 2523 4359 
Q 2894 4119 3086 3673 
Q 3278 3228 3278 2384 
Q 3278 1506 3087 986 
Q 2897 466 2520 194 
Q 2144 -78 1638 -78 
Q 1100 -78 759 220 
Q 419 519 350 1059 
z
M 2653 3081 
Q 2653 3566 2395 3850 
Q 2138 4134 1775 4134 
Q 1400 4134 1122 3828 
Q 844 3522 844 3034 
Q 844 2597 1108 2323 
Q 1372 2050 1759 2050 
Q 2150 2050 2401 2323 
Q 2653 2597 2653 3081 
z
" transform="scale(0.015625)"/>
       </defs>
       <use xlink:href="#ArialMT-39"/>
       <use xlink:href="#ArialMT-30" x="55.615234"/>
       <use xlink:href="#ArialMT-b0" x="111.230469"/>
      </g>
     </g>
    </g>
    <g id="xtick_4">
     <g id="line2d_4">
      <path d="M 221.4 218.16 
L 339.006 335.766 
" clip-path="url(#pc8c8471b0b)" style="fill: none; stroke: #ffffff; stroke-linecap: round"/>
     </g>
     <g id="text_4">
      <!-- 135° -->
      <g style="fill: #262626" transform="translate(339.298574 350.276934) scale(0.11 -0.11)">
       <defs>
        <path id="ArialMT-31" d="M 2384 0 
L 1822 0 
L 1822 3584 
Q 1619 3391 1289 3197 
Q 959 3003 697 2906 
L 697 3450 
Q 1169 3672 1522 3987 
Q 1875 4303 2022 4600 
L 2384 4600 
L 2384 0 
z
" transform="scale(0.015625)"/>
        <path id="ArialMT-33" d="M 269 1209 
L 831 1284 
Q 928 806 1161 595 
Q 1394 384 1728 384 
Q 2125 384 2398 659 
Q 2672 934 2672 1341 
Q 2672 1728 2419 1979 
Q 2166 2231 1775 2231 
Q 1616 2231 1378 2169 
L 1441 2663 
Q 1497 2656 1531 2656 
Q 1891 2656 2178 2843 
Q 2466 3031 2466 3422 
Q 2466 3731 2256 3934 
Q 2047 4138 1716 4138 
Q 1388 4138 1169 3931 
Q 950 3725 888 3313 
L 325 3413 
Q 428 3978 793 4289 
Q 1159 4600 1703 4600 
Q 2078 4600 2393 4439 
Q 2709 4278 2876 4000 
Q 3044 3722 3044 3409 
Q 3044 3113 2884 2869 
Q 2725 2625 2413 2481 
Q 2819 2388 3044 2092 
Q 3269 1797 3269 1353 
Q 3269 753 2831 336 
Q 2394 -81 1725 -81 
Q 1122 -81 723 278 
Q 325 638 269 1209 
z
" transform="scale(0.015625)"/>
       </defs>
       <use xlink:href="#ArialMT-31"/>
       <use xlink:href="#ArialMT-33" x="55.615234"/>
       <use xlink:href="#ArialMT-35" x="111.230469"/>
       <use xlink:href="#ArialMT-b0" x="166.845703"/>
      </g>
     </g>
    </g>
    <g id="xtick_5">
     <g id="line2d_5">
      <path d="M 221.4 218.16 
L 221.4 384.48 
" clip-path="url(#pc8c8471b0b)" style="fill: none; stroke: #ffffff; stroke-linecap: round"/>
     </g>
     <g id="text_5">
      <!-- 180° -->
      <g style="fill: #262626" transform="translate(210.025312 403.823672) scale(0.11 -0.11)">
       <defs>
        <path id="ArialMT-38" d="M 1131 2484 
Q 781 2613 612 2850 
Q 444 3088 444 3419 
Q 444 3919 803 4259 
Q 1163 4600 1759 4600 
Q 2359 4600 2725 4251 
Q 3091 3903 3091 3403 
Q 3091 3084 2923 2848 
Q 2756 2613 2416 2484 
Q 2838 2347 3058 2040 
Q 3278 1734 3278 1309 
Q 3278 722 2862 322 
Q 2447 -78 1769 -78 
Q 1091 -78 675 323 
Q 259 725 259 1325 
Q 259 1772 486 2073 
Q 713 2375 1131 2484 
z
M 1019 3438 
Q 1019 3113 1228 2906 
Q 1438 2700 1772 2700 
Q 2097 2700 2305 2904 
Q 2513 3109 2513 3406 
Q 2513 3716 2298 3927 
Q 2084 4138 1766 4138 
Q 1444 4138 1231 3931 
Q 1019 3725 1019 3438 
z
M 838 1322 
Q 838 1081 952 856 
Q 1066 631 1291 507 
Q 1516 384 1775 384 
Q 2178 384 2440 643 
Q 2703 903 2703 1303 
Q 2703 1709 2433 1975 
Q 2163 2241 1756 2241 
Q 1359 2241 1098 1978 
Q 838 1716 838 1322 
z
" transform="scale(0.015625)"/>
       </defs>
       <use xlink:href="#ArialMT-31"/>
       <use xlink:href="#ArialMT-38" x="55.615234"/>
       <use xlink:href="#ArialMT-30" x="111.230469"/>
       <use xlink:href="#ArialMT-b0" x="166.845703"/>
      </g>
     </g>
    </g>
    <g id="xtick_6">
     <g id="line2d_6">
      <path d="M 221.4 218.16 
L 103.794 335.766 
" clip-path="url(#pc8c8471b0b)" style="fill: none; stroke: #ffffff; stroke-linecap: round"/>
     </g>
     <g id="text_6">
      <!-- 225° -->
      <g style="fill: #262626" transform="translate(80.752051 350.276934) scale(0.11 -0.11)">
       <defs>
        <path id="ArialMT-32" d="M 3222 541 
L 3222 0 
L 194 0 
Q 188 203 259 391 
Q 375 700 629 1000 
Q 884 1300 1366 1694 
Q 2113 2306 2375 2664 
Q 2638 3022 2638 3341 
Q 2638 3675 2398 3904 
Q 2159 4134 1775 4134 
Q 1369 4134 1125 3890 
Q 881 3647 878 3216 
L 300 3275 
Q 359 3922 746 4261 
Q 1134 4600 1788 4600 
Q 2447 4600 2831 4234 
Q 3216 3869 3216 3328 
Q 3216 3053 3103 2787 
Q 2991 2522 2730 2228 
Q 2469 1934 1863 1422 
Q 1356 997 1212 845 
Q 1069 694 975 541 
L 3222 541 
z
" transform="scale(0.015625)"/>
       </defs>
       <use xlink:href="#ArialMT-32"/>
       <use xlink:href="#ArialMT-32" x="55.615234"/>
       <use xlink:href="#ArialMT-35" x="111.230469"/>
       <use xlink:href="#ArialMT-b0" x="166.845703"/>
      </g>
     </g>
    </g>
    <g id="xtick_7">
     <g id="line2d_7">
      <path d="M 221.4 218.16 
L 55.08 218.16 
" clip-path="url(#pc8c8471b0b)" style="fill: none; stroke: #ffffff; stroke-linecap: round"/>
     </g>
     <g id="text_7">
      <!-- 270° -->
      <g style="fill: #262626" transform="translate(27.205312 221.003672) scale(0.11 -0.11)">
       <defs>
        <path id="ArialMT-37" d="M 303 3981 
L 303 4522 
L 3269 4522 
L 3269 4084 
Q 2831 3619 2401 2847 
Q 1972 2075 1738 1259 
Q 1569 684 1522 0 
L 944 0 
Q 953 541 1156 1306 
Q 1359 2072 1739 2783 
Q 2119 3494 2547 3981 
L 303 3981 
z
" transform="scale(0.015625)"/>
       </defs>
       <use xlink:href="#ArialMT-32"/>
       <use xlink:href="#ArialMT-37" x="55.615234"/>
       <use xlink:href="#ArialMT-30" x="111.230469"/>
       <use xlink:href="#ArialMT-b0" x="166.845703"/>
      </g>
     </g>
    </g>
    <g id="xtick_8">
     <g id="line2d_8">
      <path d="M 221.4 218.16 
L 103.794 100.554 
" clip-path="url(#pc8c8471b0b)" style="fill: none; stroke: #ffffff; stroke-linecap: round"/>
     </g>
     <g id="text_8">
      <!-- 315° -->
      <g style="fill: #262626" transform="translate(80.752051 91.73041) scale(0.11 -0.11)">
       <use xlink:href="#ArialMT-33"/>
       <use xlink:href="#ArialMT-31" x="55.615234"/>
       <use xlink:href="#ArialMT-35" x="111.230469"/>
       <use xlink:href="#ArialMT-b0" x="166.845703"/>
      </g>
     </g>
    </g>
   </g>
   <g id="matplotlib.axis_2">
    <g id="ytick_1">
     <g id="line2d_9">
      <path d="M 221.4 218.16 
C 221.4 218.16 221.4 218.16 221.4 218.16 
C 221.4 218.16 221.4 218.16 221.4 218.16 
C 221.4 218.16 221.4 218.16 221.4 218.16 
C 221.4 218.16 221.4 218.16 221.4 218.16 
C 221.4 218.16 221.4 218.16 221.4 218.16 
C 221.4 218.16 221.4 218.16 221.4 218.16 
C 221.4 218.16 221.4 218.16 221.4 218.16 
C 221.4 218.16 221.4 218.16 221.4 218.16 
C 221.4 218.16 221.4 218.16 221.4 218.16 
C 221.4 218.16 221.4 218.16 221.4 218.16 
C 221.4 218.16 221.4 218.16 221.4 218.16 
C 221.4 218.16 221.4 218.16 221.4 218.16 
C 221.4 218.16 221.4 218.16 221.4 218.16 
C 221.4 218.16 221.4 218.16 221.4 218.16 
C 221.4 218.16 221.4 218.16 221.4 218.16 
C 221.4 218.16 221.4 218.16 221.4 218.16 
" clip-path="url(#pc8c8471b0b)" style="fill: none; stroke: #ffffff; stroke-linecap: round"/>
     </g>
     <g id="text_9">
      <!-- 0.0 -->
      <g style="fill: #dc143c" transform="translate(221.4 215.97375) scale(0.11 -0.11)">
       <defs>
        <path id="ArialMT-2e" d="M 581 0 
L 581 641 
L 1222 641 
L 1222 0 
L 581 0 
z
" transform="scale(0.015625)"/>
       </defs>
       <use xlink:href="#ArialMT-30"/>
       <use xlink:href="#ArialMT-2e" x="55.615234"/>
       <use xlink:href="#ArialMT-30" x="83.398438"/>
      </g>
     </g>
    </g>
    <g id="ytick_2">
     <g id="line2d_10">
      <path d="M 221.4 197.37 
C 224.130118 197.37 226.833689 197.907774 229.355989 198.952545 
C 231.878289 199.997315 234.170265 201.528765 236.10075 203.45925 
C 238.031235 205.389735 239.562685 207.681711 240.607455 210.204011 
C 241.652226 212.726311 242.19 215.429882 242.19 218.16 
C 242.19 220.890118 241.652226 223.593689 240.607455 226.115989 
C 239.562685 228.638289 238.031235 230.930265 236.10075 232.86075 
C 234.170265 234.791235 231.878289 236.322685 229.355989 237.367455 
C 226.833689 238.412226 224.130118 238.95 221.4 238.95 
C 218.669882 238.95 215.966311 238.412226 213.444011 237.367455 
C 210.921711 236.322685 208.629735 234.791235 206.69925 232.86075 
C 204.768765 230.930265 203.237315 228.638289 202.192545 226.115989 
C 201.147774 223.593689 200.61 220.890118 200.61 218.16 
C 200.61 215.429882 201.147774 212.726311 202.192545 210.204011 
C 203.237315 207.681711 204.768765 205.389735 206.69925 203.45925 
C 208.629735 201.528765 210.921711 199.997315 213.444011 198.952545 
C 215.966311 197.907774 218.669882 197.37 221.4 197.37 
" clip-path="url(#pc8c8471b0b)" style="fill: none; stroke: #ffffff; stroke-linecap: round"/>
     </g>
     <g id="text_10">
      <!-- 0.1 -->
      <g style="fill: #dc143c" transform="translate(229.355989 196.766295) scale(0.11 -0.11)">
       <use xlink:href="#ArialMT-30"/>
       <use xlink:href="#ArialMT-2e" x="55.615234"/>
       <use xlink:href="#ArialMT-31" x="83.398438"/>
      </g>
     </g>
    </g>
    <g id="ytick_3">
     <g id="line2d_11">
      <path d="M 221.4 176.58 
C 226.860236 176.58 232.267377 177.655547 237.311977 179.745089 
C 242.356577 181.834631 246.94053 184.89753 250.8015 188.7585 
C 254.66247 192.61947 257.725369 197.203423 259.814911 202.248023 
C 261.904453 207.292623 262.98 212.699764 262.98 218.16 
C 262.98 223.620236 261.904453 229.027377 259.814911 234.071977 
C 257.725369 239.116577 254.66247 243.70053 250.8015 247.5615 
C 246.94053 251.42247 242.356577 254.485369 237.311977 256.574911 
C 232.267377 258.664453 226.860236 259.74 221.4 259.74 
C 215.939764 259.74 210.532623 258.664453 205.488023 256.574911 
C 200.443423 254.485369 195.85947 251.42247 191.9985 247.5615 
C 188.13753 243.70053 185.074631 239.116577 182.985089 234.071977 
C 180.895547 229.027377 179.82 223.620236 179.82 218.16 
C 179.82 212.699764 180.895547 207.292623 182.985089 202.248023 
C 185.074631 197.203423 188.13753 192.61947 191.9985 188.7585 
C 195.85947 184.89753 200.443423 181.834631 205.488023 179.745089 
C 210.532623 177.655547 215.939764 176.58 221.4 176.58 
" clip-path="url(#pc8c8471b0b)" style="fill: none; stroke: #ffffff; stroke-linecap: round"/>
     </g>
     <g id="text_11">
      <!-- 0.2 -->
      <g style="fill: #dc143c" transform="translate(237.311977 177.558839) scale(0.11 -0.11)">
       <use xlink:href="#ArialMT-30"/>
       <use xlink:href="#ArialMT-2e" x="55.615234"/>
       <use xlink:href="#ArialMT-32" x="83.398438"/>
      </g>
     </g>
    </g>
    <g id="ytick_4">
     <g id="line2d_12">
      <path d="M 221.4 155.79 
C 229.590353 155.79 237.701066 157.403321 245.267966 160.537634 
C 252.834866 163.671946 259.710796 168.266296 265.50225 174.05775 
C 271.293704 179.849204 275.888054 186.725134 279.022366 194.292034 
C 282.156679 201.858934 283.77 209.969647 283.77 218.16 
C 283.77 226.350353 282.156679 234.461066 279.022366 242.027966 
C 275.888054 249.594866 271.293704 256.470796 265.50225 262.26225 
C 259.710796 268.053704 252.834866 272.648054 245.267966 275.782366 
C 237.701066 278.916679 229.590353 280.53 221.4 280.53 
C 213.209647 280.53 205.098934 278.916679 197.532034 275.782366 
C 189.965134 272.648054 183.089204 268.053704 177.29775 262.26225 
C 171.506296 256.470796 166.911946 249.594866 163.777634 242.027966 
C 160.643321 234.461066 159.03 226.350353 159.03 218.16 
C 159.03 209.969647 160.643321 201.858934 163.777634 194.292034 
C 166.911946 186.725134 171.506296 179.849204 177.29775 174.05775 
C 183.089204 168.266296 189.965134 163.671946 197.532034 160.537634 
C 205.098934 157.403321 213.209647 155.79 221.4 155.79 
" clip-path="url(#pc8c8471b0b)" style="fill: none; stroke: #ffffff; stroke-linecap: round"/>
     </g>
     <g id="text_12">
      <!-- 0.3 -->
      <g style="fill: #dc143c" transform="translate(245.267966 158.351384) scale(0.11 -0.11)">
       <use xlink:href="#ArialMT-30"/>
       <use xlink:href="#ArialMT-2e" x="55.615234"/>
       <use xlink:href="#ArialMT-33" x="83.398438"/>
      </g>
     </g>
    </g>
    <g id="ytick_5">
     <g id="line2d_13">
      <path d="M 221.4 135 
C 232.320471 135 243.134754 137.151095 253.223954 141.330178 
C 263.313154 145.509261 272.481061 151.635061 280.203 159.357 
C 287.924939 167.078939 294.050739 176.246846 298.229822 186.336046 
C 302.408905 196.425246 304.56 207.239529 304.56 218.16 
C 304.56 229.080471 302.408905 239.894754 298.229822 249.983954 
C 294.050739 260.073154 287.924939 269.241061 280.203 276.963 
C 272.481061 284.684939 263.313154 290.810739 253.223954 294.989822 
C 243.134754 299.168905 232.320471 301.32 221.4 301.32 
C 210.479529 301.32 199.665246 299.168905 189.576046 294.989822 
C 179.486846 290.810739 170.318939 284.684939 162.597 276.963 
C 154.875061 269.241061 148.749261 260.073154 144.570178 249.983954 
C 140.391095 239.894754 138.24 229.080471 138.24 218.16 
C 138.24 207.239529 140.391095 196.425246 144.570178 186.336046 
C 148.749261 176.246846 154.875061 167.078939 162.597 159.357 
C 170.318939 151.635061 179.486846 145.509261 189.576046 141.330178 
C 199.665246 137.151095 210.479529 135 221.4 135 
" clip-path="url(#pc8c8471b0b)" style="fill: none; stroke: #ffffff; stroke-linecap: round"/>
     </g>
     <g id="text_13">
      <!-- 0.4 -->
      <g style="fill: #dc143c" transform="translate(253.223954 139.143928) scale(0.11 -0.11)">
       <use xlink:href="#ArialMT-30"/>
       <use xlink:href="#ArialMT-2e" x="55.615234"/>
       <use xlink:href="#ArialMT-34" x="83.398438"/>
      </g>
     </g>
    </g>
    <g id="ytick_6">
     <g id="line2d_14">
      <path d="M 221.4 114.21 
C 235.050589 114.21 248.568443 116.898868 261.179943 122.122723 
C 273.791443 127.346577 285.251326 135.003826 294.90375 144.65625 
C 304.556174 154.308674 312.213423 165.768557 317.437277 178.380057 
C 322.661132 190.991557 325.35 204.509411 325.35 218.16 
C 325.35 231.810589 322.661132 245.328443 317.437277 257.939943 
C 312.213423 270.551443 304.556174 282.011326 294.90375 291.66375 
C 285.251326 301.316174 273.791443 308.973423 261.179943 314.197277 
C 248.568443 319.421132 235.050589 322.11 221.4 322.11 
C 207.749411 322.11 194.231557 319.421132 181.620057 314.197277 
C 169.008557 308.973423 157.548674 301.316174 147.89625 291.66375 
C 138.243826 282.011326 130.586577 270.551443 125.362723 257.939943 
C 120.138868 245.328443 117.45 231.810589 117.45 218.16 
C 117.45 204.509411 120.138868 190.991557 125.362723 178.380057 
C 130.586577 165.768557 138.243826 154.308674 147.89625 144.65625 
C 157.548674 135.003826 169.008557 127.346577 181.620057 122.122723 
C 194.231557 116.898868 207.749411 114.21 221.4 114.21 
" clip-path="url(#pc8c8471b0b)" style="fill: none; stroke: #ffffff; stroke-linecap: round"/>
     </g>
     <g id="text_14">
      <!-- 0.5 -->
      <g style="fill: #dc143c" transform="translate(261.179943 119.936473) scale(0.11 -0.11)">
       <use xlink:href="#ArialMT-30"/>
       <use xlink:href="#ArialMT-2e" x="55.615234"/>
       <use xlink:href="#ArialMT-35" x="83.398438"/>
      </g>
     </g>
    </g>
    <g id="ytick_7">
     <g id="line2d_15">
      <path d="M 221.4 93.42 
C 237.780707 93.42 254.002132 96.646642 269.135931 102.915267 
C 284.269731 109.183892 298.021591 118.372591 309.6045 129.9555 
C 321.187409 141.538409 330.376108 155.290269 336.644733 170.424069 
C 342.913358 185.557868 346.14 201.779293 346.14 218.16 
C 346.14 234.540707 342.913358 250.762132 336.644733 265.895931 
C 330.376108 281.029731 321.187409 294.781591 309.6045 306.3645 
C 298.021591 317.947409 284.269731 327.136108 269.135931 333.404733 
C 254.002132 339.673358 237.780707 342.9 221.4 342.9 
C 205.019293 342.9 188.797868 339.673358 173.664069 333.404733 
C 158.530269 327.136108 144.778409 317.947409 133.1955 306.3645 
C 121.612591 294.781591 112.423892 281.029731 106.155267 265.895931 
C 99.886642 250.762132 96.66 234.540707 96.66 218.16 
C 96.66 201.779293 99.886642 185.557868 106.155267 170.424069 
C 112.423892 155.290269 121.612591 141.538409 133.1955 129.9555 
C 144.778409 118.372591 158.530269 109.183892 173.664069 102.915267 
C 188.797868 96.646642 205.019293 93.42 221.4 93.42 
" clip-path="url(#pc8c8471b0b)" style="fill: none; stroke: #ffffff; stroke-linecap: round"/>
     </g>
     <g id="text_15">
      <!-- 0.6 -->
      <g style="fill: #dc143c" transform="translate(269.135931 100.729017) scale(0.11 -0.11)">
       <defs>
        <path id="ArialMT-36" d="M 3184 3459 
L 2625 3416 
Q 2550 3747 2413 3897 
Q 2184 4138 1850 4138 
Q 1581 4138 1378 3988 
Q 1113 3794 959 3422 
Q 806 3050 800 2363 
Q 1003 2672 1297 2822 
Q 1591 2972 1913 2972 
Q 2475 2972 2870 2558 
Q 3266 2144 3266 1488 
Q 3266 1056 3080 686 
Q 2894 316 2569 119 
Q 2244 -78 1831 -78 
Q 1128 -78 684 439 
Q 241 956 241 2144 
Q 241 3472 731 4075 
Q 1159 4600 1884 4600 
Q 2425 4600 2770 4297 
Q 3116 3994 3184 3459 
z
M 888 1484 
Q 888 1194 1011 928 
Q 1134 663 1356 523 
Q 1578 384 1822 384 
Q 2178 384 2434 671 
Q 2691 959 2691 1453 
Q 2691 1928 2437 2201 
Q 2184 2475 1800 2475 
Q 1419 2475 1153 2201 
Q 888 1928 888 1484 
z
" transform="scale(0.015625)"/>
       </defs>
       <use xlink:href="#ArialMT-30"/>
       <use xlink:href="#ArialMT-2e" x="55.615234"/>
       <use xlink:href="#ArialMT-36" x="83.398438"/>
      </g>
     </g>
    </g>
    <g id="ytick_8">
     <g id="line2d_16">
      <path d="M 221.4 72.63 
C 240.510824 72.63 259.43582 76.394416 277.09192 83.707812 
C 294.74802 91.021208 310.791856 101.741357 324.30525 115.25475 
C 337.818643 128.768144 348.538792 144.81198 355.852188 162.46808 
C 363.165584 180.12418 366.93 199.049176 366.93 218.16 
C 366.93 237.270824 363.165584 256.19582 355.852188 273.85192 
C 348.538792 291.50802 337.818643 307.551856 324.30525 321.06525 
C 310.791856 334.578643 294.74802 345.298792 277.09192 352.612188 
C 259.43582 359.925584 240.510824 363.69 221.4 363.69 
C 202.289176 363.69 183.36418 359.925584 165.70808 352.612188 
C 148.05198 345.298792 132.008144 334.578643 118.49475 321.06525 
C 104.981357 307.551856 94.261208 291.50802 86.947812 273.85192 
C 79.634416 256.19582 75.87 237.270824 75.87 218.16 
C 75.87 199.049176 79.634416 180.12418 86.947812 162.46808 
C 94.261208 144.81198 104.981357 128.768144 118.49475 115.25475 
C 132.008144 101.741357 148.05198 91.021208 165.70808 83.707812 
C 183.36418 76.394416 202.289176 72.63 221.4 72.63 
" clip-path="url(#pc8c8471b0b)" style="fill: none; stroke: #ffffff; stroke-linecap: round"/>
     </g>
     <g id="text_16">
      <!-- 0.7 -->
      <g style="fill: #dc143c" transform="translate(277.09192 81.521562) scale(0.11 -0.11)">
       <use xlink:href="#ArialMT-30"/>
       <use xlink:href="#ArialMT-2e" x="55.615234"/>
       <use xlink:href="#ArialMT-37" x="83.398438"/>
      </g>
     </g>
    </g>
    <g id="ytick_9">
     <g id="line2d_17">
      <path d="M 221.4 51.84 
C 243.240942 51.84 264.869509 56.142189 285.047908 64.500356 
C 305.226308 72.858523 323.562121 85.110122 339.006 100.554 
C 354.449878 115.997879 366.701477 134.333692 375.059644 154.512092 
C 383.417811 174.690491 387.72 196.319058 387.72 218.16 
C 387.72 240.000942 383.417811 261.629509 375.059644 281.807908 
C 366.701477 301.986308 354.449878 320.322121 339.006 335.766 
C 323.562121 351.209878 305.226308 363.461477 285.047908 371.819644 
C 264.869509 380.177811 243.240942 384.48 221.4 384.48 
C 199.559058 384.48 177.930491 380.177811 157.752092 371.819644 
C 137.573692 363.461477 119.237879 351.209878 103.794 335.766 
C 88.350122 320.322121 76.098523 301.986308 67.740356 281.807908 
C 59.382189 261.629509 55.08 240.000942 55.08 218.16 
C 55.08 196.319058 59.382189 174.690491 67.740356 154.512092 
C 76.098523 134.333692 88.350122 115.997879 103.794 100.554 
C 119.237879 85.110122 137.573692 72.858523 157.752092 64.500356 
C 177.930491 56.142189 199.559058 51.84 221.4 51.84 
" clip-path="url(#pc8c8471b0b)" style="fill: none; stroke: #ffffff; stroke-linecap: round"/>
     </g>
     <g id="text_17">
      <!-- 0.8 -->
      <g style="fill: #dc143c" transform="translate(285.047908 62.314106) scale(0.11 -0.11)">
       <use xlink:href="#ArialMT-30"/>
       <use xlink:href="#ArialMT-2e" x="55.615234"/>
       <use xlink:href="#ArialMT-38" x="83.398438"/>
      </g>
     </g>
    </g>
   </g>
   <g id="line2d_18">
    <defs>
     <path id="m88c9233abc" d="M 0 0.5 
C 0.132602 0.5 0.25979 0.447317 0.353553 0.353553 
C 0.447317 0.25979 0.5 0.132602 0.5 0 
C 0.5 -0.132602 0.447317 -0.25979 0.353553 -0.353553 
C 0.25979 -0.447317 0.132602 -0.5 0 -0.5 
C -0.132602 -0.5 -0.25979 -0.447317 -0.353553 -0.353553 
C -0.447317 -0.25979 -0.5 -0.132602 -0.5 0 
C -0.5 0.132602 -0.447317 0.25979 -0.353553 0.353553 
C -0.25979 0.447317 -0.132602 0.5 0 0.5 
z
" style="stroke: #000000"/>
    </defs>
    <g clip-path="url(#pc8c8471b0b)">
     <use xlink:href="#m88c9233abc" x="218.845552" y="291.309817" style="stroke: #000000"/>
     <use xlink:href="#m88c9233abc" x="216.294216" y="291.176107" style="stroke: #000000"/>
     <use xlink:href="#m88c9233abc" x="213.955524" y="288.989462" style="stroke: #000000"/>
     <use xlink:href="#m88c9233abc" x="219.442033" y="236.788811" style="stroke: #000000"/>
     <use xlink:href="#m88c9233abc" x="211.488146" y="288.686506" style="stroke: #000000"/>
     <use xlink:href="#m88c9233abc" x="218.79309" y="236.709131" style="stroke: #000000"/>
     <use xlink:href="#m88c9233abc" x="208.689925" y="290.242418" style="stroke: #000000"/>
     <use xlink:href="#m88c9233abc" x="259.174763" y="3.928675" style="stroke: #000000"/>
     <use xlink:href="#m88c9233abc" x="206.182027" y="289.754932" style="stroke: #000000"/>
     <use xlink:href="#m88c9233abc" x="266.628317" y="5.377499" style="stroke: #000000"/>
     <use xlink:href="#m88c9233abc" x="203.692671" y="289.180219" style="stroke: #000000"/>
     <use xlink:href="#m88c9233abc" x="274.026767" y="7.085566" style="stroke: #000000"/>
     <use xlink:href="#m88c9233abc" x="202.852024" y="282.844481" style="stroke: #000000"/>
     <use xlink:href="#m88c9233abc" x="281.3611" y="9.050794" style="stroke: #000000"/>
     <use xlink:href="#m88c9233abc" x="200.605867" y="282.157762" style="stroke: #000000"/>
     <use xlink:href="#m88c9233abc" x="288.622379" y="11.27079" style="stroke: #000000"/>
     <use xlink:href="#m88c9233abc" x="198.385044" y="281.393071" style="stroke: #000000"/>
     <use xlink:href="#m88c9233abc" x="297.877545" y="8.039672" style="stroke: #000000"/>
     <use xlink:href="#m88c9233abc" x="196.192262" y="280.551341" style="stroke: #000000"/>
     <use xlink:href="#m88c9233abc" x="305.164051" y="10.836699" style="stroke: #000000"/>
     <use xlink:href="#m88c9233abc" x="194.030191" y="279.633597" style="stroke: #000000"/>
     <use xlink:href="#m88c9233abc" x="312.348503" y="13.886318" style="stroke: #000000"/>
     <use xlink:href="#m88c9233abc" x="191.901467" y="278.640956" style="stroke: #000000"/>
     <use xlink:href="#m88c9233abc" x="319.422148" y="17.184813" style="stroke: #000000"/>
     <use xlink:href="#m88c9233abc" x="189.808682" y="277.574629" style="stroke: #000000"/>
     <use xlink:href="#m88c9233abc" x="326.376369" y="20.728165" style="stroke: #000000"/>
     <use xlink:href="#m88c9233abc" x="187.754386" y="276.435914" style="stroke: #000000"/>
     <use xlink:href="#m88c9233abc" x="333.202691" y="24.512058" style="stroke: #000000"/>
     <use xlink:href="#m88c9233abc" x="185.741081" y="275.226199" style="stroke: #000000"/>
     <use xlink:href="#m88c9233abc" x="339.8928" y="28.531881" style="stroke: #000000"/>
     <use xlink:href="#m88c9233abc" x="183.771222" y="273.946957" style="stroke: #000000"/>
     <use xlink:href="#m88c9233abc" x="346.438543" y="32.782736" style="stroke: #000000"/>
     <use xlink:href="#m88c9233abc" x="181.847208" y="272.599748" style="stroke: #000000"/>
     <use xlink:href="#m88c9233abc" x="352.831946" y="37.259445" style="stroke: #000000"/>
     <use xlink:href="#m88c9233abc" x="179.971383" y="271.186212" style="stroke: #000000"/>
     <use xlink:href="#m88c9233abc" x="359.06522" y="41.956554" style="stroke: #000000"/>
     <use xlink:href="#m88c9233abc" x="181.899798" y="265.234508" style="stroke: #000000"/>
     <use xlink:href="#m88c9233abc" x="378.808605" y="30.567729" style="stroke: #000000"/>
     <use xlink:href="#m88c9233abc" x="171.097241" y="274.026874" style="stroke: #000000"/>
     <use xlink:href="#m88c9233abc" x="178.983139" y="265.268697" style="stroke: #000000"/>
     <use xlink:href="#m88c9233abc" x="383.680495" y="37.929251" style="stroke: #000000"/>
     <use xlink:href="#m88c9233abc" x="167.796481" y="273.668068" style="stroke: #000000"/>
     <use xlink:href="#m88c9233abc" x="354.520253" y="80.309943" style="stroke: #000000"/>
     <use xlink:href="#m88c9233abc" x="391.510941" y="42.004964" style="stroke: #000000"/>
     <use xlink:href="#m88c9233abc" x="165.891932" y="271.763519" style="stroke: #000000"/>
     <use xlink:href="#m88c9233abc" x="357.135051" y="87.082185" style="stroke: #000000"/>
     <use xlink:href="#m88c9233abc" x="164.05501" y="269.793661" style="stroke: #000000"/>
     <use xlink:href="#m88c9233abc" x="172.844696" y="261.879392" style="stroke: #000000"/>
     <use xlink:href="#m88c9233abc" x="360.89302" y="92.559921" style="stroke: #000000"/>
     <use xlink:href="#m88c9233abc" x="172.839673" y="258.906952" style="stroke: #000000"/>
     <use xlink:href="#m88c9233abc" x="402.894767" y="65.867808" style="stroke: #000000"/>
     <use xlink:href="#m88c9233abc" x="171.447207" y="257.187399" style="stroke: #000000"/>
     <use xlink:href="#m88c9233abc" x="408.099126" y="72.294656" style="stroke: #000000"/>
     <use xlink:href="#m88c9233abc" x="170.1156" y="255.420298" style="stroke: #000000"/>
     <use xlink:href="#m88c9233abc" x="413.076021" y="78.899219" style="stroke: #000000"/>
     <use xlink:href="#m88c9233abc" x="168.846475" y="253.6078" style="stroke: #000000"/>
     <use xlink:href="#m88c9233abc" x="417.819388" y="85.67345" style="stroke: #000000"/>
     <use xlink:href="#m88c9233abc" x="167.641379" y="251.752115" style="stroke: #000000"/>
     <use xlink:href="#m88c9233abc" x="422.323449" y="92.609095" style="stroke: #000000"/>
     <use xlink:href="#m88c9233abc" x="156.295419" y="255.748147" style="stroke: #000000"/>
     <use xlink:href="#m88c9233abc" x="164.815973" y="250.828803" style="stroke: #000000"/>
     <use xlink:href="#m88c9233abc" x="155.023272" y="253.453132" style="stroke: #000000"/>
     <use xlink:href="#m88c9233abc" x="163.710318" y="248.834148" style="stroke: #000000"/>
     <use xlink:href="#m88c9233abc" x="153.831994" y="251.115118" style="stroke: #000000"/>
     <use xlink:href="#m88c9233abc" x="162.674948" y="246.802121" style="stroke: #000000"/>
     <use xlink:href="#m88c9233abc" x="152.723038" y="248.736954" style="stroke: #000000"/>
     <use xlink:href="#m88c9233abc" x="161.711127" y="244.735199" style="stroke: #000000"/>
     <use xlink:href="#m88c9233abc" x="160.820026" y="242.635898" style="stroke: #000000"/>
     <use xlink:href="#m88c9233abc" x="204.032527" y="225.176915" style="stroke: #000000"/>
     <use xlink:href="#m88c9233abc" x="160.002733" y="240.506777" style="stroke: #000000"/>
     <use xlink:href="#m88c9233abc" x="225.031208" y="216.838348" style="stroke: #000000"/>
     <use xlink:href="#m88c9233abc" x="447.058439" y="136.027045" style="stroke: #000000"/>
     <use xlink:href="#m88c9233abc" x="159.260244" y="238.350431" style="stroke: #000000"/>
     <use xlink:href="#m88c9233abc" x="196.762613" y="226.165172" style="stroke: #000000"/>
     <use xlink:href="#m88c9233abc" x="237.791656" y="212.834028" style="stroke: #000000"/>
     <use xlink:href="#m88c9233abc" x="450.545591" y="143.706084" style="stroke: #000000"/>
     <use xlink:href="#m88c9233abc" x="156.715519" y="236.707976" style="stroke: #000000"/>
     <use xlink:href="#m88c9233abc" x="449.923363" y="152.63198" style="stroke: #000000"/>
     <use xlink:href="#m88c9233abc" x="146.526843" y="236.827975" style="stroke: #000000"/>
     <use xlink:href="#m88c9233abc" x="158.0032" y="233.966598" style="stroke: #000000"/>
     <use xlink:href="#m88c9233abc" x="145.920951" y="234.203567" style="stroke: #000000"/>
     <use xlink:href="#m88c9233abc" x="157.490177" y="231.744452" style="stroke: #000000"/>
     <use xlink:href="#m88c9233abc" x="460.933008" y="167.245687" style="stroke: #000000"/>
     <use xlink:href="#m88c9233abc" x="145.407019" y="231.559613" style="stroke: #000000"/>
     <use xlink:href="#m88c9233abc" x="157.055019" y="229.505756" style="stroke: #000000"/>
     <use xlink:href="#m88c9233abc" x="144.985672" y="228.899333" style="stroke: #000000"/>
     <use xlink:href="#m88c9233abc" x="156.698255" y="227.253237" style="stroke: #000000"/>
     <use xlink:href="#m88c9233abc" x="154.477399" y="225.193849" style="stroke: #000000"/>
     <use xlink:href="#m88c9233abc" x="466.494586" y="192.399521" style="stroke: #000000"/>
     <use xlink:href="#m88c9233abc" x="154.272689" y="222.853999" style="stroke: #000000"/>
     <use xlink:href="#m88c9233abc" x="468.790647" y="200.860761" style="stroke: #000000"/>
     <use xlink:href="#m88c9233abc" x="154.149763" y="220.50843" style="stroke: #000000"/>
     <use xlink:href="#m88c9233abc" x="466.916108" y="209.586389" style="stroke: #000000"/>
     <use xlink:href="#m88c9233abc" x="154.108771" y="218.16" style="stroke: #000000"/>
     <use xlink:href="#m88c9233abc" x="469.39475" y="218.16" style="stroke: #000000"/>
     <use xlink:href="#m88c9233abc" x="154.149763" y="215.81157" style="stroke: #000000"/>
     <use xlink:href="#m88c9233abc" x="464.565433" y="226.651524" style="stroke: #000000"/>
     <use xlink:href="#m88c9233abc" x="140.433005" y="212.498236" style="stroke: #000000"/>
     <use xlink:href="#m88c9233abc" x="154.272689" y="213.466001" style="stroke: #000000"/>
     <use xlink:href="#m88c9233abc" x="367.112704" y="228.349225" style="stroke: #000000"/>
     <use xlink:href="#m88c9233abc" x="456.938527" y="234.630458" style="stroke: #000000"/>
     <use xlink:href="#m88c9233abc" x="154.477399" y="211.126151" style="stroke: #000000"/>
     <use xlink:href="#m88c9233abc" x="352.612054" y="231.950943" style="stroke: #000000"/>
     <use xlink:href="#m88c9233abc" x="456.220232" y="242.840601" style="stroke: #000000"/>
     <use xlink:href="#m88c9233abc" x="141.025181" y="206.864056" style="stroke: #000000"/>
     <use xlink:href="#m88c9233abc" x="154.763645" y="208.794871" style="stroke: #000000"/>
     <use xlink:href="#m88c9233abc" x="349.653765" y="236.184891" style="stroke: #000000"/>
     <use xlink:href="#m88c9233abc" x="456.018858" y="251.13353" style="stroke: #000000"/>
     <use xlink:href="#m88c9233abc" x="139.488462" y="203.716786" style="stroke: #000000"/>
     <use xlink:href="#m88c9233abc" x="155.131076" y="206.475001" style="stroke: #000000"/>
     <use xlink:href="#m88c9233abc" x="357.209281" y="242.10684" style="stroke: #000000"/>
     <use xlink:href="#m88c9233abc" x="453.92659" y="259.160712" style="stroke: #000000"/>
     <use xlink:href="#m88c9233abc" x="155.579246" y="204.169367" style="stroke: #000000"/>
     <use xlink:href="#m88c9233abc" x="340.868977" y="243.553915" style="stroke: #000000"/>
     <use xlink:href="#m88c9233abc" x="453.147221" y="267.419392" style="stroke: #000000"/>
     <use xlink:href="#m88c9233abc" x="154.205186" y="201.406451" style="stroke: #000000"/>
     <use xlink:href="#m88c9233abc" x="341.114475" y="248.008171" style="stroke: #000000"/>
     <use xlink:href="#m88c9233abc" x="450.500102" y="275.281071" style="stroke: #000000"/>
     <use xlink:href="#m88c9233abc" x="152.939317" y="198.529215" style="stroke: #000000"/>
     <use xlink:href="#m88c9233abc" x="338.806566" y="251.825791" style="stroke: #000000"/>
     <use xlink:href="#m88c9233abc" x="404.672028" y="270.712408" style="stroke: #000000"/>
     <use xlink:href="#m88c9233abc" x="453.768187" y="284.790505" style="stroke: #000000"/>
     <use xlink:href="#m88c9233abc" x="155.537538" y="196.759989" style="stroke: #000000"/>
     <use xlink:href="#m88c9233abc" x="336.374887" y="255.517605" style="stroke: #000000"/>
     <use xlink:href="#m88c9233abc" x="442.061268" y="289.857192" style="stroke: #000000"/>
     <use xlink:href="#m88c9233abc" x="139.442242" y="188.329816" style="stroke: #000000"/>
     <use xlink:href="#m88c9233abc" x="152.619758" y="193.126039" style="stroke: #000000"/>
     <use xlink:href="#m88c9233abc" x="396.854752" y="282.020307" style="stroke: #000000"/>
     <use xlink:href="#m88c9233abc" x="140.533227" y="185.487703" style="stroke: #000000"/>
     <use xlink:href="#m88c9233abc" x="153.535329" y="190.740893" style="stroke: #000000"/>
     <use xlink:href="#m88c9233abc" x="439.566358" y="306.30493" style="stroke: #000000"/>
     <use xlink:href="#m88c9233abc" x="152.723038" y="187.583046" style="stroke: #000000"/>
     <use xlink:href="#m88c9233abc" x="436.357243" y="313.865131" style="stroke: #000000"/>
     <use xlink:href="#m88c9233abc" x="152.044292" y="184.332961" style="stroke: #000000"/>
     <use xlink:href="#m88c9233abc" x="429.935487" y="319.869553" style="stroke: #000000"/>
     <use xlink:href="#m88c9233abc" x="149.735817" y="180.055478" style="stroke: #000000"/>
     <use xlink:href="#m88c9233abc" x="427.713223" y="327.858686" style="stroke: #000000"/>
     <use xlink:href="#m88c9233abc" x="142.341424" y="172.51551" style="stroke: #000000"/>
     <use xlink:href="#m88c9233abc" x="154.572894" y="179.577352" style="stroke: #000000"/>
     <use xlink:href="#m88c9233abc" x="425.175774" y="335.809998" style="stroke: #000000"/>
     <use xlink:href="#m88c9233abc" x="152.568424" y="175.149258" style="stroke: #000000"/>
     <use xlink:href="#m88c9233abc" x="416.754903" y="340.231292" style="stroke: #000000"/>
     <use xlink:href="#m88c9233abc" x="150.771978" y="170.520797" style="stroke: #000000"/>
     <use xlink:href="#m88c9233abc" x="406.066201" y="342.718925" style="stroke: #000000"/>
     <use xlink:href="#m88c9233abc" x="142.560893" y="160.880036" style="stroke: #000000"/>
     <use xlink:href="#m88c9233abc" x="398.806033" y="347.053028" style="stroke: #000000"/>
     <use xlink:href="#m88c9233abc" x="144.607961" y="158.163484" style="stroke: #000000"/>
     <use xlink:href="#m88c9233abc" x="394.19966" y="353.165891" style="stroke: #000000"/>
     <use xlink:href="#m88c9233abc" x="146.748589" y="155.520029" style="stroke: #000000"/>
     <use xlink:href="#m88c9233abc" x="389.382758" y="359.11427" style="stroke: #000000"/>
     <use xlink:href="#m88c9233abc" x="148.980168" y="152.952891" style="stroke: #000000"/>
     <use xlink:href="#m88c9233abc" x="384.361194" y="364.890918" style="stroke: #000000"/>
     <use xlink:href="#m88c9233abc" x="151.29998" y="150.465197" style="stroke: #000000"/>
     <use xlink:href="#m88c9233abc" x="379.141087" y="370.488797" style="stroke: #000000"/>
     <use xlink:href="#m88c9233abc" x="150.826386" y="145.078884" style="stroke: #000000"/>
     <use xlink:href="#m88c9233abc" x="200.885373" y="196.916482" style="stroke: #000000"/>
     <use xlink:href="#m88c9233abc" x="153.419872" y="142.660419" style="stroke: #000000"/>
     <use xlink:href="#m88c9233abc" x="201.639259" y="196.213473" style="stroke: #000000"/>
     <use xlink:href="#m88c9233abc" x="156.096181" y="140.333939" style="stroke: #000000"/>
     <use xlink:href="#m88c9233abc" x="202.417219" y="195.537203" style="stroke: #000000"/>
     <use xlink:href="#m88c9233abc" x="158.852053" y="138.102278" style="stroke: #000000"/>
     <use xlink:href="#m88c9233abc" x="203.218307" y="194.888494" style="stroke: #000000"/>
     <use xlink:href="#m88c9233abc" x="156.760392" y="129.191212" style="stroke: #000000"/>
     <use xlink:href="#m88c9233abc" x="303.842621" y="331.632533" style="stroke: #000000"/>
     <use xlink:href="#m88c9233abc" x="163.424094" y="132.207185" style="stroke: #000000"/>
     <use xlink:href="#m88c9233abc" x="300.486984" y="335.411276" style="stroke: #000000"/>
     <use xlink:href="#m88c9233abc" x="165.351332" y="128.463381" style="stroke: #000000"/>
     <use xlink:href="#m88c9233abc" x="298.804522" y="342.03313" style="stroke: #000000"/>
     <use xlink:href="#m88c9233abc" x="321.392547" y="378.181525" style="stroke: #000000"/>
     <use xlink:href="#m88c9233abc" x="168.515842" y="126.561951" style="stroke: #000000"/>
     <use xlink:href="#m88c9233abc" x="293.2793" y="342.658599" style="stroke: #000000"/>
     <use xlink:href="#m88c9233abc" x="169.771522" y="121.060956" style="stroke: #000000"/>
     <use xlink:href="#m88c9233abc" x="210.928366" y="198.465722" style="stroke: #000000"/>
     <use xlink:href="#m88c9233abc" x="288.345174" y="344.06556" style="stroke: #000000"/>
     <use xlink:href="#m88c9233abc" x="173.191681" y="119.318298" style="stroke: #000000"/>
     <use xlink:href="#m88c9233abc" x="211.622066" y="198.112264" style="stroke: #000000"/>
     <use xlink:href="#m88c9233abc" x="283.910352" y="346.325214" style="stroke: #000000"/>
     <use xlink:href="#m88c9233abc" x="176.670574" y="117.696064" style="stroke: #000000"/>
     <use xlink:href="#m88c9233abc" x="212.327678" y="197.783232" style="stroke: #000000"/>
     <use xlink:href="#m88c9233abc" x="279.399371" y="348.428719" style="stroke: #000000"/>
     <use xlink:href="#m88c9233abc" x="180.203962" y="116.196229" style="stroke: #000000"/>
     <use xlink:href="#m88c9233abc" x="213.044344" y="197.479025" style="stroke: #000000"/>
     <use xlink:href="#m88c9233abc" x="274.817726" y="350.373512" style="stroke: #000000"/>
     <use xlink:href="#m88c9233abc" x="183.787542" y="114.820622" style="stroke: #000000"/>
     <use xlink:href="#m88c9233abc" x="270.171001" y="352.157223" style="stroke: #000000"/>
     <use xlink:href="#m88c9233abc" x="187.416947" y="113.570917" style="stroke: #000000"/>
     <use xlink:href="#m88c9233abc" x="265.464855" y="353.777679" style="stroke: #000000"/>
     <use xlink:href="#m88c9233abc" x="191.087755" y="112.448639" style="stroke: #000000"/>
     <use xlink:href="#m88c9233abc" x="260.705023" y="355.232905" style="stroke: #000000"/>
     <use xlink:href="#m88c9233abc" x="194.795494" y="111.455153" style="stroke: #000000"/>
     <use xlink:href="#m88c9233abc" x="255.897304" y="356.52113" style="stroke: #000000"/>
     <use xlink:href="#m88c9233abc" x="198.535646" y="110.591671" style="stroke: #000000"/>
     <use xlink:href="#m88c9233abc" x="251.047556" y="357.640783" style="stroke: #000000"/>
     <use xlink:href="#m88c9233abc" x="213.706148" y="174.525996" style="stroke: #000000"/>
     <use xlink:href="#m88c9233abc" x="246.564366" y="360.874214" style="stroke: #000000"/>
     <use xlink:href="#m88c9233abc" x="215.233639" y="174.284065" style="stroke: #000000"/>
     <use xlink:href="#m88c9233abc" x="241.568383" y="361.6655" style="stroke: #000000"/>
     <use xlink:href="#m88c9233abc" x="208.792868" y="98.211148" style="stroke: #000000"/>
     <use xlink:href="#m88c9233abc" x="237.381485" y="370.213677" style="stroke: #000000"/>
     <use xlink:href="#m88c9233abc" x="212.986702" y="97.844235" style="stroke: #000000"/>
     <use xlink:href="#m88c9233abc" x="232.065153" y="370.678796" style="stroke: #000000"/>
     <use xlink:href="#m88c9233abc" x="217.190787" y="97.623908" style="stroke: #000000"/>
     <use xlink:href="#m88c9233abc" x="226.735827" y="370.958094" style="stroke: #000000"/>
     <use xlink:href="#m88c9233abc" x="221.4" y="97.550436" style="stroke: #000000"/>
     <use xlink:href="#m88c9233abc" x="221.4" y="371.051232" style="stroke: #000000"/>
     <use xlink:href="#m88c9233abc" x="225.459925" y="101.898954" style="stroke: #000000"/>
     <use xlink:href="#m88c9233abc" x="218.518721" y="300.669049" style="stroke: #000000"/>
     <use xlink:href="#m88c9233abc" x="229.514904" y="102.111466" style="stroke: #000000"/>
     <use xlink:href="#m88c9233abc" x="215.836676" y="297.719235" style="stroke: #000000"/>
     <use xlink:href="#m88c9233abc" x="234.007132" y="98.211148" style="stroke: #000000"/>
     <use xlink:href="#m88c9233abc" x="212.91656" y="298.874535" style="stroke: #000000"/>
     <use xlink:href="#m88c9233abc" x="238.185607" y="98.7242" style="stroke: #000000"/>
     <use xlink:href="#m88c9233abc" x="211.691147" y="287.242076" style="stroke: #000000"/>
     <use xlink:href="#m88c9233abc" x="242.343631" y="99.382767" style="stroke: #000000"/>
     <use xlink:href="#m88c9233abc" x="209.286132" y="286.861159" style="stroke: #000000"/>
     <use xlink:href="#m88c9233abc" x="246.476138" y="100.186045" style="stroke: #000000"/>
     <use xlink:href="#m88c9233abc" x="206.895876" y="286.39654" style="stroke: #000000"/>
     <use xlink:href="#m88c9233abc" x="250.578094" y="101.133056" style="stroke: #000000"/>
     <use xlink:href="#m88c9233abc" x="204.52329" y="285.848786" style="stroke: #000000"/>
     <use xlink:href="#m88c9233abc" x="255.237145" y="100.15585" style="stroke: #000000"/>
     <use xlink:href="#m88c9233abc" x="243.772025" y="140.139475" style="stroke: #000000"/>
     <use xlink:href="#m88c9233abc" x="259.334818" y="101.408634" style="stroke: #000000"/>
     <use xlink:href="#m88c9233abc" x="246.481274" y="140.967776" style="stroke: #000000"/>
     <use xlink:href="#m88c9233abc" x="263.386273" y="102.803662" style="stroke: #000000"/>
     <use xlink:href="#m88c9233abc" x="249.159965" y="141.890123" style="stroke: #000000"/>
     <use xlink:href="#m88c9233abc" x="267.386574" y="104.339234" style="stroke: #000000"/>
     <use xlink:href="#m88c9233abc" x="251.804835" y="142.905393" style="stroke: #000000"/>
     <use xlink:href="#m88c9233abc" x="271.330848" y="106.013479" style="stroke: #000000"/>
     <use xlink:href="#m88c9233abc" x="254.412661" y="144.01235" style="stroke: #000000"/>
     <use xlink:href="#m88c9233abc" x="275.214289" y="107.824357" style="stroke: #000000"/>
     <use xlink:href="#m88c9233abc" x="256.980266" y="145.209644" style="stroke: #000000"/>
     <use xlink:href="#m88c9233abc" x="279.032165" y="109.769662" style="stroke: #000000"/>
     <use xlink:href="#m88c9233abc" x="259.504522" y="146.495817" style="stroke: #000000"/>
     <use xlink:href="#m88c9233abc" x="282.779825" y="111.847024" style="stroke: #000000"/>
     <use xlink:href="#m88c9233abc" x="261.982354" y="147.869301" style="stroke: #000000"/>
     <use xlink:href="#m88c9233abc" x="286.452704" y="114.053912" style="stroke: #000000"/>
     <use xlink:href="#m88c9233abc" x="264.410742" y="149.328424" style="stroke: #000000"/>
     <use xlink:href="#m88c9233abc" x="290.046325" y="116.387637" style="stroke: #000000"/>
     <use xlink:href="#m88c9233abc" x="266.786729" y="150.871408" style="stroke: #000000"/>
     <use xlink:href="#m88c9233abc" x="293.556312" y="118.845357" style="stroke: #000000"/>
     <use xlink:href="#m88c9233abc" x="269.107418" y="152.496372" style="stroke: #000000"/>
     <use xlink:href="#m88c9233abc" x="296.978388" y="121.424075" style="stroke: #000000"/>
     <use xlink:href="#m88c9233abc" x="271.369984" y="154.201337" style="stroke: #000000"/>
     <use xlink:href="#m88c9233abc" x="300.308382" y="124.120652" style="stroke: #000000"/>
     <use xlink:href="#m88c9233abc" x="273.571669" y="155.984227" style="stroke: #000000"/>
     <use xlink:href="#m88c9233abc" x="303.542239" y="126.931801" style="stroke: #000000"/>
     <use xlink:href="#m88c9233abc" x="275.70979" y="157.842867" style="stroke: #000000"/>
     <use xlink:href="#m88c9233abc" x="306.676019" y="129.854098" style="stroke: #000000"/>
     <use xlink:href="#m88c9233abc" x="277.781744" y="159.774995" style="stroke: #000000"/>
     <use xlink:href="#m88c9233abc" x="309.705902" y="132.883981" style="stroke: #000000"/>
     <use xlink:href="#m88c9233abc" x="279.785005" y="161.778256" style="stroke: #000000"/>
     <use xlink:href="#m88c9233abc" x="312.628199" y="136.017761" style="stroke: #000000"/>
     <use xlink:href="#m88c9233abc" x="281.717133" y="163.85021" style="stroke: #000000"/>
     <use xlink:href="#m88c9233abc" x="315.439348" y="139.251618" style="stroke: #000000"/>
     <use xlink:href="#m88c9233abc" x="283.575773" y="165.988331" style="stroke: #000000"/>
     <use xlink:href="#m88c9233abc" x="340.707054" y="124.947114" style="stroke: #000000"/>
     <use xlink:href="#m88c9233abc" x="308.0587" y="150.454803" style="stroke: #000000"/>
     <use xlink:href="#m88c9233abc" x="343.887458" y="129.167653" style="stroke: #000000"/>
     <use xlink:href="#m88c9233abc" x="313.793229" y="151.03239" style="stroke: #000000"/>
     <use xlink:href="#m88c9233abc" x="346.91863" y="133.496615" style="stroke: #000000"/>
     <use xlink:href="#m88c9233abc" x="316.079666" y="154.297759" style="stroke: #000000"/>
     <use xlink:href="#m88c9233abc" x="349.796877" y="137.928727" style="stroke: #000000"/>
     <use xlink:href="#m88c9233abc" x="318.250749" y="157.640935" style="stroke: #000000"/>
     <use xlink:href="#m88c9233abc" x="352.518692" y="142.458588" style="stroke: #000000"/>
     <use xlink:href="#m88c9233abc" x="320.303835" y="161.057844" style="stroke: #000000"/>
     <use xlink:href="#m88c9233abc" x="355.08076" y="147.080679" style="stroke: #000000"/>
     <use xlink:href="#m88c9233abc" x="322.236422" y="164.544323" style="stroke: #000000"/>
     <use xlink:href="#m88c9233abc" x="357.479957" y="151.78937" style="stroke: #000000"/>
     <use xlink:href="#m88c9233abc" x="324.046156" y="168.096125" style="stroke: #000000"/>
     <use xlink:href="#m88c9233abc" x="359.713363" y="156.578923" style="stroke: #000000"/>
     <use xlink:href="#m88c9233abc" x="325.730831" y="171.708921" style="stroke: #000000"/>
     <use xlink:href="#m88c9233abc" x="361.778255" y="161.443504" style="stroke: #000000"/>
     <use xlink:href="#m88c9233abc" x="327.288394" y="175.378312" style="stroke: #000000"/>
     <use xlink:href="#m88c9233abc" x="363.672117" y="166.377184" style="stroke: #000000"/>
     <use xlink:href="#m88c9233abc" x="328.716949" y="179.099825" style="stroke: #000000"/>
     <use xlink:href="#m88c9233abc" x="365.392643" y="171.373954" style="stroke: #000000"/>
     <use xlink:href="#m88c9233abc" x="330.014755" y="182.868927" style="stroke: #000000"/>
     <use xlink:href="#m88c9233abc" x="366.937736" y="176.427726" style="stroke: #000000"/>
     <use xlink:href="#m88c9233abc" x="331.180231" y="186.681025" style="stroke: #000000"/>
     <use xlink:href="#m88c9233abc" x="302.104498" y="198.038109" style="stroke: #000000"/>
     <use xlink:href="#m88c9233abc" x="85.30655" y="252.091908" style="stroke: #000000"/>
     <use xlink:href="#m88c9233abc" x="302.757579" y="200.866913" style="stroke: #000000"/>
     <use xlink:href="#m88c9233abc" x="84.205248" y="247.321645" style="stroke: #000000"/>
     <use xlink:href="#m88c9233abc" x="303.311538" y="203.716786" style="stroke: #000000"/>
     <use xlink:href="#m88c9233abc" x="85.590719" y="242.10684" style="stroke: #000000"/>
     <use xlink:href="#m88c9233abc" x="303.765701" y="206.584256" style="stroke: #000000"/>
     <use xlink:href="#m88c9233abc" x="84.837718" y="237.352577" style="stroke: #000000"/>
     <use xlink:href="#m88c9233abc" x="113.833843" y="229.465659" style="stroke: #000000"/>
     <use xlink:href="#m88c9233abc" x="81.908594" y="232.821138" style="stroke: #000000"/>
     <use xlink:href="#m88c9233abc" x="113.504807" y="225.704767" style="stroke: #000000"/>
     <use xlink:href="#m88c9233abc" x="81.481902" y="227.944027" style="stroke: #000000"/>
     <use xlink:href="#m88c9233abc" x="113.307226" y="221.934683" style="stroke: #000000"/>
     <use xlink:href="#m88c9233abc" x="81.225678" y="223.054995" style="stroke: #000000"/>
     <use xlink:href="#m88c9233abc" x="267.584524" y="218.16" style="stroke: #000000"/>
     <use xlink:href="#m88c9233abc" x="99.262015" y="218.16" style="stroke: #000000"/>
     <use xlink:href="#m88c9233abc" x="271.329414" y="219.903574" style="stroke: #000000"/>
     <use xlink:href="#m88c9233abc" x="78.89" y="213.183441" style="stroke: #000000"/>
     <use xlink:href="#m88c9233abc" x="273.131491" y="221.777418" style="stroke: #000000"/>
     <use xlink:href="#m88c9233abc" x="77.99159" y="208.131907" style="stroke: #000000"/>
     <use xlink:href="#m88c9233abc" x="276.769453" y="223.979564" style="stroke: #000000"/>
     <use xlink:href="#m88c9233abc" x="79.584294" y="203.254569" style="stroke: #000000"/>
     <use xlink:href="#m88c9233abc" x="284.174088" y="226.982323" style="stroke: #000000"/>
     <use xlink:href="#m88c9233abc" x="79.04045" y="198.15267" style="stroke: #000000"/>
     <use xlink:href="#m88c9233abc" x="287.668924" y="229.844999" style="stroke: #000000"/>
     <use xlink:href="#m88c9233abc" x="80.969501" y="193.398314" style="stroke: #000000"/>
     <use xlink:href="#m88c9233abc" x="373.917665" y="250.57863" style="stroke: #000000"/>
     <use xlink:href="#m88c9233abc" x="287.220754" y="232.150633" style="stroke: #000000"/>
     <use xlink:href="#m88c9233abc" x="122.016419" y="197.035368" style="stroke: #000000"/>
     <use xlink:href="#m88c9233abc" x="372.693361" y="255.881672" style="stroke: #000000"/>
     <use xlink:href="#m88c9233abc" x="284.7968" y="233.966598" style="stroke: #000000"/>
     <use xlink:href="#m88c9233abc" x="269.875828" y="230.246381" style="stroke: #000000"/>
     <use xlink:href="#m88c9233abc" x="78.556223" y="182.545046" style="stroke: #000000"/>
     <use xlink:href="#m88c9233abc" x="369.10749" y="260.514441" style="stroke: #000000"/>
     <use xlink:href="#m88c9233abc" x="287.96919" y="237.248408" style="stroke: #000000"/>
     <use xlink:href="#m88c9233abc" x="269.424489" y="231.930801" style="stroke: #000000"/>
     <use xlink:href="#m88c9233abc" x="123.732092" y="190.154178" style="stroke: #000000"/>
     <use xlink:href="#m88c9233abc" x="367.539362" y="265.643557" style="stroke: #000000"/>
     <use xlink:href="#m88c9233abc" x="281.688428" y="237.748898" style="stroke: #000000"/>
     <use xlink:href="#m88c9233abc" x="268.91464" y="233.598442" style="stroke: #000000"/>
     <use xlink:href="#m88c9233abc" x="133.702409" y="189.665325" style="stroke: #000000"/>
     <use xlink:href="#m88c9233abc" x="365.793186" y="270.714822" style="stroke: #000000"/>
     <use xlink:href="#m88c9233abc" x="280.968059" y="239.841001" style="stroke: #000000"/>
     <use xlink:href="#m88c9233abc" x="266.569857" y="234.600484" style="stroke: #000000"/>
     <use xlink:href="#m88c9233abc" x="361.778255" y="274.876496" style="stroke: #000000"/>
     <use xlink:href="#m88c9233abc" x="278.376751" y="241.180102" style="stroke: #000000"/>
     <use xlink:href="#m88c9233abc" x="265.968576" y="236.166874" style="stroke: #000000"/>
     <use xlink:href="#m88c9233abc" x="83.842539" y="162.583178" style="stroke: #000000"/>
     <use xlink:href="#m88c9233abc" x="359.713363" y="279.741077" style="stroke: #000000"/>
     <use xlink:href="#m88c9233abc" x="279.310564" y="243.943444" style="stroke: #000000"/>
     <use xlink:href="#m88c9233abc" x="265.312996" y="237.711325" style="stroke: #000000"/>
     <use xlink:href="#m88c9233abc" x="87.959768" y="158.748581" style="stroke: #000000"/>
     <use xlink:href="#m88c9233abc" x="355.458188" y="283.544547" style="stroke: #000000"/>
     <use xlink:href="#m88c9233abc" x="276.632158" y="245.098523" style="stroke: #000000"/>
     <use xlink:href="#m88c9233abc" x="266.303614" y="240.060956" style="stroke: #000000"/>
     <use xlink:href="#m88c9233abc" x="353.094635" y="288.18328" style="stroke: #000000"/>
     <use xlink:href="#m88c9233abc" x="265.511928" y="241.614728" style="stroke: #000000"/>
     <use xlink:href="#m88c9233abc" x="348.629287" y="291.615863" style="stroke: #000000"/>
     <use xlink:href="#m88c9233abc" x="266.310184" y="244.088907" style="stroke: #000000"/>
     <use xlink:href="#m88c9233abc" x="93.90656" y="144.551628" style="stroke: #000000"/>
     <use xlink:href="#m88c9233abc" x="345.988209" y="296.011354" style="stroke: #000000"/>
     <use xlink:href="#m88c9233abc" x="265.377921" y="245.640455" style="stroke: #000000"/>
     <use xlink:href="#m88c9233abc" x="91.740882" y="137.139991" style="stroke: #000000"/>
     <use xlink:href="#m88c9233abc" x="341.343319" y="299.06279" style="stroke: #000000"/>
     <use xlink:href="#m88c9233abc" x="264.392076" y="247.158522" style="stroke: #000000"/>
     <use xlink:href="#m88c9233abc" x="97.45904" y="134.560767" style="stroke: #000000"/>
     <use xlink:href="#m88c9233abc" x="345.713566" y="308.479093" style="stroke: #000000"/>
     <use xlink:href="#m88c9233abc" x="269.551714" y="253.144268" style="stroke: #000000"/>
     <use xlink:href="#m88c9233abc" x="95.896973" y="126.976714" style="stroke: #000000"/>
     <use xlink:href="#m88c9233abc" x="340.707054" y="311.372886" style="stroke: #000000"/>
     <use xlink:href="#m88c9233abc" x="269.824369" y="255.993263" style="stroke: #000000"/>
     <use xlink:href="#m88c9233abc" x="106.296436" y="128.23124" style="stroke: #000000"/>
     <use xlink:href="#m88c9233abc" x="337.381293" y="315.47986" style="stroke: #000000"/>
     <use xlink:href="#m88c9233abc" x="266.994039" y="256.417942" style="stroke: #000000"/>
     <use xlink:href="#m88c9233abc" x="92.54736" y="110.039797" style="stroke: #000000"/>
     <use xlink:href="#m88c9233abc" x="332.242577" y="317.963105" style="stroke: #000000"/>
     <use xlink:href="#m88c9233abc" x="269.955304" y="261.879392" style="stroke: #000000"/>
     <use xlink:href="#m88c9233abc" x="95.609706" y="104.89791" style="stroke: #000000"/>
     <use xlink:href="#m88c9233abc" x="328.691977" y="321.770658" style="stroke: #000000"/>
     <use xlink:href="#m88c9233abc" x="264.214236" y="259.505227" style="stroke: #000000"/>
     <use xlink:href="#m88c9233abc" x="104.269034" y="105.047941" style="stroke: #000000"/>
     <use xlink:href="#m88c9233abc" x="323.45346" y="323.839451" style="stroke: #000000"/>
     <use xlink:href="#m88c9233abc" x="248.294249" y="246.00981" style="stroke: #000000"/>
     <use xlink:href="#m88c9233abc" x="107.535526" y="100.249886" style="stroke: #000000"/>
     <use xlink:href="#m88c9233abc" x="319.703132" y="327.336689" style="stroke: #000000"/>
     <use xlink:href="#m88c9233abc" x="247.305921" y="246.931441" style="stroke: #000000"/>
     <use xlink:href="#m88c9233abc" x="111.719893" y="96.347901" style="stroke: #000000"/>
     <use xlink:href="#m88c9233abc" x="315.833037" y="330.700911" style="stroke: #000000"/>
     <use xlink:href="#m88c9233abc" x="246.286031" y="247.818017" style="stroke: #000000"/>
     <use xlink:href="#m88c9233abc" x="116.037888" y="92.594325" style="stroke: #000000"/>
     <use xlink:href="#m88c9233abc" x="311.84789" y="333.92802" style="stroke: #000000"/>
     <use xlink:href="#m88c9233abc" x="245.235822" y="248.668461" style="stroke: #000000"/>
     <use xlink:href="#m88c9233abc" x="120.484251" y="88.993731" style="stroke: #000000"/>
     <use xlink:href="#m88c9233abc" x="307.752546" y="337.014083" style="stroke: #000000"/>
     <use xlink:href="#m88c9233abc" x="244.156572" y="249.481734" style="stroke: #000000"/>
     <use xlink:href="#m88c9233abc" x="125.053564" y="85.550507" style="stroke: #000000"/>
     <use xlink:href="#m88c9233abc" x="303.551994" y="339.955341" style="stroke: #000000"/>
     <use xlink:href="#m88c9233abc" x="243.049596" y="250.256846" style="stroke: #000000"/>
     <use xlink:href="#m88c9233abc" x="129.74026" y="82.268847" style="stroke: #000000"/>
     <use xlink:href="#m88c9233abc" x="299.251354" y="342.748209" style="stroke: #000000"/>
     <use xlink:href="#m88c9233abc" x="241.916244" y="250.992854" style="stroke: #000000"/>
     <use xlink:href="#m88c9233abc" x="134.53863" y="79.15275" style="stroke: #000000"/>
     <use xlink:href="#m88c9233abc" x="294.855863" y="345.389287" style="stroke: #000000"/>
     <use xlink:href="#m88c9233abc" x="240.757896" y="251.688859" style="stroke: #000000"/>
     <use xlink:href="#m88c9233abc" x="139.442826" y="76.206011" style="stroke: #000000"/>
     <use xlink:href="#m88c9233abc" x="290.370877" y="347.875355" style="stroke: #000000"/>
     <use xlink:href="#m88c9233abc" x="239.575963" y="252.344015" style="stroke: #000000"/>
     <use xlink:href="#m88c9233abc" x="144.446875" y="73.432221" style="stroke: #000000"/>
     <use xlink:href="#m88c9233abc" x="285.801862" y="350.203384" style="stroke: #000000"/>
     <use xlink:href="#m88c9233abc" x="238.371886" y="252.957523" style="stroke: #000000"/>
     <use xlink:href="#m88c9233abc" x="149.544679" y="70.83476" style="stroke: #000000"/>
     <use xlink:href="#m88c9233abc" x="267.851079" y="322.490831" style="stroke: #000000"/>
     <use xlink:href="#m88c9233abc" x="244.044836" y="269.021135" style="stroke: #000000"/>
     <use xlink:href="#m88c9233abc" x="258.68045" y="310.432351" style="stroke: #000000"/>
     <use xlink:href="#m88c9233abc" x="251.054393" y="291.557197" style="stroke: #000000"/>
     <use xlink:href="#m88c9233abc" x="259.735044" y="323.484668" style="stroke: #000000"/>
     <use xlink:href="#m88c9233abc" x="247.111807" y="288.802609" style="stroke: #000000"/>
     <use xlink:href="#m88c9233abc" x="256.035913" y="324.758381" style="stroke: #000000"/>
     <use xlink:href="#m88c9233abc" x="244.630753" y="289.656905" style="stroke: #000000"/>
     <use xlink:href="#m88c9233abc" x="252.294584" y="325.90222" style="stroke: #000000"/>
     <use xlink:href="#m88c9233abc" x="242.121395" y="290.424092" style="stroke: #000000"/>
     <use xlink:href="#m88c9233abc" x="248.515615" y="326.914792" style="stroke: #000000"/>
     <use xlink:href="#m88c9233abc" x="239.586792" y="291.103237" style="stroke: #000000"/>
     <use xlink:href="#m88c9233abc" x="244.703609" y="327.794862" style="stroke: #000000"/>
     <use xlink:href="#m88c9233abc" x="237.03003" y="291.693512" style="stroke: #000000"/>
     <use xlink:href="#m88c9233abc" x="240.863212" y="328.54136" style="stroke: #000000"/>
     <use xlink:href="#m88c9233abc" x="234.454227" y="292.194197" style="stroke: #000000"/>
     <use xlink:href="#m88c9233abc" x="236.999102" y="329.153375" style="stroke: #000000"/>
     <use xlink:href="#m88c9233abc" x="231.862518" y="292.604684" style="stroke: #000000"/>
     <use xlink:href="#m88c9233abc" x="233.115986" y="329.630162" style="stroke: #000000"/>
     <use xlink:href="#m88c9233abc" x="229.258063" y="292.924471" style="stroke: #000000"/>
     <use xlink:href="#m88c9233abc" x="229.218596" y="329.971139" style="stroke: #000000"/>
     <use xlink:href="#m88c9233abc" x="226.644033" y="293.153169" style="stroke: #000000"/>
     <use xlink:href="#m88c9233abc" x="225.311681" y="330.175892" style="stroke: #000000"/>
     <use xlink:href="#m88c9233abc" x="224.023615" y="293.290499" style="stroke: #000000"/>
     <use xlink:href="#m88c9233abc" x="221.4" y="330.24417" style="stroke: #000000"/>
     <use xlink:href="#m88c9233abc" x="221.4" y="293.336294" style="stroke: #000000"/>
    </g>
   </g>
   <g id="patch_3">
    <path d="M 221.4 51.84 
C 199.559058 51.84 177.930491 56.142189 157.752092 64.500356 
C 137.573692 72.858523 119.237879 85.110122 103.794 100.554 
C 88.350122 115.997879 76.098523 134.333692 67.740356 154.512092 
C 59.382189 174.690491 55.08 196.319058 55.08 218.16 
C 55.08 240.000942 59.382189 261.629509 67.740356 281.807908 
C 76.098523 301.986308 88.350122 320.322121 103.794 335.766 
C 119.237879 351.209878 137.573692 363.461477 157.752092 371.819644 
C 177.930491 380.177811 199.559058 384.48 221.4 384.48 
C 243.240942 384.48 264.869509 380.177811 285.047908 371.819644 
C 305.226308 363.461477 323.562121 351.209878 339.006 335.766 
C 354.449878 320.322121 366.701477 301.986308 375.059644 281.807908 
C 383.417811 261.629509 387.72 240.000942 387.72 218.16 
C 387.72 196.319058 383.417811 174.690491 375.059644 154.512092 
C 366.701477 134.333692 354.449878 115.997879 339.006 100.554 
C 323.562121 85.110122 305.226308 72.858523 285.047908 64.500356 
C 264.869509 56.142189 243.240942 51.84 221.4 51.84 
" style="fill: none; stroke: #ffffff; stroke-width: 1.25; stroke-linejoin: miter; stroke-linecap: square"/>
   </g>
  </g>
 </g>
 <defs>
  <clipPath id="pc8c8471b0b">
   <path d="M 387.72 218.16 
C 387.72 196.319058 383.417811 174.690491 375.059644 154.512092 
C 366.701477 134.333692 354.449878 115.997879 339.006 100.554 
C 323.562121 85.110122 305.226308 72.858523 285.047908 64.500356 
C 264.869509 56.142189 243.240942 51.84 221.4 51.84 
C 199.559058 51.84 177.930491 56.142189 157.752092 64.500356 
C 137.573692 72.858523 119.237879 85.110122 103.794 100.554 
C 88.350122 115.997879 76.098523 134.333692 67.740356 154.512092 
C 59.382189 174.690491 55.08 196.319058 55.08 218.16 
C 55.08 240.000942 59.382189 261.629509 67.740356 281.807908 
C 76.098523 301.986308 88.350122 320.322121 103.794 335.766 
C 119.237879 351.209878 137.573692 363.461477 157.752092 371.819644 
C 177.930491 380.177811 199.559058 384.48 221.4 384.48 
C 243.240942 384.48 264.869509 380.177811 285.047908 371.819644 
C 305.226308 363.461477 323.562121 351.209878 339.006 335.766 
C 354.449878 320.322121 366.701477 301.986308 375.059644 281.807908 
C 383.417811 261.629509 387.72 240.000942 387.72 218.16 
M 221.4 218.16 
C 221.4 218.16 221.4 218.16 221.4 218.16 
C 221.4 218.16 221.4 218.16 221.4 218.16 
C 221.4 218.16 221.4 218.16 221.4 218.16 
C 221.4 218.16 221.4 218.16 221.4 218.16 
C 221.4 218.16 221.4 218.16 221.4 218.16 
C 221.4 218.16 221.4 218.16 221.4 218.16 
C 221.4 218.16 221.4 218.16 221.4 218.16 
C 221.4 218.16 221.4 218.16 221.4 218.16 
C 221.4 218.16 221.4 218.16 221.4 218.16 
C 221.4 218.16 221.4 218.16 221.4 218.16 
C 221.4 218.16 221.4 218.16 221.4 218.16 
C 221.4 218.16 221.4 218.16 221.4 218.16 
C 221.4 218.16 221.4 218.16 221.4 218.16 
C 221.4 218.16 221.4 218.16 221.4 218.16 
C 221.4 218.16 221.4 218.16 221.4 218.16 
C 221.4 218.16 221.4 218.16 221.4 218.16 
z
"/>
  </clipPath>
 </defs>
</svg>
