<?xml version="1.0" encoding="utf-8" standalone="no"?>
<!DOCTYPE svg PUBLIC "-//W3C//DTD SVG 1.1//EN"
  "http://www.w3.org/Graphics/SVG/1.1/DTD/svg11.dtd">
<svg xmlns:xlink="http://www.w3.org/1999/xlink" width="432pt" height="432pt" viewBox="0 0 432 432" xmlns="http://www.w3.org/2000/svg" version="1.1">
 <metadata>
  <rdf:RDF xmlns:dc="http://purl.org/dc/elements/1.1/" xmlns:cc="http://creativecommons.org/ns#" xmlns:rdf="http://www.w3.org/1999/02/22-rdf-syntax-ns#">
   <cc:Work>
    <dc:type rdf:resource="http://purl.org/dc/dcmitype/StillImage"/>
    <dc:date>2024-09-06T16:23:11.236113</dc:date>
    <dc:format>image/svg+xml</dc:format>
    <dc:creator>
     <cc:Agent>
      <dc:title>Matplotlib v3.9.1, https://matplotlib.org/</dc:title>
     </cc:Agent>
    </dc:creator>
   </cc:Work>
  </rdf:RDF>
 </metadata>
 <defs>
  <style type="text/css">*{stroke-linejoin: round; stroke-linecap: butt}</style>
 </defs>
 <g id="figure_1">
  <g id="patch_1">
   <path d="M 0 432 
L 432 432 
L 432 0 
L 0 0 
z
" style="fill: #ffffff"/>
  </g>
  <g id="axes_1">
   <g id="patch_2">
    <path d="M 387.72 218.16 
C 387.72 196.319058 383.417811 174.690491 375.059644 154.512092 
C 366.701477 134.333692 354.449878 115.997879 339.006 100.554 
C 323.562121 85.110122 305.226308 72.858523 285.047908 64.500356 
C 264.869509 56.142189 243.240942 51.84 221.4 51.84 
C 199.559058 51.84 177.930491 56.142189 157.752092 64.500356 
C 137.573692 72.858523 119.237879 85.110122 103.794 100.554 
C 88.350122 115.997879 76.098523 134.333692 67.740356 154.512092 
C 59.382189 174.690491 55.08 196.319058 55.08 218.16 
C 55.08 240.000942 59.382189 261.629509 67.740356 281.807908 
C 76.098523 301.986308 88.350122 320.322121 103.794 335.766 
C 119.237879 351.209878 137.573692 363.461477 157.752092 371.819644 
C 177.930491 380.177811 199.559058 384.48 221.4 384.48 
C 243.240942 384.48 264.869509 380.177811 285.047908 371.819644 
C 305.226308 363.461477 323.562121 351.209878 339.006 335.766 
C 354.449878 320.322121 366.701477 301.986308 375.059644 281.807908 
C 383.417811 261.629509 387.72 240.000942 387.72 218.16 
M 221.4 218.16 
C 221.4 218.16 221.4 218.16 221.4 218.16 
C 221.4 218.16 221.4 218.16 221.4 218.16 
C 221.4 218.16 221.4 218.16 221.4 218.16 
C 221.4 218.16 221.4 218.16 221.4 218.16 
C 221.4 218.16 221.4 218.16 221.4 218.16 
C 221.4 218.16 221.4 218.16 221.4 218.16 
C 221.4 218.16 221.4 218.16 221.4 218.16 
C 221.4 218.16 221.4 218.16 221.4 218.16 
C 221.4 218.16 221.4 218.16 221.4 218.16 
C 221.4 218.16 221.4 218.16 221.4 218.16 
C 221.4 218.16 221.4 218.16 221.4 218.16 
C 221.4 218.16 221.4 218.16 221.4 218.16 
C 221.4 218.16 221.4 218.16 221.4 218.16 
C 221.4 218.16 221.4 218.16 221.4 218.16 
C 221.4 218.16 221.4 218.16 221.4 218.16 
C 221.4 218.16 221.4 218.16 221.4 218.16 
z
" style="fill: #eaeaf2"/>
   </g>
   <g id="matplotlib.axis_1">
    <g id="xtick_1">
     <g id="line2d_1">
      <path d="M 221.4 218.16 
L 221.4 51.84 
" clip-path="url(#p750bbb9c75)" style="fill: none; stroke: #ffffff; stroke-linecap: round"/>
     </g>
     <g id="text_1">
      <!-- 0° -->
      <g style="fill: #262626" transform="translate(216.142344 38.183672) scale(0.11 -0.11)">
       <defs>
        <path id="ArialMT-30" d="M 266 2259 
Q 266 3072 433 3567 
Q 600 4063 929 4331 
Q 1259 4600 1759 4600 
Q 2128 4600 2406 4451 
Q 2684 4303 2865 4023 
Q 3047 3744 3150 3342 
Q 3253 2941 3253 2259 
Q 3253 1453 3087 958 
Q 2922 463 2592 192 
Q 2263 -78 1759 -78 
Q 1097 -78 719 397 
Q 266 969 266 2259 
z
M 844 2259 
Q 844 1131 1108 757 
Q 1372 384 1759 384 
Q 2147 384 2411 759 
Q 2675 1134 2675 2259 
Q 2675 3391 2411 3762 
Q 2147 4134 1753 4134 
Q 1366 4134 1134 3806 
Q 844 3388 844 2259 
z
" transform="scale(0.015625)"/>
        <path id="ArialMT-b0" d="M 400 3794 
Q 400 4153 654 4406 
Q 909 4659 1266 4659 
Q 1628 4659 1881 4406 
Q 2134 4153 2134 3794 
Q 2134 3434 1879 3179 
Q 1625 2925 1266 2925 
Q 909 2925 654 3178 
Q 400 3431 400 3794 
z
M 741 3794 
Q 741 3575 895 3420 
Q 1050 3266 1269 3266 
Q 1484 3266 1639 3420 
Q 1794 3575 1794 3794 
Q 1794 4013 1639 4167 
Q 1484 4322 1269 4322 
Q 1050 4322 895 4167 
Q 741 4013 741 3794 
z
" transform="scale(0.015625)"/>
       </defs>
       <use xlink:href="#ArialMT-30"/>
       <use xlink:href="#ArialMT-b0" x="55.615234"/>
      </g>
     </g>
    </g>
    <g id="xtick_2">
     <g id="line2d_2">
      <path d="M 221.4 218.16 
L 339.006 100.554 
" clip-path="url(#p750bbb9c75)" style="fill: none; stroke: #ffffff; stroke-linecap: round"/>
     </g>
     <g id="text_2">
      <!-- 45° -->
      <g style="fill: #262626" transform="translate(342.35709 91.73041) scale(0.11 -0.11)">
       <defs>
        <path id="ArialMT-34" d="M 2069 0 
L 2069 1097 
L 81 1097 
L 81 1613 
L 2172 4581 
L 2631 4581 
L 2631 1613 
L 3250 1613 
L 3250 1097 
L 2631 1097 
L 2631 0 
L 2069 0 
z
M 2069 1613 
L 2069 3678 
L 634 1613 
L 2069 1613 
z
" transform="scale(0.015625)"/>
        <path id="ArialMT-35" d="M 266 1200 
L 856 1250 
Q 922 819 1161 601 
Q 1400 384 1738 384 
Q 2144 384 2425 690 
Q 2706 997 2706 1503 
Q 2706 1984 2436 2262 
Q 2166 2541 1728 2541 
Q 1456 2541 1237 2417 
Q 1019 2294 894 2097 
L 366 2166 
L 809 4519 
L 3088 4519 
L 3088 3981 
L 1259 3981 
L 1013 2750 
Q 1425 3038 1878 3038 
Q 2478 3038 2890 2622 
Q 3303 2206 3303 1553 
Q 3303 931 2941 478 
Q 2500 -78 1738 -78 
Q 1113 -78 717 272 
Q 322 622 266 1200 
z
" transform="scale(0.015625)"/>
       </defs>
       <use xlink:href="#ArialMT-34"/>
       <use xlink:href="#ArialMT-35" x="55.615234"/>
       <use xlink:href="#ArialMT-b0" x="111.230469"/>
      </g>
     </g>
    </g>
    <g id="xtick_3">
     <g id="line2d_3">
      <path d="M 221.4 218.16 
L 387.72 218.16 
" clip-path="url(#p750bbb9c75)" style="fill: none; stroke: #ffffff; stroke-linecap: round"/>
     </g>
     <g id="text_3">
      <!-- 90° -->
      <g style="fill: #262626" transform="translate(395.903828 221.003672) scale(0.11 -0.11)">
       <defs>
        <path id="ArialMT-39" d="M 350 1059 
L 891 1109 
Q 959 728 1153 556 
Q 1347 384 1650 384 
Q 1909 384 2104 503 
Q 2300 622 2425 820 
Q 2550 1019 2634 1356 
Q 2719 1694 2719 2044 
Q 2719 2081 2716 2156 
Q 2547 1888 2255 1720 
Q 1963 1553 1622 1553 
Q 1053 1553 659 1965 
Q 266 2378 266 3053 
Q 266 3750 677 4175 
Q 1088 4600 1706 4600 
Q 2153 4600 2523 4359 
Q 2894 4119 3086 3673 
Q 3278 3228 3278 2384 
Q 3278 1506 3087 986 
Q 2897 466 2520 194 
Q 2144 -78 1638 -78 
Q 1100 -78 759 220 
Q 419 519 350 1059 
z
M 2653 3081 
Q 2653 3566 2395 3850 
Q 2138 4134 1775 4134 
Q 1400 4134 1122 3828 
Q 844 3522 844 3034 
Q 844 2597 1108 2323 
Q 1372 2050 1759 2050 
Q 2150 2050 2401 2323 
Q 2653 2597 2653 3081 
z
" transform="scale(0.015625)"/>
       </defs>
       <use xlink:href="#ArialMT-39"/>
       <use xlink:href="#ArialMT-30" x="55.615234"/>
       <use xlink:href="#ArialMT-b0" x="111.230469"/>
      </g>
     </g>
    </g>
    <g id="xtick_4">
     <g id="line2d_4">
      <path d="M 221.4 218.16 
L 339.006 335.766 
" clip-path="url(#p750bbb9c75)" style="fill: none; stroke: #ffffff; stroke-linecap: round"/>
     </g>
     <g id="text_4">
      <!-- 135° -->
      <g style="fill: #262626" transform="translate(339.298574 350.276934) scale(0.11 -0.11)">
       <defs>
        <path id="ArialMT-31" d="M 2384 0 
L 1822 0 
L 1822 3584 
Q 1619 3391 1289 3197 
Q 959 3003 697 2906 
L 697 3450 
Q 1169 3672 1522 3987 
Q 1875 4303 2022 4600 
L 2384 4600 
L 2384 0 
z
" transform="scale(0.015625)"/>
        <path id="ArialMT-33" d="M 269 1209 
L 831 1284 
Q 928 806 1161 595 
Q 1394 384 1728 384 
Q 2125 384 2398 659 
Q 2672 934 2672 1341 
Q 2672 1728 2419 1979 
Q 2166 2231 1775 2231 
Q 1616 2231 1378 2169 
L 1441 2663 
Q 1497 2656 1531 2656 
Q 1891 2656 2178 2843 
Q 2466 3031 2466 3422 
Q 2466 3731 2256 3934 
Q 2047 4138 1716 4138 
Q 1388 4138 1169 3931 
Q 950 3725 888 3313 
L 325 3413 
Q 428 3978 793 4289 
Q 1159 4600 1703 4600 
Q 2078 4600 2393 4439 
Q 2709 4278 2876 4000 
Q 3044 3722 3044 3409 
Q 3044 3113 2884 2869 
Q 2725 2625 2413 2481 
Q 2819 2388 3044 2092 
Q 3269 1797 3269 1353 
Q 3269 753 2831 336 
Q 2394 -81 1725 -81 
Q 1122 -81 723 278 
Q 325 638 269 1209 
z
" transform="scale(0.015625)"/>
       </defs>
       <use xlink:href="#ArialMT-31"/>
       <use xlink:href="#ArialMT-33" x="55.615234"/>
       <use xlink:href="#ArialMT-35" x="111.230469"/>
       <use xlink:href="#ArialMT-b0" x="166.845703"/>
      </g>
     </g>
    </g>
    <g id="xtick_5">
     <g id="line2d_5">
      <path d="M 221.4 218.16 
L 221.4 384.48 
" clip-path="url(#p750bbb9c75)" style="fill: none; stroke: #ffffff; stroke-linecap: round"/>
     </g>
     <g id="text_5">
      <!-- 180° -->
      <g style="fill: #262626" transform="translate(210.025312 403.823672) scale(0.11 -0.11)">
       <defs>
        <path id="ArialMT-38" d="M 1131 2484 
Q 781 2613 612 2850 
Q 444 3088 444 3419 
Q 444 3919 803 4259 
Q 1163 4600 1759 4600 
Q 2359 4600 2725 4251 
Q 3091 3903 3091 3403 
Q 3091 3084 2923 2848 
Q 2756 2613 2416 2484 
Q 2838 2347 3058 2040 
Q 3278 1734 3278 1309 
Q 3278 722 2862 322 
Q 2447 -78 1769 -78 
Q 1091 -78 675 323 
Q 259 725 259 1325 
Q 259 1772 486 2073 
Q 713 2375 1131 2484 
z
M 1019 3438 
Q 1019 3113 1228 2906 
Q 1438 2700 1772 2700 
Q 2097 2700 2305 2904 
Q 2513 3109 2513 3406 
Q 2513 3716 2298 3927 
Q 2084 4138 1766 4138 
Q 1444 4138 1231 3931 
Q 1019 3725 1019 3438 
z
M 838 1322 
Q 838 1081 952 856 
Q 1066 631 1291 507 
Q 1516 384 1775 384 
Q 2178 384 2440 643 
Q 2703 903 2703 1303 
Q 2703 1709 2433 1975 
Q 2163 2241 1756 2241 
Q 1359 2241 1098 1978 
Q 838 1716 838 1322 
z
" transform="scale(0.015625)"/>
       </defs>
       <use xlink:href="#ArialMT-31"/>
       <use xlink:href="#ArialMT-38" x="55.615234"/>
       <use xlink:href="#ArialMT-30" x="111.230469"/>
       <use xlink:href="#ArialMT-b0" x="166.845703"/>
      </g>
     </g>
    </g>
    <g id="xtick_6">
     <g id="line2d_6">
      <path d="M 221.4 218.16 
L 103.794 335.766 
" clip-path="url(#p750bbb9c75)" style="fill: none; stroke: #ffffff; stroke-linecap: round"/>
     </g>
     <g id="text_6">
      <!-- 225° -->
      <g style="fill: #262626" transform="translate(80.752051 350.276934) scale(0.11 -0.11)">
       <defs>
        <path id="ArialMT-32" d="M 3222 541 
L 3222 0 
L 194 0 
Q 188 203 259 391 
Q 375 700 629 1000 
Q 884 1300 1366 1694 
Q 2113 2306 2375 2664 
Q 2638 3022 2638 3341 
Q 2638 3675 2398 3904 
Q 2159 4134 1775 4134 
Q 1369 4134 1125 3890 
Q 881 3647 878 3216 
L 300 3275 
Q 359 3922 746 4261 
Q 1134 4600 1788 4600 
Q 2447 4600 2831 4234 
Q 3216 3869 3216 3328 
Q 3216 3053 3103 2787 
Q 2991 2522 2730 2228 
Q 2469 1934 1863 1422 
Q 1356 997 1212 845 
Q 1069 694 975 541 
L 3222 541 
z
" transform="scale(0.015625)"/>
       </defs>
       <use xlink:href="#ArialMT-32"/>
       <use xlink:href="#ArialMT-32" x="55.615234"/>
       <use xlink:href="#ArialMT-35" x="111.230469"/>
       <use xlink:href="#ArialMT-b0" x="166.845703"/>
      </g>
     </g>
    </g>
    <g id="xtick_7">
     <g id="line2d_7">
      <path d="M 221.4 218.16 
L 55.08 218.16 
" clip-path="url(#p750bbb9c75)" style="fill: none; stroke: #ffffff; stroke-linecap: round"/>
     </g>
     <g id="text_7">
      <!-- 270° -->
      <g style="fill: #262626" transform="translate(27.205312 221.003672) scale(0.11 -0.11)">
       <defs>
        <path id="ArialMT-37" d="M 303 3981 
L 303 4522 
L 3269 4522 
L 3269 4084 
Q 2831 3619 2401 2847 
Q 1972 2075 1738 1259 
Q 1569 684 1522 0 
L 944 0 
Q 953 541 1156 1306 
Q 1359 2072 1739 2783 
Q 2119 3494 2547 3981 
L 303 3981 
z
" transform="scale(0.015625)"/>
       </defs>
       <use xlink:href="#ArialMT-32"/>
       <use xlink:href="#ArialMT-37" x="55.615234"/>
       <use xlink:href="#ArialMT-30" x="111.230469"/>
       <use xlink:href="#ArialMT-b0" x="166.845703"/>
      </g>
     </g>
    </g>
    <g id="xtick_8">
     <g id="line2d_8">
      <path d="M 221.4 218.16 
L 103.794 100.554 
" clip-path="url(#p750bbb9c75)" style="fill: none; stroke: #ffffff; stroke-linecap: round"/>
     </g>
     <g id="text_8">
      <!-- 315° -->
      <g style="fill: #262626" transform="translate(80.752051 91.73041) scale(0.11 -0.11)">
       <use xlink:href="#ArialMT-33"/>
       <use xlink:href="#ArialMT-31" x="55.615234"/>
       <use xlink:href="#ArialMT-35" x="111.230469"/>
       <use xlink:href="#ArialMT-b0" x="166.845703"/>
      </g>
     </g>
    </g>
   </g>
   <g id="matplotlib.axis_2">
    <g id="ytick_1">
     <g id="line2d_9">
      <path d="M 221.4 218.16 
C 221.4 218.16 221.4 218.16 221.4 218.16 
C 221.4 218.16 221.4 218.16 221.4 218.16 
C 221.4 218.16 221.4 218.16 221.4 218.16 
C 221.4 218.16 221.4 218.16 221.4 218.16 
C 221.4 218.16 221.4 218.16 221.4 218.16 
C 221.4 218.16 221.4 218.16 221.4 218.16 
C 221.4 218.16 221.4 218.16 221.4 218.16 
C 221.4 218.16 221.4 218.16 221.4 218.16 
C 221.4 218.16 221.4 218.16 221.4 218.16 
C 221.4 218.16 221.4 218.16 221.4 218.16 
C 221.4 218.16 221.4 218.16 221.4 218.16 
C 221.4 218.16 221.4 218.16 221.4 218.16 
C 221.4 218.16 221.4 218.16 221.4 218.16 
C 221.4 218.16 221.4 218.16 221.4 218.16 
C 221.4 218.16 221.4 218.16 221.4 218.16 
C 221.4 218.16 221.4 218.16 221.4 218.16 
" clip-path="url(#p750bbb9c75)" style="fill: none; stroke: #ffffff; stroke-linecap: round"/>
     </g>
     <g id="text_9">
      <!-- 0.0 -->
      <g style="fill: #dc143c" transform="translate(221.4 215.97375) scale(0.11 -0.11)">
       <defs>
        <path id="ArialMT-2e" d="M 581 0 
L 581 641 
L 1222 641 
L 1222 0 
L 581 0 
z
" transform="scale(0.015625)"/>
       </defs>
       <use xlink:href="#ArialMT-30"/>
       <use xlink:href="#ArialMT-2e" x="55.615234"/>
       <use xlink:href="#ArialMT-30" x="83.398438"/>
      </g>
     </g>
    </g>
    <g id="ytick_2">
     <g id="line2d_10">
      <path d="M 221.4 197.37 
C 224.130118 197.37 226.833689 197.907774 229.355989 198.952545 
C 231.878289 199.997315 234.170265 201.528765 236.10075 203.45925 
C 238.031235 205.389735 239.562685 207.681711 240.607455 210.204011 
C 241.652226 212.726311 242.19 215.429882 242.19 218.16 
C 242.19 220.890118 241.652226 223.593689 240.607455 226.115989 
C 239.562685 228.638289 238.031235 230.930265 236.10075 232.86075 
C 234.170265 234.791235 231.878289 236.322685 229.355989 237.367455 
C 226.833689 238.412226 224.130118 238.95 221.4 238.95 
C 218.669882 238.95 215.966311 238.412226 213.444011 237.367455 
C 210.921711 236.322685 208.629735 234.791235 206.69925 232.86075 
C 204.768765 230.930265 203.237315 228.638289 202.192545 226.115989 
C 201.147774 223.593689 200.61 220.890118 200.61 218.16 
C 200.61 215.429882 201.147774 212.726311 202.192545 210.204011 
C 203.237315 207.681711 204.768765 205.389735 206.69925 203.45925 
C 208.629735 201.528765 210.921711 199.997315 213.444011 198.952545 
C 215.966311 197.907774 218.669882 197.37 221.4 197.37 
" clip-path="url(#p750bbb9c75)" style="fill: none; stroke: #ffffff; stroke-linecap: round"/>
     </g>
     <g id="text_10">
      <!-- 0.1 -->
      <g style="fill: #dc143c" transform="translate(229.355989 196.766295) scale(0.11 -0.11)">
       <use xlink:href="#ArialMT-30"/>
       <use xlink:href="#ArialMT-2e" x="55.615234"/>
       <use xlink:href="#ArialMT-31" x="83.398438"/>
      </g>
     </g>
    </g>
    <g id="ytick_3">
     <g id="line2d_11">
      <path d="M 221.4 176.58 
C 226.860236 176.58 232.267377 177.655547 237.311977 179.745089 
C 242.356577 181.834631 246.94053 184.89753 250.8015 188.7585 
C 254.66247 192.61947 257.725369 197.203423 259.814911 202.248023 
C 261.904453 207.292623 262.98 212.699764 262.98 218.16 
C 262.98 223.620236 261.904453 229.027377 259.814911 234.071977 
C 257.725369 239.116577 254.66247 243.70053 250.8015 247.5615 
C 246.94053 251.42247 242.356577 254.485369 237.311977 256.574911 
C 232.267377 258.664453 226.860236 259.74 221.4 259.74 
C 215.939764 259.74 210.532623 258.664453 205.488023 256.574911 
C 200.443423 254.485369 195.85947 251.42247 191.9985 247.5615 
C 188.13753 243.70053 185.074631 239.116577 182.985089 234.071977 
C 180.895547 229.027377 179.82 223.620236 179.82 218.16 
C 179.82 212.699764 180.895547 207.292623 182.985089 202.248023 
C 185.074631 197.203423 188.13753 192.61947 191.9985 188.7585 
C 195.85947 184.89753 200.443423 181.834631 205.488023 179.745089 
C 210.532623 177.655547 215.939764 176.58 221.4 176.58 
" clip-path="url(#p750bbb9c75)" style="fill: none; stroke: #ffffff; stroke-linecap: round"/>
     </g>
     <g id="text_11">
      <!-- 0.2 -->
      <g style="fill: #dc143c" transform="translate(237.311977 177.558839) scale(0.11 -0.11)">
       <use xlink:href="#ArialMT-30"/>
       <use xlink:href="#ArialMT-2e" x="55.615234"/>
       <use xlink:href="#ArialMT-32" x="83.398438"/>
      </g>
     </g>
    </g>
    <g id="ytick_4">
     <g id="line2d_12">
      <path d="M 221.4 155.79 
C 229.590353 155.79 237.701066 157.403321 245.267966 160.537634 
C 252.834866 163.671946 259.710796 168.266296 265.50225 174.05775 
C 271.293704 179.849204 275.888054 186.725134 279.022366 194.292034 
C 282.156679 201.858934 283.77 209.969647 283.77 218.16 
C 283.77 226.350353 282.156679 234.461066 279.022366 242.027966 
C 275.888054 249.594866 271.293704 256.470796 265.50225 262.26225 
C 259.710796 268.053704 252.834866 272.648054 245.267966 275.782366 
C 237.701066 278.916679 229.590353 280.53 221.4 280.53 
C 213.209647 280.53 205.098934 278.916679 197.532034 275.782366 
C 189.965134 272.648054 183.089204 268.053704 177.29775 262.26225 
C 171.506296 256.470796 166.911946 249.594866 163.777634 242.027966 
C 160.643321 234.461066 159.03 226.350353 159.03 218.16 
C 159.03 209.969647 160.643321 201.858934 163.777634 194.292034 
C 166.911946 186.725134 171.506296 179.849204 177.29775 174.05775 
C 183.089204 168.266296 189.965134 163.671946 197.532034 160.537634 
C 205.098934 157.403321 213.209647 155.79 221.4 155.79 
" clip-path="url(#p750bbb9c75)" style="fill: none; stroke: #ffffff; stroke-linecap: round"/>
     </g>
     <g id="text_12">
      <!-- 0.3 -->
      <g style="fill: #dc143c" transform="translate(245.267966 158.351384) scale(0.11 -0.11)">
       <use xlink:href="#ArialMT-30"/>
       <use xlink:href="#ArialMT-2e" x="55.615234"/>
       <use xlink:href="#ArialMT-33" x="83.398438"/>
      </g>
     </g>
    </g>
    <g id="ytick_5">
     <g id="line2d_13">
      <path d="M 221.4 135 
C 232.320471 135 243.134754 137.151095 253.223954 141.330178 
C 263.313154 145.509261 272.481061 151.635061 280.203 159.357 
C 287.924939 167.078939 294.050739 176.246846 298.229822 186.336046 
C 302.408905 196.425246 304.56 207.239529 304.56 218.16 
C 304.56 229.080471 302.408905 239.894754 298.229822 249.983954 
C 294.050739 260.073154 287.924939 269.241061 280.203 276.963 
C 272.481061 284.684939 263.313154 290.810739 253.223954 294.989822 
C 243.134754 299.168905 232.320471 301.32 221.4 301.32 
C 210.479529 301.32 199.665246 299.168905 189.576046 294.989822 
C 179.486846 290.810739 170.318939 284.684939 162.597 276.963 
C 154.875061 269.241061 148.749261 260.073154 144.570178 249.983954 
C 140.391095 239.894754 138.24 229.080471 138.24 218.16 
C 138.24 207.239529 140.391095 196.425246 144.570178 186.336046 
C 148.749261 176.246846 154.875061 167.078939 162.597 159.357 
C 170.318939 151.635061 179.486846 145.509261 189.576046 141.330178 
C 199.665246 137.151095 210.479529 135 221.4 135 
" clip-path="url(#p750bbb9c75)" style="fill: none; stroke: #ffffff; stroke-linecap: round"/>
     </g>
     <g id="text_13">
      <!-- 0.4 -->
      <g style="fill: #dc143c" transform="translate(253.223954 139.143928) scale(0.11 -0.11)">
       <use xlink:href="#ArialMT-30"/>
       <use xlink:href="#ArialMT-2e" x="55.615234"/>
       <use xlink:href="#ArialMT-34" x="83.398438"/>
      </g>
     </g>
    </g>
    <g id="ytick_6">
     <g id="line2d_14">
      <path d="M 221.4 114.21 
C 235.050589 114.21 248.568443 116.898868 261.179943 122.122723 
C 273.791443 127.346577 285.251326 135.003826 294.90375 144.65625 
C 304.556174 154.308674 312.213423 165.768557 317.437277 178.380057 
C 322.661132 190.991557 325.35 204.509411 325.35 218.16 
C 325.35 231.810589 322.661132 245.328443 317.437277 257.939943 
C 312.213423 270.551443 304.556174 282.011326 294.90375 291.66375 
C 285.251326 301.316174 273.791443 308.973423 261.179943 314.197277 
C 248.568443 319.421132 235.050589 322.11 221.4 322.11 
C 207.749411 322.11 194.231557 319.421132 181.620057 314.197277 
C 169.008557 308.973423 157.548674 301.316174 147.89625 291.66375 
C 138.243826 282.011326 130.586577 270.551443 125.362723 257.939943 
C 120.138868 245.328443 117.45 231.810589 117.45 218.16 
C 117.45 204.509411 120.138868 190.991557 125.362723 178.380057 
C 130.586577 165.768557 138.243826 154.308674 147.89625 144.65625 
C 157.548674 135.003826 169.008557 127.346577 181.620057 122.122723 
C 194.231557 116.898868 207.749411 114.21 221.4 114.21 
" clip-path="url(#p750bbb9c75)" style="fill: none; stroke: #ffffff; stroke-linecap: round"/>
     </g>
     <g id="text_14">
      <!-- 0.5 -->
      <g style="fill: #dc143c" transform="translate(261.179943 119.936473) scale(0.11 -0.11)">
       <use xlink:href="#ArialMT-30"/>
       <use xlink:href="#ArialMT-2e" x="55.615234"/>
       <use xlink:href="#ArialMT-35" x="83.398438"/>
      </g>
     </g>
    </g>
    <g id="ytick_7">
     <g id="line2d_15">
      <path d="M 221.4 93.42 
C 237.780707 93.42 254.002132 96.646642 269.135931 102.915267 
C 284.269731 109.183892 298.021591 118.372591 309.6045 129.9555 
C 321.187409 141.538409 330.376108 155.290269 336.644733 170.424069 
C 342.913358 185.557868 346.14 201.779293 346.14 218.16 
C 346.14 234.540707 342.913358 250.762132 336.644733 265.895931 
C 330.376108 281.029731 321.187409 294.781591 309.6045 306.3645 
C 298.021591 317.947409 284.269731 327.136108 269.135931 333.404733 
C 254.002132 339.673358 237.780707 342.9 221.4 342.9 
C 205.019293 342.9 188.797868 339.673358 173.664069 333.404733 
C 158.530269 327.136108 144.778409 317.947409 133.1955 306.3645 
C 121.612591 294.781591 112.423892 281.029731 106.155267 265.895931 
C 99.886642 250.762132 96.66 234.540707 96.66 218.16 
C 96.66 201.779293 99.886642 185.557868 106.155267 170.424069 
C 112.423892 155.290269 121.612591 141.538409 133.1955 129.9555 
C 144.778409 118.372591 158.530269 109.183892 173.664069 102.915267 
C 188.797868 96.646642 205.019293 93.42 221.4 93.42 
" clip-path="url(#p750bbb9c75)" style="fill: none; stroke: #ffffff; stroke-linecap: round"/>
     </g>
     <g id="text_15">
      <!-- 0.6 -->
      <g style="fill: #dc143c" transform="translate(269.135931 100.729017) scale(0.11 -0.11)">
       <defs>
        <path id="ArialMT-36" d="M 3184 3459 
L 2625 3416 
Q 2550 3747 2413 3897 
Q 2184 4138 1850 4138 
Q 1581 4138 1378 3988 
Q 1113 3794 959 3422 
Q 806 3050 800 2363 
Q 1003 2672 1297 2822 
Q 1591 2972 1913 2972 
Q 2475 2972 2870 2558 
Q 3266 2144 3266 1488 
Q 3266 1056 3080 686 
Q 2894 316 2569 119 
Q 2244 -78 1831 -78 
Q 1128 -78 684 439 
Q 241 956 241 2144 
Q 241 3472 731 4075 
Q 1159 4600 1884 4600 
Q 2425 4600 2770 4297 
Q 3116 3994 3184 3459 
z
M 888 1484 
Q 888 1194 1011 928 
Q 1134 663 1356 523 
Q 1578 384 1822 384 
Q 2178 384 2434 671 
Q 2691 959 2691 1453 
Q 2691 1928 2437 2201 
Q 2184 2475 1800 2475 
Q 1419 2475 1153 2201 
Q 888 1928 888 1484 
z
" transform="scale(0.015625)"/>
       </defs>
       <use xlink:href="#ArialMT-30"/>
       <use xlink:href="#ArialMT-2e" x="55.615234"/>
       <use xlink:href="#ArialMT-36" x="83.398438"/>
      </g>
     </g>
    </g>
    <g id="ytick_8">
     <g id="line2d_16">
      <path d="M 221.4 72.63 
C 240.510824 72.63 259.43582 76.394416 277.09192 83.707812 
C 294.74802 91.021208 310.791856 101.741357 324.30525 115.25475 
C 337.818643 128.768144 348.538792 144.81198 355.852188 162.46808 
C 363.165584 180.12418 366.93 199.049176 366.93 218.16 
C 366.93 237.270824 363.165584 256.19582 355.852188 273.85192 
C 348.538792 291.50802 337.818643 307.551856 324.30525 321.06525 
C 310.791856 334.578643 294.74802 345.298792 277.09192 352.612188 
C 259.43582 359.925584 240.510824 363.69 221.4 363.69 
C 202.289176 363.69 183.36418 359.925584 165.70808 352.612188 
C 148.05198 345.298792 132.008144 334.578643 118.49475 321.06525 
C 104.981357 307.551856 94.261208 291.50802 86.947812 273.85192 
C 79.634416 256.19582 75.87 237.270824 75.87 218.16 
C 75.87 199.049176 79.634416 180.12418 86.947812 162.46808 
C 94.261208 144.81198 104.981357 128.768144 118.49475 115.25475 
C 132.008144 101.741357 148.05198 91.021208 165.70808 83.707812 
C 183.36418 76.394416 202.289176 72.63 221.4 72.63 
" clip-path="url(#p750bbb9c75)" style="fill: none; stroke: #ffffff; stroke-linecap: round"/>
     </g>
     <g id="text_16">
      <!-- 0.7 -->
      <g style="fill: #dc143c" transform="translate(277.09192 81.521562) scale(0.11 -0.11)">
       <use xlink:href="#ArialMT-30"/>
       <use xlink:href="#ArialMT-2e" x="55.615234"/>
       <use xlink:href="#ArialMT-37" x="83.398438"/>
      </g>
     </g>
    </g>
    <g id="ytick_9">
     <g id="line2d_17">
      <path d="M 221.4 51.84 
C 243.240942 51.84 264.869509 56.142189 285.047908 64.500356 
C 305.226308 72.858523 323.562121 85.110122 339.006 100.554 
C 354.449878 115.997879 366.701477 134.333692 375.059644 154.512092 
C 383.417811 174.690491 387.72 196.319058 387.72 218.16 
C 387.72 240.000942 383.417811 261.629509 375.059644 281.807908 
C 366.701477 301.986308 354.449878 320.322121 339.006 335.766 
C 323.562121 351.209878 305.226308 363.461477 285.047908 371.819644 
C 264.869509 380.177811 243.240942 384.48 221.4 384.48 
C 199.559058 384.48 177.930491 380.177811 157.752092 371.819644 
C 137.573692 363.461477 119.237879 351.209878 103.794 335.766 
C 88.350122 320.322121 76.098523 301.986308 67.740356 281.807908 
C 59.382189 261.629509 55.08 240.000942 55.08 218.16 
C 55.08 196.319058 59.382189 174.690491 67.740356 154.512092 
C 76.098523 134.333692 88.350122 115.997879 103.794 100.554 
C 119.237879 85.110122 137.573692 72.858523 157.752092 64.500356 
C 177.930491 56.142189 199.559058 51.84 221.4 51.84 
" clip-path="url(#p750bbb9c75)" style="fill: none; stroke: #ffffff; stroke-linecap: round"/>
     </g>
     <g id="text_17">
      <!-- 0.8 -->
      <g style="fill: #dc143c" transform="translate(285.047908 62.314106) scale(0.11 -0.11)">
       <use xlink:href="#ArialMT-30"/>
       <use xlink:href="#ArialMT-2e" x="55.615234"/>
       <use xlink:href="#ArialMT-38" x="83.398438"/>
      </g>
     </g>
    </g>
   </g>
   <g id="line2d_18">
    <defs>
     <path id="m4e9a6d0876" d="M 0 0.5 
C 0.132602 0.5 0.25979 0.447317 0.353553 0.353553 
C 0.447317 0.25979 0.5 0.132602 0.5 0 
C 0.5 -0.132602 0.447317 -0.25979 0.353553 -0.353553 
C 0.25979 -0.447317 0.132602 -0.5 0 -0.5 
C -0.132602 -0.5 -0.25979 -0.447317 -0.353553 -0.353553 
C -0.447317 -0.25979 -0.5 -0.132602 -0.5 0 
C -0.5 0.132602 -0.447317 0.25979 -0.353553 0.353553 
C -0.25979 0.447317 -0.132602 0.5 0 0.5 
z
" style="stroke: #000000"/>
    </defs>
    <g clip-path="url(#p750bbb9c75)">
     <use xlink:href="#m4e9a6d0876" x="137.302683" y="157.059723" style="stroke: #000000"/>
     <use xlink:href="#m4e9a6d0876" x="139.486282" y="154.16199" style="stroke: #000000"/>
     <use xlink:href="#m4e9a6d0876" x="143.362287" y="152.678583" style="stroke: #000000"/>
     <use xlink:href="#m4e9a6d0876" x="145.695093" y="149.994996" style="stroke: #000000"/>
     <use xlink:href="#m4e9a6d0876" x="148.120135" y="147.394457" style="stroke: #000000"/>
     <use xlink:href="#m4e9a6d0876" x="152.078652" y="146.375643" style="stroke: #000000"/>
     <use xlink:href="#m4e9a6d0876" x="153.234996" y="142.455093" style="stroke: #000000"/>
     <use xlink:href="#m4e9a6d0876" x="155.918583" y="140.122287" style="stroke: #000000"/>
     <use xlink:href="#m4e9a6d0876" x="157.40199" y="136.246282" style="stroke: #000000"/>
     <use xlink:href="#m4e9a6d0876" x="160.299723" y="134.062683" style="stroke: #000000"/>
     <use xlink:href="#m4e9a6d0876" x="162.109336" y="130.257975" style="stroke: #000000"/>
     <use xlink:href="#m4e9a6d0876" x="165.21319" y="128.242308" style="stroke: #000000"/>
     <use xlink:href="#m4e9a6d0876" x="167.346" y="124.535726" style="stroke: #000000"/>
     <use xlink:href="#m4e9a6d0876" x="170.646368" y="122.706302" style="stroke: #000000"/>
     <use xlink:href="#m4e9a6d0876" x="174.008572" y="120.993173" style="stroke: #000000"/>
     <use xlink:href="#m4e9a6d0876" x="177.428515" y="119.398428" style="stroke: #000000"/>
     <use xlink:href="#m4e9a6d0876" x="180.123223" y="115.996393" style="stroke: #000000"/>
     <use xlink:href="#m4e9a6d0876" x="183.713826" y="114.618089" style="stroke: #000000"/>
     <use xlink:href="#m4e9a6d0876" x="186.707898" y="111.388689" style="stroke: #000000"/>
     <use xlink:href="#m4e9a6d0876" x="190.455297" y="110.242994" style="stroke: #000000"/>
     <use xlink:href="#m4e9a6d0876" x="193.737441" y="107.211535" style="stroke: #000000"/>
     <use xlink:href="#m4e9a6d0876" x="197.626338" y="106.313713" style="stroke: #000000"/>
     <use xlink:href="#m4e9a6d0876" x="209.447693" y="104.441394" style="stroke: #000000"/>
     <use xlink:href="#m4e9a6d0876" x="213.278672" y="102.019603" style="stroke: #000000"/>
     <use xlink:href="#m4e9a6d0876" x="217.336861" y="101.806922" style="stroke: #000000"/>
     <use xlink:href="#m4e9a6d0876" x="221.4" y="99.657" style="stroke: #000000"/>
     <use xlink:href="#m4e9a6d0876" x="225.535695" y="99.729189" style="stroke: #000000"/>
     <use xlink:href="#m4e9a6d0876" x="229.811375" y="97.871732" style="stroke: #000000"/>
     <use xlink:href="#m4e9a6d0876" x="234.004251" y="98.238561" style="stroke: #000000"/>
     <use xlink:href="#m4e9a6d0876" x="238.181771" y="98.751496" style="stroke: #000000"/>
     <use xlink:href="#m4e9a6d0876" x="242.338845" y="99.409912" style="stroke: #000000"/>
     <use xlink:href="#m4e9a6d0876" x="246.470408" y="100.213006" style="stroke: #000000"/>
     <use xlink:href="#m4e9a6d0876" x="250.571426" y="101.159801" style="stroke: #000000"/>
     <use xlink:href="#m4e9a6d0876" x="255.209954" y="100.250679" style="stroke: #000000"/>
     <use xlink:href="#m4e9a6d0876" x="259.304334" y="101.502457" style="stroke: #000000"/>
     <use xlink:href="#m4e9a6d0876" x="263.352533" y="102.896363" style="stroke: #000000"/>
     <use xlink:href="#m4e9a6d0876" x="267.349619" y="104.430701" style="stroke: #000000"/>
     <use xlink:href="#m4e9a6d0876" x="271.290723" y="106.103601" style="stroke: #000000"/>
     <use xlink:href="#m4e9a6d0876" x="275.171043" y="107.913023" style="stroke: #000000"/>
     <use xlink:href="#m4e9a6d0876" x="278.985851" y="109.856765" style="stroke: #000000"/>
     <use xlink:href="#m4e9a6d0876" x="282.7305" y="111.932458" style="stroke: #000000"/>
     <use xlink:href="#m4e9a6d0876" x="286.400427" y="114.137572" style="stroke: #000000"/>
     <use xlink:href="#m4e9a6d0876" x="289.991161" y="116.469422" style="stroke: #000000"/>
     <use xlink:href="#m4e9a6d0876" x="293.498327" y="118.925166" style="stroke: #000000"/>
     <use xlink:href="#m4e9a6d0876" x="296.917652" y="121.501813" style="stroke: #000000"/>
     <use xlink:href="#m4e9a6d0876" x="300.244971" y="124.196223" style="stroke: #000000"/>
     <use xlink:href="#m4e9a6d0876" x="304.867352" y="125.460114" style="stroke: #000000"/>
     <use xlink:href="#m4e9a6d0876" x="308.051685" y="128.429553" style="stroke: #000000"/>
     <use xlink:href="#m4e9a6d0876" x="312.625954" y="130.06412" style="stroke: #000000"/>
     <use xlink:href="#m4e9a6d0876" x="315.644884" y="133.301526" style="stroke: #000000"/>
     <use xlink:href="#m4e9a6d0876" x="320.141597" y="135.305963" style="stroke: #000000"/>
     <use xlink:href="#m4e9a6d0876" x="321.334736" y="140.082427" style="stroke: #000000"/>
     <use xlink:href="#m4e9a6d0876" x="324.611284" y="137.522507" style="stroke: #000000"/>
     <use xlink:href="#m4e9a6d0876" x="325.680673" y="142.395657" style="stroke: #000000"/>
     <use xlink:href="#m4e9a6d0876" x="329.044565" y="139.951645" style="stroke: #000000"/>
     <use xlink:href="#m4e9a6d0876" x="329.984854" y="144.918591" style="stroke: #000000"/>
     <use xlink:href="#m4e9a6d0876" x="333.431992" y="142.593467" style="stroke: #000000"/>
     <use xlink:href="#m4e9a6d0876" x="332.474795" y="148.752765" style="stroke: #000000"/>
     <use xlink:href="#m4e9a6d0876" x="336.000979" y="146.54936" style="stroke: #000000"/>
     <use xlink:href="#m4e9a6d0876" x="334.829409" y="152.6715" style="stroke: #000000"/>
     <use xlink:href="#m4e9a6d0876" x="338.430343" y="150.5925" style="stroke: #000000"/>
     <use xlink:href="#m4e9a6d0876" x="337.045827" y="156.670023" style="stroke: #000000"/>
     <use xlink:href="#m4e9a6d0876" x="340.717123" y="154.71796" style="stroke: #000000"/>
     <use xlink:href="#m4e9a6d0876" x="339.121348" y="160.743462" style="stroke: #000000"/>
     <use xlink:href="#m4e9a6d0876" x="342.858533" y="158.920715" style="stroke: #000000"/>
     <use xlink:href="#m4e9a6d0876" x="341.053443" y="164.886855" style="stroke: #000000"/>
     <use xlink:href="#m4e9a6d0876" x="344.851965" y="163.195644" style="stroke: #000000"/>
     <use xlink:href="#m4e9a6d0876" x="342.83976" y="169.095152" style="stroke: #000000"/>
     <use xlink:href="#m4e9a6d0876" x="346.69499" y="167.537538" style="stroke: #000000"/>
     <use xlink:href="#m4e9a6d0876" x="344.47812" y="173.363228" style="stroke: #000000"/>
     <use xlink:href="#m4e9a6d0876" x="348.385362" y="171.941108" style="stroke: #000000"/>
     <use xlink:href="#m4e9a6d0876" x="349.921022" y="176.400988" style="stroke: #000000"/>
     <use xlink:href="#m4e9a6d0876" x="353.875515" y="175.116096" style="stroke: #000000"/>
     <use xlink:href="#m4e9a6d0876" x="355.297025" y="179.765646" style="stroke: #000000"/>
     <use xlink:href="#m4e9a6d0876" x="359.293952" y="178.619546" style="stroke: #000000"/>
     <use xlink:href="#m4e9a6d0876" x="361.716251" y="247.98514" style="stroke: #000000"/>
     <use xlink:href="#m4e9a6d0876" x="362.607137" y="253.366893" style="stroke: #000000"/>
     <use xlink:href="#m4e9a6d0876" x="361.292415" y="258.273504" style="stroke: #000000"/>
     <use xlink:href="#m4e9a6d0876" x="363.761748" y="264.416136" style="stroke: #000000"/>
     <use xlink:href="#m4e9a6d0876" x="360.107088" y="268.645251" style="stroke: #000000"/>
     <use xlink:href="#m4e9a6d0876" x="362.115912" y="275.012919" style="stroke: #000000"/>
     <use xlink:href="#m4e9a6d0876" x="358.146792" y="279.043595" style="stroke: #000000"/>
     <use xlink:href="#m4e9a6d0876" x="355.938683" y="283.7789" style="stroke: #000000"/>
     <use xlink:href="#m4e9a6d0876" x="353.566659" y="288.434259" style="stroke: #000000"/>
     <use xlink:href="#m4e9a6d0876" x="351.033611" y="293.004" style="stroke: #000000"/>
     <use xlink:href="#m4e9a6d0876" x="348.342623" y="297.482555" style="stroke: #000000"/>
     <use xlink:href="#m4e9a6d0876" x="345.496976" y="301.864467" style="stroke: #000000"/>
     <use xlink:href="#m4e9a6d0876" x="342.500136" y="306.144399" style="stroke: #000000"/>
     <use xlink:href="#m4e9a6d0876" x="339.355754" y="310.317135" style="stroke: #000000"/>
     <use xlink:href="#m4e9a6d0876" x="334.475054" y="313.041236" style="stroke: #000000"/>
     <use xlink:href="#m4e9a6d0876" x="331.094865" y="316.9297" style="stroke: #000000"/>
     <use xlink:href="#m4e9a6d0876" x="327.581029" y="320.697827" style="stroke: #000000"/>
     <use xlink:href="#m4e9a6d0876" x="325.382022" y="325.836536" style="stroke: #000000"/>
     <use xlink:href="#m4e9a6d0876" x="320.1697" y="327.854865" style="stroke: #000000"/>
     <use xlink:href="#m4e9a6d0876" x="316.281236" y="331.235054" style="stroke: #000000"/>
     <use xlink:href="#m4e9a6d0876" x="312.277175" y="334.477479" style="stroke: #000000"/>
     <use xlink:href="#m4e9a6d0876" x="308.162393" y="337.57819" style="stroke: #000000"/>
     <use xlink:href="#m4e9a6d0876" x="301.616781" y="337.086269" style="stroke: #000000"/>
     <use xlink:href="#m4e9a6d0876" x="295.214044" y="336.287163" style="stroke: #000000"/>
     <use xlink:href="#m4e9a6d0876" x="290.007" y="336.99081" style="stroke: #000000"/>
     <use xlink:href="#m4e9a6d0876" x="283.866008" y="335.641475" style="stroke: #000000"/>
     <use xlink:href="#m4e9a6d0876" x="278.816538" y="335.881348" style="stroke: #000000"/>
     <use xlink:href="#m4e9a6d0876" x="272.981934" y="334.014921" style="stroke: #000000"/>
     <use xlink:href="#m4e9a6d0876" x="268.128426" y="333.816914" style="stroke: #000000"/>
     <use xlink:href="#m4e9a6d0876" x="262.641473" y="331.470016" style="stroke: #000000"/>
     <use xlink:href="#m4e9a6d0876" x="258.019441" y="330.86305" style="stroke: #000000"/>
     <use xlink:href="#m4e9a6d0876" x="252.917753" y="328.075469" style="stroke: #000000"/>
     <use xlink:href="#m4e9a6d0876" x="248.056648" y="325.073975" style="stroke: #000000"/>
     <use xlink:href="#m4e9a6d0876" x="244.309165" y="325.93915" style="stroke: #000000"/>
     <use xlink:href="#m4e9a6d0876" x="240.894786" y="328.720427" style="stroke: #000000"/>
     <use xlink:href="#m4e9a6d0876" x="236.735066" y="327.274668" style="stroke: #000000"/>
     <use xlink:href="#m4e9a6d0876" x="232.917678" y="327.743384" style="stroke: #000000"/>
     <use xlink:href="#m4e9a6d0876" x="228.941233" y="326.004654" style="stroke: #000000"/>
     <use xlink:href="#m4e9a6d0876" x="225.100359" y="324.12441" style="stroke: #000000"/>
     <use xlink:href="#m4e9a6d0876" x="221.4" y="324.189" style="stroke: #000000"/>
     <use xlink:href="#m4e9a6d0876" x="218.860538" y="290.880674" style="stroke: #000000"/>
     <use xlink:href="#m4e9a6d0876" x="216.32417" y="290.747748" style="stroke: #000000"/>
     <use xlink:href="#m4e9a6d0876" x="213.793986" y="290.526386" style="stroke: #000000"/>
     <use xlink:href="#m4e9a6d0876" x="211.273069" y="290.216856" style="stroke: #000000"/>
     <use xlink:href="#m4e9a6d0876" x="209.125505" y="287.772121" style="stroke: #000000"/>
     <use xlink:href="#m4e9a6d0876" x="206.703554" y="287.301341" style="stroke: #000000"/>
     <use xlink:href="#m4e9a6d0876" x="204.299509" y="286.746324" style="stroke: #000000"/>
     <use xlink:href="#m4e9a6d0876" x="202.489348" y="284.109281" style="stroke: #000000"/>
     <use xlink:href="#m4e9a6d0876" x="200.199271" y="283.409134" style="stroke: #000000"/>
     <use xlink:href="#m4e9a6d0876" x="197.935024" y="282.629492" style="stroke: #000000"/>
     <use xlink:href="#m4e9a6d0876" x="195.699365" y="281.771303" style="stroke: #000000"/>
     <use xlink:href="#m4e9a6d0876" x="193.495019" y="280.835613" style="stroke: #000000"/>
     <use xlink:href="#m4e9a6d0876" x="192.236044" y="277.95497" style="stroke: #000000"/>
     <use xlink:href="#m4e9a6d0876" x="190.166996" y="276.900737" style="stroke: #000000"/>
     <use xlink:href="#m4e9a6d0876" x="188.136" y="275.774938" style="stroke: #000000"/>
     <use xlink:href="#m4e9a6d0876" x="186.145531" y="274.578944" style="stroke: #000000"/>
     <use xlink:href="#m4e9a6d0876" x="184.198015" y="273.314212" style="stroke: #000000"/>
     <use xlink:href="#m4e9a6d0876" x="181.073817" y="273.664229" style="stroke: #000000"/>
     <use xlink:href="#m4e9a6d0876" x="179.161313" y="272.223054" style="stroke: #000000"/>
     <use xlink:href="#m4e9a6d0876" x="175.963915" y="272.308618" style="stroke: #000000"/>
     <use xlink:href="#m4e9a6d0876" x="175.492956" y="269.144937" style="stroke: #000000"/>
     <use xlink:href="#m4e9a6d0876" x="175.492956" y="269.144937" style="stroke: #000000"/>
     <use xlink:href="#m4e9a6d0876" x="173.741573" y="267.511746" style="stroke: #000000"/>
     <use xlink:href="#m4e9a6d0876" x="172.048254" y="265.818427" style="stroke: #000000"/>
     <use xlink:href="#m4e9a6d0876" x="170.415063" y="264.067044" style="stroke: #000000"/>
     <use xlink:href="#m4e9a6d0876" x="170.415063" y="264.067044" style="stroke: #000000"/>
     <use xlink:href="#m4e9a6d0876" x="168.843989" y="262.25973" style="stroke: #000000"/>
     <use xlink:href="#m4e9a6d0876" x="167.336946" y="260.398687" style="stroke: #000000"/>
     <use xlink:href="#m4e9a6d0876" x="165.895771" y="258.486183" style="stroke: #000000"/>
     <use xlink:href="#m4e9a6d0876" x="166.245788" y="255.361985" style="stroke: #000000"/>
     <use xlink:href="#m4e9a6d0876" x="164.981056" y="253.414469" style="stroke: #000000"/>
     <use xlink:href="#m4e9a6d0876" x="163.785062" y="251.424" style="stroke: #000000"/>
     <use xlink:href="#m4e9a6d0876" x="161.984595" y="252.4635" style="stroke: #000000"/>
     <use xlink:href="#m4e9a6d0876" x="160.823614" y="250.369036" style="stroke: #000000"/>
     <use xlink:href="#m4e9a6d0876" x="160.823614" y="250.369036" style="stroke: #000000"/>
     <use xlink:href="#m4e9a6d0876" x="159.736437" y="248.235329" style="stroke: #000000"/>
     <use xlink:href="#m4e9a6d0876" x="159.736437" y="248.235329" style="stroke: #000000"/>
     <use xlink:href="#m4e9a6d0876" x="158.724387" y="246.064981" style="stroke: #000000"/>
     <use xlink:href="#m4e9a6d0876" x="158.724387" y="246.064981" style="stroke: #000000"/>
     <use xlink:href="#m4e9a6d0876" x="157.788697" y="243.860635" style="stroke: #000000"/>
     <use xlink:href="#m4e9a6d0876" x="156.930508" y="241.624976" style="stroke: #000000"/>
     <use xlink:href="#m4e9a6d0876" x="156.150866" y="239.360729" style="stroke: #000000"/>
     <use xlink:href="#m4e9a6d0876" x="155.450719" y="237.070652" style="stroke: #000000"/>
     <use xlink:href="#m4e9a6d0876" x="154.830921" y="234.757535" style="stroke: #000000"/>
     <use xlink:href="#m4e9a6d0876" x="152.813676" y="235.260491" style="stroke: #000000"/>
     <use xlink:href="#m4e9a6d0876" x="152.258659" y="232.856446" style="stroke: #000000"/>
     <use xlink:href="#m4e9a6d0876" x="152.258659" y="232.856446" style="stroke: #000000"/>
     <use xlink:href="#m4e9a6d0876" x="151.787879" y="230.434495" style="stroke: #000000"/>
     <use xlink:href="#m4e9a6d0876" x="151.787879" y="230.434495" style="stroke: #000000"/>
     <use xlink:href="#m4e9a6d0876" x="153.460679" y="227.708249" style="stroke: #000000"/>
     <use xlink:href="#m4e9a6d0876" x="153.460679" y="227.708249" style="stroke: #000000"/>
     <use xlink:href="#m4e9a6d0876" x="151.101225" y="225.548699" style="stroke: #000000"/>
     <use xlink:href="#m4e9a6d0876" x="150.886188" y="223.090806" style="stroke: #000000"/>
     <use xlink:href="#m4e9a6d0876" x="152.834794" y="220.55435" style="stroke: #000000"/>
     <use xlink:href="#m4e9a6d0876" x="150.714" y="218.16" style="stroke: #000000"/>
     <use xlink:href="#m4e9a6d0876" x="152.834794" y="215.76565" style="stroke: #000000"/>
     <use xlink:href="#m4e9a6d0876" x="150.886188" y="213.229194" style="stroke: #000000"/>
     <use xlink:href="#m4e9a6d0876" x="150.886188" y="213.229194" style="stroke: #000000"/>
     <use xlink:href="#m4e9a6d0876" x="151.101225" y="210.771301" style="stroke: #000000"/>
     <use xlink:href="#m4e9a6d0876" x="151.401911" y="208.32241" style="stroke: #000000"/>
     <use xlink:href="#m4e9a6d0876" x="149.343144" y="208.033069" style="stroke: #000000"/>
     <use xlink:href="#m4e9a6d0876" x="149.740464" y="205.52449" style="stroke: #000000"/>
     <use xlink:href="#m4e9a6d0876" x="149.740464" y="205.52449" style="stroke: #000000"/>
     <use xlink:href="#m4e9a6d0876" x="150.22509" y="203.031306" style="stroke: #000000"/>
     <use xlink:href="#m4e9a6d0876" x="148.779187" y="200.053598" style="stroke: #000000"/>
     <use xlink:href="#m4e9a6d0876" x="149.45533" y="197.530198" style="stroke: #000000"/>
     <use xlink:href="#m4e9a6d0876" x="150.219126" y="195.031932" style="stroke: #000000"/>
     <use xlink:href="#m4e9a6d0876" x="151.069645" y="192.561844" style="stroke: #000000"/>
     <use xlink:href="#m4e9a6d0876" x="151.069645" y="192.561844" style="stroke: #000000"/>
     <use xlink:href="#m4e9a6d0876" x="150.078236" y="189.344137" style="stroke: #000000"/>
     <use xlink:href="#m4e9a6d0876" x="148.150621" y="188.56533" style="stroke: #000000"/>
     <use xlink:href="#m4e9a6d0876" x="149.228082" y="186.026992" style="stroke: #000000"/>
     <use xlink:href="#m4e9a6d0876" x="148.52488" y="182.616429" style="stroke: #000000"/>
     <use xlink:href="#m4e9a6d0876" x="153.481022" y="182.046839" style="stroke: #000000"/>
     <use xlink:href="#m4e9a6d0876" x="156.583195" y="180.738" style="stroke: #000000"/>
     <use xlink:href="#m4e9a6d0876" x="158.383661" y="181.7775" style="stroke: #000000"/>
     <use xlink:href="#m4e9a6d0876" x="157.928688" y="178.498723" style="stroke: #000000"/>
     <use xlink:href="#m4e9a6d0876" x="159.351512" y="176.307766" style="stroke: #000000"/>
     <use xlink:href="#m4e9a6d0876" x="208.403476" y="144.453049" style="stroke: #000000"/>
     <use xlink:href="#m4e9a6d0876" x="210.983728" y="144.044377" style="stroke: #000000"/>
     <use xlink:href="#m4e9a6d0876" x="242.029802" y="146.21533" style="stroke: #000000"/>
     <use xlink:href="#m4e9a6d0876" x="244.528068" y="146.979126" style="stroke: #000000"/>
     <use xlink:href="#m4e9a6d0876" x="246.998156" y="147.829645" style="stroke: #000000"/>
     <use xlink:href="#m4e9a6d0876" x="249.437056" y="148.765852" style="stroke: #000000"/>
     <use xlink:href="#m4e9a6d0876" x="252.687403" y="147.887343" style="stroke: #000000"/>
     <use xlink:href="#m4e9a6d0876" x="256.943571" y="145.28488" style="stroke: #000000"/>
     <use xlink:href="#m4e9a6d0876" x="259.465224" y="146.569726" style="stroke: #000000"/>
     <use xlink:href="#m4e9a6d0876" x="261.9405" y="147.941794" style="stroke: #000000"/>
     <use xlink:href="#m4e9a6d0876" x="264.366384" y="149.399412" style="stroke: #000000"/>
     <use xlink:href="#m4e9a6d0876" x="266.73992" y="150.940805" style="stroke: #000000"/>
     <use xlink:href="#m4e9a6d0876" x="269.058216" y="152.564093" style="stroke: #000000"/>
     <use xlink:href="#m4e9a6d0876" x="271.318448" y="154.2673" style="stroke: #000000"/>
     <use xlink:href="#m4e9a6d0876" x="273.517862" y="156.048351" style="stroke: #000000"/>
     <use xlink:href="#m4e9a6d0876" x="275.653779" y="157.905074" style="stroke: #000000"/>
     <use xlink:href="#m4e9a6d0876" x="277.723595" y="159.83521" style="stroke: #000000"/>
     <use xlink:href="#m4e9a6d0876" x="279.72479" y="161.836405" style="stroke: #000000"/>
     <use xlink:href="#m4e9a6d0876" x="281.654926" y="163.906221" style="stroke: #000000"/>
     <use xlink:href="#m4e9a6d0876" x="281.919043" y="167.378493" style="stroke: #000000"/>
     <use xlink:href="#m4e9a6d0876" x="294.020813" y="200.053598" style="stroke: #000000"/>
     <use xlink:href="#m4e9a6d0876" x="292.57491" y="203.031306" style="stroke: #000000"/>
     <use xlink:href="#m4e9a6d0876" x="291.012121" y="205.885505" style="stroke: #000000"/>
     <use xlink:href="#m4e9a6d0876" x="289.339321" y="208.611751" style="stroke: #000000"/>
     <use xlink:href="#m4e9a6d0876" x="290.007" y="218.16" style="stroke: #000000"/>
     <use xlink:href="#m4e9a6d0876" x="287.887473" y="220.481794" style="stroke: #000000"/>
     <use xlink:href="#m4e9a6d0876" x="285.692005" y="222.655735" style="stroke: #000000"/>
     <use xlink:href="#m4e9a6d0876" x="283.428331" y="224.67944" style="stroke: #000000"/>
     <use xlink:href="#m4e9a6d0876" x="281.104252" y="226.550885" style="stroke: #000000"/>
     <use xlink:href="#m4e9a6d0876" x="278.727629" y="228.268408" style="stroke: #000000"/>
     <use xlink:href="#m4e9a6d0876" x="280.373497" y="230.695204" style="stroke: #000000"/>
     <use xlink:href="#m4e9a6d0876" x="279.9001" y="232.745713" style="stroke: #000000"/>
     <use xlink:href="#m4e9a6d0876" x="279.9001" y="232.745713" style="stroke: #000000"/>
     <use xlink:href="#m4e9a6d0876" x="279.355429" y="234.778452" style="stroke: #000000"/>
     <use xlink:href="#m4e9a6d0876" x="279.355429" y="234.778452" style="stroke: #000000"/>
     <use xlink:href="#m4e9a6d0876" x="276.762902" y="236.148497" style="stroke: #000000"/>
     <use xlink:href="#m4e9a6d0876" x="276.762902" y="236.148497" style="stroke: #000000"/>
     <use xlink:href="#m4e9a6d0876" x="274.147766" y="237.358617" style="stroke: #000000"/>
     <use xlink:href="#m4e9a6d0876" x="274.147766" y="237.358617" style="stroke: #000000"/>
     <use xlink:href="#m4e9a6d0876" x="273.445611" y="239.187792" style="stroke: #000000"/>
     <use xlink:href="#m4e9a6d0876" x="273.445611" y="239.187792" style="stroke: #000000"/>
     <use xlink:href="#m4e9a6d0876" x="270.780786" y="240.145743" style="stroke: #000000"/>
     <use xlink:href="#m4e9a6d0876" x="270.780786" y="240.145743" style="stroke: #000000"/>
     <use xlink:href="#m4e9a6d0876" x="269.983413" y="241.855714" style="stroke: #000000"/>
     <use xlink:href="#m4e9a6d0876" x="269.983413" y="241.855714" style="stroke: #000000"/>
     <use xlink:href="#m4e9a6d0876" x="269.126849" y="243.536816" style="stroke: #000000"/>
     <use xlink:href="#m4e9a6d0876" x="270.012604" y="246.2265" style="stroke: #000000"/>
     <use xlink:href="#m4e9a6d0876" x="269.003484" y="247.905958" style="stroke: #000000"/>
     <use xlink:href="#m4e9a6d0876" x="267.936366" y="249.549175" style="stroke: #000000"/>
     <use xlink:href="#m4e9a6d0876" x="265.130605" y="249.932144" style="stroke: #000000"/>
     <use xlink:href="#m4e9a6d0876" x="263.995133" y="251.438965" style="stroke: #000000"/>
     <use xlink:href="#m4e9a6d0876" x="261.21516" y="251.568886" style="stroke: #000000"/>
     <use xlink:href="#m4e9a6d0876" x="260.024952" y="252.938063" style="stroke: #000000"/>
     <use xlink:href="#m4e9a6d0876" x="257.292179" y="252.820674" style="stroke: #000000"/>
     <use xlink:href="#m4e9a6d0876" x="256.060674" y="254.052179" style="stroke: #000000"/>
     <use xlink:href="#m4e9a6d0876" x="253.395818" y="253.694956" style="stroke: #000000"/>
     <use xlink:href="#m4e9a6d0876" x="250.79982" y="253.197341" style="stroke: #000000"/>
     <use xlink:href="#m4e9a6d0876" x="248.279164" y="252.563761" style="stroke: #000000"/>
     <use xlink:href="#m4e9a6d0876" x="245.840111" y="251.798927" style="stroke: #000000"/>
     <use xlink:href="#m4e9a6d0876" x="243.488679" y="250.907813" style="stroke: #000000"/>
     <use xlink:href="#m4e9a6d0876" x="244.535745" y="255.184932" style="stroke: #000000"/>
     <use xlink:href="#m4e9a6d0876" x="245.3085" y="259.570737" style="stroke: #000000"/>
     <use xlink:href="#m4e9a6d0876" x="244.824753" y="262.215553" style="stroke: #000000"/>
     <use xlink:href="#m4e9a6d0876" x="245.095714" y="266.743413" style="stroke: #000000"/>
     <use xlink:href="#m4e9a6d0876" x="245.076953" y="271.339308" style="stroke: #000000"/>
     <use xlink:href="#m4e9a6d0876" x="243.985406" y="274.060842" style="stroke: #000000"/>
     <use xlink:href="#m4e9a6d0876" x="243.442856" y="278.72225" style="stroke: #000000"/>
     <use xlink:href="#m4e9a6d0876" x="241.958283" y="281.431888" style="stroke: #000000"/>
     <use xlink:href="#m4e9a6d0876" x="240.883702" y="286.107744" style="stroke: #000000"/>
     <use xlink:href="#m4e9a6d0876" x="239.003447" y="288.763569" style="stroke: #000000"/>
     <use xlink:href="#m4e9a6d0876" x="236.960943" y="291.368479" style="stroke: #000000"/>
     <use xlink:href="#m4e9a6d0876" x="234.396524" y="291.866951" style="stroke: #000000"/>
     <use xlink:href="#m4e9a6d0876" x="231.816272" y="292.275623" style="stroke: #000000"/>
     <use xlink:href="#m4e9a6d0876" x="229.223328" y="292.593997" style="stroke: #000000"/>
     <use xlink:href="#m4e9a6d0876" x="226.620854" y="292.821684" style="stroke: #000000"/>
     <use xlink:href="#m4e9a6d0876" x="224.012018" y="292.958407" style="stroke: #000000"/>
     <use xlink:href="#m4e9a6d0876" x="221.4" y="293.004" style="stroke: #000000"/>
    </g>
   </g>
   <g id="patch_3">
    <path d="M 221.4 51.84 
C 199.559058 51.84 177.930491 56.142189 157.752092 64.500356 
C 137.573692 72.858523 119.237879 85.110122 103.794 100.554 
C 88.350122 115.997879 76.098523 134.333692 67.740356 154.512092 
C 59.382189 174.690491 55.08 196.319058 55.08 218.16 
C 55.08 240.000942 59.382189 261.629509 67.740356 281.807908 
C 76.098523 301.986308 88.350122 320.322121 103.794 335.766 
C 119.237879 351.209878 137.573692 363.461477 157.752092 371.819644 
C 177.930491 380.177811 199.559058 384.48 221.4 384.48 
C 243.240942 384.48 264.869509 380.177811 285.047908 371.819644 
C 305.226308 363.461477 323.562121 351.209878 339.006 335.766 
C 354.449878 320.322121 366.701477 301.986308 375.059644 281.807908 
C 383.417811 261.629509 387.72 240.000942 387.72 218.16 
C 387.72 196.319058 383.417811 174.690491 375.059644 154.512092 
C 366.701477 134.333692 354.449878 115.997879 339.006 100.554 
C 323.562121 85.110122 305.226308 72.858523 285.047908 64.500356 
C 264.869509 56.142189 243.240942 51.84 221.4 51.84 
" style="fill: none; stroke: #ffffff; stroke-width: 1.25; stroke-linejoin: miter; stroke-linecap: square"/>
   </g>
  </g>
 </g>
 <defs>
  <clipPath id="p750bbb9c75">
   <path d="M 387.72 218.16 
C 387.72 196.319058 383.417811 174.690491 375.059644 154.512092 
C 366.701477 134.333692 354.449878 115.997879 339.006 100.554 
C 323.562121 85.110122 305.226308 72.858523 285.047908 64.500356 
C 264.869509 56.142189 243.240942 51.84 221.4 51.84 
C 199.559058 51.84 177.930491 56.142189 157.752092 64.500356 
C 137.573692 72.858523 119.237879 85.110122 103.794 100.554 
C 88.350122 115.997879 76.098523 134.333692 67.740356 154.512092 
C 59.382189 174.690491 55.08 196.319058 55.08 218.16 
C 55.08 240.000942 59.382189 261.629509 67.740356 281.807908 
C 76.098523 301.986308 88.350122 320.322121 103.794 335.766 
C 119.237879 351.209878 137.573692 363.461477 157.752092 371.819644 
C 177.930491 380.177811 199.559058 384.48 221.4 384.48 
C 243.240942 384.48 264.869509 380.177811 285.047908 371.819644 
C 305.226308 363.461477 323.562121 351.209878 339.006 335.766 
C 354.449878 320.322121 366.701477 301.986308 375.059644 281.807908 
C 383.417811 261.629509 387.72 240.000942 387.72 218.16 
M 221.4 218.16 
C 221.4 218.16 221.4 218.16 221.4 218.16 
C 221.4 218.16 221.4 218.16 221.4 218.16 
C 221.4 218.16 221.4 218.16 221.4 218.16 
C 221.4 218.16 221.4 218.16 221.4 218.16 
C 221.4 218.16 221.4 218.16 221.4 218.16 
C 221.4 218.16 221.4 218.16 221.4 218.16 
C 221.4 218.16 221.4 218.16 221.4 218.16 
C 221.4 218.16 221.4 218.16 221.4 218.16 
C 221.4 218.16 221.4 218.16 221.4 218.16 
C 221.4 218.16 221.4 218.16 221.4 218.16 
C 221.4 218.16 221.4 218.16 221.4 218.16 
C 221.4 218.16 221.4 218.16 221.4 218.16 
C 221.4 218.16 221.4 218.16 221.4 218.16 
C 221.4 218.16 221.4 218.16 221.4 218.16 
C 221.4 218.16 221.4 218.16 221.4 218.16 
C 221.4 218.16 221.4 218.16 221.4 218.16 
z
"/>
  </clipPath>
 </defs>
</svg>
