<?xml version="1.0" encoding="utf-8" standalone="no"?>
<!DOCTYPE svg PUBLIC "-//W3C//DTD SVG 1.1//EN"
  "http://www.w3.org/Graphics/SVG/1.1/DTD/svg11.dtd">
<svg xmlns:xlink="http://www.w3.org/1999/xlink" width="432pt" height="432pt" viewBox="0 0 432 432" xmlns="http://www.w3.org/2000/svg" version="1.1">
 <metadata>
  <rdf:RDF xmlns:dc="http://purl.org/dc/elements/1.1/" xmlns:cc="http://creativecommons.org/ns#" xmlns:rdf="http://www.w3.org/1999/02/22-rdf-syntax-ns#">
   <cc:Work>
    <dc:type rdf:resource="http://purl.org/dc/dcmitype/StillImage"/>
    <dc:date>2024-09-05T16:15:06.248394</dc:date>
    <dc:format>image/svg+xml</dc:format>
    <dc:creator>
     <cc:Agent>
      <dc:title>Matplotlib v3.9.1, https://matplotlib.org/</dc:title>
     </cc:Agent>
    </dc:creator>
   </cc:Work>
  </rdf:RDF>
 </metadata>
 <defs>
  <style type="text/css">*{stroke-linejoin: round; stroke-linecap: butt}</style>
 </defs>
 <g id="figure_1">
  <g id="patch_1">
   <path d="M 0 432 
L 432 432 
L 432 0 
L 0 0 
z
" style="fill: #ffffff"/>
  </g>
  <g id="axes_1">
   <g id="patch_2">
    <path d="M 387.72 218.16 
C 387.72 196.319058 383.417811 174.690491 375.059644 154.512092 
C 366.701477 134.333692 354.449878 115.997879 339.006 100.554 
C 323.562121 85.110122 305.226308 72.858523 285.047908 64.500356 
C 264.869509 56.142189 243.240942 51.84 221.4 51.84 
C 199.559058 51.84 177.930491 56.142189 157.752092 64.500356 
C 137.573692 72.858523 119.237879 85.110122 103.794 100.554 
C 88.350122 115.997879 76.098523 134.333692 67.740356 154.512092 
C 59.382189 174.690491 55.08 196.319058 55.08 218.16 
C 55.08 240.000942 59.382189 261.629509 67.740356 281.807908 
C 76.098523 301.986308 88.350122 320.322121 103.794 335.766 
C 119.237879 351.209878 137.573692 363.461477 157.752092 371.819644 
C 177.930491 380.177811 199.559058 384.48 221.4 384.48 
C 243.240942 384.48 264.869509 380.177811 285.047908 371.819644 
C 305.226308 363.461477 323.562121 351.209878 339.006 335.766 
C 354.449878 320.322121 366.701477 301.986308 375.059644 281.807908 
C 383.417811 261.629509 387.72 240.000942 387.72 218.16 
M 221.4 218.16 
C 221.4 218.16 221.4 218.16 221.4 218.16 
C 221.4 218.16 221.4 218.16 221.4 218.16 
C 221.4 218.16 221.4 218.16 221.4 218.16 
C 221.4 218.16 221.4 218.16 221.4 218.16 
C 221.4 218.16 221.4 218.16 221.4 218.16 
C 221.4 218.16 221.4 218.16 221.4 218.16 
C 221.4 218.16 221.4 218.16 221.4 218.16 
C 221.4 218.16 221.4 218.16 221.4 218.16 
C 221.4 218.16 221.4 218.16 221.4 218.16 
C 221.4 218.16 221.4 218.16 221.4 218.16 
C 221.4 218.16 221.4 218.16 221.4 218.16 
C 221.4 218.16 221.4 218.16 221.4 218.16 
C 221.4 218.16 221.4 218.16 221.4 218.16 
C 221.4 218.16 221.4 218.16 221.4 218.16 
C 221.4 218.16 221.4 218.16 221.4 218.16 
C 221.4 218.16 221.4 218.16 221.4 218.16 
z
" style="fill: #eaeaf2"/>
   </g>
   <g id="matplotlib.axis_1">
    <g id="xtick_1">
     <g id="line2d_1">
      <path d="M 221.4 218.16 
L 221.4 51.84 
" clip-path="url(#p0a04e0e099)" style="fill: none; stroke: #ffffff; stroke-linecap: round"/>
     </g>
     <g id="text_1">
      <!-- 0° -->
      <g style="fill: #262626" transform="translate(216.142344 38.183672) scale(0.11 -0.11)">
       <defs>
        <path id="ArialMT-30" d="M 266 2259 
Q 266 3072 433 3567 
Q 600 4063 929 4331 
Q 1259 4600 1759 4600 
Q 2128 4600 2406 4451 
Q 2684 4303 2865 4023 
Q 3047 3744 3150 3342 
Q 3253 2941 3253 2259 
Q 3253 1453 3087 958 
Q 2922 463 2592 192 
Q 2263 -78 1759 -78 
Q 1097 -78 719 397 
Q 266 969 266 2259 
z
M 844 2259 
Q 844 1131 1108 757 
Q 1372 384 1759 384 
Q 2147 384 2411 759 
Q 2675 1134 2675 2259 
Q 2675 3391 2411 3762 
Q 2147 4134 1753 4134 
Q 1366 4134 1134 3806 
Q 844 3388 844 2259 
z
" transform="scale(0.015625)"/>
        <path id="ArialMT-b0" d="M 400 3794 
Q 400 4153 654 4406 
Q 909 4659 1266 4659 
Q 1628 4659 1881 4406 
Q 2134 4153 2134 3794 
Q 2134 3434 1879 3179 
Q 1625 2925 1266 2925 
Q 909 2925 654 3178 
Q 400 3431 400 3794 
z
M 741 3794 
Q 741 3575 895 3420 
Q 1050 3266 1269 3266 
Q 1484 3266 1639 3420 
Q 1794 3575 1794 3794 
Q 1794 4013 1639 4167 
Q 1484 4322 1269 4322 
Q 1050 4322 895 4167 
Q 741 4013 741 3794 
z
" transform="scale(0.015625)"/>
       </defs>
       <use xlink:href="#ArialMT-30"/>
       <use xlink:href="#ArialMT-b0" x="55.615234"/>
      </g>
     </g>
    </g>
    <g id="xtick_2">
     <g id="line2d_2">
      <path d="M 221.4 218.16 
L 339.006 100.554 
" clip-path="url(#p0a04e0e099)" style="fill: none; stroke: #ffffff; stroke-linecap: round"/>
     </g>
     <g id="text_2">
      <!-- 45° -->
      <g style="fill: #262626" transform="translate(342.35709 91.73041) scale(0.11 -0.11)">
       <defs>
        <path id="ArialMT-34" d="M 2069 0 
L 2069 1097 
L 81 1097 
L 81 1613 
L 2172 4581 
L 2631 4581 
L 2631 1613 
L 3250 1613 
L 3250 1097 
L 2631 1097 
L 2631 0 
L 2069 0 
z
M 2069 1613 
L 2069 3678 
L 634 1613 
L 2069 1613 
z
" transform="scale(0.015625)"/>
        <path id="ArialMT-35" d="M 266 1200 
L 856 1250 
Q 922 819 1161 601 
Q 1400 384 1738 384 
Q 2144 384 2425 690 
Q 2706 997 2706 1503 
Q 2706 1984 2436 2262 
Q 2166 2541 1728 2541 
Q 1456 2541 1237 2417 
Q 1019 2294 894 2097 
L 366 2166 
L 809 4519 
L 3088 4519 
L 3088 3981 
L 1259 3981 
L 1013 2750 
Q 1425 3038 1878 3038 
Q 2478 3038 2890 2622 
Q 3303 2206 3303 1553 
Q 3303 931 2941 478 
Q 2500 -78 1738 -78 
Q 1113 -78 717 272 
Q 322 622 266 1200 
z
" transform="scale(0.015625)"/>
       </defs>
       <use xlink:href="#ArialMT-34"/>
       <use xlink:href="#ArialMT-35" x="55.615234"/>
       <use xlink:href="#ArialMT-b0" x="111.230469"/>
      </g>
     </g>
    </g>
    <g id="xtick_3">
     <g id="line2d_3">
      <path d="M 221.4 218.16 
L 387.72 218.16 
" clip-path="url(#p0a04e0e099)" style="fill: none; stroke: #ffffff; stroke-linecap: round"/>
     </g>
     <g id="text_3">
      <!-- 90° -->
      <g style="fill: #262626" transform="translate(395.903828 221.003672) scale(0.11 -0.11)">
       <defs>
        <path id="ArialMT-39" d="M 350 1059 
L 891 1109 
Q 959 728 1153 556 
Q 1347 384 1650 384 
Q 1909 384 2104 503 
Q 2300 622 2425 820 
Q 2550 1019 2634 1356 
Q 2719 1694 2719 2044 
Q 2719 2081 2716 2156 
Q 2547 1888 2255 1720 
Q 1963 1553 1622 1553 
Q 1053 1553 659 1965 
Q 266 2378 266 3053 
Q 266 3750 677 4175 
Q 1088 4600 1706 4600 
Q 2153 4600 2523 4359 
Q 2894 4119 3086 3673 
Q 3278 3228 3278 2384 
Q 3278 1506 3087 986 
Q 2897 466 2520 194 
Q 2144 -78 1638 -78 
Q 1100 -78 759 220 
Q 419 519 350 1059 
z
M 2653 3081 
Q 2653 3566 2395 3850 
Q 2138 4134 1775 4134 
Q 1400 4134 1122 3828 
Q 844 3522 844 3034 
Q 844 2597 1108 2323 
Q 1372 2050 1759 2050 
Q 2150 2050 2401 2323 
Q 2653 2597 2653 3081 
z
" transform="scale(0.015625)"/>
       </defs>
       <use xlink:href="#ArialMT-39"/>
       <use xlink:href="#ArialMT-30" x="55.615234"/>
       <use xlink:href="#ArialMT-b0" x="111.230469"/>
      </g>
     </g>
    </g>
    <g id="xtick_4">
     <g id="line2d_4">
      <path d="M 221.4 218.16 
L 339.006 335.766 
" clip-path="url(#p0a04e0e099)" style="fill: none; stroke: #ffffff; stroke-linecap: round"/>
     </g>
     <g id="text_4">
      <!-- 135° -->
      <g style="fill: #262626" transform="translate(339.298574 350.276934) scale(0.11 -0.11)">
       <defs>
        <path id="ArialMT-31" d="M 2384 0 
L 1822 0 
L 1822 3584 
Q 1619 3391 1289 3197 
Q 959 3003 697 2906 
L 697 3450 
Q 1169 3672 1522 3987 
Q 1875 4303 2022 4600 
L 2384 4600 
L 2384 0 
z
" transform="scale(0.015625)"/>
        <path id="ArialMT-33" d="M 269 1209 
L 831 1284 
Q 928 806 1161 595 
Q 1394 384 1728 384 
Q 2125 384 2398 659 
Q 2672 934 2672 1341 
Q 2672 1728 2419 1979 
Q 2166 2231 1775 2231 
Q 1616 2231 1378 2169 
L 1441 2663 
Q 1497 2656 1531 2656 
Q 1891 2656 2178 2843 
Q 2466 3031 2466 3422 
Q 2466 3731 2256 3934 
Q 2047 4138 1716 4138 
Q 1388 4138 1169 3931 
Q 950 3725 888 3313 
L 325 3413 
Q 428 3978 793 4289 
Q 1159 4600 1703 4600 
Q 2078 4600 2393 4439 
Q 2709 4278 2876 4000 
Q 3044 3722 3044 3409 
Q 3044 3113 2884 2869 
Q 2725 2625 2413 2481 
Q 2819 2388 3044 2092 
Q 3269 1797 3269 1353 
Q 3269 753 2831 336 
Q 2394 -81 1725 -81 
Q 1122 -81 723 278 
Q 325 638 269 1209 
z
" transform="scale(0.015625)"/>
       </defs>
       <use xlink:href="#ArialMT-31"/>
       <use xlink:href="#ArialMT-33" x="55.615234"/>
       <use xlink:href="#ArialMT-35" x="111.230469"/>
       <use xlink:href="#ArialMT-b0" x="166.845703"/>
      </g>
     </g>
    </g>
    <g id="xtick_5">
     <g id="line2d_5">
      <path d="M 221.4 218.16 
L 221.4 384.48 
" clip-path="url(#p0a04e0e099)" style="fill: none; stroke: #ffffff; stroke-linecap: round"/>
     </g>
     <g id="text_5">
      <!-- 180° -->
      <g style="fill: #262626" transform="translate(210.025312 403.823672) scale(0.11 -0.11)">
       <defs>
        <path id="ArialMT-38" d="M 1131 2484 
Q 781 2613 612 2850 
Q 444 3088 444 3419 
Q 444 3919 803 4259 
Q 1163 4600 1759 4600 
Q 2359 4600 2725 4251 
Q 3091 3903 3091 3403 
Q 3091 3084 2923 2848 
Q 2756 2613 2416 2484 
Q 2838 2347 3058 2040 
Q 3278 1734 3278 1309 
Q 3278 722 2862 322 
Q 2447 -78 1769 -78 
Q 1091 -78 675 323 
Q 259 725 259 1325 
Q 259 1772 486 2073 
Q 713 2375 1131 2484 
z
M 1019 3438 
Q 1019 3113 1228 2906 
Q 1438 2700 1772 2700 
Q 2097 2700 2305 2904 
Q 2513 3109 2513 3406 
Q 2513 3716 2298 3927 
Q 2084 4138 1766 4138 
Q 1444 4138 1231 3931 
Q 1019 3725 1019 3438 
z
M 838 1322 
Q 838 1081 952 856 
Q 1066 631 1291 507 
Q 1516 384 1775 384 
Q 2178 384 2440 643 
Q 2703 903 2703 1303 
Q 2703 1709 2433 1975 
Q 2163 2241 1756 2241 
Q 1359 2241 1098 1978 
Q 838 1716 838 1322 
z
" transform="scale(0.015625)"/>
       </defs>
       <use xlink:href="#ArialMT-31"/>
       <use xlink:href="#ArialMT-38" x="55.615234"/>
       <use xlink:href="#ArialMT-30" x="111.230469"/>
       <use xlink:href="#ArialMT-b0" x="166.845703"/>
      </g>
     </g>
    </g>
    <g id="xtick_6">
     <g id="line2d_6">
      <path d="M 221.4 218.16 
L 103.794 335.766 
" clip-path="url(#p0a04e0e099)" style="fill: none; stroke: #ffffff; stroke-linecap: round"/>
     </g>
     <g id="text_6">
      <!-- 225° -->
      <g style="fill: #262626" transform="translate(80.752051 350.276934) scale(0.11 -0.11)">
       <defs>
        <path id="ArialMT-32" d="M 3222 541 
L 3222 0 
L 194 0 
Q 188 203 259 391 
Q 375 700 629 1000 
Q 884 1300 1366 1694 
Q 2113 2306 2375 2664 
Q 2638 3022 2638 3341 
Q 2638 3675 2398 3904 
Q 2159 4134 1775 4134 
Q 1369 4134 1125 3890 
Q 881 3647 878 3216 
L 300 3275 
Q 359 3922 746 4261 
Q 1134 4600 1788 4600 
Q 2447 4600 2831 4234 
Q 3216 3869 3216 3328 
Q 3216 3053 3103 2787 
Q 2991 2522 2730 2228 
Q 2469 1934 1863 1422 
Q 1356 997 1212 845 
Q 1069 694 975 541 
L 3222 541 
z
" transform="scale(0.015625)"/>
       </defs>
       <use xlink:href="#ArialMT-32"/>
       <use xlink:href="#ArialMT-32" x="55.615234"/>
       <use xlink:href="#ArialMT-35" x="111.230469"/>
       <use xlink:href="#ArialMT-b0" x="166.845703"/>
      </g>
     </g>
    </g>
    <g id="xtick_7">
     <g id="line2d_7">
      <path d="M 221.4 218.16 
L 55.08 218.16 
" clip-path="url(#p0a04e0e099)" style="fill: none; stroke: #ffffff; stroke-linecap: round"/>
     </g>
     <g id="text_7">
      <!-- 270° -->
      <g style="fill: #262626" transform="translate(27.205312 221.003672) scale(0.11 -0.11)">
       <defs>
        <path id="ArialMT-37" d="M 303 3981 
L 303 4522 
L 3269 4522 
L 3269 4084 
Q 2831 3619 2401 2847 
Q 1972 2075 1738 1259 
Q 1569 684 1522 0 
L 944 0 
Q 953 541 1156 1306 
Q 1359 2072 1739 2783 
Q 2119 3494 2547 3981 
L 303 3981 
z
" transform="scale(0.015625)"/>
       </defs>
       <use xlink:href="#ArialMT-32"/>
       <use xlink:href="#ArialMT-37" x="55.615234"/>
       <use xlink:href="#ArialMT-30" x="111.230469"/>
       <use xlink:href="#ArialMT-b0" x="166.845703"/>
      </g>
     </g>
    </g>
    <g id="xtick_8">
     <g id="line2d_8">
      <path d="M 221.4 218.16 
L 103.794 100.554 
" clip-path="url(#p0a04e0e099)" style="fill: none; stroke: #ffffff; stroke-linecap: round"/>
     </g>
     <g id="text_8">
      <!-- 315° -->
      <g style="fill: #262626" transform="translate(80.752051 91.73041) scale(0.11 -0.11)">
       <use xlink:href="#ArialMT-33"/>
       <use xlink:href="#ArialMT-31" x="55.615234"/>
       <use xlink:href="#ArialMT-35" x="111.230469"/>
       <use xlink:href="#ArialMT-b0" x="166.845703"/>
      </g>
     </g>
    </g>
   </g>
   <g id="matplotlib.axis_2">
    <g id="ytick_1">
     <g id="line2d_9">
      <path d="M 221.4 218.16 
C 221.4 218.16 221.4 218.16 221.4 218.16 
C 221.4 218.16 221.4 218.16 221.4 218.16 
C 221.4 218.16 221.4 218.16 221.4 218.16 
C 221.4 218.16 221.4 218.16 221.4 218.16 
C 221.4 218.16 221.4 218.16 221.4 218.16 
C 221.4 218.16 221.4 218.16 221.4 218.16 
C 221.4 218.16 221.4 218.16 221.4 218.16 
C 221.4 218.16 221.4 218.16 221.4 218.16 
C 221.4 218.16 221.4 218.16 221.4 218.16 
C 221.4 218.16 221.4 218.16 221.4 218.16 
C 221.4 218.16 221.4 218.16 221.4 218.16 
C 221.4 218.16 221.4 218.16 221.4 218.16 
C 221.4 218.16 221.4 218.16 221.4 218.16 
C 221.4 218.16 221.4 218.16 221.4 218.16 
C 221.4 218.16 221.4 218.16 221.4 218.16 
C 221.4 218.16 221.4 218.16 221.4 218.16 
" clip-path="url(#p0a04e0e099)" style="fill: none; stroke: #ffffff; stroke-linecap: round"/>
     </g>
     <g id="text_9">
      <!-- 0.0 -->
      <g style="fill: #dc143c" transform="translate(221.4 215.97375) scale(0.11 -0.11)">
       <defs>
        <path id="ArialMT-2e" d="M 581 0 
L 581 641 
L 1222 641 
L 1222 0 
L 581 0 
z
" transform="scale(0.015625)"/>
       </defs>
       <use xlink:href="#ArialMT-30"/>
       <use xlink:href="#ArialMT-2e" x="55.615234"/>
       <use xlink:href="#ArialMT-30" x="83.398438"/>
      </g>
     </g>
    </g>
    <g id="ytick_2">
     <g id="line2d_10">
      <path d="M 221.4 197.37 
C 224.130118 197.37 226.833689 197.907774 229.355989 198.952545 
C 231.878289 199.997315 234.170265 201.528765 236.10075 203.45925 
C 238.031235 205.389735 239.562685 207.681711 240.607455 210.204011 
C 241.652226 212.726311 242.19 215.429882 242.19 218.16 
C 242.19 220.890118 241.652226 223.593689 240.607455 226.115989 
C 239.562685 228.638289 238.031235 230.930265 236.10075 232.86075 
C 234.170265 234.791235 231.878289 236.322685 229.355989 237.367455 
C 226.833689 238.412226 224.130118 238.95 221.4 238.95 
C 218.669882 238.95 215.966311 238.412226 213.444011 237.367455 
C 210.921711 236.322685 208.629735 234.791235 206.69925 232.86075 
C 204.768765 230.930265 203.237315 228.638289 202.192545 226.115989 
C 201.147774 223.593689 200.61 220.890118 200.61 218.16 
C 200.61 215.429882 201.147774 212.726311 202.192545 210.204011 
C 203.237315 207.681711 204.768765 205.389735 206.69925 203.45925 
C 208.629735 201.528765 210.921711 199.997315 213.444011 198.952545 
C 215.966311 197.907774 218.669882 197.37 221.4 197.37 
" clip-path="url(#p0a04e0e099)" style="fill: none; stroke: #ffffff; stroke-linecap: round"/>
     </g>
     <g id="text_10">
      <!-- 0.1 -->
      <g style="fill: #dc143c" transform="translate(229.355989 196.766295) scale(0.11 -0.11)">
       <use xlink:href="#ArialMT-30"/>
       <use xlink:href="#ArialMT-2e" x="55.615234"/>
       <use xlink:href="#ArialMT-31" x="83.398438"/>
      </g>
     </g>
    </g>
    <g id="ytick_3">
     <g id="line2d_11">
      <path d="M 221.4 176.58 
C 226.860236 176.58 232.267377 177.655547 237.311977 179.745089 
C 242.356577 181.834631 246.94053 184.89753 250.8015 188.7585 
C 254.66247 192.61947 257.725369 197.203423 259.814911 202.248023 
C 261.904453 207.292623 262.98 212.699764 262.98 218.16 
C 262.98 223.620236 261.904453 229.027377 259.814911 234.071977 
C 257.725369 239.116577 254.66247 243.70053 250.8015 247.5615 
C 246.94053 251.42247 242.356577 254.485369 237.311977 256.574911 
C 232.267377 258.664453 226.860236 259.74 221.4 259.74 
C 215.939764 259.74 210.532623 258.664453 205.488023 256.574911 
C 200.443423 254.485369 195.85947 251.42247 191.9985 247.5615 
C 188.13753 243.70053 185.074631 239.116577 182.985089 234.071977 
C 180.895547 229.027377 179.82 223.620236 179.82 218.16 
C 179.82 212.699764 180.895547 207.292623 182.985089 202.248023 
C 185.074631 197.203423 188.13753 192.61947 191.9985 188.7585 
C 195.85947 184.89753 200.443423 181.834631 205.488023 179.745089 
C 210.532623 177.655547 215.939764 176.58 221.4 176.58 
" clip-path="url(#p0a04e0e099)" style="fill: none; stroke: #ffffff; stroke-linecap: round"/>
     </g>
     <g id="text_11">
      <!-- 0.2 -->
      <g style="fill: #dc143c" transform="translate(237.311977 177.558839) scale(0.11 -0.11)">
       <use xlink:href="#ArialMT-30"/>
       <use xlink:href="#ArialMT-2e" x="55.615234"/>
       <use xlink:href="#ArialMT-32" x="83.398438"/>
      </g>
     </g>
    </g>
    <g id="ytick_4">
     <g id="line2d_12">
      <path d="M 221.4 155.79 
C 229.590353 155.79 237.701066 157.403321 245.267966 160.537634 
C 252.834866 163.671946 259.710796 168.266296 265.50225 174.05775 
C 271.293704 179.849204 275.888054 186.725134 279.022366 194.292034 
C 282.156679 201.858934 283.77 209.969647 283.77 218.16 
C 283.77 226.350353 282.156679 234.461066 279.022366 242.027966 
C 275.888054 249.594866 271.293704 256.470796 265.50225 262.26225 
C 259.710796 268.053704 252.834866 272.648054 245.267966 275.782366 
C 237.701066 278.916679 229.590353 280.53 221.4 280.53 
C 213.209647 280.53 205.098934 278.916679 197.532034 275.782366 
C 189.965134 272.648054 183.089204 268.053704 177.29775 262.26225 
C 171.506296 256.470796 166.911946 249.594866 163.777634 242.027966 
C 160.643321 234.461066 159.03 226.350353 159.03 218.16 
C 159.03 209.969647 160.643321 201.858934 163.777634 194.292034 
C 166.911946 186.725134 171.506296 179.849204 177.29775 174.05775 
C 183.089204 168.266296 189.965134 163.671946 197.532034 160.537634 
C 205.098934 157.403321 213.209647 155.79 221.4 155.79 
" clip-path="url(#p0a04e0e099)" style="fill: none; stroke: #ffffff; stroke-linecap: round"/>
     </g>
     <g id="text_12">
      <!-- 0.3 -->
      <g style="fill: #dc143c" transform="translate(245.267966 158.351384) scale(0.11 -0.11)">
       <use xlink:href="#ArialMT-30"/>
       <use xlink:href="#ArialMT-2e" x="55.615234"/>
       <use xlink:href="#ArialMT-33" x="83.398438"/>
      </g>
     </g>
    </g>
    <g id="ytick_5">
     <g id="line2d_13">
      <path d="M 221.4 135 
C 232.320471 135 243.134754 137.151095 253.223954 141.330178 
C 263.313154 145.509261 272.481061 151.635061 280.203 159.357 
C 287.924939 167.078939 294.050739 176.246846 298.229822 186.336046 
C 302.408905 196.425246 304.56 207.239529 304.56 218.16 
C 304.56 229.080471 302.408905 239.894754 298.229822 249.983954 
C 294.050739 260.073154 287.924939 269.241061 280.203 276.963 
C 272.481061 284.684939 263.313154 290.810739 253.223954 294.989822 
C 243.134754 299.168905 232.320471 301.32 221.4 301.32 
C 210.479529 301.32 199.665246 299.168905 189.576046 294.989822 
C 179.486846 290.810739 170.318939 284.684939 162.597 276.963 
C 154.875061 269.241061 148.749261 260.073154 144.570178 249.983954 
C 140.391095 239.894754 138.24 229.080471 138.24 218.16 
C 138.24 207.239529 140.391095 196.425246 144.570178 186.336046 
C 148.749261 176.246846 154.875061 167.078939 162.597 159.357 
C 170.318939 151.635061 179.486846 145.509261 189.576046 141.330178 
C 199.665246 137.151095 210.479529 135 221.4 135 
" clip-path="url(#p0a04e0e099)" style="fill: none; stroke: #ffffff; stroke-linecap: round"/>
     </g>
     <g id="text_13">
      <!-- 0.4 -->
      <g style="fill: #dc143c" transform="translate(253.223954 139.143928) scale(0.11 -0.11)">
       <use xlink:href="#ArialMT-30"/>
       <use xlink:href="#ArialMT-2e" x="55.615234"/>
       <use xlink:href="#ArialMT-34" x="83.398438"/>
      </g>
     </g>
    </g>
    <g id="ytick_6">
     <g id="line2d_14">
      <path d="M 221.4 114.21 
C 235.050589 114.21 248.568443 116.898868 261.179943 122.122723 
C 273.791443 127.346577 285.251326 135.003826 294.90375 144.65625 
C 304.556174 154.308674 312.213423 165.768557 317.437277 178.380057 
C 322.661132 190.991557 325.35 204.509411 325.35 218.16 
C 325.35 231.810589 322.661132 245.328443 317.437277 257.939943 
C 312.213423 270.551443 304.556174 282.011326 294.90375 291.66375 
C 285.251326 301.316174 273.791443 308.973423 261.179943 314.197277 
C 248.568443 319.421132 235.050589 322.11 221.4 322.11 
C 207.749411 322.11 194.231557 319.421132 181.620057 314.197277 
C 169.008557 308.973423 157.548674 301.316174 147.89625 291.66375 
C 138.243826 282.011326 130.586577 270.551443 125.362723 257.939943 
C 120.138868 245.328443 117.45 231.810589 117.45 218.16 
C 117.45 204.509411 120.138868 190.991557 125.362723 178.380057 
C 130.586577 165.768557 138.243826 154.308674 147.89625 144.65625 
C 157.548674 135.003826 169.008557 127.346577 181.620057 122.122723 
C 194.231557 116.898868 207.749411 114.21 221.4 114.21 
" clip-path="url(#p0a04e0e099)" style="fill: none; stroke: #ffffff; stroke-linecap: round"/>
     </g>
     <g id="text_14">
      <!-- 0.5 -->
      <g style="fill: #dc143c" transform="translate(261.179943 119.936473) scale(0.11 -0.11)">
       <use xlink:href="#ArialMT-30"/>
       <use xlink:href="#ArialMT-2e" x="55.615234"/>
       <use xlink:href="#ArialMT-35" x="83.398438"/>
      </g>
     </g>
    </g>
    <g id="ytick_7">
     <g id="line2d_15">
      <path d="M 221.4 93.42 
C 237.780707 93.42 254.002132 96.646642 269.135931 102.915267 
C 284.269731 109.183892 298.021591 118.372591 309.6045 129.9555 
C 321.187409 141.538409 330.376108 155.290269 336.644733 170.424069 
C 342.913358 185.557868 346.14 201.779293 346.14 218.16 
C 346.14 234.540707 342.913358 250.762132 336.644733 265.895931 
C 330.376108 281.029731 321.187409 294.781591 309.6045 306.3645 
C 298.021591 317.947409 284.269731 327.136108 269.135931 333.404733 
C 254.002132 339.673358 237.780707 342.9 221.4 342.9 
C 205.019293 342.9 188.797868 339.673358 173.664069 333.404733 
C 158.530269 327.136108 144.778409 317.947409 133.1955 306.3645 
C 121.612591 294.781591 112.423892 281.029731 106.155267 265.895931 
C 99.886642 250.762132 96.66 234.540707 96.66 218.16 
C 96.66 201.779293 99.886642 185.557868 106.155267 170.424069 
C 112.423892 155.290269 121.612591 141.538409 133.1955 129.9555 
C 144.778409 118.372591 158.530269 109.183892 173.664069 102.915267 
C 188.797868 96.646642 205.019293 93.42 221.4 93.42 
" clip-path="url(#p0a04e0e099)" style="fill: none; stroke: #ffffff; stroke-linecap: round"/>
     </g>
     <g id="text_15">
      <!-- 0.6 -->
      <g style="fill: #dc143c" transform="translate(269.135931 100.729017) scale(0.11 -0.11)">
       <defs>
        <path id="ArialMT-36" d="M 3184 3459 
L 2625 3416 
Q 2550 3747 2413 3897 
Q 2184 4138 1850 4138 
Q 1581 4138 1378 3988 
Q 1113 3794 959 3422 
Q 806 3050 800 2363 
Q 1003 2672 1297 2822 
Q 1591 2972 1913 2972 
Q 2475 2972 2870 2558 
Q 3266 2144 3266 1488 
Q 3266 1056 3080 686 
Q 2894 316 2569 119 
Q 2244 -78 1831 -78 
Q 1128 -78 684 439 
Q 241 956 241 2144 
Q 241 3472 731 4075 
Q 1159 4600 1884 4600 
Q 2425 4600 2770 4297 
Q 3116 3994 3184 3459 
z
M 888 1484 
Q 888 1194 1011 928 
Q 1134 663 1356 523 
Q 1578 384 1822 384 
Q 2178 384 2434 671 
Q 2691 959 2691 1453 
Q 2691 1928 2437 2201 
Q 2184 2475 1800 2475 
Q 1419 2475 1153 2201 
Q 888 1928 888 1484 
z
" transform="scale(0.015625)"/>
       </defs>
       <use xlink:href="#ArialMT-30"/>
       <use xlink:href="#ArialMT-2e" x="55.615234"/>
       <use xlink:href="#ArialMT-36" x="83.398438"/>
      </g>
     </g>
    </g>
    <g id="ytick_8">
     <g id="line2d_16">
      <path d="M 221.4 72.63 
C 240.510824 72.63 259.43582 76.394416 277.09192 83.707812 
C 294.74802 91.021208 310.791856 101.741357 324.30525 115.25475 
C 337.818643 128.768144 348.538792 144.81198 355.852188 162.46808 
C 363.165584 180.12418 366.93 199.049176 366.93 218.16 
C 366.93 237.270824 363.165584 256.19582 355.852188 273.85192 
C 348.538792 291.50802 337.818643 307.551856 324.30525 321.06525 
C 310.791856 334.578643 294.74802 345.298792 277.09192 352.612188 
C 259.43582 359.925584 240.510824 363.69 221.4 363.69 
C 202.289176 363.69 183.36418 359.925584 165.70808 352.612188 
C 148.05198 345.298792 132.008144 334.578643 118.49475 321.06525 
C 104.981357 307.551856 94.261208 291.50802 86.947812 273.85192 
C 79.634416 256.19582 75.87 237.270824 75.87 218.16 
C 75.87 199.049176 79.634416 180.12418 86.947812 162.46808 
C 94.261208 144.81198 104.981357 128.768144 118.49475 115.25475 
C 132.008144 101.741357 148.05198 91.021208 165.70808 83.707812 
C 183.36418 76.394416 202.289176 72.63 221.4 72.63 
" clip-path="url(#p0a04e0e099)" style="fill: none; stroke: #ffffff; stroke-linecap: round"/>
     </g>
     <g id="text_16">
      <!-- 0.7 -->
      <g style="fill: #dc143c" transform="translate(277.09192 81.521562) scale(0.11 -0.11)">
       <use xlink:href="#ArialMT-30"/>
       <use xlink:href="#ArialMT-2e" x="55.615234"/>
       <use xlink:href="#ArialMT-37" x="83.398438"/>
      </g>
     </g>
    </g>
    <g id="ytick_9">
     <g id="line2d_17">
      <path d="M 221.4 51.84 
C 243.240942 51.84 264.869509 56.142189 285.047908 64.500356 
C 305.226308 72.858523 323.562121 85.110122 339.006 100.554 
C 354.449878 115.997879 366.701477 134.333692 375.059644 154.512092 
C 383.417811 174.690491 387.72 196.319058 387.72 218.16 
C 387.72 240.000942 383.417811 261.629509 375.059644 281.807908 
C 366.701477 301.986308 354.449878 320.322121 339.006 335.766 
C 323.562121 351.209878 305.226308 363.461477 285.047908 371.819644 
C 264.869509 380.177811 243.240942 384.48 221.4 384.48 
C 199.559058 384.48 177.930491 380.177811 157.752092 371.819644 
C 137.573692 363.461477 119.237879 351.209878 103.794 335.766 
C 88.350122 320.322121 76.098523 301.986308 67.740356 281.807908 
C 59.382189 261.629509 55.08 240.000942 55.08 218.16 
C 55.08 196.319058 59.382189 174.690491 67.740356 154.512092 
C 76.098523 134.333692 88.350122 115.997879 103.794 100.554 
C 119.237879 85.110122 137.573692 72.858523 157.752092 64.500356 
C 177.930491 56.142189 199.559058 51.84 221.4 51.84 
" clip-path="url(#p0a04e0e099)" style="fill: none; stroke: #ffffff; stroke-linecap: round"/>
     </g>
     <g id="text_17">
      <!-- 0.8 -->
      <g style="fill: #dc143c" transform="translate(285.047908 62.314106) scale(0.11 -0.11)">
       <use xlink:href="#ArialMT-30"/>
       <use xlink:href="#ArialMT-2e" x="55.615234"/>
       <use xlink:href="#ArialMT-38" x="83.398438"/>
      </g>
     </g>
    </g>
   </g>
   <g id="line2d_18">
    <defs>
     <path id="m806ecfe370" d="M 0 0.5 
C 0.132602 0.5 0.25979 0.447317 0.353553 0.353553 
C 0.447317 0.25979 0.5 0.132602 0.5 0 
C 0.5 -0.132602 0.447317 -0.25979 0.353553 -0.353553 
C 0.25979 -0.447317 0.132602 -0.5 0 -0.5 
C -0.132602 -0.5 -0.25979 -0.447317 -0.353553 -0.353553 
C -0.447317 -0.25979 -0.5 -0.132602 -0.5 0 
C -0.5 0.132602 -0.447317 0.25979 -0.353553 0.353553 
C -0.25979 0.447317 -0.132602 0.5 0 0.5 
z
" style="stroke: #000000"/>
    </defs>
    <g clip-path="url(#p0a04e0e099)">
     <use xlink:href="#m806ecfe370" x="222.916553" y="131.276754" style="stroke: #000000"/>
     <use xlink:href="#m806ecfe370" x="224.432643" y="131.316454" style="stroke: #000000"/>
     <use xlink:href="#m806ecfe370" x="225.900229" y="132.290524" style="stroke: #000000"/>
     <use xlink:href="#m806ecfe370" x="227.398172" y="132.382142" style="stroke: #000000"/>
     <use xlink:href="#m806ecfe370" x="228.894289" y="132.499889" style="stroke: #000000"/>
     <use xlink:href="#m806ecfe370" x="230.672173" y="129.941171" style="stroke: #000000"/>
     <use xlink:href="#m806ecfe370" x="232.210391" y="130.116429" style="stroke: #000000"/>
     <use xlink:href="#m806ecfe370" x="233.367122" y="133.009504" style="stroke: #000000"/>
     <use xlink:href="#m806ecfe370" x="235.135304" y="131.438703" style="stroke: #000000"/>
     <use xlink:href="#m806ecfe370" x="236.646708" y="131.691625" style="stroke: #000000"/>
     <use xlink:href="#m806ecfe370" x="237.807154" y="133.752511" style="stroke: #000000"/>
     <use xlink:href="#m806ecfe370" x="239.466794" y="133.162416" style="stroke: #000000"/>
     <use xlink:href="#m806ecfe370" x="240.947455" y="133.490671" style="stroke: #000000"/>
     <use xlink:href="#m806ecfe370" x="242.202215" y="134.726872" style="stroke: #000000"/>
     <use xlink:href="#m806ecfe370" x="243.655156" y="135.102628" style="stroke: #000000"/>
     <use xlink:href="#m806ecfe370" x="245.101317" y="135.503684" style="stroke: #000000"/>
     <use xlink:href="#m806ecfe370" x="246.540259" y="135.929918" style="stroke: #000000"/>
     <use xlink:href="#m806ecfe370" x="247.689554" y="137.249072" style="stroke: #000000"/>
     <use xlink:href="#m806ecfe370" x="249.690727" y="135.997763" style="stroke: #000000"/>
     <use xlink:href="#m806ecfe370" x="250.49729" y="138.215853" style="stroke: #000000"/>
     <use xlink:href="#m806ecfe370" x="252.215099" y="137.883923" style="stroke: #000000"/>
     <use xlink:href="#m806ecfe370" x="253.951995" y="137.590986" style="stroke: #000000"/>
     <use xlink:href="#m806ecfe370" x="254.997922" y="139.008256" style="stroke: #000000"/>
     <use xlink:href="#m806ecfe370" x="256.003032" y="140.440317" style="stroke: #000000"/>
     <use xlink:href="#m806ecfe370" x="257.354158" y="141.05606" style="stroke: #000000"/>
     <use xlink:href="#m806ecfe370" x="258.292816" y="142.518517" style="stroke: #000000"/>
     <use xlink:href="#m806ecfe370" x="260.023144" y="142.357812" style="stroke: #000000"/>
     <use xlink:href="#m806ecfe370" x="260.910192" y="143.852136" style="stroke: #000000"/>
     <use xlink:href="#m806ecfe370" x="262.645074" y="143.751917" style="stroke: #000000"/>
     <use xlink:href="#m806ecfe370" x="263.479431" y="145.276288" style="stroke: #000000"/>
     <use xlink:href="#m806ecfe370" x="264.745018" y="146.021776" style="stroke: #000000"/>
     <use xlink:href="#m806ecfe370" x="299.537814" y="88.116839" style="stroke: #000000"/>
     <use xlink:href="#m806ecfe370" x="265.51023" y="147.568876" style="stroke: #000000"/>
     <use xlink:href="#m806ecfe370" x="301.79548" y="89.500338" style="stroke: #000000"/>
     <use xlink:href="#m806ecfe370" x="267.735049" y="146.810282" style="stroke: #000000"/>
     <use xlink:href="#m806ecfe370" x="303.270825" y="92.089985" style="stroke: #000000"/>
     <use xlink:href="#m806ecfe370" x="269.483498" y="146.873282" style="stroke: #000000"/>
     <use xlink:href="#m806ecfe370" x="305.067956" y="94.117154" style="stroke: #000000"/>
     <use xlink:href="#m806ecfe370" x="269.67154" y="149.221097" style="stroke: #000000"/>
     <use xlink:href="#m806ecfe370" x="308.020317" y="94.453367" style="stroke: #000000"/>
     <use xlink:href="#m806ecfe370" x="270.326968" y="150.817806" style="stroke: #000000"/>
     <use xlink:href="#m806ecfe370" x="310.574485" y="95.421851" style="stroke: #000000"/>
     <use xlink:href="#m806ecfe370" x="271.494799" y="151.681956" style="stroke: #000000"/>
     <use xlink:href="#m806ecfe370" x="311.865591" y="98.108106" style="stroke: #000000"/>
     <use xlink:href="#m806ecfe370" x="272.647371" y="152.566356" style="stroke: #000000"/>
     <use xlink:href="#m806ecfe370" x="313.947007" y="99.705232" style="stroke: #000000"/>
     <use xlink:href="#m806ecfe370" x="274.362887" y="152.756281" style="stroke: #000000"/>
     <use xlink:href="#m806ecfe370" x="274.905338" y="154.394821" style="stroke: #000000"/>
     <use xlink:href="#m806ecfe370" x="276.010045" y="155.33833" style="stroke: #000000"/>
     <use xlink:href="#m806ecfe370" x="277.098117" y="156.300975" style="stroke: #000000"/>
     <use xlink:href="#m806ecfe370" x="278.796205" y="156.610105" style="stroke: #000000"/>
     <use xlink:href="#m806ecfe370" x="279.223036" y="158.282494" style="stroke: #000000"/>
     <use xlink:href="#m806ecfe370" x="326.788494" y="109.02702" style="stroke: #000000"/>
     <use xlink:href="#m806ecfe370" x="280.259236" y="159.300764" style="stroke: #000000"/>
     <use xlink:href="#m806ecfe370" x="281.277506" y="160.336964" style="stroke: #000000"/>
     <use xlink:href="#m806ecfe370" x="281.602675" y="162.020097" style="stroke: #000000"/>
     <use xlink:href="#m806ecfe370" x="281.88498" y="163.69908" style="stroke: #000000"/>
     <use xlink:href="#m806ecfe370" x="284.915499" y="162.946819" style="stroke: #000000"/>
     <use xlink:href="#m806ecfe370" x="285.165179" y="164.654662" style="stroke: #000000"/>
     <use xlink:href="#m806ecfe370" x="286.803719" y="165.197113" style="stroke: #000000"/>
     <use xlink:href="#m806ecfe370" x="287.718088" y="166.346631" style="stroke: #000000"/>
     <use xlink:href="#m806ecfe370" x="288.612255" y="167.511933" style="stroke: #000000"/>
     <use xlink:href="#m806ecfe370" x="290.226947" y="168.154296" style="stroke: #000000"/>
     <use xlink:href="#m806ecfe370" x="343.012452" y="129.803382" style="stroke: #000000"/>
     <use xlink:href="#m806ecfe370" x="291.089184" y="169.363108" style="stroke: #000000"/>
     <use xlink:href="#m806ecfe370" x="345.106633" y="131.539683" style="stroke: #000000"/>
     <use xlink:href="#m806ecfe370" x="290.408697" y="171.613046" style="stroke: #000000"/>
     <use xlink:href="#m806ecfe370" x="291.98156" y="172.323799" style="stroke: #000000"/>
     <use xlink:href="#m806ecfe370" x="347.470015" y="136.289175" style="stroke: #000000"/>
     <use xlink:href="#m806ecfe370" x="292.770762" y="173.562598" style="stroke: #000000"/>
     <use xlink:href="#m806ecfe370" x="348.287252" y="138.872045" style="stroke: #000000"/>
     <use xlink:href="#m806ecfe370" x="293.538224" y="174.814982" style="stroke: #000000"/>
     <use xlink:href="#m806ecfe370" x="350.250467" y="140.738829" style="stroke: #000000"/>
     <use xlink:href="#m806ecfe370" x="294.283712" y="176.080569" style="stroke: #000000"/>
     <use xlink:href="#m806ecfe370" x="351.582028" y="142.999371" style="stroke: #000000"/>
     <use xlink:href="#m806ecfe370" x="295.006998" y="177.358975" style="stroke: #000000"/>
     <use xlink:href="#m806ecfe370" x="353.483244" y="144.945062" style="stroke: #000000"/>
     <use xlink:href="#m806ecfe370" x="295.707864" y="178.649808" style="stroke: #000000"/>
     <use xlink:href="#m806ecfe370" x="353.509009" y="147.916394" style="stroke: #000000"/>
     <use xlink:href="#m806ecfe370" x="296.386094" y="179.952677" style="stroke: #000000"/>
     <use xlink:href="#m806ecfe370" x="297.86471" y="180.865669" style="stroke: #000000"/>
     <use xlink:href="#m806ecfe370" x="356.507851" y="152.263498" style="stroke: #000000"/>
     <use xlink:href="#m806ecfe370" x="297.673831" y="182.592928" style="stroke: #000000"/>
     <use xlink:href="#m806ecfe370" x="357.637326" y="154.631491" style="stroke: #000000"/>
     <use xlink:href="#m806ecfe370" x="298.282945" y="183.929507" style="stroke: #000000"/>
     <use xlink:href="#m806ecfe370" x="358.725302" y="157.018836" style="stroke: #000000"/>
     <use xlink:href="#m806ecfe370" x="300.551744" y="184.562078" style="stroke: #000000"/>
     <use xlink:href="#m806ecfe370" x="359.128429" y="159.697751" style="stroke: #000000"/>
     <use xlink:href="#m806ecfe370" x="300.279967" y="186.290425" style="stroke: #000000"/>
     <use xlink:href="#m806ecfe370" x="360.775443" y="161.848666" style="stroke: #000000"/>
     <use xlink:href="#m806ecfe370" x="301.676077" y="187.344901" style="stroke: #000000"/>
     <use xlink:href="#m806ecfe370" x="361.736984" y="164.289679" style="stroke: #000000"/>
     <use xlink:href="#m806ecfe370" x="302.201649" y="188.750605" style="stroke: #000000"/>
     <use xlink:href="#m806ecfe370" x="361.999354" y="166.98602" style="stroke: #000000"/>
     <use xlink:href="#m806ecfe370" x="302.702607" y="190.165267" style="stroke: #000000"/>
     <use xlink:href="#m806ecfe370" x="302.310928" y="191.870446" style="stroke: #000000"/>
     <use xlink:href="#m806ecfe370" x="302.757421" y="193.28654" style="stroke: #000000"/>
     <use xlink:href="#m806ecfe370" x="303.179132" y="194.710211" style="stroke: #000000"/>
     <use xlink:href="#m806ecfe370" x="303.575932" y="196.141025" style="stroke: #000000"/>
     <use xlink:href="#m806ecfe370" x="303.058983" y="197.800129" style="stroke: #000000"/>
     <use xlink:href="#m806ecfe370" x="302.506105" y="199.43518" style="stroke: #000000"/>
     <use xlink:href="#m806ecfe370" x="367.187887" y="184.502214" style="stroke: #000000"/>
     <use xlink:href="#m806ecfe370" x="304.615697" y="200.471958" style="stroke: #000000"/>
     <use xlink:href="#m806ecfe370" x="368.436378" y="186.906453" style="stroke: #000000"/>
     <use xlink:href="#m806ecfe370" x="304.012626" y="202.101732" style="stroke: #000000"/>
     <use xlink:href="#m806ecfe370" x="305.182308" y="203.386919" style="stroke: #000000"/>
     <use xlink:href="#m806ecfe370" x="304.522726" y="204.994654" style="stroke: #000000"/>
     <use xlink:href="#m806ecfe370" x="305.646843" y="206.319878" style="stroke: #000000"/>
     <use xlink:href="#m806ecfe370" x="305.84065" y="207.791992" style="stroke: #000000"/>
     <use xlink:href="#m806ecfe370" x="305.09783" y="209.363004" style="stroke: #000000"/>
     <use xlink:href="#m806ecfe370" x="306.151049" y="210.745244" style="stroke: #000000"/>
     <use xlink:href="#m806ecfe370" x="306.267547" y="212.225483" style="stroke: #000000"/>
     <use xlink:href="#m806ecfe370" x="305.443524" y="213.755466" style="stroke: #000000"/>
     <use xlink:href="#m806ecfe370" x="306.422959" y="215.190933" style="stroke: #000000"/>
     <use xlink:href="#m806ecfe370" x="306.461827" y="216.67524" style="stroke: #000000"/>
     <use xlink:href="#m806ecfe370" x="306.474785" y="218.16" style="stroke: #000000"/>
     <use xlink:href="#m806ecfe370" x="306.461827" y="219.64476" style="stroke: #000000"/>
     <use xlink:href="#m806ecfe370" x="370.299564" y="220.759052" style="stroke: #000000"/>
     <use xlink:href="#m806ecfe370" x="306.422959" y="221.129067" style="stroke: #000000"/>
     <use xlink:href="#m806ecfe370" x="306.358193" y="222.61247" style="stroke: #000000"/>
     <use xlink:href="#m806ecfe370" x="306.267547" y="224.094517" style="stroke: #000000"/>
     <use xlink:href="#m806ecfe370" x="306.151049" y="225.574756" style="stroke: #000000"/>
     <use xlink:href="#m806ecfe370" x="306.008736" y="227.052737" style="stroke: #000000"/>
     <use xlink:href="#m806ecfe370" x="305.84065" y="228.528008" style="stroke: #000000"/>
     <use xlink:href="#m806ecfe370" x="305.646843" y="230.000122" style="stroke: #000000"/>
     <use xlink:href="#m806ecfe370" x="306.328672" y="231.61138" style="stroke: #000000"/>
     <use xlink:href="#m806ecfe370" x="305.182308" y="232.933081" style="stroke: #000000"/>
     <use xlink:href="#m806ecfe370" x="305.807489" y="234.567154" style="stroke: #000000"/>
     <use xlink:href="#m806ecfe370" x="305.508289" y="236.037769" style="stroke: #000000"/>
     <use xlink:href="#m806ecfe370" x="305.183469" y="237.502938" style="stroke: #000000"/>
     <use xlink:href="#m806ecfe370" x="367.868534" y="251.974925" style="stroke: #000000"/>
     <use xlink:href="#m806ecfe370" x="304.833128" y="238.962215" style="stroke: #000000"/>
     <use xlink:href="#m806ecfe370" x="304.457372" y="240.415156" style="stroke: #000000"/>
     <use xlink:href="#m806ecfe370" x="304.056316" y="241.861317" style="stroke: #000000"/>
     <use xlink:href="#m806ecfe370" x="304.499518" y="243.566072" style="stroke: #000000"/>
     <use xlink:href="#m806ecfe370" x="303.1788" y="244.731543" style="stroke: #000000"/>
     <use xlink:href="#m806ecfe370" x="302.702607" y="246.154733" style="stroke: #000000"/>
     <use xlink:href="#m806ecfe370" x="303.055982" y="247.880347" style="stroke: #000000"/>
     <use xlink:href="#m806ecfe370" x="301.676077" y="248.975099" style="stroke: #000000"/>
     <use xlink:href="#m806ecfe370" x="301.126053" y="250.371416" style="stroke: #000000"/>
     <use xlink:href="#m806ecfe370" x="300.551744" y="251.757922" style="stroke: #000000"/>
     <use xlink:href="#m806ecfe370" x="300.783885" y="253.503983" style="stroke: #000000"/>
     <use xlink:href="#m806ecfe370" x="300.154957" y="254.88404" style="stroke: #000000"/>
     <use xlink:href="#m806ecfe370" x="299.502039" y="256.25291" style="stroke: #000000"/>
     <use xlink:href="#m806ecfe370" x="298.015262" y="257.197426" style="stroke: #000000"/>
     <use xlink:href="#m806ecfe370" x="301.306561" y="260.647072" style="stroke: #000000"/>
     <use xlink:href="#m806ecfe370" x="298.193613" y="260.727395" style="stroke: #000000"/>
     <use xlink:href="#m806ecfe370" x="296.65456" y="261.60824" style="stroke: #000000"/>
     <use xlink:href="#m806ecfe370" x="297.434822" y="263.84633" style="stroke: #000000"/>
     <use xlink:href="#m806ecfe370" x="295.092395" y="264.208119" style="stroke: #000000"/>
     <use xlink:href="#m806ecfe370" x="287.320486" y="277.515072" style="stroke: #000000"/>
     <use xlink:href="#m806ecfe370" x="284.952063" y="277.423257" style="stroke: #000000"/>
     <use xlink:href="#m806ecfe370" x="284.559681" y="279.152595" style="stroke: #000000"/>
     <use xlink:href="#m806ecfe370" x="282.202216" y="278.962216" style="stroke: #000000"/>
     <use xlink:href="#m806ecfe370" x="281.131811" y="280.014101" style="stroke: #000000"/>
     <use xlink:href="#m806ecfe370" x="280.04321" y="281.047144" style="stroke: #000000"/>
     <use xlink:href="#m806ecfe370" x="278.936747" y="282.061031" style="stroke: #000000"/>
     <use xlink:href="#m806ecfe370" x="277.812757" y="283.055453" style="stroke: #000000"/>
     <use xlink:href="#m806ecfe370" x="268.882843" y="294.148433" style="stroke: #000000"/>
     <use xlink:href="#m806ecfe370" x="267.54943" y="294.96555" style="stroke: #000000"/>
     <use xlink:href="#m806ecfe370" x="266.20196" y="295.759271" style="stroke: #000000"/>
     <use xlink:href="#m806ecfe370" x="264.840842" y="296.529354" style="stroke: #000000"/>
     <use xlink:href="#m806ecfe370" x="263.887072" y="298.066561" style="stroke: #000000"/>
     <use xlink:href="#m806ecfe370" x="262.079328" y="297.997677" style="stroke: #000000"/>
     <use xlink:href="#m806ecfe370" x="261.072491" y="299.500661" style="stroke: #000000"/>
     <use xlink:href="#m806ecfe370" x="259.268253" y="299.36873" style="stroke: #000000"/>
     <use xlink:href="#m806ecfe370" x="258.209576" y="300.835661" style="stroke: #000000"/>
     <use xlink:href="#m806ecfe370" x="256.411041" y="300.640843" style="stroke: #000000"/>
     <use xlink:href="#m806ecfe370" x="254.966219" y="301.239308" style="stroke: #000000"/>
     <use xlink:href="#m806ecfe370" x="253.83222" y="302.648821" style="stroke: #000000"/>
     <use xlink:href="#m806ecfe370" x="252.046345" y="302.360142" style="stroke: #000000"/>
     <use xlink:href="#m806ecfe370" x="250.572183" y="302.88217" style="stroke: #000000"/>
     <use xlink:href="#m806ecfe370" x="249.089134" y="303.378392" style="stroke: #000000"/>
     <use xlink:href="#m806ecfe370" x="247.334763" y="302.988787" style="stroke: #000000"/>
     <use xlink:href="#m806ecfe370" x="245.850346" y="303.428491" style="stroke: #000000"/>
     <use xlink:href="#m806ecfe370" x="263.217686" y="363.995603" style="stroke: #000000"/>
     <use xlink:href="#m806ecfe370" x="244.358482" y="303.842221" style="stroke: #000000"/>
     <use xlink:href="#m806ecfe370" x="242.641296" y="303.354186" style="stroke: #000000"/>
     <use xlink:href="#m806ecfe370" x="257.93454" y="364.692037" style="stroke: #000000"/>
     <use xlink:href="#m806ecfe370" x="241.151218" y="303.711922" style="stroke: #000000"/>
     <use xlink:href="#m806ecfe370" x="239.842757" y="304.926351" style="stroke: #000000"/>
     <use xlink:href="#m806ecfe370" x="238.153467" y="304.349114" style="stroke: #000000"/>
     <use xlink:href="#m806ecfe370" x="236.80342" y="305.517138" style="stroke: #000000"/>
     <use xlink:href="#m806ecfe370" x="247.503012" y="366.19754" style="stroke: #000000"/>
     <use xlink:href="#m806ecfe370" x="235.135304" y="304.881297" style="stroke: #000000"/>
     <use xlink:href="#m806ecfe370" x="244.806148" y="365.940604" style="stroke: #000000"/>
     <use xlink:href="#m806ecfe370" x="233.493653" y="304.21081" style="stroke: #000000"/>
     <use xlink:href="#m806ecfe370" x="242.514326" y="368.396238" style="stroke: #000000"/>
     <use xlink:href="#m806ecfe370" x="232.100407" y="305.307824" style="stroke: #000000"/>
     <use xlink:href="#m806ecfe370" x="239.719553" y="367.360786" style="stroke: #000000"/>
     <use xlink:href="#m806ecfe370" x="230.577838" y="305.481299" style="stroke: #000000"/>
     <use xlink:href="#m806ecfe370" x="237.258295" y="369.041597" style="stroke: #000000"/>
     <use xlink:href="#m806ecfe370" x="228.973527" y="304.725813" style="stroke: #000000"/>
     <use xlink:href="#m806ecfe370" x="234.562078" y="368.603245" style="stroke: #000000"/>
     <use xlink:href="#m806ecfe370" x="227.461592" y="304.844805" style="stroke: #000000"/>
     <use xlink:href="#m806ecfe370" x="231.837152" y="367.418234" style="stroke: #000000"/>
     <use xlink:href="#m806ecfe370" x="225.94781" y="304.937392" style="stroke: #000000"/>
     <use xlink:href="#m806ecfe370" x="224.464256" y="305.908803" style="stroke: #000000"/>
     <use xlink:href="#m806ecfe370" x="222.932361" y="305.948917" style="stroke: #000000"/>
     <use xlink:href="#m806ecfe370" x="224.023468" y="368.458363" style="stroke: #000000"/>
     <use xlink:href="#m806ecfe370" x="221.4" y="305.056481" style="stroke: #000000"/>
     <use xlink:href="#m806ecfe370" x="219.867639" y="305.948917" style="stroke: #000000"/>
     <use xlink:href="#m806ecfe370" x="218.367357" y="305.003546" style="stroke: #000000"/>
     <use xlink:href="#m806ecfe370" x="216.804783" y="305.841959" style="stroke: #000000"/>
     <use xlink:href="#m806ecfe370" x="213.532793" y="368.275248" style="stroke: #000000"/>
     <use xlink:href="#m806ecfe370" x="215.275222" y="305.748407" style="stroke: #000000"/>
     <use xlink:href="#m806ecfe370" x="213.747526" y="305.628175" style="stroke: #000000"/>
     <use xlink:href="#m806ecfe370" x="212.316844" y="304.580453" style="stroke: #000000"/>
     <use xlink:href="#m806ecfe370" x="210.809983" y="304.408767" style="stroke: #000000"/>
     <use xlink:href="#m806ecfe370" x="209.306347" y="304.21081" style="stroke: #000000"/>
     <use xlink:href="#m806ecfe370" x="207.94862" y="303.088672" style="stroke: #000000"/>
     <use xlink:href="#m806ecfe370" x="197.775593" y="367.318633" style="stroke: #000000"/>
     <use xlink:href="#m806ecfe370" x="206.468459" y="302.840978" style="stroke: #000000"/>
     <use xlink:href="#m806ecfe370" x="195.296988" y="366.19754" style="stroke: #000000"/>
     <use xlink:href="#m806ecfe370" x="204.992846" y="302.567489" style="stroke: #000000"/>
     <use xlink:href="#m806ecfe370" x="192.717352" y="365.719433" style="stroke: #000000"/>
     <use xlink:href="#m806ecfe370" x="203.522231" y="302.268289" style="stroke: #000000"/>
     <use xlink:href="#m806ecfe370" x="190.00161" y="365.87781" style="stroke: #000000"/>
     <use xlink:href="#m806ecfe370" x="202.057062" y="301.943469" style="stroke: #000000"/>
     <use xlink:href="#m806ecfe370" x="187.742214" y="363.947887" style="stroke: #000000"/>
     <use xlink:href="#m806ecfe370" x="200.818547" y="300.7077" style="stroke: #000000"/>
     <use xlink:href="#m806ecfe370" x="185.033996" y="364.016074" style="stroke: #000000"/>
     <use xlink:href="#m806ecfe370" x="199.618084" y="299.451217" style="stroke: #000000"/>
     <use xlink:href="#m806ecfe370" x="182.133865" y="364.70321" style="stroke: #000000"/>
     <use xlink:href="#m806ecfe370" x="197.950211" y="299.939132" style="stroke: #000000"/>
     <use xlink:href="#m806ecfe370" x="179.965846" y="362.658067" style="stroke: #000000"/>
     <use xlink:href="#m806ecfe370" x="196.52654" y="299.517421" style="stroke: #000000"/>
     <use xlink:href="#m806ecfe370" x="195.677571" y="297.325497" style="stroke: #000000"/>
     <use xlink:href="#m806ecfe370" x="194.29986" y="296.864521" style="stroke: #000000"/>
     <use xlink:href="#m806ecfe370" x="192.30271" y="298.104147" style="stroke: #000000"/>
     <use xlink:href="#m806ecfe370" x="169.274208" y="361.374436" style="stroke: #000000"/>
     <use xlink:href="#m806ecfe370" x="190.911924" y="297.584154" style="stroke: #000000"/>
     <use xlink:href="#m806ecfe370" x="167.031032" y="359.796003" style="stroke: #000000"/>
     <use xlink:href="#m806ecfe370" x="189.873536" y="296.190737" style="stroke: #000000"/>
     <use xlink:href="#m806ecfe370" x="188.875725" y="294.782391" style="stroke: #000000"/>
     <use xlink:href="#m806ecfe370" x="163.211443" y="355.24365" style="stroke: #000000"/>
     <use xlink:href="#m806ecfe370" x="186.796968" y="295.879683" style="stroke: #000000"/>
     <use xlink:href="#m806ecfe370" x="159.692888" y="356.756444" style="stroke: #000000"/>
     <use xlink:href="#m806ecfe370" x="157.577072" y="355.028712" style="stroke: #000000"/>
     <use xlink:href="#m806ecfe370" x="185.314703" y="292.145824" style="stroke: #000000"/>
     <use xlink:href="#m806ecfe370" x="183.610045" y="292.326964" style="stroke: #000000"/>
     <use xlink:href="#m806ecfe370" x="182.321408" y="291.656142" style="stroke: #000000"/>
     <use xlink:href="#m806ecfe370" x="180.154926" y="292.568083" style="stroke: #000000"/>
     <use xlink:href="#m806ecfe370" x="148.861472" y="349.022969" style="stroke: #000000"/>
     <use xlink:href="#m806ecfe370" x="178.406341" y="292.627202" style="stroke: #000000"/>
     <use xlink:href="#m806ecfe370" x="178.054982" y="290.298224" style="stroke: #000000"/>
     <use xlink:href="#m806ecfe370" x="177.28977" y="288.751124" style="stroke: #000000"/>
     <use xlink:href="#m806ecfe370" x="139.909633" y="343.644161" style="stroke: #000000"/>
     <use xlink:href="#m806ecfe370" x="174.853046" y="287.168697" style="stroke: #000000"/>
     <use xlink:href="#m806ecfe370" x="137.341419" y="342.781971" style="stroke: #000000"/>
     <use xlink:href="#m806ecfe370" x="174.18504" y="285.589951" style="stroke: #000000"/>
     <use xlink:href="#m806ecfe370" x="135.981709" y="340.149962" style="stroke: #000000"/>
     <use xlink:href="#m806ecfe370" x="173.559824" y="284.006353" style="stroke: #000000"/>
     <use xlink:href="#m806ecfe370" x="171.860531" y="283.901096" style="stroke: #000000"/>
     <use xlink:href="#m806ecfe370" x="170.720735" y="283.026501" style="stroke: #000000"/>
     <use xlink:href="#m806ecfe370" x="129.283063" y="336.064303" style="stroke: #000000"/>
     <use xlink:href="#m806ecfe370" x="127.680194" y="333.894322" style="stroke: #000000"/>
     <use xlink:href="#m806ecfe370" x="125.674626" y="332.241059" style="stroke: #000000"/>
     <use xlink:href="#m806ecfe370" x="168.002983" y="279.586242" style="stroke: #000000"/>
     <use xlink:href="#m806ecfe370" x="123.238672" y="331.081691" style="stroke: #000000"/>
     <use xlink:href="#m806ecfe370" x="166.93908" y="278.64498" style="stroke: #000000"/>
     <use xlink:href="#m806ecfe370" x="121.282867" y="329.351341" style="stroke: #000000"/>
     <use xlink:href="#m806ecfe370" x="165.891766" y="277.685293" style="stroke: #000000"/>
     <use xlink:href="#m806ecfe370" x="119.357559" y="327.587121" style="stroke: #000000"/>
     <use xlink:href="#m806ecfe370" x="164.86136" y="276.707475" style="stroke: #000000"/>
     <use xlink:href="#m806ecfe370" x="118.927114" y="324.27378" style="stroke: #000000"/>
     <use xlink:href="#m806ecfe370" x="163.848177" y="275.711823" style="stroke: #000000"/>
     <use xlink:href="#m806ecfe370" x="117.090781" y="322.469219" style="stroke: #000000"/>
     <use xlink:href="#m806ecfe370" x="161.522494" y="275.983036" style="stroke: #000000"/>
     <use xlink:href="#m806ecfe370" x="161.197325" y="274.299903" style="stroke: #000000"/>
     <use xlink:href="#m806ecfe370" x="159.540975" y="273.858117" style="stroke: #000000"/>
     <use xlink:href="#m806ecfe370" x="159.274744" y="272.164661" style="stroke: #000000"/>
     <use xlink:href="#m806ecfe370" x="109.006955" y="315.861784" style="stroke: #000000"/>
     <use xlink:href="#m806ecfe370" x="158.341695" y="271.072201" style="stroke: #000000"/>
     <use xlink:href="#m806ecfe370" x="108.396561" y="312.981144" style="stroke: #000000"/>
     <use xlink:href="#m806ecfe370" x="156.710736" y="270.544333" style="stroke: #000000"/>
     <use xlink:href="#m806ecfe370" x="105.665678" y="311.879806" style="stroke: #000000"/>
     <use xlink:href="#m806ecfe370" x="155.806356" y="269.407371" style="stroke: #000000"/>
     <use xlink:href="#m806ecfe370" x="105.712767" y="308.544772" style="stroke: #000000"/>
     <use xlink:href="#m806ecfe370" x="154.921956" y="268.254799" style="stroke: #000000"/>
     <use xlink:href="#m806ecfe370" x="154.057806" y="267.086968" style="stroke: #000000"/>
     <use xlink:href="#m806ecfe370" x="153.970049" y="265.37496" style="stroke: #000000"/>
     <use xlink:href="#m806ecfe370" x="99.410038" y="303.578291" style="stroke: #000000"/>
     <use xlink:href="#m806ecfe370" x="152.391303" y="264.706954" style="stroke: #000000"/>
     <use xlink:href="#m806ecfe370" x="152.363347" y="262.992927" style="stroke: #000000"/>
     <use xlink:href="#m806ecfe370" x="150.808876" y="262.27023" style="stroke: #000000"/>
     <use xlink:href="#m806ecfe370" x="150.049797" y="261.031527" style="stroke: #000000"/>
     <use xlink:href="#m806ecfe370" x="149.312453" y="259.779765" style="stroke: #000000"/>
     <use xlink:href="#m806ecfe370" x="93.037842" y="292.269927" style="stroke: #000000"/>
     <use xlink:href="#m806ecfe370" x="148.597067" y="258.515325" style="stroke: #000000"/>
     <use xlink:href="#m806ecfe370" x="147.903858" y="257.238592" style="stroke: #000000"/>
     <use xlink:href="#m806ecfe370" x="148.05522" y="255.531032" style="stroke: #000000"/>
     <use xlink:href="#m806ecfe370" x="146.584807" y="254.649808" style="stroke: #000000"/>
     <use xlink:href="#m806ecfe370" x="145.959366" y="253.338545" style="stroke: #000000"/>
     <use xlink:href="#m806ecfe370" x="145.356906" y="252.016567" style="stroke: #000000"/>
     <use xlink:href="#m806ecfe370" x="144.777609" y="250.684275" style="stroke: #000000"/>
     <use xlink:href="#m806ecfe370" x="144.221652" y="249.342076" style="stroke: #000000"/>
     <use xlink:href="#m806ecfe370" x="143.689205" y="247.990379" style="stroke: #000000"/>
     <use xlink:href="#m806ecfe370" x="144.047538" y="246.313994" style="stroke: #000000"/>
     <use xlink:href="#m806ecfe370" x="143.567964" y="244.959719" style="stroke: #000000"/>
     <use xlink:href="#m806ecfe370" x="142.234503" y="243.882429" style="stroke: #000000"/>
     <use xlink:href="#m806ecfe370" x="141.797642" y="242.496883" style="stroke: #000000"/>
     <use xlink:href="#m806ecfe370" x="143.162364" y="240.594281" style="stroke: #000000"/>
     <use xlink:href="#m806ecfe370" x="141.888105" y="239.465148" style="stroke: #000000"/>
     <use xlink:href="#m806ecfe370" x="141.528389" y="238.074229" style="stroke: #000000"/>
     <use xlink:href="#m806ecfe370" x="139.398125" y="237.091625" style="stroke: #000000"/>
     <use xlink:href="#m806ecfe370" x="138.184303" y="235.848042" style="stroke: #000000"/>
     <use xlink:href="#m806ecfe370" x="136.441807" y="222.61247" style="stroke: #000000"/>
     <use xlink:href="#m806ecfe370" x="136.377041" y="221.129067" style="stroke: #000000"/>
     <use xlink:href="#m806ecfe370" x="135.425778" y="219.660686" style="stroke: #000000"/>
     <use xlink:href="#m806ecfe370" x="72.840522" y="207.771709" style="stroke: #000000"/>
     <use xlink:href="#m806ecfe370" x="136.648951" y="210.745244" style="stroke: #000000"/>
     <use xlink:href="#m806ecfe370" x="136.791264" y="209.267263" style="stroke: #000000"/>
     <use xlink:href="#m806ecfe370" x="138.780926" y="208.015653" style="stroke: #000000"/>
     <use xlink:href="#m806ecfe370" x="72.892557" y="199.925579" style="stroke: #000000"/>
     <use xlink:href="#m806ecfe370" x="135.34919" y="206.066347" style="stroke: #000000"/>
     <use xlink:href="#m806ecfe370" x="136.471328" y="204.70862" style="stroke: #000000"/>
     <use xlink:href="#m806ecfe370" x="136.719022" y="203.228459" style="stroke: #000000"/>
     <use xlink:href="#m806ecfe370" x="136.992511" y="201.752846" style="stroke: #000000"/>
     <use xlink:href="#m806ecfe370" x="137.291711" y="200.282231" style="stroke: #000000"/>
     <use xlink:href="#m806ecfe370" x="136.730671" y="198.612545" style="stroke: #000000"/>
     <use xlink:href="#m806ecfe370" x="137.966872" y="197.357785" style="stroke: #000000"/>
     <use xlink:href="#m806ecfe370" x="138.342628" y="195.904844" style="stroke: #000000"/>
     <use xlink:href="#m806ecfe370" x="138.743684" y="194.458683" style="stroke: #000000"/>
     <use xlink:href="#m806ecfe370" x="137.434253" y="192.489095" style="stroke: #000000"/>
     <use xlink:href="#m806ecfe370" x="138.756536" y="191.307511" style="stroke: #000000"/>
     <use xlink:href="#m806ecfe370" x="139.237763" y="189.869273" style="stroke: #000000"/>
     <use xlink:href="#m806ecfe370" x="139.744018" y="188.439653" style="stroke: #000000"/>
     <use xlink:href="#m806ecfe370" x="140.275147" y="187.019086" style="stroke: #000000"/>
     <use xlink:href="#m806ecfe370" x="139.991135" y="185.268683" style="stroke: #000000"/>
     <use xlink:href="#m806ecfe370" x="140.577567" y="183.852912" style="stroke: #000000"/>
     <use xlink:href="#m806ecfe370" x="141.188617" y="182.447592" style="stroke: #000000"/>
     <use xlink:href="#m806ecfe370" x="141.824101" y="181.053149" style="stroke: #000000"/>
     <use xlink:href="#m806ecfe370" x="141.672687" y="179.274391" style="stroke: #000000"/>
     <use xlink:href="#m806ecfe370" x="142.363478" y="177.88888" style="stroke: #000000"/>
     <use xlink:href="#m806ecfe370" x="143.078343" y="176.515636" style="stroke: #000000"/>
     <use xlink:href="#m806ecfe370" x="143.817066" y="175.155078" style="stroke: #000000"/>
     <use xlink:href="#m806ecfe370" x="144.579422" y="173.807619" style="stroke: #000000"/>
     <use xlink:href="#m806ecfe370" x="145.365178" y="172.47367" style="stroke: #000000"/>
     <use xlink:href="#m806ecfe370" x="146.174095" y="171.153637" style="stroke: #000000"/>
     <use xlink:href="#m806ecfe370" x="146.25183" y="169.358208" style="stroke: #000000"/>
     <use xlink:href="#m806ecfe370" x="147.860419" y="168.556926" style="stroke: #000000"/>
     <use xlink:href="#m806ecfe370" x="148.000766" y="166.765303" style="stroke: #000000"/>
     <use xlink:href="#m806ecfe370" x="148.908906" y="165.492138" style="stroke: #000000"/>
     <use xlink:href="#m806ecfe370" x="150.557226" y="164.776141" style="stroke: #000000"/>
     <use xlink:href="#m806ecfe370" x="151.499693" y="163.547895" style="stroke: #000000"/>
     <use xlink:href="#m806ecfe370" x="152.463452" y="162.336284" style="stroke: #000000"/>
     <use xlink:href="#m806ecfe370" x="153.448209" y="161.141677" style="stroke: #000000"/>
     <use xlink:href="#m806ecfe370" x="154.453666" y="159.964439" style="stroke: #000000"/>
     <use xlink:href="#m806ecfe370" x="155.479514" y="158.804928" style="stroke: #000000"/>
     <use xlink:href="#m806ecfe370" x="156.525443" y="157.663497" style="stroke: #000000"/>
     <use xlink:href="#m806ecfe370" x="152.482445" y="151.607091" style="stroke: #000000"/>
     <use xlink:href="#m806ecfe370" x="156.147005" y="152.907005" style="stroke: #000000"/>
     <use xlink:href="#m806ecfe370" x="156.066972" y="150.505669" style="stroke: #000000"/>
     <use xlink:href="#m806ecfe370" x="157.859753" y="150.021427" style="stroke: #000000"/>
     <use xlink:href="#m806ecfe370" x="159.058612" y="148.922874" style="stroke: #000000"/>
     <use xlink:href="#m806ecfe370" x="162.026804" y="149.858951" style="stroke: #000000"/>
     <use xlink:href="#m806ecfe370" x="163.803711" y="149.519415" style="stroke: #000000"/>
     <use xlink:href="#m806ecfe370" x="165.010426" y="148.524676" style="stroke: #000000"/>
     <use xlink:href="#m806ecfe370" x="166.787895" y="148.259693" style="stroke: #000000"/>
     <use xlink:href="#m806ecfe370" x="167.475015" y="146.599128" style="stroke: #000000"/>
     <use xlink:href="#m806ecfe370" x="169.260649" y="146.396339" style="stroke: #000000"/>
     <use xlink:href="#m806ecfe370" x="170.521038" y="145.497312" style="stroke: #000000"/>
     <use xlink:href="#m806ecfe370" x="171.294124" y="143.874984" style="stroke: #000000"/>
     <use xlink:href="#m806ecfe370" x="172.598208" y="143.01183" style="stroke: #000000"/>
     <use xlink:href="#m806ecfe370" x="174.871875" y="143.699436" style="stroke: #000000"/>
     <use xlink:href="#m806ecfe370" x="176.178478" y="142.898749" style="stroke: #000000"/>
     <use xlink:href="#m806ecfe370" x="176.59804" y="140.560729" style="stroke: #000000"/>
     <use xlink:href="#m806ecfe370" x="177.524837" y="139.007111" style="stroke: #000000"/>
     <use xlink:href="#m806ecfe370" x="180.179322" y="140.63518" style="stroke: #000000"/>
     <use xlink:href="#m806ecfe370" x="181.12888" y="139.123478" style="stroke: #000000"/>
     <use xlink:href="#m806ecfe370" x="182.120227" y="137.624531" style="stroke: #000000"/>
     <use xlink:href="#m806ecfe370" x="183.531747" y="136.95127" style="stroke: #000000"/>
     <use xlink:href="#m806ecfe370" x="185.320523" y="137.124167" style="stroke: #000000"/>
     <use xlink:href="#m806ecfe370" x="187.092912" y="137.337567" style="stroke: #000000"/>
     <use xlink:href="#m806ecfe370" x="188.170611" y="135.914376" style="stroke: #000000"/>
     <use xlink:href="#m806ecfe370" x="189.611056" y="135.34697" style="stroke: #000000"/>
     <use xlink:href="#m806ecfe370" x="190.753655" y="133.959858" style="stroke: #000000"/>
     <use xlink:href="#m806ecfe370" x="192.227817" y="133.43783" style="stroke: #000000"/>
     <use xlink:href="#m806ecfe370" x="194.547511" y="135.516536" style="stroke: #000000"/>
     <use xlink:href="#m806ecfe370" x="195.993928" y="135.060482" style="stroke: #000000"/>
     <use xlink:href="#m806ecfe370" x="197.198409" y="133.759022" style="stroke: #000000"/>
     <use xlink:href="#m806ecfe370" x="198.675095" y="133.349501" style="stroke: #000000"/>
     <use xlink:href="#m806ecfe370" x="200.158704" y="132.965814" style="stroke: #000000"/>
     <use xlink:href="#m806ecfe370" x="201.852545" y="133.490671" style="stroke: #000000"/>
     <use xlink:href="#m806ecfe370" x="203.333206" y="133.162416" style="stroke: #000000"/>
     <use xlink:href="#m806ecfe370" x="204.646533" y="131.970886" style="stroke: #000000"/>
     <use xlink:href="#m806ecfe370" x="206.153292" y="131.691625" style="stroke: #000000"/>
     <use xlink:href="#m806ecfe370" x="207.94862" y="133.231328" style="stroke: #000000"/>
     <use xlink:href="#m806ecfe370" x="197.666906" y="68.31514" style="stroke: #000000"/>
     <use xlink:href="#m806ecfe370" x="209.432878" y="133.009504" style="stroke: #000000"/>
     <use xlink:href="#m806ecfe370" x="210.589609" y="130.116429" style="stroke: #000000"/>
     <use xlink:href="#m806ecfe370" x="211.661319" y="125.50264" style="stroke: #000000"/>
     <use xlink:href="#m806ecfe370" x="213.905711" y="132.499889" style="stroke: #000000"/>
     <use xlink:href="#m806ecfe370" x="215.149547" y="128.774351" style="stroke: #000000"/>
     <use xlink:href="#m806ecfe370" x="216.570351" y="126.004798" style="stroke: #000000"/>
     <use xlink:href="#m806ecfe370" x="216.178243" y="68.628439" style="stroke: #000000"/>
     <use xlink:href="#m806ecfe370" x="219.899314" y="132.185778" style="stroke: #000000"/>
     <use xlink:href="#m806ecfe370" x="221.4" y="129.455237" style="stroke: #000000"/>
    </g>
   </g>
   <g id="patch_3">
    <path d="M 221.4 51.84 
C 199.559058 51.84 177.930491 56.142189 157.752092 64.500356 
C 137.573692 72.858523 119.237879 85.110122 103.794 100.554 
C 88.350122 115.997879 76.098523 134.333692 67.740356 154.512092 
C 59.382189 174.690491 55.08 196.319058 55.08 218.16 
C 55.08 240.000942 59.382189 261.629509 67.740356 281.807908 
C 76.098523 301.986308 88.350122 320.322121 103.794 335.766 
C 119.237879 351.209878 137.573692 363.461477 157.752092 371.819644 
C 177.930491 380.177811 199.559058 384.48 221.4 384.48 
C 243.240942 384.48 264.869509 380.177811 285.047908 371.819644 
C 305.226308 363.461477 323.562121 351.209878 339.006 335.766 
C 354.449878 320.322121 366.701477 301.986308 375.059644 281.807908 
C 383.417811 261.629509 387.72 240.000942 387.72 218.16 
C 387.72 196.319058 383.417811 174.690491 375.059644 154.512092 
C 366.701477 134.333692 354.449878 115.997879 339.006 100.554 
C 323.562121 85.110122 305.226308 72.858523 285.047908 64.500356 
C 264.869509 56.142189 243.240942 51.84 221.4 51.84 
" style="fill: none; stroke: #ffffff; stroke-width: 1.25; stroke-linejoin: miter; stroke-linecap: square"/>
   </g>
  </g>
 </g>
 <defs>
  <clipPath id="p0a04e0e099">
   <path d="M 387.72 218.16 
C 387.72 196.319058 383.417811 174.690491 375.059644 154.512092 
C 366.701477 134.333692 354.449878 115.997879 339.006 100.554 
C 323.562121 85.110122 305.226308 72.858523 285.047908 64.500356 
C 264.869509 56.142189 243.240942 51.84 221.4 51.84 
C 199.559058 51.84 177.930491 56.142189 157.752092 64.500356 
C 137.573692 72.858523 119.237879 85.110122 103.794 100.554 
C 88.350122 115.997879 76.098523 134.333692 67.740356 154.512092 
C 59.382189 174.690491 55.08 196.319058 55.08 218.16 
C 55.08 240.000942 59.382189 261.629509 67.740356 281.807908 
C 76.098523 301.986308 88.350122 320.322121 103.794 335.766 
C 119.237879 351.209878 137.573692 363.461477 157.752092 371.819644 
C 177.930491 380.177811 199.559058 384.48 221.4 384.48 
C 243.240942 384.48 264.869509 380.177811 285.047908 371.819644 
C 305.226308 363.461477 323.562121 351.209878 339.006 335.766 
C 354.449878 320.322121 366.701477 301.986308 375.059644 281.807908 
C 383.417811 261.629509 387.72 240.000942 387.72 218.16 
M 221.4 218.16 
C 221.4 218.16 221.4 218.16 221.4 218.16 
C 221.4 218.16 221.4 218.16 221.4 218.16 
C 221.4 218.16 221.4 218.16 221.4 218.16 
C 221.4 218.16 221.4 218.16 221.4 218.16 
C 221.4 218.16 221.4 218.16 221.4 218.16 
C 221.4 218.16 221.4 218.16 221.4 218.16 
C 221.4 218.16 221.4 218.16 221.4 218.16 
C 221.4 218.16 221.4 218.16 221.4 218.16 
C 221.4 218.16 221.4 218.16 221.4 218.16 
C 221.4 218.16 221.4 218.16 221.4 218.16 
C 221.4 218.16 221.4 218.16 221.4 218.16 
C 221.4 218.16 221.4 218.16 221.4 218.16 
C 221.4 218.16 221.4 218.16 221.4 218.16 
C 221.4 218.16 221.4 218.16 221.4 218.16 
C 221.4 218.16 221.4 218.16 221.4 218.16 
C 221.4 218.16 221.4 218.16 221.4 218.16 
z
"/>
  </clipPath>
 </defs>
</svg>
