<?xml version="1.0" encoding="utf-8" standalone="no"?>
<!DOCTYPE svg PUBLIC "-//W3C//DTD SVG 1.1//EN"
  "http://www.w3.org/Graphics/SVG/1.1/DTD/svg11.dtd">
<svg xmlns:xlink="http://www.w3.org/1999/xlink" width="432pt" height="432pt" viewBox="0 0 432 432" xmlns="http://www.w3.org/2000/svg" version="1.1">
 <metadata>
  <rdf:RDF xmlns:dc="http://purl.org/dc/elements/1.1/" xmlns:cc="http://creativecommons.org/ns#" xmlns:rdf="http://www.w3.org/1999/02/22-rdf-syntax-ns#">
   <cc:Work>
    <dc:type rdf:resource="http://purl.org/dc/dcmitype/StillImage"/>
    <dc:date>2024-08-13T14:27:46.347667</dc:date>
    <dc:format>image/svg+xml</dc:format>
    <dc:creator>
     <cc:Agent>
      <dc:title>Matplotlib v3.9.1, https://matplotlib.org/</dc:title>
     </cc:Agent>
    </dc:creator>
   </cc:Work>
  </rdf:RDF>
 </metadata>
 <defs>
  <style type="text/css">*{stroke-linejoin: round; stroke-linecap: butt}</style>
 </defs>
 <g id="figure_1">
  <g id="patch_1">
   <path d="M 0 432 
L 432 432 
L 432 0 
L 0 0 
z
" style="fill: #ffffff"/>
  </g>
  <g id="axes_1">
   <g id="patch_2">
    <path d="M 387.72 218.16 
C 387.72 196.319058 383.417811 174.690491 375.059644 154.512092 
C 366.701477 134.333692 354.449878 115.997879 339.006 100.554 
C 323.562121 85.110122 305.226308 72.858523 285.047908 64.500356 
C 264.869509 56.142189 243.240942 51.84 221.4 51.84 
C 199.559058 51.84 177.930491 56.142189 157.752092 64.500356 
C 137.573692 72.858523 119.237879 85.110122 103.794 100.554 
C 88.350122 115.997879 76.098523 134.333692 67.740356 154.512092 
C 59.382189 174.690491 55.08 196.319058 55.08 218.16 
C 55.08 240.000942 59.382189 261.629509 67.740356 281.807908 
C 76.098523 301.986308 88.350122 320.322121 103.794 335.766 
C 119.237879 351.209878 137.573692 363.461477 157.752092 371.819644 
C 177.930491 380.177811 199.559058 384.48 221.4 384.48 
C 243.240942 384.48 264.869509 380.177811 285.047908 371.819644 
C 305.226308 363.461477 323.562121 351.209878 339.006 335.766 
C 354.449878 320.322121 366.701477 301.986308 375.059644 281.807908 
C 383.417811 261.629509 387.72 240.000942 387.72 218.16 
M 221.4 218.16 
C 221.4 218.16 221.4 218.16 221.4 218.16 
C 221.4 218.16 221.4 218.16 221.4 218.16 
C 221.4 218.16 221.4 218.16 221.4 218.16 
C 221.4 218.16 221.4 218.16 221.4 218.16 
C 221.4 218.16 221.4 218.16 221.4 218.16 
C 221.4 218.16 221.4 218.16 221.4 218.16 
C 221.4 218.16 221.4 218.16 221.4 218.16 
C 221.4 218.16 221.4 218.16 221.4 218.16 
C 221.4 218.16 221.4 218.16 221.4 218.16 
C 221.4 218.16 221.4 218.16 221.4 218.16 
C 221.4 218.16 221.4 218.16 221.4 218.16 
C 221.4 218.16 221.4 218.16 221.4 218.16 
C 221.4 218.16 221.4 218.16 221.4 218.16 
C 221.4 218.16 221.4 218.16 221.4 218.16 
C 221.4 218.16 221.4 218.16 221.4 218.16 
C 221.4 218.16 221.4 218.16 221.4 218.16 
z
" style="fill: #eaeaf2"/>
   </g>
   <g id="matplotlib.axis_1">
    <g id="xtick_1">
     <g id="line2d_1">
      <path d="M 221.4 218.16 
L 221.4 51.84 
" clip-path="url(#pb359646507)" style="fill: none; stroke: #ffffff; stroke-linecap: round"/>
     </g>
     <g id="text_1">
      <!-- 0° -->
      <g style="fill: #262626" transform="translate(216.142344 38.183672) scale(0.11 -0.11)">
       <defs>
        <path id="ArialMT-30" d="M 266 2259 
Q 266 3072 433 3567 
Q 600 4063 929 4331 
Q 1259 4600 1759 4600 
Q 2128 4600 2406 4451 
Q 2684 4303 2865 4023 
Q 3047 3744 3150 3342 
Q 3253 2941 3253 2259 
Q 3253 1453 3087 958 
Q 2922 463 2592 192 
Q 2263 -78 1759 -78 
Q 1097 -78 719 397 
Q 266 969 266 2259 
z
M 844 2259 
Q 844 1131 1108 757 
Q 1372 384 1759 384 
Q 2147 384 2411 759 
Q 2675 1134 2675 2259 
Q 2675 3391 2411 3762 
Q 2147 4134 1753 4134 
Q 1366 4134 1134 3806 
Q 844 3388 844 2259 
z
" transform="scale(0.015625)"/>
        <path id="ArialMT-b0" d="M 400 3794 
Q 400 4153 654 4406 
Q 909 4659 1266 4659 
Q 1628 4659 1881 4406 
Q 2134 4153 2134 3794 
Q 2134 3434 1879 3179 
Q 1625 2925 1266 2925 
Q 909 2925 654 3178 
Q 400 3431 400 3794 
z
M 741 3794 
Q 741 3575 895 3420 
Q 1050 3266 1269 3266 
Q 1484 3266 1639 3420 
Q 1794 3575 1794 3794 
Q 1794 4013 1639 4167 
Q 1484 4322 1269 4322 
Q 1050 4322 895 4167 
Q 741 4013 741 3794 
z
" transform="scale(0.015625)"/>
       </defs>
       <use xlink:href="#ArialMT-30"/>
       <use xlink:href="#ArialMT-b0" x="55.615234"/>
      </g>
     </g>
    </g>
    <g id="xtick_2">
     <g id="line2d_2">
      <path d="M 221.4 218.16 
L 339.006 100.554 
" clip-path="url(#pb359646507)" style="fill: none; stroke: #ffffff; stroke-linecap: round"/>
     </g>
     <g id="text_2">
      <!-- 45° -->
      <g style="fill: #262626" transform="translate(342.35709 91.73041) scale(0.11 -0.11)">
       <defs>
        <path id="ArialMT-34" d="M 2069 0 
L 2069 1097 
L 81 1097 
L 81 1613 
L 2172 4581 
L 2631 4581 
L 2631 1613 
L 3250 1613 
L 3250 1097 
L 2631 1097 
L 2631 0 
L 2069 0 
z
M 2069 1613 
L 2069 3678 
L 634 1613 
L 2069 1613 
z
" transform="scale(0.015625)"/>
        <path id="ArialMT-35" d="M 266 1200 
L 856 1250 
Q 922 819 1161 601 
Q 1400 384 1738 384 
Q 2144 384 2425 690 
Q 2706 997 2706 1503 
Q 2706 1984 2436 2262 
Q 2166 2541 1728 2541 
Q 1456 2541 1237 2417 
Q 1019 2294 894 2097 
L 366 2166 
L 809 4519 
L 3088 4519 
L 3088 3981 
L 1259 3981 
L 1013 2750 
Q 1425 3038 1878 3038 
Q 2478 3038 2890 2622 
Q 3303 2206 3303 1553 
Q 3303 931 2941 478 
Q 2500 -78 1738 -78 
Q 1113 -78 717 272 
Q 322 622 266 1200 
z
" transform="scale(0.015625)"/>
       </defs>
       <use xlink:href="#ArialMT-34"/>
       <use xlink:href="#ArialMT-35" x="55.615234"/>
       <use xlink:href="#ArialMT-b0" x="111.230469"/>
      </g>
     </g>
    </g>
    <g id="xtick_3">
     <g id="line2d_3">
      <path d="M 221.4 218.16 
L 387.72 218.16 
" clip-path="url(#pb359646507)" style="fill: none; stroke: #ffffff; stroke-linecap: round"/>
     </g>
     <g id="text_3">
      <!-- 90° -->
      <g style="fill: #262626" transform="translate(395.903828 221.003672) scale(0.11 -0.11)">
       <defs>
        <path id="ArialMT-39" d="M 350 1059 
L 891 1109 
Q 959 728 1153 556 
Q 1347 384 1650 384 
Q 1909 384 2104 503 
Q 2300 622 2425 820 
Q 2550 1019 2634 1356 
Q 2719 1694 2719 2044 
Q 2719 2081 2716 2156 
Q 2547 1888 2255 1720 
Q 1963 1553 1622 1553 
Q 1053 1553 659 1965 
Q 266 2378 266 3053 
Q 266 3750 677 4175 
Q 1088 4600 1706 4600 
Q 2153 4600 2523 4359 
Q 2894 4119 3086 3673 
Q 3278 3228 3278 2384 
Q 3278 1506 3087 986 
Q 2897 466 2520 194 
Q 2144 -78 1638 -78 
Q 1100 -78 759 220 
Q 419 519 350 1059 
z
M 2653 3081 
Q 2653 3566 2395 3850 
Q 2138 4134 1775 4134 
Q 1400 4134 1122 3828 
Q 844 3522 844 3034 
Q 844 2597 1108 2323 
Q 1372 2050 1759 2050 
Q 2150 2050 2401 2323 
Q 2653 2597 2653 3081 
z
" transform="scale(0.015625)"/>
       </defs>
       <use xlink:href="#ArialMT-39"/>
       <use xlink:href="#ArialMT-30" x="55.615234"/>
       <use xlink:href="#ArialMT-b0" x="111.230469"/>
      </g>
     </g>
    </g>
    <g id="xtick_4">
     <g id="line2d_4">
      <path d="M 221.4 218.16 
L 339.006 335.766 
" clip-path="url(#pb359646507)" style="fill: none; stroke: #ffffff; stroke-linecap: round"/>
     </g>
     <g id="text_4">
      <!-- 135° -->
      <g style="fill: #262626" transform="translate(339.298574 350.276934) scale(0.11 -0.11)">
       <defs>
        <path id="ArialMT-31" d="M 2384 0 
L 1822 0 
L 1822 3584 
Q 1619 3391 1289 3197 
Q 959 3003 697 2906 
L 697 3450 
Q 1169 3672 1522 3987 
Q 1875 4303 2022 4600 
L 2384 4600 
L 2384 0 
z
" transform="scale(0.015625)"/>
        <path id="ArialMT-33" d="M 269 1209 
L 831 1284 
Q 928 806 1161 595 
Q 1394 384 1728 384 
Q 2125 384 2398 659 
Q 2672 934 2672 1341 
Q 2672 1728 2419 1979 
Q 2166 2231 1775 2231 
Q 1616 2231 1378 2169 
L 1441 2663 
Q 1497 2656 1531 2656 
Q 1891 2656 2178 2843 
Q 2466 3031 2466 3422 
Q 2466 3731 2256 3934 
Q 2047 4138 1716 4138 
Q 1388 4138 1169 3931 
Q 950 3725 888 3313 
L 325 3413 
Q 428 3978 793 4289 
Q 1159 4600 1703 4600 
Q 2078 4600 2393 4439 
Q 2709 4278 2876 4000 
Q 3044 3722 3044 3409 
Q 3044 3113 2884 2869 
Q 2725 2625 2413 2481 
Q 2819 2388 3044 2092 
Q 3269 1797 3269 1353 
Q 3269 753 2831 336 
Q 2394 -81 1725 -81 
Q 1122 -81 723 278 
Q 325 638 269 1209 
z
" transform="scale(0.015625)"/>
       </defs>
       <use xlink:href="#ArialMT-31"/>
       <use xlink:href="#ArialMT-33" x="55.615234"/>
       <use xlink:href="#ArialMT-35" x="111.230469"/>
       <use xlink:href="#ArialMT-b0" x="166.845703"/>
      </g>
     </g>
    </g>
    <g id="xtick_5">
     <g id="line2d_5">
      <path d="M 221.4 218.16 
L 221.4 384.48 
" clip-path="url(#pb359646507)" style="fill: none; stroke: #ffffff; stroke-linecap: round"/>
     </g>
     <g id="text_5">
      <!-- 180° -->
      <g style="fill: #262626" transform="translate(210.025312 403.823672) scale(0.11 -0.11)">
       <defs>
        <path id="ArialMT-38" d="M 1131 2484 
Q 781 2613 612 2850 
Q 444 3088 444 3419 
Q 444 3919 803 4259 
Q 1163 4600 1759 4600 
Q 2359 4600 2725 4251 
Q 3091 3903 3091 3403 
Q 3091 3084 2923 2848 
Q 2756 2613 2416 2484 
Q 2838 2347 3058 2040 
Q 3278 1734 3278 1309 
Q 3278 722 2862 322 
Q 2447 -78 1769 -78 
Q 1091 -78 675 323 
Q 259 725 259 1325 
Q 259 1772 486 2073 
Q 713 2375 1131 2484 
z
M 1019 3438 
Q 1019 3113 1228 2906 
Q 1438 2700 1772 2700 
Q 2097 2700 2305 2904 
Q 2513 3109 2513 3406 
Q 2513 3716 2298 3927 
Q 2084 4138 1766 4138 
Q 1444 4138 1231 3931 
Q 1019 3725 1019 3438 
z
M 838 1322 
Q 838 1081 952 856 
Q 1066 631 1291 507 
Q 1516 384 1775 384 
Q 2178 384 2440 643 
Q 2703 903 2703 1303 
Q 2703 1709 2433 1975 
Q 2163 2241 1756 2241 
Q 1359 2241 1098 1978 
Q 838 1716 838 1322 
z
" transform="scale(0.015625)"/>
       </defs>
       <use xlink:href="#ArialMT-31"/>
       <use xlink:href="#ArialMT-38" x="55.615234"/>
       <use xlink:href="#ArialMT-30" x="111.230469"/>
       <use xlink:href="#ArialMT-b0" x="166.845703"/>
      </g>
     </g>
    </g>
    <g id="xtick_6">
     <g id="line2d_6">
      <path d="M 221.4 218.16 
L 103.794 335.766 
" clip-path="url(#pb359646507)" style="fill: none; stroke: #ffffff; stroke-linecap: round"/>
     </g>
     <g id="text_6">
      <!-- 225° -->
      <g style="fill: #262626" transform="translate(80.752051 350.276934) scale(0.11 -0.11)">
       <defs>
        <path id="ArialMT-32" d="M 3222 541 
L 3222 0 
L 194 0 
Q 188 203 259 391 
Q 375 700 629 1000 
Q 884 1300 1366 1694 
Q 2113 2306 2375 2664 
Q 2638 3022 2638 3341 
Q 2638 3675 2398 3904 
Q 2159 4134 1775 4134 
Q 1369 4134 1125 3890 
Q 881 3647 878 3216 
L 300 3275 
Q 359 3922 746 4261 
Q 1134 4600 1788 4600 
Q 2447 4600 2831 4234 
Q 3216 3869 3216 3328 
Q 3216 3053 3103 2787 
Q 2991 2522 2730 2228 
Q 2469 1934 1863 1422 
Q 1356 997 1212 845 
Q 1069 694 975 541 
L 3222 541 
z
" transform="scale(0.015625)"/>
       </defs>
       <use xlink:href="#ArialMT-32"/>
       <use xlink:href="#ArialMT-32" x="55.615234"/>
       <use xlink:href="#ArialMT-35" x="111.230469"/>
       <use xlink:href="#ArialMT-b0" x="166.845703"/>
      </g>
     </g>
    </g>
    <g id="xtick_7">
     <g id="line2d_7">
      <path d="M 221.4 218.16 
L 55.08 218.16 
" clip-path="url(#pb359646507)" style="fill: none; stroke: #ffffff; stroke-linecap: round"/>
     </g>
     <g id="text_7">
      <!-- 270° -->
      <g style="fill: #262626" transform="translate(27.205312 221.003672) scale(0.11 -0.11)">
       <defs>
        <path id="ArialMT-37" d="M 303 3981 
L 303 4522 
L 3269 4522 
L 3269 4084 
Q 2831 3619 2401 2847 
Q 1972 2075 1738 1259 
Q 1569 684 1522 0 
L 944 0 
Q 953 541 1156 1306 
Q 1359 2072 1739 2783 
Q 2119 3494 2547 3981 
L 303 3981 
z
" transform="scale(0.015625)"/>
       </defs>
       <use xlink:href="#ArialMT-32"/>
       <use xlink:href="#ArialMT-37" x="55.615234"/>
       <use xlink:href="#ArialMT-30" x="111.230469"/>
       <use xlink:href="#ArialMT-b0" x="166.845703"/>
      </g>
     </g>
    </g>
    <g id="xtick_8">
     <g id="line2d_8">
      <path d="M 221.4 218.16 
L 103.794 100.554 
" clip-path="url(#pb359646507)" style="fill: none; stroke: #ffffff; stroke-linecap: round"/>
     </g>
     <g id="text_8">
      <!-- 315° -->
      <g style="fill: #262626" transform="translate(80.752051 91.73041) scale(0.11 -0.11)">
       <use xlink:href="#ArialMT-33"/>
       <use xlink:href="#ArialMT-31" x="55.615234"/>
       <use xlink:href="#ArialMT-35" x="111.230469"/>
       <use xlink:href="#ArialMT-b0" x="166.845703"/>
      </g>
     </g>
    </g>
   </g>
   <g id="matplotlib.axis_2">
    <g id="ytick_1">
     <g id="line2d_9">
      <path d="M 221.4 218.16 
C 221.4 218.16 221.4 218.16 221.4 218.16 
C 221.4 218.16 221.4 218.16 221.4 218.16 
C 221.4 218.16 221.4 218.16 221.4 218.16 
C 221.4 218.16 221.4 218.16 221.4 218.16 
C 221.4 218.16 221.4 218.16 221.4 218.16 
C 221.4 218.16 221.4 218.16 221.4 218.16 
C 221.4 218.16 221.4 218.16 221.4 218.16 
C 221.4 218.16 221.4 218.16 221.4 218.16 
C 221.4 218.16 221.4 218.16 221.4 218.16 
C 221.4 218.16 221.4 218.16 221.4 218.16 
C 221.4 218.16 221.4 218.16 221.4 218.16 
C 221.4 218.16 221.4 218.16 221.4 218.16 
C 221.4 218.16 221.4 218.16 221.4 218.16 
C 221.4 218.16 221.4 218.16 221.4 218.16 
C 221.4 218.16 221.4 218.16 221.4 218.16 
C 221.4 218.16 221.4 218.16 221.4 218.16 
" clip-path="url(#pb359646507)" style="fill: none; stroke: #ffffff; stroke-linecap: round"/>
     </g>
     <g id="text_9">
      <!-- 0.0 -->
      <g style="fill: #dc143c" transform="translate(221.4 215.97375) scale(0.11 -0.11)">
       <defs>
        <path id="ArialMT-2e" d="M 581 0 
L 581 641 
L 1222 641 
L 1222 0 
L 581 0 
z
" transform="scale(0.015625)"/>
       </defs>
       <use xlink:href="#ArialMT-30"/>
       <use xlink:href="#ArialMT-2e" x="55.615234"/>
       <use xlink:href="#ArialMT-30" x="83.398438"/>
      </g>
     </g>
    </g>
    <g id="ytick_2">
     <g id="line2d_10">
      <path d="M 221.4 203.04 
C 223.38554 203.04 225.351774 203.431108 227.186173 204.190941 
C 229.020573 204.950775 230.687466 206.064557 232.091455 207.468545 
C 233.495443 208.872534 234.609225 210.539427 235.369059 212.373827 
C 236.128892 214.208226 236.52 216.17446 236.52 218.16 
C 236.52 220.14554 236.128892 222.111774 235.369059 223.946173 
C 234.609225 225.780573 233.495443 227.447466 232.091455 228.851455 
C 230.687466 230.255443 229.020573 231.369225 227.186173 232.129059 
C 225.351774 232.888892 223.38554 233.28 221.4 233.28 
C 219.41446 233.28 217.448226 232.888892 215.613827 232.129059 
C 213.779427 231.369225 212.112534 230.255443 210.708545 228.851455 
C 209.304557 227.447466 208.190775 225.780573 207.430941 223.946173 
C 206.671108 222.111774 206.28 220.14554 206.28 218.16 
C 206.28 216.17446 206.671108 214.208226 207.430941 212.373827 
C 208.190775 210.539427 209.304557 208.872534 210.708545 207.468545 
C 212.112534 206.064557 213.779427 204.950775 215.613827 204.190941 
C 217.448226 203.431108 219.41446 203.04 221.4 203.04 
" clip-path="url(#pb359646507)" style="fill: none; stroke: #ffffff; stroke-linecap: round"/>
     </g>
     <g id="text_10">
      <!-- 0.1 -->
      <g style="fill: #dc143c" transform="translate(227.186173 202.004691) scale(0.11 -0.11)">
       <use xlink:href="#ArialMT-30"/>
       <use xlink:href="#ArialMT-2e" x="55.615234"/>
       <use xlink:href="#ArialMT-31" x="83.398438"/>
      </g>
     </g>
    </g>
    <g id="ytick_3">
     <g id="line2d_11">
      <path d="M 221.4 187.92 
C 225.37108 187.92 229.303547 188.702216 232.972347 190.221883 
C 236.641147 191.74155 239.974931 193.969113 242.782909 196.777091 
C 245.590887 199.585069 247.81845 202.918853 249.338117 206.587653 
C 250.857784 210.256453 251.64 214.18892 251.64 218.16 
C 251.64 222.13108 250.857784 226.063547 249.338117 229.732347 
C 247.81845 233.401147 245.590887 236.734931 242.782909 239.542909 
C 239.974931 242.350887 236.641147 244.57845 232.972347 246.098117 
C 229.303547 247.617784 225.37108 248.4 221.4 248.4 
C 217.42892 248.4 213.496453 247.617784 209.827653 246.098117 
C 206.158853 244.57845 202.825069 242.350887 200.017091 239.542909 
C 197.209113 236.734931 194.98155 233.401147 193.461883 229.732347 
C 191.942216 226.063547 191.16 222.13108 191.16 218.16 
C 191.16 214.18892 191.942216 210.256453 193.461883 206.587653 
C 194.98155 202.918853 197.209113 199.585069 200.017091 196.777091 
C 202.825069 193.969113 206.158853 191.74155 209.827653 190.221883 
C 213.496453 188.702216 217.42892 187.92 221.4 187.92 
" clip-path="url(#pb359646507)" style="fill: none; stroke: #ffffff; stroke-linecap: round"/>
     </g>
     <g id="text_11">
      <!-- 0.2 -->
      <g style="fill: #dc143c" transform="translate(232.972347 188.035633) scale(0.11 -0.11)">
       <use xlink:href="#ArialMT-30"/>
       <use xlink:href="#ArialMT-2e" x="55.615234"/>
       <use xlink:href="#ArialMT-32" x="83.398438"/>
      </g>
     </g>
    </g>
    <g id="ytick_4">
     <g id="line2d_12">
      <path d="M 221.4 172.8 
C 227.356621 172.8 233.255321 173.973324 238.75852 176.252824 
C 244.26172 178.532324 249.262397 181.87367 253.474364 186.085636 
C 257.68633 190.297603 261.027676 195.29828 263.307176 200.80148 
C 265.586676 206.304679 266.76 212.203379 266.76 218.16 
C 266.76 224.116621 265.586676 230.015321 263.307176 235.51852 
C 261.027676 241.02172 257.68633 246.022397 253.474364 250.234364 
C 249.262397 254.44633 244.26172 257.787676 238.75852 260.067176 
C 233.255321 262.346676 227.356621 263.52 221.4 263.52 
C 215.443379 263.52 209.544679 262.346676 204.04148 260.067176 
C 198.53828 257.787676 193.537603 254.44633 189.325636 250.234364 
C 185.11367 246.022397 181.772324 241.02172 179.492824 235.51852 
C 177.213324 230.015321 176.04 224.116621 176.04 218.16 
C 176.04 212.203379 177.213324 206.304679 179.492824 200.80148 
C 181.772324 195.29828 185.11367 190.297603 189.325636 186.085636 
C 193.537603 181.87367 198.53828 178.532324 204.04148 176.252824 
C 209.544679 173.973324 215.443379 172.8 221.4 172.8 
" clip-path="url(#pb359646507)" style="fill: none; stroke: #ffffff; stroke-linecap: round"/>
     </g>
     <g id="text_12">
      <!-- 0.3 -->
      <g style="fill: #dc143c" transform="translate(238.75852 174.066574) scale(0.11 -0.11)">
       <use xlink:href="#ArialMT-30"/>
       <use xlink:href="#ArialMT-2e" x="55.615234"/>
       <use xlink:href="#ArialMT-33" x="83.398438"/>
      </g>
     </g>
    </g>
    <g id="ytick_5">
     <g id="line2d_13">
      <path d="M 221.4 157.68 
C 229.342161 157.68 237.207094 159.244433 244.544694 162.283766 
C 251.882294 165.323099 258.549862 169.778226 264.165818 175.394182 
C 269.781774 181.010138 274.236901 187.677706 277.276234 195.015306 
C 280.315567 202.352906 281.88 210.217839 281.88 218.16 
C 281.88 226.102161 280.315567 233.967094 277.276234 241.304694 
C 274.236901 248.642294 269.781774 255.309862 264.165818 260.925818 
C 258.549862 266.541774 251.882294 270.996901 244.544694 274.036234 
C 237.207094 277.075567 229.342161 278.64 221.4 278.64 
C 213.457839 278.64 205.592906 277.075567 198.255306 274.036234 
C 190.917706 270.996901 184.250138 266.541774 178.634182 260.925818 
C 173.018226 255.309862 168.563099 248.642294 165.523766 241.304694 
C 162.484433 233.967094 160.92 226.102161 160.92 218.16 
C 160.92 210.217839 162.484433 202.352906 165.523766 195.015306 
C 168.563099 187.677706 173.018226 181.010138 178.634182 175.394182 
C 184.250138 169.778226 190.917706 165.323099 198.255306 162.283766 
C 205.592906 159.244433 213.457839 157.68 221.4 157.68 
" clip-path="url(#pb359646507)" style="fill: none; stroke: #ffffff; stroke-linecap: round"/>
     </g>
     <g id="text_13">
      <!-- 0.4 -->
      <g style="fill: #dc143c" transform="translate(244.544694 160.097516) scale(0.11 -0.11)">
       <use xlink:href="#ArialMT-30"/>
       <use xlink:href="#ArialMT-2e" x="55.615234"/>
       <use xlink:href="#ArialMT-34" x="83.398438"/>
      </g>
     </g>
    </g>
    <g id="ytick_6">
     <g id="line2d_14">
      <path d="M 221.4 142.56 
C 231.327701 142.56 241.158868 144.515541 250.330867 148.314707 
C 259.502867 152.113874 267.837328 157.682783 274.857273 164.702727 
C 281.877217 171.722672 287.446126 180.057133 291.245293 189.229133 
C 295.044459 198.401132 297 208.232299 297 218.16 
C 297 228.087701 295.044459 237.918868 291.245293 247.090867 
C 287.446126 256.262867 281.877217 264.597328 274.857273 271.617273 
C 267.837328 278.637217 259.502867 284.206126 250.330867 288.005293 
C 241.158868 291.804459 231.327701 293.76 221.4 293.76 
C 211.472299 293.76 201.641132 291.804459 192.469133 288.005293 
C 183.297133 284.206126 174.962672 278.637217 167.942727 271.617273 
C 160.922783 264.597328 155.353874 256.262867 151.554707 247.090867 
C 147.755541 237.918868 145.8 228.087701 145.8 218.16 
C 145.8 208.232299 147.755541 198.401132 151.554707 189.229133 
C 155.353874 180.057133 160.922783 171.722672 167.942727 164.702727 
C 174.962672 157.682783 183.297133 152.113874 192.469133 148.314707 
C 201.641132 144.515541 211.472299 142.56 221.4 142.56 
" clip-path="url(#pb359646507)" style="fill: none; stroke: #ffffff; stroke-linecap: round"/>
     </g>
     <g id="text_14">
      <!-- 0.5 -->
      <g style="fill: #dc143c" transform="translate(250.330867 146.128457) scale(0.11 -0.11)">
       <use xlink:href="#ArialMT-30"/>
       <use xlink:href="#ArialMT-2e" x="55.615234"/>
       <use xlink:href="#ArialMT-35" x="83.398438"/>
      </g>
     </g>
    </g>
    <g id="ytick_7">
     <g id="line2d_15">
      <path d="M 221.4 127.44 
C 233.313241 127.44 245.110641 129.786649 256.117041 134.345649 
C 267.123441 138.904649 277.124794 145.587339 285.548727 154.011273 
C 293.972661 162.435206 300.655351 172.436559 305.214351 183.442959 
C 309.773351 194.449359 312.12 206.246759 312.12 218.16 
C 312.12 230.073241 309.773351 241.870641 305.214351 252.877041 
C 300.655351 263.883441 293.972661 273.884794 285.548727 282.308727 
C 277.124794 290.732661 267.123441 297.415351 256.117041 301.974351 
C 245.110641 306.533351 233.313241 308.88 221.4 308.88 
C 209.486759 308.88 197.689359 306.533351 186.682959 301.974351 
C 175.676559 297.415351 165.675206 290.732661 157.251273 282.308727 
C 148.827339 273.884794 142.144649 263.883441 137.585649 252.877041 
C 133.026649 241.870641 130.68 230.073241 130.68 218.16 
C 130.68 206.246759 133.026649 194.449359 137.585649 183.442959 
C 142.144649 172.436559 148.827339 162.435206 157.251273 154.011273 
C 165.675206 145.587339 175.676559 138.904649 186.682959 134.345649 
C 197.689359 129.786649 209.486759 127.44 221.4 127.44 
" clip-path="url(#pb359646507)" style="fill: none; stroke: #ffffff; stroke-linecap: round"/>
     </g>
     <g id="text_15">
      <!-- 0.6 -->
      <g style="fill: #dc143c" transform="translate(256.117041 132.159399) scale(0.11 -0.11)">
       <defs>
        <path id="ArialMT-36" d="M 3184 3459 
L 2625 3416 
Q 2550 3747 2413 3897 
Q 2184 4138 1850 4138 
Q 1581 4138 1378 3988 
Q 1113 3794 959 3422 
Q 806 3050 800 2363 
Q 1003 2672 1297 2822 
Q 1591 2972 1913 2972 
Q 2475 2972 2870 2558 
Q 3266 2144 3266 1488 
Q 3266 1056 3080 686 
Q 2894 316 2569 119 
Q 2244 -78 1831 -78 
Q 1128 -78 684 439 
Q 241 956 241 2144 
Q 241 3472 731 4075 
Q 1159 4600 1884 4600 
Q 2425 4600 2770 4297 
Q 3116 3994 3184 3459 
z
M 888 1484 
Q 888 1194 1011 928 
Q 1134 663 1356 523 
Q 1578 384 1822 384 
Q 2178 384 2434 671 
Q 2691 959 2691 1453 
Q 2691 1928 2437 2201 
Q 2184 2475 1800 2475 
Q 1419 2475 1153 2201 
Q 888 1928 888 1484 
z
" transform="scale(0.015625)"/>
       </defs>
       <use xlink:href="#ArialMT-30"/>
       <use xlink:href="#ArialMT-2e" x="55.615234"/>
       <use xlink:href="#ArialMT-36" x="83.398438"/>
      </g>
     </g>
    </g>
    <g id="ytick_8">
     <g id="line2d_16">
      <path d="M 221.4 112.32 
C 235.298781 112.32 249.062415 115.057757 261.903214 120.37659 
C 274.744014 125.695424 286.412259 133.491896 296.240182 143.319818 
C 306.068104 153.147741 313.864576 164.815986 319.18341 177.656786 
C 324.502243 190.497585 327.24 204.261219 327.24 218.16 
C 327.24 232.058781 324.502243 245.822415 319.18341 258.663214 
C 313.864576 271.504014 306.068104 283.172259 296.240182 293.000182 
C 286.412259 302.828104 274.744014 310.624576 261.903214 315.94341 
C 249.062415 321.262243 235.298781 324 221.4 324 
C 207.501219 324 193.737585 321.262243 180.896786 315.94341 
C 168.055986 310.624576 156.387741 302.828104 146.559818 293.000182 
C 136.731896 283.172259 128.935424 271.504014 123.61659 258.663214 
C 118.297757 245.822415 115.56 232.058781 115.56 218.16 
C 115.56 204.261219 118.297757 190.497585 123.61659 177.656786 
C 128.935424 164.815986 136.731896 153.147741 146.559818 143.319818 
C 156.387741 133.491896 168.055986 125.695424 180.896786 120.37659 
C 193.737585 115.057757 207.501219 112.32 221.4 112.32 
" clip-path="url(#pb359646507)" style="fill: none; stroke: #ffffff; stroke-linecap: round"/>
     </g>
     <g id="text_16">
      <!-- 0.7 -->
      <g style="fill: #dc143c" transform="translate(261.903214 118.19034) scale(0.11 -0.11)">
       <use xlink:href="#ArialMT-30"/>
       <use xlink:href="#ArialMT-2e" x="55.615234"/>
       <use xlink:href="#ArialMT-37" x="83.398438"/>
      </g>
     </g>
    </g>
    <g id="ytick_9">
     <g id="line2d_17">
      <path d="M 221.4 97.2 
C 237.284322 97.2 253.014188 100.328865 267.689388 106.407532 
C 282.364588 112.486198 295.699725 121.396452 306.931636 132.628364 
C 318.163548 143.860275 327.073802 157.195412 333.152468 171.870612 
C 339.231135 186.545812 342.36 202.275678 342.36 218.16 
C 342.36 234.044322 339.231135 249.774188 333.152468 264.449388 
C 327.073802 279.124588 318.163548 292.459725 306.931636 303.691636 
C 295.699725 314.923548 282.364588 323.833802 267.689388 329.912468 
C 253.014188 335.991135 237.284322 339.12 221.4 339.12 
C 205.515678 339.12 189.785812 335.991135 175.110612 329.912468 
C 160.435412 323.833802 147.100275 314.923548 135.868364 303.691636 
C 124.636452 292.459725 115.726198 279.124588 109.647532 264.449388 
C 103.568865 249.774188 100.44 234.044322 100.44 218.16 
C 100.44 202.275678 103.568865 186.545812 109.647532 171.870612 
C 115.726198 157.195412 124.636452 143.860275 135.868364 132.628364 
C 147.100275 121.396452 160.435412 112.486198 175.110612 106.407532 
C 189.785812 100.328865 205.515678 97.2 221.4 97.2 
" clip-path="url(#pb359646507)" style="fill: none; stroke: #ffffff; stroke-linecap: round"/>
     </g>
     <g id="text_17">
      <!-- 0.8 -->
      <g style="fill: #dc143c" transform="translate(267.689388 104.221282) scale(0.11 -0.11)">
       <use xlink:href="#ArialMT-30"/>
       <use xlink:href="#ArialMT-2e" x="55.615234"/>
       <use xlink:href="#ArialMT-38" x="83.398438"/>
      </g>
     </g>
    </g>
    <g id="ytick_10">
     <g id="line2d_18">
      <path d="M 221.4 82.08 
C 239.269862 82.08 256.965962 85.599973 273.475561 92.438473 
C 289.985161 99.276973 304.98719 109.301009 317.623091 121.936909 
C 330.258991 134.57281 340.283027 149.574839 347.121527 166.084439 
C 353.960027 182.594038 357.48 200.290138 357.48 218.16 
C 357.48 236.029862 353.960027 253.725962 347.121527 270.235561 
C 340.283027 286.745161 330.258991 301.74719 317.623091 314.383091 
C 304.98719 327.018991 289.985161 337.043027 273.475561 343.881527 
C 256.965962 350.720027 239.269862 354.24 221.4 354.24 
C 203.530138 354.24 185.834038 350.720027 169.324439 343.881527 
C 152.814839 337.043027 137.81281 327.018991 125.176909 314.383091 
C 112.541009 301.74719 102.516973 286.745161 95.678473 270.235561 
C 88.839973 253.725962 85.32 236.029862 85.32 218.16 
C 85.32 200.290138 88.839973 182.594038 95.678473 166.084439 
C 102.516973 149.574839 112.541009 134.57281 125.176909 121.936909 
C 137.81281 109.301009 152.814839 99.276973 169.324439 92.438473 
C 185.834038 85.599973 203.530138 82.08 221.4 82.08 
" clip-path="url(#pb359646507)" style="fill: none; stroke: #ffffff; stroke-linecap: round"/>
     </g>
     <g id="text_18">
      <!-- 0.9 -->
      <g style="fill: #dc143c" transform="translate(273.475561 90.252223) scale(0.11 -0.11)">
       <use xlink:href="#ArialMT-30"/>
       <use xlink:href="#ArialMT-2e" x="55.615234"/>
       <use xlink:href="#ArialMT-39" x="83.398438"/>
      </g>
     </g>
    </g>
    <g id="ytick_11">
     <g id="line2d_19">
      <path d="M 221.4 66.96 
C 241.255402 66.96 260.917735 70.871081 279.261735 78.469415 
C 297.605735 86.067748 314.274656 97.205565 328.314545 111.245455 
C 342.354435 125.285344 353.492252 141.954265 361.090585 160.298265 
C 368.688919 178.642265 372.6 198.304598 372.6 218.16 
C 372.6 238.015402 368.688919 257.677735 361.090585 276.021735 
C 353.492252 294.365735 342.354435 311.034656 328.314545 325.074545 
C 314.274656 339.114435 297.605735 350.252252 279.261735 357.850585 
C 260.917735 365.448919 241.255402 369.36 221.4 369.36 
C 201.544598 369.36 181.882265 365.448919 163.538265 357.850585 
C 145.194265 350.252252 128.525344 339.114435 114.485455 325.074545 
C 100.445565 311.034656 89.307748 294.365735 81.709415 276.021735 
C 74.111081 257.677735 70.2 238.015402 70.2 218.16 
C 70.2 198.304598 74.111081 178.642265 81.709415 160.298265 
C 89.307748 141.954265 100.445565 125.285344 114.485455 111.245455 
C 128.525344 97.205565 145.194265 86.067748 163.538265 78.469415 
C 181.882265 70.871081 201.544598 66.96 221.4 66.96 
" clip-path="url(#pb359646507)" style="fill: none; stroke: #ffffff; stroke-linecap: round"/>
     </g>
     <g id="text_19">
      <!-- 1.0 -->
      <g style="fill: #dc143c" transform="translate(279.261735 76.283165) scale(0.11 -0.11)">
       <use xlink:href="#ArialMT-31"/>
       <use xlink:href="#ArialMT-2e" x="55.615234"/>
       <use xlink:href="#ArialMT-30" x="83.398438"/>
      </g>
     </g>
    </g>
   </g>
   <g id="line2d_20">
    <defs>
     <path id="m3712d37c98" d="M 0 0.5 
C 0.132602 0.5 0.25979 0.447317 0.353553 0.353553 
C 0.447317 0.25979 0.5 0.132602 0.5 0 
C 0.5 -0.132602 0.447317 -0.25979 0.353553 -0.353553 
C 0.25979 -0.447317 0.132602 -0.5 0 -0.5 
C -0.132602 -0.5 -0.25979 -0.447317 -0.353553 -0.353553 
C -0.447317 -0.25979 -0.5 -0.132602 -0.5 0 
C -0.5 0.132602 -0.447317 0.25979 -0.353553 0.353553 
C -0.25979 0.447317 -0.132602 0.5 0 0.5 
z
" style="stroke: #000000"/>
    </defs>
    <g clip-path="url(#pb359646507)">
     <use xlink:href="#m3712d37c98" x="223.323817" y="107.944601" style="stroke: #000000"/>
     <use xlink:href="#m3712d37c98" x="225.228812" y="108.517183" style="stroke: #000000"/>
     <use xlink:href="#m3712d37c98" x="227.141759" y="108.600704" style="stroke: #000000"/>
     <use xlink:href="#m3712d37c98" x="229.052958" y="108.717598" style="stroke: #000000"/>
     <use xlink:href="#m3712d37c98" x="231.052779" y="107.828234" style="stroke: #000000"/>
     <use xlink:href="#m3712d37c98" x="233.139317" y="106.467857" style="stroke: #000000"/>
     <use xlink:href="#m3712d37c98" x="235.023871" y="107.202475" style="stroke: #000000"/>
     <use xlink:href="#m3712d37c98" x="236.886173" y="107.970151" style="stroke: #000000"/>
     <use xlink:href="#m3712d37c98" x="238.806893" y="108.257204" style="stroke: #000000"/>
     <use xlink:href="#m3712d37c98" x="240.632094" y="109.089374" style="stroke: #000000"/>
     <use xlink:href="#m3712d37c98" x="242.631841" y="108.931646" style="stroke: #000000"/>
     <use xlink:href="#m3712d37c98" x="244.534905" y="109.318829" style="stroke: #000000"/>
     <use xlink:href="#m3712d37c98" x="246.430922" y="109.739166" style="stroke: #000000"/>
     <use xlink:href="#m3712d37c98" x="247.941166" y="111.709196" style="stroke: #000000"/>
     <use xlink:href="#m3712d37c98" x="249.659309" y="112.694821" style="stroke: #000000"/>
     <use xlink:href="#m3712d37c98" x="251.784109" y="112.198021" style="stroke: #000000"/>
     <use xlink:href="#m3712d37c98" x="253.475997" y="113.244141" style="stroke: #000000"/>
     <use xlink:href="#m3712d37c98" x="255.463619" y="113.32296" style="stroke: #000000"/>
     <use xlink:href="#m3712d37c98" x="257.28809" y="113.933419" style="stroke: #000000"/>
     <use xlink:href="#m3712d37c98" x="259.279831" y="114.08602" style="stroke: #000000"/>
     <use xlink:href="#m3712d37c98" x="261.276586" y="114.277941" style="stroke: #000000"/>
     <use xlink:href="#m3712d37c98" x="260.709968" y="120.864415" style="stroke: #000000"/>
     <use xlink:href="#m3712d37c98" x="263.029263" y="120.087602" style="stroke: #000000"/>
     <use xlink:href="#m3712d37c98" x="265.166543" y="119.858735" style="stroke: #000000"/>
     <use xlink:href="#m3712d37c98" x="267.098914" y="120.158363" style="stroke: #000000"/>
     <use xlink:href="#m3712d37c98" x="268.802318" y="120.970846" style="stroke: #000000"/>
     <use xlink:href="#m3712d37c98" x="271.207138" y="120.407987" style="stroke: #000000"/>
     <use xlink:href="#m3712d37c98" x="272.90556" y="121.292129" style="stroke: #000000"/>
     <use xlink:href="#m3712d37c98" x="274.334223" y="122.664133" style="stroke: #000000"/>
     <use xlink:href="#m3712d37c98" x="276.516094" y="122.696125" style="stroke: #000000"/>
     <use xlink:href="#m3712d37c98" x="278.173774" y="123.672573" style="stroke: #000000"/>
     <use xlink:href="#m3712d37c98" x="280.090263" y="124.235946" style="stroke: #000000"/>
     <use xlink:href="#m3712d37c98" x="282.003482" y="124.838821" style="stroke: #000000"/>
     <use xlink:href="#m3712d37c98" x="284.201487" y="125.052967" style="stroke: #000000"/>
     <use xlink:href="#m3712d37c98" x="286.112325" y="125.741222" style="stroke: #000000"/>
     <use xlink:href="#m3712d37c98" x="288.318423" y="126.054692" style="stroke: #000000"/>
     <use xlink:href="#m3712d37c98" x="289.915691" y="127.236608" style="stroke: #000000"/>
     <use xlink:href="#m3712d37c98" x="291.806586" y="128.043679" style="stroke: #000000"/>
     <use xlink:href="#m3712d37c98" x="294.00892" y="128.495451" style="stroke: #000000"/>
     <use xlink:href="#m3712d37c98" x="295.888398" y="129.388185" style="stroke: #000000"/>
     <use xlink:href="#m3712d37c98" x="298.418196" y="129.560701" style="stroke: #000000"/>
     <use xlink:href="#m3712d37c98" x="300.622707" y="130.17427" style="stroke: #000000"/>
     <use xlink:href="#m3712d37c98" x="302.486299" y="131.20559" style="stroke: #000000"/>
     <use xlink:href="#m3712d37c98" x="305.368318" y="131.208262" style="stroke: #000000"/>
     <use xlink:href="#m3712d37c98" x="307.221215" y="132.338785" style="stroke: #000000"/>
     <use xlink:href="#m3712d37c98" x="300.318517" y="141.949274" style="stroke: #000000"/>
     <use xlink:href="#m3712d37c98" x="301.636558" y="143.338199" style="stroke: #000000"/>
     <use xlink:href="#m3712d37c98" x="302.930158" y="144.749916" style="stroke: #000000"/>
     <use xlink:href="#m3712d37c98" x="303.803409" y="146.527809" style="stroke: #000000"/>
     <use xlink:href="#m3712d37c98" x="304.638381" y="148.314705" style="stroke: #000000"/>
     <use xlink:href="#m3712d37c98" x="305.435001" y="150.109798" style="stroke: #000000"/>
     <use xlink:href="#m3712d37c98" x="306.609842" y="151.586775" style="stroke: #000000"/>
     <use xlink:href="#m3712d37c98" x="307.758727" y="153.084031" style="stroke: #000000"/>
     <use xlink:href="#m3712d37c98" x="309.732996" y="153.982322" style="stroke: #000000"/>
     <use xlink:href="#m3712d37c98" x="326.983654" y="141.448985" style="stroke: #000000"/>
     <use xlink:href="#m3712d37c98" x="310.839597" y="155.53372" style="stroke: #000000"/>
     <use xlink:href="#m3712d37c98" x="331.368729" y="141.159067" style="stroke: #000000"/>
     <use xlink:href="#m3712d37c98" x="311.483214" y="157.398105" style="stroke: #000000"/>
     <use xlink:href="#m3712d37c98" x="331.925498" y="143.609611" style="stroke: #000000"/>
     <use xlink:href="#m3712d37c98" x="312.970739" y="158.693267" style="stroke: #000000"/>
     <use xlink:href="#m3712d37c98" x="314.439059" y="160.022743" style="stroke: #000000"/>
     <use xlink:href="#m3712d37c98" x="315.439524" y="161.655354" style="stroke: #000000"/>
     <use xlink:href="#m3712d37c98" x="316.863875" y="163.043906" style="stroke: #000000"/>
     <use xlink:href="#m3712d37c98" x="318.266945" y="164.465775" style="stroke: #000000"/>
     <use xlink:href="#m3712d37c98" x="319.189285" y="166.164515" style="stroke: #000000"/>
     <use xlink:href="#m3712d37c98" x="320.081838" y="167.879092" style="stroke: #000000"/>
     <use xlink:href="#m3712d37c98" x="321.411283" y="169.381238" style="stroke: #000000"/>
     <use xlink:href="#m3712d37c98" x="322.247358" y="171.134105" style="stroke: #000000"/>
     <use xlink:href="#m3712d37c98" x="324.468479" y="172.270957" style="stroke: #000000"/>
     <use xlink:href="#m3712d37c98" x="325.726498" y="173.876029" style="stroke: #000000"/>
     <use xlink:href="#m3712d37c98" x="326.958418" y="175.511631" style="stroke: #000000"/>
     <use xlink:href="#m3712d37c98" x="322.350705" y="179.408655" style="stroke: #000000"/>
     <use xlink:href="#m3712d37c98" x="323.011633" y="181.17639" style="stroke: #000000"/>
     <use xlink:href="#m3712d37c98" x="324.140038" y="182.783768" style="stroke: #000000"/>
     <use xlink:href="#m3712d37c98" x="325.740077" y="184.257854" style="stroke: #000000"/>
     <use xlink:href="#m3712d37c98" x="325.814697" y="186.237224" style="stroke: #000000"/>
     <use xlink:href="#m3712d37c98" x="323.814712" y="188.793054" style="stroke: #000000"/>
     <use xlink:href="#m3712d37c98" x="325.848305" y="190.173161" style="stroke: #000000"/>
     <use xlink:href="#m3712d37c98" x="325.807829" y="192.128205" style="stroke: #000000"/>
     <use xlink:href="#m3712d37c98" x="326.761404" y="193.835403" style="stroke: #000000"/>
     <use xlink:href="#m3712d37c98" x="327.16988" y="195.677918" style="stroke: #000000"/>
     <use xlink:href="#m3712d37c98" x="327.546137" y="197.527281" style="stroke: #000000"/>
     <use xlink:href="#m3712d37c98" x="328.926813" y="199.200122" style="stroke: #000000"/>
     <use xlink:href="#m3712d37c98" x="329.241332" y="201.079611" style="stroke: #000000"/>
     <use xlink:href="#m3712d37c98" x="330.041962" y="202.891368" style="stroke: #000000"/>
     <use xlink:href="#m3712d37c98" x="330.29189" y="204.789757" style="stroke: #000000"/>
     <use xlink:href="#m3712d37c98" x="330.508648" y="206.692219" style="stroke: #000000"/>
     <use xlink:href="#m3712d37c98" x="331.731766" y="208.507221" style="stroke: #000000"/>
     <use xlink:href="#m3712d37c98" x="331.363667" y="210.470591" style="stroke: #000000"/>
     <use xlink:href="#m3712d37c98" x="332.520252" y="212.336434" style="stroke: #000000"/>
     <use xlink:href="#m3712d37c98" x="332.604963" y="214.276637" style="stroke: #000000"/>
     <use xlink:href="#m3712d37c98" x="332.136348" y="216.22709" style="stroke: #000000"/>
     <use xlink:href="#m3712d37c98" x="332.153216" y="218.16" style="stroke: #000000"/>
     <use xlink:href="#m3712d37c98" x="331.09294" y="220.074697" style="stroke: #000000"/>
     <use xlink:href="#m3712d37c98" x="331.565037" y="222.007048" style="stroke: #000000"/>
     <use xlink:href="#m3712d37c98" x="332.001432" y="223.956375" style="stroke: #000000"/>
     <use xlink:href="#m3712d37c98" x="331.883427" y="225.885754" style="stroke: #000000"/>
     <use xlink:href="#m3712d37c98" x="331.212721" y="227.767368" style="stroke: #000000"/>
     <use xlink:href="#m3712d37c98" x="332.063184" y="229.791169" style="stroke: #000000"/>
     <use xlink:href="#m3712d37c98" x="331.327678" y="231.657422" style="stroke: #000000"/>
     <use xlink:href="#m3712d37c98" x="331.075373" y="233.573868" style="stroke: #000000"/>
     <use xlink:href="#m3712d37c98" x="329.758941" y="235.32237" style="stroke: #000000"/>
     <use xlink:href="#m3712d37c98" x="329.957513" y="237.301618" style="stroke: #000000"/>
     <use xlink:href="#m3712d37c98" x="327.546137" y="238.792719" style="stroke: #000000"/>
     <use xlink:href="#m3712d37c98" x="327.16988" y="240.642082" style="stroke: #000000"/>
     <use xlink:href="#m3712d37c98" x="326.761404" y="242.484597" style="stroke: #000000"/>
     <use xlink:href="#m3712d37c98" x="326.832323" y="244.447231" style="stroke: #000000"/>
     <use xlink:href="#m3712d37c98" x="326.865179" y="246.419309" style="stroke: #000000"/>
     <use xlink:href="#m3712d37c98" x="326.355923" y="248.255627" style="stroke: #000000"/>
     <use xlink:href="#m3712d37c98" x="323.28659" y="249.309857" style="stroke: #000000"/>
     <use xlink:href="#m3712d37c98" x="323.73761" y="251.411505" style="stroke: #000000"/>
     <use xlink:href="#m3712d37c98" x="323.641611" y="253.36461" style="stroke: #000000"/>
     <use xlink:href="#m3712d37c98" x="323.50699" y="255.323905" style="stroke: #000000"/>
     <use xlink:href="#m3712d37c98" x="322.842839" y="257.100258" style="stroke: #000000"/>
     <use xlink:href="#m3712d37c98" x="322.635114" y="259.061641" style="stroke: #000000"/>
     <use xlink:href="#m3712d37c98" x="321.422048" y="260.61684" style="stroke: #000000"/>
     <use xlink:href="#m3712d37c98" x="321.624752" y="262.782934" style="stroke: #000000"/>
     <use xlink:href="#m3712d37c98" x="320.355748" y="264.303823" style="stroke: #000000"/>
     <use xlink:href="#m3712d37c98" x="320.944331" y="266.711014" style="stroke: #000000"/>
     <use xlink:href="#m3712d37c98" x="320.081838" y="268.440908" style="stroke: #000000"/>
     <use xlink:href="#m3712d37c98" x="319.189285" y="270.155485" style="stroke: #000000"/>
     <use xlink:href="#m3712d37c98" x="318.266945" y="271.854225" style="stroke: #000000"/>
     <use xlink:href="#m3712d37c98" x="317.315099" y="273.536608" style="stroke: #000000"/>
     <use xlink:href="#m3712d37c98" x="316.334035" y="275.202123" style="stroke: #000000"/>
     <use xlink:href="#m3712d37c98" x="315.324054" y="276.850263" style="stroke: #000000"/>
     <use xlink:href="#m3712d37c98" x="313.848491" y="278.196752" style="stroke: #000000"/>
     <use xlink:href="#m3712d37c98" x="313.218577" y="280.092412" style="stroke: #000000"/>
     <use xlink:href="#m3712d37c98" x="309.977238" y="280.18245" style="stroke: #000000"/>
     <use xlink:href="#m3712d37c98" x="308.453571" y="281.408121" style="stroke: #000000"/>
     <use xlink:href="#m3712d37c98" x="308.599487" y="283.869527" style="stroke: #000000"/>
     <use xlink:href="#m3712d37c98" x="307.852383" y="285.704004" style="stroke: #000000"/>
     <use xlink:href="#m3712d37c98" x="306.253138" y="286.872717" style="stroke: #000000"/>
     <use xlink:href="#m3712d37c98" x="305.842755" y="289.015884" style="stroke: #000000"/>
     <use xlink:href="#m3712d37c98" x="305.378609" y="291.161491" style="stroke: #000000"/>
     <use xlink:href="#m3712d37c98" x="304.091767" y="292.616001" style="stroke: #000000"/>
     <use xlink:href="#m3712d37c98" x="302.399774" y="293.693512" style="stroke: #000000"/>
     <use xlink:href="#m3712d37c98" x="300.6944" y="294.733712" style="stroke: #000000"/>
     <use xlink:href="#m3712d37c98" x="294.071634" y="290.831634" style="stroke: #000000"/>
     <use xlink:href="#m3712d37c98" x="293.546022" y="292.869393" style="stroke: #000000"/>
     <use xlink:href="#m3712d37c98" x="292.231175" y="294.117136" style="stroke: #000000"/>
     <use xlink:href="#m3712d37c98" x="292.690491" y="297.336112" style="stroke: #000000"/>
     <use xlink:href="#m3712d37c98" x="291.646762" y="298.969656" style="stroke: #000000"/>
     <use xlink:href="#m3712d37c98" x="290.566602" y="300.589547" style="stroke: #000000"/>
     <use xlink:href="#m3712d37c98" x="289.117474" y="301.784116" style="stroke: #000000"/>
     <use xlink:href="#m3712d37c98" x="287.973225" y="303.369842" style="stroke: #000000"/>
     <use xlink:href="#m3712d37c98" x="286.475969" y="304.518727" style="stroke: #000000"/>
     <use xlink:href="#m3712d37c98" x="284.95889" y="305.641307" style="stroke: #000000"/>
     <use xlink:href="#m3712d37c98" x="284.02628" y="307.599597" style="stroke: #000000"/>
     <use xlink:href="#m3712d37c98" x="282.748857" y="309.113421" style="stroke: #000000"/>
     <use xlink:href="#m3712d37c98" x="281.152157" y="310.170254" style="stroke: #000000"/>
     <use xlink:href="#m3712d37c98" x="279.259546" y="310.75463" style="stroke: #000000"/>
     <use xlink:href="#m3712d37c98" x="277.634735" y="311.750315" style="stroke: #000000"/>
     <use xlink:href="#m3712d37c98" x="275.992794" y="312.717493" style="stroke: #000000"/>
     <use xlink:href="#m3712d37c98" x="274.588293" y="314.114221" style="stroke: #000000"/>
     <use xlink:href="#m3712d37c98" x="272.90556" y="315.027871" style="stroke: #000000"/>
     <use xlink:href="#m3712d37c98" x="271.207138" y="315.912013" style="stroke: #000000"/>
     <use xlink:href="#m3712d37c98" x="269.493545" y="316.766379" style="stroke: #000000"/>
     <use xlink:href="#m3712d37c98" x="267.543823" y="317.115748" style="stroke: #000000"/>
     <use xlink:href="#m3712d37c98" x="266.022934" y="318.384752" style="stroke: #000000"/>
     <use xlink:href="#m3712d37c98" x="264.266975" y="319.148264" style="stroke: #000000"/>
     <use xlink:href="#m3712d37c98" x="263.083505" y="321.330295" style="stroke: #000000"/>
     <use xlink:href="#m3712d37c98" x="261.090403" y="321.557035" style="stroke: #000000"/>
     <use xlink:href="#m3712d37c98" x="259.457521" y="322.72218" style="stroke: #000000"/>
     <use xlink:href="#m3712d37c98" x="257.117968" y="321.892511" style="stroke: #000000"/>
     <use xlink:href="#m3712d37c98" x="255.140202" y="322.001664" style="stroke: #000000"/>
     <use xlink:href="#m3712d37c98" x="253.322776" y="322.574697" style="stroke: #000000"/>
     <use xlink:href="#m3712d37c98" x="251.640078" y="323.619683" style="stroke: #000000"/>
     <use xlink:href="#m3712d37c98" x="249.794947" y="324.131383" style="stroke: #000000"/>
     <use xlink:href="#m3712d37c98" x="248.193628" y="325.623372" style="stroke: #000000"/>
     <use xlink:href="#m3712d37c98" x="246.314053" y="326.074618" style="stroke: #000000"/>
     <use xlink:href="#m3712d37c98" x="244.534905" y="327.001171" style="stroke: #000000"/>
     <use xlink:href="#m3712d37c98" x="242.233592" y="325.339541" style="stroke: #000000"/>
     <use xlink:href="#m3712d37c98" x="240.268609" y="325.1692" style="stroke: #000000"/>
     <use xlink:href="#m3712d37c98" x="238.480389" y="326.001332" style="stroke: #000000"/>
     <use xlink:href="#m3712d37c98" x="236.668632" y="326.801962" style="stroke: #000000"/>
     <use xlink:href="#m3712d37c98" x="234.578078" y="325.486836" style="stroke: #000000"/>
     <use xlink:href="#m3712d37c98" x="232.70296" y="325.700479" style="stroke: #000000"/>
     <use xlink:href="#m3712d37c98" x="230.824398" y="325.881364" style="stroke: #000000"/>
     <use xlink:href="#m3712d37c98" x="228.906085" y="325.502013" style="stroke: #000000"/>
     <use xlink:href="#m3712d37c98" x="227.059236" y="326.144649" style="stroke: #000000"/>
     <use xlink:href="#m3712d37c98" x="225.192179" y="326.753797" style="stroke: #000000"/>
     <use xlink:href="#m3712d37c98" x="223.305551" y="327.328958" style="stroke: #000000"/>
     <use xlink:href="#m3712d37c98" x="221.4" y="327.345587" style="stroke: #000000"/>
     <use xlink:href="#m3712d37c98" x="219.540586" y="324.685741" style="stroke: #000000"/>
     <use xlink:href="#m3712d37c98" x="217.64467" y="325.698582" style="stroke: #000000"/>
     <use xlink:href="#m3712d37c98" x="215.740764" y="326.144649" style="stroke: #000000"/>
     <use xlink:href="#m3712d37c98" x="213.857034" y="326.029436" style="stroke: #000000"/>
     <use xlink:href="#m3712d37c98" x="211.975602" y="325.881364" style="stroke: #000000"/>
     <use xlink:href="#m3712d37c98" x="209.932219" y="327.268648" style="stroke: #000000"/>
     <use xlink:href="#m3712d37c98" x="208.029757" y="327.05189" style="stroke: #000000"/>
     <use xlink:href="#m3712d37c98" x="206.131368" y="326.801962" style="stroke: #000000"/>
     <use xlink:href="#m3712d37c98" x="204.733164" y="323.390259" style="stroke: #000000"/>
     <use xlink:href="#m3712d37c98" x="202.714739" y="324.129383" style="stroke: #000000"/>
     <use xlink:href="#m3712d37c98" x="200.868164" y="323.78714" style="stroke: #000000"/>
     <use xlink:href="#m3712d37c98" x="198.917918" y="323.92988" style="stroke: #000000"/>
     <use xlink:href="#m3712d37c98" x="197.075403" y="323.521404" style="stroke: #000000"/>
     <use xlink:href="#m3712d37c98" x="194.985616" y="324.102309" style="stroke: #000000"/>
     <use xlink:href="#m3712d37c98" x="193.140691" y="323.625179" style="stroke: #000000"/>
     <use xlink:href="#m3712d37c98" x="191.159922" y="323.619683" style="stroke: #000000"/>
     <use xlink:href="#m3712d37c98" x="189.324003" y="323.075859" style="stroke: #000000"/>
     <use xlink:href="#m3712d37c98" x="187.497854" y="322.500077" style="stroke: #000000"/>
     <use xlink:href="#m3712d37c98" x="185.51191" y="322.386581" style="stroke: #000000"/>
     <use xlink:href="#m3712d37c98" x="183.520169" y="322.23398" style="stroke: #000000"/>
     <use xlink:href="#m3712d37c98" x="181.709597" y="321.557035" style="stroke: #000000"/>
     <use xlink:href="#m3712d37c98" x="179.911115" y="320.848594" style="stroke: #000000"/>
     <use xlink:href="#m3712d37c98" x="177.518013" y="321.539483" style="stroke: #000000"/>
     <use xlink:href="#m3712d37c98" x="178.937386" y="313.532594" style="stroke: #000000"/>
     <use xlink:href="#m3712d37c98" x="177.051848" y="313.26492" style="stroke: #000000"/>
     <use xlink:href="#m3712d37c98" x="175.398792" y="312.476453" style="stroke: #000000"/>
     <use xlink:href="#m3712d37c98" x="173.030959" y="313.089588" style="stroke: #000000"/>
     <use xlink:href="#m3712d37c98" x="170.88292" y="313.168809" style="stroke: #000000"/>
     <use xlink:href="#m3712d37c98" x="169.232482" y="312.272694" style="stroke: #000000"/>
     <use xlink:href="#m3712d37c98" x="167.333579" y="311.805788" style="stroke: #000000"/>
     <use xlink:href="#m3712d37c98" x="165.707469" y="310.847936" style="stroke: #000000"/>
     <use xlink:href="#m3712d37c98" x="164.098324" y="309.861851" style="stroke: #000000"/>
     <use xlink:href="#m3712d37c98" x="162.506633" y="308.847832" style="stroke: #000000"/>
     <use xlink:href="#m3712d37c98" x="160.932882" y="307.806189" style="stroke: #000000"/>
     <use xlink:href="#m3712d37c98" x="159.37755" y="306.737238" style="stroke: #000000"/>
     <use xlink:href="#m3712d37c98" x="157.222322" y="306.492996" style="stroke: #000000"/>
     <use xlink:href="#m3712d37c98" x="156.324031" y="304.518727" style="stroke: #000000"/>
     <use xlink:href="#m3712d37c98" x="154.826775" y="303.369842" style="stroke: #000000"/>
     <use xlink:href="#m3712d37c98" x="153.349798" y="302.195001" style="stroke: #000000"/>
     <use xlink:href="#m3712d37c98" x="151.893549" y="300.994563" style="stroke: #000000"/>
     <use xlink:href="#m3712d37c98" x="150.458473" y="299.768892" style="stroke: #000000"/>
     <use xlink:href="#m3712d37c98" x="149.045006" y="298.518362" style="stroke: #000000"/>
     <use xlink:href="#m3712d37c98" x="147.294065" y="297.628886" style="stroke: #000000"/>
     <use xlink:href="#m3712d37c98" x="145.553318" y="296.701539" style="stroke: #000000"/>
     <use xlink:href="#m3712d37c98" x="144.194131" y="295.365869" style="stroke: #000000"/>
     <use xlink:href="#m3712d37c98" x="142.858461" y="294.006682" style="stroke: #000000"/>
     <use xlink:href="#m3712d37c98" x="141.163442" y="292.981801" style="stroke: #000000"/>
     <use xlink:href="#m3712d37c98" x="139.869842" y="291.570084" style="stroke: #000000"/>
     <use xlink:href="#m3712d37c98" x="139.791108" y="289.101527" style="stroke: #000000"/>
     <use xlink:href="#m3712d37c98" x="138.565437" y="287.666451" style="stroke: #000000"/>
     <use xlink:href="#m3712d37c98" x="137.364999" y="286.210202" style="stroke: #000000"/>
     <use xlink:href="#m3712d37c98" x="136.190158" y="284.733225" style="stroke: #000000"/>
     <use xlink:href="#m3712d37c98" x="137.59385" y="281.312463" style="stroke: #000000"/>
     <use xlink:href="#m3712d37c98" x="136.504452" y="279.840226" style="stroke: #000000"/>
     <use xlink:href="#m3712d37c98" x="134.56293" y="278.963971" style="stroke: #000000"/>
     <use xlink:href="#m3712d37c98" x="133.072706" y="277.737512" style="stroke: #000000"/>
     <use xlink:href="#m3712d37c98" x="132.046388" y="276.186914" style="stroke: #000000"/>
     <use xlink:href="#m3712d37c98" x="131.047287" y="274.618641" style="stroke: #000000"/>
     <use xlink:href="#m3712d37c98" x="129.165257" y="273.580225" style="stroke: #000000"/>
     <use xlink:href="#m3712d37c98" x="127.754212" y="272.226421" style="stroke: #000000"/>
     <use xlink:href="#m3712d37c98" x="126.824886" y="270.583842" style="stroke: #000000"/>
     <use xlink:href="#m3712d37c98" x="125.924368" y="268.925294" style="stroke: #000000"/>
     <use xlink:href="#m3712d37c98" x="125.052932" y="267.251283" style="stroke: #000000"/>
     <use xlink:href="#m3712d37c98" x="122.793621" y="266.253545" style="stroke: #000000"/>
     <use xlink:href="#m3712d37c98" x="123.398363" y="263.858914" style="stroke: #000000"/>
     <use xlink:href="#m3712d37c98" x="122.615734" y="262.141589" style="stroke: #000000"/>
     <use xlink:href="#m3712d37c98" x="121.863194" y="260.410867" style="stroke: #000000"/>
     <use xlink:href="#m3712d37c98" x="120.652212" y="258.864749" style="stroke: #000000"/>
     <use xlink:href="#m3712d37c98" x="119.466473" y="257.288615" style="stroke: #000000"/>
     <use xlink:href="#m3712d37c98" x="118.799109" y="255.50367" style="stroke: #000000"/>
     <use xlink:href="#m3712d37c98" x="118.162999" y="253.70735" style="stroke: #000000"/>
     <use xlink:href="#m3712d37c98" x="118.058209" y="251.737783" style="stroke: #000000"/>
     <use xlink:href="#m3712d37c98" x="116.484141" y="250.235997" style="stroke: #000000"/>
     <use xlink:href="#m3712d37c98" x="118.985288" y="247.526946" style="stroke: #000000"/>
     <use xlink:href="#m3712d37c98" x="117.462391" y="246.009998" style="stroke: #000000"/>
     <use xlink:href="#m3712d37c98" x="116.992171" y="244.191795" style="stroke: #000000"/>
     <use xlink:href="#m3712d37c98" x="116.038596" y="242.484597" style="stroke: #000000"/>
     <use xlink:href="#m3712d37c98" x="115.114492" y="240.751682" style="stroke: #000000"/>
     <use xlink:href="#m3712d37c98" x="115.253863" y="238.792719" style="stroke: #000000"/>
     <use xlink:href="#m3712d37c98" x="114.909939" y="236.937071" style="stroke: #000000"/>
     <use xlink:href="#m3712d37c98" x="114.598453" y="235.075703" style="stroke: #000000"/>
     <use xlink:href="#m3712d37c98" x="114.3195" y="233.209183" style="stroke: #000000"/>
     <use xlink:href="#m3712d37c98" x="114.073164" y="231.338078" style="stroke: #000000"/>
     <use xlink:href="#m3712d37c98" x="114.385336" y="229.407694" style="stroke: #000000"/>
     <use xlink:href="#m3712d37c98" x="115.263457" y="227.445744" style="stroke: #000000"/>
     <use xlink:href="#m3712d37c98" x="114.057987" y="225.666085" style="stroke: #000000"/>
     <use xlink:href="#m3712d37c98" x="113.943337" y="223.791565" style="stroke: #000000"/>
     <use xlink:href="#m3712d37c98" x="113.861418" y="221.91533" style="stroke: #000000"/>
     <use xlink:href="#m3712d37c98" x="113.812258" y="220.037951" style="stroke: #000000"/>
     <use xlink:href="#m3712d37c98" x="113.267158" y="218.16" style="stroke: #000000"/>
     <use xlink:href="#m3712d37c98" x="113.283627" y="216.272822" style="stroke: #000000"/>
     <use xlink:href="#m3712d37c98" x="112.806203" y="214.367821" style="stroke: #000000"/>
     <use xlink:href="#m3712d37c98" x="112.888925" y="212.473176" style="stroke: #000000"/>
     <use xlink:href="#m3712d37c98" x="113.530564" y="210.617034" style="stroke: #000000"/>
     <use xlink:href="#m3712d37c98" x="113.153495" y="208.689658" style="stroke: #000000"/>
     <use xlink:href="#m3712d37c98" x="113.335261" y="206.801938" style="stroke: #000000"/>
     <use xlink:href="#m3712d37c98" x="113.028265" y="204.853624" style="stroke: #000000"/>
     <use xlink:href="#m3712d37c98" x="114.3195" y="203.110817" style="stroke: #000000"/>
     <use xlink:href="#m3712d37c98" x="114.598453" y="201.244297" style="stroke: #000000"/>
     <use xlink:href="#m3712d37c98" x="115.430617" y="199.474739" style="stroke: #000000"/>
     <use xlink:href="#m3712d37c98" x="115.253863" y="197.527281" style="stroke: #000000"/>
     <use xlink:href="#m3712d37c98" x="115.63012" y="195.677918" style="stroke: #000000"/>
     <use xlink:href="#m3712d37c98" x="116.553756" y="193.954337" style="stroke: #000000"/>
     <use xlink:href="#m3712d37c98" x="116.479166" y="192.000298" style="stroke: #000000"/>
     <use xlink:href="#m3712d37c98" x="116.951695" y="190.173161" style="stroke: #000000"/>
     <use xlink:href="#m3712d37c98" x="117.456041" y="188.354549" style="stroke: #000000"/>
     <use xlink:href="#m3712d37c98" x="117.992049" y="186.545017" style="stroke: #000000"/>
     <use xlink:href="#m3712d37c98" x="118.559556" y="184.745114" style="stroke: #000000"/>
     <use xlink:href="#m3712d37c98" x="119.158389" y="182.95539" style="stroke: #000000"/>
     <use xlink:href="#m3712d37c98" x="119.788367" y="181.17639" style="stroke: #000000"/>
     <use xlink:href="#m3712d37c98" x="120.449295" y="179.408655" style="stroke: #000000"/>
     <use xlink:href="#m3712d37c98" x="121.631187" y="177.850783" style="stroke: #000000"/>
     <use xlink:href="#m3712d37c98" x="121.863194" y="175.909133" style="stroke: #000000"/>
     <use xlink:href="#m3712d37c98" x="122.615734" y="174.178411" style="stroke: #000000"/>
     <use xlink:href="#m3712d37c98" x="123.398363" y="172.461086" style="stroke: #000000"/>
     <use xlink:href="#m3712d37c98" x="123.264644" y="170.296189" style="stroke: #000000"/>
     <use xlink:href="#m3712d37c98" x="124.114929" y="168.590781" style="stroke: #000000"/>
     <use xlink:href="#m3712d37c98" x="124.532129" y="166.65444" style="stroke: #000000"/>
     <use xlink:href="#m3712d37c98" x="126.363832" y="165.480592" style="stroke: #000000"/>
     <use xlink:href="#m3712d37c98" x="127.754212" y="164.093579" style="stroke: #000000"/>
     <use xlink:href="#m3712d37c98" x="128.712064" y="162.467469" style="stroke: #000000"/>
     <use xlink:href="#m3712d37c98" x="129.251103" y="160.578978" style="stroke: #000000"/>
     <use xlink:href="#m3712d37c98" x="132.493801" y="160.423639" style="stroke: #000000"/>
     <use xlink:href="#m3712d37c98" x="133.072706" y="158.582488" style="stroke: #000000"/>
     <use xlink:href="#m3712d37c98" x="134.125929" y="157.050038" style="stroke: #000000"/>
     <use xlink:href="#m3712d37c98" x="133.918693" y="154.60111" style="stroke: #000000"/>
     <use xlink:href="#m3712d37c98" x="135.041273" y="153.084031" style="stroke: #000000"/>
     <use xlink:href="#m3712d37c98" x="137.864171" y="152.894658" style="stroke: #000000"/>
     <use xlink:href="#m3712d37c98" x="139.015931" y="151.446697" style="stroke: #000000"/>
     <use xlink:href="#m3712d37c98" x="138.970453" y="148.993398" style="stroke: #000000"/>
     <use xlink:href="#m3712d37c98" x="140.190131" y="147.565338" style="stroke: #000000"/>
     <use xlink:href="#m3712d37c98" x="141.041638" y="145.805006" style="stroke: #000000"/>
     <use xlink:href="#m3712d37c98" x="142.316646" y="144.413579" style="stroke: #000000"/>
     <use xlink:href="#m3712d37c98" x="143.615743" y="143.044616" style="stroke: #000000"/>
     <use xlink:href="#m3712d37c98" x="144.565785" y="141.325785" style="stroke: #000000"/>
     <use xlink:href="#m3712d37c98" x="145.918429" y="139.996545" style="stroke: #000000"/>
     <use xlink:href="#m3712d37c98" x="146.578199" y="137.923442" style="stroke: #000000"/>
     <use xlink:href="#m3712d37c98" x="148.340582" y="137.019296" style="stroke: #000000"/>
     <use xlink:href="#m3712d37c98" x="150.458473" y="136.551108" style="stroke: #000000"/>
     <use xlink:href="#m3712d37c98" x="151.893549" y="135.325437" style="stroke: #000000"/>
     <use xlink:href="#m3712d37c98" x="153.349798" y="134.124999" style="stroke: #000000"/>
     <use xlink:href="#m3712d37c98" x="154.826775" y="132.950158" style="stroke: #000000"/>
     <use xlink:href="#m3712d37c98" x="156.324031" y="131.801273" style="stroke: #000000"/>
     <use xlink:href="#m3712d37c98" x="157.531261" y="130.252222" style="stroke: #000000"/>
     <use xlink:href="#m3712d37c98" x="159.07519" y="129.150947" style="stroke: #000000"/>
     <use xlink:href="#m3712d37c98" x="160.932882" y="128.513811" style="stroke: #000000"/>
     <use xlink:href="#m3712d37c98" x="162.506633" y="127.472168" style="stroke: #000000"/>
     <use xlink:href="#m3712d37c98" x="164.659507" y="127.35623" style="stroke: #000000"/>
     <use xlink:href="#m3712d37c98" x="165.707469" y="125.472064" style="stroke: #000000"/>
     <use xlink:href="#m3712d37c98" x="167.597934" y="124.972089" style="stroke: #000000"/>
     <use xlink:href="#m3712d37c98" x="170.525694" y="126.380322" style="stroke: #000000"/>
     <use xlink:href="#m3712d37c98" x="171.632029" y="124.56006" style="stroke: #000000"/>
     <use xlink:href="#m3712d37c98" x="173.030959" y="123.230412" style="stroke: #000000"/>
     <use xlink:href="#m3712d37c98" x="174.229454" y="121.446048" style="stroke: #000000"/>
     <use xlink:href="#m3712d37c98" x="176.148638" y="121.118141" style="stroke: #000000"/>
     <use xlink:href="#m3712d37c98" x="178.065478" y="120.829069" style="stroke: #000000"/>
     <use xlink:href="#m3712d37c98" x="179.770737" y="120.087602" style="stroke: #000000"/>
     <use xlink:href="#m3712d37c98" x="181.090783" y="118.391187" style="stroke: #000000"/>
     <use xlink:href="#m3712d37c98" x="182.838128" y="117.702889" style="stroke: #000000"/>
     <use xlink:href="#m3712d37c98" x="184.41639" y="116.548367" style="stroke: #000000"/>
     <use xlink:href="#m3712d37c98" x="186.19539" y="115.918389" style="stroke: #000000"/>
     <use xlink:href="#m3712d37c98" x="187.985114" y="115.319556" style="stroke: #000000"/>
     <use xlink:href="#m3712d37c98" x="189.785017" y="114.752049" style="stroke: #000000"/>
     <use xlink:href="#m3712d37c98" x="191.594549" y="114.216041" style="stroke: #000000"/>
     <use xlink:href="#m3712d37c98" x="193.550002" y="114.222391" style="stroke: #000000"/>
     <use xlink:href="#m3712d37c98" x="195.240298" y="113.239166" style="stroke: #000000"/>
     <use xlink:href="#m3712d37c98" x="197.075403" y="112.798596" style="stroke: #000000"/>
     <use xlink:href="#m3712d37c98" x="199.027843" y="112.907277" style="stroke: #000000"/>
     <use xlink:href="#m3712d37c98" x="200.767281" y="112.013863" style="stroke: #000000"/>
     <use xlink:href="#m3712d37c98" x="202.622929" y="111.669939" style="stroke: #000000"/>
     <use xlink:href="#m3712d37c98" x="204.484297" y="111.358453" style="stroke: #000000"/>
     <use xlink:href="#m3712d37c98" x="206.424399" y="111.603065" style="stroke: #000000"/>
     <use xlink:href="#m3712d37c98" x="208.221922" y="110.833164" style="stroke: #000000"/>
     <use xlink:href="#m3712d37c98" x="210.152306" y="111.145336" style="stroke: #000000"/>
     <use xlink:href="#m3712d37c98" x="212.114256" y="112.023457" style="stroke: #000000"/>
     <use xlink:href="#m3712d37c98" x="213.930906" y="111.346982" style="stroke: #000000"/>
     <use xlink:href="#m3712d37c98" x="215.768435" y="110.703337" style="stroke: #000000"/>
     <use xlink:href="#m3712d37c98" x="217.626218" y="110.09303" style="stroke: #000000"/>
     <use xlink:href="#m3712d37c98" x="219.512822" y="110.043627" style="stroke: #000000"/>
     <use xlink:href="#m3712d37c98" x="221.4" y="110.555869" style="stroke: #000000"/>
     <use xlink:href="#m3712d37c98" x="223.277951" y="110.572258" style="stroke: #000000"/>
     <use xlink:href="#m3712d37c98" x="225.173782" y="110.09303" style="stroke: #000000"/>
     <use xlink:href="#m3712d37c98" x="227.059236" y="110.175351" style="stroke: #000000"/>
     <use xlink:href="#m3712d37c98" x="228.906085" y="110.817987" style="stroke: #000000"/>
     <use xlink:href="#m3712d37c98" x="230.824398" y="110.438636" style="stroke: #000000"/>
     <use xlink:href="#m3712d37c98" x="232.70296" y="110.619521" style="stroke: #000000"/>
     <use xlink:href="#m3712d37c98" x="234.578078" y="110.833164" style="stroke: #000000"/>
     <use xlink:href="#m3712d37c98" x="236.375601" y="111.603065" style="stroke: #000000"/>
     <use xlink:href="#m3712d37c98" x="238.232995" y="111.880654" style="stroke: #000000"/>
     <use xlink:href="#m3712d37c98" x="240.177071" y="111.669939" style="stroke: #000000"/>
     <use xlink:href="#m3712d37c98" x="241.931836" y="112.53286" style="stroke: #000000"/>
     <use xlink:href="#m3712d37c98" x="243.661904" y="113.425976" style="stroke: #000000"/>
     <use xlink:href="#m3712d37c98" x="245.605663" y="113.313756" style="stroke: #000000"/>
     <use xlink:href="#m3712d37c98" x="247.431795" y="113.752171" style="stroke: #000000"/>
     <use xlink:href="#m3712d37c98" x="249.249998" y="114.222391" style="stroke: #000000"/>
     <use xlink:href="#m3712d37c98" x="250.913551" y="115.234015" style="stroke: #000000"/>
     <use xlink:href="#m3712d37c98" x="252.705362" y="115.764774" style="stroke: #000000"/>
     <use xlink:href="#m3712d37c98" x="254.323279" y="116.832567" style="stroke: #000000"/>
     <use xlink:href="#m3712d37c98" x="256.086672" y="117.422591" style="stroke: #000000"/>
     <use xlink:href="#m3712d37c98" x="258.20278" y="117.045192" style="stroke: #000000"/>
     <use xlink:href="#m3712d37c98" x="259.961872" y="117.702889" style="stroke: #000000"/>
     <use xlink:href="#m3712d37c98" x="261.510568" y="118.88286" style="stroke: #000000"/>
     <use xlink:href="#m3712d37c98" x="263.444284" y="119.109875" style="stroke: #000000"/>
     <use xlink:href="#m3712d37c98" x="265.166543" y="119.858735" style="stroke: #000000"/>
     <use xlink:href="#m3712d37c98" x="266.426581" y="121.600185" style="stroke: #000000"/>
     <use xlink:href="#m3712d37c98" x="268.570546" y="121.446048" style="stroke: #000000"/>
     <use xlink:href="#m3712d37c98" x="269.769041" y="123.230412" style="stroke: #000000"/>
     <use xlink:href="#m3712d37c98" x="271.167971" y="124.56006" style="stroke: #000000"/>
     <use xlink:href="#m3712d37c98" x="273.31043" y="124.511106" style="stroke: #000000"/>
     <use xlink:href="#m3712d37c98" x="274.670984" y="125.891949" style="stroke: #000000"/>
     <use xlink:href="#m3712d37c98" x="276.820225" y="125.925257" style="stroke: #000000"/>
     <use xlink:href="#m3712d37c98" x="278.140493" y="127.35623" style="stroke: #000000"/>
     <use xlink:href="#m3712d37c98" x="280.00541" y="127.915582" style="stroke: #000000"/>
     <use xlink:href="#m3712d37c98" x="281.571466" y="128.952132" style="stroke: #000000"/>
     <use xlink:href="#m3712d37c98" x="283.119194" y="130.015856" style="stroke: #000000"/>
     <use xlink:href="#m3712d37c98" x="284.648121" y="131.106429" style="stroke: #000000"/>
     <use xlink:href="#m3712d37c98" x="286.475969" y="131.801273" style="stroke: #000000"/>
     <use xlink:href="#m3712d37c98" x="286.665342" y="134.624171" style="stroke: #000000"/>
     <use xlink:href="#m3712d37c98" x="288.113303" y="135.775931" style="stroke: #000000"/>
     <use xlink:href="#m3712d37c98" x="289.540943" y="136.952787" style="stroke: #000000"/>
     <use xlink:href="#m3712d37c98" x="291.29782" y="137.751756" style="stroke: #000000"/>
     <use xlink:href="#m3712d37c98" x="293.046386" y="138.588627" style="stroke: #000000"/>
     <use xlink:href="#m3712d37c98" x="294.061447" y="140.240138" style="stroke: #000000"/>
     <use xlink:href="#m3712d37c98" x="295.41027" y="141.520122" style="stroke: #000000"/>
     <use xlink:href="#m3712d37c98" x="296.736548" y="142.823452" style="stroke: #000000"/>
     <use xlink:href="#m3712d37c98" x="298.422478" y="143.780258" style="stroke: #000000"/>
     <use xlink:href="#m3712d37c98" x="299.708852" y="145.135814" style="stroke: #000000"/>
     <use xlink:href="#m3712d37c98" x="300.971373" y="146.513614" style="stroke: #000000"/>
     <use xlink:href="#m3712d37c98" x="302.609869" y="147.565338" style="stroke: #000000"/>
     <use xlink:href="#m3712d37c98" x="303.829547" y="148.993398" style="stroke: #000000"/>
     <use xlink:href="#m3712d37c98" x="304.19866" y="151.110967" style="stroke: #000000"/>
     <use xlink:href="#m3712d37c98" x="305.356216" y="152.566215" style="stroke: #000000"/>
     <use xlink:href="#m3712d37c98" x="306.488199" y="154.041443" style="stroke: #000000"/>
     <use xlink:href="#m3712d37c98" x="308.02456" y="155.223574" style="stroke: #000000"/>
     <use xlink:href="#m3712d37c98" x="309.109758" y="156.744966" style="stroke: #000000"/>
     <use xlink:href="#m3712d37c98" x="309.727294" y="158.582488" style="stroke: #000000"/>
     <use xlink:href="#m3712d37c98" x="310.753612" y="160.133086" style="stroke: #000000"/>
     <use xlink:href="#m3712d37c98" x="312.653479" y="161.138498" style="stroke: #000000"/>
     <use xlink:href="#m3712d37c98" x="312.724291" y="163.28683" style="stroke: #000000"/>
     <use xlink:href="#m3712d37c98" x="314.587911" y="164.357934" style="stroke: #000000"/>
     <use xlink:href="#m3712d37c98" x="315.512694" y="165.992482" style="stroke: #000000"/>
     <use xlink:href="#m3712d37c98" x="315.470974" y="168.141576" style="stroke: #000000"/>
     <use xlink:href="#m3712d37c98" x="316.329588" y="169.790959" style="stroke: #000000"/>
     <use xlink:href="#m3712d37c98" x="317.159286" y="171.455075" style="stroke: #000000"/>
     <use xlink:href="#m3712d37c98" x="317.959815" y="173.133419" style="stroke: #000000"/>
     <use xlink:href="#m3712d37c98" x="318.730931" y="174.825478" style="stroke: #000000"/>
     <use xlink:href="#m3712d37c98" x="318.981328" y="176.739184" style="stroke: #000000"/>
     <use xlink:href="#m3712d37c98" x="319.689359" y="178.448521" style="stroke: #000000"/>
     <use xlink:href="#m3712d37c98" x="321.857111" y="179.598128" style="stroke: #000000"/>
     <use xlink:href="#m3712d37c98" x="322.016501" y="181.538588" style="stroke: #000000"/>
     <use xlink:href="#m3712d37c98" x="322.640309" y="183.300166" style="stroke: #000000"/>
     <use xlink:href="#m3712d37c98" x="323.73761" y="184.908495" style="stroke: #000000"/>
     <use xlink:href="#m3712d37c98" x="324.302342" y="186.699597" style="stroke: #000000"/>
     <use xlink:href="#m3712d37c98" x="323.814712" y="188.793054" style="stroke: #000000"/>
     <use xlink:href="#m3712d37c98" x="324.825391" y="190.44725" style="stroke: #000000"/>
     <use xlink:href="#m3712d37c98" x="324.777216" y="192.385165" style="stroke: #000000"/>
     <use xlink:href="#m3712d37c98" x="324.691498" y="194.313279" style="stroke: #000000"/>
     <use xlink:href="#m3712d37c98" x="326.652723" y="195.787843" style="stroke: #000000"/>
     <use xlink:href="#m3712d37c98" x="325.984492" y="197.830834" style="stroke: #000000"/>
     <use xlink:href="#m3712d37c98" x="326.847152" y="199.566822" style="stroke: #000000"/>
     <use xlink:href="#m3712d37c98" x="328.201547" y="201.244297" style="stroke: #000000"/>
     <use xlink:href="#m3712d37c98" x="327.956935" y="203.184399" style="stroke: #000000"/>
     <use xlink:href="#m3712d37c98" x="327.14782" y="205.1758" style="stroke: #000000"/>
     <use xlink:href="#m3712d37c98" x="327.35832" y="207.023332" style="stroke: #000000"/>
     <use xlink:href="#m3712d37c98" x="327.536543" y="208.874256" style="stroke: #000000"/>
     <use xlink:href="#m3712d37c98" x="327.150257" y="210.765222" style="stroke: #000000"/>
     <use xlink:href="#m3712d37c98" x="327.795956" y="212.584024" style="stroke: #000000"/>
     <use xlink:href="#m3712d37c98" x="327.877065" y="214.441739" style="stroke: #000000"/>
     <use xlink:href="#m3712d37c98" x="326.320686" y="216.328603" style="stroke: #000000"/>
     <use xlink:href="#m3712d37c98" x="327.408488" y="218.16" style="stroke: #000000"/>
     <use xlink:href="#m3712d37c98" x="326.857329" y="220.000765" style="stroke: #000000"/>
     <use xlink:href="#m3712d37c98" x="327.343911" y="221.859643" style="stroke: #000000"/>
     <use xlink:href="#m3712d37c98" x="328.856663" y="223.791565" style="stroke: #000000"/>
     <use xlink:href="#m3712d37c98" x="327.682437" y="225.591992" style="stroke: #000000"/>
     <use xlink:href="#m3712d37c98" x="327.536543" y="227.445744" style="stroke: #000000"/>
     <use xlink:href="#m3712d37c98" x="327.35832" y="229.296668" style="stroke: #000000"/>
     <use xlink:href="#m3712d37c98" x="326.618317" y="231.079185" style="stroke: #000000"/>
     <use xlink:href="#m3712d37c98" x="326.376821" y="232.91353" style="stroke: #000000"/>
     <use xlink:href="#m3712d37c98" x="326.630259" y="234.826836" style="stroke: #000000"/>
     <use xlink:href="#m3712d37c98" x="326.323356" y="236.660819" style="stroke: #000000"/>
     <use xlink:href="#m3712d37c98" x="325.984492" y="238.489166" style="stroke: #000000"/>
     <use xlink:href="#m3712d37c98" x="325.61377" y="240.311321" style="stroke: #000000"/>
     <use xlink:href="#m3712d37c98" x="325.211304" y="242.126728" style="stroke: #000000"/>
     <use xlink:href="#m3712d37c98" x="324.777216" y="243.934835" style="stroke: #000000"/>
     <use xlink:href="#m3712d37c98" x="325.337609" y="246.009998" style="stroke: #000000"/>
     <use xlink:href="#m3712d37c98" x="324.83573" y="247.819718" style="stroke: #000000"/>
     <use xlink:href="#m3712d37c98" x="324.807951" y="249.774983" style="stroke: #000000"/>
     <use xlink:href="#m3712d37c98" x="322.727433" y="251.083279" style="stroke: #000000"/>
     <use xlink:href="#m3712d37c98" x="321.127052" y="252.498778" style="stroke: #000000"/>
     <use xlink:href="#m3712d37c98" x="321.015394" y="254.417038" style="stroke: #000000"/>
     <use xlink:href="#m3712d37c98" x="320.36745" y="256.150045" style="stroke: #000000"/>
     <use xlink:href="#m3712d37c98" x="318.695585" y="257.469968" style="stroke: #000000"/>
     <use xlink:href="#m3712d37c98" x="318.48877" y="259.371738" style="stroke: #000000"/>
     <use xlink:href="#m3712d37c98" x="317.264417" y="260.841588" style="stroke: #000000"/>
     <use xlink:href="#m3712d37c98" x="316.991357" y="262.734982" style="stroke: #000000"/>
     <use xlink:href="#m3712d37c98" x="316.679798" y="264.631063" style="stroke: #000000"/>
     <use xlink:href="#m3712d37c98" x="316.803494" y="266.770508" style="stroke: #000000"/>
     <use xlink:href="#m3712d37c98" x="315.470974" y="268.178424" style="stroke: #000000"/>
     <use xlink:href="#m3712d37c98" x="314.583705" y="269.812571" style="stroke: #000000"/>
     <use xlink:href="#m3712d37c98" x="314.128669" y="271.696922" style="stroke: #000000"/>
     <use xlink:href="#m3712d37c98" x="312.26701" y="272.758408" style="stroke: #000000"/>
     <use xlink:href="#m3712d37c98" x="312.20377" y="274.900493" style="stroke: #000000"/>
     <use xlink:href="#m3712d37c98" x="311.199682" y="276.476595" style="stroke: #000000"/>
     <use xlink:href="#m3712d37c98" x="311.046189" y="278.627118" style="stroke: #000000"/>
     <use xlink:href="#m3712d37c98" x="309.977238" y="280.18245" style="stroke: #000000"/>
     <use xlink:href="#m3712d37c98" x="308.453571" y="281.408121" style="stroke: #000000"/>
     <use xlink:href="#m3712d37c98" x="307.758727" y="283.235969" style="stroke: #000000"/>
     <use xlink:href="#m3712d37c98" x="306.193212" y="284.407718" style="stroke: #000000"/>
     <use xlink:href="#m3712d37c98" x="305.024116" y="285.877474" style="stroke: #000000"/>
     <use xlink:href="#m3712d37c98" x="304.638381" y="288.005295" style="stroke: #000000"/>
     <use xlink:href="#m3712d37c98" x="303.008892" y="289.101527" style="stroke: #000000"/>
     <use xlink:href="#m3712d37c98" x="301.758362" y="290.514994" style="stroke: #000000"/>
     <use xlink:href="#m3712d37c98" x="300.09668" y="291.545841" style="stroke: #000000"/>
     <use xlink:href="#m3712d37c98" x="297.271209" y="291.427975" style="stroke: #000000"/>
     <use xlink:href="#m3712d37c98" x="296.736548" y="293.496548" style="stroke: #000000"/>
     <use xlink:href="#m3712d37c98" x="295.779742" y="295.182478" style="stroke: #000000"/>
     <use xlink:href="#m3712d37c98" x="294.424186" y="296.468852" style="stroke: #000000"/>
     <use xlink:href="#m3712d37c98" x="293.401217" y="298.125453" style="stroke: #000000"/>
     <use xlink:href="#m3712d37c98" x="292.341527" y="299.768892" style="stroke: #000000"/>
     <use xlink:href="#m3712d37c98" x="289.883857" y="299.775882" style="stroke: #000000"/>
     <use xlink:href="#m3712d37c98" x="288.113303" y="300.544069" style="stroke: #000000"/>
     <use xlink:href="#m3712d37c98" x="286.993785" y="302.116216" style="stroke: #000000"/>
     <use xlink:href="#m3712d37c98" x="286.157783" y="304.09648" style="stroke: #000000"/>
     <use xlink:href="#m3712d37c98" x="317.662027" y="372.211446" style="stroke: #000000"/>
     <use xlink:href="#m3712d37c98" x="272.412775" y="314.101076" style="stroke: #000000"/>
     <use xlink:href="#m3712d37c98" x="270.491283" y="314.507068" style="stroke: #000000"/>
     <use xlink:href="#m3712d37c98" x="268.802318" y="315.349154" style="stroke: #000000"/>
     <use xlink:href="#m3712d37c98" x="267.098914" y="316.161637" style="stroke: #000000"/>
     <use xlink:href="#m3712d37c98" x="265.166543" y="316.461265" style="stroke: #000000"/>
     <use xlink:href="#m3712d37c98" x="263.444284" y="317.210125" style="stroke: #000000"/>
     <use xlink:href="#m3712d37c98" x="261.510568" y="317.43714" style="stroke: #000000"/>
     <use xlink:href="#m3712d37c98" x="259.581226" y="317.625496" style="stroke: #000000"/>
     <use xlink:href="#m3712d37c98" x="258.021412" y="318.776501" style="stroke: #000000"/>
     <use xlink:href="#m3712d37c98" x="256.432478" y="319.901705" style="stroke: #000000"/>
     <use xlink:href="#m3712d37c98" x="254.814886" y="321.000444" style="stroke: #000000"/>
     <use xlink:href="#m3712d37c98" x="253.014983" y="321.567951" style="stroke: #000000"/>
     <use xlink:href="#m3712d37c98" x="251.205451" y="322.103959" style="stroke: #000000"/>
     <use xlink:href="#m3712d37c98" x="249.386839" y="322.608305" style="stroke: #000000"/>
     <use xlink:href="#m3712d37c98" x="247.431795" y="322.567829" style="stroke: #000000"/>
     <use xlink:href="#m3712d37c98" x="245.605663" y="323.006244" style="stroke: #000000"/>
     <use xlink:href="#m3712d37c98" x="243.882082" y="323.92988" style="stroke: #000000"/>
     <use xlink:href="#m3712d37c98" x="242.032719" y="324.306137" style="stroke: #000000"/>
     <use xlink:href="#m3712d37c98" x="240.177071" y="324.650061" style="stroke: #000000"/>
     <use xlink:href="#m3712d37c98" x="238.232995" y="324.439346" style="stroke: #000000"/>
     <use xlink:href="#m3712d37c98" x="236.227776" y="323.665109" style="stroke: #000000"/>
     <use xlink:href="#m3712d37c98" x="234.449019" y="324.435732" style="stroke: #000000"/>
     <use xlink:href="#m3712d37c98" x="232.647694" y="325.174664" style="stroke: #000000"/>
     <use xlink:href="#m3712d37c98" x="230.545833" y="322.697353" style="stroke: #000000"/>
     <use xlink:href="#m3712d37c98" x="228.831992" y="324.442437" style="stroke: #000000"/>
     <use xlink:href="#m3712d37c98" x="226.975976" y="324.555956" style="stroke: #000000"/>
     <use xlink:href="#m3712d37c98" x="225.15533" y="325.698582" style="stroke: #000000"/>
     <use xlink:href="#m3712d37c98" x="223.287178" y="326.276373" style="stroke: #000000"/>
     <use xlink:href="#m3712d37c98" x="221.4" y="326.292842" style="stroke: #000000"/>
     <use xlink:href="#m3712d37c98" x="219.485303" y="327.85294" style="stroke: #000000"/>
     <use xlink:href="#m3712d37c98" x="217.719032" y="323.569141" style="stroke: #000000"/>
     <use xlink:href="#m3712d37c98" x="215.824024" y="324.555956" style="stroke: #000000"/>
     <use xlink:href="#m3712d37c98" x="213.930906" y="324.973018" style="stroke: #000000"/>
     <use xlink:href="#m3712d37c98" x="212.114256" y="324.296543" style="stroke: #000000"/>
     <use xlink:href="#m3712d37c98" x="210.263332" y="324.11832" style="stroke: #000000"/>
     <use xlink:href="#m3712d37c98" x="208.4158" y="323.90782" style="stroke: #000000"/>
     <use xlink:href="#m3712d37c98" x="206.350817" y="325.2405" style="stroke: #000000"/>
     <use xlink:href="#m3712d37c98" x="204.64996" y="323.915587" style="stroke: #000000"/>
     <use xlink:href="#m3712d37c98" x="202.899181" y="323.083356" style="stroke: #000000"/>
     <use xlink:href="#m3712d37c98" x="201.070834" y="322.744492" style="stroke: #000000"/>
     <use xlink:href="#m3712d37c98" x="199.138096" y="322.894024" style="stroke: #000000"/>
     <use xlink:href="#m3712d37c98" x="197.433272" y="321.971304" style="stroke: #000000"/>
     <use xlink:href="#m3712d37c98" x="195.625165" y="321.537216" style="stroke: #000000"/>
     <use xlink:href="#m3712d37c98" x="193.82491" y="321.071638" style="stroke: #000000"/>
     <use xlink:href="#m3712d37c98" x="192.033054" y="320.574712" style="stroke: #000000"/>
     <use xlink:href="#m3712d37c98" x="190.250143" y="320.04659" style="stroke: #000000"/>
     <use xlink:href="#m3712d37c98" x="188.806929" y="318.471158" style="stroke: #000000"/>
     <use xlink:href="#m3712d37c98" x="187.235963" y="317.379569" style="stroke: #000000"/>
     <use xlink:href="#m3712d37c98" x="185.325975" y="317.272569" style="stroke: #000000"/>
     <use xlink:href="#m3712d37c98" x="182.838128" y="318.617111" style="stroke: #000000"/>
     <use xlink:href="#m3712d37c98" x="180.892725" y="318.419025" style="stroke: #000000"/>
     <use xlink:href="#m3712d37c98" x="179.562916" y="316.721993" style="stroke: #000000"/>
     <use xlink:href="#m3712d37c98" x="179.157033" y="313.039258" style="stroke: #000000"/>
     <use xlink:href="#m3712d37c98" x="177.051848" y="313.26492" style="stroke: #000000"/>
     <use xlink:href="#m3712d37c98" x="175.871528" y="311.507202" style="stroke: #000000"/>
     <use xlink:href="#m3712d37c98" x="173.75975" y="311.659256" style="stroke: #000000"/>
     <use xlink:href="#m3712d37c98" x="171.883241" y="311.287478" style="stroke: #000000"/>
     <use xlink:href="#m3712d37c98" x="170.265484" y="310.409108" style="stroke: #000000"/>
     <use xlink:href="#m3712d37c98" x="168.129016" y="310.428051" style="stroke: #000000"/>
     <use xlink:href="#m3712d37c98" x="166.252893" y="309.940198" style="stroke: #000000"/>
     <use xlink:href="#m3712d37c98" x="164.941359" y="308.512713" style="stroke: #000000"/>
     <use xlink:href="#m3712d37c98" x="163.955073" y="306.61743" style="stroke: #000000"/>
     <use xlink:href="#m3712d37c98" x="161.822488" y="306.487294" style="stroke: #000000"/>
     <use xlink:href="#m3712d37c98" x="159.984966" y="305.869758" style="stroke: #000000"/>
     <use xlink:href="#m3712d37c98" x="159.089774" y="303.922669" style="stroke: #000000"/>
     <use xlink:href="#m3712d37c98" x="156.642217" y="304.09648" style="stroke: #000000"/>
     <use xlink:href="#m3712d37c98" x="155.806215" y="302.116216" style="stroke: #000000"/>
     <use xlink:href="#m3712d37c98" x="153.682526" y="301.784116" style="stroke: #000000"/>
     <use xlink:href="#m3712d37c98" x="152.57426" y="300.183323" style="stroke: #000000"/>
     <use xlink:href="#m3712d37c98" x="151.50218" y="298.568244" style="stroke: #000000"/>
     <use xlink:href="#m3712d37c98" x="149.398783" y="298.125453" style="stroke: #000000"/>
     <use xlink:href="#m3712d37c98" x="148.375814" y="296.468852" style="stroke: #000000"/>
     <use xlink:href="#m3712d37c98" x="147.020258" y="295.182478" style="stroke: #000000"/>
     <use xlink:href="#m3712d37c98" x="144.565785" y="294.994215" style="stroke: #000000"/>
     <use xlink:href="#m3712d37c98" x="143.996066" y="292.90811" style="stroke: #000000"/>
     <use xlink:href="#m3712d37c98" x="142.316646" y="291.906421" style="stroke: #000000"/>
     <use xlink:href="#m3712d37c98" x="141.041638" y="290.514994" style="stroke: #000000"/>
     <use xlink:href="#m3712d37c98" x="140.991756" y="288.05782" style="stroke: #000000"/>
     <use xlink:href="#m3712d37c98" x="140.192787" y="286.300943" style="stroke: #000000"/>
     <use xlink:href="#m3712d37c98" x="139.015931" y="284.873303" style="stroke: #000000"/>
     <use xlink:href="#m3712d37c98" x="137.443784" y="283.753785" style="stroke: #000000"/>
     <use xlink:href="#m3712d37c98" x="135.46352" y="282.917783" style="stroke: #000000"/>
     <use xlink:href="#m3712d37c98" x="133.918693" y="281.71889" style="stroke: #000000"/>
     <use xlink:href="#m3712d37c98" x="133.255856" y="279.879194" style="stroke: #000000"/>
     <use xlink:href="#m3712d37c98" x="131.753811" y="278.627118" style="stroke: #000000"/>
     <use xlink:href="#m3712d37c98" x="132.046388" y="276.186914" style="stroke: #000000"/>
     <use xlink:href="#m3712d37c98" x="129.698149" y="275.461676" style="stroke: #000000"/>
     <use xlink:href="#m3712d37c98" x="130.075709" y="273.03317" style="stroke: #000000"/>
     <use xlink:href="#m3712d37c98" x="129.131949" y="271.430984" style="stroke: #000000"/>
     <use xlink:href="#m3712d37c98" x="128.216295" y="269.812571" style="stroke: #000000"/>
    </g>
   </g>
   <g id="patch_3">
    <path d="M 221.4 51.84 
C 199.559058 51.84 177.930491 56.142189 157.752092 64.500356 
C 137.573692 72.858523 119.237879 85.110122 103.794 100.554 
C 88.350122 115.997879 76.098523 134.333692 67.740356 154.512092 
C 59.382189 174.690491 55.08 196.319058 55.08 218.16 
C 55.08 240.000942 59.382189 261.629509 67.740356 281.807908 
C 76.098523 301.986308 88.350122 320.322121 103.794 335.766 
C 119.237879 351.209878 137.573692 363.461477 157.752092 371.819644 
C 177.930491 380.177811 199.559058 384.48 221.4 384.48 
C 243.240942 384.48 264.869509 380.177811 285.047908 371.819644 
C 305.226308 363.461477 323.562121 351.209878 339.006 335.766 
C 354.449878 320.322121 366.701477 301.986308 375.059644 281.807908 
C 383.417811 261.629509 387.72 240.000942 387.72 218.16 
C 387.72 196.319058 383.417811 174.690491 375.059644 154.512092 
C 366.701477 134.333692 354.449878 115.997879 339.006 100.554 
C 323.562121 85.110122 305.226308 72.858523 285.047908 64.500356 
C 264.869509 56.142189 243.240942 51.84 221.4 51.84 
" style="fill: none; stroke: #ffffff; stroke-width: 1.25; stroke-linejoin: miter; stroke-linecap: square"/>
   </g>
  </g>
 </g>
 <defs>
  <clipPath id="pb359646507">
   <path d="M 387.72 218.16 
C 387.72 196.319058 383.417811 174.690491 375.059644 154.512092 
C 366.701477 134.333692 354.449878 115.997879 339.006 100.554 
C 323.562121 85.110122 305.226308 72.858523 285.047908 64.500356 
C 264.869509 56.142189 243.240942 51.84 221.4 51.84 
C 199.559058 51.84 177.930491 56.142189 157.752092 64.500356 
C 137.573692 72.858523 119.237879 85.110122 103.794 100.554 
C 88.350122 115.997879 76.098523 134.333692 67.740356 154.512092 
C 59.382189 174.690491 55.08 196.319058 55.08 218.16 
C 55.08 240.000942 59.382189 261.629509 67.740356 281.807908 
C 76.098523 301.986308 88.350122 320.322121 103.794 335.766 
C 119.237879 351.209878 137.573692 363.461477 157.752092 371.819644 
C 177.930491 380.177811 199.559058 384.48 221.4 384.48 
C 243.240942 384.48 264.869509 380.177811 285.047908 371.819644 
C 305.226308 363.461477 323.562121 351.209878 339.006 335.766 
C 354.449878 320.322121 366.701477 301.986308 375.059644 281.807908 
C 383.417811 261.629509 387.72 240.000942 387.72 218.16 
M 221.4 218.16 
C 221.4 218.16 221.4 218.16 221.4 218.16 
C 221.4 218.16 221.4 218.16 221.4 218.16 
C 221.4 218.16 221.4 218.16 221.4 218.16 
C 221.4 218.16 221.4 218.16 221.4 218.16 
C 221.4 218.16 221.4 218.16 221.4 218.16 
C 221.4 218.16 221.4 218.16 221.4 218.16 
C 221.4 218.16 221.4 218.16 221.4 218.16 
C 221.4 218.16 221.4 218.16 221.4 218.16 
C 221.4 218.16 221.4 218.16 221.4 218.16 
C 221.4 218.16 221.4 218.16 221.4 218.16 
C 221.4 218.16 221.4 218.16 221.4 218.16 
C 221.4 218.16 221.4 218.16 221.4 218.16 
C 221.4 218.16 221.4 218.16 221.4 218.16 
C 221.4 218.16 221.4 218.16 221.4 218.16 
C 221.4 218.16 221.4 218.16 221.4 218.16 
C 221.4 218.16 221.4 218.16 221.4 218.16 
z
"/>
  </clipPath>
 </defs>
</svg>
