<?xml version="1.0" encoding="utf-8" standalone="no"?>
<!DOCTYPE svg PUBLIC "-//W3C//DTD SVG 1.1//EN"
  "http://www.w3.org/Graphics/SVG/1.1/DTD/svg11.dtd">
<svg xmlns:xlink="http://www.w3.org/1999/xlink" width="460.8pt" height="345.6pt" viewBox="0 0 460.8 345.6" xmlns="http://www.w3.org/2000/svg" version="1.1">
 <metadata>
  <rdf:RDF xmlns:dc="http://purl.org/dc/elements/1.1/" xmlns:cc="http://creativecommons.org/ns#" xmlns:rdf="http://www.w3.org/1999/02/22-rdf-syntax-ns#">
   <cc:Work>
    <dc:type rdf:resource="http://purl.org/dc/dcmitype/StillImage"/>
    <dc:date>2024-08-07T12:53:05.801941</dc:date>
    <dc:format>image/svg+xml</dc:format>
    <dc:creator>
     <cc:Agent>
      <dc:title>Matplotlib v3.9.1, https://matplotlib.org/</dc:title>
     </cc:Agent>
    </dc:creator>
   </cc:Work>
  </rdf:RDF>
 </metadata>
 <defs>
  <style type="text/css">*{stroke-linejoin: round; stroke-linecap: butt}</style>
 </defs>
 <g id="figure_1">
  <g id="patch_1">
   <path d="M 0 345.6 
L 460.8 345.6 
L 460.8 0 
L 0 0 
z
" style="fill: #ffffff"/>
  </g>
  <g id="axes_1">
   <g id="patch_2">
    <path d="M 369.216 174.528 
C 369.216 157.055246 365.774248 139.752393 359.087715 123.609673 
C 352.401182 107.466954 342.599903 92.798303 330.2448 80.4432 
C 317.889697 68.088097 303.221046 58.286818 287.078327 51.600285 
C 270.935607 44.913752 253.632754 41.472 236.16 41.472 
C 218.687246 41.472 201.384393 44.913752 185.241673 51.600285 
C 169.098954 58.286818 154.430303 68.088097 142.0752 80.4432 
C 129.720097 92.798303 119.918818 107.466954 113.232285 123.609673 
C 106.545752 139.752393 103.104 157.055246 103.104 174.528 
C 103.104 192.000754 106.545752 209.303607 113.232285 225.446327 
C 119.918818 241.589046 129.720097 256.257697 142.0752 268.6128 
C 154.430303 280.967903 169.098954 290.769182 185.241673 297.455715 
C 201.384393 304.142248 218.687246 307.584 236.16 307.584 
C 253.632754 307.584 270.935607 304.142248 287.078327 297.455715 
C 303.221046 290.769182 317.889697 280.967903 330.2448 268.6128 
C 342.599903 256.257697 352.401182 241.589046 359.087715 225.446327 
C 365.774248 209.303607 369.216 192.000754 369.216 174.528 
M 236.16 174.528 
C 236.16 174.528 236.16 174.528 236.16 174.528 
C 236.16 174.528 236.16 174.528 236.16 174.528 
C 236.16 174.528 236.16 174.528 236.16 174.528 
C 236.16 174.528 236.16 174.528 236.16 174.528 
C 236.16 174.528 236.16 174.528 236.16 174.528 
C 236.16 174.528 236.16 174.528 236.16 174.528 
C 236.16 174.528 236.16 174.528 236.16 174.528 
C 236.16 174.528 236.16 174.528 236.16 174.528 
C 236.16 174.528 236.16 174.528 236.16 174.528 
C 236.16 174.528 236.16 174.528 236.16 174.528 
C 236.16 174.528 236.16 174.528 236.16 174.528 
C 236.16 174.528 236.16 174.528 236.16 174.528 
C 236.16 174.528 236.16 174.528 236.16 174.528 
C 236.16 174.528 236.16 174.528 236.16 174.528 
C 236.16 174.528 236.16 174.528 236.16 174.528 
C 236.16 174.528 236.16 174.528 236.16 174.528 
z
" style="fill: #eaeaf2"/>
   </g>
   <g id="matplotlib.axis_1">
    <g id="xtick_1">
     <g id="line2d_1">
      <path d="M 236.16 174.528 
L 236.16 41.472 
" clip-path="url(#p46c6739ace)" style="fill: none; stroke: #ffffff; stroke-linecap: round"/>
     </g>
     <g id="text_1">
      <!-- 0° -->
      <g style="fill: #262626" transform="translate(230.902344 27.815672) scale(0.11 -0.11)">
       <defs>
        <path id="ArialMT-30" d="M 266 2259 
Q 266 3072 433 3567 
Q 600 4063 929 4331 
Q 1259 4600 1759 4600 
Q 2128 4600 2406 4451 
Q 2684 4303 2865 4023 
Q 3047 3744 3150 3342 
Q 3253 2941 3253 2259 
Q 3253 1453 3087 958 
Q 2922 463 2592 192 
Q 2263 -78 1759 -78 
Q 1097 -78 719 397 
Q 266 969 266 2259 
z
M 844 2259 
Q 844 1131 1108 757 
Q 1372 384 1759 384 
Q 2147 384 2411 759 
Q 2675 1134 2675 2259 
Q 2675 3391 2411 3762 
Q 2147 4134 1753 4134 
Q 1366 4134 1134 3806 
Q 844 3388 844 2259 
z
" transform="scale(0.015625)"/>
        <path id="ArialMT-b0" d="M 400 3794 
Q 400 4153 654 4406 
Q 909 4659 1266 4659 
Q 1628 4659 1881 4406 
Q 2134 4153 2134 3794 
Q 2134 3434 1879 3179 
Q 1625 2925 1266 2925 
Q 909 2925 654 3178 
Q 400 3431 400 3794 
z
M 741 3794 
Q 741 3575 895 3420 
Q 1050 3266 1269 3266 
Q 1484 3266 1639 3420 
Q 1794 3575 1794 3794 
Q 1794 4013 1639 4167 
Q 1484 4322 1269 4322 
Q 1050 4322 895 4167 
Q 741 4013 741 3794 
z
" transform="scale(0.015625)"/>
       </defs>
       <use xlink:href="#ArialMT-30"/>
       <use xlink:href="#ArialMT-b0" x="55.615234"/>
      </g>
     </g>
    </g>
    <g id="xtick_2">
     <g id="line2d_2">
      <path d="M 236.16 174.528 
L 330.2448 80.4432 
" clip-path="url(#p46c6739ace)" style="fill: none; stroke: #ffffff; stroke-linecap: round"/>
     </g>
     <g id="text_2">
      <!-- 45° -->
      <g style="fill: #262626" transform="translate(333.59589 71.61961) scale(0.11 -0.11)">
       <defs>
        <path id="ArialMT-34" d="M 2069 0 
L 2069 1097 
L 81 1097 
L 81 1613 
L 2172 4581 
L 2631 4581 
L 2631 1613 
L 3250 1613 
L 3250 1097 
L 2631 1097 
L 2631 0 
L 2069 0 
z
M 2069 1613 
L 2069 3678 
L 634 1613 
L 2069 1613 
z
" transform="scale(0.015625)"/>
        <path id="ArialMT-35" d="M 266 1200 
L 856 1250 
Q 922 819 1161 601 
Q 1400 384 1738 384 
Q 2144 384 2425 690 
Q 2706 997 2706 1503 
Q 2706 1984 2436 2262 
Q 2166 2541 1728 2541 
Q 1456 2541 1237 2417 
Q 1019 2294 894 2097 
L 366 2166 
L 809 4519 
L 3088 4519 
L 3088 3981 
L 1259 3981 
L 1013 2750 
Q 1425 3038 1878 3038 
Q 2478 3038 2890 2622 
Q 3303 2206 3303 1553 
Q 3303 931 2941 478 
Q 2500 -78 1738 -78 
Q 1113 -78 717 272 
Q 322 622 266 1200 
z
" transform="scale(0.015625)"/>
       </defs>
       <use xlink:href="#ArialMT-34"/>
       <use xlink:href="#ArialMT-35" x="55.615234"/>
       <use xlink:href="#ArialMT-b0" x="111.230469"/>
      </g>
     </g>
    </g>
    <g id="xtick_3">
     <g id="line2d_3">
      <path d="M 236.16 174.528 
L 369.216 174.528 
" clip-path="url(#p46c6739ace)" style="fill: none; stroke: #ffffff; stroke-linecap: round"/>
     </g>
     <g id="text_3">
      <!-- 90° -->
      <g style="fill: #262626" transform="translate(377.399828 177.371672) scale(0.11 -0.11)">
       <defs>
        <path id="ArialMT-39" d="M 350 1059 
L 891 1109 
Q 959 728 1153 556 
Q 1347 384 1650 384 
Q 1909 384 2104 503 
Q 2300 622 2425 820 
Q 2550 1019 2634 1356 
Q 2719 1694 2719 2044 
Q 2719 2081 2716 2156 
Q 2547 1888 2255 1720 
Q 1963 1553 1622 1553 
Q 1053 1553 659 1965 
Q 266 2378 266 3053 
Q 266 3750 677 4175 
Q 1088 4600 1706 4600 
Q 2153 4600 2523 4359 
Q 2894 4119 3086 3673 
Q 3278 3228 3278 2384 
Q 3278 1506 3087 986 
Q 2897 466 2520 194 
Q 2144 -78 1638 -78 
Q 1100 -78 759 220 
Q 419 519 350 1059 
z
M 2653 3081 
Q 2653 3566 2395 3850 
Q 2138 4134 1775 4134 
Q 1400 4134 1122 3828 
Q 844 3522 844 3034 
Q 844 2597 1108 2323 
Q 1372 2050 1759 2050 
Q 2150 2050 2401 2323 
Q 2653 2597 2653 3081 
z
" transform="scale(0.015625)"/>
       </defs>
       <use xlink:href="#ArialMT-39"/>
       <use xlink:href="#ArialMT-30" x="55.615234"/>
       <use xlink:href="#ArialMT-b0" x="111.230469"/>
      </g>
     </g>
    </g>
    <g id="xtick_4">
     <g id="line2d_4">
      <path d="M 236.16 174.528 
L 330.2448 268.6128 
" clip-path="url(#p46c6739ace)" style="fill: none; stroke: #ffffff; stroke-linecap: round"/>
     </g>
     <g id="text_4">
      <!-- 135° -->
      <g style="fill: #262626" transform="translate(330.537374 283.123734) scale(0.11 -0.11)">
       <defs>
        <path id="ArialMT-31" d="M 2384 0 
L 1822 0 
L 1822 3584 
Q 1619 3391 1289 3197 
Q 959 3003 697 2906 
L 697 3450 
Q 1169 3672 1522 3987 
Q 1875 4303 2022 4600 
L 2384 4600 
L 2384 0 
z
" transform="scale(0.015625)"/>
        <path id="ArialMT-33" d="M 269 1209 
L 831 1284 
Q 928 806 1161 595 
Q 1394 384 1728 384 
Q 2125 384 2398 659 
Q 2672 934 2672 1341 
Q 2672 1728 2419 1979 
Q 2166 2231 1775 2231 
Q 1616 2231 1378 2169 
L 1441 2663 
Q 1497 2656 1531 2656 
Q 1891 2656 2178 2843 
Q 2466 3031 2466 3422 
Q 2466 3731 2256 3934 
Q 2047 4138 1716 4138 
Q 1388 4138 1169 3931 
Q 950 3725 888 3313 
L 325 3413 
Q 428 3978 793 4289 
Q 1159 4600 1703 4600 
Q 2078 4600 2393 4439 
Q 2709 4278 2876 4000 
Q 3044 3722 3044 3409 
Q 3044 3113 2884 2869 
Q 2725 2625 2413 2481 
Q 2819 2388 3044 2092 
Q 3269 1797 3269 1353 
Q 3269 753 2831 336 
Q 2394 -81 1725 -81 
Q 1122 -81 723 278 
Q 325 638 269 1209 
z
" transform="scale(0.015625)"/>
       </defs>
       <use xlink:href="#ArialMT-31"/>
       <use xlink:href="#ArialMT-33" x="55.615234"/>
       <use xlink:href="#ArialMT-35" x="111.230469"/>
       <use xlink:href="#ArialMT-b0" x="166.845703"/>
      </g>
     </g>
    </g>
    <g id="xtick_5">
     <g id="line2d_5">
      <path d="M 236.16 174.528 
L 236.16 307.584 
" clip-path="url(#p46c6739ace)" style="fill: none; stroke: #ffffff; stroke-linecap: round"/>
     </g>
     <g id="text_5">
      <!-- 180° -->
      <g style="fill: #262626" transform="translate(224.785313 326.927672) scale(0.11 -0.11)">
       <defs>
        <path id="ArialMT-38" d="M 1131 2484 
Q 781 2613 612 2850 
Q 444 3088 444 3419 
Q 444 3919 803 4259 
Q 1163 4600 1759 4600 
Q 2359 4600 2725 4251 
Q 3091 3903 3091 3403 
Q 3091 3084 2923 2848 
Q 2756 2613 2416 2484 
Q 2838 2347 3058 2040 
Q 3278 1734 3278 1309 
Q 3278 722 2862 322 
Q 2447 -78 1769 -78 
Q 1091 -78 675 323 
Q 259 725 259 1325 
Q 259 1772 486 2073 
Q 713 2375 1131 2484 
z
M 1019 3438 
Q 1019 3113 1228 2906 
Q 1438 2700 1772 2700 
Q 2097 2700 2305 2904 
Q 2513 3109 2513 3406 
Q 2513 3716 2298 3927 
Q 2084 4138 1766 4138 
Q 1444 4138 1231 3931 
Q 1019 3725 1019 3438 
z
M 838 1322 
Q 838 1081 952 856 
Q 1066 631 1291 507 
Q 1516 384 1775 384 
Q 2178 384 2440 643 
Q 2703 903 2703 1303 
Q 2703 1709 2433 1975 
Q 2163 2241 1756 2241 
Q 1359 2241 1098 1978 
Q 838 1716 838 1322 
z
" transform="scale(0.015625)"/>
       </defs>
       <use xlink:href="#ArialMT-31"/>
       <use xlink:href="#ArialMT-38" x="55.615234"/>
       <use xlink:href="#ArialMT-30" x="111.230469"/>
       <use xlink:href="#ArialMT-b0" x="166.845703"/>
      </g>
     </g>
    </g>
    <g id="xtick_6">
     <g id="line2d_6">
      <path d="M 236.16 174.528 
L 142.0752 268.6128 
" clip-path="url(#p46c6739ace)" style="fill: none; stroke: #ffffff; stroke-linecap: round"/>
     </g>
     <g id="text_6">
      <!-- 225° -->
      <g style="fill: #262626" transform="translate(119.033251 283.123734) scale(0.11 -0.11)">
       <defs>
        <path id="ArialMT-32" d="M 3222 541 
L 3222 0 
L 194 0 
Q 188 203 259 391 
Q 375 700 629 1000 
Q 884 1300 1366 1694 
Q 2113 2306 2375 2664 
Q 2638 3022 2638 3341 
Q 2638 3675 2398 3904 
Q 2159 4134 1775 4134 
Q 1369 4134 1125 3890 
Q 881 3647 878 3216 
L 300 3275 
Q 359 3922 746 4261 
Q 1134 4600 1788 4600 
Q 2447 4600 2831 4234 
Q 3216 3869 3216 3328 
Q 3216 3053 3103 2787 
Q 2991 2522 2730 2228 
Q 2469 1934 1863 1422 
Q 1356 997 1212 845 
Q 1069 694 975 541 
L 3222 541 
z
" transform="scale(0.015625)"/>
       </defs>
       <use xlink:href="#ArialMT-32"/>
       <use xlink:href="#ArialMT-32" x="55.615234"/>
       <use xlink:href="#ArialMT-35" x="111.230469"/>
       <use xlink:href="#ArialMT-b0" x="166.845703"/>
      </g>
     </g>
    </g>
    <g id="xtick_7">
     <g id="line2d_7">
      <path d="M 236.16 174.528 
L 103.104 174.528 
" clip-path="url(#p46c6739ace)" style="fill: none; stroke: #ffffff; stroke-linecap: round"/>
     </g>
     <g id="text_7">
      <!-- 270° -->
      <g style="fill: #262626" transform="translate(75.229313 177.371672) scale(0.11 -0.11)">
       <defs>
        <path id="ArialMT-37" d="M 303 3981 
L 303 4522 
L 3269 4522 
L 3269 4084 
Q 2831 3619 2401 2847 
Q 1972 2075 1738 1259 
Q 1569 684 1522 0 
L 944 0 
Q 953 541 1156 1306 
Q 1359 2072 1739 2783 
Q 2119 3494 2547 3981 
L 303 3981 
z
" transform="scale(0.015625)"/>
       </defs>
       <use xlink:href="#ArialMT-32"/>
       <use xlink:href="#ArialMT-37" x="55.615234"/>
       <use xlink:href="#ArialMT-30" x="111.230469"/>
       <use xlink:href="#ArialMT-b0" x="166.845703"/>
      </g>
     </g>
    </g>
    <g id="xtick_8">
     <g id="line2d_8">
      <path d="M 236.16 174.528 
L 142.0752 80.4432 
" clip-path="url(#p46c6739ace)" style="fill: none; stroke: #ffffff; stroke-linecap: round"/>
     </g>
     <g id="text_8">
      <!-- 315° -->
      <g style="fill: #262626" transform="translate(119.033251 71.61961) scale(0.11 -0.11)">
       <use xlink:href="#ArialMT-33"/>
       <use xlink:href="#ArialMT-31" x="55.615234"/>
       <use xlink:href="#ArialMT-35" x="111.230469"/>
       <use xlink:href="#ArialMT-b0" x="166.845703"/>
      </g>
     </g>
    </g>
   </g>
   <g id="matplotlib.axis_2">
    <g id="ytick_1">
     <g id="line2d_9">
      <path d="M 236.16 174.528 
C 236.16 174.528 236.16 174.528 236.16 174.528 
C 236.16 174.528 236.16 174.528 236.16 174.528 
C 236.16 174.528 236.16 174.528 236.16 174.528 
C 236.16 174.528 236.16 174.528 236.16 174.528 
C 236.16 174.528 236.16 174.528 236.16 174.528 
C 236.16 174.528 236.16 174.528 236.16 174.528 
C 236.16 174.528 236.16 174.528 236.16 174.528 
C 236.16 174.528 236.16 174.528 236.16 174.528 
C 236.16 174.528 236.16 174.528 236.16 174.528 
C 236.16 174.528 236.16 174.528 236.16 174.528 
C 236.16 174.528 236.16 174.528 236.16 174.528 
C 236.16 174.528 236.16 174.528 236.16 174.528 
C 236.16 174.528 236.16 174.528 236.16 174.528 
C 236.16 174.528 236.16 174.528 236.16 174.528 
C 236.16 174.528 236.16 174.528 236.16 174.528 
C 236.16 174.528 236.16 174.528 236.16 174.528 
" clip-path="url(#p46c6739ace)" style="fill: none; stroke: #ffffff; stroke-linecap: round"/>
     </g>
     <g id="text_9">
      <!-- 0.0 -->
      <g style="fill: #dc143c" transform="translate(236.16 172.34175) scale(0.11 -0.11)">
       <defs>
        <path id="ArialMT-2e" d="M 581 0 
L 581 641 
L 1222 641 
L 1222 0 
L 581 0 
z
" transform="scale(0.015625)"/>
       </defs>
       <use xlink:href="#ArialMT-30"/>
       <use xlink:href="#ArialMT-2e" x="55.615234"/>
       <use xlink:href="#ArialMT-30" x="83.398438"/>
      </g>
     </g>
    </g>
    <g id="ytick_2">
     <g id="line2d_10">
      <path d="M 236.16 161.2224 
C 237.907275 161.2224 239.637561 161.566575 241.251833 162.235228 
C 242.866105 162.903882 244.33297 163.88401 245.56848 165.11952 
C 246.80399 166.35503 247.784118 167.821895 248.452772 169.436167 
C 249.121425 171.050439 249.4656 172.780725 249.4656 174.528 
C 249.4656 176.275275 249.121425 178.005561 248.452772 179.619833 
C 247.784118 181.234105 246.80399 182.70097 245.56848 183.93648 
C 244.33297 185.17199 242.866105 186.152118 241.251833 186.820772 
C 239.637561 187.489425 237.907275 187.8336 236.16 187.8336 
C 234.412725 187.8336 232.682439 187.489425 231.068167 186.820772 
C 229.453895 186.152118 227.98703 185.17199 226.75152 183.93648 
C 225.51601 182.70097 224.535882 181.234105 223.867228 179.619833 
C 223.198575 178.005561 222.8544 176.275275 222.8544 174.528 
C 222.8544 172.780725 223.198575 171.050439 223.867228 169.436167 
C 224.535882 167.821895 225.51601 166.35503 226.75152 165.11952 
C 227.98703 163.88401 229.453895 162.903882 231.068167 162.235228 
C 232.682439 161.566575 234.412725 161.2224 236.16 161.2224 
" clip-path="url(#p46c6739ace)" style="fill: none; stroke: #ffffff; stroke-linecap: round"/>
     </g>
     <g id="text_10">
      <!-- 0.1 -->
      <g style="fill: #dc143c" transform="translate(241.251833 160.048978) scale(0.11 -0.11)">
       <use xlink:href="#ArialMT-30"/>
       <use xlink:href="#ArialMT-2e" x="55.615234"/>
       <use xlink:href="#ArialMT-31" x="83.398438"/>
      </g>
     </g>
    </g>
    <g id="ytick_3">
     <g id="line2d_11">
      <path d="M 236.16 147.9168 
C 239.654551 147.9168 243.115121 148.60515 246.343665 149.942457 
C 249.572209 151.279764 252.505939 153.240019 254.97696 155.71104 
C 257.447981 158.182061 259.408236 161.115791 260.745543 164.344335 
C 262.08285 167.572879 262.7712 171.033449 262.7712 174.528 
C 262.7712 178.022551 262.08285 181.483121 260.745543 184.711665 
C 259.408236 187.940209 257.447981 190.873939 254.97696 193.34496 
C 252.505939 195.815981 249.572209 197.776236 246.343665 199.113543 
C 243.115121 200.45085 239.654551 201.1392 236.16 201.1392 
C 232.665449 201.1392 229.204879 200.45085 225.976335 199.113543 
C 222.747791 197.776236 219.814061 195.815981 217.34304 193.34496 
C 214.872019 190.873939 212.911764 187.940209 211.574457 184.711665 
C 210.23715 181.483121 209.5488 178.022551 209.5488 174.528 
C 209.5488 171.033449 210.23715 167.572879 211.574457 164.344335 
C 212.911764 161.115791 214.872019 158.182061 217.34304 155.71104 
C 219.814061 153.240019 222.747791 151.279764 225.976335 149.942457 
C 229.204879 148.60515 232.665449 147.9168 236.16 147.9168 
" clip-path="url(#p46c6739ace)" style="fill: none; stroke: #ffffff; stroke-linecap: round"/>
     </g>
     <g id="text_11">
      <!-- 0.2 -->
      <g style="fill: #dc143c" transform="translate(246.343665 147.756207) scale(0.11 -0.11)">
       <use xlink:href="#ArialMT-30"/>
       <use xlink:href="#ArialMT-2e" x="55.615234"/>
       <use xlink:href="#ArialMT-32" x="83.398438"/>
      </g>
     </g>
    </g>
    <g id="ytick_4">
     <g id="line2d_12">
      <path d="M 236.16 134.6112 
C 241.401826 134.6112 246.592682 135.643725 251.435498 137.649685 
C 256.278314 139.655645 260.678909 142.596029 264.38544 146.30256 
C 268.091971 150.009091 271.032355 154.409686 273.038315 159.252502 
C 275.044275 164.095318 276.0768 169.286174 276.0768 174.528 
C 276.0768 179.769826 275.044275 184.960682 273.038315 189.803498 
C 271.032355 194.646314 268.091971 199.046909 264.38544 202.75344 
C 260.678909 206.459971 256.278314 209.400355 251.435498 211.406315 
C 246.592682 213.412275 241.401826 214.4448 236.16 214.4448 
C 230.918174 214.4448 225.727318 213.412275 220.884502 211.406315 
C 216.041686 209.400355 211.641091 206.459971 207.93456 202.75344 
C 204.228029 199.046909 201.287645 194.646314 199.281685 189.803498 
C 197.275725 184.960682 196.2432 179.769826 196.2432 174.528 
C 196.2432 169.286174 197.275725 164.095318 199.281685 159.252502 
C 201.287645 154.409686 204.228029 150.009091 207.93456 146.30256 
C 211.641091 142.596029 216.041686 139.655645 220.884502 137.649685 
C 225.727318 135.643725 230.918174 134.6112 236.16 134.6112 
" clip-path="url(#p46c6739ace)" style="fill: none; stroke: #ffffff; stroke-linecap: round"/>
     </g>
     <g id="text_12">
      <!-- 0.3 -->
      <g style="fill: #dc143c" transform="translate(251.435498 135.463435) scale(0.11 -0.11)">
       <use xlink:href="#ArialMT-30"/>
       <use xlink:href="#ArialMT-2e" x="55.615234"/>
       <use xlink:href="#ArialMT-33" x="83.398438"/>
      </g>
     </g>
    </g>
    <g id="ytick_5">
     <g id="line2d_13">
      <path d="M 236.16 121.3056 
C 243.149102 121.3056 250.070243 122.682301 256.527331 125.356914 
C 262.984419 128.031527 268.851879 131.952039 273.79392 136.89408 
C 278.735961 141.836121 282.656473 147.703581 285.331086 154.160669 
C 288.005699 160.617757 289.3824 167.538898 289.3824 174.528 
C 289.3824 181.517102 288.005699 188.438243 285.331086 194.895331 
C 282.656473 201.352419 278.735961 207.219879 273.79392 212.16192 
C 268.851879 217.103961 262.984419 221.024473 256.527331 223.699086 
C 250.070243 226.373699 243.149102 227.7504 236.16 227.7504 
C 229.170898 227.7504 222.249757 226.373699 215.792669 223.699086 
C 209.335581 221.024473 203.468121 217.103961 198.52608 212.16192 
C 193.584039 207.219879 189.663527 201.352419 186.988914 194.895331 
C 184.314301 188.438243 182.9376 181.517102 182.9376 174.528 
C 182.9376 167.538898 184.314301 160.617757 186.988914 154.160669 
C 189.663527 147.703581 193.584039 141.836121 198.52608 136.89408 
C 203.468121 131.952039 209.335581 128.031527 215.792669 125.356914 
C 222.249757 122.682301 229.170898 121.3056 236.16 121.3056 
" clip-path="url(#p46c6739ace)" style="fill: none; stroke: #ffffff; stroke-linecap: round"/>
     </g>
     <g id="text_13">
      <!-- 0.4 -->
      <g style="fill: #dc143c" transform="translate(256.527331 123.170664) scale(0.11 -0.11)">
       <use xlink:href="#ArialMT-30"/>
       <use xlink:href="#ArialMT-2e" x="55.615234"/>
       <use xlink:href="#ArialMT-34" x="83.398438"/>
      </g>
     </g>
    </g>
    <g id="ytick_6">
     <g id="line2d_14">
      <path d="M 236.16 108 
C 244.896377 108 253.547804 109.720876 261.619163 113.064142 
C 269.690523 116.407409 277.024849 121.308049 283.2024 127.4856 
C 289.379951 133.663151 294.280591 140.997477 297.623858 149.068837 
C 300.967124 157.140196 302.688 165.791623 302.688 174.528 
C 302.688 183.264377 300.967124 191.915804 297.623858 199.987163 
C 294.280591 208.058523 289.379951 215.392849 283.2024 221.5704 
C 277.024849 227.747951 269.690523 232.648591 261.619163 235.991858 
C 253.547804 239.335124 244.896377 241.056 236.16 241.056 
C 227.423623 241.056 218.772196 239.335124 210.700837 235.991858 
C 202.629477 232.648591 195.295151 227.747951 189.1176 221.5704 
C 182.940049 215.392849 178.039409 208.058523 174.696142 199.987163 
C 171.352876 191.915804 169.632 183.264377 169.632 174.528 
C 169.632 165.791623 171.352876 157.140196 174.696142 149.068837 
C 178.039409 140.997477 182.940049 133.663151 189.1176 127.4856 
C 195.295151 121.308049 202.629477 116.407409 210.700837 113.064142 
C 218.772196 109.720876 227.423623 108 236.16 108 
" clip-path="url(#p46c6739ace)" style="fill: none; stroke: #ffffff; stroke-linecap: round"/>
     </g>
     <g id="text_14">
      <!-- 0.5 -->
      <g style="fill: #dc143c" transform="translate(261.619163 110.877892) scale(0.11 -0.11)">
       <use xlink:href="#ArialMT-30"/>
       <use xlink:href="#ArialMT-2e" x="55.615234"/>
       <use xlink:href="#ArialMT-35" x="83.398438"/>
      </g>
     </g>
    </g>
    <g id="ytick_7">
     <g id="line2d_15">
      <path d="M 236.16 94.6944 
C 246.643652 94.6944 257.025364 96.759451 266.710996 100.771371 
C 276.396628 104.783291 285.197818 110.664058 292.61088 118.07712 
C 300.023942 125.490182 305.904709 134.291372 309.916629 143.977004 
C 313.928549 153.662636 315.9936 164.044348 315.9936 174.528 
C 315.9936 185.011652 313.928549 195.393364 309.916629 205.078996 
C 305.904709 214.764628 300.023942 223.565818 292.61088 230.97888 
C 285.197818 238.391942 276.396628 244.272709 266.710996 248.284629 
C 257.025364 252.296549 246.643652 254.3616 236.16 254.3616 
C 225.676348 254.3616 215.294636 252.296549 205.609004 248.284629 
C 195.923372 244.272709 187.122182 238.391942 179.70912 230.97888 
C 172.296058 223.565818 166.415291 214.764628 162.403371 205.078996 
C 158.391451 195.393364 156.3264 185.011652 156.3264 174.528 
C 156.3264 164.044348 158.391451 153.662636 162.403371 143.977004 
C 166.415291 134.291372 172.296058 125.490182 179.70912 118.07712 
C 187.122182 110.664058 195.923372 104.783291 205.609004 100.771371 
C 215.294636 96.759451 225.676348 94.6944 236.16 94.6944 
" clip-path="url(#p46c6739ace)" style="fill: none; stroke: #ffffff; stroke-linecap: round"/>
     </g>
     <g id="text_15">
      <!-- 0.6 -->
      <g style="fill: #dc143c" transform="translate(266.710996 98.585121) scale(0.11 -0.11)">
       <defs>
        <path id="ArialMT-36" d="M 3184 3459 
L 2625 3416 
Q 2550 3747 2413 3897 
Q 2184 4138 1850 4138 
Q 1581 4138 1378 3988 
Q 1113 3794 959 3422 
Q 806 3050 800 2363 
Q 1003 2672 1297 2822 
Q 1591 2972 1913 2972 
Q 2475 2972 2870 2558 
Q 3266 2144 3266 1488 
Q 3266 1056 3080 686 
Q 2894 316 2569 119 
Q 2244 -78 1831 -78 
Q 1128 -78 684 439 
Q 241 956 241 2144 
Q 241 3472 731 4075 
Q 1159 4600 1884 4600 
Q 2425 4600 2770 4297 
Q 3116 3994 3184 3459 
z
M 888 1484 
Q 888 1194 1011 928 
Q 1134 663 1356 523 
Q 1578 384 1822 384 
Q 2178 384 2434 671 
Q 2691 959 2691 1453 
Q 2691 1928 2437 2201 
Q 2184 2475 1800 2475 
Q 1419 2475 1153 2201 
Q 888 1928 888 1484 
z
" transform="scale(0.015625)"/>
       </defs>
       <use xlink:href="#ArialMT-30"/>
       <use xlink:href="#ArialMT-2e" x="55.615234"/>
       <use xlink:href="#ArialMT-36" x="83.398438"/>
      </g>
     </g>
    </g>
    <g id="ytick_8">
     <g id="line2d_16">
      <path d="M 236.16 81.3888 
C 248.390928 81.3888 260.502925 83.798026 271.802829 88.478599 
C 283.102732 93.159173 293.370788 100.020068 302.01936 108.66864 
C 310.667932 117.317212 317.528827 127.585268 322.209401 138.885171 
C 326.889974 150.185075 329.2992 162.297072 329.2992 174.528 
C 329.2992 186.758928 326.889974 198.870925 322.209401 210.170829 
C 317.528827 221.470732 310.667932 231.738788 302.01936 240.38736 
C 293.370788 249.035932 283.102732 255.896827 271.802829 260.577401 
C 260.502925 265.257974 248.390928 267.6672 236.16 267.6672 
C 223.929072 267.6672 211.817075 265.257974 200.517171 260.577401 
C 189.217268 255.896827 178.949212 249.035932 170.30064 240.38736 
C 161.652068 231.738788 154.791173 221.470732 150.110599 210.170829 
C 145.430026 198.870925 143.0208 186.758928 143.0208 174.528 
C 143.0208 162.297072 145.430026 150.185075 150.110599 138.885171 
C 154.791173 127.585268 161.652068 117.317212 170.30064 108.66864 
C 178.949212 100.020068 189.217268 93.159173 200.517171 88.478599 
C 211.817075 83.798026 223.929072 81.3888 236.16 81.3888 
" clip-path="url(#p46c6739ace)" style="fill: none; stroke: #ffffff; stroke-linecap: round"/>
     </g>
     <g id="text_16">
      <!-- 0.7 -->
      <g style="fill: #dc143c" transform="translate(271.802829 86.292349) scale(0.11 -0.11)">
       <use xlink:href="#ArialMT-30"/>
       <use xlink:href="#ArialMT-2e" x="55.615234"/>
       <use xlink:href="#ArialMT-37" x="83.398438"/>
      </g>
     </g>
    </g>
    <g id="ytick_9">
     <g id="line2d_17">
      <path d="M 236.16 68.0832 
C 250.138203 68.0832 263.980486 70.836601 276.894661 76.185828 
C 289.808837 81.535055 301.543758 89.376078 311.42784 99.26016 
C 321.311922 109.144242 329.152945 120.879163 334.502172 133.793339 
C 339.851399 146.707514 342.6048 160.549797 342.6048 174.528 
C 342.6048 188.506203 339.851399 202.348486 334.502172 215.262661 
C 329.152945 228.176837 321.311922 239.911758 311.42784 249.79584 
C 301.543758 259.679922 289.808837 267.520945 276.894661 272.870172 
C 263.980486 278.219399 250.138203 280.9728 236.16 280.9728 
C 222.181797 280.9728 208.339514 278.219399 195.425339 272.870172 
C 182.511163 267.520945 170.776242 259.679922 160.89216 249.79584 
C 151.008078 239.911758 143.167055 228.176837 137.817828 215.262661 
C 132.468601 202.348486 129.7152 188.506203 129.7152 174.528 
C 129.7152 160.549797 132.468601 146.707514 137.817828 133.793339 
C 143.167055 120.879163 151.008078 109.144242 160.89216 99.26016 
C 170.776242 89.376078 182.511163 81.535055 195.425339 76.185828 
C 208.339514 70.836601 222.181797 68.0832 236.16 68.0832 
" clip-path="url(#p46c6739ace)" style="fill: none; stroke: #ffffff; stroke-linecap: round"/>
     </g>
     <g id="text_17">
      <!-- 0.8 -->
      <g style="fill: #dc143c" transform="translate(276.894661 73.999578) scale(0.11 -0.11)">
       <use xlink:href="#ArialMT-30"/>
       <use xlink:href="#ArialMT-2e" x="55.615234"/>
       <use xlink:href="#ArialMT-38" x="83.398438"/>
      </g>
     </g>
    </g>
    <g id="ytick_10">
     <g id="line2d_18">
      <path d="M 236.16 54.7776 
C 251.885478 54.7776 267.458046 57.875176 281.986494 63.893056 
C 296.514942 69.910936 309.716727 78.732088 320.83632 89.85168 
C 331.955912 100.971273 340.777064 114.173058 346.794944 128.701506 
C 352.812824 143.229954 355.9104 158.802522 355.9104 174.528 
C 355.9104 190.253478 352.812824 205.826046 346.794944 220.354494 
C 340.777064 234.882942 331.955912 248.084727 320.83632 259.20432 
C 309.716727 270.323912 296.514942 279.145064 281.986494 285.162944 
C 267.458046 291.180824 251.885478 294.2784 236.16 294.2784 
C 220.434522 294.2784 204.861954 291.180824 190.333506 285.162944 
C 175.805058 279.145064 162.603273 270.323912 151.48368 259.20432 
C 140.364088 248.084727 131.542936 234.882942 125.525056 220.354494 
C 119.507176 205.826046 116.4096 190.253478 116.4096 174.528 
C 116.4096 158.802522 119.507176 143.229954 125.525056 128.701506 
C 131.542936 114.173058 140.364088 100.971273 151.48368 89.85168 
C 162.603273 78.732088 175.805058 69.910936 190.333506 63.893056 
C 204.861954 57.875176 220.434522 54.7776 236.16 54.7776 
" clip-path="url(#p46c6739ace)" style="fill: none; stroke: #ffffff; stroke-linecap: round"/>
     </g>
     <g id="text_18">
      <!-- 0.9 -->
      <g style="fill: #dc143c" transform="translate(281.986494 61.706806) scale(0.11 -0.11)">
       <use xlink:href="#ArialMT-30"/>
       <use xlink:href="#ArialMT-2e" x="55.615234"/>
       <use xlink:href="#ArialMT-39" x="83.398438"/>
      </g>
     </g>
    </g>
   </g>
   <g id="line2d_19">
    <defs>
     <path id="m2fc91ca7af" d="M 0 1.5 
C 0.397805 1.5 0.77937 1.341951 1.06066 1.06066 
C 1.341951 0.77937 1.5 0.397805 1.5 0 
C 1.5 -0.397805 1.341951 -0.77937 1.06066 -1.06066 
C 0.77937 -1.341951 0.397805 -1.5 0 -1.5 
C -0.397805 -1.5 -0.77937 -1.341951 -1.06066 -1.06066 
C -1.341951 -0.77937 -1.5 -0.397805 -1.5 0 
C -1.5 0.397805 -1.341951 0.77937 -1.06066 1.06066 
C -0.77937 1.341951 -0.397805 1.5 0 1.5 
z
" style="stroke: #ffffff"/>
    </defs>
    <g clip-path="url(#p46c6739ace)">
     <use xlink:href="#m2fc91ca7af" x="235.338411" y="268.67275" style="stroke: #ffffff"/>
     <use xlink:href="#m2fc91ca7af" x="235.69539" y="227.767063" style="stroke: #ffffff"/>
     <use xlink:href="#m2fc91ca7af" x="236.620348" y="121.777393" style="stroke: #ffffff"/>
     <use xlink:href="#m2fc91ca7af" x="236.993766" y="78.987896" style="stroke: #ffffff"/>
     <use xlink:href="#m2fc91ca7af" x="234.516885" y="268.661995" style="stroke: #ffffff"/>
     <use xlink:href="#m2fc91ca7af" x="235.230815" y="227.760981" style="stroke: #ffffff"/>
     <use xlink:href="#m2fc91ca7af" x="237.095474" y="120.934709" style="stroke: #ffffff"/>
     <use xlink:href="#m2fc91ca7af" x="237.827468" y="78.99881" style="stroke: #ffffff"/>
     <use xlink:href="#m2fc91ca7af" x="233.695484" y="268.644072" style="stroke: #ffffff"/>
     <use xlink:href="#m2fc91ca7af" x="234.798923" y="226.505448" style="stroke: #ffffff"/>
     <use xlink:href="#m2fc91ca7af" x="237.540903" y="121.793461" style="stroke: #ffffff"/>
     <use xlink:href="#m2fc91ca7af" x="238.661044" y="79.016999" style="stroke: #ffffff"/>
     <use xlink:href="#m2fc91ca7af" x="232.874271" y="268.618982" style="stroke: #ffffff"/>
     <use xlink:href="#m2fc91ca7af" x="237.941446" y="123.514075" style="stroke: #ffffff"/>
     <use xlink:href="#m2fc91ca7af" x="232.053307" y="268.586726" style="stroke: #ffffff"/>
     <use xlink:href="#m2fc91ca7af" x="233.837656" y="227.718416" style="stroke: #ffffff"/>
     <use xlink:href="#m2fc91ca7af" x="238.423867" y="122.676923" style="stroke: #ffffff"/>
     <use xlink:href="#m2fc91ca7af" x="231.232657" y="268.547307" style="stroke: #ffffff"/>
     <use xlink:href="#m2fc91ca7af" x="233.373577" y="227.696125" style="stroke: #ffffff"/>
     <use xlink:href="#m2fc91ca7af" x="238.83149" y="123.552935" style="stroke: #ffffff"/>
     <use xlink:href="#m2fc91ca7af" x="241.196095" y="78.433585" style="stroke: #ffffff"/>
     <use xlink:href="#m2fc91ca7af" x="230.412382" y="268.500729" style="stroke: #ffffff"/>
     <use xlink:href="#m2fc91ca7af" x="239.328448" y="122.72433" style="stroke: #ffffff"/>
     <use xlink:href="#m2fc91ca7af" x="229.592544" y="268.446994" style="stroke: #ffffff"/>
     <use xlink:href="#m2fc91ca7af" x="232.532994" y="226.396607" style="stroke: #ffffff"/>
     <use xlink:href="#m2fc91ca7af" x="239.839836" y="121.903887" style="stroke: #ffffff"/>
     <use xlink:href="#m2fc91ca7af" x="242.776998" y="79.900525" style="stroke: #ffffff"/>
     <use xlink:href="#m2fc91ca7af" x="228.773207" y="268.386107" style="stroke: #ffffff"/>
     <use xlink:href="#m2fc91ca7af" x="232.080499" y="226.362981" style="stroke: #ffffff"/>
     <use xlink:href="#m2fc91ca7af" x="240.232064" y="122.787517" style="stroke: #ffffff"/>
     <use xlink:href="#m2fc91ca7af" x="227.954432" y="268.318072" style="stroke: #ffffff"/>
     <use xlink:href="#m2fc91ca7af" x="240.608867" y="123.677221" style="stroke: #ffffff"/>
     <use xlink:href="#m2fc91ca7af" x="227.136282" y="268.242894" style="stroke: #ffffff"/>
     <use xlink:href="#m2fc91ca7af" x="230.93723" y="228.768541" style="stroke: #ffffff"/>
     <use xlink:href="#m2fc91ca7af" x="241.13444" y="122.866464" style="stroke: #ffffff"/>
     <use xlink:href="#m2fc91ca7af" x="226.318819" y="268.16058" style="stroke: #ffffff"/>
     <use xlink:href="#m2fc91ca7af" x="230.464097" y="228.720899" style="stroke: #ffffff"/>
     <use xlink:href="#m2fc91ca7af" x="241.585077" y="122.911841" style="stroke: #ffffff"/>
     <use xlink:href="#m2fc91ca7af" x="225.502106" y="268.071135" style="stroke: #ffffff"/>
     <use xlink:href="#m2fc91ca7af" x="230.132937" y="227.426849" style="stroke: #ffffff"/>
     <use xlink:href="#m2fc91ca7af" x="242.035301" y="122.961149" style="stroke: #ffffff"/>
     <use xlink:href="#m2fc91ca7af" x="246.975859" y="79.598427" style="stroke: #ffffff"/>
     <use xlink:href="#m2fc91ca7af" x="224.686204" y="267.974567" style="stroke: #ffffff"/>
     <use xlink:href="#m2fc91ca7af" x="229.671543" y="227.372239" style="stroke: #ffffff"/>
     <use xlink:href="#m2fc91ca7af" x="242.380823" y="123.863461" style="stroke: #ffffff"/>
     <use xlink:href="#m2fc91ca7af" x="223.871176" y="267.870882" style="stroke: #ffffff"/>
     <use xlink:href="#m2fc91ca7af" x="242.822712" y="123.919677" style="stroke: #ffffff"/>
     <use xlink:href="#m2fc91ca7af" x="223.057084" y="267.760089" style="stroke: #ffffff"/>
     <use xlink:href="#m2fc91ca7af" x="243.264094" y="123.979746" style="stroke: #ffffff"/>
     <use xlink:href="#m2fc91ca7af" x="222.24399" y="267.642196" style="stroke: #ffffff"/>
     <use xlink:href="#m2fc91ca7af" x="228.47461" y="225.952142" style="stroke: #ffffff"/>
     <use xlink:href="#m2fc91ca7af" x="243.704934" y="124.043665" style="stroke: #ffffff"/>
     <use xlink:href="#m2fc91ca7af" x="221.431956" y="267.517212" style="stroke: #ffffff"/>
     <use xlink:href="#m2fc91ca7af" x="244.279023" y="123.266506" style="stroke: #ffffff"/>
     <use xlink:href="#m2fc91ca7af" x="220.621043" y="267.385147" style="stroke: #ffffff"/>
     <use xlink:href="#m2fc91ca7af" x="227.372686" y="227.038921" style="stroke: #ffffff"/>
     <use xlink:href="#m2fc91ca7af" x="244.866693" y="122.498854" style="stroke: #ffffff"/>
     <use xlink:href="#m2fc91ca7af" x="251.929266" y="80.294583" style="stroke: #ffffff"/>
     <use xlink:href="#m2fc91ca7af" x="219.811313" y="267.24601" style="stroke: #ffffff"/>
     <use xlink:href="#m2fc91ca7af" x="227.131117" y="225.73334" style="stroke: #ffffff"/>
     <use xlink:href="#m2fc91ca7af" x="245.172423" y="123.41601" style="stroke: #ffffff"/>
     <use xlink:href="#m2fc91ca7af" x="219.002829" y="267.099812" style="stroke: #ffffff"/>
     <use xlink:href="#m2fc91ca7af" x="226.457582" y="226.877563" style="stroke: #ffffff"/>
     <use xlink:href="#m2fc91ca7af" x="245.773401" y="122.658731" style="stroke: #ffffff"/>
     <use xlink:href="#m2fc91ca7af" x="253.695849" y="79.913028" style="stroke: #ffffff"/>
     <use xlink:href="#m2fc91ca7af" x="218.195651" y="266.946564" style="stroke: #ffffff"/>
     <use xlink:href="#m2fc91ca7af" x="226.238836" y="225.567966" style="stroke: #ffffff"/>
     <use xlink:href="#m2fc91ca7af" x="246.225674" y="122.744598" style="stroke: #ffffff"/>
     <use xlink:href="#m2fc91ca7af" x="254.390605" y="80.739666" style="stroke: #ffffff"/>
     <use xlink:href="#m2fc91ca7af" x="217.389841" y="266.786279" style="stroke: #ffffff"/>
     <use xlink:href="#m2fc91ca7af" x="225.793811" y="225.479445" style="stroke: #ffffff"/>
     <use xlink:href="#m2fc91ca7af" x="246.67718" y="122.834408" style="stroke: #ffffff"/>
     <use xlink:href="#m2fc91ca7af" x="255.208358" y="80.902327" style="stroke: #ffffff"/>
     <use xlink:href="#m2fc91ca7af" x="216.585461" y="266.618967" style="stroke: #ffffff"/>
     <use xlink:href="#m2fc91ca7af" x="246.594306" y="125.43845" style="stroke: #ffffff"/>
     <use xlink:href="#m2fc91ca7af" x="215.782571" y="266.444643" style="stroke: #ffffff"/>
     <use xlink:href="#m2fc91ca7af" x="224.636519" y="226.507064" style="stroke: #ffffff"/>
     <use xlink:href="#m2fc91ca7af" x="247.577756" y="123.025832" style="stroke: #ffffff"/>
     <use xlink:href="#m2fc91ca7af" x="214.667335" y="267.622962" style="stroke: #ffffff"/>
     <use xlink:href="#m2fc91ca7af" x="223.9021" y="227.622797" style="stroke: #ffffff"/>
     <use xlink:href="#m2fc91ca7af" x="248.026757" y="123.12743" style="stroke: #ffffff"/>
     <use xlink:href="#m2fc91ca7af" x="214.181508" y="266.075008" style="stroke: #ffffff"/>
     <use xlink:href="#m2fc91ca7af" x="223.439233" y="227.513807" style="stroke: #ffffff"/>
     <use xlink:href="#m2fc91ca7af" x="248.076223" y="124.893358" style="stroke: #ffffff"/>
     <use xlink:href="#m2fc91ca7af" x="213.045877" y="267.233684" style="stroke: #ffffff"/>
     <use xlink:href="#m2fc91ca7af" x="248.715861" y="124.169191" style="stroke: #ffffff"/>
     <use xlink:href="#m2fc91ca7af" x="212.58714" y="265.677488" style="stroke: #ffffff"/>
     <use xlink:href="#m2fc91ca7af" x="222.829496" y="226.073236" style="stroke: #ffffff"/>
     <use xlink:href="#m2fc91ca7af" x="248.940652" y="125.108884" style="stroke: #ffffff"/>
     <use xlink:href="#m2fc91ca7af" x="211.792618" y="265.468308" style="stroke: #ffffff"/>
     <use xlink:href="#m2fc91ca7af" x="223.023918" y="223.552524" style="stroke: #ffffff"/>
     <use xlink:href="#m2fc91ca7af" x="249.371423" y="125.222296" style="stroke: #ffffff"/>
     <use xlink:href="#m2fc91ca7af" x="210.999952" y="265.252202" style="stroke: #ffffff"/>
     <use xlink:href="#m2fc91ca7af" x="221.931938" y="225.832736" style="stroke: #ffffff"/>
     <use xlink:href="#m2fc91ca7af" x="250.029799" y="124.515122" style="stroke: #ffffff"/>
     <use xlink:href="#m2fc91ca7af" x="210.209202" y="265.029188" style="stroke: #ffffff"/>
     <use xlink:href="#m2fc91ca7af" x="222.170323" y="223.315801" style="stroke: #ffffff"/>
     <use xlink:href="#m2fc91ca7af" x="250.46571" y="124.638061" style="stroke: #ffffff"/>
     <use xlink:href="#m2fc91ca7af" x="209.420428" y="264.799281" style="stroke: #ffffff"/>
     <use xlink:href="#m2fc91ca7af" x="221.038713" y="225.576608" style="stroke: #ffffff"/>
     <use xlink:href="#m2fc91ca7af" x="251.383636" y="123.133868" style="stroke: #ffffff"/>
     <use xlink:href="#m2fc91ca7af" x="263.295889" y="82.918775" style="stroke: #ffffff"/>
     <use xlink:href="#m2fc91ca7af" x="208.633691" y="264.5625" style="stroke: #ffffff"/>
     <use xlink:href="#m2fc91ca7af" x="220.958056" y="224.251319" style="stroke: #ffffff"/>
     <use xlink:href="#m2fc91ca7af" x="251.831549" y="123.268674" style="stroke: #ffffff"/>
     <use xlink:href="#m2fc91ca7af" x="207.84905" y="264.318862" style="stroke: #ffffff"/>
     <use xlink:href="#m2fc91ca7af" x="220.898001" y="222.932876" style="stroke: #ffffff"/>
     <use xlink:href="#m2fc91ca7af" x="252.023018" y="124.216936" style="stroke: #ffffff"/>
     <use xlink:href="#m2fc91ca7af" x="265.095803" y="82.755356" style="stroke: #ffffff"/>
     <use xlink:href="#m2fc91ca7af" x="207.066565" y="264.068387" style="stroke: #ffffff"/>
     <use xlink:href="#m2fc91ca7af" x="220.092579" y="223.978436" style="stroke: #ffffff"/>
     <use xlink:href="#m2fc91ca7af" x="252.72376" y="123.549987" style="stroke: #ffffff"/>
     <use xlink:href="#m2fc91ca7af" x="265.895559" y="83.01136" style="stroke: #ffffff"/>
     <use xlink:href="#m2fc91ca7af" x="206.286295" y="263.811093" style="stroke: #ffffff"/>
     <use xlink:href="#m2fc91ca7af" x="219.266354" y="225.017785" style="stroke: #ffffff"/>
     <use xlink:href="#m2fc91ca7af" x="252.356823" y="126.1208" style="stroke: #ffffff"/>
     <use xlink:href="#m2fc91ca7af" x="205.508301" y="263.546999" style="stroke: #ffffff"/>
     <use xlink:href="#m2fc91ca7af" x="253.057142" y="125.455137" style="stroke: #ffffff"/>
     <use xlink:href="#m2fc91ca7af" x="204.73264" y="263.276126" style="stroke: #ffffff"/>
     <use xlink:href="#m2fc91ca7af" x="218.387759" y="224.715261" style="stroke: #ffffff"/>
     <use xlink:href="#m2fc91ca7af" x="253.484735" y="125.604459" style="stroke: #ffffff"/>
     <use xlink:href="#m2fc91ca7af" x="203.959373" y="262.998495" style="stroke: #ffffff"/>
     <use xlink:href="#m2fc91ca7af" x="217.522841" y="225.733175" style="stroke: #ffffff"/>
     <use xlink:href="#m2fc91ca7af" x="254.202457" y="124.956756" style="stroke: #ffffff"/>
     <use xlink:href="#m2fc91ca7af" x="268.603533" y="85.390125" style="stroke: #ffffff"/>
     <use xlink:href="#m2fc91ca7af" x="203.188558" y="262.714127" style="stroke: #ffffff"/>
     <use xlink:href="#m2fc91ca7af" x="221.385091" y="214.045289" style="stroke: #ffffff"/>
     <use xlink:href="#m2fc91ca7af" x="254.036343" y="126.715549" style="stroke: #ffffff"/>
     <use xlink:href="#m2fc91ca7af" x="202.420254" y="262.423042" style="stroke: #ffffff"/>
     <use xlink:href="#m2fc91ca7af" x="255.369043" y="124.486731" style="stroke: #ffffff"/>
     <use xlink:href="#m2fc91ca7af" x="201.65452" y="262.125264" style="stroke: #ffffff"/>
     <use xlink:href="#m2fc91ca7af" x="216.647075" y="224.064446" style="stroke: #ffffff"/>
     <use xlink:href="#m2fc91ca7af" x="255.181588" y="126.238886" style="stroke: #ffffff"/>
     <use xlink:href="#m2fc91ca7af" x="200.891413" y="261.820816" style="stroke: #ffffff"/>
     <use xlink:href="#m2fc91ca7af" x="221.706023" y="210.302848" style="stroke: #ffffff"/>
     <use xlink:href="#m2fc91ca7af" x="255.281801" y="127.199881" style="stroke: #ffffff"/>
     <use xlink:href="#m2fc91ca7af" x="200.130992" y="261.509719" style="stroke: #ffffff"/>
     <use xlink:href="#m2fc91ca7af" x="216.262273" y="222.565361" style="stroke: #ffffff"/>
     <use xlink:href="#m2fc91ca7af" x="255.694084" y="127.36855" style="stroke: #ffffff"/>
     <use xlink:href="#m2fc91ca7af" x="199.373315" y="261.191999" style="stroke: #ffffff"/>
     <use xlink:href="#m2fc91ca7af" x="215.357049" y="223.536682" style="stroke: #ffffff"/>
     <use xlink:href="#m2fc91ca7af" x="256.439131" y="126.753361" style="stroke: #ffffff"/>
     <use xlink:href="#m2fc91ca7af" x="198.618439" y="260.867679" style="stroke: #ffffff"/>
     <use xlink:href="#m2fc91ca7af" x="214.431602" y="224.499895" style="stroke: #ffffff"/>
     <use xlink:href="#m2fc91ca7af" x="256.855266" y="126.932146" style="stroke: #ffffff"/>
     <use xlink:href="#m2fc91ca7af" x="274.257978" y="86.908649" style="stroke: #ffffff"/>
     <use xlink:href="#m2fc91ca7af" x="197.866423" y="260.536783" style="stroke: #ffffff"/>
     <use xlink:href="#m2fc91ca7af" x="215.51652" y="220.894015" style="stroke: #ffffff"/>
     <use xlink:href="#m2fc91ca7af" x="257.269825" y="127.114557" style="stroke: #ffffff"/>
     <use xlink:href="#m2fc91ca7af" x="197.117322" y="260.199338" style="stroke: #ffffff"/>
     <use xlink:href="#m2fc91ca7af" x="257.328025" y="128.079008" style="stroke: #ffffff"/>
     <use xlink:href="#m2fc91ca7af" x="196.371195" y="259.855369" style="stroke: #ffffff"/>
     <use xlink:href="#m2fc91ca7af" x="258.094089" y="127.490195" style="stroke: #ffffff"/>
     <use xlink:href="#m2fc91ca7af" x="195.628097" y="259.504901" style="stroke: #ffffff"/>
     <use xlink:href="#m2fc91ca7af" x="214.309873" y="220.337743" style="stroke: #ffffff"/>
     <use xlink:href="#m2fc91ca7af" x="258.135448" y="128.455516" style="stroke: #ffffff"/>
     <use xlink:href="#m2fc91ca7af" x="194.888087" y="259.147962" style="stroke: #ffffff"/>
     <use xlink:href="#m2fc91ca7af" x="258.1602" y="129.420906" style="stroke: #ffffff"/>
     <use xlink:href="#m2fc91ca7af" x="194.151219" y="258.78458" style="stroke: #ffffff"/>
     <use xlink:href="#m2fc91ca7af" x="211.846053" y="223.294234" style="stroke: #ffffff"/>
     <use xlink:href="#m2fc91ca7af" x="259.317879" y="128.080481" style="stroke: #ffffff"/>
     <use xlink:href="#m2fc91ca7af" x="278.485675" y="89.635828" style="stroke: #ffffff"/>
     <use xlink:href="#m2fc91ca7af" x="193.417551" y="258.41478" style="stroke: #ffffff"/>
     <use xlink:href="#m2fc91ca7af" x="213.67973" y="218.648013" style="stroke: #ffffff"/>
     <use xlink:href="#m2fc91ca7af" x="259.333954" y="129.046554" style="stroke: #ffffff"/>
     <use xlink:href="#m2fc91ca7af" x="192.687137" y="258.038593" style="stroke: #ffffff"/>
     <use xlink:href="#m2fc91ca7af" x="211.576" y="221.753424" style="stroke: #ffffff"/>
     <use xlink:href="#m2fc91ca7af" x="260.518447" y="127.735858" style="stroke: #ffffff"/>
     <use xlink:href="#m2fc91ca7af" x="280.27719" y="89.779666" style="stroke: #ffffff"/>
     <use xlink:href="#m2fc91ca7af" x="191.960034" y="257.656045" style="stroke: #ffffff"/>
     <use xlink:href="#m2fc91ca7af" x="211.164822" y="221.537092" style="stroke: #ffffff"/>
     <use xlink:href="#m2fc91ca7af" x="260.925853" y="127.950205" style="stroke: #ffffff"/>
     <use xlink:href="#m2fc91ca7af" x="281.01507" y="90.167883" style="stroke: #ffffff"/>
     <use xlink:href="#m2fc91ca7af" x="191.236297" y="257.267167" style="stroke: #ffffff"/>
     <use xlink:href="#m2fc91ca7af" x="210.755547" y="221.317181" style="stroke: #ffffff"/>
     <use xlink:href="#m2fc91ca7af" x="261.331373" y="128.168098" style="stroke: #ffffff"/>
     <use xlink:href="#m2fc91ca7af" x="281.749533" y="90.562525" style="stroke: #ffffff"/>
     <use xlink:href="#m2fc91ca7af" x="190.515982" y="256.871989" style="stroke: #ffffff"/>
     <use xlink:href="#m2fc91ca7af" x="210.348207" y="221.093707" style="stroke: #ffffff"/>
     <use xlink:href="#m2fc91ca7af" x="261.734976" y="128.389522" style="stroke: #ffffff"/>
     <use xlink:href="#m2fc91ca7af" x="282.811431" y="90.36659" style="stroke: #ffffff"/>
     <use xlink:href="#m2fc91ca7af" x="189.799142" y="256.470539" style="stroke: #ffffff"/>
     <use xlink:href="#m2fc91ca7af" x="209.327147" y="221.954908" style="stroke: #ffffff"/>
     <use xlink:href="#m2fc91ca7af" x="262.554619" y="127.875669" style="stroke: #ffffff"/>
     <use xlink:href="#m2fc91ca7af" x="283.207989" y="91.37096" style="stroke: #ffffff"/>
     <use xlink:href="#m2fc91ca7af" x="189.085833" y="256.062849" style="stroke: #ffffff"/>
     <use xlink:href="#m2fc91ca7af" x="210.162367" y="219.557221" style="stroke: #ffffff"/>
     <use xlink:href="#m2fc91ca7af" x="262.960727" y="128.107779" style="stroke: #ffffff"/>
     <use xlink:href="#m2fc91ca7af" x="283.931871" y="91.784692" style="stroke: #ffffff"/>
     <use xlink:href="#m2fc91ca7af" x="188.376108" y="255.64895" style="stroke: #ffffff"/>
     <use xlink:href="#m2fc91ca7af" x="209.770408" y="219.328637" style="stroke: #ffffff"/>
     <use xlink:href="#m2fc91ca7af" x="262.067306" y="130.546122" style="stroke: #ffffff"/>
     <use xlink:href="#m2fc91ca7af" x="187.670023" y="255.228874" style="stroke: #ffffff"/>
     <use xlink:href="#m2fc91ca7af" x="208.738811" y="220.164522" style="stroke: #ffffff"/>
     <use xlink:href="#m2fc91ca7af" x="262.890721" y="130.04061" style="stroke: #ffffff"/>
     <use xlink:href="#m2fc91ca7af" x="186.96763" y="254.802651" style="stroke: #ffffff"/>
     <use xlink:href="#m2fc91ca7af" x="208.341607" y="219.923492" style="stroke: #ffffff"/>
     <use xlink:href="#m2fc91ca7af" x="263.277924" y="130.27557" style="stroke: #ffffff"/>
     <use xlink:href="#m2fc91ca7af" x="286.438098" y="92.4816" style="stroke: #ffffff"/>
     <use xlink:href="#m2fc91ca7af" x="186.268984" y="254.370316" style="stroke: #ffffff"/>
     <use xlink:href="#m2fc91ca7af" x="263.20974" y="131.239368" style="stroke: #ffffff"/>
     <use xlink:href="#m2fc91ca7af" x="185.574137" y="253.9319" style="stroke: #ffffff"/>
     <use xlink:href="#m2fc91ca7af" x="207.553583" y="219.43108" style="stroke: #ffffff"/>
     <use xlink:href="#m2fc91ca7af" x="263.58647" y="131.477066" style="stroke: #ffffff"/>
     <use xlink:href="#m2fc91ca7af" x="184.883142" y="253.487437" style="stroke: #ffffff"/>
     <use xlink:href="#m2fc91ca7af" x="209.862304" y="215.022901" style="stroke: #ffffff"/>
     <use xlink:href="#m2fc91ca7af" x="264.891134" y="130.285934" style="stroke: #ffffff"/>
     <use xlink:href="#m2fc91ca7af" x="288.196851" y="94.398276" style="stroke: #ffffff"/>
     <use xlink:href="#m2fc91ca7af" x="184.196052" y="253.036961" style="stroke: #ffffff"/>
     <use xlink:href="#m2fc91ca7af" x="206.774273" y="218.92499" style="stroke: #ffffff"/>
     <use xlink:href="#m2fc91ca7af" x="264.805792" y="131.24893" style="stroke: #ffffff"/>
     <use xlink:href="#m2fc91ca7af" x="183.51292" y="252.580507" style="stroke: #ffffff"/>
     <use xlink:href="#m2fc91ca7af" x="264.704013" y="132.20976" style="stroke: #ffffff"/>
     <use xlink:href="#m2fc91ca7af" x="182.833796" y="252.118108" style="stroke: #ffffff"/>
     <use xlink:href="#m2fc91ca7af" x="264.585799" y="133.168205" style="stroke: #ffffff"/>
     <use xlink:href="#m2fc91ca7af" x="182.158734" y="251.649801" style="stroke: #ffffff"/>
     <use xlink:href="#m2fc91ca7af" x="206.336741" y="217.120028" style="stroke: #ffffff"/>
     <use xlink:href="#m2fc91ca7af" x="266.417657" y="131.315587" style="stroke: #ffffff"/>
     <use xlink:href="#m2fc91ca7af" x="291.353132" y="95.704038" style="stroke: #ffffff"/>
     <use xlink:href="#m2fc91ca7af" x="181.487784" y="251.17562" style="stroke: #ffffff"/>
     <use xlink:href="#m2fc91ca7af" x="206.687048" y="215.847555" style="stroke: #ffffff"/>
     <use xlink:href="#m2fc91ca7af" x="267.286523" y="130.890224" style="stroke: #ffffff"/>
     <use xlink:href="#m2fc91ca7af" x="292.038891" y="96.188684" style="stroke: #ffffff"/>
     <use xlink:href="#m2fc91ca7af" x="180.820998" y="250.695603" style="stroke: #ffffff"/>
     <use xlink:href="#m2fc91ca7af" x="206.327593" y="215.588785" style="stroke: #ffffff"/>
     <use xlink:href="#m2fc91ca7af" x="266.666334" y="132.539634" style="stroke: #ffffff"/>
     <use xlink:href="#m2fc91ca7af" x="180.158425" y="250.209785" style="stroke: #ffffff"/>
     <use xlink:href="#m2fc91ca7af" x="267.031585" y="132.807447" style="stroke: #ffffff"/>
     <use xlink:href="#m2fc91ca7af" x="179.500118" y="249.718203" style="stroke: #ffffff"/>
     <use xlink:href="#m2fc91ca7af" x="204.118712" y="217.048225" style="stroke: #ffffff"/>
     <use xlink:href="#m2fc91ca7af" x="267.907317" y="132.397888" style="stroke: #ffffff"/>
     <use xlink:href="#m2fc91ca7af" x="178.846125" y="249.220896" style="stroke: #ffffff"/>
     <use xlink:href="#m2fc91ca7af" x="203.748878" y="216.766997" style="stroke: #ffffff"/>
     <use xlink:href="#m2fc91ca7af" x="267.755007" y="133.352585" style="stroke: #ffffff"/>
     <use xlink:href="#m2fc91ca7af" x="294.323345" y="98.728053" style="stroke: #ffffff"/>
     <use xlink:href="#m2fc91ca7af" x="178.196498" y="248.7179" style="stroke: #ffffff"/>
     <use xlink:href="#m2fc91ca7af" x="204.148518" y="215.500828" style="stroke: #ffffff"/>
     <use xlink:href="#m2fc91ca7af" x="267.586453" y="134.303975" style="stroke: #ffffff"/>
     <use xlink:href="#m2fc91ca7af" x="177.551284" y="248.209254" style="stroke: #ffffff"/>
     <use xlink:href="#m2fc91ca7af" x="268.999276" y="133.243372" style="stroke: #ffffff"/>
     <use xlink:href="#m2fc91ca7af" x="176.910533" y="247.694998" style="stroke: #ffffff"/>
     <use xlink:href="#m2fc91ca7af" x="203.438319" y="214.93591" style="stroke: #ffffff"/>
     <use xlink:href="#m2fc91ca7af" x="269.358297" y="133.531518" style="stroke: #ffffff"/>
     <use xlink:href="#m2fc91ca7af" x="176.274295" y="247.175169" style="stroke: #ffffff"/>
     <use xlink:href="#m2fc91ca7af" x="219.812587" y="194.358997" style="stroke: #ffffff"/>
     <use xlink:href="#m2fc91ca7af" x="268.628626" y="135.140407" style="stroke: #ffffff"/>
     <use xlink:href="#m2fc91ca7af" x="175.642617" y="246.649808" style="stroke: #ffffff"/>
     <use xlink:href="#m2fc91ca7af" x="269.520982" y="134.769929" style="stroke: #ffffff"/>
     <use xlink:href="#m2fc91ca7af" x="175.015548" y="246.118955" style="stroke: #ffffff"/>
     <use xlink:href="#m2fc91ca7af" x="212.647948" y="202.057075" style="stroke: #ffffff"/>
     <use xlink:href="#m2fc91ca7af" x="269.311089" y="135.713062" style="stroke: #ffffff"/>
     <use xlink:href="#m2fc91ca7af" x="174.393135" y="245.58265" style="stroke: #ffffff"/>
     <use xlink:href="#m2fc91ca7af" x="201.230702" y="214.709561" style="stroke: #ffffff"/>
     <use xlink:href="#m2fc91ca7af" x="270.209775" y="135.358214" style="stroke: #ffffff"/>
     <use xlink:href="#m2fc91ca7af" x="173.775426" y="245.040934" style="stroke: #ffffff"/>
     <use xlink:href="#m2fc91ca7af" x="200.881386" y="214.403219" style="stroke: #ffffff"/>
     <use xlink:href="#m2fc91ca7af" x="271.114941" y="135.018626" style="stroke: #ffffff"/>
     <use xlink:href="#m2fc91ca7af" x="173.162468" y="244.493848" style="stroke: #ffffff"/>
     <use xlink:href="#m2fc91ca7af" x="200.534757" y="214.093841" style="stroke: #ffffff"/>
     <use xlink:href="#m2fc91ca7af" x="270.315785" y="136.594157" style="stroke: #ffffff"/>
     <use xlink:href="#m2fc91ca7af" x="172.554307" y="243.941433" style="stroke: #ffffff"/>
     <use xlink:href="#m2fc91ca7af" x="271.223453" y="136.262956" style="stroke: #ffffff"/>
     <use xlink:href="#m2fc91ca7af" x="171.95099" y="243.383733" style="stroke: #ffffff"/>
     <use xlink:href="#m2fc91ca7af" x="199.849664" y="213.466068" style="stroke: #ffffff"/>
     <use xlink:href="#m2fc91ca7af" x="270.97262" y="137.196035" style="stroke: #ffffff"/>
     <use xlink:href="#m2fc91ca7af" x="171.352563" y="242.820789" style="stroke: #ffffff"/>
     <use xlink:href="#m2fc91ca7af" x="201.223306" y="211.343594" style="stroke: #ffffff"/>
     <use xlink:href="#m2fc91ca7af" x="271.297073" y="137.50125" style="stroke: #ffffff"/>
     <use xlink:href="#m2fc91ca7af" x="170.759071" y="242.252644" style="stroke: #ffffff"/>
     <use xlink:href="#m2fc91ca7af" x="198.307087" y="213.725839" style="stroke: #ffffff"/>
     <use xlink:href="#m2fc91ca7af" x="272.805046" y="136.580944" style="stroke: #ffffff"/>
     <use xlink:href="#m2fc91ca7af" x="170.17056" y="241.679342" style="stroke: #ffffff"/>
     <use xlink:href="#m2fc91ca7af" x="271.937928" y="138.120116" style="stroke: #ffffff"/>
     <use xlink:href="#m2fc91ca7af" x="169.587074" y="241.100926" style="stroke: #ffffff"/>
     <use xlink:href="#m2fc91ca7af" x="199.393795" y="211.294205" style="stroke: #ffffff"/>
     <use xlink:href="#m2fc91ca7af" x="274.061952" y="136.626048" style="stroke: #ffffff"/>
     <use xlink:href="#m2fc91ca7af" x="304.202262" y="106.485738" style="stroke: #ffffff"/>
     <use xlink:href="#m2fc91ca7af" x="169.008658" y="240.51744" style="stroke: #ffffff"/>
     <use xlink:href="#m2fc91ca7af" x="199.074354" y="210.971963" style="stroke: #ffffff"/>
     <use xlink:href="#m2fc91ca7af" x="273.785827" y="137.553203" style="stroke: #ffffff"/>
     <use xlink:href="#m2fc91ca7af" x="304.306617" y="107.560506" style="stroke: #ffffff"/>
    </g>
   </g>
   <g id="patch_3">
    <path d="M 236.16 41.472 
C 218.687246 41.472 201.384393 44.913752 185.241673 51.600285 
C 169.098954 58.286818 154.430303 68.088097 142.0752 80.4432 
C 129.720097 92.798303 119.918818 107.466954 113.232285 123.609673 
C 106.545752 139.752393 103.104 157.055246 103.104 174.528 
C 103.104 192.000754 106.545752 209.303607 113.232285 225.446327 
C 119.918818 241.589046 129.720097 256.257697 142.0752 268.6128 
C 154.430303 280.967903 169.098954 290.769182 185.241673 297.455715 
C 201.384393 304.142248 218.687246 307.584 236.16 307.584 
C 253.632754 307.584 270.935607 304.142248 287.078327 297.455715 
C 303.221046 290.769182 317.889697 280.967903 330.2448 268.6128 
C 342.599903 256.257697 352.401182 241.589046 359.087715 225.446327 
C 365.774248 209.303607 369.216 192.000754 369.216 174.528 
C 369.216 157.055246 365.774248 139.752393 359.087715 123.609673 
C 352.401182 107.466954 342.599903 92.798303 330.2448 80.4432 
C 317.889697 68.088097 303.221046 58.286818 287.078327 51.600285 
C 270.935607 44.913752 253.632754 41.472 236.16 41.472 
" style="fill: none; stroke: #ffffff; stroke-width: 1.25; stroke-linejoin: miter; stroke-linecap: square"/>
   </g>
  </g>
 </g>
 <defs>
  <clipPath id="p46c6739ace">
   <path d="M 369.216 174.528 
C 369.216 157.055246 365.774248 139.752393 359.087715 123.609673 
C 352.401182 107.466954 342.599903 92.798303 330.2448 80.4432 
C 317.889697 68.088097 303.221046 58.286818 287.078327 51.600285 
C 270.935607 44.913752 253.632754 41.472 236.16 41.472 
C 218.687246 41.472 201.384393 44.913752 185.241673 51.600285 
C 169.098954 58.286818 154.430303 68.088097 142.0752 80.4432 
C 129.720097 92.798303 119.918818 107.466954 113.232285 123.609673 
C 106.545752 139.752393 103.104 157.055246 103.104 174.528 
C 103.104 192.000754 106.545752 209.303607 113.232285 225.446327 
C 119.918818 241.589046 129.720097 256.257697 142.0752 268.6128 
C 154.430303 280.967903 169.098954 290.769182 185.241673 297.455715 
C 201.384393 304.142248 218.687246 307.584 236.16 307.584 
C 253.632754 307.584 270.935607 304.142248 287.078327 297.455715 
C 303.221046 290.769182 317.889697 280.967903 330.2448 268.6128 
C 342.599903 256.257697 352.401182 241.589046 359.087715 225.446327 
C 365.774248 209.303607 369.216 192.000754 369.216 174.528 
M 236.16 174.528 
C 236.16 174.528 236.16 174.528 236.16 174.528 
C 236.16 174.528 236.16 174.528 236.16 174.528 
C 236.16 174.528 236.16 174.528 236.16 174.528 
C 236.16 174.528 236.16 174.528 236.16 174.528 
C 236.16 174.528 236.16 174.528 236.16 174.528 
C 236.16 174.528 236.16 174.528 236.16 174.528 
C 236.16 174.528 236.16 174.528 236.16 174.528 
C 236.16 174.528 236.16 174.528 236.16 174.528 
C 236.16 174.528 236.16 174.528 236.16 174.528 
C 236.16 174.528 236.16 174.528 236.16 174.528 
C 236.16 174.528 236.16 174.528 236.16 174.528 
C 236.16 174.528 236.16 174.528 236.16 174.528 
C 236.16 174.528 236.16 174.528 236.16 174.528 
C 236.16 174.528 236.16 174.528 236.16 174.528 
C 236.16 174.528 236.16 174.528 236.16 174.528 
C 236.16 174.528 236.16 174.528 236.16 174.528 
z
"/>
  </clipPath>
 </defs>
</svg>
