<?xml version="1.0" encoding="utf-8" standalone="no"?>
<!DOCTYPE svg PUBLIC "-//W3C//DTD SVG 1.1//EN"
  "http://www.w3.org/Graphics/SVG/1.1/DTD/svg11.dtd">
<svg xmlns:xlink="http://www.w3.org/1999/xlink" width="432pt" height="432pt" viewBox="0 0 432 432" xmlns="http://www.w3.org/2000/svg" version="1.1">
 <metadata>
  <rdf:RDF xmlns:dc="http://purl.org/dc/elements/1.1/" xmlns:cc="http://creativecommons.org/ns#" xmlns:rdf="http://www.w3.org/1999/02/22-rdf-syntax-ns#">
   <cc:Work>
    <dc:type rdf:resource="http://purl.org/dc/dcmitype/StillImage"/>
    <dc:date>2024-09-06T16:20:43.179520</dc:date>
    <dc:format>image/svg+xml</dc:format>
    <dc:creator>
     <cc:Agent>
      <dc:title>Matplotlib v3.9.1, https://matplotlib.org/</dc:title>
     </cc:Agent>
    </dc:creator>
   </cc:Work>
  </rdf:RDF>
 </metadata>
 <defs>
  <style type="text/css">*{stroke-linejoin: round; stroke-linecap: butt}</style>
 </defs>
 <g id="figure_1">
  <g id="patch_1">
   <path d="M 0 432 
L 432 432 
L 432 0 
L 0 0 
z
" style="fill: #ffffff"/>
  </g>
  <g id="axes_1">
   <g id="patch_2">
    <path d="M 387.72 218.16 
C 387.72 196.319058 383.417811 174.690491 375.059644 154.512092 
C 366.701477 134.333692 354.449878 115.997879 339.006 100.554 
C 323.562121 85.110122 305.226308 72.858523 285.047908 64.500356 
C 264.869509 56.142189 243.240942 51.84 221.4 51.84 
C 199.559058 51.84 177.930491 56.142189 157.752092 64.500356 
C 137.573692 72.858523 119.237879 85.110122 103.794 100.554 
C 88.350122 115.997879 76.098523 134.333692 67.740356 154.512092 
C 59.382189 174.690491 55.08 196.319058 55.08 218.16 
C 55.08 240.000942 59.382189 261.629509 67.740356 281.807908 
C 76.098523 301.986308 88.350122 320.322121 103.794 335.766 
C 119.237879 351.209878 137.573692 363.461477 157.752092 371.819644 
C 177.930491 380.177811 199.559058 384.48 221.4 384.48 
C 243.240942 384.48 264.869509 380.177811 285.047908 371.819644 
C 305.226308 363.461477 323.562121 351.209878 339.006 335.766 
C 354.449878 320.322121 366.701477 301.986308 375.059644 281.807908 
C 383.417811 261.629509 387.72 240.000942 387.72 218.16 
M 221.4 218.16 
C 221.4 218.16 221.4 218.16 221.4 218.16 
C 221.4 218.16 221.4 218.16 221.4 218.16 
C 221.4 218.16 221.4 218.16 221.4 218.16 
C 221.4 218.16 221.4 218.16 221.4 218.16 
C 221.4 218.16 221.4 218.16 221.4 218.16 
C 221.4 218.16 221.4 218.16 221.4 218.16 
C 221.4 218.16 221.4 218.16 221.4 218.16 
C 221.4 218.16 221.4 218.16 221.4 218.16 
C 221.4 218.16 221.4 218.16 221.4 218.16 
C 221.4 218.16 221.4 218.16 221.4 218.16 
C 221.4 218.16 221.4 218.16 221.4 218.16 
C 221.4 218.16 221.4 218.16 221.4 218.16 
C 221.4 218.16 221.4 218.16 221.4 218.16 
C 221.4 218.16 221.4 218.16 221.4 218.16 
C 221.4 218.16 221.4 218.16 221.4 218.16 
C 221.4 218.16 221.4 218.16 221.4 218.16 
z
" style="fill: #eaeaf2"/>
   </g>
   <g id="matplotlib.axis_1">
    <g id="xtick_1">
     <g id="line2d_1">
      <path d="M 221.4 218.16 
L 221.4 51.84 
" clip-path="url(#pa2899fe3e4)" style="fill: none; stroke: #ffffff; stroke-linecap: round"/>
     </g>
     <g id="text_1">
      <!-- 0° -->
      <g style="fill: #262626" transform="translate(216.142344 38.183672) scale(0.11 -0.11)">
       <defs>
        <path id="ArialMT-30" d="M 266 2259 
Q 266 3072 433 3567 
Q 600 4063 929 4331 
Q 1259 4600 1759 4600 
Q 2128 4600 2406 4451 
Q 2684 4303 2865 4023 
Q 3047 3744 3150 3342 
Q 3253 2941 3253 2259 
Q 3253 1453 3087 958 
Q 2922 463 2592 192 
Q 2263 -78 1759 -78 
Q 1097 -78 719 397 
Q 266 969 266 2259 
z
M 844 2259 
Q 844 1131 1108 757 
Q 1372 384 1759 384 
Q 2147 384 2411 759 
Q 2675 1134 2675 2259 
Q 2675 3391 2411 3762 
Q 2147 4134 1753 4134 
Q 1366 4134 1134 3806 
Q 844 3388 844 2259 
z
" transform="scale(0.015625)"/>
        <path id="ArialMT-b0" d="M 400 3794 
Q 400 4153 654 4406 
Q 909 4659 1266 4659 
Q 1628 4659 1881 4406 
Q 2134 4153 2134 3794 
Q 2134 3434 1879 3179 
Q 1625 2925 1266 2925 
Q 909 2925 654 3178 
Q 400 3431 400 3794 
z
M 741 3794 
Q 741 3575 895 3420 
Q 1050 3266 1269 3266 
Q 1484 3266 1639 3420 
Q 1794 3575 1794 3794 
Q 1794 4013 1639 4167 
Q 1484 4322 1269 4322 
Q 1050 4322 895 4167 
Q 741 4013 741 3794 
z
" transform="scale(0.015625)"/>
       </defs>
       <use xlink:href="#ArialMT-30"/>
       <use xlink:href="#ArialMT-b0" x="55.615234"/>
      </g>
     </g>
    </g>
    <g id="xtick_2">
     <g id="line2d_2">
      <path d="M 221.4 218.16 
L 339.006 100.554 
" clip-path="url(#pa2899fe3e4)" style="fill: none; stroke: #ffffff; stroke-linecap: round"/>
     </g>
     <g id="text_2">
      <!-- 45° -->
      <g style="fill: #262626" transform="translate(342.35709 91.73041) scale(0.11 -0.11)">
       <defs>
        <path id="ArialMT-34" d="M 2069 0 
L 2069 1097 
L 81 1097 
L 81 1613 
L 2172 4581 
L 2631 4581 
L 2631 1613 
L 3250 1613 
L 3250 1097 
L 2631 1097 
L 2631 0 
L 2069 0 
z
M 2069 1613 
L 2069 3678 
L 634 1613 
L 2069 1613 
z
" transform="scale(0.015625)"/>
        <path id="ArialMT-35" d="M 266 1200 
L 856 1250 
Q 922 819 1161 601 
Q 1400 384 1738 384 
Q 2144 384 2425 690 
Q 2706 997 2706 1503 
Q 2706 1984 2436 2262 
Q 2166 2541 1728 2541 
Q 1456 2541 1237 2417 
Q 1019 2294 894 2097 
L 366 2166 
L 809 4519 
L 3088 4519 
L 3088 3981 
L 1259 3981 
L 1013 2750 
Q 1425 3038 1878 3038 
Q 2478 3038 2890 2622 
Q 3303 2206 3303 1553 
Q 3303 931 2941 478 
Q 2500 -78 1738 -78 
Q 1113 -78 717 272 
Q 322 622 266 1200 
z
" transform="scale(0.015625)"/>
       </defs>
       <use xlink:href="#ArialMT-34"/>
       <use xlink:href="#ArialMT-35" x="55.615234"/>
       <use xlink:href="#ArialMT-b0" x="111.230469"/>
      </g>
     </g>
    </g>
    <g id="xtick_3">
     <g id="line2d_3">
      <path d="M 221.4 218.16 
L 387.72 218.16 
" clip-path="url(#pa2899fe3e4)" style="fill: none; stroke: #ffffff; stroke-linecap: round"/>
     </g>
     <g id="text_3">
      <!-- 90° -->
      <g style="fill: #262626" transform="translate(395.903828 221.003672) scale(0.11 -0.11)">
       <defs>
        <path id="ArialMT-39" d="M 350 1059 
L 891 1109 
Q 959 728 1153 556 
Q 1347 384 1650 384 
Q 1909 384 2104 503 
Q 2300 622 2425 820 
Q 2550 1019 2634 1356 
Q 2719 1694 2719 2044 
Q 2719 2081 2716 2156 
Q 2547 1888 2255 1720 
Q 1963 1553 1622 1553 
Q 1053 1553 659 1965 
Q 266 2378 266 3053 
Q 266 3750 677 4175 
Q 1088 4600 1706 4600 
Q 2153 4600 2523 4359 
Q 2894 4119 3086 3673 
Q 3278 3228 3278 2384 
Q 3278 1506 3087 986 
Q 2897 466 2520 194 
Q 2144 -78 1638 -78 
Q 1100 -78 759 220 
Q 419 519 350 1059 
z
M 2653 3081 
Q 2653 3566 2395 3850 
Q 2138 4134 1775 4134 
Q 1400 4134 1122 3828 
Q 844 3522 844 3034 
Q 844 2597 1108 2323 
Q 1372 2050 1759 2050 
Q 2150 2050 2401 2323 
Q 2653 2597 2653 3081 
z
" transform="scale(0.015625)"/>
       </defs>
       <use xlink:href="#ArialMT-39"/>
       <use xlink:href="#ArialMT-30" x="55.615234"/>
       <use xlink:href="#ArialMT-b0" x="111.230469"/>
      </g>
     </g>
    </g>
    <g id="xtick_4">
     <g id="line2d_4">
      <path d="M 221.4 218.16 
L 339.006 335.766 
" clip-path="url(#pa2899fe3e4)" style="fill: none; stroke: #ffffff; stroke-linecap: round"/>
     </g>
     <g id="text_4">
      <!-- 135° -->
      <g style="fill: #262626" transform="translate(339.298574 350.276934) scale(0.11 -0.11)">
       <defs>
        <path id="ArialMT-31" d="M 2384 0 
L 1822 0 
L 1822 3584 
Q 1619 3391 1289 3197 
Q 959 3003 697 2906 
L 697 3450 
Q 1169 3672 1522 3987 
Q 1875 4303 2022 4600 
L 2384 4600 
L 2384 0 
z
" transform="scale(0.015625)"/>
        <path id="ArialMT-33" d="M 269 1209 
L 831 1284 
Q 928 806 1161 595 
Q 1394 384 1728 384 
Q 2125 384 2398 659 
Q 2672 934 2672 1341 
Q 2672 1728 2419 1979 
Q 2166 2231 1775 2231 
Q 1616 2231 1378 2169 
L 1441 2663 
Q 1497 2656 1531 2656 
Q 1891 2656 2178 2843 
Q 2466 3031 2466 3422 
Q 2466 3731 2256 3934 
Q 2047 4138 1716 4138 
Q 1388 4138 1169 3931 
Q 950 3725 888 3313 
L 325 3413 
Q 428 3978 793 4289 
Q 1159 4600 1703 4600 
Q 2078 4600 2393 4439 
Q 2709 4278 2876 4000 
Q 3044 3722 3044 3409 
Q 3044 3113 2884 2869 
Q 2725 2625 2413 2481 
Q 2819 2388 3044 2092 
Q 3269 1797 3269 1353 
Q 3269 753 2831 336 
Q 2394 -81 1725 -81 
Q 1122 -81 723 278 
Q 325 638 269 1209 
z
" transform="scale(0.015625)"/>
       </defs>
       <use xlink:href="#ArialMT-31"/>
       <use xlink:href="#ArialMT-33" x="55.615234"/>
       <use xlink:href="#ArialMT-35" x="111.230469"/>
       <use xlink:href="#ArialMT-b0" x="166.845703"/>
      </g>
     </g>
    </g>
    <g id="xtick_5">
     <g id="line2d_5">
      <path d="M 221.4 218.16 
L 221.4 384.48 
" clip-path="url(#pa2899fe3e4)" style="fill: none; stroke: #ffffff; stroke-linecap: round"/>
     </g>
     <g id="text_5">
      <!-- 180° -->
      <g style="fill: #262626" transform="translate(210.025312 403.823672) scale(0.11 -0.11)">
       <defs>
        <path id="ArialMT-38" d="M 1131 2484 
Q 781 2613 612 2850 
Q 444 3088 444 3419 
Q 444 3919 803 4259 
Q 1163 4600 1759 4600 
Q 2359 4600 2725 4251 
Q 3091 3903 3091 3403 
Q 3091 3084 2923 2848 
Q 2756 2613 2416 2484 
Q 2838 2347 3058 2040 
Q 3278 1734 3278 1309 
Q 3278 722 2862 322 
Q 2447 -78 1769 -78 
Q 1091 -78 675 323 
Q 259 725 259 1325 
Q 259 1772 486 2073 
Q 713 2375 1131 2484 
z
M 1019 3438 
Q 1019 3113 1228 2906 
Q 1438 2700 1772 2700 
Q 2097 2700 2305 2904 
Q 2513 3109 2513 3406 
Q 2513 3716 2298 3927 
Q 2084 4138 1766 4138 
Q 1444 4138 1231 3931 
Q 1019 3725 1019 3438 
z
M 838 1322 
Q 838 1081 952 856 
Q 1066 631 1291 507 
Q 1516 384 1775 384 
Q 2178 384 2440 643 
Q 2703 903 2703 1303 
Q 2703 1709 2433 1975 
Q 2163 2241 1756 2241 
Q 1359 2241 1098 1978 
Q 838 1716 838 1322 
z
" transform="scale(0.015625)"/>
       </defs>
       <use xlink:href="#ArialMT-31"/>
       <use xlink:href="#ArialMT-38" x="55.615234"/>
       <use xlink:href="#ArialMT-30" x="111.230469"/>
       <use xlink:href="#ArialMT-b0" x="166.845703"/>
      </g>
     </g>
    </g>
    <g id="xtick_6">
     <g id="line2d_6">
      <path d="M 221.4 218.16 
L 103.794 335.766 
" clip-path="url(#pa2899fe3e4)" style="fill: none; stroke: #ffffff; stroke-linecap: round"/>
     </g>
     <g id="text_6">
      <!-- 225° -->
      <g style="fill: #262626" transform="translate(80.752051 350.276934) scale(0.11 -0.11)">
       <defs>
        <path id="ArialMT-32" d="M 3222 541 
L 3222 0 
L 194 0 
Q 188 203 259 391 
Q 375 700 629 1000 
Q 884 1300 1366 1694 
Q 2113 2306 2375 2664 
Q 2638 3022 2638 3341 
Q 2638 3675 2398 3904 
Q 2159 4134 1775 4134 
Q 1369 4134 1125 3890 
Q 881 3647 878 3216 
L 300 3275 
Q 359 3922 746 4261 
Q 1134 4600 1788 4600 
Q 2447 4600 2831 4234 
Q 3216 3869 3216 3328 
Q 3216 3053 3103 2787 
Q 2991 2522 2730 2228 
Q 2469 1934 1863 1422 
Q 1356 997 1212 845 
Q 1069 694 975 541 
L 3222 541 
z
" transform="scale(0.015625)"/>
       </defs>
       <use xlink:href="#ArialMT-32"/>
       <use xlink:href="#ArialMT-32" x="55.615234"/>
       <use xlink:href="#ArialMT-35" x="111.230469"/>
       <use xlink:href="#ArialMT-b0" x="166.845703"/>
      </g>
     </g>
    </g>
    <g id="xtick_7">
     <g id="line2d_7">
      <path d="M 221.4 218.16 
L 55.08 218.16 
" clip-path="url(#pa2899fe3e4)" style="fill: none; stroke: #ffffff; stroke-linecap: round"/>
     </g>
     <g id="text_7">
      <!-- 270° -->
      <g style="fill: #262626" transform="translate(27.205312 221.003672) scale(0.11 -0.11)">
       <defs>
        <path id="ArialMT-37" d="M 303 3981 
L 303 4522 
L 3269 4522 
L 3269 4084 
Q 2831 3619 2401 2847 
Q 1972 2075 1738 1259 
Q 1569 684 1522 0 
L 944 0 
Q 953 541 1156 1306 
Q 1359 2072 1739 2783 
Q 2119 3494 2547 3981 
L 303 3981 
z
" transform="scale(0.015625)"/>
       </defs>
       <use xlink:href="#ArialMT-32"/>
       <use xlink:href="#ArialMT-37" x="55.615234"/>
       <use xlink:href="#ArialMT-30" x="111.230469"/>
       <use xlink:href="#ArialMT-b0" x="166.845703"/>
      </g>
     </g>
    </g>
    <g id="xtick_8">
     <g id="line2d_8">
      <path d="M 221.4 218.16 
L 103.794 100.554 
" clip-path="url(#pa2899fe3e4)" style="fill: none; stroke: #ffffff; stroke-linecap: round"/>
     </g>
     <g id="text_8">
      <!-- 315° -->
      <g style="fill: #262626" transform="translate(80.752051 91.73041) scale(0.11 -0.11)">
       <use xlink:href="#ArialMT-33"/>
       <use xlink:href="#ArialMT-31" x="55.615234"/>
       <use xlink:href="#ArialMT-35" x="111.230469"/>
       <use xlink:href="#ArialMT-b0" x="166.845703"/>
      </g>
     </g>
    </g>
   </g>
   <g id="matplotlib.axis_2">
    <g id="ytick_1">
     <g id="line2d_9">
      <path d="M 221.4 218.16 
C 221.4 218.16 221.4 218.16 221.4 218.16 
C 221.4 218.16 221.4 218.16 221.4 218.16 
C 221.4 218.16 221.4 218.16 221.4 218.16 
C 221.4 218.16 221.4 218.16 221.4 218.16 
C 221.4 218.16 221.4 218.16 221.4 218.16 
C 221.4 218.16 221.4 218.16 221.4 218.16 
C 221.4 218.16 221.4 218.16 221.4 218.16 
C 221.4 218.16 221.4 218.16 221.4 218.16 
C 221.4 218.16 221.4 218.16 221.4 218.16 
C 221.4 218.16 221.4 218.16 221.4 218.16 
C 221.4 218.16 221.4 218.16 221.4 218.16 
C 221.4 218.16 221.4 218.16 221.4 218.16 
C 221.4 218.16 221.4 218.16 221.4 218.16 
C 221.4 218.16 221.4 218.16 221.4 218.16 
C 221.4 218.16 221.4 218.16 221.4 218.16 
C 221.4 218.16 221.4 218.16 221.4 218.16 
" clip-path="url(#pa2899fe3e4)" style="fill: none; stroke: #ffffff; stroke-linecap: round"/>
     </g>
     <g id="text_9">
      <!-- 0.0 -->
      <g style="fill: #dc143c" transform="translate(221.4 215.97375) scale(0.11 -0.11)">
       <defs>
        <path id="ArialMT-2e" d="M 581 0 
L 581 641 
L 1222 641 
L 1222 0 
L 581 0 
z
" transform="scale(0.015625)"/>
       </defs>
       <use xlink:href="#ArialMT-30"/>
       <use xlink:href="#ArialMT-2e" x="55.615234"/>
       <use xlink:href="#ArialMT-30" x="83.398438"/>
      </g>
     </g>
    </g>
    <g id="ytick_2">
     <g id="line2d_10">
      <path d="M 221.4 197.37 
C 224.130118 197.37 226.833689 197.907774 229.355989 198.952545 
C 231.878289 199.997315 234.170265 201.528765 236.10075 203.45925 
C 238.031235 205.389735 239.562685 207.681711 240.607455 210.204011 
C 241.652226 212.726311 242.19 215.429882 242.19 218.16 
C 242.19 220.890118 241.652226 223.593689 240.607455 226.115989 
C 239.562685 228.638289 238.031235 230.930265 236.10075 232.86075 
C 234.170265 234.791235 231.878289 236.322685 229.355989 237.367455 
C 226.833689 238.412226 224.130118 238.95 221.4 238.95 
C 218.669882 238.95 215.966311 238.412226 213.444011 237.367455 
C 210.921711 236.322685 208.629735 234.791235 206.69925 232.86075 
C 204.768765 230.930265 203.237315 228.638289 202.192545 226.115989 
C 201.147774 223.593689 200.61 220.890118 200.61 218.16 
C 200.61 215.429882 201.147774 212.726311 202.192545 210.204011 
C 203.237315 207.681711 204.768765 205.389735 206.69925 203.45925 
C 208.629735 201.528765 210.921711 199.997315 213.444011 198.952545 
C 215.966311 197.907774 218.669882 197.37 221.4 197.37 
" clip-path="url(#pa2899fe3e4)" style="fill: none; stroke: #ffffff; stroke-linecap: round"/>
     </g>
     <g id="text_10">
      <!-- 0.1 -->
      <g style="fill: #dc143c" transform="translate(229.355989 196.766295) scale(0.11 -0.11)">
       <use xlink:href="#ArialMT-30"/>
       <use xlink:href="#ArialMT-2e" x="55.615234"/>
       <use xlink:href="#ArialMT-31" x="83.398438"/>
      </g>
     </g>
    </g>
    <g id="ytick_3">
     <g id="line2d_11">
      <path d="M 221.4 176.58 
C 226.860236 176.58 232.267377 177.655547 237.311977 179.745089 
C 242.356577 181.834631 246.94053 184.89753 250.8015 188.7585 
C 254.66247 192.61947 257.725369 197.203423 259.814911 202.248023 
C 261.904453 207.292623 262.98 212.699764 262.98 218.16 
C 262.98 223.620236 261.904453 229.027377 259.814911 234.071977 
C 257.725369 239.116577 254.66247 243.70053 250.8015 247.5615 
C 246.94053 251.42247 242.356577 254.485369 237.311977 256.574911 
C 232.267377 258.664453 226.860236 259.74 221.4 259.74 
C 215.939764 259.74 210.532623 258.664453 205.488023 256.574911 
C 200.443423 254.485369 195.85947 251.42247 191.9985 247.5615 
C 188.13753 243.70053 185.074631 239.116577 182.985089 234.071977 
C 180.895547 229.027377 179.82 223.620236 179.82 218.16 
C 179.82 212.699764 180.895547 207.292623 182.985089 202.248023 
C 185.074631 197.203423 188.13753 192.61947 191.9985 188.7585 
C 195.85947 184.89753 200.443423 181.834631 205.488023 179.745089 
C 210.532623 177.655547 215.939764 176.58 221.4 176.58 
" clip-path="url(#pa2899fe3e4)" style="fill: none; stroke: #ffffff; stroke-linecap: round"/>
     </g>
     <g id="text_11">
      <!-- 0.2 -->
      <g style="fill: #dc143c" transform="translate(237.311977 177.558839) scale(0.11 -0.11)">
       <use xlink:href="#ArialMT-30"/>
       <use xlink:href="#ArialMT-2e" x="55.615234"/>
       <use xlink:href="#ArialMT-32" x="83.398438"/>
      </g>
     </g>
    </g>
    <g id="ytick_4">
     <g id="line2d_12">
      <path d="M 221.4 155.79 
C 229.590353 155.79 237.701066 157.403321 245.267966 160.537634 
C 252.834866 163.671946 259.710796 168.266296 265.50225 174.05775 
C 271.293704 179.849204 275.888054 186.725134 279.022366 194.292034 
C 282.156679 201.858934 283.77 209.969647 283.77 218.16 
C 283.77 226.350353 282.156679 234.461066 279.022366 242.027966 
C 275.888054 249.594866 271.293704 256.470796 265.50225 262.26225 
C 259.710796 268.053704 252.834866 272.648054 245.267966 275.782366 
C 237.701066 278.916679 229.590353 280.53 221.4 280.53 
C 213.209647 280.53 205.098934 278.916679 197.532034 275.782366 
C 189.965134 272.648054 183.089204 268.053704 177.29775 262.26225 
C 171.506296 256.470796 166.911946 249.594866 163.777634 242.027966 
C 160.643321 234.461066 159.03 226.350353 159.03 218.16 
C 159.03 209.969647 160.643321 201.858934 163.777634 194.292034 
C 166.911946 186.725134 171.506296 179.849204 177.29775 174.05775 
C 183.089204 168.266296 189.965134 163.671946 197.532034 160.537634 
C 205.098934 157.403321 213.209647 155.79 221.4 155.79 
" clip-path="url(#pa2899fe3e4)" style="fill: none; stroke: #ffffff; stroke-linecap: round"/>
     </g>
     <g id="text_12">
      <!-- 0.3 -->
      <g style="fill: #dc143c" transform="translate(245.267966 158.351384) scale(0.11 -0.11)">
       <use xlink:href="#ArialMT-30"/>
       <use xlink:href="#ArialMT-2e" x="55.615234"/>
       <use xlink:href="#ArialMT-33" x="83.398438"/>
      </g>
     </g>
    </g>
    <g id="ytick_5">
     <g id="line2d_13">
      <path d="M 221.4 135 
C 232.320471 135 243.134754 137.151095 253.223954 141.330178 
C 263.313154 145.509261 272.481061 151.635061 280.203 159.357 
C 287.924939 167.078939 294.050739 176.246846 298.229822 186.336046 
C 302.408905 196.425246 304.56 207.239529 304.56 218.16 
C 304.56 229.080471 302.408905 239.894754 298.229822 249.983954 
C 294.050739 260.073154 287.924939 269.241061 280.203 276.963 
C 272.481061 284.684939 263.313154 290.810739 253.223954 294.989822 
C 243.134754 299.168905 232.320471 301.32 221.4 301.32 
C 210.479529 301.32 199.665246 299.168905 189.576046 294.989822 
C 179.486846 290.810739 170.318939 284.684939 162.597 276.963 
C 154.875061 269.241061 148.749261 260.073154 144.570178 249.983954 
C 140.391095 239.894754 138.24 229.080471 138.24 218.16 
C 138.24 207.239529 140.391095 196.425246 144.570178 186.336046 
C 148.749261 176.246846 154.875061 167.078939 162.597 159.357 
C 170.318939 151.635061 179.486846 145.509261 189.576046 141.330178 
C 199.665246 137.151095 210.479529 135 221.4 135 
" clip-path="url(#pa2899fe3e4)" style="fill: none; stroke: #ffffff; stroke-linecap: round"/>
     </g>
     <g id="text_13">
      <!-- 0.4 -->
      <g style="fill: #dc143c" transform="translate(253.223954 139.143928) scale(0.11 -0.11)">
       <use xlink:href="#ArialMT-30"/>
       <use xlink:href="#ArialMT-2e" x="55.615234"/>
       <use xlink:href="#ArialMT-34" x="83.398438"/>
      </g>
     </g>
    </g>
    <g id="ytick_6">
     <g id="line2d_14">
      <path d="M 221.4 114.21 
C 235.050589 114.21 248.568443 116.898868 261.179943 122.122723 
C 273.791443 127.346577 285.251326 135.003826 294.90375 144.65625 
C 304.556174 154.308674 312.213423 165.768557 317.437277 178.380057 
C 322.661132 190.991557 325.35 204.509411 325.35 218.16 
C 325.35 231.810589 322.661132 245.328443 317.437277 257.939943 
C 312.213423 270.551443 304.556174 282.011326 294.90375 291.66375 
C 285.251326 301.316174 273.791443 308.973423 261.179943 314.197277 
C 248.568443 319.421132 235.050589 322.11 221.4 322.11 
C 207.749411 322.11 194.231557 319.421132 181.620057 314.197277 
C 169.008557 308.973423 157.548674 301.316174 147.89625 291.66375 
C 138.243826 282.011326 130.586577 270.551443 125.362723 257.939943 
C 120.138868 245.328443 117.45 231.810589 117.45 218.16 
C 117.45 204.509411 120.138868 190.991557 125.362723 178.380057 
C 130.586577 165.768557 138.243826 154.308674 147.89625 144.65625 
C 157.548674 135.003826 169.008557 127.346577 181.620057 122.122723 
C 194.231557 116.898868 207.749411 114.21 221.4 114.21 
" clip-path="url(#pa2899fe3e4)" style="fill: none; stroke: #ffffff; stroke-linecap: round"/>
     </g>
     <g id="text_14">
      <!-- 0.5 -->
      <g style="fill: #dc143c" transform="translate(261.179943 119.936473) scale(0.11 -0.11)">
       <use xlink:href="#ArialMT-30"/>
       <use xlink:href="#ArialMT-2e" x="55.615234"/>
       <use xlink:href="#ArialMT-35" x="83.398438"/>
      </g>
     </g>
    </g>
    <g id="ytick_7">
     <g id="line2d_15">
      <path d="M 221.4 93.42 
C 237.780707 93.42 254.002132 96.646642 269.135931 102.915267 
C 284.269731 109.183892 298.021591 118.372591 309.6045 129.9555 
C 321.187409 141.538409 330.376108 155.290269 336.644733 170.424069 
C 342.913358 185.557868 346.14 201.779293 346.14 218.16 
C 346.14 234.540707 342.913358 250.762132 336.644733 265.895931 
C 330.376108 281.029731 321.187409 294.781591 309.6045 306.3645 
C 298.021591 317.947409 284.269731 327.136108 269.135931 333.404733 
C 254.002132 339.673358 237.780707 342.9 221.4 342.9 
C 205.019293 342.9 188.797868 339.673358 173.664069 333.404733 
C 158.530269 327.136108 144.778409 317.947409 133.1955 306.3645 
C 121.612591 294.781591 112.423892 281.029731 106.155267 265.895931 
C 99.886642 250.762132 96.66 234.540707 96.66 218.16 
C 96.66 201.779293 99.886642 185.557868 106.155267 170.424069 
C 112.423892 155.290269 121.612591 141.538409 133.1955 129.9555 
C 144.778409 118.372591 158.530269 109.183892 173.664069 102.915267 
C 188.797868 96.646642 205.019293 93.42 221.4 93.42 
" clip-path="url(#pa2899fe3e4)" style="fill: none; stroke: #ffffff; stroke-linecap: round"/>
     </g>
     <g id="text_15">
      <!-- 0.6 -->
      <g style="fill: #dc143c" transform="translate(269.135931 100.729017) scale(0.11 -0.11)">
       <defs>
        <path id="ArialMT-36" d="M 3184 3459 
L 2625 3416 
Q 2550 3747 2413 3897 
Q 2184 4138 1850 4138 
Q 1581 4138 1378 3988 
Q 1113 3794 959 3422 
Q 806 3050 800 2363 
Q 1003 2672 1297 2822 
Q 1591 2972 1913 2972 
Q 2475 2972 2870 2558 
Q 3266 2144 3266 1488 
Q 3266 1056 3080 686 
Q 2894 316 2569 119 
Q 2244 -78 1831 -78 
Q 1128 -78 684 439 
Q 241 956 241 2144 
Q 241 3472 731 4075 
Q 1159 4600 1884 4600 
Q 2425 4600 2770 4297 
Q 3116 3994 3184 3459 
z
M 888 1484 
Q 888 1194 1011 928 
Q 1134 663 1356 523 
Q 1578 384 1822 384 
Q 2178 384 2434 671 
Q 2691 959 2691 1453 
Q 2691 1928 2437 2201 
Q 2184 2475 1800 2475 
Q 1419 2475 1153 2201 
Q 888 1928 888 1484 
z
" transform="scale(0.015625)"/>
       </defs>
       <use xlink:href="#ArialMT-30"/>
       <use xlink:href="#ArialMT-2e" x="55.615234"/>
       <use xlink:href="#ArialMT-36" x="83.398438"/>
      </g>
     </g>
    </g>
    <g id="ytick_8">
     <g id="line2d_16">
      <path d="M 221.4 72.63 
C 240.510824 72.63 259.43582 76.394416 277.09192 83.707812 
C 294.74802 91.021208 310.791856 101.741357 324.30525 115.25475 
C 337.818643 128.768144 348.538792 144.81198 355.852188 162.46808 
C 363.165584 180.12418 366.93 199.049176 366.93 218.16 
C 366.93 237.270824 363.165584 256.19582 355.852188 273.85192 
C 348.538792 291.50802 337.818643 307.551856 324.30525 321.06525 
C 310.791856 334.578643 294.74802 345.298792 277.09192 352.612188 
C 259.43582 359.925584 240.510824 363.69 221.4 363.69 
C 202.289176 363.69 183.36418 359.925584 165.70808 352.612188 
C 148.05198 345.298792 132.008144 334.578643 118.49475 321.06525 
C 104.981357 307.551856 94.261208 291.50802 86.947812 273.85192 
C 79.634416 256.19582 75.87 237.270824 75.87 218.16 
C 75.87 199.049176 79.634416 180.12418 86.947812 162.46808 
C 94.261208 144.81198 104.981357 128.768144 118.49475 115.25475 
C 132.008144 101.741357 148.05198 91.021208 165.70808 83.707812 
C 183.36418 76.394416 202.289176 72.63 221.4 72.63 
" clip-path="url(#pa2899fe3e4)" style="fill: none; stroke: #ffffff; stroke-linecap: round"/>
     </g>
     <g id="text_16">
      <!-- 0.7 -->
      <g style="fill: #dc143c" transform="translate(277.09192 81.521562) scale(0.11 -0.11)">
       <use xlink:href="#ArialMT-30"/>
       <use xlink:href="#ArialMT-2e" x="55.615234"/>
       <use xlink:href="#ArialMT-37" x="83.398438"/>
      </g>
     </g>
    </g>
    <g id="ytick_9">
     <g id="line2d_17">
      <path d="M 221.4 51.84 
C 243.240942 51.84 264.869509 56.142189 285.047908 64.500356 
C 305.226308 72.858523 323.562121 85.110122 339.006 100.554 
C 354.449878 115.997879 366.701477 134.333692 375.059644 154.512092 
C 383.417811 174.690491 387.72 196.319058 387.72 218.16 
C 387.72 240.000942 383.417811 261.629509 375.059644 281.807908 
C 366.701477 301.986308 354.449878 320.322121 339.006 335.766 
C 323.562121 351.209878 305.226308 363.461477 285.047908 371.819644 
C 264.869509 380.177811 243.240942 384.48 221.4 384.48 
C 199.559058 384.48 177.930491 380.177811 157.752092 371.819644 
C 137.573692 363.461477 119.237879 351.209878 103.794 335.766 
C 88.350122 320.322121 76.098523 301.986308 67.740356 281.807908 
C 59.382189 261.629509 55.08 240.000942 55.08 218.16 
C 55.08 196.319058 59.382189 174.690491 67.740356 154.512092 
C 76.098523 134.333692 88.350122 115.997879 103.794 100.554 
C 119.237879 85.110122 137.573692 72.858523 157.752092 64.500356 
C 177.930491 56.142189 199.559058 51.84 221.4 51.84 
" clip-path="url(#pa2899fe3e4)" style="fill: none; stroke: #ffffff; stroke-linecap: round"/>
     </g>
     <g id="text_17">
      <!-- 0.8 -->
      <g style="fill: #dc143c" transform="translate(285.047908 62.314106) scale(0.11 -0.11)">
       <use xlink:href="#ArialMT-30"/>
       <use xlink:href="#ArialMT-2e" x="55.615234"/>
       <use xlink:href="#ArialMT-38" x="83.398438"/>
      </g>
     </g>
    </g>
   </g>
   <g id="line2d_18">
    <defs>
     <path id="m169cd961a6" d="M 0 0.5 
C 0.132602 0.5 0.25979 0.447317 0.353553 0.353553 
C 0.447317 0.25979 0.5 0.132602 0.5 0 
C 0.5 -0.132602 0.447317 -0.25979 0.353553 -0.353553 
C 0.25979 -0.447317 0.132602 -0.5 0 -0.5 
C -0.132602 -0.5 -0.25979 -0.447317 -0.353553 -0.353553 
C -0.447317 -0.25979 -0.5 -0.132602 -0.5 0 
C -0.5 0.132602 -0.447317 0.25979 -0.353553 0.353553 
C -0.25979 0.447317 -0.132602 0.5 0 0.5 
z
" style="stroke: #000000"/>
    </defs>
    <g clip-path="url(#pa2899fe3e4)">
     <use xlink:href="#m169cd961a6" x="218.279757" y="307.512078" style="stroke: #000000"/>
     <use xlink:href="#m169cd961a6" x="215.163315" y="307.348752" style="stroke: #000000"/>
     <use xlink:href="#m169cd961a6" x="212.577596" y="302.099571" style="stroke: #000000"/>
     <use xlink:href="#m169cd961a6" x="215.106499" y="278.038661" style="stroke: #000000"/>
     <use xlink:href="#m169cd961a6" x="209.653521" y="301.74054" style="stroke: #000000"/>
     <use xlink:href="#m169cd961a6" x="212.802012" y="279.337864" style="stroke: #000000"/>
     <use xlink:href="#m169cd961a6" x="206.743758" y="301.279679" style="stroke: #000000"/>
     <use xlink:href="#m169cd961a6" x="210.672173" y="279.00053" style="stroke: #000000"/>
     <use xlink:href="#m169cd961a6" x="203.851851" y="300.717549" style="stroke: #000000"/>
     <use xlink:href="#m169cd961a6" x="208.555404" y="278.589072" style="stroke: #000000"/>
     <use xlink:href="#m169cd961a6" x="200.981324" y="300.054836" style="stroke: #000000"/>
     <use xlink:href="#m169cd961a6" x="206.454285" y="278.103991" style="stroke: #000000"/>
     <use xlink:href="#m169cd961a6" x="198.135674" y="299.292346" style="stroke: #000000"/>
     <use xlink:href="#m169cd961a6" x="204.371374" y="277.545876" style="stroke: #000000"/>
     <use xlink:href="#m169cd961a6" x="195.318368" y="298.431009" style="stroke: #000000"/>
     <use xlink:href="#m169cd961a6" x="202.30921" y="276.91541" style="stroke: #000000"/>
     <use xlink:href="#m169cd961a6" x="192.532839" y="297.471874" style="stroke: #000000"/>
     <use xlink:href="#m169cd961a6" x="200.270306" y="276.213359" style="stroke: #000000"/>
     <use xlink:href="#m169cd961a6" x="189.782479" y="296.41611" style="stroke: #000000"/>
     <use xlink:href="#m169cd961a6" x="198.257144" y="275.440578" style="stroke: #000000"/>
     <use xlink:href="#m169cd961a6" x="187.070641" y="295.265003" style="stroke: #000000"/>
     <use xlink:href="#m169cd961a6" x="196.272179" y="274.59801" style="stroke: #000000"/>
     <use xlink:href="#m169cd961a6" x="184.400628" y="294.019955" style="stroke: #000000"/>
     <use xlink:href="#m169cd961a6" x="194.317828" y="273.686682" style="stroke: #000000"/>
     <use xlink:href="#m169cd961a6" x="181.775692" y="292.682484" style="stroke: #000000"/>
     <use xlink:href="#m169cd961a6" x="192.396472" y="272.707702" style="stroke: #000000"/>
     <use xlink:href="#m169cd961a6" x="179.199033" y="291.254219" style="stroke: #000000"/>
     <use xlink:href="#m169cd961a6" x="190.510453" y="271.662265" style="stroke: #000000"/>
     <use xlink:href="#m169cd961a6" x="173.131103" y="295.406382" style="stroke: #000000"/>
     <use xlink:href="#m169cd961a6" x="200.82011" y="251.094709" style="stroke: #000000"/>
     <use xlink:href="#m169cd961a6" x="170.464647" y="293.674766" style="stroke: #000000"/>
     <use xlink:href="#m169cd961a6" x="166.868646" y="293.21597" style="stroke: #000000"/>
     <use xlink:href="#m169cd961a6" x="187.846222" y="264.342813" style="stroke: #000000"/>
     <use xlink:href="#m169cd961a6" x="164.282449" y="291.267131" style="stroke: #000000"/>
     <use xlink:href="#m169cd961a6" x="160.677394" y="290.526384" style="stroke: #000000"/>
     <use xlink:href="#m169cd961a6" x="158.188834" y="288.363112" style="stroke: #000000"/>
     <use xlink:href="#m169cd961a6" x="154.59661" y="287.336936" style="stroke: #000000"/>
     <use xlink:href="#m169cd961a6" x="184.969148" y="255.885252" style="stroke: #000000"/>
     <use xlink:href="#m169cd961a6" x="152.223064" y="284.96339" style="stroke: #000000"/>
     <use xlink:href="#m169cd961a6" x="149.9338" y="282.508455" style="stroke: #000000"/>
     <use xlink:href="#m169cd961a6" x="147.731607" y="279.975122" style="stroke: #000000"/>
     <use xlink:href="#m169cd961a6" x="116.315654" y="300.260889" style="stroke: #000000"/>
     <use xlink:href="#m169cd961a6" x="144.274822" y="278.416793" style="stroke: #000000"/>
     <use xlink:href="#m169cd961a6" x="113.514389" y="296.543485" style="stroke: #000000"/>
     <use xlink:href="#m169cd961a6" x="142.218873" y="275.688456" style="stroke: #000000"/>
     <use xlink:href="#m169cd961a6" x="110.844566" y="292.730582" style="stroke: #000000"/>
     <use xlink:href="#m169cd961a6" x="140.259394" y="272.89003" style="stroke: #000000"/>
     <use xlink:href="#m169cd961a6" x="108.309438" y="288.826826" style="stroke: #000000"/>
     <use xlink:href="#m169cd961a6" x="138.398772" y="270.024924" style="stroke: #000000"/>
     <use xlink:href="#m169cd961a6" x="132.173829" y="269.674754" style="stroke: #000000"/>
     <use xlink:href="#m169cd961a6" x="154.009288" y="257.068046" style="stroke: #000000"/>
     <use xlink:href="#m169cd961a6" x="130.430344" y="266.529424" style="stroke: #000000"/>
     <use xlink:href="#m169cd961a6" x="152.692469" y="254.692442" style="stroke: #000000"/>
     <use xlink:href="#m169cd961a6" x="125.679268" y="264.846121" style="stroke: #000000"/>
     <use xlink:href="#m169cd961a6" x="168.691275" y="243.867763" style="stroke: #000000"/>
     <use xlink:href="#m169cd961a6" x="124.108256" y="261.477075" style="stroke: #000000"/>
     <use xlink:href="#m169cd961a6" x="167.826195" y="242.012595" style="stroke: #000000"/>
     <use xlink:href="#m169cd961a6" x="122.655779" y="258.055255" style="stroke: #000000"/>
     <use xlink:href="#m169cd961a6" x="167.026387" y="240.128365" style="stroke: #000000"/>
     <use xlink:href="#m169cd961a6" x="121.323607" y="254.584828" style="stroke: #000000"/>
     <use xlink:href="#m169cd961a6" x="166.292825" y="238.217371" style="stroke: #000000"/>
     <use xlink:href="#m169cd961a6" x="120.113363" y="251.070023" style="stroke: #000000"/>
     <use xlink:href="#m169cd961a6" x="165.626403" y="236.28194" style="stroke: #000000"/>
     <use xlink:href="#m169cd961a6" x="119.026521" y="247.515123" style="stroke: #000000"/>
     <use xlink:href="#m169cd961a6" x="165.027932" y="234.32443" style="stroke: #000000"/>
     <use xlink:href="#m169cd961a6" x="112.967628" y="245.195227" style="stroke: #000000"/>
     <use xlink:href="#m169cd961a6" x="131.381512" y="240.60413" style="stroke: #000000"/>
     <use xlink:href="#m169cd961a6" x="68.882335" y="250.57863" style="stroke: #000000"/>
     <use xlink:href="#m169cd961a6" x="108.633008" y="242.129364" style="stroke: #000000"/>
     <use xlink:href="#m169cd961a6" x="132.30321" y="237.098107" style="stroke: #000000"/>
     <use xlink:href="#m169cd961a6" x="106.115174" y="238.487825" style="stroke: #000000"/>
     <use xlink:href="#m169cd961a6" x="131.696555" y="233.977138" style="stroke: #000000"/>
     <use xlink:href="#m169cd961a6" x="105.475972" y="234.45206" style="stroke: #000000"/>
     <use xlink:href="#m169cd961a6" x="131.199189" y="230.836897" style="stroke: #000000"/>
     <use xlink:href="#m169cd961a6" x="103.204204" y="230.582879" style="stroke: #000000"/>
     <use xlink:href="#m169cd961a6" x="127.449898" y="228.034554" style="stroke: #000000"/>
     <use xlink:href="#m169cd961a6" x="101.056859" y="226.575212" style="stroke: #000000"/>
     <use xlink:href="#m169cd961a6" x="123.765159" y="224.987293" style="stroke: #000000"/>
     <use xlink:href="#m169cd961a6" x="167.54617" y="221.925827" style="stroke: #000000"/>
     <use xlink:href="#m169cd961a6" x="99.040821" y="222.432877" style="stroke: #000000"/>
     <use xlink:href="#m169cd961a6" x="121.875047" y="221.635488" style="stroke: #000000"/>
     <use xlink:href="#m169cd961a6" x="97.162862" y="218.16" style="stroke: #000000"/>
     <use xlink:href="#m169cd961a6" x="121.814382" y="218.16" style="stroke: #000000"/>
     <use xlink:href="#m169cd961a6" x="97.238544" y="213.824186" style="stroke: #000000"/>
     <use xlink:href="#m169cd961a6" x="121.875047" y="214.684512" style="stroke: #000000"/>
     <use xlink:href="#m169cd961a6" x="97.465497" y="209.493655" style="stroke: #000000"/>
     <use xlink:href="#m169cd961a6" x="118.621467" y="210.973025" style="stroke: #000000"/>
     <use xlink:href="#m169cd961a6" x="156.619978" y="213.63014" style="stroke: #000000"/>
     <use xlink:href="#m169cd961a6" x="96.043348" y="204.984485" style="stroke: #000000"/>
     <use xlink:href="#m169cd961a6" x="125.759557" y="208.107784" style="stroke: #000000"/>
     <use xlink:href="#m169cd961a6" x="148.858281" y="210.535558" style="stroke: #000000"/>
     <use xlink:href="#m169cd961a6" x="94.780541" y="200.364795" style="stroke: #000000"/>
     <use xlink:href="#m169cd961a6" x="119.373169" y="203.821064" style="stroke: #000000"/>
     <use xlink:href="#m169cd961a6" x="93.683074" y="195.64006" style="stroke: #000000"/>
     <use xlink:href="#m169cd961a6" x="114.800933" y="199.363708" style="stroke: #000000"/>
     <use xlink:href="#m169cd961a6" x="92.756765" y="190.816036" style="stroke: #000000"/>
     <use xlink:href="#m169cd961a6" x="113.809184" y="195.290866" style="stroke: #000000"/>
     <use xlink:href="#m169cd961a6" x="93.789421" y="186.343109" style="stroke: #000000"/>
     <use xlink:href="#m169cd961a6" x="114.672846" y="191.549932" style="stroke: #000000"/>
     <use xlink:href="#m169cd961a6" x="93.211957" y="181.40267" style="stroke: #000000"/>
     <use xlink:href="#m169cd961a6" x="115.66654" y="187.841418" style="stroke: #000000"/>
     <use xlink:href="#m169cd961a6" x="94.572858" y="176.951364" style="stroke: #000000"/>
     <use xlink:href="#m169cd961a6" x="115.117645" y="183.62677" style="stroke: #000000"/>
     <use xlink:href="#m169cd961a6" x="94.355977" y="171.919757" style="stroke: #000000"/>
     <use xlink:href="#m169cd961a6" x="114.730028" y="179.335305" style="stroke: #000000"/>
     <use xlink:href="#m169cd961a6" x="96.04713" y="167.514153" style="stroke: #000000"/>
     <use xlink:href="#m169cd961a6" x="116.149971" y="175.636228" style="stroke: #000000"/>
     <use xlink:href="#m169cd961a6" x="97.891006" y="163.170253" style="stroke: #000000"/>
     <use xlink:href="#m169cd961a6" x="117.698145" y="171.988959" style="stroke: #000000"/>
     <use xlink:href="#m169cd961a6" x="99.885359" y="158.89335" style="stroke: #000000"/>
     <use xlink:href="#m169cd961a6" x="119.372663" y="168.397943" style="stroke: #000000"/>
     <use xlink:href="#m169cd961a6" x="100.394108" y="153.820026" style="stroke: #000000"/>
     <use xlink:href="#m169cd961a6" x="121.171486" y="164.867554" style="stroke: #000000"/>
     <use xlink:href="#m169cd961a6" x="102.713255" y="149.636176" style="stroke: #000000"/>
     <use xlink:href="#m169cd961a6" x="123.092422" y="161.402094" style="stroke: #000000"/>
     <use xlink:href="#m169cd961a6" x="105.177002" y="145.535811" style="stroke: #000000"/>
     <use xlink:href="#m169cd961a6" x="125.133131" y="158.005784" style="stroke: #000000"/>
     <use xlink:href="#m169cd961a6" x="107.78235" y="141.523927" style="stroke: #000000"/>
     <use xlink:href="#m169cd961a6" x="127.291126" y="154.682763" style="stroke: #000000"/>
     <use xlink:href="#m169cd961a6" x="109.023787" y="136.513902" style="stroke: #000000"/>
     <use xlink:href="#m169cd961a6" x="128.131446" y="150.396429" style="stroke: #000000"/>
     <use xlink:href="#m169cd961a6" x="111.941652" y="132.641766" style="stroke: #000000"/>
     <use xlink:href="#m169cd961a6" x="131.948319" y="148.272687" style="stroke: #000000"/>
     <use xlink:href="#m169cd961a6" x="114.992874" y="128.87382" style="stroke: #000000"/>
     <use xlink:href="#m169cd961a6" x="134.441842" y="145.193442" style="stroke: #000000"/>
     <use xlink:href="#m169cd961a6" x="118.173737" y="125.214655" style="stroke: #000000"/>
     <use xlink:href="#m169cd961a6" x="137.041311" y="142.203095" style="stroke: #000000"/>
     <use xlink:href="#m169cd961a6" x="121.480366" y="121.668731" style="stroke: #000000"/>
     <use xlink:href="#m169cd961a6" x="139.743558" y="139.30529" style="stroke: #000000"/>
     <use xlink:href="#m169cd961a6" x="124.908731" y="118.240366" style="stroke: #000000"/>
     <use xlink:href="#m169cd961a6" x="141.315425" y="135.229995" style="stroke: #000000"/>
     <use xlink:href="#m169cd961a6" x="128.454655" y="114.933737" style="stroke: #000000"/>
     <use xlink:href="#m169cd961a6" x="144.258426" y="132.485603" style="stroke: #000000"/>
     <use xlink:href="#m169cd961a6" x="132.11382" y="111.752874" style="stroke: #000000"/>
     <use xlink:href="#m169cd961a6" x="148.433442" y="131.201842" style="stroke: #000000"/>
     <use xlink:href="#m169cd961a6" x="135.881766" y="108.701652" style="stroke: #000000"/>
     <use xlink:href="#m169cd961a6" x="150.422683" y="127.313177" style="stroke: #000000"/>
     <use xlink:href="#m169cd961a6" x="139.753902" y="105.783787" style="stroke: #000000"/>
     <use xlink:href="#m169cd961a6" x="154.677079" y="126.323778" style="stroke: #000000"/>
     <use xlink:href="#m169cd961a6" x="143.725512" y="103.002836" style="stroke: #000000"/>
     <use xlink:href="#m169cd961a6" x="157.922763" y="124.051126" style="stroke: #000000"/>
     <use xlink:href="#m169cd961a6" x="147.791757" y="100.362186" style="stroke: #000000"/>
     <use xlink:href="#m169cd961a6" x="161.245784" y="121.893131" style="stroke: #000000"/>
     <use xlink:href="#m169cd961a6" x="151.947681" y="97.865055" style="stroke: #000000"/>
     <use xlink:href="#m169cd961a6" x="165.52406" y="121.380032" style="stroke: #000000"/>
     <use xlink:href="#m169cd961a6" x="157.060026" y="97.154108" style="stroke: #000000"/>
     <use xlink:href="#m169cd961a6" x="168.107554" y="117.931486" style="stroke: #000000"/>
     <use xlink:href="#m169cd961a6" x="161.322265" y="94.982389" style="stroke: #000000"/>
     <use xlink:href="#m169cd961a6" x="171.637943" y="116.132663" style="stroke: #000000"/>
     <use xlink:href="#m169cd961a6" x="165.657699" y="92.960743" style="stroke: #000000"/>
     <use xlink:href="#m169cd961a6" x="175.228959" y="114.458145" style="stroke: #000000"/>
     <use xlink:href="#m169cd961a6" x="170.061047" y="91.091633" style="stroke: #000000"/>
     <use xlink:href="#m169cd961a6" x="178.876228" y="112.909971" style="stroke: #000000"/>
     <use xlink:href="#m169cd961a6" x="174.526944" y="89.377336" style="stroke: #000000"/>
     <use xlink:href="#m169cd961a6" x="182.575305" y="111.490028" style="stroke: #000000"/>
     <use xlink:href="#m169cd961a6" x="179.049947" y="87.819941" style="stroke: #000000"/>
     <use xlink:href="#m169cd961a6" x="186.321685" y="110.200046" style="stroke: #000000"/>
     <use xlink:href="#m169cd961a6" x="183.624548" y="86.421345" style="stroke: #000000"/>
     <use xlink:href="#m169cd961a6" x="190.110801" y="109.041597" style="stroke: #000000"/>
     <use xlink:href="#m169cd961a6" x="188.245173" y="85.183252" style="stroke: #000000"/>
     <use xlink:href="#m169cd961a6" x="193.938039" y="108.016092" style="stroke: #000000"/>
     <use xlink:href="#m169cd961a6" x="192.906192" y="84.107171" style="stroke: #000000"/>
     <use xlink:href="#m169cd961a6" x="197.798735" y="107.12478" style="stroke: #000000"/>
     <use xlink:href="#m169cd961a6" x="197.601926" y="83.194413" style="stroke: #000000"/>
     <use xlink:href="#m169cd961a6" x="201.688186" y="106.368747" style="stroke: #000000"/>
     <use xlink:href="#m169cd961a6" x="202.326654" y="82.44609" style="stroke: #000000"/>
     <use xlink:href="#m169cd961a6" x="205.601652" y="105.748915" style="stroke: #000000"/>
     <use xlink:href="#m169cd961a6" x="207.07462" y="81.863113" style="stroke: #000000"/>
     <use xlink:href="#m169cd961a6" x="209.534367" y="105.266039" style="stroke: #000000"/>
     <use xlink:href="#m169cd961a6" x="211.840039" y="81.446192" style="stroke: #000000"/>
     <use xlink:href="#m169cd961a6" x="213.481537" y="104.920706" style="stroke: #000000"/>
     <use xlink:href="#m169cd961a6" x="216.617106" y="81.195837" style="stroke: #000000"/>
     <use xlink:href="#m169cd961a6" x="217.438355" y="104.713338" style="stroke: #000000"/>
     <use xlink:href="#m169cd961a6" x="221.4" y="81.112351" style="stroke: #000000"/>
     <use xlink:href="#m169cd961a6" x="221.4" y="104.644187" style="stroke: #000000"/>
     <use xlink:href="#m169cd961a6" x="226.182894" y="81.195837" style="stroke: #000000"/>
     <use xlink:href="#m169cd961a6" x="225.361645" y="104.713338" style="stroke: #000000"/>
     <use xlink:href="#m169cd961a6" x="230.959961" y="81.446192" style="stroke: #000000"/>
     <use xlink:href="#m169cd961a6" x="229.318463" y="104.920706" style="stroke: #000000"/>
     <use xlink:href="#m169cd961a6" x="235.72538" y="81.863113" style="stroke: #000000"/>
     <use xlink:href="#m169cd961a6" x="233.265633" y="105.266039" style="stroke: #000000"/>
     <use xlink:href="#m169cd961a6" x="240.473346" y="82.44609" style="stroke: #000000"/>
     <use xlink:href="#m169cd961a6" x="237.198348" y="105.748915" style="stroke: #000000"/>
     <use xlink:href="#m169cd961a6" x="245.198074" y="83.194413" style="stroke: #000000"/>
     <use xlink:href="#m169cd961a6" x="241.111814" y="106.368747" style="stroke: #000000"/>
     <use xlink:href="#m169cd961a6" x="249.893808" y="84.107171" style="stroke: #000000"/>
     <use xlink:href="#m169cd961a6" x="245.001265" y="107.12478" style="stroke: #000000"/>
     <use xlink:href="#m169cd961a6" x="251.893566" y="95.856987" style="stroke: #000000"/>
     <use xlink:href="#m169cd961a6" x="246.325094" y="118.190909" style="stroke: #000000"/>
     <use xlink:href="#m169cd961a6" x="256.143304" y="96.995701" style="stroke: #000000"/>
     <use xlink:href="#m169cd961a6" x="249.323267" y="120.779997" style="stroke: #000000"/>
     <use xlink:href="#m169cd961a6" x="259.791387" y="100.00346" style="stroke: #000000"/>
     <use xlink:href="#m169cd961a6" x="252.70477" y="121.813826" style="stroke: #000000"/>
     <use xlink:href="#m169cd961a6" x="263.891604" y="101.415278" style="stroke: #000000"/>
     <use xlink:href="#m169cd961a6" x="256.048133" y="122.965038" style="stroke: #000000"/>
     <use xlink:href="#m169cd961a6" x="267.264495" y="104.641392" style="stroke: #000000"/>
     <use xlink:href="#m169cd961a6" x="258.705429" y="125.825823" style="stroke: #000000"/>
     <use xlink:href="#m169cd961a6" x="271.198298" y="106.311192" style="stroke: #000000"/>
     <use xlink:href="#m169cd961a6" x="261.90512" y="127.184011" style="stroke: #000000"/>
     <use xlink:href="#m169cd961a6" x="275.071429" y="108.117263" style="stroke: #000000"/>
     <use xlink:href="#m169cd961a6" x="265.055461" y="128.65304" style="stroke: #000000"/>
     <use xlink:href="#m169cd961a6" x="278.035644" y="111.643845" style="stroke: #000000"/>
     <use xlink:href="#m169cd961a6" x="268.152616" y="130.231118" style="stroke: #000000"/>
     <use xlink:href="#m169cd961a6" x="281.718503" y="113.685288" style="stroke: #000000"/>
     <use xlink:href="#m169cd961a6" x="270.336628" y="133.399274" style="stroke: #000000"/>
     <use xlink:href="#m169cd961a6" x="284.379236" y="117.372154" style="stroke: #000000"/>
     <use xlink:href="#m169cd961a6" x="273.264924" y="135.158772" style="stroke: #000000"/>
     <use xlink:href="#m169cd961a6" x="287.858316" y="119.631494" style="stroke: #000000"/>
     <use xlink:href="#m169cd961a6" x="275.176048" y="138.43373" style="stroke: #000000"/>
     <use xlink:href="#m169cd961a6" x="290.20807" y="123.453817" style="stroke: #000000"/>
     <use xlink:href="#m169cd961a6" x="277.925696" y="140.359054" style="stroke: #000000"/>
     <use xlink:href="#m169cd961a6" x="293.471352" y="125.912876" style="stroke: #000000"/>
     <use xlink:href="#m169cd961a6" x="280.606476" y="142.379167" style="stroke: #000000"/>
     <use xlink:href="#m169cd961a6" x="296.646826" y="128.484325" style="stroke: #000000"/>
     <use xlink:href="#m169cd961a6" x="283.215122" y="144.491607" style="stroke: #000000"/>
     <use xlink:href="#m169cd961a6" x="298.541574" y="132.485603" style="stroke: #000000"/>
     <use xlink:href="#m169cd961a6" x="284.611166" y="147.956888" style="stroke: #000000"/>
     <use xlink:href="#m169cd961a6" x="301.484575" y="135.229995" style="stroke: #000000"/>
     <use xlink:href="#m169cd961a6" x="287.022713" y="150.205692" style="stroke: #000000"/>
     <use xlink:href="#m169cd961a6" x="280.922629" y="160.679665" style="stroke: #000000"/>
     <use xlink:href="#m169cd961a6" x="307.074397" y="141.018426" style="stroke: #000000"/>
     <use xlink:href="#m169cd961a6" x="291.603112" y="154.948834" style="stroke: #000000"/>
     <use xlink:href="#m169cd961a6" x="309.714409" y="144.055412" style="stroke: #000000"/>
     <use xlink:href="#m169cd961a6" x="293.766384" y="157.437394" style="stroke: #000000"/>
     <use xlink:href="#m169cd961a6" x="253.435741" y="191.278822" style="stroke: #000000"/>
     <use xlink:href="#m169cd961a6" x="312.246823" y="147.182683" style="stroke: #000000"/>
     <use xlink:href="#m169cd961a6" x="294.507131" y="161.042449" style="stroke: #000000"/>
     <use xlink:href="#m169cd961a6" x="313.236222" y="151.437079" style="stroke: #000000"/>
     <use xlink:href="#m169cd961a6" x="296.45597" y="163.628646" style="stroke: #000000"/>
     <use xlink:href="#m169cd961a6" x="315.508874" y="154.682763" style="stroke: #000000"/>
     <use xlink:href="#m169cd961a6" x="298.313365" y="166.281281" style="stroke: #000000"/>
     <use xlink:href="#m169cd961a6" x="317.666869" y="158.005784" style="stroke: #000000"/>
     <use xlink:href="#m169cd961a6" x="298.646382" y="169.891103" style="stroke: #000000"/>
     <use xlink:href="#m169cd961a6" x="319.707578" y="161.402094" style="stroke: #000000"/>
     <use xlink:href="#m169cd961a6" x="300.283886" y="172.616367" style="stroke: #000000"/>
     <use xlink:href="#m169cd961a6" x="320.071054" y="165.69567" style="stroke: #000000"/>
     <use xlink:href="#m169cd961a6" x="301.825282" y="175.397119" style="stroke: #000000"/>
     <use xlink:href="#m169cd961a6" x="321.841925" y="169.1712" style="stroke: #000000"/>
     <use xlink:href="#m169cd961a6" x="303.268692" y="178.229971" style="stroke: #000000"/>
     <use xlink:href="#m169cd961a6" x="321.884938" y="173.421223" style="stroke: #000000"/>
     <use xlink:href="#m169cd961a6" x="303.07694" y="181.795083" style="stroke: #000000"/>
     <use xlink:href="#m169cd961a6" x="233.265376" y="212.877194" style="stroke: #000000"/>
     <use xlink:href="#m169cd961a6" x="298.120933" y="187.162731" style="stroke: #000000"/>
     <use xlink:href="#m169cd961a6" x="324.760982" y="180.539679" style="stroke: #000000"/>
     <use xlink:href="#m169cd961a6" x="305.414667" y="187.581162" style="stroke: #000000"/>
     <use xlink:href="#m169cd961a6" x="326.010947" y="184.169843" style="stroke: #000000"/>
     <use xlink:href="#m169cd961a6" x="304.838176" y="191.049293" style="stroke: #000000"/>
     <use xlink:href="#m169cd961a6" x="325.450358" y="188.32404" style="stroke: #000000"/>
     <use xlink:href="#m169cd961a6" x="305.733498" y="193.977759" style="stroke: #000000"/>
     <use xlink:href="#m169cd961a6" x="326.428234" y="191.97352" style="stroke: #000000"/>
     <use xlink:href="#m169cd961a6" x="306.526072" y="196.935686" style="stroke: #000000"/>
     <use xlink:href="#m169cd961a6" x="325.571812" y="196.017598" style="stroke: #000000"/>
     <use xlink:href="#m169cd961a6" x="305.583191" y="200.26631" style="stroke: #000000"/>
     <use xlink:href="#m169cd961a6" x="326.281112" y="199.66663" style="stroke: #000000"/>
     <use xlink:href="#m169cd961a6" x="304.519679" y="203.503758" style="stroke: #000000"/>
     <use xlink:href="#m169cd961a6" x="325.141544" y="203.580077" style="stroke: #000000"/>
     <use xlink:href="#m169cd961a6" x="304.98054" y="206.413521" style="stroke: #000000"/>
     <use xlink:href="#m169cd961a6" x="323.865101" y="207.390484" style="stroke: #000000"/>
     <use xlink:href="#m169cd961a6" x="324.178533" y="210.973025" style="stroke: #000000"/>
     <use xlink:href="#m169cd961a6" x="322.64265" y="214.624529" style="stroke: #000000"/>
     <use xlink:href="#m169cd961a6" x="305.750518" y="215.214415" style="stroke: #000000"/>
     <use xlink:href="#m169cd961a6" x="322.704362" y="218.16" style="stroke: #000000"/>
     <use xlink:href="#m169cd961a6" x="305.801934" y="218.16" style="stroke: #000000"/>
     <use xlink:href="#m169cd961a6" x="322.64265" y="221.695471" style="stroke: #000000"/>
     <use xlink:href="#m169cd961a6" x="299.168688" y="220.875742" style="stroke: #000000"/>
     <use xlink:href="#m169cd961a6" x="322.45759" y="225.226635" style="stroke: #000000"/>
     <use xlink:href="#m169cd961a6" x="303.944626" y="223.932083" style="stroke: #000000"/>
     <use xlink:href="#m169cd961a6" x="318.737096" y="228.390541" style="stroke: #000000"/>
     <use xlink:href="#m169cd961a6" x="297.16769" y="226.123505" style="stroke: #000000"/>
     <use xlink:href="#m169cd961a6" x="318.32076" y="231.781324" style="stroke: #000000"/>
     <use xlink:href="#m169cd961a6" x="298.458791" y="228.989907" style="stroke: #000000"/>
     <use xlink:href="#m169cd961a6" x="374.956149" y="245.236092" style="stroke: #000000"/>
     <use xlink:href="#m169cd961a6" x="316.106261" y="234.859269" style="stroke: #000000"/>
     <use xlink:href="#m169cd961a6" x="296.427618" y="231.389393" style="stroke: #000000"/>
     <use xlink:href="#m169cd961a6" x="315.465772" y="238.154297" style="stroke: #000000"/>
     <use xlink:href="#m169cd961a6" x="295.920214" y="233.99976" style="stroke: #000000"/>
     <use xlink:href="#m169cd961a6" x="313.061514" y="241.013782" style="stroke: #000000"/>
     <use xlink:href="#m169cd961a6" x="292.17463" y="235.806097" style="stroke: #000000"/>
     <use xlink:href="#m169cd961a6" x="312.208091" y="244.198801" style="stroke: #000000"/>
     <use xlink:href="#m169cd961a6" x="291.515676" y="238.265347" style="stroke: #000000"/>
     <use xlink:href="#m169cd961a6" x="311.244032" y="247.352095" style="stroke: #000000"/>
     <use xlink:href="#m169cd961a6" x="290.771297" y="240.700101" style="stroke: #000000"/>
     <use xlink:href="#m169cd961a6" x="310.170512" y="250.469824" style="stroke: #000000"/>
     <use xlink:href="#m169cd961a6" x="289.9424" y="243.107393" style="stroke: #000000"/>
     <use xlink:href="#m169cd961a6" x="308.988839" y="253.548188" style="stroke: #000000"/>
     <use xlink:href="#m169cd961a6" x="289.029994" y="245.484291" style="stroke: #000000"/>
     <use xlink:href="#m169cd961a6" x="307.700452" y="256.583437" style="stroke: #000000"/>
     <use xlink:href="#m169cd961a6" x="288.035192" y="247.827899" style="stroke: #000000"/>
     <use xlink:href="#m169cd961a6" x="306.306921" y="259.571873" style="stroke: #000000"/>
     <use xlink:href="#m169cd961a6" x="286.959205" y="250.135361" style="stroke: #000000"/>
     <use xlink:href="#m169cd961a6" x="304.809945" y="262.509854" style="stroke: #000000"/>
     <use xlink:href="#m169cd961a6" x="285.803344" y="252.403865" style="stroke: #000000"/>
     <use xlink:href="#m169cd961a6" x="303.211346" y="265.393803" style="stroke: #000000"/>
     <use xlink:href="#m169cd961a6" x="284.569018" y="254.630649" style="stroke: #000000"/>
     <use xlink:href="#m169cd961a6" x="301.513073" y="268.220204" style="stroke: #000000"/>
     <use xlink:href="#m169cd961a6" x="283.257729" y="256.812999" style="stroke: #000000"/>
     <use xlink:href="#m169cd961a6" x="299.717194" y="270.985615" style="stroke: #000000"/>
     <use xlink:href="#m169cd961a6" x="281.871077" y="258.948257" style="stroke: #000000"/>
     <use xlink:href="#m169cd961a6" x="297.825898" y="273.686665" style="stroke: #000000"/>
     <use xlink:href="#m169cd961a6" x="280.41075" y="261.03382" style="stroke: #000000"/>
     <use xlink:href="#m169cd961a6" x="295.841489" y="276.320065" style="stroke: #000000"/>
     <use xlink:href="#m169cd961a6" x="278.878528" y="263.067148" style="stroke: #000000"/>
     <use xlink:href="#m169cd961a6" x="293.766384" y="278.882606" style="stroke: #000000"/>
     <use xlink:href="#m169cd961a6" x="277.276276" y="265.045763" style="stroke: #000000"/>
     <use xlink:href="#m169cd961a6" x="291.603112" y="281.371166" style="stroke: #000000"/>
     <use xlink:href="#m169cd961a6" x="275.605949" y="266.967255" style="stroke: #000000"/>
     <use xlink:href="#m169cd961a6" x="289.354308" y="283.782713" style="stroke: #000000"/>
     <use xlink:href="#m169cd961a6" x="273.869579" y="268.829284" style="stroke: #000000"/>
     <use xlink:href="#m169cd961a6" x="287.022713" y="286.114308" style="stroke: #000000"/>
     <use xlink:href="#m169cd961a6" x="272.069284" y="270.629579" style="stroke: #000000"/>
     <use xlink:href="#m169cd961a6" x="284.611166" y="288.363112" style="stroke: #000000"/>
     <use xlink:href="#m169cd961a6" x="270.207255" y="272.365949" style="stroke: #000000"/>
     <use xlink:href="#m169cd961a6" x="282.122606" y="290.526384" style="stroke: #000000"/>
     <use xlink:href="#m169cd961a6" x="268.285763" y="274.036276" style="stroke: #000000"/>
     <use xlink:href="#m169cd961a6" x="279.560065" y="292.601489" style="stroke: #000000"/>
     <use xlink:href="#m169cd961a6" x="266.307148" y="275.638528" style="stroke: #000000"/>
     <use xlink:href="#m169cd961a6" x="276.926665" y="294.585898" style="stroke: #000000"/>
     <use xlink:href="#m169cd961a6" x="264.27382" y="277.17075" style="stroke: #000000"/>
     <use xlink:href="#m169cd961a6" x="274.225615" y="296.477194" style="stroke: #000000"/>
     <use xlink:href="#m169cd961a6" x="262.188257" y="278.631077" style="stroke: #000000"/>
     <use xlink:href="#m169cd961a6" x="271.460204" y="298.273073" style="stroke: #000000"/>
     <use xlink:href="#m169cd961a6" x="260.052999" y="280.017729" style="stroke: #000000"/>
     <use xlink:href="#m169cd961a6" x="268.633803" y="299.971346" style="stroke: #000000"/>
     <use xlink:href="#m169cd961a6" x="257.870649" y="281.329018" style="stroke: #000000"/>
     <use xlink:href="#m169cd961a6" x="259.472571" y="289.764091" style="stroke: #000000"/>
     <use xlink:href="#m169cd961a6" x="248.931611" y="269.939429" style="stroke: #000000"/>
     <use xlink:href="#m169cd961a6" x="256.950431" y="291.049186" style="stroke: #000000"/>
     <use xlink:href="#m169cd961a6" x="247.793665" y="272.275032" style="stroke: #000000"/>
     <use xlink:href="#m169cd961a6" x="255.055908" y="293.752408" style="stroke: #000000"/>
     <use xlink:href="#m169cd961a6" x="245.252595" y="271.733805" style="stroke: #000000"/>
     <use xlink:href="#m169cd961a6" x="252.397269" y="294.880933" style="stroke: #000000"/>
     <use xlink:href="#m169cd961a6" x="243.954497" y="273.98434" style="stroke: #000000"/>
     <use xlink:href="#m169cd961a6" x="249.700864" y="295.915986" style="stroke: #000000"/>
     <use xlink:href="#m169cd961a6" x="241.992516" y="274.737474" style="stroke: #000000"/>
     <use xlink:href="#m169cd961a6" x="246.969979" y="296.856305" style="stroke: #000000"/>
     <use xlink:href="#m169cd961a6" x="240.005447" y="275.421677" style="stroke: #000000"/>
     <use xlink:href="#m169cd961a6" x="244.207941" y="297.700745" style="stroke: #000000"/>
     <use xlink:href="#m169cd961a6" x="237.995709" y="276.036115" style="stroke: #000000"/>
     <use xlink:href="#m169cd961a6" x="241.418116" y="298.448276" style="stroke: #000000"/>
     <use xlink:href="#m169cd961a6" x="235.965752" y="276.58004" style="stroke: #000000"/>
     <use xlink:href="#m169cd961a6" x="238.603901" y="299.097989" style="stroke: #000000"/>
     <use xlink:href="#m169cd961a6" x="233.918049" y="277.05279" style="stroke: #000000"/>
     <use xlink:href="#m169cd961a6" x="235.768725" y="299.649091" style="stroke: #000000"/>
     <use xlink:href="#m169cd961a6" x="232.127827" y="279.00053" style="stroke: #000000"/>
     <use xlink:href="#m169cd961a6" x="232.916044" y="300.100911" style="stroke: #000000"/>
     <use xlink:href="#m169cd961a6" x="229.779402" y="277.782545" style="stroke: #000000"/>
     <use xlink:href="#m169cd961a6" x="230.049332" y="300.452899" style="stroke: #000000"/>
     <use xlink:href="#m169cd961a6" x="227.857674" y="279.600661" style="stroke: #000000"/>
     <use xlink:href="#m169cd961a6" x="227.287581" y="302.356335" style="stroke: #000000"/>
     <use xlink:href="#m169cd961a6" x="225.599932" y="278.221825" style="stroke: #000000"/>
     <use xlink:href="#m169cd961a6" x="224.345585" y="302.510518" style="stroke: #000000"/>
     <use xlink:href="#m169cd961a6" x="223.556059" y="279.90146" style="stroke: #000000"/>
     <use xlink:href="#m169cd961a6" x="221.4" y="302.561934" style="stroke: #000000"/>
     <use xlink:href="#m169cd961a6" x="221.4" y="278.36849" style="stroke: #000000"/>
     <use xlink:href="#m169cd961a6" x="218.454415" y="302.510518" style="stroke: #000000"/>
     <use xlink:href="#m169cd961a6" x="219.243941" y="279.90146" style="stroke: #000000"/>
    </g>
   </g>
   <g id="patch_3">
    <path d="M 221.4 51.84 
C 199.559058 51.84 177.930491 56.142189 157.752092 64.500356 
C 137.573692 72.858523 119.237879 85.110122 103.794 100.554 
C 88.350122 115.997879 76.098523 134.333692 67.740356 154.512092 
C 59.382189 174.690491 55.08 196.319058 55.08 218.16 
C 55.08 240.000942 59.382189 261.629509 67.740356 281.807908 
C 76.098523 301.986308 88.350122 320.322121 103.794 335.766 
C 119.237879 351.209878 137.573692 363.461477 157.752092 371.819644 
C 177.930491 380.177811 199.559058 384.48 221.4 384.48 
C 243.240942 384.48 264.869509 380.177811 285.047908 371.819644 
C 305.226308 363.461477 323.562121 351.209878 339.006 335.766 
C 354.449878 320.322121 366.701477 301.986308 375.059644 281.807908 
C 383.417811 261.629509 387.72 240.000942 387.72 218.16 
C 387.72 196.319058 383.417811 174.690491 375.059644 154.512092 
C 366.701477 134.333692 354.449878 115.997879 339.006 100.554 
C 323.562121 85.110122 305.226308 72.858523 285.047908 64.500356 
C 264.869509 56.142189 243.240942 51.84 221.4 51.84 
" style="fill: none; stroke: #ffffff; stroke-width: 1.25; stroke-linejoin: miter; stroke-linecap: square"/>
   </g>
  </g>
 </g>
 <defs>
  <clipPath id="pa2899fe3e4">
   <path d="M 387.72 218.16 
C 387.72 196.319058 383.417811 174.690491 375.059644 154.512092 
C 366.701477 134.333692 354.449878 115.997879 339.006 100.554 
C 323.562121 85.110122 305.226308 72.858523 285.047908 64.500356 
C 264.869509 56.142189 243.240942 51.84 221.4 51.84 
C 199.559058 51.84 177.930491 56.142189 157.752092 64.500356 
C 137.573692 72.858523 119.237879 85.110122 103.794 100.554 
C 88.350122 115.997879 76.098523 134.333692 67.740356 154.512092 
C 59.382189 174.690491 55.08 196.319058 55.08 218.16 
C 55.08 240.000942 59.382189 261.629509 67.740356 281.807908 
C 76.098523 301.986308 88.350122 320.322121 103.794 335.766 
C 119.237879 351.209878 137.573692 363.461477 157.752092 371.819644 
C 177.930491 380.177811 199.559058 384.48 221.4 384.48 
C 243.240942 384.48 264.869509 380.177811 285.047908 371.819644 
C 305.226308 363.461477 323.562121 351.209878 339.006 335.766 
C 354.449878 320.322121 366.701477 301.986308 375.059644 281.807908 
C 383.417811 261.629509 387.72 240.000942 387.72 218.16 
M 221.4 218.16 
C 221.4 218.16 221.4 218.16 221.4 218.16 
C 221.4 218.16 221.4 218.16 221.4 218.16 
C 221.4 218.16 221.4 218.16 221.4 218.16 
C 221.4 218.16 221.4 218.16 221.4 218.16 
C 221.4 218.16 221.4 218.16 221.4 218.16 
C 221.4 218.16 221.4 218.16 221.4 218.16 
C 221.4 218.16 221.4 218.16 221.4 218.16 
C 221.4 218.16 221.4 218.16 221.4 218.16 
C 221.4 218.16 221.4 218.16 221.4 218.16 
C 221.4 218.16 221.4 218.16 221.4 218.16 
C 221.4 218.16 221.4 218.16 221.4 218.16 
C 221.4 218.16 221.4 218.16 221.4 218.16 
C 221.4 218.16 221.4 218.16 221.4 218.16 
C 221.4 218.16 221.4 218.16 221.4 218.16 
C 221.4 218.16 221.4 218.16 221.4 218.16 
C 221.4 218.16 221.4 218.16 221.4 218.16 
z
"/>
  </clipPath>
 </defs>
</svg>
