<?xml version="1.0" encoding="utf-8" standalone="no"?>
<!DOCTYPE svg PUBLIC "-//W3C//DTD SVG 1.1//EN"
  "http://www.w3.org/Graphics/SVG/1.1/DTD/svg11.dtd">
<svg xmlns:xlink="http://www.w3.org/1999/xlink" width="432pt" height="432pt" viewBox="0 0 432 432" xmlns="http://www.w3.org/2000/svg" version="1.1">
 <metadata>
  <rdf:RDF xmlns:dc="http://purl.org/dc/elements/1.1/" xmlns:cc="http://creativecommons.org/ns#" xmlns:rdf="http://www.w3.org/1999/02/22-rdf-syntax-ns#">
   <cc:Work>
    <dc:type rdf:resource="http://purl.org/dc/dcmitype/StillImage"/>
    <dc:date>2024-09-06T16:20:46.559423</dc:date>
    <dc:format>image/svg+xml</dc:format>
    <dc:creator>
     <cc:Agent>
      <dc:title>Matplotlib v3.9.1, https://matplotlib.org/</dc:title>
     </cc:Agent>
    </dc:creator>
   </cc:Work>
  </rdf:RDF>
 </metadata>
 <defs>
  <style type="text/css">*{stroke-linejoin: round; stroke-linecap: butt}</style>
 </defs>
 <g id="figure_1">
  <g id="patch_1">
   <path d="M 0 432 
L 432 432 
L 432 0 
L 0 0 
z
" style="fill: #ffffff"/>
  </g>
  <g id="axes_1">
   <g id="patch_2">
    <path d="M 387.72 218.16 
C 387.72 196.319058 383.417811 174.690491 375.059644 154.512092 
C 366.701477 134.333692 354.449878 115.997879 339.006 100.554 
C 323.562121 85.110122 305.226308 72.858523 285.047908 64.500356 
C 264.869509 56.142189 243.240942 51.84 221.4 51.84 
C 199.559058 51.84 177.930491 56.142189 157.752092 64.500356 
C 137.573692 72.858523 119.237879 85.110122 103.794 100.554 
C 88.350122 115.997879 76.098523 134.333692 67.740356 154.512092 
C 59.382189 174.690491 55.08 196.319058 55.08 218.16 
C 55.08 240.000942 59.382189 261.629509 67.740356 281.807908 
C 76.098523 301.986308 88.350122 320.322121 103.794 335.766 
C 119.237879 351.209878 137.573692 363.461477 157.752092 371.819644 
C 177.930491 380.177811 199.559058 384.48 221.4 384.48 
C 243.240942 384.48 264.869509 380.177811 285.047908 371.819644 
C 305.226308 363.461477 323.562121 351.209878 339.006 335.766 
C 354.449878 320.322121 366.701477 301.986308 375.059644 281.807908 
C 383.417811 261.629509 387.72 240.000942 387.72 218.16 
M 221.4 218.16 
C 221.4 218.16 221.4 218.16 221.4 218.16 
C 221.4 218.16 221.4 218.16 221.4 218.16 
C 221.4 218.16 221.4 218.16 221.4 218.16 
C 221.4 218.16 221.4 218.16 221.4 218.16 
C 221.4 218.16 221.4 218.16 221.4 218.16 
C 221.4 218.16 221.4 218.16 221.4 218.16 
C 221.4 218.16 221.4 218.16 221.4 218.16 
C 221.4 218.16 221.4 218.16 221.4 218.16 
C 221.4 218.16 221.4 218.16 221.4 218.16 
C 221.4 218.16 221.4 218.16 221.4 218.16 
C 221.4 218.16 221.4 218.16 221.4 218.16 
C 221.4 218.16 221.4 218.16 221.4 218.16 
C 221.4 218.16 221.4 218.16 221.4 218.16 
C 221.4 218.16 221.4 218.16 221.4 218.16 
C 221.4 218.16 221.4 218.16 221.4 218.16 
C 221.4 218.16 221.4 218.16 221.4 218.16 
z
" style="fill: #eaeaf2"/>
   </g>
   <g id="matplotlib.axis_1">
    <g id="xtick_1">
     <g id="line2d_1">
      <path d="M 221.4 218.16 
L 221.4 51.84 
" clip-path="url(#p42f4dabe0c)" style="fill: none; stroke: #ffffff; stroke-linecap: round"/>
     </g>
     <g id="text_1">
      <!-- 0° -->
      <g style="fill: #262626" transform="translate(216.142344 38.183672) scale(0.11 -0.11)">
       <defs>
        <path id="ArialMT-30" d="M 266 2259 
Q 266 3072 433 3567 
Q 600 4063 929 4331 
Q 1259 4600 1759 4600 
Q 2128 4600 2406 4451 
Q 2684 4303 2865 4023 
Q 3047 3744 3150 3342 
Q 3253 2941 3253 2259 
Q 3253 1453 3087 958 
Q 2922 463 2592 192 
Q 2263 -78 1759 -78 
Q 1097 -78 719 397 
Q 266 969 266 2259 
z
M 844 2259 
Q 844 1131 1108 757 
Q 1372 384 1759 384 
Q 2147 384 2411 759 
Q 2675 1134 2675 2259 
Q 2675 3391 2411 3762 
Q 2147 4134 1753 4134 
Q 1366 4134 1134 3806 
Q 844 3388 844 2259 
z
" transform="scale(0.015625)"/>
        <path id="ArialMT-b0" d="M 400 3794 
Q 400 4153 654 4406 
Q 909 4659 1266 4659 
Q 1628 4659 1881 4406 
Q 2134 4153 2134 3794 
Q 2134 3434 1879 3179 
Q 1625 2925 1266 2925 
Q 909 2925 654 3178 
Q 400 3431 400 3794 
z
M 741 3794 
Q 741 3575 895 3420 
Q 1050 3266 1269 3266 
Q 1484 3266 1639 3420 
Q 1794 3575 1794 3794 
Q 1794 4013 1639 4167 
Q 1484 4322 1269 4322 
Q 1050 4322 895 4167 
Q 741 4013 741 3794 
z
" transform="scale(0.015625)"/>
       </defs>
       <use xlink:href="#ArialMT-30"/>
       <use xlink:href="#ArialMT-b0" x="55.615234"/>
      </g>
     </g>
    </g>
    <g id="xtick_2">
     <g id="line2d_2">
      <path d="M 221.4 218.16 
L 339.006 100.554 
" clip-path="url(#p42f4dabe0c)" style="fill: none; stroke: #ffffff; stroke-linecap: round"/>
     </g>
     <g id="text_2">
      <!-- 45° -->
      <g style="fill: #262626" transform="translate(342.35709 91.73041) scale(0.11 -0.11)">
       <defs>
        <path id="ArialMT-34" d="M 2069 0 
L 2069 1097 
L 81 1097 
L 81 1613 
L 2172 4581 
L 2631 4581 
L 2631 1613 
L 3250 1613 
L 3250 1097 
L 2631 1097 
L 2631 0 
L 2069 0 
z
M 2069 1613 
L 2069 3678 
L 634 1613 
L 2069 1613 
z
" transform="scale(0.015625)"/>
        <path id="ArialMT-35" d="M 266 1200 
L 856 1250 
Q 922 819 1161 601 
Q 1400 384 1738 384 
Q 2144 384 2425 690 
Q 2706 997 2706 1503 
Q 2706 1984 2436 2262 
Q 2166 2541 1728 2541 
Q 1456 2541 1237 2417 
Q 1019 2294 894 2097 
L 366 2166 
L 809 4519 
L 3088 4519 
L 3088 3981 
L 1259 3981 
L 1013 2750 
Q 1425 3038 1878 3038 
Q 2478 3038 2890 2622 
Q 3303 2206 3303 1553 
Q 3303 931 2941 478 
Q 2500 -78 1738 -78 
Q 1113 -78 717 272 
Q 322 622 266 1200 
z
" transform="scale(0.015625)"/>
       </defs>
       <use xlink:href="#ArialMT-34"/>
       <use xlink:href="#ArialMT-35" x="55.615234"/>
       <use xlink:href="#ArialMT-b0" x="111.230469"/>
      </g>
     </g>
    </g>
    <g id="xtick_3">
     <g id="line2d_3">
      <path d="M 221.4 218.16 
L 387.72 218.16 
" clip-path="url(#p42f4dabe0c)" style="fill: none; stroke: #ffffff; stroke-linecap: round"/>
     </g>
     <g id="text_3">
      <!-- 90° -->
      <g style="fill: #262626" transform="translate(395.903828 221.003672) scale(0.11 -0.11)">
       <defs>
        <path id="ArialMT-39" d="M 350 1059 
L 891 1109 
Q 959 728 1153 556 
Q 1347 384 1650 384 
Q 1909 384 2104 503 
Q 2300 622 2425 820 
Q 2550 1019 2634 1356 
Q 2719 1694 2719 2044 
Q 2719 2081 2716 2156 
Q 2547 1888 2255 1720 
Q 1963 1553 1622 1553 
Q 1053 1553 659 1965 
Q 266 2378 266 3053 
Q 266 3750 677 4175 
Q 1088 4600 1706 4600 
Q 2153 4600 2523 4359 
Q 2894 4119 3086 3673 
Q 3278 3228 3278 2384 
Q 3278 1506 3087 986 
Q 2897 466 2520 194 
Q 2144 -78 1638 -78 
Q 1100 -78 759 220 
Q 419 519 350 1059 
z
M 2653 3081 
Q 2653 3566 2395 3850 
Q 2138 4134 1775 4134 
Q 1400 4134 1122 3828 
Q 844 3522 844 3034 
Q 844 2597 1108 2323 
Q 1372 2050 1759 2050 
Q 2150 2050 2401 2323 
Q 2653 2597 2653 3081 
z
" transform="scale(0.015625)"/>
       </defs>
       <use xlink:href="#ArialMT-39"/>
       <use xlink:href="#ArialMT-30" x="55.615234"/>
       <use xlink:href="#ArialMT-b0" x="111.230469"/>
      </g>
     </g>
    </g>
    <g id="xtick_4">
     <g id="line2d_4">
      <path d="M 221.4 218.16 
L 339.006 335.766 
" clip-path="url(#p42f4dabe0c)" style="fill: none; stroke: #ffffff; stroke-linecap: round"/>
     </g>
     <g id="text_4">
      <!-- 135° -->
      <g style="fill: #262626" transform="translate(339.298574 350.276934) scale(0.11 -0.11)">
       <defs>
        <path id="ArialMT-31" d="M 2384 0 
L 1822 0 
L 1822 3584 
Q 1619 3391 1289 3197 
Q 959 3003 697 2906 
L 697 3450 
Q 1169 3672 1522 3987 
Q 1875 4303 2022 4600 
L 2384 4600 
L 2384 0 
z
" transform="scale(0.015625)"/>
        <path id="ArialMT-33" d="M 269 1209 
L 831 1284 
Q 928 806 1161 595 
Q 1394 384 1728 384 
Q 2125 384 2398 659 
Q 2672 934 2672 1341 
Q 2672 1728 2419 1979 
Q 2166 2231 1775 2231 
Q 1616 2231 1378 2169 
L 1441 2663 
Q 1497 2656 1531 2656 
Q 1891 2656 2178 2843 
Q 2466 3031 2466 3422 
Q 2466 3731 2256 3934 
Q 2047 4138 1716 4138 
Q 1388 4138 1169 3931 
Q 950 3725 888 3313 
L 325 3413 
Q 428 3978 793 4289 
Q 1159 4600 1703 4600 
Q 2078 4600 2393 4439 
Q 2709 4278 2876 4000 
Q 3044 3722 3044 3409 
Q 3044 3113 2884 2869 
Q 2725 2625 2413 2481 
Q 2819 2388 3044 2092 
Q 3269 1797 3269 1353 
Q 3269 753 2831 336 
Q 2394 -81 1725 -81 
Q 1122 -81 723 278 
Q 325 638 269 1209 
z
" transform="scale(0.015625)"/>
       </defs>
       <use xlink:href="#ArialMT-31"/>
       <use xlink:href="#ArialMT-33" x="55.615234"/>
       <use xlink:href="#ArialMT-35" x="111.230469"/>
       <use xlink:href="#ArialMT-b0" x="166.845703"/>
      </g>
     </g>
    </g>
    <g id="xtick_5">
     <g id="line2d_5">
      <path d="M 221.4 218.16 
L 221.4 384.48 
" clip-path="url(#p42f4dabe0c)" style="fill: none; stroke: #ffffff; stroke-linecap: round"/>
     </g>
     <g id="text_5">
      <!-- 180° -->
      <g style="fill: #262626" transform="translate(210.025312 403.823672) scale(0.11 -0.11)">
       <defs>
        <path id="ArialMT-38" d="M 1131 2484 
Q 781 2613 612 2850 
Q 444 3088 444 3419 
Q 444 3919 803 4259 
Q 1163 4600 1759 4600 
Q 2359 4600 2725 4251 
Q 3091 3903 3091 3403 
Q 3091 3084 2923 2848 
Q 2756 2613 2416 2484 
Q 2838 2347 3058 2040 
Q 3278 1734 3278 1309 
Q 3278 722 2862 322 
Q 2447 -78 1769 -78 
Q 1091 -78 675 323 
Q 259 725 259 1325 
Q 259 1772 486 2073 
Q 713 2375 1131 2484 
z
M 1019 3438 
Q 1019 3113 1228 2906 
Q 1438 2700 1772 2700 
Q 2097 2700 2305 2904 
Q 2513 3109 2513 3406 
Q 2513 3716 2298 3927 
Q 2084 4138 1766 4138 
Q 1444 4138 1231 3931 
Q 1019 3725 1019 3438 
z
M 838 1322 
Q 838 1081 952 856 
Q 1066 631 1291 507 
Q 1516 384 1775 384 
Q 2178 384 2440 643 
Q 2703 903 2703 1303 
Q 2703 1709 2433 1975 
Q 2163 2241 1756 2241 
Q 1359 2241 1098 1978 
Q 838 1716 838 1322 
z
" transform="scale(0.015625)"/>
       </defs>
       <use xlink:href="#ArialMT-31"/>
       <use xlink:href="#ArialMT-38" x="55.615234"/>
       <use xlink:href="#ArialMT-30" x="111.230469"/>
       <use xlink:href="#ArialMT-b0" x="166.845703"/>
      </g>
     </g>
    </g>
    <g id="xtick_6">
     <g id="line2d_6">
      <path d="M 221.4 218.16 
L 103.794 335.766 
" clip-path="url(#p42f4dabe0c)" style="fill: none; stroke: #ffffff; stroke-linecap: round"/>
     </g>
     <g id="text_6">
      <!-- 225° -->
      <g style="fill: #262626" transform="translate(80.752051 350.276934) scale(0.11 -0.11)">
       <defs>
        <path id="ArialMT-32" d="M 3222 541 
L 3222 0 
L 194 0 
Q 188 203 259 391 
Q 375 700 629 1000 
Q 884 1300 1366 1694 
Q 2113 2306 2375 2664 
Q 2638 3022 2638 3341 
Q 2638 3675 2398 3904 
Q 2159 4134 1775 4134 
Q 1369 4134 1125 3890 
Q 881 3647 878 3216 
L 300 3275 
Q 359 3922 746 4261 
Q 1134 4600 1788 4600 
Q 2447 4600 2831 4234 
Q 3216 3869 3216 3328 
Q 3216 3053 3103 2787 
Q 2991 2522 2730 2228 
Q 2469 1934 1863 1422 
Q 1356 997 1212 845 
Q 1069 694 975 541 
L 3222 541 
z
" transform="scale(0.015625)"/>
       </defs>
       <use xlink:href="#ArialMT-32"/>
       <use xlink:href="#ArialMT-32" x="55.615234"/>
       <use xlink:href="#ArialMT-35" x="111.230469"/>
       <use xlink:href="#ArialMT-b0" x="166.845703"/>
      </g>
     </g>
    </g>
    <g id="xtick_7">
     <g id="line2d_7">
      <path d="M 221.4 218.16 
L 55.08 218.16 
" clip-path="url(#p42f4dabe0c)" style="fill: none; stroke: #ffffff; stroke-linecap: round"/>
     </g>
     <g id="text_7">
      <!-- 270° -->
      <g style="fill: #262626" transform="translate(27.205312 221.003672) scale(0.11 -0.11)">
       <defs>
        <path id="ArialMT-37" d="M 303 3981 
L 303 4522 
L 3269 4522 
L 3269 4084 
Q 2831 3619 2401 2847 
Q 1972 2075 1738 1259 
Q 1569 684 1522 0 
L 944 0 
Q 953 541 1156 1306 
Q 1359 2072 1739 2783 
Q 2119 3494 2547 3981 
L 303 3981 
z
" transform="scale(0.015625)"/>
       </defs>
       <use xlink:href="#ArialMT-32"/>
       <use xlink:href="#ArialMT-37" x="55.615234"/>
       <use xlink:href="#ArialMT-30" x="111.230469"/>
       <use xlink:href="#ArialMT-b0" x="166.845703"/>
      </g>
     </g>
    </g>
    <g id="xtick_8">
     <g id="line2d_8">
      <path d="M 221.4 218.16 
L 103.794 100.554 
" clip-path="url(#p42f4dabe0c)" style="fill: none; stroke: #ffffff; stroke-linecap: round"/>
     </g>
     <g id="text_8">
      <!-- 315° -->
      <g style="fill: #262626" transform="translate(80.752051 91.73041) scale(0.11 -0.11)">
       <use xlink:href="#ArialMT-33"/>
       <use xlink:href="#ArialMT-31" x="55.615234"/>
       <use xlink:href="#ArialMT-35" x="111.230469"/>
       <use xlink:href="#ArialMT-b0" x="166.845703"/>
      </g>
     </g>
    </g>
   </g>
   <g id="matplotlib.axis_2">
    <g id="ytick_1">
     <g id="line2d_9">
      <path d="M 221.4 218.16 
C 221.4 218.16 221.4 218.16 221.4 218.16 
C 221.4 218.16 221.4 218.16 221.4 218.16 
C 221.4 218.16 221.4 218.16 221.4 218.16 
C 221.4 218.16 221.4 218.16 221.4 218.16 
C 221.4 218.16 221.4 218.16 221.4 218.16 
C 221.4 218.16 221.4 218.16 221.4 218.16 
C 221.4 218.16 221.4 218.16 221.4 218.16 
C 221.4 218.16 221.4 218.16 221.4 218.16 
C 221.4 218.16 221.4 218.16 221.4 218.16 
C 221.4 218.16 221.4 218.16 221.4 218.16 
C 221.4 218.16 221.4 218.16 221.4 218.16 
C 221.4 218.16 221.4 218.16 221.4 218.16 
C 221.4 218.16 221.4 218.16 221.4 218.16 
C 221.4 218.16 221.4 218.16 221.4 218.16 
C 221.4 218.16 221.4 218.16 221.4 218.16 
C 221.4 218.16 221.4 218.16 221.4 218.16 
" clip-path="url(#p42f4dabe0c)" style="fill: none; stroke: #ffffff; stroke-linecap: round"/>
     </g>
     <g id="text_9">
      <!-- 0.0 -->
      <g style="fill: #dc143c" transform="translate(221.4 215.97375) scale(0.11 -0.11)">
       <defs>
        <path id="ArialMT-2e" d="M 581 0 
L 581 641 
L 1222 641 
L 1222 0 
L 581 0 
z
" transform="scale(0.015625)"/>
       </defs>
       <use xlink:href="#ArialMT-30"/>
       <use xlink:href="#ArialMT-2e" x="55.615234"/>
       <use xlink:href="#ArialMT-30" x="83.398438"/>
      </g>
     </g>
    </g>
    <g id="ytick_2">
     <g id="line2d_10">
      <path d="M 221.4 197.37 
C 224.130118 197.37 226.833689 197.907774 229.355989 198.952545 
C 231.878289 199.997315 234.170265 201.528765 236.10075 203.45925 
C 238.031235 205.389735 239.562685 207.681711 240.607455 210.204011 
C 241.652226 212.726311 242.19 215.429882 242.19 218.16 
C 242.19 220.890118 241.652226 223.593689 240.607455 226.115989 
C 239.562685 228.638289 238.031235 230.930265 236.10075 232.86075 
C 234.170265 234.791235 231.878289 236.322685 229.355989 237.367455 
C 226.833689 238.412226 224.130118 238.95 221.4 238.95 
C 218.669882 238.95 215.966311 238.412226 213.444011 237.367455 
C 210.921711 236.322685 208.629735 234.791235 206.69925 232.86075 
C 204.768765 230.930265 203.237315 228.638289 202.192545 226.115989 
C 201.147774 223.593689 200.61 220.890118 200.61 218.16 
C 200.61 215.429882 201.147774 212.726311 202.192545 210.204011 
C 203.237315 207.681711 204.768765 205.389735 206.69925 203.45925 
C 208.629735 201.528765 210.921711 199.997315 213.444011 198.952545 
C 215.966311 197.907774 218.669882 197.37 221.4 197.37 
" clip-path="url(#p42f4dabe0c)" style="fill: none; stroke: #ffffff; stroke-linecap: round"/>
     </g>
     <g id="text_10">
      <!-- 0.1 -->
      <g style="fill: #dc143c" transform="translate(229.355989 196.766295) scale(0.11 -0.11)">
       <use xlink:href="#ArialMT-30"/>
       <use xlink:href="#ArialMT-2e" x="55.615234"/>
       <use xlink:href="#ArialMT-31" x="83.398438"/>
      </g>
     </g>
    </g>
    <g id="ytick_3">
     <g id="line2d_11">
      <path d="M 221.4 176.58 
C 226.860236 176.58 232.267377 177.655547 237.311977 179.745089 
C 242.356577 181.834631 246.94053 184.89753 250.8015 188.7585 
C 254.66247 192.61947 257.725369 197.203423 259.814911 202.248023 
C 261.904453 207.292623 262.98 212.699764 262.98 218.16 
C 262.98 223.620236 261.904453 229.027377 259.814911 234.071977 
C 257.725369 239.116577 254.66247 243.70053 250.8015 247.5615 
C 246.94053 251.42247 242.356577 254.485369 237.311977 256.574911 
C 232.267377 258.664453 226.860236 259.74 221.4 259.74 
C 215.939764 259.74 210.532623 258.664453 205.488023 256.574911 
C 200.443423 254.485369 195.85947 251.42247 191.9985 247.5615 
C 188.13753 243.70053 185.074631 239.116577 182.985089 234.071977 
C 180.895547 229.027377 179.82 223.620236 179.82 218.16 
C 179.82 212.699764 180.895547 207.292623 182.985089 202.248023 
C 185.074631 197.203423 188.13753 192.61947 191.9985 188.7585 
C 195.85947 184.89753 200.443423 181.834631 205.488023 179.745089 
C 210.532623 177.655547 215.939764 176.58 221.4 176.58 
" clip-path="url(#p42f4dabe0c)" style="fill: none; stroke: #ffffff; stroke-linecap: round"/>
     </g>
     <g id="text_11">
      <!-- 0.2 -->
      <g style="fill: #dc143c" transform="translate(237.311977 177.558839) scale(0.11 -0.11)">
       <use xlink:href="#ArialMT-30"/>
       <use xlink:href="#ArialMT-2e" x="55.615234"/>
       <use xlink:href="#ArialMT-32" x="83.398438"/>
      </g>
     </g>
    </g>
    <g id="ytick_4">
     <g id="line2d_12">
      <path d="M 221.4 155.79 
C 229.590353 155.79 237.701066 157.403321 245.267966 160.537634 
C 252.834866 163.671946 259.710796 168.266296 265.50225 174.05775 
C 271.293704 179.849204 275.888054 186.725134 279.022366 194.292034 
C 282.156679 201.858934 283.77 209.969647 283.77 218.16 
C 283.77 226.350353 282.156679 234.461066 279.022366 242.027966 
C 275.888054 249.594866 271.293704 256.470796 265.50225 262.26225 
C 259.710796 268.053704 252.834866 272.648054 245.267966 275.782366 
C 237.701066 278.916679 229.590353 280.53 221.4 280.53 
C 213.209647 280.53 205.098934 278.916679 197.532034 275.782366 
C 189.965134 272.648054 183.089204 268.053704 177.29775 262.26225 
C 171.506296 256.470796 166.911946 249.594866 163.777634 242.027966 
C 160.643321 234.461066 159.03 226.350353 159.03 218.16 
C 159.03 209.969647 160.643321 201.858934 163.777634 194.292034 
C 166.911946 186.725134 171.506296 179.849204 177.29775 174.05775 
C 183.089204 168.266296 189.965134 163.671946 197.532034 160.537634 
C 205.098934 157.403321 213.209647 155.79 221.4 155.79 
" clip-path="url(#p42f4dabe0c)" style="fill: none; stroke: #ffffff; stroke-linecap: round"/>
     </g>
     <g id="text_12">
      <!-- 0.3 -->
      <g style="fill: #dc143c" transform="translate(245.267966 158.351384) scale(0.11 -0.11)">
       <use xlink:href="#ArialMT-30"/>
       <use xlink:href="#ArialMT-2e" x="55.615234"/>
       <use xlink:href="#ArialMT-33" x="83.398438"/>
      </g>
     </g>
    </g>
    <g id="ytick_5">
     <g id="line2d_13">
      <path d="M 221.4 135 
C 232.320471 135 243.134754 137.151095 253.223954 141.330178 
C 263.313154 145.509261 272.481061 151.635061 280.203 159.357 
C 287.924939 167.078939 294.050739 176.246846 298.229822 186.336046 
C 302.408905 196.425246 304.56 207.239529 304.56 218.16 
C 304.56 229.080471 302.408905 239.894754 298.229822 249.983954 
C 294.050739 260.073154 287.924939 269.241061 280.203 276.963 
C 272.481061 284.684939 263.313154 290.810739 253.223954 294.989822 
C 243.134754 299.168905 232.320471 301.32 221.4 301.32 
C 210.479529 301.32 199.665246 299.168905 189.576046 294.989822 
C 179.486846 290.810739 170.318939 284.684939 162.597 276.963 
C 154.875061 269.241061 148.749261 260.073154 144.570178 249.983954 
C 140.391095 239.894754 138.24 229.080471 138.24 218.16 
C 138.24 207.239529 140.391095 196.425246 144.570178 186.336046 
C 148.749261 176.246846 154.875061 167.078939 162.597 159.357 
C 170.318939 151.635061 179.486846 145.509261 189.576046 141.330178 
C 199.665246 137.151095 210.479529 135 221.4 135 
" clip-path="url(#p42f4dabe0c)" style="fill: none; stroke: #ffffff; stroke-linecap: round"/>
     </g>
     <g id="text_13">
      <!-- 0.4 -->
      <g style="fill: #dc143c" transform="translate(253.223954 139.143928) scale(0.11 -0.11)">
       <use xlink:href="#ArialMT-30"/>
       <use xlink:href="#ArialMT-2e" x="55.615234"/>
       <use xlink:href="#ArialMT-34" x="83.398438"/>
      </g>
     </g>
    </g>
    <g id="ytick_6">
     <g id="line2d_14">
      <path d="M 221.4 114.21 
C 235.050589 114.21 248.568443 116.898868 261.179943 122.122723 
C 273.791443 127.346577 285.251326 135.003826 294.90375 144.65625 
C 304.556174 154.308674 312.213423 165.768557 317.437277 178.380057 
C 322.661132 190.991557 325.35 204.509411 325.35 218.16 
C 325.35 231.810589 322.661132 245.328443 317.437277 257.939943 
C 312.213423 270.551443 304.556174 282.011326 294.90375 291.66375 
C 285.251326 301.316174 273.791443 308.973423 261.179943 314.197277 
C 248.568443 319.421132 235.050589 322.11 221.4 322.11 
C 207.749411 322.11 194.231557 319.421132 181.620057 314.197277 
C 169.008557 308.973423 157.548674 301.316174 147.89625 291.66375 
C 138.243826 282.011326 130.586577 270.551443 125.362723 257.939943 
C 120.138868 245.328443 117.45 231.810589 117.45 218.16 
C 117.45 204.509411 120.138868 190.991557 125.362723 178.380057 
C 130.586577 165.768557 138.243826 154.308674 147.89625 144.65625 
C 157.548674 135.003826 169.008557 127.346577 181.620057 122.122723 
C 194.231557 116.898868 207.749411 114.21 221.4 114.21 
" clip-path="url(#p42f4dabe0c)" style="fill: none; stroke: #ffffff; stroke-linecap: round"/>
     </g>
     <g id="text_14">
      <!-- 0.5 -->
      <g style="fill: #dc143c" transform="translate(261.179943 119.936473) scale(0.11 -0.11)">
       <use xlink:href="#ArialMT-30"/>
       <use xlink:href="#ArialMT-2e" x="55.615234"/>
       <use xlink:href="#ArialMT-35" x="83.398438"/>
      </g>
     </g>
    </g>
    <g id="ytick_7">
     <g id="line2d_15">
      <path d="M 221.4 93.42 
C 237.780707 93.42 254.002132 96.646642 269.135931 102.915267 
C 284.269731 109.183892 298.021591 118.372591 309.6045 129.9555 
C 321.187409 141.538409 330.376108 155.290269 336.644733 170.424069 
C 342.913358 185.557868 346.14 201.779293 346.14 218.16 
C 346.14 234.540707 342.913358 250.762132 336.644733 265.895931 
C 330.376108 281.029731 321.187409 294.781591 309.6045 306.3645 
C 298.021591 317.947409 284.269731 327.136108 269.135931 333.404733 
C 254.002132 339.673358 237.780707 342.9 221.4 342.9 
C 205.019293 342.9 188.797868 339.673358 173.664069 333.404733 
C 158.530269 327.136108 144.778409 317.947409 133.1955 306.3645 
C 121.612591 294.781591 112.423892 281.029731 106.155267 265.895931 
C 99.886642 250.762132 96.66 234.540707 96.66 218.16 
C 96.66 201.779293 99.886642 185.557868 106.155267 170.424069 
C 112.423892 155.290269 121.612591 141.538409 133.1955 129.9555 
C 144.778409 118.372591 158.530269 109.183892 173.664069 102.915267 
C 188.797868 96.646642 205.019293 93.42 221.4 93.42 
" clip-path="url(#p42f4dabe0c)" style="fill: none; stroke: #ffffff; stroke-linecap: round"/>
     </g>
     <g id="text_15">
      <!-- 0.6 -->
      <g style="fill: #dc143c" transform="translate(269.135931 100.729017) scale(0.11 -0.11)">
       <defs>
        <path id="ArialMT-36" d="M 3184 3459 
L 2625 3416 
Q 2550 3747 2413 3897 
Q 2184 4138 1850 4138 
Q 1581 4138 1378 3988 
Q 1113 3794 959 3422 
Q 806 3050 800 2363 
Q 1003 2672 1297 2822 
Q 1591 2972 1913 2972 
Q 2475 2972 2870 2558 
Q 3266 2144 3266 1488 
Q 3266 1056 3080 686 
Q 2894 316 2569 119 
Q 2244 -78 1831 -78 
Q 1128 -78 684 439 
Q 241 956 241 2144 
Q 241 3472 731 4075 
Q 1159 4600 1884 4600 
Q 2425 4600 2770 4297 
Q 3116 3994 3184 3459 
z
M 888 1484 
Q 888 1194 1011 928 
Q 1134 663 1356 523 
Q 1578 384 1822 384 
Q 2178 384 2434 671 
Q 2691 959 2691 1453 
Q 2691 1928 2437 2201 
Q 2184 2475 1800 2475 
Q 1419 2475 1153 2201 
Q 888 1928 888 1484 
z
" transform="scale(0.015625)"/>
       </defs>
       <use xlink:href="#ArialMT-30"/>
       <use xlink:href="#ArialMT-2e" x="55.615234"/>
       <use xlink:href="#ArialMT-36" x="83.398438"/>
      </g>
     </g>
    </g>
    <g id="ytick_8">
     <g id="line2d_16">
      <path d="M 221.4 72.63 
C 240.510824 72.63 259.43582 76.394416 277.09192 83.707812 
C 294.74802 91.021208 310.791856 101.741357 324.30525 115.25475 
C 337.818643 128.768144 348.538792 144.81198 355.852188 162.46808 
C 363.165584 180.12418 366.93 199.049176 366.93 218.16 
C 366.93 237.270824 363.165584 256.19582 355.852188 273.85192 
C 348.538792 291.50802 337.818643 307.551856 324.30525 321.06525 
C 310.791856 334.578643 294.74802 345.298792 277.09192 352.612188 
C 259.43582 359.925584 240.510824 363.69 221.4 363.69 
C 202.289176 363.69 183.36418 359.925584 165.70808 352.612188 
C 148.05198 345.298792 132.008144 334.578643 118.49475 321.06525 
C 104.981357 307.551856 94.261208 291.50802 86.947812 273.85192 
C 79.634416 256.19582 75.87 237.270824 75.87 218.16 
C 75.87 199.049176 79.634416 180.12418 86.947812 162.46808 
C 94.261208 144.81198 104.981357 128.768144 118.49475 115.25475 
C 132.008144 101.741357 148.05198 91.021208 165.70808 83.707812 
C 183.36418 76.394416 202.289176 72.63 221.4 72.63 
" clip-path="url(#p42f4dabe0c)" style="fill: none; stroke: #ffffff; stroke-linecap: round"/>
     </g>
     <g id="text_16">
      <!-- 0.7 -->
      <g style="fill: #dc143c" transform="translate(277.09192 81.521562) scale(0.11 -0.11)">
       <use xlink:href="#ArialMT-30"/>
       <use xlink:href="#ArialMT-2e" x="55.615234"/>
       <use xlink:href="#ArialMT-37" x="83.398438"/>
      </g>
     </g>
    </g>
    <g id="ytick_9">
     <g id="line2d_17">
      <path d="M 221.4 51.84 
C 243.240942 51.84 264.869509 56.142189 285.047908 64.500356 
C 305.226308 72.858523 323.562121 85.110122 339.006 100.554 
C 354.449878 115.997879 366.701477 134.333692 375.059644 154.512092 
C 383.417811 174.690491 387.72 196.319058 387.72 218.16 
C 387.72 240.000942 383.417811 261.629509 375.059644 281.807908 
C 366.701477 301.986308 354.449878 320.322121 339.006 335.766 
C 323.562121 351.209878 305.226308 363.461477 285.047908 371.819644 
C 264.869509 380.177811 243.240942 384.48 221.4 384.48 
C 199.559058 384.48 177.930491 380.177811 157.752092 371.819644 
C 137.573692 363.461477 119.237879 351.209878 103.794 335.766 
C 88.350122 320.322121 76.098523 301.986308 67.740356 281.807908 
C 59.382189 261.629509 55.08 240.000942 55.08 218.16 
C 55.08 196.319058 59.382189 174.690491 67.740356 154.512092 
C 76.098523 134.333692 88.350122 115.997879 103.794 100.554 
C 119.237879 85.110122 137.573692 72.858523 157.752092 64.500356 
C 177.930491 56.142189 199.559058 51.84 221.4 51.84 
" clip-path="url(#p42f4dabe0c)" style="fill: none; stroke: #ffffff; stroke-linecap: round"/>
     </g>
     <g id="text_17">
      <!-- 0.8 -->
      <g style="fill: #dc143c" transform="translate(285.047908 62.314106) scale(0.11 -0.11)">
       <use xlink:href="#ArialMT-30"/>
       <use xlink:href="#ArialMT-2e" x="55.615234"/>
       <use xlink:href="#ArialMT-38" x="83.398438"/>
      </g>
     </g>
    </g>
   </g>
   <g id="line2d_18">
    <defs>
     <path id="m76823f0fc3" d="M 0 0.5 
C 0.132602 0.5 0.25979 0.447317 0.353553 0.353553 
C 0.447317 0.25979 0.5 0.132602 0.5 0 
C 0.5 -0.132602 0.447317 -0.25979 0.353553 -0.353553 
C 0.25979 -0.447317 0.132602 -0.5 0 -0.5 
C -0.132602 -0.5 -0.25979 -0.447317 -0.353553 -0.353553 
C -0.447317 -0.25979 -0.5 -0.132602 -0.5 0 
C -0.5 0.132602 -0.447317 0.25979 -0.353553 0.353553 
C -0.25979 0.447317 -0.132602 0.5 0 0.5 
z
" style="stroke: #000000"/>
    </defs>
    <g clip-path="url(#p42f4dabe0c)">
     <use xlink:href="#m76823f0fc3" x="128.018362" y="291.117732" style="stroke: #000000"/>
     <use xlink:href="#m76823f0fc3" x="125.529059" y="287.814316" style="stroke: #000000"/>
     <use xlink:href="#m76823f0fc3" x="123.156561" y="284.426037" style="stroke: #000000"/>
     <use xlink:href="#m76823f0fc3" x="119.140664" y="282.058725" style="stroke: #000000"/>
     <use xlink:href="#m76823f0fc3" x="116.972925" y="278.451" style="stroke: #000000"/>
     <use xlink:href="#m76823f0fc3" x="118.603709" y="272.817757" style="stroke: #000000"/>
     <use xlink:href="#m76823f0fc3" x="120.495988" y="267.374175" style="stroke: #000000"/>
     <use xlink:href="#m76823f0fc3" x="118.839906" y="263.822696" style="stroke: #000000"/>
     <use xlink:href="#m76823f0fc3" x="117.308777" y="260.215584" style="stroke: #000000"/>
     <use xlink:href="#m76823f0fc3" x="115.904468" y="256.557233" style="stroke: #000000"/>
     <use xlink:href="#m76823f0fc3" x="114.628689" y="252.852102" style="stroke: #000000"/>
     <use xlink:href="#m76823f0fc3" x="111.484531" y="249.677753" style="stroke: #000000"/>
     <use xlink:href="#m76823f0fc3" x="110.451535" y="245.822559" style="stroke: #000000"/>
     <use xlink:href="#m76823f0fc3" x="107.520144" y="242.365911" style="stroke: #000000"/>
     <use xlink:href="#m76823f0fc3" x="105.486575" y="242.798159" style="stroke: #000000"/>
     <use xlink:href="#m76823f0fc3" x="102.649912" y="239.098845" style="stroke: #000000"/>
     <use xlink:href="#m76823f0fc3" x="101.991496" y="234.941771" style="stroke: #000000"/>
     <use xlink:href="#m76823f0fc3" x="99.41095" y="230.981566" style="stroke: #000000"/>
     <use xlink:href="#m76823f0fc3" x="99.037796" y="226.716399" style="stroke: #000000"/>
     <use xlink:href="#m76823f0fc3" x="102.969189" y="222.295695" style="stroke: #000000"/>
     <use xlink:href="#m76823f0fc3" x="100.818" y="218.16" style="stroke: #000000"/>
     <use xlink:href="#m76823f0fc3" x="102.969189" y="214.024305" style="stroke: #000000"/>
     <use xlink:href="#m76823f0fc3" x="101.111732" y="209.748625" style="stroke: #000000"/>
     <use xlink:href="#m76823f0fc3" x="103.185667" y="209.893649" style="stroke: #000000"/>
     <use xlink:href="#m76823f0fc3" x="101.478561" y="205.555749" style="stroke: #000000"/>
     <use xlink:href="#m76823f0fc3" x="104.050263" y="201.66757" style="stroke: #000000"/>
     <use xlink:href="#m76823f0fc3" x="101.991496" y="201.378229" style="stroke: #000000"/>
     <use xlink:href="#m76823f0fc3" x="104.697327" y="197.58217" style="stroke: #000000"/>
     <use xlink:href="#m76823f0fc3" x="104.697327" y="197.58217" style="stroke: #000000"/>
     <use xlink:href="#m76823f0fc3" x="103.453006" y="193.089592" style="stroke: #000000"/>
     <use xlink:href="#m76823f0fc3" x="103.453006" y="193.089592" style="stroke: #000000"/>
     <use xlink:href="#m76823f0fc3" x="106.417046" y="189.49153" style="stroke: #000000"/>
     <use xlink:href="#m76823f0fc3" x="102.382556" y="188.485618" style="stroke: #000000"/>
     <use xlink:href="#m76823f0fc3" x="105.489142" y="184.923096" style="stroke: #000000"/>
     <use xlink:href="#m76823f0fc3" x="103.490679" y="184.350046" style="stroke: #000000"/>
     <use xlink:href="#m76823f0fc3" x="106.719703" y="180.898113" style="stroke: #000000"/>
     <use xlink:href="#m76823f0fc3" x="102.76521" y="179.61322" style="stroke: #000000"/>
     <use xlink:href="#m76823f0fc3" x="106.136363" y="176.207467" style="stroke: #000000"/>
     <use xlink:href="#m76823f0fc3" x="104.182742" y="175.496407" style="stroke: #000000"/>
     <use xlink:href="#m76823f0fc3" x="107.670701" y="172.210381" style="stroke: #000000"/>
     <use xlink:href="#m76823f0fc3" x="105.743086" y="171.431574" style="stroke: #000000"/>
     <use xlink:href="#m76823f0fc3" x="109.343601" y="168.269277" style="stroke: #000000"/>
     <use xlink:href="#m76823f0fc3" x="107.44434" y="167.423671" style="stroke: #000000"/>
     <use xlink:href="#m76823f0fc3" x="109.284431" y="163.477583" style="stroke: #000000"/>
     <use xlink:href="#m76823f0fc3" x="107.415838" y="162.56621" style="stroke: #000000"/>
     <use xlink:href="#m76823f0fc3" x="111.261117" y="159.598117" style="stroke: #000000"/>
     <use xlink:href="#m76823f0fc3" x="109.425469" y="158.622086" style="stroke: #000000"/>
     <use xlink:href="#m76823f0fc3" x="113.371991" y="155.79" style="stroke: #000000"/>
     <use xlink:href="#m76823f0fc3" x="111.571524" y="154.7505" style="stroke: #000000"/>
     <use xlink:href="#m76823f0fc3" x="115.61448" y="152.057871" style="stroke: #000000"/>
     <use xlink:href="#m76823f0fc3" x="113.851388" y="150.956169" style="stroke: #000000"/>
     <use xlink:href="#m76823f0fc3" x="117.985853" y="148.406277" style="stroke: #000000"/>
     <use xlink:href="#m76823f0fc3" x="116.262284" y="147.243715" style="stroke: #000000"/>
     <use xlink:href="#m76823f0fc3" x="120.48322" y="144.839668" style="stroke: #000000"/>
     <use xlink:href="#m76823f0fc3" x="118.801274" y="143.617662" style="stroke: #000000"/>
     <use xlink:href="#m76823f0fc3" x="123.103539" y="141.362388" style="stroke: #000000"/>
     <use xlink:href="#m76823f0fc3" x="121.465264" y="140.082427" style="stroke: #000000"/>
     <use xlink:href="#m76823f0fc3" x="125.843616" y="137.978674" style="stroke: #000000"/>
     <use xlink:href="#m76823f0fc3" x="124.25101" y="136.642318" style="stroke: #000000"/>
     <use xlink:href="#m76823f0fc3" x="128.700114" y="134.692648" style="stroke: #000000"/>
     <use xlink:href="#m76823f0fc3" x="127.155116" y="133.301526" style="stroke: #000000"/>
     <use xlink:href="#m76823f0fc3" x="131.669553" y="131.508315" style="stroke: #000000"/>
     <use xlink:href="#m76823f0fc3" x="130.174046" y="130.06412" style="stroke: #000000"/>
     <use xlink:href="#m76823f0fc3" x="134.748315" y="128.429553" style="stroke: #000000"/>
     <use xlink:href="#m76823f0fc3" x="133.30412" y="126.934046" style="stroke: #000000"/>
     <use xlink:href="#m76823f0fc3" x="137.932648" y="125.460114" style="stroke: #000000"/>
     <use xlink:href="#m76823f0fc3" x="136.541526" y="123.915116" style="stroke: #000000"/>
     <use xlink:href="#m76823f0fc3" x="141.218674" y="122.603616" style="stroke: #000000"/>
     <use xlink:href="#m76823f0fc3" x="139.882318" y="121.01101" style="stroke: #000000"/>
     <use xlink:href="#m76823f0fc3" x="144.602388" y="119.863539" style="stroke: #000000"/>
     <use xlink:href="#m76823f0fc3" x="143.322427" y="118.225264" style="stroke: #000000"/>
     <use xlink:href="#m76823f0fc3" x="148.079668" y="117.24322" style="stroke: #000000"/>
     <use xlink:href="#m76823f0fc3" x="146.857662" y="115.561274" style="stroke: #000000"/>
     <use xlink:href="#m76823f0fc3" x="151.646277" y="114.745853" style="stroke: #000000"/>
     <use xlink:href="#m76823f0fc3" x="150.483715" y="113.022284" style="stroke: #000000"/>
     <use xlink:href="#m76823f0fc3" x="155.297871" y="112.37448" style="stroke: #000000"/>
     <use xlink:href="#m76823f0fc3" x="154.196169" y="110.611388" style="stroke: #000000"/>
     <use xlink:href="#m76823f0fc3" x="159.03" y="110.131991" style="stroke: #000000"/>
     <use xlink:href="#m76823f0fc3" x="157.9905" y="108.331524" style="stroke: #000000"/>
     <use xlink:href="#m76823f0fc3" x="162.838117" y="108.021117" style="stroke: #000000"/>
     <use xlink:href="#m76823f0fc3" x="161.862086" y="106.185469" style="stroke: #000000"/>
     <use xlink:href="#m76823f0fc3" x="166.717583" y="106.044431" style="stroke: #000000"/>
     <use xlink:href="#m76823f0fc3" x="165.80621" y="104.175838" style="stroke: #000000"/>
     <use xlink:href="#m76823f0fc3" x="170.663671" y="104.20434" style="stroke: #000000"/>
     <use xlink:href="#m76823f0fc3" x="169.818066" y="102.305079" style="stroke: #000000"/>
     <use xlink:href="#m76823f0fc3" x="174.671574" y="102.503086" style="stroke: #000000"/>
     <use xlink:href="#m76823f0fc3" x="173.892766" y="100.575471" style="stroke: #000000"/>
     <use xlink:href="#m76823f0fc3" x="178.736407" y="100.942742" style="stroke: #000000"/>
     <use xlink:href="#m76823f0fc3" x="178.025347" y="98.989122" style="stroke: #000000"/>
     <use xlink:href="#m76823f0fc3" x="182.85322" y="99.52521" style="stroke: #000000"/>
     <use xlink:href="#m76823f0fc3" x="182.210774" y="97.547964" style="stroke: #000000"/>
     <use xlink:href="#m76823f0fc3" x="187.016996" y="98.252216" style="stroke: #000000"/>
     <use xlink:href="#m76823f0fc3" x="186.443946" y="96.253753" style="stroke: #000000"/>
     <use xlink:href="#m76823f0fc3" x="191.222663" y="97.125311" style="stroke: #000000"/>
     <use xlink:href="#m76823f0fc3" x="190.719707" y="95.108066" style="stroke: #000000"/>
     <use xlink:href="#m76823f0fc3" x="195.465096" y="96.145868" style="stroke: #000000"/>
     <use xlink:href="#m76823f0fc3" x="195.032847" y="94.112299" style="stroke: #000000"/>
     <use xlink:href="#m76823f0fc3" x="199.739126" y="95.315081" style="stroke: #000000"/>
     <use xlink:href="#m76823f0fc3" x="199.378112" y="93.267666" style="stroke: #000000"/>
     <use xlink:href="#m76823f0fc3" x="204.039547" y="94.633961" style="stroke: #000000"/>
     <use xlink:href="#m76823f0fc3" x="203.750207" y="92.575194" style="stroke: #000000"/>
     <use xlink:href="#m76823f0fc3" x="208.361119" y="94.103339" style="stroke: #000000"/>
     <use xlink:href="#m76823f0fc3" x="208.143805" y="92.035728" style="stroke: #000000"/>
     <use xlink:href="#m76823f0fc3" x="212.698577" y="93.72386" style="stroke: #000000"/>
     <use xlink:href="#m76823f0fc3" x="212.553554" y="91.649925" style="stroke: #000000"/>
     <use xlink:href="#m76823f0fc3" x="217.046637" y="93.495988" style="stroke: #000000"/>
     <use xlink:href="#m76823f0fc3" x="216.974081" y="91.418255" style="stroke: #000000"/>
     <use xlink:href="#m76823f0fc3" x="221.4" y="93.42" style="stroke: #000000"/>
     <use xlink:href="#m76823f0fc3" x="221.4" y="91.341" style="stroke: #000000"/>
     <use xlink:href="#m76823f0fc3" x="225.753363" y="93.495988" style="stroke: #000000"/>
     <use xlink:href="#m76823f0fc3" x="225.825919" y="91.418255" style="stroke: #000000"/>
     <use xlink:href="#m76823f0fc3" x="230.101423" y="93.72386" style="stroke: #000000"/>
     <use xlink:href="#m76823f0fc3" x="230.246446" y="91.649925" style="stroke: #000000"/>
     <use xlink:href="#m76823f0fc3" x="234.438881" y="94.103339" style="stroke: #000000"/>
     <use xlink:href="#m76823f0fc3" x="234.656195" y="92.035728" style="stroke: #000000"/>
     <use xlink:href="#m76823f0fc3" x="238.760453" y="94.633961" style="stroke: #000000"/>
     <use xlink:href="#m76823f0fc3" x="238.760453" y="94.633961" style="stroke: #000000"/>
     <use xlink:href="#m76823f0fc3" x="242.699859" y="97.362496" style="stroke: #000000"/>
     <use xlink:href="#m76823f0fc3" x="242.699859" y="97.362496" style="stroke: #000000"/>
     <use xlink:href="#m76823f0fc3" x="246.470408" y="100.213006" style="stroke: #000000"/>
     <use xlink:href="#m76823f0fc3" x="246.470408" y="100.213006" style="stroke: #000000"/>
     <use xlink:href="#m76823f0fc3" x="250.06847" y="103.177046" style="stroke: #000000"/>
     <use xlink:href="#m76823f0fc3" x="250.06847" y="103.177046" style="stroke: #000000"/>
     <use xlink:href="#m76823f0fc3" x="253.490804" y="106.246068" style="stroke: #000000"/>
     <use xlink:href="#m76823f0fc3" x="253.490804" y="106.246068" style="stroke: #000000"/>
     <use xlink:href="#m76823f0fc3" x="256.734548" y="109.411443" style="stroke: #000000"/>
     <use xlink:href="#m76823f0fc3" x="257.376995" y="107.434196" style="stroke: #000000"/>
     <use xlink:href="#m76823f0fc3" x="261.219353" y="108.757226" style="stroke: #000000"/>
     <use xlink:href="#m76823f0fc3" x="261.219353" y="108.757226" style="stroke: #000000"/>
     <use xlink:href="#m76823f0fc3" x="265.013198" y="110.213547" style="stroke: #000000"/>
     <use xlink:href="#m76823f0fc3" x="269.599512" y="109.902123" style="stroke: #000000"/>
     <use xlink:href="#m76823f0fc3" x="272.436922" y="113.518802" style="stroke: #000000"/>
     <use xlink:href="#m76823f0fc3" x="277.033789" y="113.528061" style="stroke: #000000"/>
     <use xlink:href="#m76823f0fc3" x="280.6515" y="115.533392" style="stroke: #000000"/>
     <use xlink:href="#m76823f0fc3" x="284.197023" y="117.663756" style="stroke: #000000"/>
     <use xlink:href="#m76823f0fc3" x="287.666037" y="119.916561" style="stroke: #000000"/>
     <use xlink:href="#m76823f0fc3" x="291.054316" y="122.289059" style="stroke: #000000"/>
     <use xlink:href="#m76823f0fc3" x="293.077772" y="126.416636" style="stroke: #000000"/>
     <use xlink:href="#m76823f0fc3" x="296.235905" y="128.974042" style="stroke: #000000"/>
     <use xlink:href="#m76823f0fc3" x="299.302862" y="131.640107" style="stroke: #000000"/>
     <use xlink:href="#m76823f0fc3" x="302.274906" y="134.411583" style="stroke: #000000"/>
     <use xlink:href="#m76823f0fc3" x="306.374895" y="141.648261" style="stroke: #000000"/>
     <use xlink:href="#m76823f0fc3" x="308.993352" y="144.660451" style="stroke: #000000"/>
     <use xlink:href="#m76823f0fc3" x="311.50509" y="147.762189" style="stroke: #000000"/>
     <use xlink:href="#m76823f0fc3" x="313.907048" y="150.949695" style="stroke: #000000"/>
     <use xlink:href="#m76823f0fc3" x="316.196301" y="154.219087" style="stroke: #000000"/>
     <use xlink:href="#m76823f0fc3" x="316.606968" y="158.668084" style="stroke: #000000"/>
     <use xlink:href="#m76823f0fc3" x="318.625208" y="162.027" style="stroke: #000000"/>
     <use xlink:href="#m76823f0fc3" x="320.524994" y="165.454306" style="stroke: #000000"/>
     <use xlink:href="#m76823f0fc3" x="322.304012" y="168.945825" style="stroke: #000000"/>
     <use xlink:href="#m76823f0fc3" x="322.060833" y="173.34291" style="stroke: #000000"/>
     <use xlink:href="#m76823f0fc3" x="324.941911" y="180.473826" style="stroke: #000000"/>
     <use xlink:href="#m76823f0fc3" x="326.194064" y="184.110344" style="stroke: #000000"/>
     <use xlink:href="#m76823f0fc3" x="325.320079" y="188.361397" style="stroke: #000000"/>
     <use xlink:href="#m76823f0fc3" x="326.29673" y="192.006308" style="stroke: #000000"/>
     <use xlink:href="#m76823f0fc3" x="325.112012" y="196.115331" style="stroke: #000000"/>
     <use xlink:href="#m76823f0fc3" x="325.818181" y="199.748257" style="stroke: #000000"/>
     <use xlink:href="#m76823f0fc3" x="324.338366" y="203.692956" style="stroke: #000000"/>
     <use xlink:href="#m76823f0fc3" x="324.780551" y="207.294266" style="stroke: #000000"/>
     <use xlink:href="#m76823f0fc3" x="329.244654" y="210.618767" style="stroke: #000000"/>
     <use xlink:href="#m76823f0fc3" x="331.519877" y="214.314529" style="stroke: #000000"/>
     <use xlink:href="#m76823f0fc3" x="333.666" y="218.16" style="stroke: #000000"/>
     <use xlink:href="#m76823f0fc3" x="337.753078" y="222.223139" style="stroke: #000000"/>
     <use xlink:href="#m76823f0fc3" x="339.614333" y="226.426351" style="stroke: #000000"/>
     <use xlink:href="#m76823f0fc3" x="338.102673" y="238.73783" style="stroke: #000000"/>
     <use xlink:href="#m76823f0fc3" x="218.787982" y="292.958407" style="stroke: #000000"/>
     <use xlink:href="#m76823f0fc3" x="216.034123" y="294.895619" style="stroke: #000000"/>
     <use xlink:href="#m76823f0fc3" x="213.576672" y="292.593997" style="stroke: #000000"/>
     <use xlink:href="#m76823f0fc3" x="213.359357" y="294.661608" style="stroke: #000000"/>
     <use xlink:href="#m76823f0fc3" x="210.983728" y="292.275623" style="stroke: #000000"/>
     <use xlink:href="#m76823f0fc3" x="210.694388" y="294.334391" style="stroke: #000000"/>
     <use xlink:href="#m76823f0fc3" x="208.403476" y="291.866951" style="stroke: #000000"/>
     <use xlink:href="#m76823f0fc3" x="208.403476" y="291.866951" style="stroke: #000000"/>
     <use xlink:href="#m76823f0fc3" x="206.271306" y="289.33491" style="stroke: #000000"/>
     <use xlink:href="#m76823f0fc3" x="205.839057" y="291.368479" style="stroke: #000000"/>
     <use xlink:href="#m76823f0fc3" x="203.796553" y="288.763569" style="stroke: #000000"/>
     <use xlink:href="#m76823f0fc3" x="203.293598" y="290.780813" style="stroke: #000000"/>
     <use xlink:href="#m76823f0fc3" x="201.343248" y="288.106207" style="stroke: #000000"/>
     <use xlink:href="#m76823f0fc3" x="200.770198" y="290.10467" style="stroke: #000000"/>
     <use xlink:href="#m76823f0fc3" x="198.914378" y="287.363627" style="stroke: #000000"/>
     <use xlink:href="#m76823f0fc3" x="198.271932" y="289.340874" style="stroke: #000000"/>
     <use xlink:href="#m76823f0fc3" x="196.512904" y="286.536734" style="stroke: #000000"/>
     <use xlink:href="#m76823f0fc3" x="195.801844" y="288.490355" style="stroke: #000000"/>
     <use xlink:href="#m76823f0fc3" x="194.141751" y="285.626533" style="stroke: #000000"/>
     <use xlink:href="#m76823f0fc3" x="193.362944" y="287.554148" style="stroke: #000000"/>
     <use xlink:href="#m76823f0fc3" x="191.803808" y="284.634135" style="stroke: #000000"/>
     <use xlink:href="#m76823f0fc3" x="190.958203" y="286.533396" style="stroke: #000000"/>
     <use xlink:href="#m76823f0fc3" x="189.501924" y="283.560749" style="stroke: #000000"/>
     <use xlink:href="#m76823f0fc3" x="188.59055" y="285.429342" style="stroke: #000000"/>
     <use xlink:href="#m76823f0fc3" x="186.26287" y="284.24333" style="stroke: #000000"/>
     <use xlink:href="#m76823f0fc3" x="184.310808" y="287.914626" style="stroke: #000000"/>
     <use xlink:href="#m76823f0fc3" x="183.978" y="282.976805" style="stroke: #000000"/>
     <use xlink:href="#m76823f0fc3" x="181.899" y="286.577739" style="stroke: #000000"/>
     <use xlink:href="#m76823f0fc3" x="179.535318" y="285.157496" style="stroke: #000000"/>
     <use xlink:href="#m76823f0fc3" x="174.897518" y="287.102765" style="stroke: #000000"/>
     <use xlink:href="#m76823f0fc3" x="172.519778" y="285.437853" style="stroke: #000000"/>
     <use xlink:href="#m76823f0fc3" x="172.519778" y="285.437853" style="stroke: #000000"/>
     <use xlink:href="#m76823f0fc3" x="170.201592" y="283.690974" style="stroke: #000000"/>
     <use xlink:href="#m76823f0fc3" x="165.273071" y="285.049469" style="stroke: #000000"/>
     <use xlink:href="#m76823f0fc3" x="162.972854" y="283.04992" style="stroke: #000000"/>
     <use xlink:href="#m76823f0fc3" x="160.74382" y="280.971313" style="stroke: #000000"/>
     <use xlink:href="#m76823f0fc3" x="160.74382" y="280.971313" style="stroke: #000000"/>
     <use xlink:href="#m76823f0fc3" x="155.597672" y="281.704569" style="stroke: #000000"/>
     <use xlink:href="#m76823f0fc3" x="153.420084" y="279.369391" style="stroke: #000000"/>
     <use xlink:href="#m76823f0fc3" x="151.325319" y="276.959639" style="stroke: #000000"/>
     <use xlink:href="#m76823f0fc3" x="150.954203" y="273.198289" style="stroke: #000000"/>
     <use xlink:href="#m76823f0fc3" x="152.4402" y="268.262227" style="stroke: #000000"/>
     <use xlink:href="#m76823f0fc3" x="149.010097" y="266.987606" style="stroke: #000000"/>
     <use xlink:href="#m76823f0fc3" x="150.87632" y="262.228086" style="stroke: #000000"/>
     <use xlink:href="#m76823f0fc3" x="152.982261" y="257.661" style="stroke: #000000"/>
     <use xlink:href="#m76823f0fc3" x="153.481022" y="254.273161" style="stroke: #000000"/>
     <use xlink:href="#m76823f0fc3" x="155.999251" y="250.058076" style="stroke: #000000"/>
     <use xlink:href="#m76823f0fc3" x="154.925865" y="247.756192" style="stroke: #000000"/>
     <use xlink:href="#m76823f0fc3" x="153.933467" y="245.418249" style="stroke: #000000"/>
     <use xlink:href="#m76823f0fc3" x="154.976887" y="242.336036" style="stroke: #000000"/>
     <use xlink:href="#m76823f0fc3" x="152.196373" y="240.645622" style="stroke: #000000"/>
     <use xlink:href="#m76823f0fc3" x="149.45533" y="238.789802" style="stroke: #000000"/>
     <use xlink:href="#m76823f0fc3" x="146.761942" y="236.769358" style="stroke: #000000"/>
     <use xlink:href="#m76823f0fc3" x="146.157952" y="234.153191" style="stroke: #000000"/>
     <use xlink:href="#m76823f0fc3" x="141.550803" y="232.239568" style="stroke: #000000"/>
     <use xlink:href="#m76823f0fc3" x="136.99054" y="230.022976" style="stroke: #000000"/>
     <use xlink:href="#m76823f0fc3" x="134.560337" y="227.287216" style="stroke: #000000"/>
     <use xlink:href="#m76823f0fc3" x="132.220767" y="224.396019" style="stroke: #000000"/>
     <use xlink:href="#m76823f0fc3" x="132.220767" y="224.396019" style="stroke: #000000"/>
     <use xlink:href="#m76823f0fc3" x="134.135192" y="221.207354" style="stroke: #000000"/>
     <use xlink:href="#m76823f0fc3" x="134.082" y="218.16" style="stroke: #000000"/>
     <use xlink:href="#m76823f0fc3" x="132.057458" y="215.04009" style="stroke: #000000"/>
     <use xlink:href="#m76823f0fc3" x="132.220767" y="211.923981" style="stroke: #000000"/>
     <use xlink:href="#m76823f0fc3" x="132.492726" y="208.815469" style="stroke: #000000"/>
     <use xlink:href="#m76823f0fc3" x="128.357504" y="208.38084" style="stroke: #000000"/>
     <use xlink:href="#m76823f0fc3" x="256.44632" y="131.417314" style="stroke: #000000"/>
     <use xlink:href="#m76823f0fc3" x="259.452247" y="132.693255" style="stroke: #000000"/>
     <use xlink:href="#m76823f0fc3" x="262.411813" y="134.073323" style="stroke: #000000"/>
     <use xlink:href="#m76823f0fc3" x="266.297443" y="133.72019" style="stroke: #000000"/>
     <use xlink:href="#m76823f0fc3" x="269.217" y="135.338527" style="stroke: #000000"/>
     <use xlink:href="#m76823f0fc3" x="273.180001" y="135.294676" style="stroke: #000000"/>
     <use xlink:href="#m76823f0fc3" x="276.040416" y="137.152252" style="stroke: #000000"/>
     <use xlink:href="#m76823f0fc3" x="277.612255" y="140.790469" style="stroke: #000000"/>
     <use xlink:href="#m76823f0fc3" x="280.27817" y="142.79938" style="stroke: #000000"/>
     <use xlink:href="#m76823f0fc3" x="282.87235" y="144.900106" style="stroke: #000000"/>
     <use xlink:href="#m76823f0fc3" x="281.218269" y="151.725082" style="stroke: #000000"/>
     <use xlink:href="#m76823f0fc3" x="283.500374" y="153.85318" style="stroke: #000000"/>
     <use xlink:href="#m76823f0fc3" x="285.70682" y="156.059626" style="stroke: #000000"/>
     <use xlink:href="#m76823f0fc3" x="287.834918" y="158.341731" style="stroke: #000000"/>
     <use xlink:href="#m76823f0fc3" x="288.289469" y="162.033071" style="stroke: #000000"/>
     <use xlink:href="#m76823f0fc3" x="288.289469" y="162.033071" style="stroke: #000000"/>
     <use xlink:href="#m76823f0fc3" x="290.207523" y="164.401671" style="stroke: #000000"/>
     <use xlink:href="#m76823f0fc3" x="292.041746" y="166.835767" style="stroke: #000000"/>
     <use xlink:href="#m76823f0fc3" x="293.789903" y="169.332394" style="stroke: #000000"/>
     <use xlink:href="#m76823f0fc3" x="295.449864" y="171.88851" style="stroke: #000000"/>
     <use xlink:href="#m76823f0fc3" x="295.219139" y="175.5405" style="stroke: #000000"/>
     <use xlink:href="#m76823f0fc3" x="300.332866" y="176.190651" style="stroke: #000000"/>
     <use xlink:href="#m76823f0fc3" x="301.749491" y="178.970935" style="stroke: #000000"/>
     <use xlink:href="#m76823f0fc3" x="303.068223" y="181.798964" style="stroke: #000000"/>
     <use xlink:href="#m76823f0fc3" x="304.287455" y="184.671294" style="stroke: #000000"/>
     <use xlink:href="#m76823f0fc3" x="303.45208" y="188.295485" style="stroke: #000000"/>
     <use xlink:href="#m76823f0fc3" x="304.444353" y="191.177254" style="stroke: #000000"/>
     <use xlink:href="#m76823f0fc3" x="305.335449" y="194.091897" style="stroke: #000000"/>
     <use xlink:href="#m76823f0fc3" x="304.107037" y="197.53882" style="stroke: #000000"/>
     <use xlink:href="#m76823f0fc3" x="304.776323" y="200.437815" style="stroke: #000000"/>
     <use xlink:href="#m76823f0fc3" x="305.344028" y="203.358403" style="stroke: #000000"/>
     <use xlink:href="#m76823f0fc3" x="305.80946" y="206.297024" style="stroke: #000000"/>
     <use xlink:href="#m76823f0fc3" x="306.587075" y="215.185202" style="stroke: #000000"/>
     <use xlink:href="#m76823f0fc3" x="306.639" y="218.16" style="stroke: #000000"/>
     <use xlink:href="#m76823f0fc3" x="306.587075" y="221.134798" style="stroke: #000000"/>
     <use xlink:href="#m76823f0fc3" x="306.431362" y="224.105972" style="stroke: #000000"/>
     <use xlink:href="#m76823f0fc3" x="306.172052" y="227.069902" style="stroke: #000000"/>
     <use xlink:href="#m76823f0fc3" x="306.172052" y="227.069902" style="stroke: #000000"/>
     <use xlink:href="#m76823f0fc3" x="305.80946" y="230.022976" style="stroke: #000000"/>
     <use xlink:href="#m76823f0fc3" x="307.868227" y="230.312317" style="stroke: #000000"/>
     <use xlink:href="#m76823f0fc3" x="305.344028" y="232.961597" style="stroke: #000000"/>
     <use xlink:href="#m76823f0fc3" x="307.391443" y="233.322612" style="stroke: #000000"/>
     <use xlink:href="#m76823f0fc3" x="304.776323" y="235.882185" style="stroke: #000000"/>
     <use xlink:href="#m76823f0fc3" x="306.809892" y="236.314433" style="stroke: #000000"/>
     <use xlink:href="#m76823f0fc3" x="302.089793" y="238.278225" style="stroke: #000000"/>
     <use xlink:href="#m76823f0fc3" x="304.107037" y="238.78118" style="stroke: #000000"/>
     <use xlink:href="#m76823f0fc3" x="301.338523" y="241.082003" style="stroke: #000000"/>
     <use xlink:href="#m76823f0fc3" x="303.336986" y="241.655053" style="stroke: #000000"/>
     <use xlink:href="#m76823f0fc3" x="300.48986" y="243.857853" style="stroke: #000000"/>
     <use xlink:href="#m76823f0fc3" x="302.467106" y="244.5003" style="stroke: #000000"/>
     <use xlink:href="#m76823f0fc3" x="299.544838" y="246.602395" style="stroke: #000000"/>
     <use xlink:href="#m76823f0fc3" x="301.498459" y="247.313455" style="stroke: #000000"/>
     <use xlink:href="#m76823f0fc3" x="298.504609" y="249.312284" style="stroke: #000000"/>
     <use xlink:href="#m76823f0fc3" x="300.432225" y="250.091091" style="stroke: #000000"/>
     <use xlink:href="#m76823f0fc3" x="297.37044" y="251.984219" style="stroke: #000000"/>
     <use xlink:href="#m76823f0fc3" x="299.269701" y="252.829825" style="stroke: #000000"/>
     <use xlink:href="#m76823f0fc3" x="296.143713" y="254.614945" style="stroke: #000000"/>
     <use xlink:href="#m76823f0fc3" x="298.012306" y="255.526318" style="stroke: #000000"/>
     <use xlink:href="#m76823f0fc3" x="294.825922" y="257.201255" style="stroke: #000000"/>
     <use xlink:href="#m76823f0fc3" x="296.66157" y="258.177287" style="stroke: #000000"/>
     <use xlink:href="#m76823f0fc3" x="293.418673" y="259.74" style="stroke: #000000"/>
     <use xlink:href="#m76823f0fc3" x="295.219139" y="260.7795" style="stroke: #000000"/>
     <use xlink:href="#m76823f0fc3" x="291.92368" y="262.228086" style="stroke: #000000"/>
     <use xlink:href="#m76823f0fc3" x="293.686772" y="263.329788" style="stroke: #000000"/>
     <use xlink:href="#m76823f0fc3" x="290.342765" y="264.662482" style="stroke: #000000"/>
     <use xlink:href="#m76823f0fc3" x="292.066334" y="265.825044" style="stroke: #000000"/>
     <use xlink:href="#m76823f0fc3" x="288.677853" y="267.040222" style="stroke: #000000"/>
     <use xlink:href="#m76823f0fc3" x="290.3598" y="268.262227" style="stroke: #000000"/>
     <use xlink:href="#m76823f0fc3" x="286.930974" y="269.358408" style="stroke: #000000"/>
     <use xlink:href="#m76823f0fc3" x="288.569249" y="270.638368" style="stroke: #000000"/>
     <use xlink:href="#m76823f0fc3" x="285.104256" y="271.614218" style="stroke: #000000"/>
     <use xlink:href="#m76823f0fc3" x="286.696862" y="272.950573" style="stroke: #000000"/>
     <use xlink:href="#m76823f0fc3" x="283.199924" y="273.804901" style="stroke: #000000"/>
     <use xlink:href="#m76823f0fc3" x="284.744922" y="275.196024" style="stroke: #000000"/>
     <use xlink:href="#m76823f0fc3" x="281.220298" y="275.92779" style="stroke: #000000"/>
     <use xlink:href="#m76823f0fc3" x="282.715805" y="277.371985" style="stroke: #000000"/>
     <use xlink:href="#m76823f0fc3" x="279.16779" y="277.980298" style="stroke: #000000"/>
     <use xlink:href="#m76823f0fc3" x="280.611985" y="279.475805" style="stroke: #000000"/>
     <use xlink:href="#m76823f0fc3" x="277.044901" y="279.959924" style="stroke: #000000"/>
     <use xlink:href="#m76823f0fc3" x="278.436024" y="281.504922" style="stroke: #000000"/>
     <use xlink:href="#m76823f0fc3" x="274.854218" y="281.864256" style="stroke: #000000"/>
     <use xlink:href="#m76823f0fc3" x="276.190573" y="283.456862" style="stroke: #000000"/>
     <use xlink:href="#m76823f0fc3" x="272.598408" y="283.690974" style="stroke: #000000"/>
     <use xlink:href="#m76823f0fc3" x="273.878368" y="285.329249" style="stroke: #000000"/>
     <use xlink:href="#m76823f0fc3" x="270.280222" y="285.437853" style="stroke: #000000"/>
     <use xlink:href="#m76823f0fc3" x="271.502227" y="287.1198" style="stroke: #000000"/>
     <use xlink:href="#m76823f0fc3" x="267.902482" y="287.102765" style="stroke: #000000"/>
     <use xlink:href="#m76823f0fc3" x="267.902482" y="287.102765" style="stroke: #000000"/>
     <use xlink:href="#m76823f0fc3" x="264.366384" y="286.920588" style="stroke: #000000"/>
     <use xlink:href="#m76823f0fc3" x="264.366384" y="286.920588" style="stroke: #000000"/>
     <use xlink:href="#m76823f0fc3" x="259.8615" y="284.777272" style="stroke: #000000"/>
     <use xlink:href="#m76823f0fc3" x="260.901" y="286.577739" style="stroke: #000000"/>
     <use xlink:href="#m76823f0fc3" x="256.53713" y="284.24333" style="stroke: #000000"/>
     <use xlink:href="#m76823f0fc3" x="257.513161" y="286.078978" style="stroke: #000000"/>
     <use xlink:href="#m76823f0fc3" x="253.298076" y="283.560749" style="stroke: #000000"/>
     <use xlink:href="#m76823f0fc3" x="254.20945" y="285.429342" style="stroke: #000000"/>
     <use xlink:href="#m76823f0fc3" x="250.150586" y="282.734874" style="stroke: #000000"/>
     <use xlink:href="#m76823f0fc3" x="250.996192" y="284.634135" style="stroke: #000000"/>
     <use xlink:href="#m76823f0fc3" x="247.879442" y="283.698918" style="stroke: #000000"/>
     <use xlink:href="#m76823f0fc3" x="248.658249" y="285.626533" style="stroke: #000000"/>
     <use xlink:href="#m76823f0fc3" x="245.576036" y="284.583113" style="stroke: #000000"/>
     <use xlink:href="#m76823f0fc3" x="246.287096" y="286.536734" style="stroke: #000000"/>
     <use xlink:href="#m76823f0fc3" x="243.243175" y="285.386381" style="stroke: #000000"/>
     <use xlink:href="#m76823f0fc3" x="243.885622" y="287.363627" style="stroke: #000000"/>
     <use xlink:href="#m76823f0fc3" x="240.883702" y="286.107744" style="stroke: #000000"/>
     <use xlink:href="#m76823f0fc3" x="241.456752" y="288.106207" style="stroke: #000000"/>
     <use xlink:href="#m76823f0fc3" x="238.500491" y="286.746324" style="stroke: #000000"/>
     <use xlink:href="#m76823f0fc3" x="239.003447" y="288.763569" style="stroke: #000000"/>
     <use xlink:href="#m76823f0fc3" x="236.096446" y="287.301341" style="stroke: #000000"/>
     <use xlink:href="#m76823f0fc3" x="236.528694" y="289.33491" style="stroke: #000000"/>
     <use xlink:href="#m76823f0fc3" x="233.674495" y="287.772121" style="stroke: #000000"/>
     <use xlink:href="#m76823f0fc3" x="234.03551" y="289.819536" style="stroke: #000000"/>
     <use xlink:href="#m76823f0fc3" x="231.23759" y="288.158089" style="stroke: #000000"/>
     <use xlink:href="#m76823f0fc3" x="231.526931" y="290.216856" style="stroke: #000000"/>
     <use xlink:href="#m76823f0fc3" x="228.788699" y="288.458775" style="stroke: #000000"/>
     <use xlink:href="#m76823f0fc3" x="229.006014" y="290.526386" style="stroke: #000000"/>
     <use xlink:href="#m76823f0fc3" x="226.330806" y="288.673812" style="stroke: #000000"/>
     <use xlink:href="#m76823f0fc3" x="226.47583" y="290.747748" style="stroke: #000000"/>
     <use xlink:href="#m76823f0fc3" x="223.866906" y="288.80294" style="stroke: #000000"/>
     <use xlink:href="#m76823f0fc3" x="224.012018" y="292.958407" style="stroke: #000000"/>
     <use xlink:href="#m76823f0fc3" x="221.4" y="293.004" style="stroke: #000000"/>
     <use xlink:href="#m76823f0fc3" x="221.4" y="295.083" style="stroke: #000000"/>
     <use xlink:href="#m76823f0fc3" x="218.787982" y="292.958407" style="stroke: #000000"/>
     <use xlink:href="#m76823f0fc3" x="218.715426" y="295.036141" style="stroke: #000000"/>
    </g>
   </g>
   <g id="patch_3">
    <path d="M 221.4 51.84 
C 199.559058 51.84 177.930491 56.142189 157.752092 64.500356 
C 137.573692 72.858523 119.237879 85.110122 103.794 100.554 
C 88.350122 115.997879 76.098523 134.333692 67.740356 154.512092 
C 59.382189 174.690491 55.08 196.319058 55.08 218.16 
C 55.08 240.000942 59.382189 261.629509 67.740356 281.807908 
C 76.098523 301.986308 88.350122 320.322121 103.794 335.766 
C 119.237879 351.209878 137.573692 363.461477 157.752092 371.819644 
C 177.930491 380.177811 199.559058 384.48 221.4 384.48 
C 243.240942 384.48 264.869509 380.177811 285.047908 371.819644 
C 305.226308 363.461477 323.562121 351.209878 339.006 335.766 
C 354.449878 320.322121 366.701477 301.986308 375.059644 281.807908 
C 383.417811 261.629509 387.72 240.000942 387.72 218.16 
C 387.72 196.319058 383.417811 174.690491 375.059644 154.512092 
C 366.701477 134.333692 354.449878 115.997879 339.006 100.554 
C 323.562121 85.110122 305.226308 72.858523 285.047908 64.500356 
C 264.869509 56.142189 243.240942 51.84 221.4 51.84 
" style="fill: none; stroke: #ffffff; stroke-width: 1.25; stroke-linejoin: miter; stroke-linecap: square"/>
   </g>
  </g>
 </g>
 <defs>
  <clipPath id="p42f4dabe0c">
   <path d="M 387.72 218.16 
C 387.72 196.319058 383.417811 174.690491 375.059644 154.512092 
C 366.701477 134.333692 354.449878 115.997879 339.006 100.554 
C 323.562121 85.110122 305.226308 72.858523 285.047908 64.500356 
C 264.869509 56.142189 243.240942 51.84 221.4 51.84 
C 199.559058 51.84 177.930491 56.142189 157.752092 64.500356 
C 137.573692 72.858523 119.237879 85.110122 103.794 100.554 
C 88.350122 115.997879 76.098523 134.333692 67.740356 154.512092 
C 59.382189 174.690491 55.08 196.319058 55.08 218.16 
C 55.08 240.000942 59.382189 261.629509 67.740356 281.807908 
C 76.098523 301.986308 88.350122 320.322121 103.794 335.766 
C 119.237879 351.209878 137.573692 363.461477 157.752092 371.819644 
C 177.930491 380.177811 199.559058 384.48 221.4 384.48 
C 243.240942 384.48 264.869509 380.177811 285.047908 371.819644 
C 305.226308 363.461477 323.562121 351.209878 339.006 335.766 
C 354.449878 320.322121 366.701477 301.986308 375.059644 281.807908 
C 383.417811 261.629509 387.72 240.000942 387.72 218.16 
M 221.4 218.16 
C 221.4 218.16 221.4 218.16 221.4 218.16 
C 221.4 218.16 221.4 218.16 221.4 218.16 
C 221.4 218.16 221.4 218.16 221.4 218.16 
C 221.4 218.16 221.4 218.16 221.4 218.16 
C 221.4 218.16 221.4 218.16 221.4 218.16 
C 221.4 218.16 221.4 218.16 221.4 218.16 
C 221.4 218.16 221.4 218.16 221.4 218.16 
C 221.4 218.16 221.4 218.16 221.4 218.16 
C 221.4 218.16 221.4 218.16 221.4 218.16 
C 221.4 218.16 221.4 218.16 221.4 218.16 
C 221.4 218.16 221.4 218.16 221.4 218.16 
C 221.4 218.16 221.4 218.16 221.4 218.16 
C 221.4 218.16 221.4 218.16 221.4 218.16 
C 221.4 218.16 221.4 218.16 221.4 218.16 
C 221.4 218.16 221.4 218.16 221.4 218.16 
C 221.4 218.16 221.4 218.16 221.4 218.16 
z
"/>
  </clipPath>
 </defs>
</svg>
