<?xml version="1.0" encoding="utf-8" standalone="no"?>
<!DOCTYPE svg PUBLIC "-//W3C//DTD SVG 1.1//EN"
  "http://www.w3.org/Graphics/SVG/1.1/DTD/svg11.dtd">
<svg xmlns:xlink="http://www.w3.org/1999/xlink" width="460.8pt" height="345.6pt" viewBox="0 0 460.8 345.6" xmlns="http://www.w3.org/2000/svg" version="1.1">
 <metadata>
  <rdf:RDF xmlns:dc="http://purl.org/dc/elements/1.1/" xmlns:cc="http://creativecommons.org/ns#" xmlns:rdf="http://www.w3.org/1999/02/22-rdf-syntax-ns#">
   <cc:Work>
    <dc:type rdf:resource="http://purl.org/dc/dcmitype/StillImage"/>
    <dc:date>2024-07-24T15:43:23.164089</dc:date>
    <dc:format>image/svg+xml</dc:format>
    <dc:creator>
     <cc:Agent>
      <dc:title>Matplotlib v3.9.1, https://matplotlib.org/</dc:title>
     </cc:Agent>
    </dc:creator>
   </cc:Work>
  </rdf:RDF>
 </metadata>
 <defs>
  <style type="text/css">*{stroke-linejoin: round; stroke-linecap: butt}</style>
 </defs>
 <g id="figure_1">
  <g id="patch_1">
   <path d="M 0 345.6 
L 460.8 345.6 
L 460.8 0 
L 0 0 
z
" style="fill: #ffffff"/>
  </g>
  <g id="axes_1">
   <g id="patch_2">
    <path d="M 369.216 174.528 
C 369.216 157.055246 365.774248 139.752393 359.087715 123.609673 
C 352.401182 107.466954 342.599903 92.798303 330.2448 80.4432 
C 317.889697 68.088097 303.221046 58.286818 287.078327 51.600285 
C 270.935607 44.913752 253.632754 41.472 236.16 41.472 
C 218.687246 41.472 201.384393 44.913752 185.241673 51.600285 
C 169.098954 58.286818 154.430303 68.088097 142.0752 80.4432 
C 129.720097 92.798303 119.918818 107.466954 113.232285 123.609673 
C 106.545752 139.752393 103.104 157.055246 103.104 174.528 
C 103.104 192.000754 106.545752 209.303607 113.232285 225.446327 
C 119.918818 241.589046 129.720097 256.257697 142.0752 268.6128 
C 154.430303 280.967903 169.098954 290.769182 185.241673 297.455715 
C 201.384393 304.142248 218.687246 307.584 236.16 307.584 
C 253.632754 307.584 270.935607 304.142248 287.078327 297.455715 
C 303.221046 290.769182 317.889697 280.967903 330.2448 268.6128 
C 342.599903 256.257697 352.401182 241.589046 359.087715 225.446327 
C 365.774248 209.303607 369.216 192.000754 369.216 174.528 
M 236.16 174.528 
C 236.16 174.528 236.16 174.528 236.16 174.528 
C 236.16 174.528 236.16 174.528 236.16 174.528 
C 236.16 174.528 236.16 174.528 236.16 174.528 
C 236.16 174.528 236.16 174.528 236.16 174.528 
C 236.16 174.528 236.16 174.528 236.16 174.528 
C 236.16 174.528 236.16 174.528 236.16 174.528 
C 236.16 174.528 236.16 174.528 236.16 174.528 
C 236.16 174.528 236.16 174.528 236.16 174.528 
C 236.16 174.528 236.16 174.528 236.16 174.528 
C 236.16 174.528 236.16 174.528 236.16 174.528 
C 236.16 174.528 236.16 174.528 236.16 174.528 
C 236.16 174.528 236.16 174.528 236.16 174.528 
C 236.16 174.528 236.16 174.528 236.16 174.528 
C 236.16 174.528 236.16 174.528 236.16 174.528 
C 236.16 174.528 236.16 174.528 236.16 174.528 
C 236.16 174.528 236.16 174.528 236.16 174.528 
z
" style="fill: #eaeaf2"/>
   </g>
   <g id="matplotlib.axis_1">
    <g id="xtick_1">
     <g id="line2d_1">
      <path d="M 236.16 174.528 
L 236.16 41.472 
" clip-path="url(#p1dfb008f2a)" style="fill: none; stroke: #ffffff; stroke-linecap: round"/>
     </g>
     <g id="text_1">
      <!-- 0° -->
      <g style="fill: #262626" transform="translate(230.902344 27.815672) scale(0.11 -0.11)">
       <defs>
        <path id="ArialMT-30" d="M 266 2259 
Q 266 3072 433 3567 
Q 600 4063 929 4331 
Q 1259 4600 1759 4600 
Q 2128 4600 2406 4451 
Q 2684 4303 2865 4023 
Q 3047 3744 3150 3342 
Q 3253 2941 3253 2259 
Q 3253 1453 3087 958 
Q 2922 463 2592 192 
Q 2263 -78 1759 -78 
Q 1097 -78 719 397 
Q 266 969 266 2259 
z
M 844 2259 
Q 844 1131 1108 757 
Q 1372 384 1759 384 
Q 2147 384 2411 759 
Q 2675 1134 2675 2259 
Q 2675 3391 2411 3762 
Q 2147 4134 1753 4134 
Q 1366 4134 1134 3806 
Q 844 3388 844 2259 
z
" transform="scale(0.015625)"/>
        <path id="ArialMT-b0" d="M 400 3794 
Q 400 4153 654 4406 
Q 909 4659 1266 4659 
Q 1628 4659 1881 4406 
Q 2134 4153 2134 3794 
Q 2134 3434 1879 3179 
Q 1625 2925 1266 2925 
Q 909 2925 654 3178 
Q 400 3431 400 3794 
z
M 741 3794 
Q 741 3575 895 3420 
Q 1050 3266 1269 3266 
Q 1484 3266 1639 3420 
Q 1794 3575 1794 3794 
Q 1794 4013 1639 4167 
Q 1484 4322 1269 4322 
Q 1050 4322 895 4167 
Q 741 4013 741 3794 
z
" transform="scale(0.015625)"/>
       </defs>
       <use xlink:href="#ArialMT-30"/>
       <use xlink:href="#ArialMT-b0" x="55.615234"/>
      </g>
     </g>
    </g>
    <g id="xtick_2">
     <g id="line2d_2">
      <path d="M 236.16 174.528 
L 330.2448 80.4432 
" clip-path="url(#p1dfb008f2a)" style="fill: none; stroke: #ffffff; stroke-linecap: round"/>
     </g>
     <g id="text_2">
      <!-- 45° -->
      <g style="fill: #262626" transform="translate(333.59589 71.61961) scale(0.11 -0.11)">
       <defs>
        <path id="ArialMT-34" d="M 2069 0 
L 2069 1097 
L 81 1097 
L 81 1613 
L 2172 4581 
L 2631 4581 
L 2631 1613 
L 3250 1613 
L 3250 1097 
L 2631 1097 
L 2631 0 
L 2069 0 
z
M 2069 1613 
L 2069 3678 
L 634 1613 
L 2069 1613 
z
" transform="scale(0.015625)"/>
        <path id="ArialMT-35" d="M 266 1200 
L 856 1250 
Q 922 819 1161 601 
Q 1400 384 1738 384 
Q 2144 384 2425 690 
Q 2706 997 2706 1503 
Q 2706 1984 2436 2262 
Q 2166 2541 1728 2541 
Q 1456 2541 1237 2417 
Q 1019 2294 894 2097 
L 366 2166 
L 809 4519 
L 3088 4519 
L 3088 3981 
L 1259 3981 
L 1013 2750 
Q 1425 3038 1878 3038 
Q 2478 3038 2890 2622 
Q 3303 2206 3303 1553 
Q 3303 931 2941 478 
Q 2500 -78 1738 -78 
Q 1113 -78 717 272 
Q 322 622 266 1200 
z
" transform="scale(0.015625)"/>
       </defs>
       <use xlink:href="#ArialMT-34"/>
       <use xlink:href="#ArialMT-35" x="55.615234"/>
       <use xlink:href="#ArialMT-b0" x="111.230469"/>
      </g>
     </g>
    </g>
    <g id="xtick_3">
     <g id="line2d_3">
      <path d="M 236.16 174.528 
L 369.216 174.528 
" clip-path="url(#p1dfb008f2a)" style="fill: none; stroke: #ffffff; stroke-linecap: round"/>
     </g>
     <g id="text_3">
      <!-- 90° -->
      <g style="fill: #262626" transform="translate(377.399828 177.371672) scale(0.11 -0.11)">
       <defs>
        <path id="ArialMT-39" d="M 350 1059 
L 891 1109 
Q 959 728 1153 556 
Q 1347 384 1650 384 
Q 1909 384 2104 503 
Q 2300 622 2425 820 
Q 2550 1019 2634 1356 
Q 2719 1694 2719 2044 
Q 2719 2081 2716 2156 
Q 2547 1888 2255 1720 
Q 1963 1553 1622 1553 
Q 1053 1553 659 1965 
Q 266 2378 266 3053 
Q 266 3750 677 4175 
Q 1088 4600 1706 4600 
Q 2153 4600 2523 4359 
Q 2894 4119 3086 3673 
Q 3278 3228 3278 2384 
Q 3278 1506 3087 986 
Q 2897 466 2520 194 
Q 2144 -78 1638 -78 
Q 1100 -78 759 220 
Q 419 519 350 1059 
z
M 2653 3081 
Q 2653 3566 2395 3850 
Q 2138 4134 1775 4134 
Q 1400 4134 1122 3828 
Q 844 3522 844 3034 
Q 844 2597 1108 2323 
Q 1372 2050 1759 2050 
Q 2150 2050 2401 2323 
Q 2653 2597 2653 3081 
z
" transform="scale(0.015625)"/>
       </defs>
       <use xlink:href="#ArialMT-39"/>
       <use xlink:href="#ArialMT-30" x="55.615234"/>
       <use xlink:href="#ArialMT-b0" x="111.230469"/>
      </g>
     </g>
    </g>
    <g id="xtick_4">
     <g id="line2d_4">
      <path d="M 236.16 174.528 
L 330.2448 268.6128 
" clip-path="url(#p1dfb008f2a)" style="fill: none; stroke: #ffffff; stroke-linecap: round"/>
     </g>
     <g id="text_4">
      <!-- 135° -->
      <g style="fill: #262626" transform="translate(330.537374 283.123734) scale(0.11 -0.11)">
       <defs>
        <path id="ArialMT-31" d="M 2384 0 
L 1822 0 
L 1822 3584 
Q 1619 3391 1289 3197 
Q 959 3003 697 2906 
L 697 3450 
Q 1169 3672 1522 3987 
Q 1875 4303 2022 4600 
L 2384 4600 
L 2384 0 
z
" transform="scale(0.015625)"/>
        <path id="ArialMT-33" d="M 269 1209 
L 831 1284 
Q 928 806 1161 595 
Q 1394 384 1728 384 
Q 2125 384 2398 659 
Q 2672 934 2672 1341 
Q 2672 1728 2419 1979 
Q 2166 2231 1775 2231 
Q 1616 2231 1378 2169 
L 1441 2663 
Q 1497 2656 1531 2656 
Q 1891 2656 2178 2843 
Q 2466 3031 2466 3422 
Q 2466 3731 2256 3934 
Q 2047 4138 1716 4138 
Q 1388 4138 1169 3931 
Q 950 3725 888 3313 
L 325 3413 
Q 428 3978 793 4289 
Q 1159 4600 1703 4600 
Q 2078 4600 2393 4439 
Q 2709 4278 2876 4000 
Q 3044 3722 3044 3409 
Q 3044 3113 2884 2869 
Q 2725 2625 2413 2481 
Q 2819 2388 3044 2092 
Q 3269 1797 3269 1353 
Q 3269 753 2831 336 
Q 2394 -81 1725 -81 
Q 1122 -81 723 278 
Q 325 638 269 1209 
z
" transform="scale(0.015625)"/>
       </defs>
       <use xlink:href="#ArialMT-31"/>
       <use xlink:href="#ArialMT-33" x="55.615234"/>
       <use xlink:href="#ArialMT-35" x="111.230469"/>
       <use xlink:href="#ArialMT-b0" x="166.845703"/>
      </g>
     </g>
    </g>
    <g id="xtick_5">
     <g id="line2d_5">
      <path d="M 236.16 174.528 
L 236.16 307.584 
" clip-path="url(#p1dfb008f2a)" style="fill: none; stroke: #ffffff; stroke-linecap: round"/>
     </g>
     <g id="text_5">
      <!-- 180° -->
      <g style="fill: #262626" transform="translate(224.785313 326.927672) scale(0.11 -0.11)">
       <defs>
        <path id="ArialMT-38" d="M 1131 2484 
Q 781 2613 612 2850 
Q 444 3088 444 3419 
Q 444 3919 803 4259 
Q 1163 4600 1759 4600 
Q 2359 4600 2725 4251 
Q 3091 3903 3091 3403 
Q 3091 3084 2923 2848 
Q 2756 2613 2416 2484 
Q 2838 2347 3058 2040 
Q 3278 1734 3278 1309 
Q 3278 722 2862 322 
Q 2447 -78 1769 -78 
Q 1091 -78 675 323 
Q 259 725 259 1325 
Q 259 1772 486 2073 
Q 713 2375 1131 2484 
z
M 1019 3438 
Q 1019 3113 1228 2906 
Q 1438 2700 1772 2700 
Q 2097 2700 2305 2904 
Q 2513 3109 2513 3406 
Q 2513 3716 2298 3927 
Q 2084 4138 1766 4138 
Q 1444 4138 1231 3931 
Q 1019 3725 1019 3438 
z
M 838 1322 
Q 838 1081 952 856 
Q 1066 631 1291 507 
Q 1516 384 1775 384 
Q 2178 384 2440 643 
Q 2703 903 2703 1303 
Q 2703 1709 2433 1975 
Q 2163 2241 1756 2241 
Q 1359 2241 1098 1978 
Q 838 1716 838 1322 
z
" transform="scale(0.015625)"/>
       </defs>
       <use xlink:href="#ArialMT-31"/>
       <use xlink:href="#ArialMT-38" x="55.615234"/>
       <use xlink:href="#ArialMT-30" x="111.230469"/>
       <use xlink:href="#ArialMT-b0" x="166.845703"/>
      </g>
     </g>
    </g>
    <g id="xtick_6">
     <g id="line2d_6">
      <path d="M 236.16 174.528 
L 142.0752 268.6128 
" clip-path="url(#p1dfb008f2a)" style="fill: none; stroke: #ffffff; stroke-linecap: round"/>
     </g>
     <g id="text_6">
      <!-- 225° -->
      <g style="fill: #262626" transform="translate(119.033251 283.123734) scale(0.11 -0.11)">
       <defs>
        <path id="ArialMT-32" d="M 3222 541 
L 3222 0 
L 194 0 
Q 188 203 259 391 
Q 375 700 629 1000 
Q 884 1300 1366 1694 
Q 2113 2306 2375 2664 
Q 2638 3022 2638 3341 
Q 2638 3675 2398 3904 
Q 2159 4134 1775 4134 
Q 1369 4134 1125 3890 
Q 881 3647 878 3216 
L 300 3275 
Q 359 3922 746 4261 
Q 1134 4600 1788 4600 
Q 2447 4600 2831 4234 
Q 3216 3869 3216 3328 
Q 3216 3053 3103 2787 
Q 2991 2522 2730 2228 
Q 2469 1934 1863 1422 
Q 1356 997 1212 845 
Q 1069 694 975 541 
L 3222 541 
z
" transform="scale(0.015625)"/>
       </defs>
       <use xlink:href="#ArialMT-32"/>
       <use xlink:href="#ArialMT-32" x="55.615234"/>
       <use xlink:href="#ArialMT-35" x="111.230469"/>
       <use xlink:href="#ArialMT-b0" x="166.845703"/>
      </g>
     </g>
    </g>
    <g id="xtick_7">
     <g id="line2d_7">
      <path d="M 236.16 174.528 
L 103.104 174.528 
" clip-path="url(#p1dfb008f2a)" style="fill: none; stroke: #ffffff; stroke-linecap: round"/>
     </g>
     <g id="text_7">
      <!-- 270° -->
      <g style="fill: #262626" transform="translate(75.229313 177.371672) scale(0.11 -0.11)">
       <defs>
        <path id="ArialMT-37" d="M 303 3981 
L 303 4522 
L 3269 4522 
L 3269 4084 
Q 2831 3619 2401 2847 
Q 1972 2075 1738 1259 
Q 1569 684 1522 0 
L 944 0 
Q 953 541 1156 1306 
Q 1359 2072 1739 2783 
Q 2119 3494 2547 3981 
L 303 3981 
z
" transform="scale(0.015625)"/>
       </defs>
       <use xlink:href="#ArialMT-32"/>
       <use xlink:href="#ArialMT-37" x="55.615234"/>
       <use xlink:href="#ArialMT-30" x="111.230469"/>
       <use xlink:href="#ArialMT-b0" x="166.845703"/>
      </g>
     </g>
    </g>
    <g id="xtick_8">
     <g id="line2d_8">
      <path d="M 236.16 174.528 
L 142.0752 80.4432 
" clip-path="url(#p1dfb008f2a)" style="fill: none; stroke: #ffffff; stroke-linecap: round"/>
     </g>
     <g id="text_8">
      <!-- 315° -->
      <g style="fill: #262626" transform="translate(119.033251 71.61961) scale(0.11 -0.11)">
       <use xlink:href="#ArialMT-33"/>
       <use xlink:href="#ArialMT-31" x="55.615234"/>
       <use xlink:href="#ArialMT-35" x="111.230469"/>
       <use xlink:href="#ArialMT-b0" x="166.845703"/>
      </g>
     </g>
    </g>
   </g>
   <g id="matplotlib.axis_2">
    <g id="ytick_1">
     <g id="line2d_9">
      <path d="M 236.16 174.528 
C 236.16 174.528 236.16 174.528 236.16 174.528 
C 236.16 174.528 236.16 174.528 236.16 174.528 
C 236.16 174.528 236.16 174.528 236.16 174.528 
C 236.16 174.528 236.16 174.528 236.16 174.528 
C 236.16 174.528 236.16 174.528 236.16 174.528 
C 236.16 174.528 236.16 174.528 236.16 174.528 
C 236.16 174.528 236.16 174.528 236.16 174.528 
C 236.16 174.528 236.16 174.528 236.16 174.528 
C 236.16 174.528 236.16 174.528 236.16 174.528 
C 236.16 174.528 236.16 174.528 236.16 174.528 
C 236.16 174.528 236.16 174.528 236.16 174.528 
C 236.16 174.528 236.16 174.528 236.16 174.528 
C 236.16 174.528 236.16 174.528 236.16 174.528 
C 236.16 174.528 236.16 174.528 236.16 174.528 
C 236.16 174.528 236.16 174.528 236.16 174.528 
C 236.16 174.528 236.16 174.528 236.16 174.528 
" clip-path="url(#p1dfb008f2a)" style="fill: none; stroke: #ffffff; stroke-linecap: round"/>
     </g>
     <g id="text_9">
      <!-- 0.0 -->
      <g style="fill: #dc143c" transform="translate(236.16 172.34175) scale(0.11 -0.11)">
       <defs>
        <path id="ArialMT-2e" d="M 581 0 
L 581 641 
L 1222 641 
L 1222 0 
L 581 0 
z
" transform="scale(0.015625)"/>
       </defs>
       <use xlink:href="#ArialMT-30"/>
       <use xlink:href="#ArialMT-2e" x="55.615234"/>
       <use xlink:href="#ArialMT-30" x="83.398438"/>
      </g>
     </g>
    </g>
    <g id="ytick_2">
     <g id="line2d_10">
      <path d="M 236.16 161.2224 
C 237.907275 161.2224 239.637561 161.566575 241.251833 162.235228 
C 242.866105 162.903882 244.33297 163.88401 245.56848 165.11952 
C 246.80399 166.35503 247.784118 167.821895 248.452772 169.436167 
C 249.121425 171.050439 249.4656 172.780725 249.4656 174.528 
C 249.4656 176.275275 249.121425 178.005561 248.452772 179.619833 
C 247.784118 181.234105 246.80399 182.70097 245.56848 183.93648 
C 244.33297 185.17199 242.866105 186.152118 241.251833 186.820772 
C 239.637561 187.489425 237.907275 187.8336 236.16 187.8336 
C 234.412725 187.8336 232.682439 187.489425 231.068167 186.820772 
C 229.453895 186.152118 227.98703 185.17199 226.75152 183.93648 
C 225.51601 182.70097 224.535882 181.234105 223.867228 179.619833 
C 223.198575 178.005561 222.8544 176.275275 222.8544 174.528 
C 222.8544 172.780725 223.198575 171.050439 223.867228 169.436167 
C 224.535882 167.821895 225.51601 166.35503 226.75152 165.11952 
C 227.98703 163.88401 229.453895 162.903882 231.068167 162.235228 
C 232.682439 161.566575 234.412725 161.2224 236.16 161.2224 
" clip-path="url(#p1dfb008f2a)" style="fill: none; stroke: #ffffff; stroke-linecap: round"/>
     </g>
     <g id="text_10">
      <!-- 0.1 -->
      <g style="fill: #dc143c" transform="translate(241.251833 160.048978) scale(0.11 -0.11)">
       <use xlink:href="#ArialMT-30"/>
       <use xlink:href="#ArialMT-2e" x="55.615234"/>
       <use xlink:href="#ArialMT-31" x="83.398438"/>
      </g>
     </g>
    </g>
    <g id="ytick_3">
     <g id="line2d_11">
      <path d="M 236.16 147.9168 
C 239.654551 147.9168 243.115121 148.60515 246.343665 149.942457 
C 249.572209 151.279764 252.505939 153.240019 254.97696 155.71104 
C 257.447981 158.182061 259.408236 161.115791 260.745543 164.344335 
C 262.08285 167.572879 262.7712 171.033449 262.7712 174.528 
C 262.7712 178.022551 262.08285 181.483121 260.745543 184.711665 
C 259.408236 187.940209 257.447981 190.873939 254.97696 193.34496 
C 252.505939 195.815981 249.572209 197.776236 246.343665 199.113543 
C 243.115121 200.45085 239.654551 201.1392 236.16 201.1392 
C 232.665449 201.1392 229.204879 200.45085 225.976335 199.113543 
C 222.747791 197.776236 219.814061 195.815981 217.34304 193.34496 
C 214.872019 190.873939 212.911764 187.940209 211.574457 184.711665 
C 210.23715 181.483121 209.5488 178.022551 209.5488 174.528 
C 209.5488 171.033449 210.23715 167.572879 211.574457 164.344335 
C 212.911764 161.115791 214.872019 158.182061 217.34304 155.71104 
C 219.814061 153.240019 222.747791 151.279764 225.976335 149.942457 
C 229.204879 148.60515 232.665449 147.9168 236.16 147.9168 
" clip-path="url(#p1dfb008f2a)" style="fill: none; stroke: #ffffff; stroke-linecap: round"/>
     </g>
     <g id="text_11">
      <!-- 0.2 -->
      <g style="fill: #dc143c" transform="translate(246.343665 147.756207) scale(0.11 -0.11)">
       <use xlink:href="#ArialMT-30"/>
       <use xlink:href="#ArialMT-2e" x="55.615234"/>
       <use xlink:href="#ArialMT-32" x="83.398438"/>
      </g>
     </g>
    </g>
    <g id="ytick_4">
     <g id="line2d_12">
      <path d="M 236.16 134.6112 
C 241.401826 134.6112 246.592682 135.643725 251.435498 137.649685 
C 256.278314 139.655645 260.678909 142.596029 264.38544 146.30256 
C 268.091971 150.009091 271.032355 154.409686 273.038315 159.252502 
C 275.044275 164.095318 276.0768 169.286174 276.0768 174.528 
C 276.0768 179.769826 275.044275 184.960682 273.038315 189.803498 
C 271.032355 194.646314 268.091971 199.046909 264.38544 202.75344 
C 260.678909 206.459971 256.278314 209.400355 251.435498 211.406315 
C 246.592682 213.412275 241.401826 214.4448 236.16 214.4448 
C 230.918174 214.4448 225.727318 213.412275 220.884502 211.406315 
C 216.041686 209.400355 211.641091 206.459971 207.93456 202.75344 
C 204.228029 199.046909 201.287645 194.646314 199.281685 189.803498 
C 197.275725 184.960682 196.2432 179.769826 196.2432 174.528 
C 196.2432 169.286174 197.275725 164.095318 199.281685 159.252502 
C 201.287645 154.409686 204.228029 150.009091 207.93456 146.30256 
C 211.641091 142.596029 216.041686 139.655645 220.884502 137.649685 
C 225.727318 135.643725 230.918174 134.6112 236.16 134.6112 
" clip-path="url(#p1dfb008f2a)" style="fill: none; stroke: #ffffff; stroke-linecap: round"/>
     </g>
     <g id="text_12">
      <!-- 0.3 -->
      <g style="fill: #dc143c" transform="translate(251.435498 135.463435) scale(0.11 -0.11)">
       <use xlink:href="#ArialMT-30"/>
       <use xlink:href="#ArialMT-2e" x="55.615234"/>
       <use xlink:href="#ArialMT-33" x="83.398438"/>
      </g>
     </g>
    </g>
    <g id="ytick_5">
     <g id="line2d_13">
      <path d="M 236.16 121.3056 
C 243.149102 121.3056 250.070243 122.682301 256.527331 125.356914 
C 262.984419 128.031527 268.851879 131.952039 273.79392 136.89408 
C 278.735961 141.836121 282.656473 147.703581 285.331086 154.160669 
C 288.005699 160.617757 289.3824 167.538898 289.3824 174.528 
C 289.3824 181.517102 288.005699 188.438243 285.331086 194.895331 
C 282.656473 201.352419 278.735961 207.219879 273.79392 212.16192 
C 268.851879 217.103961 262.984419 221.024473 256.527331 223.699086 
C 250.070243 226.373699 243.149102 227.7504 236.16 227.7504 
C 229.170898 227.7504 222.249757 226.373699 215.792669 223.699086 
C 209.335581 221.024473 203.468121 217.103961 198.52608 212.16192 
C 193.584039 207.219879 189.663527 201.352419 186.988914 194.895331 
C 184.314301 188.438243 182.9376 181.517102 182.9376 174.528 
C 182.9376 167.538898 184.314301 160.617757 186.988914 154.160669 
C 189.663527 147.703581 193.584039 141.836121 198.52608 136.89408 
C 203.468121 131.952039 209.335581 128.031527 215.792669 125.356914 
C 222.249757 122.682301 229.170898 121.3056 236.16 121.3056 
" clip-path="url(#p1dfb008f2a)" style="fill: none; stroke: #ffffff; stroke-linecap: round"/>
     </g>
     <g id="text_13">
      <!-- 0.4 -->
      <g style="fill: #dc143c" transform="translate(256.527331 123.170664) scale(0.11 -0.11)">
       <use xlink:href="#ArialMT-30"/>
       <use xlink:href="#ArialMT-2e" x="55.615234"/>
       <use xlink:href="#ArialMT-34" x="83.398438"/>
      </g>
     </g>
    </g>
    <g id="ytick_6">
     <g id="line2d_14">
      <path d="M 236.16 108 
C 244.896377 108 253.547804 109.720876 261.619163 113.064142 
C 269.690523 116.407409 277.024849 121.308049 283.2024 127.4856 
C 289.379951 133.663151 294.280591 140.997477 297.623858 149.068837 
C 300.967124 157.140196 302.688 165.791623 302.688 174.528 
C 302.688 183.264377 300.967124 191.915804 297.623858 199.987163 
C 294.280591 208.058523 289.379951 215.392849 283.2024 221.5704 
C 277.024849 227.747951 269.690523 232.648591 261.619163 235.991858 
C 253.547804 239.335124 244.896377 241.056 236.16 241.056 
C 227.423623 241.056 218.772196 239.335124 210.700837 235.991858 
C 202.629477 232.648591 195.295151 227.747951 189.1176 221.5704 
C 182.940049 215.392849 178.039409 208.058523 174.696142 199.987163 
C 171.352876 191.915804 169.632 183.264377 169.632 174.528 
C 169.632 165.791623 171.352876 157.140196 174.696142 149.068837 
C 178.039409 140.997477 182.940049 133.663151 189.1176 127.4856 
C 195.295151 121.308049 202.629477 116.407409 210.700837 113.064142 
C 218.772196 109.720876 227.423623 108 236.16 108 
" clip-path="url(#p1dfb008f2a)" style="fill: none; stroke: #ffffff; stroke-linecap: round"/>
     </g>
     <g id="text_14">
      <!-- 0.5 -->
      <g style="fill: #dc143c" transform="translate(261.619163 110.877892) scale(0.11 -0.11)">
       <use xlink:href="#ArialMT-30"/>
       <use xlink:href="#ArialMT-2e" x="55.615234"/>
       <use xlink:href="#ArialMT-35" x="83.398438"/>
      </g>
     </g>
    </g>
    <g id="ytick_7">
     <g id="line2d_15">
      <path d="M 236.16 94.6944 
C 246.643652 94.6944 257.025364 96.759451 266.710996 100.771371 
C 276.396628 104.783291 285.197818 110.664058 292.61088 118.07712 
C 300.023942 125.490182 305.904709 134.291372 309.916629 143.977004 
C 313.928549 153.662636 315.9936 164.044348 315.9936 174.528 
C 315.9936 185.011652 313.928549 195.393364 309.916629 205.078996 
C 305.904709 214.764628 300.023942 223.565818 292.61088 230.97888 
C 285.197818 238.391942 276.396628 244.272709 266.710996 248.284629 
C 257.025364 252.296549 246.643652 254.3616 236.16 254.3616 
C 225.676348 254.3616 215.294636 252.296549 205.609004 248.284629 
C 195.923372 244.272709 187.122182 238.391942 179.70912 230.97888 
C 172.296058 223.565818 166.415291 214.764628 162.403371 205.078996 
C 158.391451 195.393364 156.3264 185.011652 156.3264 174.528 
C 156.3264 164.044348 158.391451 153.662636 162.403371 143.977004 
C 166.415291 134.291372 172.296058 125.490182 179.70912 118.07712 
C 187.122182 110.664058 195.923372 104.783291 205.609004 100.771371 
C 215.294636 96.759451 225.676348 94.6944 236.16 94.6944 
" clip-path="url(#p1dfb008f2a)" style="fill: none; stroke: #ffffff; stroke-linecap: round"/>
     </g>
     <g id="text_15">
      <!-- 0.6 -->
      <g style="fill: #dc143c" transform="translate(266.710996 98.585121) scale(0.11 -0.11)">
       <defs>
        <path id="ArialMT-36" d="M 3184 3459 
L 2625 3416 
Q 2550 3747 2413 3897 
Q 2184 4138 1850 4138 
Q 1581 4138 1378 3988 
Q 1113 3794 959 3422 
Q 806 3050 800 2363 
Q 1003 2672 1297 2822 
Q 1591 2972 1913 2972 
Q 2475 2972 2870 2558 
Q 3266 2144 3266 1488 
Q 3266 1056 3080 686 
Q 2894 316 2569 119 
Q 2244 -78 1831 -78 
Q 1128 -78 684 439 
Q 241 956 241 2144 
Q 241 3472 731 4075 
Q 1159 4600 1884 4600 
Q 2425 4600 2770 4297 
Q 3116 3994 3184 3459 
z
M 888 1484 
Q 888 1194 1011 928 
Q 1134 663 1356 523 
Q 1578 384 1822 384 
Q 2178 384 2434 671 
Q 2691 959 2691 1453 
Q 2691 1928 2437 2201 
Q 2184 2475 1800 2475 
Q 1419 2475 1153 2201 
Q 888 1928 888 1484 
z
" transform="scale(0.015625)"/>
       </defs>
       <use xlink:href="#ArialMT-30"/>
       <use xlink:href="#ArialMT-2e" x="55.615234"/>
       <use xlink:href="#ArialMT-36" x="83.398438"/>
      </g>
     </g>
    </g>
    <g id="ytick_8">
     <g id="line2d_16">
      <path d="M 236.16 81.3888 
C 248.390928 81.3888 260.502925 83.798026 271.802829 88.478599 
C 283.102732 93.159173 293.370788 100.020068 302.01936 108.66864 
C 310.667932 117.317212 317.528827 127.585268 322.209401 138.885171 
C 326.889974 150.185075 329.2992 162.297072 329.2992 174.528 
C 329.2992 186.758928 326.889974 198.870925 322.209401 210.170829 
C 317.528827 221.470732 310.667932 231.738788 302.01936 240.38736 
C 293.370788 249.035932 283.102732 255.896827 271.802829 260.577401 
C 260.502925 265.257974 248.390928 267.6672 236.16 267.6672 
C 223.929072 267.6672 211.817075 265.257974 200.517171 260.577401 
C 189.217268 255.896827 178.949212 249.035932 170.30064 240.38736 
C 161.652068 231.738788 154.791173 221.470732 150.110599 210.170829 
C 145.430026 198.870925 143.0208 186.758928 143.0208 174.528 
C 143.0208 162.297072 145.430026 150.185075 150.110599 138.885171 
C 154.791173 127.585268 161.652068 117.317212 170.30064 108.66864 
C 178.949212 100.020068 189.217268 93.159173 200.517171 88.478599 
C 211.817075 83.798026 223.929072 81.3888 236.16 81.3888 
" clip-path="url(#p1dfb008f2a)" style="fill: none; stroke: #ffffff; stroke-linecap: round"/>
     </g>
     <g id="text_16">
      <!-- 0.7 -->
      <g style="fill: #dc143c" transform="translate(271.802829 86.292349) scale(0.11 -0.11)">
       <use xlink:href="#ArialMT-30"/>
       <use xlink:href="#ArialMT-2e" x="55.615234"/>
       <use xlink:href="#ArialMT-37" x="83.398438"/>
      </g>
     </g>
    </g>
    <g id="ytick_9">
     <g id="line2d_17">
      <path d="M 236.16 68.0832 
C 250.138203 68.0832 263.980486 70.836601 276.894661 76.185828 
C 289.808837 81.535055 301.543758 89.376078 311.42784 99.26016 
C 321.311922 109.144242 329.152945 120.879163 334.502172 133.793339 
C 339.851399 146.707514 342.6048 160.549797 342.6048 174.528 
C 342.6048 188.506203 339.851399 202.348486 334.502172 215.262661 
C 329.152945 228.176837 321.311922 239.911758 311.42784 249.79584 
C 301.543758 259.679922 289.808837 267.520945 276.894661 272.870172 
C 263.980486 278.219399 250.138203 280.9728 236.16 280.9728 
C 222.181797 280.9728 208.339514 278.219399 195.425339 272.870172 
C 182.511163 267.520945 170.776242 259.679922 160.89216 249.79584 
C 151.008078 239.911758 143.167055 228.176837 137.817828 215.262661 
C 132.468601 202.348486 129.7152 188.506203 129.7152 174.528 
C 129.7152 160.549797 132.468601 146.707514 137.817828 133.793339 
C 143.167055 120.879163 151.008078 109.144242 160.89216 99.26016 
C 170.776242 89.376078 182.511163 81.535055 195.425339 76.185828 
C 208.339514 70.836601 222.181797 68.0832 236.16 68.0832 
" clip-path="url(#p1dfb008f2a)" style="fill: none; stroke: #ffffff; stroke-linecap: round"/>
     </g>
     <g id="text_17">
      <!-- 0.8 -->
      <g style="fill: #dc143c" transform="translate(276.894661 73.999578) scale(0.11 -0.11)">
       <use xlink:href="#ArialMT-30"/>
       <use xlink:href="#ArialMT-2e" x="55.615234"/>
       <use xlink:href="#ArialMT-38" x="83.398438"/>
      </g>
     </g>
    </g>
    <g id="ytick_10">
     <g id="line2d_18">
      <path d="M 236.16 54.7776 
C 251.885478 54.7776 267.458046 57.875176 281.986494 63.893056 
C 296.514942 69.910936 309.716727 78.732088 320.83632 89.85168 
C 331.955912 100.971273 340.777064 114.173058 346.794944 128.701506 
C 352.812824 143.229954 355.9104 158.802522 355.9104 174.528 
C 355.9104 190.253478 352.812824 205.826046 346.794944 220.354494 
C 340.777064 234.882942 331.955912 248.084727 320.83632 259.20432 
C 309.716727 270.323912 296.514942 279.145064 281.986494 285.162944 
C 267.458046 291.180824 251.885478 294.2784 236.16 294.2784 
C 220.434522 294.2784 204.861954 291.180824 190.333506 285.162944 
C 175.805058 279.145064 162.603273 270.323912 151.48368 259.20432 
C 140.364088 248.084727 131.542936 234.882942 125.525056 220.354494 
C 119.507176 205.826046 116.4096 190.253478 116.4096 174.528 
C 116.4096 158.802522 119.507176 143.229954 125.525056 128.701506 
C 131.542936 114.173058 140.364088 100.971273 151.48368 89.85168 
C 162.603273 78.732088 175.805058 69.910936 190.333506 63.893056 
C 204.861954 57.875176 220.434522 54.7776 236.16 54.7776 
" clip-path="url(#p1dfb008f2a)" style="fill: none; stroke: #ffffff; stroke-linecap: round"/>
     </g>
     <g id="text_18">
      <!-- 0.9 -->
      <g style="fill: #dc143c" transform="translate(281.986494 61.706806) scale(0.11 -0.11)">
       <use xlink:href="#ArialMT-30"/>
       <use xlink:href="#ArialMT-2e" x="55.615234"/>
       <use xlink:href="#ArialMT-39" x="83.398438"/>
      </g>
     </g>
    </g>
   </g>
   <g id="line2d_19">
    <defs>
     <path id="mdfd12c9a5b" d="M 0 1.5 
C 0.397805 1.5 0.77937 1.341951 1.06066 1.06066 
C 1.341951 0.77937 1.5 0.397805 1.5 0 
C 1.5 -0.397805 1.341951 -0.77937 1.06066 -1.06066 
C 0.77937 -1.341951 0.397805 -1.5 0 -1.5 
C -0.397805 -1.5 -0.77937 -1.341951 -1.06066 -1.06066 
C -1.341951 -0.77937 -1.5 -0.397805 -1.5 0 
C -1.5 0.397805 -1.341951 0.77937 -1.06066 1.06066 
C -0.77937 1.341951 -0.397805 1.5 0 1.5 
z
" style="stroke: #ffffff"/>
    </defs>
    <g clip-path="url(#p1dfb008f2a)">
     <use xlink:href="#mdfd12c9a5b" x="235.99209" y="270.733458" style="stroke: #ffffff"/>
     <use xlink:href="#mdfd12c9a5b" x="236.065632" y="228.596779" style="stroke: #ffffff"/>
     <use xlink:href="#mdfd12c9a5b" x="236.249876" y="123.033101" style="stroke: #ffffff"/>
     <use xlink:href="#mdfd12c9a5b" x="236.325563" y="79.667438" style="stroke: #ffffff"/>
     <use xlink:href="#mdfd12c9a5b" x="235.82418" y="270.733019" style="stroke: #ffffff"/>
     <use xlink:href="#mdfd12c9a5b" x="235.97476" y="227.595156" style="stroke: #ffffff"/>
     <use xlink:href="#mdfd12c9a5b" x="236.339751" y="123.033336" style="stroke: #ffffff"/>
     <use xlink:href="#mdfd12c9a5b" x="236.491126" y="79.667872" style="stroke: #ffffff"/>
     <use xlink:href="#mdfd12c9a5b" x="235.662336" y="269.573893" style="stroke: #ffffff"/>
     <use xlink:href="#mdfd12c9a5b" x="235.882141" y="227.594752" style="stroke: #ffffff"/>
     <use xlink:href="#mdfd12c9a5b" x="236.432741" y="122.43875" style="stroke: #ffffff"/>
     <use xlink:href="#mdfd12c9a5b" x="236.656687" y="79.668594" style="stroke: #ffffff"/>
     <use xlink:href="#mdfd12c9a5b" x="235.504508" y="268.418748" style="stroke: #ffffff"/>
     <use xlink:href="#mdfd12c9a5b" x="235.796487" y="226.596621" style="stroke: #ffffff"/>
     <use xlink:href="#mdfd12c9a5b" x="235.871371" y="215.870382" style="stroke: #ffffff"/>
     <use xlink:href="#mdfd12c9a5b" x="236.536022" y="120.667642" style="stroke: #ffffff"/>
     <use xlink:href="#mdfd12c9a5b" x="236.834749" y="77.87889" style="stroke: #ffffff"/>
     <use xlink:href="#mdfd12c9a5b" x="235.340639" y="268.417461" style="stroke: #ffffff"/>
     <use xlink:href="#mdfd12c9a5b" x="235.70561" y="226.595907" style="stroke: #ffffff"/>
     <use xlink:href="#mdfd12c9a5b" x="236.624891" y="121.25673" style="stroke: #ffffff"/>
     <use xlink:href="#mdfd12c9a5b" x="236.991728" y="79.221392" style="stroke: #ffffff"/>
     <use xlink:href="#mdfd12c9a5b" x="235.164686" y="269.569985" style="stroke: #ffffff"/>
     <use xlink:href="#mdfd12c9a5b" x="235.666377" y="221.663841" style="stroke: #ffffff"/>
     <use xlink:href="#mdfd12c9a5b" x="236.711682" y="121.848155" style="stroke: #ffffff"/>
     <use xlink:href="#mdfd12c9a5b" x="237.158068" y="79.222989" style="stroke: #ffffff"/>
     <use xlink:href="#mdfd12c9a5b" x="235.026957" y="267.264191" style="stroke: #ffffff"/>
     <use xlink:href="#mdfd12c9a5b" x="235.523862" y="226.594004" style="stroke: #ffffff"/>
     <use xlink:href="#mdfd12c9a5b" x="236.818028" y="120.670349" style="stroke: #ffffff"/>
     <use xlink:href="#mdfd12c9a5b" x="237.324405" y="79.224876" style="stroke: #ffffff"/>
     <use xlink:href="#mdfd12c9a5b" x="234.865104" y="267.262072" style="stroke: #ffffff"/>
     <use xlink:href="#mdfd12c9a5b" x="235.446867" y="225.599103" style="stroke: #ffffff"/>
     <use xlink:href="#mdfd12c9a5b" x="236.928365" y="119.50148" style="stroke: #ffffff"/>
     <use xlink:href="#mdfd12c9a5b" x="237.50324" y="78.331773" style="stroke: #ffffff"/>
     <use xlink:href="#mdfd12c9a5b" x="234.667064" y="269.563471" style="stroke: #ffffff"/>
     <use xlink:href="#mdfd12c9a5b" x="235.326452" y="227.588932" style="stroke: #ffffff"/>
     <use xlink:href="#mdfd12c9a5b" x="236.978194" y="122.444463" style="stroke: #ffffff"/>
     <use xlink:href="#mdfd12c9a5b" x="237.650007" y="79.678997" style="stroke: #ffffff"/>
     <use xlink:href="#mdfd12c9a5b" x="234.521341" y="268.406735" style="stroke: #ffffff"/>
     <use xlink:href="#mdfd12c9a5b" x="235.251255" y="226.589959" style="stroke: #ffffff"/>
     <use xlink:href="#mdfd12c9a5b" x="237.100016" y="120.674532" style="stroke: #ffffff"/>
     <use xlink:href="#mdfd12c9a5b" x="237.831217" y="78.784052" style="stroke: #ffffff"/>
     <use xlink:href="#mdfd12c9a5b" x="234.379569" y="267.254021" style="stroke: #ffffff"/>
     <use xlink:href="#mdfd12c9a5b" x="235.160391" y="226.588294" style="stroke: #ffffff"/>
     <use xlink:href="#mdfd12c9a5b" x="237.20526" y="120.090172" style="stroke: #ffffff"/>
     <use xlink:href="#mdfd12c9a5b" x="238.006902" y="78.340125" style="stroke: #ffffff"/>
     <use xlink:href="#mdfd12c9a5b" x="234.217735" y="267.250772" style="stroke: #ffffff"/>
     <use xlink:href="#mdfd12c9a5b" x="235.090343" y="225.59288" style="stroke: #ffffff"/>
     <use xlink:href="#mdfd12c9a5b" x="235.294169" y="215.862322" style="stroke: #ffffff"/>
     <use xlink:href="#mdfd12c9a5b" x="237.30027" y="120.092079" style="stroke: #ffffff"/>
     <use xlink:href="#mdfd12c9a5b" x="234.029817" y="268.396869" style="stroke: #ffffff"/>
     <use xlink:href="#mdfd12c9a5b" x="235.00122" y="225.590935" style="stroke: #ffffff"/>
     <use xlink:href="#mdfd12c9a5b" x="237.381978" y="120.680192" style="stroke: #ffffff"/>
     <use xlink:href="#mdfd12c9a5b" x="238.260714" y="81.95772" style="stroke: #ffffff"/>
     <use xlink:href="#mdfd12c9a5b" x="233.894084" y="267.243427" style="stroke: #ffffff"/>
     <use xlink:href="#mdfd12c9a5b" x="234.887819" y="226.582346" style="stroke: #ffffff"/>
     <use xlink:href="#mdfd12c9a5b" x="237.49028" y="120.096391" style="stroke: #ffffff"/>
     <use xlink:href="#mdfd12c9a5b" x="238.510512" y="78.351113" style="stroke: #ffffff"/>
     <use xlink:href="#mdfd12c9a5b" x="233.702167" y="268.388861" style="stroke: #ffffff"/>
     <use xlink:href="#mdfd12c9a5b" x="234.8489" y="224.596879" style="stroke: #ffffff"/>
     <use xlink:href="#mdfd12c9a5b" x="237.569934" y="120.684786" style="stroke: #ffffff"/>
     <use xlink:href="#mdfd12c9a5b" x="238.619531" y="80.602305" style="stroke: #ffffff"/>
     <use xlink:href="#mdfd12c9a5b" x="233.506127" y="269.538139" style="stroke: #ffffff"/>
     <use xlink:href="#mdfd12c9a5b" x="234.678269" y="227.574789" style="stroke: #ffffff"/>
     <use xlink:href="#mdfd12c9a5b" x="237.614437" y="122.458345" style="stroke: #ffffff"/>
     <use xlink:href="#mdfd12c9a5b" x="238.808666" y="79.704279" style="stroke: #ffffff"/>
     <use xlink:href="#mdfd12c9a5b" x="233.374546" y="268.37971" style="stroke: #ffffff"/>
     <use xlink:href="#mdfd12c9a5b" x="234.644765" y="225.581601" style="stroke: #ffffff"/>
     <use xlink:href="#mdfd12c9a5b" x="237.757873" y="120.690036" style="stroke: #ffffff"/>
     <use xlink:href="#mdfd12c9a5b" x="238.987497" y="79.259713" style="stroke: #ffffff"/>
     <use xlink:href="#mdfd12c9a5b" x="233.210748" y="268.374705" style="stroke: #ffffff"/>
     <use xlink:href="#mdfd12c9a5b" x="234.524445" y="226.572196" style="stroke: #ffffff"/>
     <use xlink:href="#mdfd12c9a5b" x="234.891307" y="214.898472" style="stroke: #ffffff"/>
     <use xlink:href="#mdfd12c9a5b" x="237.851836" y="120.692906" style="stroke: #ffffff"/>
     <use xlink:href="#mdfd12c9a5b" x="233.085086" y="267.220123" style="stroke: #ffffff"/>
     <use xlink:href="#mdfd12c9a5b" x="234.466563" y="225.576001" style="stroke: #ffffff"/>
     <use xlink:href="#mdfd12c9a5b" x="237.984592" y="119.526372" style="stroke: #ffffff"/>
     <use xlink:href="#mdfd12c9a5b" x="239.334891" y="78.822114" style="stroke: #ffffff"/>
     <use xlink:href="#mdfd12c9a5b" x="232.88318" y="268.363839" style="stroke: #ffffff"/>
     <use xlink:href="#mdfd12c9a5b" x="234.342787" y="226.56617" style="stroke: #ffffff"/>
     <use xlink:href="#mdfd12c9a5b" x="234.750395" y="214.893798" style="stroke: #ffffff"/>
     <use xlink:href="#mdfd12c9a5b" x="238.039745" y="120.69914" style="stroke: #ffffff"/>
     <use xlink:href="#mdfd12c9a5b" x="239.501925" y="78.827801" style="stroke: #ffffff"/>
     <use xlink:href="#mdfd12c9a5b" x="232.761548" y="267.208825" style="stroke: #ffffff"/>
     <use xlink:href="#mdfd12c9a5b" x="234.251966" y="226.562919" style="stroke: #ffffff"/>
     <use xlink:href="#mdfd12c9a5b" x="238.155172" y="120.116705" style="stroke: #ffffff"/>
     <use xlink:href="#mdfd12c9a5b" x="239.668948" y="78.833779" style="stroke: #ffffff"/>
     <use xlink:href="#mdfd12c9a5b" x="232.599795" y="267.202753" style="stroke: #ffffff"/>
     <use xlink:href="#mdfd12c9a5b" x="234.161151" y="226.55951" style="stroke: #ffffff"/>
     <use xlink:href="#mdfd12c9a5b" x="238.227632" y="120.706029" style="stroke: #ffffff"/>
     <use xlink:href="#mdfd12c9a5b" x="239.853122" y="78.393307" style="stroke: #ffffff"/>
     <use xlink:href="#mdfd12c9a5b" x="232.345586" y="269.498626" style="stroke: #ffffff"/>
     <use xlink:href="#mdfd12c9a5b" x="234.149957" y="224.573693" style="stroke: #ffffff"/>
     <use xlink:href="#mdfd12c9a5b" x="238.297953" y="121.297619" style="stroke: #ffffff"/>
     <use xlink:href="#mdfd12c9a5b" x="239.984971" y="79.294545" style="stroke: #ffffff"/>
     <use xlink:href="#mdfd12c9a5b" x="232.228168" y="268.338676" style="stroke: #ffffff"/>
     <use xlink:href="#mdfd12c9a5b" x="233.979539" y="226.552216" style="stroke: #ffffff"/>
     <use xlink:href="#mdfd12c9a5b" x="238.390854" y="121.301431" style="stroke: #ffffff"/>
     <use xlink:href="#mdfd12c9a5b" x="240.151178" y="79.301366" style="stroke: #ffffff"/>
     <use xlink:href="#mdfd12c9a5b" x="231.96357" y="270.642039" style="stroke: #ffffff"/>
     <use xlink:href="#mdfd12c9a5b" x="233.975278" y="224.566372" style="stroke: #ffffff"/>
     <use xlink:href="#mdfd12c9a5b" x="238.483749" y="121.305406" style="stroke: #ffffff"/>
     <use xlink:href="#mdfd12c9a5b" x="240.317374" y="79.308477" style="stroke: #ffffff"/>
     <use xlink:href="#mdfd12c9a5b" x="231.848375" y="269.477352" style="stroke: #ffffff"/>
     <use xlink:href="#mdfd12c9a5b" x="233.977259" y="222.595693" style="stroke: #ffffff"/>
     <use xlink:href="#mdfd12c9a5b" x="238.549846" y="121.8995" style="stroke: #ffffff"/>
     <use xlink:href="#mdfd12c9a5b" x="240.463165" y="79.764946" style="stroke: #ffffff"/>
     <use xlink:href="#mdfd12c9a5b" x="231.682664" y="269.469682" style="stroke: #ffffff"/>
     <use xlink:href="#mdfd12c9a5b" x="233.660179" y="227.536568" style="stroke: #ffffff"/>
     <use xlink:href="#mdfd12c9a5b" x="238.641697" y="121.903751" style="stroke: #ffffff"/>
     <use xlink:href="#mdfd12c9a5b" x="240.607317" y="80.222879" style="stroke: #ffffff"/>
     <use xlink:href="#mdfd12c9a5b" x="231.62952" y="267.160389" style="stroke: #ffffff"/>
     <use xlink:href="#mdfd12c9a5b" x="233.664945" y="225.543104" style="stroke: #ffffff"/>
     <use xlink:href="#mdfd12c9a5b" x="238.819766" y="120.145141" style="stroke: #ffffff"/>
     <use xlink:href="#mdfd12c9a5b" x="240.837782" y="78.88379" style="stroke: #ffffff"/>
     <use xlink:href="#mdfd12c9a5b" x="231.409675" y="268.300792" style="stroke: #ffffff"/>
     <use xlink:href="#mdfd12c9a5b" x="233.525631" y="226.531207" style="stroke: #ffffff"/>
     <use xlink:href="#mdfd12c9a5b" x="238.855253" y="121.322925" style="stroke: #ffffff"/>
     <use xlink:href="#mdfd12c9a5b" x="231.246018" y="268.292359" style="stroke: #ffffff"/>
     <use xlink:href="#mdfd12c9a5b" x="233.434873" y="226.52653" style="stroke: #ffffff"/>
     <use xlink:href="#mdfd12c9a5b" x="238.948109" y="121.32771" style="stroke: #ffffff"/>
     <use xlink:href="#mdfd12c9a5b" x="241.124626" y="79.797297" style="stroke: #ffffff"/>
     <use xlink:href="#mdfd12c9a5b" x="231.082376" y="268.283639" style="stroke: #ffffff"/>
     <use xlink:href="#mdfd12c9a5b" x="233.344122" y="226.521694" style="stroke: #ffffff"/>
     <use xlink:href="#mdfd12c9a5b" x="239.072775" y="120.745146" style="stroke: #ffffff"/>
     <use xlink:href="#mdfd12c9a5b" x="241.362685" y="78.463176" style="stroke: #ffffff"/>
     <use xlink:href="#mdfd12c9a5b" x="230.918749" y="268.274634" style="stroke: #ffffff"/>
     <use xlink:href="#mdfd12c9a5b" x="233.25338" y="226.5167" style="stroke: #ffffff"/>
     <use xlink:href="#mdfd12c9a5b" x="239.16664" y="120.750312" style="stroke: #ffffff"/>
     <use xlink:href="#mdfd12c9a5b" x="241.455267" y="79.815204" style="stroke: #ffffff"/>
     <use xlink:href="#mdfd12c9a5b" x="230.755139" y="268.265344" style="stroke: #ffffff"/>
     <use xlink:href="#mdfd12c9a5b" x="233.162647" y="226.511548" style="stroke: #ffffff"/>
     <use xlink:href="#mdfd12c9a5b" x="239.294238" y="120.170422" style="stroke: #ffffff"/>
     <use xlink:href="#mdfd12c9a5b" x="241.384362" y="83.92108" style="stroke: #ffffff"/>
     <use xlink:href="#mdfd12c9a5b" x="230.659742" y="267.107868" style="stroke: #ffffff"/>
     <use xlink:href="#mdfd12c9a5b" x="233.130863" y="225.514179" style="stroke: #ffffff"/>
     <use xlink:href="#mdfd12c9a5b" x="239.389105" y="120.175975" style="stroke: #ffffff"/>
     <use xlink:href="#mdfd12c9a5b" x="241.839091" y="78.938019" style="stroke: #ffffff"/>
     <use xlink:href="#mdfd12c9a5b" x="230.357507" y="269.397914" style="stroke: #ffffff"/>
     <use xlink:href="#mdfd12c9a5b" x="232.920308" y="227.496498" style="stroke: #ffffff"/>
     <use xlink:href="#mdfd12c9a5b" x="239.412257" y="121.354067" style="stroke: #ffffff"/>
     <use xlink:href="#mdfd12c9a5b" x="241.923588" y="80.294165" style="stroke: #ffffff"/>
     <use xlink:href="#mdfd12c9a5b" x="230.264407" y="268.235759" style="stroke: #ffffff"/>
     <use xlink:href="#mdfd12c9a5b" x="232.952906" y="225.503294" style="stroke: #ffffff"/>
     <use xlink:href="#mdfd12c9a5b" x="239.542002" y="120.772613" style="stroke: #ffffff"/>
     <use xlink:href="#mdfd12c9a5b" x="242.088048" y="80.304368" style="stroke: #ffffff"/>
     <use xlink:href="#mdfd12c9a5b" x="230.026385" y="269.377082" style="stroke: #ffffff"/>
     <use xlink:href="#mdfd12c9a5b" x="232.863943" y="225.497619" style="stroke: #ffffff"/>
     <use xlink:href="#mdfd12c9a5b" x="239.559738" y="121.955077" style="stroke: #ffffff"/>
     <use xlink:href="#mdfd12c9a5b" x="242.252491" y="80.314858" style="stroke: #ffffff"/>
     <use xlink:href="#mdfd12c9a5b" x="229.784079" y="270.522094" style="stroke: #ffffff"/>
     <use xlink:href="#mdfd12c9a5b" x="232.643011" y="227.478809" style="stroke: #ffffff"/>
     <use xlink:href="#mdfd12c9a5b" x="239.572773" y="123.146236" style="stroke: #ffffff"/>
     <use xlink:href="#mdfd12c9a5b" x="242.386956" y="80.776678" style="stroke: #ffffff"/>
     <use xlink:href="#mdfd12c9a5b" x="229.695337" y="269.355093" style="stroke: #ffffff"/>
     <use xlink:href="#mdfd12c9a5b" x="232.5506" y="227.47259" style="stroke: #ffffff"/>
     <use xlink:href="#mdfd12c9a5b" x="239.702914" y="122.558662" style="stroke: #ffffff"/>
     <use xlink:href="#mdfd12c9a5b" x="242.581319" y="80.336699" style="stroke: #ffffff"/>
     <use xlink:href="#mdfd12c9a5b" x="229.529843" y="269.343666" style="stroke: #ffffff"/>
     <use xlink:href="#mdfd12c9a5b" x="232.4582" y="227.466209" style="stroke: #ffffff"/>
     <use xlink:href="#mdfd12c9a5b" x="239.752108" y="123.158462" style="stroke: #ffffff"/>
     <use xlink:href="#mdfd12c9a5b" x="242.745704" y="80.34805" style="stroke: #ffffff"/>
     <use xlink:href="#mdfd12c9a5b" x="229.446888" y="268.180743" style="stroke: #ffffff"/>
     <use xlink:href="#mdfd12c9a5b" x="232.508191" y="225.473367" style="stroke: #ffffff"/>
     <use xlink:href="#mdfd12c9a5b" x="233.066997" y="217.677621" style="stroke: #ffffff"/>
     <use xlink:href="#mdfd12c9a5b" x="240.052883" y="120.219482" style="stroke: #ffffff"/>
     <use xlink:href="#mdfd12c9a5b" x="229.283443" y="268.168884" style="stroke: #ffffff"/>
     <use xlink:href="#mdfd12c9a5b" x="232.273434" y="227.452965" style="stroke: #ffffff"/>
     <use xlink:href="#mdfd12c9a5b" x="240.104732" y="120.810976" style="stroke: #ffffff"/>
     <use xlink:href="#mdfd12c9a5b" x="243.074413" y="80.371612" style="stroke: #ffffff"/>
     <use xlink:href="#mdfd12c9a5b" x="229.12002" y="268.15674" style="stroke: #ffffff"/>
     <use xlink:href="#mdfd12c9a5b" x="232.255866" y="226.45132" style="stroke: #ffffff"/>
     <use xlink:href="#mdfd12c9a5b" x="240.19848" y="120.817942" style="stroke: #ffffff"/>
     <use xlink:href="#mdfd12c9a5b" x="243.238736" y="80.383823" style="stroke: #ffffff"/>
     <use xlink:href="#mdfd12c9a5b" x="228.868071" y="269.295069" style="stroke: #ffffff"/>
     <use xlink:href="#mdfd12c9a5b" x="232.165249" y="226.444427" style="stroke: #ffffff"/>
     <use xlink:href="#mdfd12c9a5b" x="240.201768" y="122.000536" style="stroke: #ffffff"/>
     <use xlink:href="#mdfd12c9a5b" x="243.403038" y="80.396321" style="stroke: #ffffff"/>
     <use xlink:href="#mdfd12c9a5b" x="228.883459" y="266.985216" style="stroke: #ffffff"/>
     <use xlink:href="#mdfd12c9a5b" x="232.765833" y="217.654976" style="stroke: #ffffff"/>
     <use xlink:href="#mdfd12c9a5b" x="240.43193" y="120.247982" style="stroke: #ffffff"/>
     <use xlink:href="#mdfd12c9a5b" x="243.778074" y="77.73119" style="stroke: #ffffff"/>
     <use xlink:href="#mdfd12c9a5b" x="228.62988" y="268.118595" style="stroke: #ffffff"/>
     <use xlink:href="#mdfd12c9a5b" x="232.767583" y="216.691776" style="stroke: #ffffff"/>
     <use xlink:href="#mdfd12c9a5b" x="240.385099" y="122.014964" style="stroke: #ffffff"/>
     <use xlink:href="#mdfd12c9a5b" x="243.767727" y="79.972852" style="stroke: #ffffff"/>
     <use xlink:href="#mdfd12c9a5b" x="228.466545" y="268.10531" style="stroke: #ffffff"/>
     <use xlink:href="#mdfd12c9a5b" x="231.893471" y="226.422799" style="stroke: #ffffff"/>
     <use xlink:href="#mdfd12c9a5b" x="240.525135" y="121.433839" style="stroke: #ffffff"/>
     <use xlink:href="#mdfd12c9a5b" x="243.85877" y="80.886052" style="stroke: #ffffff"/>
     <use xlink:href="#mdfd12c9a5b" x="228.399456" y="266.945849" style="stroke: #ffffff"/>
     <use xlink:href="#mdfd12c9a5b" x="231.719428" y="227.409364" style="stroke: #ffffff"/>
     <use xlink:href="#mdfd12c9a5b" x="232.540069" y="217.636613" style="stroke: #ffffff"/>
     <use xlink:href="#mdfd12c9a5b" x="240.71608" y="120.271094" style="stroke: #ffffff"/>
     <use xlink:href="#mdfd12c9a5b" x="244.135355" y="79.552029" style="stroke: #ffffff"/>
     <use xlink:href="#mdfd12c9a5b" x="228.139946" y="268.077885" style="stroke: #ffffff"/>
     <use xlink:href="#mdfd12c9a5b" x="231.71235" y="226.40759" style="stroke: #ffffff"/>
     <use xlink:href="#mdfd12c9a5b" x="240.760698" y="120.863177" style="stroke: #ffffff"/>
     <use xlink:href="#mdfd12c9a5b" x="228.076905" y="266.918196" style="stroke: #ffffff"/>
     <use xlink:href="#mdfd12c9a5b" x="231.62181" y="226.399748" style="stroke: #ffffff"/>
     <use xlink:href="#mdfd12c9a5b" x="240.905444" y="120.287328" style="stroke: #ffffff"/>
     <use xlink:href="#mdfd12c9a5b" x="244.544871" y="78.688486" style="stroke: #ffffff"/>
     <use xlink:href="#mdfd12c9a5b" x="227.813445" y="268.049319" style="stroke: #ffffff"/>
     <use xlink:href="#mdfd12c9a5b" x="231.619628" y="225.401875" style="stroke: #ffffff"/>
     <use xlink:href="#mdfd12c9a5b" x="240.947995" y="120.879564" style="stroke: #ffffff"/>
     <use xlink:href="#mdfd12c9a5b" x="244.592576" y="80.042841" style="stroke: #ffffff"/>
     <use xlink:href="#mdfd12c9a5b" x="227.545627" y="269.18402" style="stroke: #ffffff"/>
     <use xlink:href="#mdfd12c9a5b" x="231.350357" y="227.377074" style="stroke: #ffffff"/>
     <use xlink:href="#mdfd12c9a5b" x="240.934772" y="122.062088" style="stroke: #ffffff"/>
     <use xlink:href="#mdfd12c9a5b" x="244.716615" y="80.506625" style="stroke: #ffffff"/>
     <use xlink:href="#mdfd12c9a5b" x="227.487045" y="268.019615" style="stroke: #ffffff"/>
     <use xlink:href="#mdfd12c9a5b" x="231.442072" y="225.385716" style="stroke: #ffffff"/>
     <use xlink:href="#mdfd12c9a5b" x="241.135234" y="120.896604" style="stroke: #ffffff"/>
     <use xlink:href="#mdfd12c9a5b" x="244.838946" y="80.971807" style="stroke: #ffffff"/>
     <use xlink:href="#mdfd12c9a5b" x="227.323885" y="268.004335" style="stroke: #ffffff"/>
     <use xlink:href="#mdfd12c9a5b" x="231.259791" y="226.366802" style="stroke: #ffffff"/>
     <use xlink:href="#mdfd12c9a5b" x="232.269243" y="215.687906" style="stroke: #ffffff"/>
     <use xlink:href="#mdfd12c9a5b" x="241.17346" y="121.49113" style="stroke: #ffffff"/>
     <use xlink:href="#mdfd12c9a5b" x="245.255706" y="78.305478" style="stroke: #ffffff"/>
     <use xlink:href="#mdfd12c9a5b" x="227.270967" y="266.844141" style="stroke: #ffffff"/>
     <use xlink:href="#mdfd12c9a5b" x="231.735439" y="220.478821" style="stroke: #ffffff"/>
     <use xlink:href="#mdfd12c9a5b" x="241.490341" y="119.170287" style="stroke: #ffffff"/>
     <use xlink:href="#mdfd12c9a5b" x="245.295081" y="79.656552" style="stroke: #ffffff"/>
     <use xlink:href="#mdfd12c9a5b" x="226.997645" y="267.972922" style="stroke: #ffffff"/>
     <use xlink:href="#mdfd12c9a5b" x="230.981522" y="227.342209" style="stroke: #ffffff"/>
     <use xlink:href="#mdfd12c9a5b" x="232.125592" y="215.674074" style="stroke: #ffffff"/>
     <use xlink:href="#mdfd12c9a5b" x="241.415978" y="120.923389" style="stroke: #ffffff"/>
     <use xlink:href="#mdfd12c9a5b" x="245.504395" y="79.226484" style="stroke: #ffffff"/>
     <use xlink:href="#mdfd12c9a5b" x="226.948777" y="266.81255" style="stroke: #ffffff"/>
     <use xlink:href="#mdfd12c9a5b" x="231.087136" y="225.351539" style="stroke: #ffffff"/>
     <use xlink:href="#mdfd12c9a5b" x="241.625753" y="119.768217" style="stroke: #ffffff"/>
     <use xlink:href="#mdfd12c9a5b" x="245.715117" y="78.798077" style="stroke: #ffffff"/>
     <use xlink:href="#mdfd12c9a5b" x="226.787725" y="266.796333" style="stroke: #ffffff"/>
     <use xlink:href="#mdfd12c9a5b" x="230.89801" y="226.331329" style="stroke: #ffffff"/>
     <use xlink:href="#mdfd12c9a5b" x="241.603061" y="120.942063" style="stroke: #ffffff"/>
     <use xlink:href="#mdfd12c9a5b" x="245.837003" y="79.259683" style="stroke: #ffffff"/>
     <use xlink:href="#mdfd12c9a5b" x="226.389858" y="269.071714" style="stroke: #ffffff"/>
     <use xlink:href="#mdfd12c9a5b" x="230.807604" y="226.322066" style="stroke: #ffffff"/>
     <use xlink:href="#mdfd12c9a5b" x="241.636098" y="121.5369" style="stroke: #ffffff"/>
     <use xlink:href="#mdfd12c9a5b" x="245.957181" y="79.722639" style="stroke: #ffffff"/>
     <use xlink:href="#mdfd12c9a5b" x="226.345505" y="267.90668" style="stroke: #ffffff"/>
     <use xlink:href="#mdfd12c9a5b" x="230.717214" y="226.312645" style="stroke: #ffffff"/>
     <use xlink:href="#mdfd12c9a5b" x="241.728576" y="121.546538" style="stroke: #ffffff"/>
     <use xlink:href="#mdfd12c9a5b" x="246.122633" y="79.739882" style="stroke: #ffffff"/>
     <use xlink:href="#mdfd12c9a5b" x="226.059898" y="269.037034" style="stroke: #ffffff"/>
     <use xlink:href="#mdfd12c9a5b" x="231.254495" y="220.429968" style="stroke: #ffffff"/>
     <use xlink:href="#mdfd12c9a5b" x="241.695292" y="122.732973" style="stroke: #ffffff"/>
     <use xlink:href="#mdfd12c9a5b" x="246.335692" y="79.311657" style="stroke: #ffffff"/>
     <use xlink:href="#mdfd12c9a5b" x="225.894964" y="269.019262" style="stroke: #ffffff"/>
     <use xlink:href="#mdfd12c9a5b" x="230.643816" y="225.305336" style="stroke: #ffffff"/>
     <use xlink:href="#mdfd12c9a5b" x="241.849701" y="122.15341" style="stroke: #ffffff"/>
     <use xlink:href="#mdfd12c9a5b" x="246.307392" y="81.119672" style="stroke: #ffffff"/>
     <use xlink:href="#mdfd12c9a5b" x="225.730061" y="269.001202" style="stroke: #ffffff"/>
     <use xlink:href="#mdfd12c9a5b" x="230.336677" y="227.275002" style="stroke: #ffffff"/>
     <use xlink:href="#mdfd12c9a5b" x="241.941103" y="122.16342" style="stroke: #ffffff"/>
     <use xlink:href="#mdfd12c9a5b" x="246.569474" y="80.240162" style="stroke: #ffffff"/>
     <use xlink:href="#mdfd12c9a5b" x="225.565191" y="268.982854" style="stroke: #ffffff"/>
     <use xlink:href="#mdfd12c9a5b" x="230.244625" y="227.264758" style="stroke: #ffffff"/>
     <use xlink:href="#mdfd12c9a5b" x="241.966413" y="122.762665" style="stroke: #ffffff"/>
     <use xlink:href="#mdfd12c9a5b" x="246.683774" y="80.706442" style="stroke: #ffffff"/>
     <use xlink:href="#mdfd12c9a5b" x="225.400352" y="268.964219" style="stroke: #ffffff"/>
     <use xlink:href="#mdfd12c9a5b" x="230.265521" y="226.263177" style="stroke: #ffffff"/>
     <use xlink:href="#mdfd12c9a5b" x="242.056751" y="122.772878" style="stroke: #ffffff"/>
     <use xlink:href="#mdfd12c9a5b" x="247.000174" y="79.385017" style="stroke: #ffffff"/>
     <use xlink:href="#mdfd12c9a5b" x="225.235546" y="268.945296" style="stroke: #ffffff"/>
     <use xlink:href="#mdfd12c9a5b" x="230.289461" y="225.265588" style="stroke: #ffffff"/>
     <use xlink:href="#mdfd12c9a5b" x="242.215203" y="122.194407" style="stroke: #ffffff"/>
     <use xlink:href="#mdfd12c9a5b" x="247.011208" y="80.743749" style="stroke: #ffffff"/>
     <use xlink:href="#mdfd12c9a5b" x="225.20543" y="267.779807" style="stroke: #ffffff"/>
     <use xlink:href="#mdfd12c9a5b" x="230.084968" y="226.242286" style="stroke: #ffffff"/>
     <use xlink:href="#mdfd12c9a5b" x="231.224824" y="216.539147" style="stroke: #ffffff"/>
     <use xlink:href="#mdfd12c9a5b" x="242.444081" y="121.034169" style="stroke: #ffffff"/>
     <use xlink:href="#mdfd12c9a5b" x="247.332219" y="79.423436" style="stroke: #ffffff"/>
     <use xlink:href="#mdfd12c9a5b" x="225.178848" y="266.618711" style="stroke: #ffffff"/>
     <use xlink:href="#mdfd12c9a5b" x="230.578623" y="221.334831" style="stroke: #ffffff"/>
     <use xlink:href="#mdfd12c9a5b" x="242.675993" y="119.883238" style="stroke: #ffffff"/>
     <use xlink:href="#mdfd12c9a5b" x="247.551125" y="78.999153" style="stroke: #ffffff"/>
     <use xlink:href="#mdfd12c9a5b" x="224.879987" y="267.741001" style="stroke: #ffffff"/>
     <use xlink:href="#mdfd12c9a5b" x="229.904488" y="226.220765" style="stroke: #ffffff"/>
     <use xlink:href="#mdfd12c9a5b" x="242.560086" y="121.640542" style="stroke: #ffffff"/>
     <use xlink:href="#mdfd12c9a5b" x="247.664127" y="79.463013" style="stroke: #ffffff"/>
     <use xlink:href="#mdfd12c9a5b" x="224.576661" y="268.866729" style="stroke: #ffffff"/>
     <use xlink:href="#mdfd12c9a5b" x="230.652483" y="219.383127" style="stroke: #ffffff"/>
     <use xlink:href="#mdfd12c9a5b" x="242.58041" y="122.237956" style="stroke: #ffffff"/>
     <use xlink:href="#mdfd12c9a5b" x="247.720612" y="80.374371" style="stroke: #ffffff"/>
     <use xlink:href="#mdfd12c9a5b" x="224.696814" y="266.559952" style="stroke: #ffffff"/>
     <use xlink:href="#mdfd12c9a5b" x="229.724085" y="226.198615" style="stroke: #ffffff"/>
     <use xlink:href="#mdfd12c9a5b" x="242.889836" y="120.497647" style="stroke: #ffffff"/>
     <use xlink:href="#mdfd12c9a5b" x="248.051155" y="79.060106" style="stroke: #ffffff"/>
     <use xlink:href="#mdfd12c9a5b" x="224.536206" y="266.539805" style="stroke: #ffffff"/>
     <use xlink:href="#mdfd12c9a5b" x="229.633912" y="226.187303" style="stroke: #ffffff"/>
     <use xlink:href="#mdfd12c9a5b" x="243.057324" y="119.930059" style="stroke: #ffffff"/>
     <use xlink:href="#mdfd12c9a5b" x="248.273641" y="78.638661" style="stroke: #ffffff"/>
     <use xlink:href="#mdfd12c9a5b" x="224.082865" y="268.804786" style="stroke: #ffffff"/>
     <use xlink:href="#mdfd12c9a5b" x="229.417002" y="227.165338" style="stroke: #ffffff"/>
     <use xlink:href="#mdfd12c9a5b" x="242.778791" y="122.860255" style="stroke: #ffffff"/>
     <use xlink:href="#mdfd12c9a5b" x="248.156161" y="80.883317" style="stroke: #ffffff"/>
     <use xlink:href="#mdfd12c9a5b" x="224.06699" y="267.639016" style="stroke: #ffffff"/>
     <use xlink:href="#mdfd12c9a5b" x="229.453627" y="226.164208" style="stroke: #ffffff"/>
     <use xlink:href="#mdfd12c9a5b" x="243.097146" y="121.114934" style="stroke: #ffffff"/>
     <use xlink:href="#mdfd12c9a5b" x="248.550858" y="79.123676" style="stroke: #ffffff"/>
     <use xlink:href="#mdfd12c9a5b" x="224.054595" y="266.477682" style="stroke: #ffffff"/>
     <use xlink:href="#mdfd12c9a5b" x="229.363516" y="226.152425" style="stroke: #ffffff"/>
     <use xlink:href="#mdfd12c9a5b" x="243.266872" y="120.545947" style="stroke: #ffffff"/>
     <use xlink:href="#mdfd12c9a5b" x="248.600482" y="80.033155" style="stroke: #ffffff"/>
     <use xlink:href="#mdfd12c9a5b" x="223.742046" y="267.596236" style="stroke: #ffffff"/>
     <use xlink:href="#mdfd12c9a5b" x="229.273424" y="226.140484" style="stroke: #ffffff"/>
     <use xlink:href="#mdfd12c9a5b" x="243.361078" y="120.558433" style="stroke: #ffffff"/>
     <use xlink:href="#mdfd12c9a5b" x="248.705935" y="80.500594" style="stroke: #ffffff"/>
     <use xlink:href="#mdfd12c9a5b" x="223.57963" y="267.574421" style="stroke: #ffffff"/>
     <use xlink:href="#mdfd12c9a5b" x="229.316511" y="225.143539" style="stroke: #ffffff"/>
     <use xlink:href="#mdfd12c9a5b" x="243.37672" y="121.151989" style="stroke: #ffffff"/>
     <use xlink:href="#mdfd12c9a5b" x="248.870024" y="80.522634" style="stroke: #ffffff"/>
     <use xlink:href="#mdfd12c9a5b" x="223.103401" y="269.843495" style="stroke: #ffffff"/>
     <use xlink:href="#mdfd12c9a5b" x="228.957917" y="227.10449" style="stroke: #ffffff"/>
     <use xlink:href="#mdfd12c9a5b" x="243.229419" y="122.919981" style="stroke: #ffffff"/>
     <use xlink:href="#mdfd12c9a5b" x="247.317687" y="93.074898" style="stroke: #ffffff"/>
     <use xlink:href="#mdfd12c9a5b" x="248.911549" y="81.439422" style="stroke: #ffffff"/>
     <use xlink:href="#mdfd12c9a5b" x="222.937064" y="269.820562" style="stroke: #ffffff"/>
     <use xlink:href="#mdfd12c9a5b" x="229.003278" y="226.103719" style="stroke: #ffffff"/>
     <use xlink:href="#mdfd12c9a5b" x="243.319481" y="122.932398" style="stroke: #ffffff"/>
     <use xlink:href="#mdfd12c9a5b" x="249.074" y="81.461819" style="stroke: #ffffff"/>
     <use xlink:href="#mdfd12c9a5b" x="223.092615" y="267.507275" style="stroke: #ffffff"/>
     <use xlink:href="#mdfd12c9a5b" x="230.139325" y="217.367326" style="stroke: #ffffff"/>
     <use xlink:href="#mdfd12c9a5b" x="243.737678" y="120.610021" style="stroke: #ffffff"/>
     <use xlink:href="#mdfd12c9a5b" x="248.726619" y="85.111858" style="stroke: #ffffff"/>
     <use xlink:href="#mdfd12c9a5b" x="222.930356" y="267.484327" style="stroke: #ffffff"/>
     <use xlink:href="#mdfd12c9a5b" x="228.823288" y="226.078423" style="stroke: #ffffff"/>
     <use xlink:href="#mdfd12c9a5b" x="230.064566" y="217.356753" style="stroke: #ffffff"/>
     <use xlink:href="#mdfd12c9a5b" x="243.666273" y="121.786174" style="stroke: #ffffff"/>
     <use xlink:href="#mdfd12c9a5b" x="249.52599" y="80.613657" style="stroke: #ffffff"/>
     <use xlink:href="#mdfd12c9a5b" x="222.768136" y="267.461095" style="stroke: #ffffff"/>
     <use xlink:href="#mdfd12c9a5b" x="228.591042" y="227.052929" style="stroke: #ffffff"/>
     <use xlink:href="#mdfd12c9a5b" x="243.842233" y="121.216998" style="stroke: #ffffff"/>
     <use xlink:href="#mdfd12c9a5b" x="249.625587" y="81.083297" style="stroke: #ffffff"/>
     <use xlink:href="#mdfd12c9a5b" x="222.439348" y="268.579652" style="stroke: #ffffff"/>
     <use xlink:href="#mdfd12c9a5b" x="228.49938" y="227.039639" style="stroke: #ffffff"/>
     <use xlink:href="#mdfd12c9a5b" x="229.636257" y="219.24663" style="stroke: #ffffff"/>
     <use xlink:href="#mdfd12c9a5b" x="243.765079" y="122.397077" style="stroke: #ffffff"/>
     <use xlink:href="#mdfd12c9a5b" x="249.788659" y="81.106941" style="stroke: #ffffff"/>
     <use xlink:href="#mdfd12c9a5b" x="222.611805" y="266.276195" style="stroke: #ffffff"/>
     <use xlink:href="#mdfd12c9a5b" x="229.699578" y="218.277889" style="stroke: #ffffff"/>
     <use xlink:href="#mdfd12c9a5b" x="244.113909" y="120.664236" style="stroke: #ffffff"/>
     <use xlink:href="#mdfd12c9a5b" x="250.214006" y="79.354457" style="stroke: #ffffff"/>
     <use xlink:href="#mdfd12c9a5b" x="222.281726" y="267.389702" style="stroke: #ffffff"/>
     <use xlink:href="#mdfd12c9a5b" x="228.46358" y="226.025947" style="stroke: #ffffff"/>
     <use xlink:href="#mdfd12c9a5b" x="229.765716" y="217.313156" style="stroke: #ffffff"/>
     <use xlink:href="#mdfd12c9a5b" x="244.034295" y="121.839862" style="stroke: #ffffff"/>
     <use xlink:href="#mdfd12c9a5b" x="250.181305" y="80.709257" style="stroke: #ffffff"/>
     <use xlink:href="#mdfd12c9a5b" x="222.119673" y="267.365338" style="stroke: #ffffff"/>
     <use xlink:href="#mdfd12c9a5b" x="228.373711" y="226.012436" style="stroke: #ffffff"/>
     <use xlink:href="#mdfd12c9a5b" x="244.126241" y="121.853686" style="stroke: #ffffff"/>
     <use xlink:href="#mdfd12c9a5b" x="250.006092" y="82.97498" style="stroke: #ffffff"/>
     <use xlink:href="#mdfd12c9a5b" x="222.131601" y="266.203999" style="stroke: #ffffff"/>
     <use xlink:href="#mdfd12c9a5b" x="229.616407" y="217.290575" style="stroke: #ffffff"/>
     <use xlink:href="#mdfd12c9a5b" x="244.395828" y="120.706621" style="stroke: #ffffff"/>
     <use xlink:href="#mdfd12c9a5b" x="250.644514" y="79.871276" style="stroke: #ffffff"/>
     <use xlink:href="#mdfd12c9a5b" x="221.795695" y="267.315763" style="stroke: #ffffff"/>
     <use xlink:href="#mdfd12c9a5b" x="228.194044" y="225.984943" style="stroke: #ffffff"/>
     <use xlink:href="#mdfd12c9a5b" x="244.31006" y="121.881814" style="stroke: #ffffff"/>
     <use xlink:href="#mdfd12c9a5b" x="221.811677" y="266.154472" style="stroke: #ffffff"/>
     <use xlink:href="#mdfd12c9a5b" x="228.258" y="224.989119" style="stroke: #ffffff"/>
     <use xlink:href="#mdfd12c9a5b" x="244.58365" y="120.735697" style="stroke: #ffffff"/>
     <use xlink:href="#mdfd12c9a5b" x="251.044006" y="79.480723" style="stroke: #ffffff"/>
     <use xlink:href="#mdfd12c9a5b" x="221.471893" y="267.265057" style="stroke: #ffffff"/>
     <use xlink:href="#mdfd12c9a5b" x="228.014475" y="225.956823" style="stroke: #ffffff"/>
     <use xlink:href="#mdfd12c9a5b" x="244.49378" y="121.910584" style="stroke: #ffffff"/>
     <use xlink:href="#mdfd12c9a5b" x="250.644911" y="83.073874" style="stroke: #ffffff"/>
     <use xlink:href="#mdfd12c9a5b" x="221.127519" y="268.378914" style="stroke: #ffffff"/>
     <use xlink:href="#mdfd12c9a5b" x="227.924727" y="225.942528" style="stroke: #ffffff"/>
     <use xlink:href="#mdfd12c9a5b" x="244.585602" y="121.925209" style="stroke: #ffffff"/>
     <use xlink:href="#mdfd12c9a5b" x="251.162986" y="80.861229" style="stroke: #ffffff"/>
     <use xlink:href="#mdfd12c9a5b" x="221.14827" y="267.213221" style="stroke: #ffffff"/>
     <use xlink:href="#mdfd12c9a5b" x="227.835004" y="225.928076" style="stroke: #ffffff"/>
     <use xlink:href="#mdfd12c9a5b" x="244.771468" y="121.359191" style="stroke: #ffffff"/>
     <use xlink:href="#mdfd12c9a5b" x="251.398314" y="80.443808" style="stroke: #ffffff"/>
     <use xlink:href="#mdfd12c9a5b" x="220.986527" y="267.186879" style="stroke: #ffffff"/>
     <use xlink:href="#mdfd12c9a5b" x="227.745307" y="225.913468" style="stroke: #ffffff"/>
     <use xlink:href="#mdfd12c9a5b" x="244.864252" y="121.374302" style="stroke: #ffffff"/>
     <use xlink:href="#mdfd12c9a5b" x="251.417005" y="81.359023" style="stroke: #ffffff"/>
     <use xlink:href="#mdfd12c9a5b" x="220.82483" y="267.160255" style="stroke: #ffffff"/>
     <use xlink:href="#mdfd12c9a5b" x="227.655635" y="225.898704" style="stroke: #ffffff"/>
     <use xlink:href="#mdfd12c9a5b" x="244.957009" y="121.389575" style="stroke: #ffffff"/>
     <use xlink:href="#mdfd12c9a5b" x="251.35748" y="82.727465" style="stroke: #ffffff"/>
     <use xlink:href="#mdfd12c9a5b" x="220.852971" y="265.999196" style="stroke: #ffffff"/>
     <use xlink:href="#mdfd12c9a5b" x="227.565989" y="225.883783" style="stroke: #ffffff"/>
     <use xlink:href="#mdfd12c9a5b" x="245.146489" y="120.826857" style="stroke: #ffffff"/>
     <use xlink:href="#mdfd12c9a5b" x="251.964717" y="80.082738" style="stroke: #ffffff"/>
     <use xlink:href="#mdfd12c9a5b" x="220.309098" y="268.244159" style="stroke: #ffffff"/>
     <use xlink:href="#mdfd12c9a5b" x="227.310003" y="226.852324" style="stroke: #ffffff"/>
     <use xlink:href="#mdfd12c9a5b" x="245.044321" y="122.000739" style="stroke: #ffffff"/>
     <use xlink:href="#mdfd12c9a5b" x="251.904625" y="81.440185" style="stroke: #ffffff"/>
     <use xlink:href="#mdfd12c9a5b" x="220.340021" y="267.078691" style="stroke: #ffffff"/>
     <use xlink:href="#mdfd12c9a5b" x="227.554223" y="224.873871" style="stroke: #ffffff"/>
     <use xlink:href="#mdfd12c9a5b" x="245.23512" y="121.436364" style="stroke: #ffffff"/>
     <use xlink:href="#mdfd12c9a5b" x="252.06707" y="81.467806" style="stroke: #ffffff"/>
     <use xlink:href="#mdfd12c9a5b" x="219.784892" y="269.329763" style="stroke: #ffffff"/>
     <use xlink:href="#mdfd12c9a5b" x="227.466366" y="224.858774" style="stroke: #ffffff"/>
     <use xlink:href="#mdfd12c9a5b" x="245.127102" y="122.614018" style="stroke: #ffffff"/>
     <use xlink:href="#mdfd12c9a5b" x="252.152526" y="81.941152" style="stroke: #ffffff"/>
     <use xlink:href="#mdfd12c9a5b" x="219.619457" y="269.301039" style="stroke: #ffffff"/>
     <use xlink:href="#mdfd12c9a5b" x="227.036156" y="226.805269" style="stroke: #ffffff"/>
     <use xlink:href="#mdfd12c9a5b" x="245.013485" y="123.799817" style="stroke: #ffffff"/>
     <use xlink:href="#mdfd12c9a5b" x="250.294937" y="93.538462" style="stroke: #ffffff"/>
     <use xlink:href="#mdfd12c9a5b" x="252.391814" y="81.523899" style="stroke: #ffffff"/>
    </g>
   </g>
   <g id="patch_3">
    <path d="M 236.16 41.472 
C 218.687246 41.472 201.384393 44.913752 185.241673 51.600285 
C 169.098954 58.286818 154.430303 68.088097 142.0752 80.4432 
C 129.720097 92.798303 119.918818 107.466954 113.232285 123.609673 
C 106.545752 139.752393 103.104 157.055246 103.104 174.528 
C 103.104 192.000754 106.545752 209.303607 113.232285 225.446327 
C 119.918818 241.589046 129.720097 256.257697 142.0752 268.6128 
C 154.430303 280.967903 169.098954 290.769182 185.241673 297.455715 
C 201.384393 304.142248 218.687246 307.584 236.16 307.584 
C 253.632754 307.584 270.935607 304.142248 287.078327 297.455715 
C 303.221046 290.769182 317.889697 280.967903 330.2448 268.6128 
C 342.599903 256.257697 352.401182 241.589046 359.087715 225.446327 
C 365.774248 209.303607 369.216 192.000754 369.216 174.528 
C 369.216 157.055246 365.774248 139.752393 359.087715 123.609673 
C 352.401182 107.466954 342.599903 92.798303 330.2448 80.4432 
C 317.889697 68.088097 303.221046 58.286818 287.078327 51.600285 
C 270.935607 44.913752 253.632754 41.472 236.16 41.472 
" style="fill: none; stroke: #ffffff; stroke-width: 1.25; stroke-linejoin: miter; stroke-linecap: square"/>
   </g>
  </g>
 </g>
 <defs>
  <clipPath id="p1dfb008f2a">
   <path d="M 369.216 174.528 
C 369.216 157.055246 365.774248 139.752393 359.087715 123.609673 
C 352.401182 107.466954 342.599903 92.798303 330.2448 80.4432 
C 317.889697 68.088097 303.221046 58.286818 287.078327 51.600285 
C 270.935607 44.913752 253.632754 41.472 236.16 41.472 
C 218.687246 41.472 201.384393 44.913752 185.241673 51.600285 
C 169.098954 58.286818 154.430303 68.088097 142.0752 80.4432 
C 129.720097 92.798303 119.918818 107.466954 113.232285 123.609673 
C 106.545752 139.752393 103.104 157.055246 103.104 174.528 
C 103.104 192.000754 106.545752 209.303607 113.232285 225.446327 
C 119.918818 241.589046 129.720097 256.257697 142.0752 268.6128 
C 154.430303 280.967903 169.098954 290.769182 185.241673 297.455715 
C 201.384393 304.142248 218.687246 307.584 236.16 307.584 
C 253.632754 307.584 270.935607 304.142248 287.078327 297.455715 
C 303.221046 290.769182 317.889697 280.967903 330.2448 268.6128 
C 342.599903 256.257697 352.401182 241.589046 359.087715 225.446327 
C 365.774248 209.303607 369.216 192.000754 369.216 174.528 
M 236.16 174.528 
C 236.16 174.528 236.16 174.528 236.16 174.528 
C 236.16 174.528 236.16 174.528 236.16 174.528 
C 236.16 174.528 236.16 174.528 236.16 174.528 
C 236.16 174.528 236.16 174.528 236.16 174.528 
C 236.16 174.528 236.16 174.528 236.16 174.528 
C 236.16 174.528 236.16 174.528 236.16 174.528 
C 236.16 174.528 236.16 174.528 236.16 174.528 
C 236.16 174.528 236.16 174.528 236.16 174.528 
C 236.16 174.528 236.16 174.528 236.16 174.528 
C 236.16 174.528 236.16 174.528 236.16 174.528 
C 236.16 174.528 236.16 174.528 236.16 174.528 
C 236.16 174.528 236.16 174.528 236.16 174.528 
C 236.16 174.528 236.16 174.528 236.16 174.528 
C 236.16 174.528 236.16 174.528 236.16 174.528 
C 236.16 174.528 236.16 174.528 236.16 174.528 
C 236.16 174.528 236.16 174.528 236.16 174.528 
z
"/>
  </clipPath>
 </defs>
</svg>
