<?xml version="1.0" encoding="utf-8" standalone="no"?>
<!DOCTYPE svg PUBLIC "-//W3C//DTD SVG 1.1//EN"
  "http://www.w3.org/Graphics/SVG/1.1/DTD/svg11.dtd">
<svg xmlns:xlink="http://www.w3.org/1999/xlink" width="460.8pt" height="345.6pt" viewBox="0 0 460.8 345.6" xmlns="http://www.w3.org/2000/svg" version="1.1">
 <metadata>
  <rdf:RDF xmlns:dc="http://purl.org/dc/elements/1.1/" xmlns:cc="http://creativecommons.org/ns#" xmlns:rdf="http://www.w3.org/1999/02/22-rdf-syntax-ns#">
   <cc:Work>
    <dc:type rdf:resource="http://purl.org/dc/dcmitype/StillImage"/>
    <dc:date>2024-08-06T12:57:13.946492</dc:date>
    <dc:format>image/svg+xml</dc:format>
    <dc:creator>
     <cc:Agent>
      <dc:title>Matplotlib v3.9.1, https://matplotlib.org/</dc:title>
     </cc:Agent>
    </dc:creator>
   </cc:Work>
  </rdf:RDF>
 </metadata>
 <defs>
  <style type="text/css">*{stroke-linejoin: round; stroke-linecap: butt}</style>
 </defs>
 <g id="figure_1">
  <g id="patch_1">
   <path d="M 0 345.6 
L 460.8 345.6 
L 460.8 0 
L 0 0 
z
" style="fill: #ffffff"/>
  </g>
  <g id="axes_1">
   <g id="patch_2">
    <path d="M 369.216 174.528 
C 369.216 157.055246 365.774248 139.752393 359.087715 123.609673 
C 352.401182 107.466954 342.599903 92.798303 330.2448 80.4432 
C 317.889697 68.088097 303.221046 58.286818 287.078327 51.600285 
C 270.935607 44.913752 253.632754 41.472 236.16 41.472 
C 218.687246 41.472 201.384393 44.913752 185.241673 51.600285 
C 169.098954 58.286818 154.430303 68.088097 142.0752 80.4432 
C 129.720097 92.798303 119.918818 107.466954 113.232285 123.609673 
C 106.545752 139.752393 103.104 157.055246 103.104 174.528 
C 103.104 192.000754 106.545752 209.303607 113.232285 225.446327 
C 119.918818 241.589046 129.720097 256.257697 142.0752 268.6128 
C 154.430303 280.967903 169.098954 290.769182 185.241673 297.455715 
C 201.384393 304.142248 218.687246 307.584 236.16 307.584 
C 253.632754 307.584 270.935607 304.142248 287.078327 297.455715 
C 303.221046 290.769182 317.889697 280.967903 330.2448 268.6128 
C 342.599903 256.257697 352.401182 241.589046 359.087715 225.446327 
C 365.774248 209.303607 369.216 192.000754 369.216 174.528 
M 236.16 174.528 
C 236.16 174.528 236.16 174.528 236.16 174.528 
C 236.16 174.528 236.16 174.528 236.16 174.528 
C 236.16 174.528 236.16 174.528 236.16 174.528 
C 236.16 174.528 236.16 174.528 236.16 174.528 
C 236.16 174.528 236.16 174.528 236.16 174.528 
C 236.16 174.528 236.16 174.528 236.16 174.528 
C 236.16 174.528 236.16 174.528 236.16 174.528 
C 236.16 174.528 236.16 174.528 236.16 174.528 
C 236.16 174.528 236.16 174.528 236.16 174.528 
C 236.16 174.528 236.16 174.528 236.16 174.528 
C 236.16 174.528 236.16 174.528 236.16 174.528 
C 236.16 174.528 236.16 174.528 236.16 174.528 
C 236.16 174.528 236.16 174.528 236.16 174.528 
C 236.16 174.528 236.16 174.528 236.16 174.528 
C 236.16 174.528 236.16 174.528 236.16 174.528 
C 236.16 174.528 236.16 174.528 236.16 174.528 
z
" style="fill: #eaeaf2"/>
   </g>
   <g id="matplotlib.axis_1">
    <g id="xtick_1">
     <g id="line2d_1">
      <path d="M 236.16 174.528 
L 236.16 41.472 
" clip-path="url(#p523971cba8)" style="fill: none; stroke: #ffffff; stroke-linecap: round"/>
     </g>
     <g id="text_1">
      <!-- 0° -->
      <g style="fill: #262626" transform="translate(230.902344 27.815672) scale(0.11 -0.11)">
       <defs>
        <path id="ArialMT-30" d="M 266 2259 
Q 266 3072 433 3567 
Q 600 4063 929 4331 
Q 1259 4600 1759 4600 
Q 2128 4600 2406 4451 
Q 2684 4303 2865 4023 
Q 3047 3744 3150 3342 
Q 3253 2941 3253 2259 
Q 3253 1453 3087 958 
Q 2922 463 2592 192 
Q 2263 -78 1759 -78 
Q 1097 -78 719 397 
Q 266 969 266 2259 
z
M 844 2259 
Q 844 1131 1108 757 
Q 1372 384 1759 384 
Q 2147 384 2411 759 
Q 2675 1134 2675 2259 
Q 2675 3391 2411 3762 
Q 2147 4134 1753 4134 
Q 1366 4134 1134 3806 
Q 844 3388 844 2259 
z
" transform="scale(0.015625)"/>
        <path id="ArialMT-b0" d="M 400 3794 
Q 400 4153 654 4406 
Q 909 4659 1266 4659 
Q 1628 4659 1881 4406 
Q 2134 4153 2134 3794 
Q 2134 3434 1879 3179 
Q 1625 2925 1266 2925 
Q 909 2925 654 3178 
Q 400 3431 400 3794 
z
M 741 3794 
Q 741 3575 895 3420 
Q 1050 3266 1269 3266 
Q 1484 3266 1639 3420 
Q 1794 3575 1794 3794 
Q 1794 4013 1639 4167 
Q 1484 4322 1269 4322 
Q 1050 4322 895 4167 
Q 741 4013 741 3794 
z
" transform="scale(0.015625)"/>
       </defs>
       <use xlink:href="#ArialMT-30"/>
       <use xlink:href="#ArialMT-b0" x="55.615234"/>
      </g>
     </g>
    </g>
    <g id="xtick_2">
     <g id="line2d_2">
      <path d="M 236.16 174.528 
L 330.2448 80.4432 
" clip-path="url(#p523971cba8)" style="fill: none; stroke: #ffffff; stroke-linecap: round"/>
     </g>
     <g id="text_2">
      <!-- 45° -->
      <g style="fill: #262626" transform="translate(333.59589 71.61961) scale(0.11 -0.11)">
       <defs>
        <path id="ArialMT-34" d="M 2069 0 
L 2069 1097 
L 81 1097 
L 81 1613 
L 2172 4581 
L 2631 4581 
L 2631 1613 
L 3250 1613 
L 3250 1097 
L 2631 1097 
L 2631 0 
L 2069 0 
z
M 2069 1613 
L 2069 3678 
L 634 1613 
L 2069 1613 
z
" transform="scale(0.015625)"/>
        <path id="ArialMT-35" d="M 266 1200 
L 856 1250 
Q 922 819 1161 601 
Q 1400 384 1738 384 
Q 2144 384 2425 690 
Q 2706 997 2706 1503 
Q 2706 1984 2436 2262 
Q 2166 2541 1728 2541 
Q 1456 2541 1237 2417 
Q 1019 2294 894 2097 
L 366 2166 
L 809 4519 
L 3088 4519 
L 3088 3981 
L 1259 3981 
L 1013 2750 
Q 1425 3038 1878 3038 
Q 2478 3038 2890 2622 
Q 3303 2206 3303 1553 
Q 3303 931 2941 478 
Q 2500 -78 1738 -78 
Q 1113 -78 717 272 
Q 322 622 266 1200 
z
" transform="scale(0.015625)"/>
       </defs>
       <use xlink:href="#ArialMT-34"/>
       <use xlink:href="#ArialMT-35" x="55.615234"/>
       <use xlink:href="#ArialMT-b0" x="111.230469"/>
      </g>
     </g>
    </g>
    <g id="xtick_3">
     <g id="line2d_3">
      <path d="M 236.16 174.528 
L 369.216 174.528 
" clip-path="url(#p523971cba8)" style="fill: none; stroke: #ffffff; stroke-linecap: round"/>
     </g>
     <g id="text_3">
      <!-- 90° -->
      <g style="fill: #262626" transform="translate(377.399828 177.371672) scale(0.11 -0.11)">
       <defs>
        <path id="ArialMT-39" d="M 350 1059 
L 891 1109 
Q 959 728 1153 556 
Q 1347 384 1650 384 
Q 1909 384 2104 503 
Q 2300 622 2425 820 
Q 2550 1019 2634 1356 
Q 2719 1694 2719 2044 
Q 2719 2081 2716 2156 
Q 2547 1888 2255 1720 
Q 1963 1553 1622 1553 
Q 1053 1553 659 1965 
Q 266 2378 266 3053 
Q 266 3750 677 4175 
Q 1088 4600 1706 4600 
Q 2153 4600 2523 4359 
Q 2894 4119 3086 3673 
Q 3278 3228 3278 2384 
Q 3278 1506 3087 986 
Q 2897 466 2520 194 
Q 2144 -78 1638 -78 
Q 1100 -78 759 220 
Q 419 519 350 1059 
z
M 2653 3081 
Q 2653 3566 2395 3850 
Q 2138 4134 1775 4134 
Q 1400 4134 1122 3828 
Q 844 3522 844 3034 
Q 844 2597 1108 2323 
Q 1372 2050 1759 2050 
Q 2150 2050 2401 2323 
Q 2653 2597 2653 3081 
z
" transform="scale(0.015625)"/>
       </defs>
       <use xlink:href="#ArialMT-39"/>
       <use xlink:href="#ArialMT-30" x="55.615234"/>
       <use xlink:href="#ArialMT-b0" x="111.230469"/>
      </g>
     </g>
    </g>
    <g id="xtick_4">
     <g id="line2d_4">
      <path d="M 236.16 174.528 
L 330.2448 268.6128 
" clip-path="url(#p523971cba8)" style="fill: none; stroke: #ffffff; stroke-linecap: round"/>
     </g>
     <g id="text_4">
      <!-- 135° -->
      <g style="fill: #262626" transform="translate(330.537374 283.123734) scale(0.11 -0.11)">
       <defs>
        <path id="ArialMT-31" d="M 2384 0 
L 1822 0 
L 1822 3584 
Q 1619 3391 1289 3197 
Q 959 3003 697 2906 
L 697 3450 
Q 1169 3672 1522 3987 
Q 1875 4303 2022 4600 
L 2384 4600 
L 2384 0 
z
" transform="scale(0.015625)"/>
        <path id="ArialMT-33" d="M 269 1209 
L 831 1284 
Q 928 806 1161 595 
Q 1394 384 1728 384 
Q 2125 384 2398 659 
Q 2672 934 2672 1341 
Q 2672 1728 2419 1979 
Q 2166 2231 1775 2231 
Q 1616 2231 1378 2169 
L 1441 2663 
Q 1497 2656 1531 2656 
Q 1891 2656 2178 2843 
Q 2466 3031 2466 3422 
Q 2466 3731 2256 3934 
Q 2047 4138 1716 4138 
Q 1388 4138 1169 3931 
Q 950 3725 888 3313 
L 325 3413 
Q 428 3978 793 4289 
Q 1159 4600 1703 4600 
Q 2078 4600 2393 4439 
Q 2709 4278 2876 4000 
Q 3044 3722 3044 3409 
Q 3044 3113 2884 2869 
Q 2725 2625 2413 2481 
Q 2819 2388 3044 2092 
Q 3269 1797 3269 1353 
Q 3269 753 2831 336 
Q 2394 -81 1725 -81 
Q 1122 -81 723 278 
Q 325 638 269 1209 
z
" transform="scale(0.015625)"/>
       </defs>
       <use xlink:href="#ArialMT-31"/>
       <use xlink:href="#ArialMT-33" x="55.615234"/>
       <use xlink:href="#ArialMT-35" x="111.230469"/>
       <use xlink:href="#ArialMT-b0" x="166.845703"/>
      </g>
     </g>
    </g>
    <g id="xtick_5">
     <g id="line2d_5">
      <path d="M 236.16 174.528 
L 236.16 307.584 
" clip-path="url(#p523971cba8)" style="fill: none; stroke: #ffffff; stroke-linecap: round"/>
     </g>
     <g id="text_5">
      <!-- 180° -->
      <g style="fill: #262626" transform="translate(224.785313 326.927672) scale(0.11 -0.11)">
       <defs>
        <path id="ArialMT-38" d="M 1131 2484 
Q 781 2613 612 2850 
Q 444 3088 444 3419 
Q 444 3919 803 4259 
Q 1163 4600 1759 4600 
Q 2359 4600 2725 4251 
Q 3091 3903 3091 3403 
Q 3091 3084 2923 2848 
Q 2756 2613 2416 2484 
Q 2838 2347 3058 2040 
Q 3278 1734 3278 1309 
Q 3278 722 2862 322 
Q 2447 -78 1769 -78 
Q 1091 -78 675 323 
Q 259 725 259 1325 
Q 259 1772 486 2073 
Q 713 2375 1131 2484 
z
M 1019 3438 
Q 1019 3113 1228 2906 
Q 1438 2700 1772 2700 
Q 2097 2700 2305 2904 
Q 2513 3109 2513 3406 
Q 2513 3716 2298 3927 
Q 2084 4138 1766 4138 
Q 1444 4138 1231 3931 
Q 1019 3725 1019 3438 
z
M 838 1322 
Q 838 1081 952 856 
Q 1066 631 1291 507 
Q 1516 384 1775 384 
Q 2178 384 2440 643 
Q 2703 903 2703 1303 
Q 2703 1709 2433 1975 
Q 2163 2241 1756 2241 
Q 1359 2241 1098 1978 
Q 838 1716 838 1322 
z
" transform="scale(0.015625)"/>
       </defs>
       <use xlink:href="#ArialMT-31"/>
       <use xlink:href="#ArialMT-38" x="55.615234"/>
       <use xlink:href="#ArialMT-30" x="111.230469"/>
       <use xlink:href="#ArialMT-b0" x="166.845703"/>
      </g>
     </g>
    </g>
    <g id="xtick_6">
     <g id="line2d_6">
      <path d="M 236.16 174.528 
L 142.0752 268.6128 
" clip-path="url(#p523971cba8)" style="fill: none; stroke: #ffffff; stroke-linecap: round"/>
     </g>
     <g id="text_6">
      <!-- 225° -->
      <g style="fill: #262626" transform="translate(119.033251 283.123734) scale(0.11 -0.11)">
       <defs>
        <path id="ArialMT-32" d="M 3222 541 
L 3222 0 
L 194 0 
Q 188 203 259 391 
Q 375 700 629 1000 
Q 884 1300 1366 1694 
Q 2113 2306 2375 2664 
Q 2638 3022 2638 3341 
Q 2638 3675 2398 3904 
Q 2159 4134 1775 4134 
Q 1369 4134 1125 3890 
Q 881 3647 878 3216 
L 300 3275 
Q 359 3922 746 4261 
Q 1134 4600 1788 4600 
Q 2447 4600 2831 4234 
Q 3216 3869 3216 3328 
Q 3216 3053 3103 2787 
Q 2991 2522 2730 2228 
Q 2469 1934 1863 1422 
Q 1356 997 1212 845 
Q 1069 694 975 541 
L 3222 541 
z
" transform="scale(0.015625)"/>
       </defs>
       <use xlink:href="#ArialMT-32"/>
       <use xlink:href="#ArialMT-32" x="55.615234"/>
       <use xlink:href="#ArialMT-35" x="111.230469"/>
       <use xlink:href="#ArialMT-b0" x="166.845703"/>
      </g>
     </g>
    </g>
    <g id="xtick_7">
     <g id="line2d_7">
      <path d="M 236.16 174.528 
L 103.104 174.528 
" clip-path="url(#p523971cba8)" style="fill: none; stroke: #ffffff; stroke-linecap: round"/>
     </g>
     <g id="text_7">
      <!-- 270° -->
      <g style="fill: #262626" transform="translate(75.229313 177.371672) scale(0.11 -0.11)">
       <defs>
        <path id="ArialMT-37" d="M 303 3981 
L 303 4522 
L 3269 4522 
L 3269 4084 
Q 2831 3619 2401 2847 
Q 1972 2075 1738 1259 
Q 1569 684 1522 0 
L 944 0 
Q 953 541 1156 1306 
Q 1359 2072 1739 2783 
Q 2119 3494 2547 3981 
L 303 3981 
z
" transform="scale(0.015625)"/>
       </defs>
       <use xlink:href="#ArialMT-32"/>
       <use xlink:href="#ArialMT-37" x="55.615234"/>
       <use xlink:href="#ArialMT-30" x="111.230469"/>
       <use xlink:href="#ArialMT-b0" x="166.845703"/>
      </g>
     </g>
    </g>
    <g id="xtick_8">
     <g id="line2d_8">
      <path d="M 236.16 174.528 
L 142.0752 80.4432 
" clip-path="url(#p523971cba8)" style="fill: none; stroke: #ffffff; stroke-linecap: round"/>
     </g>
     <g id="text_8">
      <!-- 315° -->
      <g style="fill: #262626" transform="translate(119.033251 71.61961) scale(0.11 -0.11)">
       <use xlink:href="#ArialMT-33"/>
       <use xlink:href="#ArialMT-31" x="55.615234"/>
       <use xlink:href="#ArialMT-35" x="111.230469"/>
       <use xlink:href="#ArialMT-b0" x="166.845703"/>
      </g>
     </g>
    </g>
   </g>
   <g id="matplotlib.axis_2">
    <g id="ytick_1">
     <g id="line2d_9">
      <path d="M 236.16 174.528 
C 236.16 174.528 236.16 174.528 236.16 174.528 
C 236.16 174.528 236.16 174.528 236.16 174.528 
C 236.16 174.528 236.16 174.528 236.16 174.528 
C 236.16 174.528 236.16 174.528 236.16 174.528 
C 236.16 174.528 236.16 174.528 236.16 174.528 
C 236.16 174.528 236.16 174.528 236.16 174.528 
C 236.16 174.528 236.16 174.528 236.16 174.528 
C 236.16 174.528 236.16 174.528 236.16 174.528 
C 236.16 174.528 236.16 174.528 236.16 174.528 
C 236.16 174.528 236.16 174.528 236.16 174.528 
C 236.16 174.528 236.16 174.528 236.16 174.528 
C 236.16 174.528 236.16 174.528 236.16 174.528 
C 236.16 174.528 236.16 174.528 236.16 174.528 
C 236.16 174.528 236.16 174.528 236.16 174.528 
C 236.16 174.528 236.16 174.528 236.16 174.528 
C 236.16 174.528 236.16 174.528 236.16 174.528 
" clip-path="url(#p523971cba8)" style="fill: none; stroke: #ffffff; stroke-linecap: round"/>
     </g>
     <g id="text_9">
      <!-- 0.0 -->
      <g style="fill: #dc143c" transform="translate(236.16 172.34175) scale(0.11 -0.11)">
       <defs>
        <path id="ArialMT-2e" d="M 581 0 
L 581 641 
L 1222 641 
L 1222 0 
L 581 0 
z
" transform="scale(0.015625)"/>
       </defs>
       <use xlink:href="#ArialMT-30"/>
       <use xlink:href="#ArialMT-2e" x="55.615234"/>
       <use xlink:href="#ArialMT-30" x="83.398438"/>
      </g>
     </g>
    </g>
    <g id="ytick_2">
     <g id="line2d_10">
      <path d="M 236.16 161.2224 
C 237.907275 161.2224 239.637561 161.566575 241.251833 162.235228 
C 242.866105 162.903882 244.33297 163.88401 245.56848 165.11952 
C 246.80399 166.35503 247.784118 167.821895 248.452772 169.436167 
C 249.121425 171.050439 249.4656 172.780725 249.4656 174.528 
C 249.4656 176.275275 249.121425 178.005561 248.452772 179.619833 
C 247.784118 181.234105 246.80399 182.70097 245.56848 183.93648 
C 244.33297 185.17199 242.866105 186.152118 241.251833 186.820772 
C 239.637561 187.489425 237.907275 187.8336 236.16 187.8336 
C 234.412725 187.8336 232.682439 187.489425 231.068167 186.820772 
C 229.453895 186.152118 227.98703 185.17199 226.75152 183.93648 
C 225.51601 182.70097 224.535882 181.234105 223.867228 179.619833 
C 223.198575 178.005561 222.8544 176.275275 222.8544 174.528 
C 222.8544 172.780725 223.198575 171.050439 223.867228 169.436167 
C 224.535882 167.821895 225.51601 166.35503 226.75152 165.11952 
C 227.98703 163.88401 229.453895 162.903882 231.068167 162.235228 
C 232.682439 161.566575 234.412725 161.2224 236.16 161.2224 
" clip-path="url(#p523971cba8)" style="fill: none; stroke: #ffffff; stroke-linecap: round"/>
     </g>
     <g id="text_10">
      <!-- 0.1 -->
      <g style="fill: #dc143c" transform="translate(241.251833 160.048978) scale(0.11 -0.11)">
       <use xlink:href="#ArialMT-30"/>
       <use xlink:href="#ArialMT-2e" x="55.615234"/>
       <use xlink:href="#ArialMT-31" x="83.398438"/>
      </g>
     </g>
    </g>
    <g id="ytick_3">
     <g id="line2d_11">
      <path d="M 236.16 147.9168 
C 239.654551 147.9168 243.115121 148.60515 246.343665 149.942457 
C 249.572209 151.279764 252.505939 153.240019 254.97696 155.71104 
C 257.447981 158.182061 259.408236 161.115791 260.745543 164.344335 
C 262.08285 167.572879 262.7712 171.033449 262.7712 174.528 
C 262.7712 178.022551 262.08285 181.483121 260.745543 184.711665 
C 259.408236 187.940209 257.447981 190.873939 254.97696 193.34496 
C 252.505939 195.815981 249.572209 197.776236 246.343665 199.113543 
C 243.115121 200.45085 239.654551 201.1392 236.16 201.1392 
C 232.665449 201.1392 229.204879 200.45085 225.976335 199.113543 
C 222.747791 197.776236 219.814061 195.815981 217.34304 193.34496 
C 214.872019 190.873939 212.911764 187.940209 211.574457 184.711665 
C 210.23715 181.483121 209.5488 178.022551 209.5488 174.528 
C 209.5488 171.033449 210.23715 167.572879 211.574457 164.344335 
C 212.911764 161.115791 214.872019 158.182061 217.34304 155.71104 
C 219.814061 153.240019 222.747791 151.279764 225.976335 149.942457 
C 229.204879 148.60515 232.665449 147.9168 236.16 147.9168 
" clip-path="url(#p523971cba8)" style="fill: none; stroke: #ffffff; stroke-linecap: round"/>
     </g>
     <g id="text_11">
      <!-- 0.2 -->
      <g style="fill: #dc143c" transform="translate(246.343665 147.756207) scale(0.11 -0.11)">
       <use xlink:href="#ArialMT-30"/>
       <use xlink:href="#ArialMT-2e" x="55.615234"/>
       <use xlink:href="#ArialMT-32" x="83.398438"/>
      </g>
     </g>
    </g>
    <g id="ytick_4">
     <g id="line2d_12">
      <path d="M 236.16 134.6112 
C 241.401826 134.6112 246.592682 135.643725 251.435498 137.649685 
C 256.278314 139.655645 260.678909 142.596029 264.38544 146.30256 
C 268.091971 150.009091 271.032355 154.409686 273.038315 159.252502 
C 275.044275 164.095318 276.0768 169.286174 276.0768 174.528 
C 276.0768 179.769826 275.044275 184.960682 273.038315 189.803498 
C 271.032355 194.646314 268.091971 199.046909 264.38544 202.75344 
C 260.678909 206.459971 256.278314 209.400355 251.435498 211.406315 
C 246.592682 213.412275 241.401826 214.4448 236.16 214.4448 
C 230.918174 214.4448 225.727318 213.412275 220.884502 211.406315 
C 216.041686 209.400355 211.641091 206.459971 207.93456 202.75344 
C 204.228029 199.046909 201.287645 194.646314 199.281685 189.803498 
C 197.275725 184.960682 196.2432 179.769826 196.2432 174.528 
C 196.2432 169.286174 197.275725 164.095318 199.281685 159.252502 
C 201.287645 154.409686 204.228029 150.009091 207.93456 146.30256 
C 211.641091 142.596029 216.041686 139.655645 220.884502 137.649685 
C 225.727318 135.643725 230.918174 134.6112 236.16 134.6112 
" clip-path="url(#p523971cba8)" style="fill: none; stroke: #ffffff; stroke-linecap: round"/>
     </g>
     <g id="text_12">
      <!-- 0.3 -->
      <g style="fill: #dc143c" transform="translate(251.435498 135.463435) scale(0.11 -0.11)">
       <use xlink:href="#ArialMT-30"/>
       <use xlink:href="#ArialMT-2e" x="55.615234"/>
       <use xlink:href="#ArialMT-33" x="83.398438"/>
      </g>
     </g>
    </g>
    <g id="ytick_5">
     <g id="line2d_13">
      <path d="M 236.16 121.3056 
C 243.149102 121.3056 250.070243 122.682301 256.527331 125.356914 
C 262.984419 128.031527 268.851879 131.952039 273.79392 136.89408 
C 278.735961 141.836121 282.656473 147.703581 285.331086 154.160669 
C 288.005699 160.617757 289.3824 167.538898 289.3824 174.528 
C 289.3824 181.517102 288.005699 188.438243 285.331086 194.895331 
C 282.656473 201.352419 278.735961 207.219879 273.79392 212.16192 
C 268.851879 217.103961 262.984419 221.024473 256.527331 223.699086 
C 250.070243 226.373699 243.149102 227.7504 236.16 227.7504 
C 229.170898 227.7504 222.249757 226.373699 215.792669 223.699086 
C 209.335581 221.024473 203.468121 217.103961 198.52608 212.16192 
C 193.584039 207.219879 189.663527 201.352419 186.988914 194.895331 
C 184.314301 188.438243 182.9376 181.517102 182.9376 174.528 
C 182.9376 167.538898 184.314301 160.617757 186.988914 154.160669 
C 189.663527 147.703581 193.584039 141.836121 198.52608 136.89408 
C 203.468121 131.952039 209.335581 128.031527 215.792669 125.356914 
C 222.249757 122.682301 229.170898 121.3056 236.16 121.3056 
" clip-path="url(#p523971cba8)" style="fill: none; stroke: #ffffff; stroke-linecap: round"/>
     </g>
     <g id="text_13">
      <!-- 0.4 -->
      <g style="fill: #dc143c" transform="translate(256.527331 123.170664) scale(0.11 -0.11)">
       <use xlink:href="#ArialMT-30"/>
       <use xlink:href="#ArialMT-2e" x="55.615234"/>
       <use xlink:href="#ArialMT-34" x="83.398438"/>
      </g>
     </g>
    </g>
    <g id="ytick_6">
     <g id="line2d_14">
      <path d="M 236.16 108 
C 244.896377 108 253.547804 109.720876 261.619163 113.064142 
C 269.690523 116.407409 277.024849 121.308049 283.2024 127.4856 
C 289.379951 133.663151 294.280591 140.997477 297.623858 149.068837 
C 300.967124 157.140196 302.688 165.791623 302.688 174.528 
C 302.688 183.264377 300.967124 191.915804 297.623858 199.987163 
C 294.280591 208.058523 289.379951 215.392849 283.2024 221.5704 
C 277.024849 227.747951 269.690523 232.648591 261.619163 235.991858 
C 253.547804 239.335124 244.896377 241.056 236.16 241.056 
C 227.423623 241.056 218.772196 239.335124 210.700837 235.991858 
C 202.629477 232.648591 195.295151 227.747951 189.1176 221.5704 
C 182.940049 215.392849 178.039409 208.058523 174.696142 199.987163 
C 171.352876 191.915804 169.632 183.264377 169.632 174.528 
C 169.632 165.791623 171.352876 157.140196 174.696142 149.068837 
C 178.039409 140.997477 182.940049 133.663151 189.1176 127.4856 
C 195.295151 121.308049 202.629477 116.407409 210.700837 113.064142 
C 218.772196 109.720876 227.423623 108 236.16 108 
" clip-path="url(#p523971cba8)" style="fill: none; stroke: #ffffff; stroke-linecap: round"/>
     </g>
     <g id="text_14">
      <!-- 0.5 -->
      <g style="fill: #dc143c" transform="translate(261.619163 110.877892) scale(0.11 -0.11)">
       <use xlink:href="#ArialMT-30"/>
       <use xlink:href="#ArialMT-2e" x="55.615234"/>
       <use xlink:href="#ArialMT-35" x="83.398438"/>
      </g>
     </g>
    </g>
    <g id="ytick_7">
     <g id="line2d_15">
      <path d="M 236.16 94.6944 
C 246.643652 94.6944 257.025364 96.759451 266.710996 100.771371 
C 276.396628 104.783291 285.197818 110.664058 292.61088 118.07712 
C 300.023942 125.490182 305.904709 134.291372 309.916629 143.977004 
C 313.928549 153.662636 315.9936 164.044348 315.9936 174.528 
C 315.9936 185.011652 313.928549 195.393364 309.916629 205.078996 
C 305.904709 214.764628 300.023942 223.565818 292.61088 230.97888 
C 285.197818 238.391942 276.396628 244.272709 266.710996 248.284629 
C 257.025364 252.296549 246.643652 254.3616 236.16 254.3616 
C 225.676348 254.3616 215.294636 252.296549 205.609004 248.284629 
C 195.923372 244.272709 187.122182 238.391942 179.70912 230.97888 
C 172.296058 223.565818 166.415291 214.764628 162.403371 205.078996 
C 158.391451 195.393364 156.3264 185.011652 156.3264 174.528 
C 156.3264 164.044348 158.391451 153.662636 162.403371 143.977004 
C 166.415291 134.291372 172.296058 125.490182 179.70912 118.07712 
C 187.122182 110.664058 195.923372 104.783291 205.609004 100.771371 
C 215.294636 96.759451 225.676348 94.6944 236.16 94.6944 
" clip-path="url(#p523971cba8)" style="fill: none; stroke: #ffffff; stroke-linecap: round"/>
     </g>
     <g id="text_15">
      <!-- 0.6 -->
      <g style="fill: #dc143c" transform="translate(266.710996 98.585121) scale(0.11 -0.11)">
       <defs>
        <path id="ArialMT-36" d="M 3184 3459 
L 2625 3416 
Q 2550 3747 2413 3897 
Q 2184 4138 1850 4138 
Q 1581 4138 1378 3988 
Q 1113 3794 959 3422 
Q 806 3050 800 2363 
Q 1003 2672 1297 2822 
Q 1591 2972 1913 2972 
Q 2475 2972 2870 2558 
Q 3266 2144 3266 1488 
Q 3266 1056 3080 686 
Q 2894 316 2569 119 
Q 2244 -78 1831 -78 
Q 1128 -78 684 439 
Q 241 956 241 2144 
Q 241 3472 731 4075 
Q 1159 4600 1884 4600 
Q 2425 4600 2770 4297 
Q 3116 3994 3184 3459 
z
M 888 1484 
Q 888 1194 1011 928 
Q 1134 663 1356 523 
Q 1578 384 1822 384 
Q 2178 384 2434 671 
Q 2691 959 2691 1453 
Q 2691 1928 2437 2201 
Q 2184 2475 1800 2475 
Q 1419 2475 1153 2201 
Q 888 1928 888 1484 
z
" transform="scale(0.015625)"/>
       </defs>
       <use xlink:href="#ArialMT-30"/>
       <use xlink:href="#ArialMT-2e" x="55.615234"/>
       <use xlink:href="#ArialMT-36" x="83.398438"/>
      </g>
     </g>
    </g>
    <g id="ytick_8">
     <g id="line2d_16">
      <path d="M 236.16 81.3888 
C 248.390928 81.3888 260.502925 83.798026 271.802829 88.478599 
C 283.102732 93.159173 293.370788 100.020068 302.01936 108.66864 
C 310.667932 117.317212 317.528827 127.585268 322.209401 138.885171 
C 326.889974 150.185075 329.2992 162.297072 329.2992 174.528 
C 329.2992 186.758928 326.889974 198.870925 322.209401 210.170829 
C 317.528827 221.470732 310.667932 231.738788 302.01936 240.38736 
C 293.370788 249.035932 283.102732 255.896827 271.802829 260.577401 
C 260.502925 265.257974 248.390928 267.6672 236.16 267.6672 
C 223.929072 267.6672 211.817075 265.257974 200.517171 260.577401 
C 189.217268 255.896827 178.949212 249.035932 170.30064 240.38736 
C 161.652068 231.738788 154.791173 221.470732 150.110599 210.170829 
C 145.430026 198.870925 143.0208 186.758928 143.0208 174.528 
C 143.0208 162.297072 145.430026 150.185075 150.110599 138.885171 
C 154.791173 127.585268 161.652068 117.317212 170.30064 108.66864 
C 178.949212 100.020068 189.217268 93.159173 200.517171 88.478599 
C 211.817075 83.798026 223.929072 81.3888 236.16 81.3888 
" clip-path="url(#p523971cba8)" style="fill: none; stroke: #ffffff; stroke-linecap: round"/>
     </g>
     <g id="text_16">
      <!-- 0.7 -->
      <g style="fill: #dc143c" transform="translate(271.802829 86.292349) scale(0.11 -0.11)">
       <use xlink:href="#ArialMT-30"/>
       <use xlink:href="#ArialMT-2e" x="55.615234"/>
       <use xlink:href="#ArialMT-37" x="83.398438"/>
      </g>
     </g>
    </g>
    <g id="ytick_9">
     <g id="line2d_17">
      <path d="M 236.16 68.0832 
C 250.138203 68.0832 263.980486 70.836601 276.894661 76.185828 
C 289.808837 81.535055 301.543758 89.376078 311.42784 99.26016 
C 321.311922 109.144242 329.152945 120.879163 334.502172 133.793339 
C 339.851399 146.707514 342.6048 160.549797 342.6048 174.528 
C 342.6048 188.506203 339.851399 202.348486 334.502172 215.262661 
C 329.152945 228.176837 321.311922 239.911758 311.42784 249.79584 
C 301.543758 259.679922 289.808837 267.520945 276.894661 272.870172 
C 263.980486 278.219399 250.138203 280.9728 236.16 280.9728 
C 222.181797 280.9728 208.339514 278.219399 195.425339 272.870172 
C 182.511163 267.520945 170.776242 259.679922 160.89216 249.79584 
C 151.008078 239.911758 143.167055 228.176837 137.817828 215.262661 
C 132.468601 202.348486 129.7152 188.506203 129.7152 174.528 
C 129.7152 160.549797 132.468601 146.707514 137.817828 133.793339 
C 143.167055 120.879163 151.008078 109.144242 160.89216 99.26016 
C 170.776242 89.376078 182.511163 81.535055 195.425339 76.185828 
C 208.339514 70.836601 222.181797 68.0832 236.16 68.0832 
" clip-path="url(#p523971cba8)" style="fill: none; stroke: #ffffff; stroke-linecap: round"/>
     </g>
     <g id="text_17">
      <!-- 0.8 -->
      <g style="fill: #dc143c" transform="translate(276.894661 73.999578) scale(0.11 -0.11)">
       <use xlink:href="#ArialMT-30"/>
       <use xlink:href="#ArialMT-2e" x="55.615234"/>
       <use xlink:href="#ArialMT-38" x="83.398438"/>
      </g>
     </g>
    </g>
    <g id="ytick_10">
     <g id="line2d_18">
      <path d="M 236.16 54.7776 
C 251.885478 54.7776 267.458046 57.875176 281.986494 63.893056 
C 296.514942 69.910936 309.716727 78.732088 320.83632 89.85168 
C 331.955912 100.971273 340.777064 114.173058 346.794944 128.701506 
C 352.812824 143.229954 355.9104 158.802522 355.9104 174.528 
C 355.9104 190.253478 352.812824 205.826046 346.794944 220.354494 
C 340.777064 234.882942 331.955912 248.084727 320.83632 259.20432 
C 309.716727 270.323912 296.514942 279.145064 281.986494 285.162944 
C 267.458046 291.180824 251.885478 294.2784 236.16 294.2784 
C 220.434522 294.2784 204.861954 291.180824 190.333506 285.162944 
C 175.805058 279.145064 162.603273 270.323912 151.48368 259.20432 
C 140.364088 248.084727 131.542936 234.882942 125.525056 220.354494 
C 119.507176 205.826046 116.4096 190.253478 116.4096 174.528 
C 116.4096 158.802522 119.507176 143.229954 125.525056 128.701506 
C 131.542936 114.173058 140.364088 100.971273 151.48368 89.85168 
C 162.603273 78.732088 175.805058 69.910936 190.333506 63.893056 
C 204.861954 57.875176 220.434522 54.7776 236.16 54.7776 
" clip-path="url(#p523971cba8)" style="fill: none; stroke: #ffffff; stroke-linecap: round"/>
     </g>
     <g id="text_18">
      <!-- 0.9 -->
      <g style="fill: #dc143c" transform="translate(281.986494 61.706806) scale(0.11 -0.11)">
       <use xlink:href="#ArialMT-30"/>
       <use xlink:href="#ArialMT-2e" x="55.615234"/>
       <use xlink:href="#ArialMT-39" x="83.398438"/>
      </g>
     </g>
    </g>
   </g>
   <g id="line2d_19">
    <defs>
     <path id="m5f3d81ff9f" d="M 0 1.5 
C 0.397805 1.5 0.77937 1.341951 1.06066 1.06066 
C 1.341951 0.77937 1.5 0.397805 1.5 0 
C 1.5 -0.397805 1.341951 -0.77937 1.06066 -1.06066 
C 0.77937 -1.341951 0.397805 -1.5 0 -1.5 
C -0.397805 -1.5 -0.77937 -1.341951 -1.06066 -1.06066 
C -1.341951 -0.77937 -1.5 -0.397805 -1.5 0 
C -1.5 0.397805 -1.341951 0.77937 -1.06066 1.06066 
C -0.77937 1.341951 -0.397805 1.5 0 1.5 
z
" style="stroke: #ffffff"/>
    </defs>
    <g clip-path="url(#p523971cba8)">
     <use xlink:href="#m5f3d81ff9f" x="234.527669" y="268.044162" style="stroke: #ffffff"/>
     <use xlink:href="#m5f3d81ff9f" x="235.398091" y="218.17771" style="stroke: #ffffff"/>
     <use xlink:href="#m5f3d81ff9f" x="237.106883" y="120.281134" style="stroke: #ffffff"/>
     <use xlink:href="#m5f3d81ff9f" x="237.877992" y="76.104319" style="stroke: #ffffff"/>
     <use xlink:href="#m5f3d81ff9f" x="232.856872" y="269.117203" style="stroke: #ffffff"/>
     <use xlink:href="#m5f3d81ff9f" x="234.732805" y="215.397519" style="stroke: #ffffff"/>
     <use xlink:href="#m5f3d81ff9f" x="238.053477" y="120.305921" style="stroke: #ffffff"/>
     <use xlink:href="#m5f3d81ff9f" x="239.580888" y="76.56659" style="stroke: #ffffff"/>
     <use xlink:href="#m5f3d81ff9f" x="231.147919" y="270.164209" style="stroke: #ffffff"/>
     <use xlink:href="#m5f3d81ff9f" x="233.330724" y="228.513799" style="stroke: #ffffff"/>
     <use xlink:href="#m5f3d81ff9f" x="239.085373" y="118.708562" style="stroke: #ffffff"/>
     <use xlink:href="#m5f3d81ff9f" x="229.4796" y="270.06217" style="stroke: #ffffff"/>
     <use xlink:href="#m5f3d81ff9f" x="232.456217" y="227.494568" style="stroke: #ffffff"/>
     <use xlink:href="#m5f3d81ff9f" x="239.982938" y="119.857444" style="stroke: #ffffff"/>
     <use xlink:href="#m5f3d81ff9f" x="242.821504" y="79.264054" style="stroke: #ffffff"/>
     <use xlink:href="#m5f3d81ff9f" x="228.008288" y="267.702496" style="stroke: #ffffff"/>
     <use xlink:href="#m5f3d81ff9f" x="231.699459" y="225.512211" style="stroke: #ffffff"/>
     <use xlink:href="#m5f3d81ff9f" x="240.840632" y="121.028129" style="stroke: #ffffff"/>
     <use xlink:href="#m5f3d81ff9f" x="226.149575" y="269.770831" style="stroke: #ffffff"/>
     <use xlink:href="#m5f3d81ff9f" x="230.408054" y="229.254107" style="stroke: #ffffff"/>
     <use xlink:href="#m5f3d81ff9f" x="241.599619" y="122.773481" style="stroke: #ffffff"/>
     <use xlink:href="#m5f3d81ff9f" x="246.008818" y="80.822751" style="stroke: #ffffff"/>
     <use xlink:href="#m5f3d81ff9f" x="224.351811" y="270.697985" style="stroke: #ffffff"/>
     <use xlink:href="#m5f3d81ff9f" x="229.453828" y="229.145387" style="stroke: #ffffff"/>
     <use xlink:href="#m5f3d81ff9f" x="242.704899" y="121.224071" style="stroke: #ffffff"/>
     <use xlink:href="#m5f3d81ff9f" x="223.143083" y="267.148176" style="stroke: #ffffff"/>
     <use xlink:href="#m5f3d81ff9f" x="229.037265" y="225.208893" style="stroke: #ffffff"/>
     <use xlink:href="#m5f3d81ff9f" x="243.710855" y="120.800878" style="stroke: #ffffff"/>
     <use xlink:href="#m5f3d81ff9f" x="249.743667" y="77.87519" style="stroke: #ffffff"/>
     <use xlink:href="#m5f3d81ff9f" x="221.353969" y="268.0096" style="stroke: #ffffff"/>
     <use xlink:href="#m5f3d81ff9f" x="228.004195" y="226.021727" style="stroke: #ffffff"/>
     <use xlink:href="#m5f3d81ff9f" x="245.40933" y="116.130027" style="stroke: #ffffff"/>
     <use xlink:href="#m5f3d81ff9f" x="251.231183" y="79.372298" style="stroke: #ffffff"/>
     <use xlink:href="#m5f3d81ff9f" x="219.724745" y="267.736961" style="stroke: #ffffff"/>
     <use xlink:href="#m5f3d81ff9f" x="227.603203" y="223.056007" style="stroke: #ffffff"/>
     <use xlink:href="#m5f3d81ff9f" x="245.581304" y="121.097128" style="stroke: #ffffff"/>
     <use xlink:href="#m5f3d81ff9f" x="252.889583" y="79.649819" style="stroke: #ffffff"/>
     <use xlink:href="#m5f3d81ff9f" x="218.100528" y="267.43593" style="stroke: #ffffff"/>
     <use xlink:href="#m5f3d81ff9f" x="226.757576" y="222.899279" style="stroke: #ffffff"/>
     <use xlink:href="#m5f3d81ff9f" x="246.512367" y="121.26969" style="stroke: #ffffff"/>
     <use xlink:href="#m5f3d81ff9f" x="254.542888" y="79.956241" style="stroke: #ffffff"/>
     <use xlink:href="#m5f3d81ff9f" x="216.481811" y="267.106599" style="stroke: #ffffff"/>
     <use xlink:href="#m5f3d81ff9f" x="227.466893" y="215.425851" style="stroke: #ffffff"/>
     <use xlink:href="#m5f3d81ff9f" x="247.668125" y="120.38653" style="stroke: #ffffff"/>
     <use xlink:href="#m5f3d81ff9f" x="256.452737" y="79.05818" style="stroke: #ffffff"/>
     <use xlink:href="#m5f3d81ff9f" x="214.363996" y="268.936864" style="stroke: #ffffff"/>
     <use xlink:href="#m5f3d81ff9f" x="224.21602" y="226.263062" style="stroke: #ffffff"/>
     <use xlink:href="#m5f3d81ff9f" x="257.546659" y="81.892205" style="stroke: #ffffff"/>
     <use xlink:href="#m5f3d81ff9f" x="212.991756" y="267.450752" style="stroke: #ffffff"/>
     <use xlink:href="#m5f3d81ff9f" x="223.547256" y="225.114952" style="stroke: #ffffff"/>
     <use xlink:href="#m5f3d81ff9f" x="249.418301" y="121.351859" style="stroke: #ffffff"/>
     <use xlink:href="#m5f3d81ff9f" x="211.66359" y="265.949846" style="stroke: #ffffff"/>
     <use xlink:href="#m5f3d81ff9f" x="222.666313" y="224.887125" style="stroke: #ffffff"/>
     <use xlink:href="#m5f3d81ff9f" x="250.202261" y="122.121569" style="stroke: #ffffff"/>
     <use xlink:href="#m5f3d81ff9f" x="260.98584" y="81.876706" style="stroke: #ffffff"/>
     <use xlink:href="#m5f3d81ff9f" x="209.762912" y="266.585586" style="stroke: #ffffff"/>
     <use xlink:href="#m5f3d81ff9f" x="222.053166" y="223.724377" style="stroke: #ffffff"/>
     <use xlink:href="#m5f3d81ff9f" x="208.160306" y="266.110873" style="stroke: #ffffff"/>
     <use xlink:href="#m5f3d81ff9f" x="220.354419" y="226.225727" style="stroke: #ffffff"/>
     <use xlink:href="#m5f3d81ff9f" x="252.502421" y="121.074349" style="stroke: #ffffff"/>
     <use xlink:href="#m5f3d81ff9f" x="207.257515" y="263.480704" style="stroke: #ffffff"/>
     <use xlink:href="#m5f3d81ff9f" x="223.522926" y="213.420914" style="stroke: #ffffff"/>
     <use xlink:href="#m5f3d81ff9f" x="252.925757" y="122.928306" style="stroke: #ffffff"/>
     <use xlink:href="#m5f3d81ff9f" x="266.191296" y="82.101174" style="stroke: #ffffff"/>
     <use xlink:href="#m5f3d81ff9f" x="205.345997" y="264.018364" style="stroke: #ffffff"/>
     <use xlink:href="#m5f3d81ff9f" x="219.49776" y="222.91866" style="stroke: #ffffff"/>
     <use xlink:href="#m5f3d81ff9f" x="254.886528" y="120.142215" style="stroke: #ffffff"/>
     <use xlink:href="#m5f3d81ff9f" x="267.525832" y="83.43501" style="stroke: #ffffff"/>
     <use xlink:href="#m5f3d81ff9f" x="203.405601" y="264.519971" style="stroke: #ffffff"/>
     <use xlink:href="#m5f3d81ff9f" x="218.00013" y="224.421832" style="stroke: #ffffff"/>
     <use xlink:href="#m5f3d81ff9f" x="255.091165" y="122.515052" style="stroke: #ffffff"/>
     <use xlink:href="#m5f3d81ff9f" x="267.946401" y="87.195581" style="stroke: #ffffff"/>
     <use xlink:href="#m5f3d81ff9f" x="201.436939" y="264.984666" style="stroke: #ffffff"/>
     <use xlink:href="#m5f3d81ff9f" x="219.513694" y="217.89311" style="stroke: #ffffff"/>
     <use xlink:href="#m5f3d81ff9f" x="255.405876" y="124.39078" style="stroke: #ffffff"/>
     <use xlink:href="#m5f3d81ff9f" x="200.704662" y="262.28304" style="stroke: #ffffff"/>
     <use xlink:href="#m5f3d81ff9f" x="216.988023" y="221.980308" style="stroke: #ffffff"/>
     <use xlink:href="#m5f3d81ff9f" x="256.689961" y="123.714564" style="stroke: #ffffff"/>
     <use xlink:href="#m5f3d81ff9f" x="272.250285" y="85.201411" style="stroke: #ffffff"/>
     <use xlink:href="#m5f3d81ff9f" x="198.740674" y="262.682407" style="stroke: #ffffff"/>
     <use xlink:href="#m5f3d81ff9f" x="215.413777" y="223.40304" style="stroke: #ffffff"/>
     <use xlink:href="#m5f3d81ff9f" x="257.359168" y="124.58589" style="stroke: #ffffff"/>
     <use xlink:href="#m5f3d81ff9f" x="197.663654" y="260.992209" style="stroke: #ffffff"/>
     <use xlink:href="#m5f3d81ff9f" x="219.898323" y="211.052325" style="stroke: #ffffff"/>
     <use xlink:href="#m5f3d81ff9f" x="258.450818" y="124.462004" style="stroke: #ffffff"/>
     <use xlink:href="#m5f3d81ff9f" x="275.517074" y="86.130565" style="stroke: #ffffff"/>
     <use xlink:href="#m5f3d81ff9f" x="195.686925" y="261.32279" style="stroke: #ffffff"/>
     <use xlink:href="#m5f3d81ff9f" x="213.313305" y="223.522896" style="stroke: #ffffff"/>
     <use xlink:href="#m5f3d81ff9f" x="261.14769" y="120.941726" style="stroke: #ffffff"/>
     <use xlink:href="#m5f3d81ff9f" x="194.669548" y="259.596034" style="stroke: #ffffff"/>
     <use xlink:href="#m5f3d81ff9f" x="213.305256" y="221.387169" style="stroke: #ffffff"/>
     <use xlink:href="#m5f3d81ff9f" x="260.184517" y="125.270441" style="stroke: #ffffff"/>
     <use xlink:href="#m5f3d81ff9f" x="279.312674" y="86.051906" style="stroke: #ffffff"/>
     <use xlink:href="#m5f3d81ff9f" x="192.682485" y="259.857427" style="stroke: #ffffff"/>
     <use xlink:href="#m5f3d81ff9f" x="216.76" y="212.602644" style="stroke: #ffffff"/>
     <use xlink:href="#m5f3d81ff9f" x="261.288838" y="125.209878" style="stroke: #ffffff"/>
     <use xlink:href="#m5f3d81ff9f" x="191.725991" y="258.096217" style="stroke: #ffffff"/>
     <use xlink:href="#m5f3d81ff9f" x="211.683817" y="220.561005" style="stroke: #ffffff"/>
     <use xlink:href="#m5f3d81ff9f" x="216.961228" y="210.635639" style="stroke: #ffffff"/>
     <use xlink:href="#m5f3d81ff9f" x="262.145731" y="125.655948" style="stroke: #ffffff"/>
     <use xlink:href="#m5f3d81ff9f" x="281.784803" y="88.720225" style="stroke: #ffffff"/>
     <use xlink:href="#m5f3d81ff9f" x="189.185727" y="259.271832" style="stroke: #ffffff"/>
     <use xlink:href="#m5f3d81ff9f" x="209.951247" y="221.809842" style="stroke: #ffffff"/>
     <use xlink:href="#m5f3d81ff9f" x="281.839443" y="92.120104" style="stroke: #ffffff"/>
     <use xlink:href="#m5f3d81ff9f" x="188.83657" y="256.494585" style="stroke: #ffffff"/>
     <use xlink:href="#m5f3d81ff9f" x="209.612047" y="220.510404" style="stroke: #ffffff"/>
     <use xlink:href="#m5f3d81ff9f" x="263.835511" y="126.592608" style="stroke: #ffffff"/>
     <use xlink:href="#m5f3d81ff9f" x="284.751658" y="90.36478" style="stroke: #ffffff"/>
     <use xlink:href="#m5f3d81ff9f" x="186.836114" y="256.616731" style="stroke: #ffffff"/>
     <use xlink:href="#m5f3d81ff9f" x="214.625468" y="210.367479" style="stroke: #ffffff"/>
     <use xlink:href="#m5f3d81ff9f" x="185.410981" y="255.743408" style="stroke: #ffffff"/>
     <use xlink:href="#m5f3d81ff9f" x="206.999839" y="221.194013" style="stroke: #ffffff"/>
     <use xlink:href="#m5f3d81ff9f" x="263.736785" y="130.395919" style="stroke: #ffffff"/>
     <use xlink:href="#m5f3d81ff9f" x="185.219689" y="252.9692" style="stroke: #ffffff"/>
     <use xlink:href="#m5f3d81ff9f" x="208.285939" y="217.45029" style="stroke: #ffffff"/>
     <use xlink:href="#m5f3d81ff9f" x="265.108301" y="129.951525" style="stroke: #ffffff"/>
     <use xlink:href="#m5f3d81ff9f" x="288.401601" y="94.082989" style="stroke: #ffffff"/>
     <use xlink:href="#m5f3d81ff9f" x="183.85846" y="252.068222" style="stroke: #ffffff"/>
     <use xlink:href="#m5f3d81ff9f" x="208.073991" y="216.167221" style="stroke: #ffffff"/>
     <use xlink:href="#m5f3d81ff9f" x="266.499083" y="129.548459" style="stroke: #ffffff"/>
     <use xlink:href="#m5f3d81ff9f" x="290.972715" y="93.264807" style="stroke: #ffffff"/>
     <use xlink:href="#m5f3d81ff9f" x="180.584914" y="253.897448" style="stroke: #ffffff"/>
     <use xlink:href="#m5f3d81ff9f" x="205.152523" y="218.811267" style="stroke: #ffffff"/>
     <use xlink:href="#m5f3d81ff9f" x="266.963482" y="130.536069" style="stroke: #ffffff"/>
     <use xlink:href="#m5f3d81ff9f" x="178.54463" y="253.828753" style="stroke: #ffffff"/>
     <use xlink:href="#m5f3d81ff9f" x="292.540172" y="96.92735" style="stroke: #ffffff"/>
     <use xlink:href="#m5f3d81ff9f" x="179.200098" y="250.116343" style="stroke: #ffffff"/>
     <use xlink:href="#m5f3d81ff9f" x="211.549117" y="207.187744" style="stroke: #ffffff"/>
     <use xlink:href="#m5f3d81ff9f" x="269.141904" y="130.759535" style="stroke: #ffffff"/>
     <use xlink:href="#m5f3d81ff9f" x="294.39345" y="97.249601" style="stroke: #ffffff"/>
     <use xlink:href="#m5f3d81ff9f" x="176.507202" y="250.880099" style="stroke: #ffffff"/>
     <use xlink:href="#m5f3d81ff9f" x="273.540194" y="126.683534" style="stroke: #ffffff"/>
     <use xlink:href="#m5f3d81ff9f" x="175.18376" y="249.827386" style="stroke: #ffffff"/>
     <use xlink:href="#m5f3d81ff9f" x="201.530038" y="217.292441" style="stroke: #ffffff"/>
     <use xlink:href="#m5f3d81ff9f" x="294.376605" y="102.63648" style="stroke: #ffffff"/>
     <use xlink:href="#m5f3d81ff9f" x="175.322171" y="247.031701" style="stroke: #ffffff"/>
     <use xlink:href="#m5f3d81ff9f" x="202.647881" y="214.466189" style="stroke: #ffffff"/>
     <use xlink:href="#m5f3d81ff9f" x="270.680415" y="133.388171" style="stroke: #ffffff"/>
     <use xlink:href="#m5f3d81ff9f" x="297.815981" y="101.049264" style="stroke: #ffffff"/>
     <use xlink:href="#m5f3d81ff9f" x="173.330897" y="246.804616" style="stroke: #ffffff"/>
     <use xlink:href="#m5f3d81ff9f" x="200.693523" y="215.327514" style="stroke: #ffffff"/>
     <use xlink:href="#m5f3d81ff9f" x="170.571068" y="247.371889" style="stroke: #ffffff"/>
     <use xlink:href="#m5f3d81ff9f" x="198.689408" y="216.143308" style="stroke: #ffffff"/>
     <use xlink:href="#m5f3d81ff9f" x="298.059332" y="105.781827" style="stroke: #ffffff"/>
     <use xlink:href="#m5f3d81ff9f" x="170.079675" y="245.390473" style="stroke: #ffffff"/>
     <use xlink:href="#m5f3d81ff9f" x="199.291246" y="214.064898" style="stroke: #ffffff"/>
     <use xlink:href="#m5f3d81ff9f" x="273.161909" y="134.84831" style="stroke: #ffffff"/>
     <use xlink:href="#m5f3d81ff9f" x="169.634336" y="243.417342" style="stroke: #ffffff"/>
     <use xlink:href="#m5f3d81ff9f" x="202.586527" y="209.294349" style="stroke: #ffffff"/>
     <use xlink:href="#m5f3d81ff9f" x="274.230096" y="135.105262" style="stroke: #ffffff"/>
     <use xlink:href="#m5f3d81ff9f" x="303.377255" y="104.922495" style="stroke: #ffffff"/>
     <use xlink:href="#m5f3d81ff9f" x="170.024015" y="240.663985" style="stroke: #ffffff"/>
     <use xlink:href="#m5f3d81ff9f" x="200.644872" y="210.043128" style="stroke: #ffffff"/>
     <use xlink:href="#m5f3d81ff9f" x="274.912319" y="135.775681" style="stroke: #ffffff"/>
     <use xlink:href="#m5f3d81ff9f" x="167.270658" y="241.053664" style="stroke: #ffffff"/>
     <use xlink:href="#m5f3d81ff9f" x="197.966001" y="211.411516" style="stroke: #ffffff"/>
     <use xlink:href="#m5f3d81ff9f" x="275.582738" y="136.457904" style="stroke: #ffffff"/>
     <use xlink:href="#m5f3d81ff9f" x="305.158842" y="107.896593" style="stroke: #ffffff"/>
     <use xlink:href="#m5f3d81ff9f" x="167.75619" y="238.315585" style="stroke: #ffffff"/>
     <use xlink:href="#m5f3d81ff9f" x="199.427047" y="208.782033" style="stroke: #ffffff"/>
     <use xlink:href="#m5f3d81ff9f" x="276.241149" y="137.151724" style="stroke: #ffffff"/>
     <use xlink:href="#m5f3d81ff9f" x="307.235378" y="108.249138" style="stroke: #ffffff"/>
     <use xlink:href="#m5f3d81ff9f" x="164.155059" y="239.36154" style="stroke: #ffffff"/>
     <use xlink:href="#m5f3d81ff9f" x="276.070022" y="138.592855" style="stroke: #ffffff"/>
     <use xlink:href="#m5f3d81ff9f" x="165.571705" y="235.889468" style="stroke: #ffffff"/>
     <use xlink:href="#m5f3d81ff9f" x="199.684197" y="206.235932" style="stroke: #ffffff"/>
     <use xlink:href="#m5f3d81ff9f" x="277.933947" y="138.214462" style="stroke: #ffffff"/>
     <use xlink:href="#m5f3d81ff9f" x="164.511551" y="234.648187" style="stroke: #ffffff"/>
     <use xlink:href="#m5f3d81ff9f" x="196.95464" y="207.425203" style="stroke: #ffffff"/>
     <use xlink:href="#m5f3d81ff9f" x="277.72184" y="139.653475" style="stroke: #ffffff"/>
     <use xlink:href="#m5f3d81ff9f" x="311.248535" y="111.521238" style="stroke: #ffffff"/>
     <use xlink:href="#m5f3d81ff9f" x="160.860614" y="235.50424" style="stroke: #ffffff"/>
     <use xlink:href="#m5f3d81ff9f" x="194.147578" y="208.548989" style="stroke: #ffffff"/>
     <use xlink:href="#m5f3d81ff9f" x="277.896027" y="140.730832" style="stroke: #ffffff"/>
     <use xlink:href="#m5f3d81ff9f" x="162.457033" y="232.111069" style="stroke: #ffffff"/>
     <use xlink:href="#m5f3d81ff9f" x="196.581391" y="205.450198" style="stroke: #ffffff"/>
     <use xlink:href="#m5f3d81ff9f" x="278.913625" y="141.125207" style="stroke: #ffffff"/>
     <use xlink:href="#m5f3d81ff9f" x="313.730733" y="113.923101" style="stroke: #ffffff"/>
     <use xlink:href="#m5f3d81ff9f" x="160.571657" y="231.487902" style="stroke: #ffffff"/>
     <use xlink:href="#m5f3d81ff9f" x="194.522657" y="205.903989" style="stroke: #ffffff"/>
     <use xlink:href="#m5f3d81ff9f" x="280.800564" y="140.888922" style="stroke: #ffffff"/>
     <use xlink:href="#m5f3d81ff9f" x="313.102007" y="116.548039" style="stroke: #ffffff"/>
     <use xlink:href="#m5f3d81ff9f" x="159.589082" y="230.160028" style="stroke: #ffffff"/>
     <use xlink:href="#m5f3d81ff9f" x="195.526332" y="204.050088" style="stroke: #ffffff"/>
     <use xlink:href="#m5f3d81ff9f" x="280.497412" y="142.314984" style="stroke: #ffffff"/>
     <use xlink:href="#m5f3d81ff9f" x="314.442943" y="117.652113" style="stroke: #ffffff"/>
     <use xlink:href="#m5f3d81ff9f" x="156.790552" y="230.103086" style="stroke: #ffffff"/>
     <use xlink:href="#m5f3d81ff9f" x="191.876733" y="205.535477" style="stroke: #ffffff"/>
     <use xlink:href="#m5f3d81ff9f" x="279.699039" y="144.041637" style="stroke: #ffffff"/>
     <use xlink:href="#m5f3d81ff9f" x="157.694197" y="227.453852" style="stroke: #ffffff"/>
     <use xlink:href="#m5f3d81ff9f" x="193.730717" y="203.146913" style="stroke: #ffffff"/>
     <use xlink:href="#m5f3d81ff9f" x="281.139541" y="144.188917" style="stroke: #ffffff"/>
     <use xlink:href="#m5f3d81ff9f" x="317.423193" y="119.715285" style="stroke: #ffffff"/>
     <use xlink:href="#m5f3d81ff9f" x="156.782464" y="226.076374" style="stroke: #ffffff"/>
     <use xlink:href="#m5f3d81ff9f" x="193.23771" y="202.402061" style="stroke: #ffffff"/>
     <use xlink:href="#m5f3d81ff9f" x="282.122549" y="144.679572" style="stroke: #ffffff"/>
     <use xlink:href="#m5f3d81ff9f" x="317.312313" y="121.827072" style="stroke: #ffffff"/>
     <use xlink:href="#m5f3d81ff9f" x="154.944592" y="225.277019" style="stroke: #ffffff"/>
     <use xlink:href="#m5f3d81ff9f" x="191.132118" y="202.664544" style="stroke: #ffffff"/>
     <use xlink:href="#m5f3d81ff9f" x="282.636475" y="145.486275" style="stroke: #ffffff"/>
     <use xlink:href="#m5f3d81ff9f" x="153.10717" y="224.431175" style="stroke: #ffffff"/>
     <use xlink:href="#m5f3d81ff9f" x="190.647925" y="201.874413" style="stroke: #ffffff"/>
     <use xlink:href="#m5f3d81ff9f" x="154.193415" y="221.85143" style="stroke: #ffffff"/>
     <use xlink:href="#m5f3d81ff9f" x="192.663029" y="199.640988" style="stroke: #ffffff"/>
     <use xlink:href="#m5f3d81ff9f" x="283.621704" y="147.125972" style="stroke: #ffffff"/>
     <use xlink:href="#m5f3d81ff9f" x="319.95925" y="126.146481" style="stroke: #ffffff"/>
     <use xlink:href="#m5f3d81ff9f" x="151.416168" y="221.502273" style="stroke: #ffffff"/>
     <use xlink:href="#m5f3d81ff9f" x="188.878158" y="200.736753" style="stroke: #ffffff"/>
     <use xlink:href="#m5f3d81ff9f" x="319.31228" y="128.435939" style="stroke: #ffffff"/>
     <use xlink:href="#m5f3d81ff9f" x="150.609261" y="220.016135" style="stroke: #ffffff"/>
     <use xlink:href="#m5f3d81ff9f" x="287.421179" y="147.271947" style="stroke: #ffffff"/>
     <use xlink:href="#m5f3d81ff9f" x="148.822541" y="219.028658" style="stroke: #ffffff"/>
     <use xlink:href="#m5f3d81ff9f" x="185.395795" y="200.393654" style="stroke: #ffffff"/>
     <use xlink:href="#m5f3d81ff9f" x="319.349984" y="132.140586" style="stroke: #ffffff"/>
     <use xlink:href="#m5f3d81ff9f" x="150.084782" y="216.509689" style="stroke: #ffffff"/>
     <use xlink:href="#m5f3d81ff9f" x="201.043411" y="191.655505" style="stroke: #ffffff"/>
     <use xlink:href="#m5f3d81ff9f" x="284.924187" y="150.744117" style="stroke: #ffffff"/>
     <use xlink:href="#m5f3d81ff9f" x="323.130043" y="132.109876" style="stroke: #ffffff"/>
     <use xlink:href="#m5f3d81ff9f" x="149.36521" y="215.001075" style="stroke: #ffffff"/>
     <use xlink:href="#m5f3d81ff9f" x="285.331846" y="151.598792" style="stroke: #ffffff"/>
     <use xlink:href="#m5f3d81ff9f" x="149.695791" y="213.024346" style="stroke: #ffffff"/>
     <use xlink:href="#m5f3d81ff9f" x="191.143559" y="194.570611" style="stroke: #ffffff"/>
     <use xlink:href="#m5f3d81ff9f" x="286.225996" y="152.237182" style="stroke: #ffffff"/>
     <use xlink:href="#m5f3d81ff9f" x="324.941377" y="134.999984" style="stroke: #ffffff"/>
     <use xlink:href="#m5f3d81ff9f" x="149.037106" y="211.509474" style="stroke: #ffffff"/>
     <use xlink:href="#m5f3d81ff9f" x="190.800623" y="193.781913" style="stroke: #ffffff"/>
     <use xlink:href="#m5f3d81ff9f" x="199.357432" y="190.149763" style="stroke: #ffffff"/>
     <use xlink:href="#m5f3d81ff9f" x="286.10211" y="153.328832" style="stroke: #ffffff"/>
     <use xlink:href="#m5f3d81ff9f" x="326.388918" y="136.228097" style="stroke: #ffffff"/>
     <use xlink:href="#m5f3d81ff9f" x="149.440116" y="209.565107" style="stroke: #ffffff"/>
     <use xlink:href="#m5f3d81ff9f" x="189.591286" y="193.342982" style="stroke: #ffffff"/>
     <use xlink:href="#m5f3d81ff9f" x="286.46448" y="154.203671" style="stroke: #ffffff"/>
     <use xlink:href="#m5f3d81ff9f" x="327.043601" y="137.808642" style="stroke: #ffffff"/>
     <use xlink:href="#m5f3d81ff9f" x="146.753379" y="208.847986" style="stroke: #ffffff"/>
     <use xlink:href="#m5f3d81ff9f" x="186.590701" y="193.555871" style="stroke: #ffffff"/>
     <use xlink:href="#m5f3d81ff9f" x="288.850463" y="154.302026" style="stroke: #ffffff"/>
     <use xlink:href="#m5f3d81ff9f" x="148.270166" y="206.517283" style="stroke: #ffffff"/>
     <use xlink:href="#m5f3d81ff9f" x="197.731806" y="188.514719" style="stroke: #ffffff"/>
     <use xlink:href="#m5f3d81ff9f" x="287.143145" y="155.971653" style="stroke: #ffffff"/>
     <use xlink:href="#m5f3d81ff9f" x="327.087514" y="141.433092" style="stroke: #ffffff"/>
     <use xlink:href="#m5f3d81ff9f" x="144.54662" y="206.073016" style="stroke: #ffffff"/>
     <use xlink:href="#m5f3d81ff9f" x="183.21198" y="192.759465" style="stroke: #ffffff"/>
     <use xlink:href="#m5f3d81ff9f" x="326.052812" y="143.575422" style="stroke: #ffffff"/>
     <use xlink:href="#m5f3d81ff9f" x="147.207296" y="203.430485" style="stroke: #ffffff"/>
     <use xlink:href="#m5f3d81ff9f" x="188.392259" y="190.04868" style="stroke: #ffffff"/>
     <use xlink:href="#m5f3d81ff9f" x="288.801951" y="157.423593" style="stroke: #ffffff"/>
     <use xlink:href="#m5f3d81ff9f" x="328.985658" y="144.367115" style="stroke: #ffffff"/>
     <use xlink:href="#m5f3d81ff9f" x="143.501524" y="202.856539" style="stroke: #ffffff"/>
     <use xlink:href="#m5f3d81ff9f" x="294.22252" y="156.776506" style="stroke: #ffffff"/>
     <use xlink:href="#m5f3d81ff9f" x="147.322033" y="200.001877" style="stroke: #ffffff"/>
     <use xlink:href="#m5f3d81ff9f" x="186.963623" y="188.634834" style="stroke: #ffffff"/>
     <use xlink:href="#m5f3d81ff9f" x="289.366818" y="159.27119" style="stroke: #ffffff"/>
     <use xlink:href="#m5f3d81ff9f" x="328.363913" y="148.088954" style="stroke: #ffffff"/>
     <use xlink:href="#m5f3d81ff9f" x="143.655742" y="199.314441" style="stroke: #ffffff"/>
     <use xlink:href="#m5f3d81ff9f" x="195.77316" y="185.349621" style="stroke: #ffffff"/>
     <use xlink:href="#m5f3d81ff9f" x="143.237248" y="197.696244" style="stroke: #ffffff"/>
     <use xlink:href="#m5f3d81ff9f" x="184.641269" y="187.373062" style="stroke: #ffffff"/>
     <use xlink:href="#m5f3d81ff9f" x="294.045538" y="160.095514" style="stroke: #ffffff"/>
     <use xlink:href="#m5f3d81ff9f" x="145.026771" y="195.567764" style="stroke: #ffffff"/>
     <use xlink:href="#m5f3d81ff9f" x="184.424938" y="186.47198" style="stroke: #ffffff"/>
     <use xlink:href="#m5f3d81ff9f" x="289.024574" y="162.323251" style="stroke: #ffffff"/>
     <use xlink:href="#m5f3d81ff9f" x="330.443008" y="152.761052" style="stroke: #ffffff"/>
     <use xlink:href="#m5f3d81ff9f" x="143.581401" y="194.206189" style="stroke: #ffffff"/>
     <use xlink:href="#m5f3d81ff9f" x="185.163686" y="185.367601" style="stroke: #ffffff"/>
     <use xlink:href="#m5f3d81ff9f" x="289.766456" y="163.133596" style="stroke: #ffffff"/>
     <use xlink:href="#m5f3d81ff9f" x="142.152063" y="192.801292" style="stroke: #ffffff"/>
     <use xlink:href="#m5f3d81ff9f" x="183.093346" y="184.843113" style="stroke: #ffffff"/>
     <use xlink:href="#m5f3d81ff9f" x="288.877534" y="164.280749" style="stroke: #ffffff"/>
     <use xlink:href="#m5f3d81ff9f" x="328.231093" y="156.631193" style="stroke: #ffffff"/>
     <use xlink:href="#m5f3d81ff9f" x="144.050529" y="190.769385" style="stroke: #ffffff"/>
     <use xlink:href="#m5f3d81ff9f" x="186.69707" y="183.249649" style="stroke: #ffffff"/>
     <use xlink:href="#m5f3d81ff9f" x="289.590872" y="165.106696" style="stroke: #ffffff"/>
     <use xlink:href="#m5f3d81ff9f" x="141.571601" y="189.509331" style="stroke: #ffffff"/>
     <use xlink:href="#m5f3d81ff9f" x="184.666273" y="182.683805" style="stroke: #ffffff"/>
     <use xlink:href="#m5f3d81ff9f" x="292.438763" y="165.61432" style="stroke: #ffffff"/>
     <use xlink:href="#m5f3d81ff9f" x="330.898748" y="159.522856" style="stroke: #ffffff"/>
     <use xlink:href="#m5f3d81ff9f" x="142.434237" y="187.700297" style="stroke: #ffffff"/>
     <use xlink:href="#m5f3d81ff9f" x="192.009785" y="180.732908" style="stroke: #ffffff"/>
     <use xlink:href="#m5f3d81ff9f" x="297.84242" y="165.859101" style="stroke: #ffffff"/>
     <use xlink:href="#m5f3d81ff9f" x="331.146194" y="161.178561" style="stroke: #ffffff"/>
     <use xlink:href="#m5f3d81ff9f" x="143.326754" y="185.926489" style="stroke: #ffffff"/>
     <use xlink:href="#m5f3d81ff9f" x="186.308401" y="180.649007" style="stroke: #ffffff"/>
     <use xlink:href="#m5f3d81ff9f" x="290.01072" y="167.915963" style="stroke: #ffffff"/>
     <use xlink:href="#m5f3d81ff9f" x="332.201782" y="162.735552" style="stroke: #ffffff"/>
     <use xlink:href="#m5f3d81ff9f" x="139.798581" y="184.655993" style="stroke: #ffffff"/>
     <use xlink:href="#m5f3d81ff9f" x="193.661919" y="178.994728" style="stroke: #ffffff"/>
     <use xlink:href="#m5f3d81ff9f" x="289.020183" y="168.972171" style="stroke: #ffffff"/>
     <use xlink:href="#m5f3d81ff9f" x="142.985504" y="182.679712" style="stroke: #ffffff"/>
     <use xlink:href="#m5f3d81ff9f" x="193.590436" y="178.252354" style="stroke: #ffffff"/>
     <use xlink:href="#m5f3d81ff9f" x="290.208672" y="169.799354" style="stroke: #ffffff"/>
     <use xlink:href="#m5f3d81ff9f" x="333.391265" y="166.021367" style="stroke: #ffffff"/>
     <use xlink:href="#m5f3d81ff9f" x="139.50382" y="181.286859" style="stroke: #ffffff"/>
     <use xlink:href="#m5f3d81ff9f" x="183.193432" y="178.231783" style="stroke: #ffffff"/>
     <use xlink:href="#m5f3d81ff9f" x="290.282967" y="170.743353" style="stroke: #ffffff"/>
     <use xlink:href="#m5f3d81ff9f" x="141.642851" y="179.481434" style="stroke: #ffffff"/>
     <use xlink:href="#m5f3d81ff9f" x="193.486391" y="176.764429" style="stroke: #ffffff"/>
     <use xlink:href="#m5f3d81ff9f" x="290.340775" y="171.688506" style="stroke: #ffffff"/>
     <use xlink:href="#m5f3d81ff9f" x="332.369797" y="169.485858" style="stroke: #ffffff"/>
     <use xlink:href="#m5f3d81ff9f" x="141.570797" y="177.831128" style="stroke: #ffffff"/>
     <use xlink:href="#m5f3d81ff9f" x="185.012214" y="176.31412" style="stroke: #ffffff"/>
     <use xlink:href="#m5f3d81ff9f" x="291.477304" y="172.596277" style="stroke: #ffffff"/>
     <use xlink:href="#m5f3d81ff9f" x="332.864093" y="171.151019" style="stroke: #ffffff"/>
     <use xlink:href="#m5f3d81ff9f" x="140.407131" y="176.199373" style="stroke: #ffffff"/>
     <use xlink:href="#m5f3d81ff9f" x="183.07218" y="175.454651" style="stroke: #ffffff"/>
     <use xlink:href="#m5f3d81ff9f" x="139.267795" y="174.528" style="stroke: #ffffff"/>
     <use xlink:href="#m5f3d81ff9f" x="182.100114" y="174.528" style="stroke: #ffffff"/>
     <use xlink:href="#m5f3d81ff9f" x="290.415129" y="174.528" style="stroke: #ffffff"/>
     <use xlink:href="#m5f3d81ff9f" x="142.643838" y="172.895669" style="stroke: #ffffff"/>
     <use xlink:href="#m5f3d81ff9f" x="185.941674" y="173.651436" style="stroke: #ffffff"/>
     <use xlink:href="#m5f3d81ff9f" x="290.406866" y="175.474883" style="stroke: #ffffff"/>
     <use xlink:href="#m5f3d81ff9f" x="334.166192" y="176.238704" style="stroke: #ffffff"/>
     <use xlink:href="#m5f3d81ff9f" x="140.450884" y="171.185764" style="stroke: #ffffff"/>
     <use xlink:href="#m5f3d81ff9f" x="193.453859" y="173.036669" style="stroke: #ffffff"/>
     <use xlink:href="#m5f3d81ff9f" x="290.930671" y="176.440634" style="stroke: #ffffff"/>
     <use xlink:href="#m5f3d81ff9f" x="141.642851" y="169.574566" style="stroke: #ffffff"/>
     <use xlink:href="#m5f3d81ff9f" x="184.095848" y="171.799433" style="stroke: #ffffff"/>
     <use xlink:href="#m5f3d81ff9f" x="290.340775" y="177.367494" style="stroke: #ffffff"/>
     <use xlink:href="#m5f3d81ff9f" x="332.790428" y="179.592186" style="stroke: #ffffff"/>
     <use xlink:href="#m5f3d81ff9f" x="140.62583" y="167.8476" style="stroke: #ffffff"/>
     <use xlink:href="#m5f3d81ff9f" x="185.105707" y="170.957936" style="stroke: #ffffff"/>
     <use xlink:href="#m5f3d81ff9f" x="141.8733" y="166.278983" style="stroke: #ffffff"/>
     <use xlink:href="#m5f3d81ff9f" x="185.175789" y="170.067459" style="stroke: #ffffff"/>
     <use xlink:href="#m5f3d81ff9f" x="291.300395" y="179.352159" style="stroke: #ffffff"/>
     <use xlink:href="#m5f3d81ff9f" x="332.13522" y="182.924744" style="stroke: #ffffff"/>
     <use xlink:href="#m5f3d81ff9f" x="142.031626" y="164.634709" style="stroke: #ffffff"/>
     <use xlink:href="#m5f3d81ff9f" x="185.261401" y="169.178342" style="stroke: #ffffff"/>
     <use xlink:href="#m5f3d81ff9f" x="291.207804" y="180.313757" style="stroke: #ffffff"/>
     <use xlink:href="#m5f3d81ff9f" x="331.97406" y="184.598463" style="stroke: #ffffff"/>
     <use xlink:href="#m5f3d81ff9f" x="138.869513" y="162.58223" style="stroke: #ffffff"/>
     <use xlink:href="#m5f3d81ff9f" x="180.578486" y="167.703448" style="stroke: #ffffff"/>
     <use xlink:href="#m5f3d81ff9f" x="329.679091" y="186.010701" style="stroke: #ffffff"/>
     <use xlink:href="#m5f3d81ff9f" x="141.324547" y="161.199746" style="stroke: #ffffff"/>
     <use xlink:href="#m5f3d81ff9f" x="184.531778" y="167.272127" style="stroke: #ffffff"/>
     <use xlink:href="#m5f3d81ff9f" x="290.430706" y="182.15525" style="stroke: #ffffff"/>
     <use xlink:href="#m5f3d81ff9f" x="142.6784" y="159.721969" style="stroke: #ffffff"/>
     <use xlink:href="#m5f3d81ff9f" x="195.769048" y="168.130702" style="stroke: #ffffff"/>
     <use xlink:href="#m5f3d81ff9f" x="290.82956" y="183.186808" style="stroke: #ffffff"/>
     <use xlink:href="#m5f3d81ff9f" x="332.561022" y="189.796422" style="stroke: #ffffff"/>
     <use xlink:href="#m5f3d81ff9f" x="141.847468" y="157.898156" style="stroke: #ffffff"/>
     <use xlink:href="#m5f3d81ff9f" x="182.921405" y="165.140599" style="stroke: #ffffff"/>
     <use xlink:href="#m5f3d81ff9f" x="293.862184" y="184.702452" style="stroke: #ffffff"/>
     <use xlink:href="#m5f3d81ff9f" x="139.939803" y="155.824688" style="stroke: #ffffff"/>
     <use xlink:href="#m5f3d81ff9f" x="182.143457" y="164.028248" style="stroke: #ffffff"/>
     <use xlink:href="#m5f3d81ff9f" x="288.877534" y="184.775251" style="stroke: #ffffff"/>
     <use xlink:href="#m5f3d81ff9f" x="142.485294" y="154.616827" style="stroke: #ffffff"/>
     <use xlink:href="#m5f3d81ff9f" x="184.224366" y="163.48874" style="stroke: #ffffff"/>
     <use xlink:href="#m5f3d81ff9f" x="293.993868" y="186.820968" style="stroke: #ffffff"/>
     <use xlink:href="#m5f3d81ff9f" x="329.983603" y="194.470822" style="stroke: #ffffff"/>
     <use xlink:href="#m5f3d81ff9f" x="145.026771" y="153.488236" style="stroke: #ffffff"/>
     <use xlink:href="#m5f3d81ff9f" x="196.313691" y="165.328755" style="stroke: #ffffff"/>
     <use xlink:href="#m5f3d81ff9f" x="289.559431" y="186.85623" style="stroke: #ffffff"/>
     <use xlink:href="#m5f3d81ff9f" x="330.852514" y="196.389489" style="stroke: #ffffff"/>
     <use xlink:href="#m5f3d81ff9f" x="143.237248" y="151.359756" style="stroke: #ffffff"/>
     <use xlink:href="#m5f3d81ff9f" x="188.347097" y="162.606904" style="stroke: #ffffff"/>
     <use xlink:href="#m5f3d81ff9f" x="291.447727" y="188.312778" style="stroke: #ffffff"/>
     <use xlink:href="#m5f3d81ff9f" x="327.168266" y="197.218909" style="stroke: #ffffff"/>
     <use xlink:href="#m5f3d81ff9f" x="145.816564" y="150.320549" style="stroke: #ffffff"/>
     <use xlink:href="#m5f3d81ff9f" x="186.724918" y="161.28191" style="stroke: #ffffff"/>
     <use xlink:href="#m5f3d81ff9f" x="289.096653" y="188.712333" style="stroke: #ffffff"/>
     <use xlink:href="#m5f3d81ff9f" x="146.252802" y="148.747526" style="stroke: #ffffff"/>
     <use xlink:href="#m5f3d81ff9f" x="188.792263" y="160.94552" style="stroke: #ffffff"/>
     <use xlink:href="#m5f3d81ff9f" x="288.313378" y="189.48274" style="stroke: #ffffff"/>
     <use xlink:href="#m5f3d81ff9f" x="329.174603" y="201.199508" style="stroke: #ffffff"/>
     <use xlink:href="#m5f3d81ff9f" x="145.648758" y="146.855936" style="stroke: #ffffff"/>
     <use xlink:href="#m5f3d81ff9f" x="186.302475" y="159.285025" style="stroke: #ffffff"/>
     <use xlink:href="#m5f3d81ff9f" x="288.569379" y="190.551155" style="stroke: #ffffff"/>
     <use xlink:href="#m5f3d81ff9f" x="327.078281" y="202.324508" style="stroke: #ffffff"/>
     <use xlink:href="#m5f3d81ff9f" x="147.207296" y="145.625515" style="stroke: #ffffff"/>
     <use xlink:href="#m5f3d81ff9f" x="187.485914" y="158.712831" style="stroke: #ffffff"/>
     <use xlink:href="#m5f3d81ff9f" x="287.759694" y="191.293757" style="stroke: #ffffff"/>
     <use xlink:href="#m5f3d81ff9f" x="329.780742" y="204.947223" style="stroke: #ffffff"/>
     <use xlink:href="#m5f3d81ff9f" x="144.54662" y="142.982984" style="stroke: #ffffff"/>
     <use xlink:href="#m5f3d81ff9f" x="184.130425" y="156.612781" style="stroke: #ffffff"/>
     <use xlink:href="#m5f3d81ff9f" x="287.978253" y="192.370455" style="stroke: #ffffff"/>
     <use xlink:href="#m5f3d81ff9f" x="148.270166" y="142.538717" style="stroke: #ffffff"/>
     <use xlink:href="#m5f3d81ff9f" x="188.067506" y="157.023764" style="stroke: #ffffff"/>
     <use xlink:href="#m5f3d81ff9f" x="286.625471" y="192.895929" style="stroke: #ffffff"/>
     <use xlink:href="#m5f3d81ff9f" x="146.753379" y="140.208014" style="stroke: #ffffff"/>
     <use xlink:href="#m5f3d81ff9f" x="287.323994" y="194.168017" style="stroke: #ffffff"/>
     <use xlink:href="#m5f3d81ff9f" x="148.40496" y="139.072662" style="stroke: #ffffff"/>
     <use xlink:href="#m5f3d81ff9f" x="186.930333" y="154.637923" style="stroke: #ffffff"/>
     <use xlink:href="#m5f3d81ff9f" x="287.985908" y="195.467026" style="stroke: #ffffff"/>
     <use xlink:href="#m5f3d81ff9f" x="150.064806" y="137.982758" style="stroke: #ffffff"/>
     <use xlink:href="#m5f3d81ff9f" x="189.926746" y="154.903148" style="stroke: #ffffff"/>
     <use xlink:href="#m5f3d81ff9f" x="286.10211" y="195.727168" style="stroke: #ffffff"/>
     <use xlink:href="#m5f3d81ff9f" x="326.003734" y="212.664402" style="stroke: #ffffff"/>
     <use xlink:href="#m5f3d81ff9f" x="147.644566" y="135.11839" style="stroke: #ffffff"/>
     <use xlink:href="#m5f3d81ff9f" x="185.889828" y="152.146277" style="stroke: #ffffff"/>
     <use xlink:href="#m5f3d81ff9f" x="285.724527" y="196.595549" style="stroke: #ffffff"/>
     <use xlink:href="#m5f3d81ff9f" x="323.400459" y="213.369955" style="stroke: #ffffff"/>
     <use xlink:href="#m5f3d81ff9f" x="151.392663" y="135.000342" style="stroke: #ffffff"/>
     <use xlink:href="#m5f3d81ff9f" x="191.500207" y="153.702796" style="stroke: #ffffff"/>
     <use xlink:href="#m5f3d81ff9f" x="285.829342" y="197.689195" style="stroke: #ffffff"/>
     <use xlink:href="#m5f3d81ff9f" x="324.997306" y="215.953516" style="stroke: #ffffff"/>
     <use xlink:href="#m5f3d81ff9f" x="151.091966" y="133.037548" style="stroke: #ffffff"/>
     <use xlink:href="#m5f3d81ff9f" x="189.300831" y="151.673256" style="stroke: #ffffff"/>
     <use xlink:href="#m5f3d81ff9f" x="286.88715" y="199.269284" style="stroke: #ffffff"/>
     <use xlink:href="#m5f3d81ff9f" x="323.130043" y="216.946124" style="stroke: #ffffff"/>
     <use xlink:href="#m5f3d81ff9f" x="150.830573" y="131.050485" style="stroke: #ffffff"/>
     <use xlink:href="#m5f3d81ff9f" x="290.257906" y="202.09226" style="stroke: #ffffff"/>
     <use xlink:href="#m5f3d81ff9f" x="152.591783" y="130.093991" style="stroke: #ffffff"/>
     <use xlink:href="#m5f3d81ff9f" x="201.662544" y="156.185378" style="stroke: #ffffff"/>
     <use xlink:href="#m5f3d81ff9f" x="285.032052" y="200.513731" style="stroke: #ffffff"/>
     <use xlink:href="#m5f3d81ff9f" x="321.967775" y="220.152803" style="stroke: #ffffff"/>
     <use xlink:href="#m5f3d81ff9f" x="151.416168" y="127.553727" style="stroke: #ffffff"/>
     <use xlink:href="#m5f3d81ff9f" x="317.820008" y="219.792881" style="stroke: #ffffff"/>
     <use xlink:href="#m5f3d81ff9f" x="154.193415" y="127.20457" style="stroke: #ffffff"/>
     <use xlink:href="#m5f3d81ff9f" x="190.177596" y="147.980047" style="stroke: #ffffff"/>
     <use xlink:href="#m5f3d81ff9f" x="155.988793" y="126.356279" style="stroke: #ffffff"/>
     <use xlink:href="#m5f3d81ff9f" x="191.471066" y="147.67618" style="stroke: #ffffff"/>
     <use xlink:href="#m5f3d81ff9f" x="282.193512" y="202.187724" style="stroke: #ffffff"/>
     <use xlink:href="#m5f3d81ff9f" x="318.741066" y="224.147711" style="stroke: #ffffff"/>
     <use xlink:href="#m5f3d81ff9f" x="153.99075" y="123.182954" style="stroke: #ffffff"/>
     <use xlink:href="#m5f3d81ff9f" x="189.493987" y="145.367839" style="stroke: #ffffff"/>
     <use xlink:href="#m5f3d81ff9f" x="314.61047" y="223.549295" style="stroke: #ffffff"/>
     <use xlink:href="#m5f3d81ff9f" x="156.782464" y="122.979626" style="stroke: #ffffff"/>
     <use xlink:href="#m5f3d81ff9f" x="194.036952" y="147.172973" style="stroke: #ffffff"/>
     <use xlink:href="#m5f3d81ff9f" x="281.66218" y="204.077461" style="stroke: #ffffff"/>
     <use xlink:href="#m5f3d81ff9f" x="318.016489" y="227.686225" style="stroke: #ffffff"/>
     <use xlink:href="#m5f3d81ff9f" x="157.694197" y="121.602148" style="stroke: #ffffff"/>
     <use xlink:href="#m5f3d81ff9f" x="193.730717" y="145.909087" style="stroke: #ffffff"/>
     <use xlink:href="#m5f3d81ff9f" x="283.398797" y="206.390971" style="stroke: #ffffff"/>
     <use xlink:href="#m5f3d81ff9f" x="316.030997" y="228.401668" style="stroke: #ffffff"/>
     <use xlink:href="#m5f3d81ff9f" x="156.790552" y="118.952914" style="stroke: #ffffff"/>
     <use xlink:href="#m5f3d81ff9f" x="280.6032" y="205.647464" style="stroke: #ffffff"/>
     <use xlink:href="#m5f3d81ff9f" x="160.492311" y="119.552206" style="stroke: #ffffff"/>
     <use xlink:href="#m5f3d81ff9f" x="203.075711" y="150.490857" style="stroke: #ffffff"/>
     <use xlink:href="#m5f3d81ff9f" x="280.053322" y="206.418365" style="stroke: #ffffff"/>
     <use xlink:href="#m5f3d81ff9f" x="160.571657" y="117.568098" style="stroke: #ffffff"/>
     <use xlink:href="#m5f3d81ff9f" x="193.755724" y="142.574086" style="stroke: #ffffff"/>
     <use xlink:href="#m5f3d81ff9f" x="277.72067" y="205.846211" style="stroke: #ffffff"/>
     <use xlink:href="#m5f3d81ff9f" x="162.457033" y="116.944931" style="stroke: #ffffff"/>
     <use xlink:href="#m5f3d81ff9f" x="196.581391" y="143.605802" style="stroke: #ffffff"/>
     <use xlink:href="#m5f3d81ff9f" x="278.479512" y="207.591627" style="stroke: #ffffff"/>
     <use xlink:href="#m5f3d81ff9f" x="313.401698" y="234.875828" style="stroke: #ffffff"/>
     <use xlink:href="#m5f3d81ff9f" x="163.473221" y="115.667407" style="stroke: #ffffff"/>
     <use xlink:href="#m5f3d81ff9f" x="197.127086" y="142.919769" style="stroke: #ffffff"/>
     <use xlink:href="#m5f3d81ff9f" x="278.324155" y="208.671859" style="stroke: #ffffff"/>
     <use xlink:href="#m5f3d81ff9f" x="311.359005" y="235.422953" style="stroke: #ffffff"/>
     <use xlink:href="#m5f3d81ff9f" x="162.797873" y="112.969867" style="stroke: #ffffff"/>
     <use xlink:href="#m5f3d81ff9f" x="194.747724" y="139.778975" style="stroke: #ffffff"/>
     <use xlink:href="#m5f3d81ff9f" x="163.883384" y="111.698897" style="stroke: #ffffff"/>
     <use xlink:href="#m5f3d81ff9f" x="196.088011" y="139.693951" style="stroke: #ffffff"/>
     <use xlink:href="#m5f3d81ff9f" x="277.521146" y="210.482696" style="stroke: #ffffff"/>
     <use xlink:href="#m5f3d81ff9f" x="164.990911" y="110.447065" style="stroke: #ffffff"/>
     <use xlink:href="#m5f3d81ff9f" x="197.415697" y="139.642473" style="stroke: #ffffff"/>
     <use xlink:href="#m5f3d81ff9f" x="277.293826" y="211.565063" style="stroke: #ffffff"/>
     <use xlink:href="#m5f3d81ff9f" x="308.068952" y="239.275111" style="stroke: #ffffff"/>
     <use xlink:href="#m5f3d81ff9f" x="164.47189" y="107.677756" style="stroke: #ffffff"/>
     <use xlink:href="#m5f3d81ff9f" x="195.915395" y="136.999298" style="stroke: #ffffff"/>
     <use xlink:href="#m5f3d81ff9f" x="303.183963" y="237.028857" style="stroke: #ffffff"/>
     <use xlink:href="#m5f3d81ff9f" x="167.270658" y="108.002336" style="stroke: #ffffff"/>
     <use xlink:href="#m5f3d81ff9f" x="197.272572" y="136.974847" style="stroke: #ffffff"/>
     <use xlink:href="#m5f3d81ff9f" x="303.937205" y="239.979686" style="stroke: #ffffff"/>
     <use xlink:href="#m5f3d81ff9f" x="167.646865" y="106.014865" style="stroke: #ffffff"/>
     <use xlink:href="#m5f3d81ff9f" x="274.912319" y="213.280319" style="stroke: #ffffff"/>
     <use xlink:href="#m5f3d81ff9f" x="169.634336" y="105.638658" style="stroke: #ffffff"/>
     <use xlink:href="#m5f3d81ff9f" x="198.606847" y="135.640572" style="stroke: #ffffff"/>
     <use xlink:href="#m5f3d81ff9f" x="273.082032" y="212.761883" style="stroke: #ffffff"/>
     <use xlink:href="#m5f3d81ff9f" x="171.610997" y="105.307669" style="stroke: #ffffff"/>
     <use xlink:href="#m5f3d81ff9f" x="201.256031" y="137.098076" style="stroke: #ffffff"/>
     <use xlink:href="#m5f3d81ff9f" x="273.161909" y="214.20769" style="stroke: #ffffff"/>
     <use xlink:href="#m5f3d81ff9f" x="301.577063" y="244.679212" style="stroke: #ffffff"/>
     <use xlink:href="#m5f3d81ff9f" x="172.079065" y="103.358911" style="stroke: #ffffff"/>
     <use xlink:href="#m5f3d81ff9f" x="201.91459" y="136.494619" style="stroke: #ffffff"/>
     <use xlink:href="#m5f3d81ff9f" x="272.095145" y="214.438022" style="stroke: #ffffff"/>
     <use xlink:href="#m5f3d81ff9f" x="300.342792" y="245.810212" style="stroke: #ffffff"/>
     <use xlink:href="#m5f3d81ff9f" x="174.798532" y="103.939705" style="stroke: #ffffff"/>
     <use xlink:href="#m5f3d81ff9f" x="202.583579" y="135.902746" style="stroke: #ffffff"/>
     <use xlink:href="#m5f3d81ff9f" x="272.114696" y="215.889146" style="stroke: #ffffff"/>
     <use xlink:href="#m5f3d81ff9f" x="300.74158" y="248.82061" style="stroke: #ffffff"/>
    </g>
   </g>
   <g id="patch_3">
    <path d="M 236.16 41.472 
C 218.687246 41.472 201.384393 44.913752 185.241673 51.600285 
C 169.098954 58.286818 154.430303 68.088097 142.0752 80.4432 
C 129.720097 92.798303 119.918818 107.466954 113.232285 123.609673 
C 106.545752 139.752393 103.104 157.055246 103.104 174.528 
C 103.104 192.000754 106.545752 209.303607 113.232285 225.446327 
C 119.918818 241.589046 129.720097 256.257697 142.0752 268.6128 
C 154.430303 280.967903 169.098954 290.769182 185.241673 297.455715 
C 201.384393 304.142248 218.687246 307.584 236.16 307.584 
C 253.632754 307.584 270.935607 304.142248 287.078327 297.455715 
C 303.221046 290.769182 317.889697 280.967903 330.2448 268.6128 
C 342.599903 256.257697 352.401182 241.589046 359.087715 225.446327 
C 365.774248 209.303607 369.216 192.000754 369.216 174.528 
C 369.216 157.055246 365.774248 139.752393 359.087715 123.609673 
C 352.401182 107.466954 342.599903 92.798303 330.2448 80.4432 
C 317.889697 68.088097 303.221046 58.286818 287.078327 51.600285 
C 270.935607 44.913752 253.632754 41.472 236.16 41.472 
" style="fill: none; stroke: #ffffff; stroke-width: 1.25; stroke-linejoin: miter; stroke-linecap: square"/>
   </g>
  </g>
 </g>
 <defs>
  <clipPath id="p523971cba8">
   <path d="M 369.216 174.528 
C 369.216 157.055246 365.774248 139.752393 359.087715 123.609673 
C 352.401182 107.466954 342.599903 92.798303 330.2448 80.4432 
C 317.889697 68.088097 303.221046 58.286818 287.078327 51.600285 
C 270.935607 44.913752 253.632754 41.472 236.16 41.472 
C 218.687246 41.472 201.384393 44.913752 185.241673 51.600285 
C 169.098954 58.286818 154.430303 68.088097 142.0752 80.4432 
C 129.720097 92.798303 119.918818 107.466954 113.232285 123.609673 
C 106.545752 139.752393 103.104 157.055246 103.104 174.528 
C 103.104 192.000754 106.545752 209.303607 113.232285 225.446327 
C 119.918818 241.589046 129.720097 256.257697 142.0752 268.6128 
C 154.430303 280.967903 169.098954 290.769182 185.241673 297.455715 
C 201.384393 304.142248 218.687246 307.584 236.16 307.584 
C 253.632754 307.584 270.935607 304.142248 287.078327 297.455715 
C 303.221046 290.769182 317.889697 280.967903 330.2448 268.6128 
C 342.599903 256.257697 352.401182 241.589046 359.087715 225.446327 
C 365.774248 209.303607 369.216 192.000754 369.216 174.528 
M 236.16 174.528 
C 236.16 174.528 236.16 174.528 236.16 174.528 
C 236.16 174.528 236.16 174.528 236.16 174.528 
C 236.16 174.528 236.16 174.528 236.16 174.528 
C 236.16 174.528 236.16 174.528 236.16 174.528 
C 236.16 174.528 236.16 174.528 236.16 174.528 
C 236.16 174.528 236.16 174.528 236.16 174.528 
C 236.16 174.528 236.16 174.528 236.16 174.528 
C 236.16 174.528 236.16 174.528 236.16 174.528 
C 236.16 174.528 236.16 174.528 236.16 174.528 
C 236.16 174.528 236.16 174.528 236.16 174.528 
C 236.16 174.528 236.16 174.528 236.16 174.528 
C 236.16 174.528 236.16 174.528 236.16 174.528 
C 236.16 174.528 236.16 174.528 236.16 174.528 
C 236.16 174.528 236.16 174.528 236.16 174.528 
C 236.16 174.528 236.16 174.528 236.16 174.528 
C 236.16 174.528 236.16 174.528 236.16 174.528 
z
"/>
  </clipPath>
 </defs>
</svg>
