<?xml version="1.0" encoding="utf-8" standalone="no"?>
<!DOCTYPE svg PUBLIC "-//W3C//DTD SVG 1.1//EN"
  "http://www.w3.org/Graphics/SVG/1.1/DTD/svg11.dtd">
<svg xmlns:xlink="http://www.w3.org/1999/xlink" width="345.6pt" height="360pt" viewBox="0 0 345.6 360" xmlns="http://www.w3.org/2000/svg" version="1.1">
 <metadata>
  <rdf:RDF xmlns:dc="http://purl.org/dc/elements/1.1/" xmlns:cc="http://creativecommons.org/ns#" xmlns:rdf="http://www.w3.org/1999/02/22-rdf-syntax-ns#">
   <cc:Work>
    <dc:type rdf:resource="http://purl.org/dc/dcmitype/StillImage"/>
    <dc:date>2024-07-16T15:32:59.140178</dc:date>
    <dc:format>image/svg+xml</dc:format>
    <dc:creator>
     <cc:Agent>
      <dc:title>Matplotlib v3.9.1, https://matplotlib.org/</dc:title>
     </cc:Agent>
    </dc:creator>
   </cc:Work>
  </rdf:RDF>
 </metadata>
 <defs>
  <style type="text/css">*{stroke-linejoin: round; stroke-linecap: butt}</style>
 </defs>
 <g id="figure_1">
  <g id="patch_1">
   <path d="M 0 360 
L 345.6 360 
L 345.6 0 
L 0 0 
z
" style="fill: #ffffff"/>
  </g>
  <g id="axes_1">
   <g id="patch_2">
    <path d="M 43.2 320.4 
L 311.04 320.4 
L 311.04 43.2 
L 43.2 43.2 
z
" style="fill: #eaeaf2"/>
   </g>
   <g id="matplotlib.axis_1">
    <g id="xtick_1">
     <g id="line2d_1">
      <path d="M 63.384115 320.4 
L 63.384115 43.2 
" clip-path="url(#p31d89f3248)" style="fill: none; stroke: #ffffff; stroke-linecap: round"/>
     </g>
     <g id="text_1">
      <!-- 0 -->
      <g style="fill: #262626" transform="translate(60.325599 337.773594) scale(0.11 -0.11)">
       <defs>
        <path id="ArialMT-30" d="M 266 2259 
Q 266 3072 433 3567 
Q 600 4063 929 4331 
Q 1259 4600 1759 4600 
Q 2128 4600 2406 4451 
Q 2684 4303 2865 4023 
Q 3047 3744 3150 3342 
Q 3253 2941 3253 2259 
Q 3253 1453 3087 958 
Q 2922 463 2592 192 
Q 2263 -78 1759 -78 
Q 1097 -78 719 397 
Q 266 969 266 2259 
z
M 844 2259 
Q 844 1131 1108 757 
Q 1372 384 1759 384 
Q 2147 384 2411 759 
Q 2675 1134 2675 2259 
Q 2675 3391 2411 3762 
Q 2147 4134 1753 4134 
Q 1366 4134 1134 3806 
Q 844 3388 844 2259 
z
" transform="scale(0.015625)"/>
       </defs>
       <use xlink:href="#ArialMT-30"/>
      </g>
     </g>
    </g>
    <g id="xtick_2">
     <g id="line2d_2">
      <path d="M 127.46067 320.4 
L 127.46067 43.2 
" clip-path="url(#p31d89f3248)" style="fill: none; stroke: #ffffff; stroke-linecap: round"/>
     </g>
     <g id="text_2">
      <!-- 20 -->
      <g style="fill: #262626" transform="translate(121.343639 337.773594) scale(0.11 -0.11)">
       <defs>
        <path id="ArialMT-32" d="M 3222 541 
L 3222 0 
L 194 0 
Q 188 203 259 391 
Q 375 700 629 1000 
Q 884 1300 1366 1694 
Q 2113 2306 2375 2664 
Q 2638 3022 2638 3341 
Q 2638 3675 2398 3904 
Q 2159 4134 1775 4134 
Q 1369 4134 1125 3890 
Q 881 3647 878 3216 
L 300 3275 
Q 359 3922 746 4261 
Q 1134 4600 1788 4600 
Q 2447 4600 2831 4234 
Q 3216 3869 3216 3328 
Q 3216 3053 3103 2787 
Q 2991 2522 2730 2228 
Q 2469 1934 1863 1422 
Q 1356 997 1212 845 
Q 1069 694 975 541 
L 3222 541 
z
" transform="scale(0.015625)"/>
       </defs>
       <use xlink:href="#ArialMT-32"/>
       <use xlink:href="#ArialMT-30" x="55.615234"/>
      </g>
     </g>
    </g>
    <g id="xtick_3">
     <g id="line2d_3">
      <path d="M 191.537225 320.4 
L 191.537225 43.2 
" clip-path="url(#p31d89f3248)" style="fill: none; stroke: #ffffff; stroke-linecap: round"/>
     </g>
     <g id="text_3">
      <!-- 40 -->
      <g style="fill: #262626" transform="translate(185.420194 337.773594) scale(0.11 -0.11)">
       <defs>
        <path id="ArialMT-34" d="M 2069 0 
L 2069 1097 
L 81 1097 
L 81 1613 
L 2172 4581 
L 2631 4581 
L 2631 1613 
L 3250 1613 
L 3250 1097 
L 2631 1097 
L 2631 0 
L 2069 0 
z
M 2069 1613 
L 2069 3678 
L 634 1613 
L 2069 1613 
z
" transform="scale(0.015625)"/>
       </defs>
       <use xlink:href="#ArialMT-34"/>
       <use xlink:href="#ArialMT-30" x="55.615234"/>
      </g>
     </g>
    </g>
    <g id="xtick_4">
     <g id="line2d_4">
      <path d="M 255.61378 320.4 
L 255.61378 43.2 
" clip-path="url(#p31d89f3248)" style="fill: none; stroke: #ffffff; stroke-linecap: round"/>
     </g>
     <g id="text_4">
      <!-- 60 -->
      <g style="fill: #262626" transform="translate(249.496749 337.773594) scale(0.11 -0.11)">
       <defs>
        <path id="ArialMT-36" d="M 3184 3459 
L 2625 3416 
Q 2550 3747 2413 3897 
Q 2184 4138 1850 4138 
Q 1581 4138 1378 3988 
Q 1113 3794 959 3422 
Q 806 3050 800 2363 
Q 1003 2672 1297 2822 
Q 1591 2972 1913 2972 
Q 2475 2972 2870 2558 
Q 3266 2144 3266 1488 
Q 3266 1056 3080 686 
Q 2894 316 2569 119 
Q 2244 -78 1831 -78 
Q 1128 -78 684 439 
Q 241 956 241 2144 
Q 241 3472 731 4075 
Q 1159 4600 1884 4600 
Q 2425 4600 2770 4297 
Q 3116 3994 3184 3459 
z
M 888 1484 
Q 888 1194 1011 928 
Q 1134 663 1356 523 
Q 1578 384 1822 384 
Q 2178 384 2434 671 
Q 2691 959 2691 1453 
Q 2691 1928 2437 2201 
Q 2184 2475 1800 2475 
Q 1419 2475 1153 2201 
Q 888 1928 888 1484 
z
" transform="scale(0.015625)"/>
       </defs>
       <use xlink:href="#ArialMT-36"/>
       <use xlink:href="#ArialMT-30" x="55.615234"/>
      </g>
     </g>
    </g>
    <g id="text_5">
     <!-- angle (deg) -->
     <g style="fill: #262626" transform="translate(146.768437 352.695469) scale(0.12 -0.12)">
      <defs>
       <path id="ArialMT-61" d="M 2588 409 
Q 2275 144 1986 34 
Q 1697 -75 1366 -75 
Q 819 -75 525 192 
Q 231 459 231 875 
Q 231 1119 342 1320 
Q 453 1522 633 1644 
Q 813 1766 1038 1828 
Q 1203 1872 1538 1913 
Q 2219 1994 2541 2106 
Q 2544 2222 2544 2253 
Q 2544 2597 2384 2738 
Q 2169 2928 1744 2928 
Q 1347 2928 1158 2789 
Q 969 2650 878 2297 
L 328 2372 
Q 403 2725 575 2942 
Q 747 3159 1072 3276 
Q 1397 3394 1825 3394 
Q 2250 3394 2515 3294 
Q 2781 3194 2906 3042 
Q 3031 2891 3081 2659 
Q 3109 2516 3109 2141 
L 3109 1391 
Q 3109 606 3145 398 
Q 3181 191 3288 0 
L 2700 0 
Q 2613 175 2588 409 
z
M 2541 1666 
Q 2234 1541 1622 1453 
Q 1275 1403 1131 1340 
Q 988 1278 909 1158 
Q 831 1038 831 891 
Q 831 666 1001 516 
Q 1172 366 1500 366 
Q 1825 366 2078 508 
Q 2331 650 2450 897 
Q 2541 1088 2541 1459 
L 2541 1666 
z
" transform="scale(0.015625)"/>
       <path id="ArialMT-6e" d="M 422 0 
L 422 3319 
L 928 3319 
L 928 2847 
Q 1294 3394 1984 3394 
Q 2284 3394 2536 3286 
Q 2788 3178 2913 3003 
Q 3038 2828 3088 2588 
Q 3119 2431 3119 2041 
L 3119 0 
L 2556 0 
L 2556 2019 
Q 2556 2363 2490 2533 
Q 2425 2703 2258 2804 
Q 2091 2906 1866 2906 
Q 1506 2906 1245 2678 
Q 984 2450 984 1813 
L 984 0 
L 422 0 
z
" transform="scale(0.015625)"/>
       <path id="ArialMT-67" d="M 319 -275 
L 866 -356 
Q 900 -609 1056 -725 
Q 1266 -881 1628 -881 
Q 2019 -881 2231 -725 
Q 2444 -569 2519 -288 
Q 2563 -116 2559 434 
Q 2191 0 1641 0 
Q 956 0 581 494 
Q 206 988 206 1678 
Q 206 2153 378 2554 
Q 550 2956 876 3175 
Q 1203 3394 1644 3394 
Q 2231 3394 2613 2919 
L 2613 3319 
L 3131 3319 
L 3131 450 
Q 3131 -325 2973 -648 
Q 2816 -972 2473 -1159 
Q 2131 -1347 1631 -1347 
Q 1038 -1347 672 -1080 
Q 306 -813 319 -275 
z
M 784 1719 
Q 784 1066 1043 766 
Q 1303 466 1694 466 
Q 2081 466 2343 764 
Q 2606 1063 2606 1700 
Q 2606 2309 2336 2618 
Q 2066 2928 1684 2928 
Q 1309 2928 1046 2623 
Q 784 2319 784 1719 
z
" transform="scale(0.015625)"/>
       <path id="ArialMT-6c" d="M 409 0 
L 409 4581 
L 972 4581 
L 972 0 
L 409 0 
z
" transform="scale(0.015625)"/>
       <path id="ArialMT-65" d="M 2694 1069 
L 3275 997 
Q 3138 488 2766 206 
Q 2394 -75 1816 -75 
Q 1088 -75 661 373 
Q 234 822 234 1631 
Q 234 2469 665 2931 
Q 1097 3394 1784 3394 
Q 2450 3394 2872 2941 
Q 3294 2488 3294 1666 
Q 3294 1616 3291 1516 
L 816 1516 
Q 847 969 1125 678 
Q 1403 388 1819 388 
Q 2128 388 2347 550 
Q 2566 713 2694 1069 
z
M 847 1978 
L 2700 1978 
Q 2663 2397 2488 2606 
Q 2219 2931 1791 2931 
Q 1403 2931 1139 2672 
Q 875 2413 847 1978 
z
" transform="scale(0.015625)"/>
       <path id="ArialMT-20" transform="scale(0.015625)"/>
       <path id="ArialMT-28" d="M 1497 -1347 
Q 1031 -759 709 28 
Q 388 816 388 1659 
Q 388 2403 628 3084 
Q 909 3875 1497 4659 
L 1900 4659 
Q 1522 4009 1400 3731 
Q 1209 3300 1100 2831 
Q 966 2247 966 1656 
Q 966 153 1900 -1347 
L 1497 -1347 
z
" transform="scale(0.015625)"/>
       <path id="ArialMT-64" d="M 2575 0 
L 2575 419 
Q 2259 -75 1647 -75 
Q 1250 -75 917 144 
Q 584 363 401 755 
Q 219 1147 219 1656 
Q 219 2153 384 2558 
Q 550 2963 881 3178 
Q 1213 3394 1622 3394 
Q 1922 3394 2156 3267 
Q 2391 3141 2538 2938 
L 2538 4581 
L 3097 4581 
L 3097 0 
L 2575 0 
z
M 797 1656 
Q 797 1019 1065 703 
Q 1334 388 1700 388 
Q 2069 388 2326 689 
Q 2584 991 2584 1609 
Q 2584 2291 2321 2609 
Q 2059 2928 1675 2928 
Q 1300 2928 1048 2622 
Q 797 2316 797 1656 
z
" transform="scale(0.015625)"/>
       <path id="ArialMT-29" d="M 791 -1347 
L 388 -1347 
Q 1322 153 1322 1656 
Q 1322 2244 1188 2822 
Q 1081 3291 891 3722 
Q 769 4003 388 4659 
L 791 4659 
Q 1378 3875 1659 3084 
Q 1900 2403 1900 1659 
Q 1900 816 1576 28 
Q 1253 -759 791 -1347 
z
" transform="scale(0.015625)"/>
      </defs>
      <use xlink:href="#ArialMT-61"/>
      <use xlink:href="#ArialMT-6e" x="55.615234"/>
      <use xlink:href="#ArialMT-67" x="111.230469"/>
      <use xlink:href="#ArialMT-6c" x="166.845703"/>
      <use xlink:href="#ArialMT-65" x="189.0625"/>
      <use xlink:href="#ArialMT-20" x="244.677734"/>
      <use xlink:href="#ArialMT-28" x="272.460938"/>
      <use xlink:href="#ArialMT-64" x="305.761719"/>
      <use xlink:href="#ArialMT-65" x="361.376953"/>
      <use xlink:href="#ArialMT-67" x="416.992188"/>
      <use xlink:href="#ArialMT-29" x="472.607422"/>
     </g>
    </g>
   </g>
   <g id="matplotlib.axis_2">
    <g id="ytick_1">
     <g id="line2d_5">
      <path d="M 43.2 282.6 
L 311.04 282.6 
" clip-path="url(#p31d89f3248)" style="fill: none; stroke: #ffffff; stroke-linecap: round"/>
     </g>
     <g id="text_6">
      <!-- −0.04 -->
      <g style="fill: #262626" transform="translate(5.868281 286.536797) scale(0.11 -0.11)">
       <defs>
        <path id="ArialMT-2212" d="M 3381 1997 
L 356 1997 
L 356 2522 
L 3381 2522 
L 3381 1997 
z
" transform="scale(0.015625)"/>
        <path id="ArialMT-2e" d="M 581 0 
L 581 641 
L 1222 641 
L 1222 0 
L 581 0 
z
" transform="scale(0.015625)"/>
       </defs>
       <use xlink:href="#ArialMT-2212"/>
       <use xlink:href="#ArialMT-30" x="58.398438"/>
       <use xlink:href="#ArialMT-2e" x="114.013672"/>
       <use xlink:href="#ArialMT-30" x="141.796875"/>
       <use xlink:href="#ArialMT-34" x="197.412109"/>
      </g>
     </g>
    </g>
    <g id="ytick_2">
     <g id="line2d_6">
      <path d="M 43.2 232.2 
L 311.04 232.2 
" clip-path="url(#p31d89f3248)" style="fill: none; stroke: #ffffff; stroke-linecap: round"/>
     </g>
     <g id="text_7">
      <!-- −0.02 -->
      <g style="fill: #262626" transform="translate(5.868281 236.136797) scale(0.11 -0.11)">
       <use xlink:href="#ArialMT-2212"/>
       <use xlink:href="#ArialMT-30" x="58.398438"/>
       <use xlink:href="#ArialMT-2e" x="114.013672"/>
       <use xlink:href="#ArialMT-30" x="141.796875"/>
       <use xlink:href="#ArialMT-32" x="197.412109"/>
      </g>
     </g>
    </g>
    <g id="ytick_3">
     <g id="line2d_7">
      <path d="M 43.2 181.8 
L 311.04 181.8 
" clip-path="url(#p31d89f3248)" style="fill: none; stroke: #ffffff; stroke-linecap: round"/>
     </g>
     <g id="text_8">
      <!-- 0.00 -->
      <g style="fill: #262626" transform="translate(12.292969 185.736797) scale(0.11 -0.11)">
       <use xlink:href="#ArialMT-30"/>
       <use xlink:href="#ArialMT-2e" x="55.615234"/>
       <use xlink:href="#ArialMT-30" x="83.398438"/>
       <use xlink:href="#ArialMT-30" x="139.013672"/>
      </g>
     </g>
    </g>
    <g id="ytick_4">
     <g id="line2d_8">
      <path d="M 43.2 131.4 
L 311.04 131.4 
" clip-path="url(#p31d89f3248)" style="fill: none; stroke: #ffffff; stroke-linecap: round"/>
     </g>
     <g id="text_9">
      <!-- 0.02 -->
      <g style="fill: #262626" transform="translate(12.292969 135.336797) scale(0.11 -0.11)">
       <use xlink:href="#ArialMT-30"/>
       <use xlink:href="#ArialMT-2e" x="55.615234"/>
       <use xlink:href="#ArialMT-30" x="83.398438"/>
       <use xlink:href="#ArialMT-32" x="139.013672"/>
      </g>
     </g>
    </g>
    <g id="ytick_5">
     <g id="line2d_9">
      <path d="M 43.2 81 
L 311.04 81 
" clip-path="url(#p31d89f3248)" style="fill: none; stroke: #ffffff; stroke-linecap: round"/>
     </g>
     <g id="text_10">
      <!-- 0.04 -->
      <g style="fill: #262626" transform="translate(12.292969 84.936797) scale(0.11 -0.11)">
       <use xlink:href="#ArialMT-30"/>
       <use xlink:href="#ArialMT-2e" x="55.615234"/>
       <use xlink:href="#ArialMT-30" x="83.398438"/>
       <use xlink:href="#ArialMT-34" x="139.013672"/>
      </g>
     </g>
    </g>
    <g id="text_11">
     <!-- optical length (mm) -->
     <g style="fill: #262626" transform="translate(-0.657344 232.814062) rotate(-90) scale(0.12 -0.12)">
      <defs>
       <path id="ArialMT-6f" d="M 213 1659 
Q 213 2581 725 3025 
Q 1153 3394 1769 3394 
Q 2453 3394 2887 2945 
Q 3322 2497 3322 1706 
Q 3322 1066 3130 698 
Q 2938 331 2570 128 
Q 2203 -75 1769 -75 
Q 1072 -75 642 372 
Q 213 819 213 1659 
z
M 791 1659 
Q 791 1022 1069 705 
Q 1347 388 1769 388 
Q 2188 388 2466 706 
Q 2744 1025 2744 1678 
Q 2744 2294 2464 2611 
Q 2184 2928 1769 2928 
Q 1347 2928 1069 2612 
Q 791 2297 791 1659 
z
" transform="scale(0.015625)"/>
       <path id="ArialMT-70" d="M 422 -1272 
L 422 3319 
L 934 3319 
L 934 2888 
Q 1116 3141 1344 3267 
Q 1572 3394 1897 3394 
Q 2322 3394 2647 3175 
Q 2972 2956 3137 2557 
Q 3303 2159 3303 1684 
Q 3303 1175 3120 767 
Q 2938 359 2589 142 
Q 2241 -75 1856 -75 
Q 1575 -75 1351 44 
Q 1128 163 984 344 
L 984 -1272 
L 422 -1272 
z
M 931 1641 
Q 931 1000 1190 694 
Q 1450 388 1819 388 
Q 2194 388 2461 705 
Q 2728 1022 2728 1688 
Q 2728 2322 2467 2637 
Q 2206 2953 1844 2953 
Q 1484 2953 1207 2617 
Q 931 2281 931 1641 
z
" transform="scale(0.015625)"/>
       <path id="ArialMT-74" d="M 1650 503 
L 1731 6 
Q 1494 -44 1306 -44 
Q 1000 -44 831 53 
Q 663 150 594 308 
Q 525 466 525 972 
L 525 2881 
L 113 2881 
L 113 3319 
L 525 3319 
L 525 4141 
L 1084 4478 
L 1084 3319 
L 1650 3319 
L 1650 2881 
L 1084 2881 
L 1084 941 
Q 1084 700 1114 631 
Q 1144 563 1211 522 
Q 1278 481 1403 481 
Q 1497 481 1650 503 
z
" transform="scale(0.015625)"/>
       <path id="ArialMT-69" d="M 425 3934 
L 425 4581 
L 988 4581 
L 988 3934 
L 425 3934 
z
M 425 0 
L 425 3319 
L 988 3319 
L 988 0 
L 425 0 
z
" transform="scale(0.015625)"/>
       <path id="ArialMT-63" d="M 2588 1216 
L 3141 1144 
Q 3050 572 2676 248 
Q 2303 -75 1759 -75 
Q 1078 -75 664 370 
Q 250 816 250 1647 
Q 250 2184 428 2587 
Q 606 2991 970 3192 
Q 1334 3394 1763 3394 
Q 2303 3394 2647 3120 
Q 2991 2847 3088 2344 
L 2541 2259 
Q 2463 2594 2264 2762 
Q 2066 2931 1784 2931 
Q 1359 2931 1093 2626 
Q 828 2322 828 1663 
Q 828 994 1084 691 
Q 1341 388 1753 388 
Q 2084 388 2306 591 
Q 2528 794 2588 1216 
z
" transform="scale(0.015625)"/>
       <path id="ArialMT-68" d="M 422 0 
L 422 4581 
L 984 4581 
L 984 2938 
Q 1378 3394 1978 3394 
Q 2347 3394 2619 3248 
Q 2891 3103 3008 2847 
Q 3125 2591 3125 2103 
L 3125 0 
L 2563 0 
L 2563 2103 
Q 2563 2525 2380 2717 
Q 2197 2909 1863 2909 
Q 1613 2909 1392 2779 
Q 1172 2650 1078 2428 
Q 984 2206 984 1816 
L 984 0 
L 422 0 
z
" transform="scale(0.015625)"/>
       <path id="ArialMT-6d" d="M 422 0 
L 422 3319 
L 925 3319 
L 925 2853 
Q 1081 3097 1340 3245 
Q 1600 3394 1931 3394 
Q 2300 3394 2536 3241 
Q 2772 3088 2869 2813 
Q 3263 3394 3894 3394 
Q 4388 3394 4653 3120 
Q 4919 2847 4919 2278 
L 4919 0 
L 4359 0 
L 4359 2091 
Q 4359 2428 4304 2576 
Q 4250 2725 4106 2815 
Q 3963 2906 3769 2906 
Q 3419 2906 3187 2673 
Q 2956 2441 2956 1928 
L 2956 0 
L 2394 0 
L 2394 2156 
Q 2394 2531 2256 2718 
Q 2119 2906 1806 2906 
Q 1569 2906 1367 2781 
Q 1166 2656 1075 2415 
Q 984 2175 984 1722 
L 984 0 
L 422 0 
z
" transform="scale(0.015625)"/>
      </defs>
      <use xlink:href="#ArialMT-6f"/>
      <use xlink:href="#ArialMT-70" x="55.615234"/>
      <use xlink:href="#ArialMT-74" x="111.230469"/>
      <use xlink:href="#ArialMT-69" x="139.013672"/>
      <use xlink:href="#ArialMT-63" x="161.230469"/>
      <use xlink:href="#ArialMT-61" x="211.230469"/>
      <use xlink:href="#ArialMT-6c" x="266.845703"/>
      <use xlink:href="#ArialMT-20" x="289.0625"/>
      <use xlink:href="#ArialMT-6c" x="316.845703"/>
      <use xlink:href="#ArialMT-65" x="339.0625"/>
      <use xlink:href="#ArialMT-6e" x="394.677734"/>
      <use xlink:href="#ArialMT-67" x="450.292969"/>
      <use xlink:href="#ArialMT-74" x="505.908203"/>
      <use xlink:href="#ArialMT-68" x="533.691406"/>
      <use xlink:href="#ArialMT-20" x="589.306641"/>
      <use xlink:href="#ArialMT-28" x="617.089844"/>
      <use xlink:href="#ArialMT-6d" x="650.390625"/>
      <use xlink:href="#ArialMT-6d" x="733.691406"/>
      <use xlink:href="#ArialMT-29" x="816.992188"/>
     </g>
    </g>
   </g>
   <g id="patch_3">
    <path d="M 55.374545 181.8 
L 71.393684 181.8 
L 71.393684 181.8 
L 55.374545 181.8 
z
" clip-path="url(#p31d89f3248)" style="fill: #4c72b0; opacity: 0.6; stroke: #ffffff; stroke-linejoin: miter"/>
   </g>
   <g id="patch_4">
    <path d="M 58.578373 181.8 
L 74.597512 181.8 
L 74.597512 181.8 
L 58.578373 181.8 
z
" clip-path="url(#p31d89f3248)" style="fill: #4c72b0; opacity: 0.6; stroke: #ffffff; stroke-linejoin: miter"/>
   </g>
   <g id="patch_5">
    <path d="M 61.782201 181.8 
L 77.80134 181.8 
L 77.80134 181.8 
L 61.782201 181.8 
z
" clip-path="url(#p31d89f3248)" style="fill: #4c72b0; opacity: 0.6; stroke: #ffffff; stroke-linejoin: miter"/>
   </g>
   <g id="patch_6">
    <path d="M 64.986029 181.8 
L 81.005167 181.8 
L 81.005167 181.8 
L 64.986029 181.8 
z
" clip-path="url(#p31d89f3248)" style="fill: #4c72b0; opacity: 0.6; stroke: #ffffff; stroke-linejoin: miter"/>
   </g>
   <g id="patch_7">
    <path d="M 68.189856 181.8 
L 84.208995 181.8 
L 84.208995 181.8 
L 68.189856 181.8 
z
" clip-path="url(#p31d89f3248)" style="fill: #4c72b0; opacity: 0.6; stroke: #ffffff; stroke-linejoin: miter"/>
   </g>
   <g id="patch_8">
    <path d="M 71.393684 181.8 
L 87.412823 181.8 
L 87.412823 181.8 
L 71.393684 181.8 
z
" clip-path="url(#p31d89f3248)" style="fill: #4c72b0; opacity: 0.6; stroke: #ffffff; stroke-linejoin: miter"/>
   </g>
   <g id="patch_9">
    <path d="M 74.597512 181.8 
L 90.616651 181.8 
L 90.616651 181.8 
L 74.597512 181.8 
z
" clip-path="url(#p31d89f3248)" style="fill: #4c72b0; opacity: 0.6; stroke: #ffffff; stroke-linejoin: miter"/>
   </g>
   <g id="patch_10">
    <path d="M 77.80134 181.8 
L 93.820478 181.8 
L 93.820478 181.8 
L 77.80134 181.8 
z
" clip-path="url(#p31d89f3248)" style="fill: #4c72b0; opacity: 0.6; stroke: #ffffff; stroke-linejoin: miter"/>
   </g>
   <g id="patch_11">
    <path d="M 81.005167 181.8 
L 97.024306 181.8 
L 97.024306 181.8 
L 81.005167 181.8 
z
" clip-path="url(#p31d89f3248)" style="fill: #4c72b0; opacity: 0.6; stroke: #ffffff; stroke-linejoin: miter"/>
   </g>
   <g id="patch_12">
    <path d="M 84.208995 181.8 
L 100.228134 181.8 
L 100.228134 181.8 
L 84.208995 181.8 
z
" clip-path="url(#p31d89f3248)" style="fill: #4c72b0; opacity: 0.6; stroke: #ffffff; stroke-linejoin: miter"/>
   </g>
   <g id="patch_13">
    <path d="M 87.412823 181.8 
L 103.431962 181.8 
L 103.431962 181.8 
L 87.412823 181.8 
z
" clip-path="url(#p31d89f3248)" style="fill: #4c72b0; opacity: 0.6; stroke: #ffffff; stroke-linejoin: miter"/>
   </g>
   <g id="patch_14">
    <path d="M 90.616651 181.8 
L 106.635789 181.8 
L 106.635789 181.8 
L 90.616651 181.8 
z
" clip-path="url(#p31d89f3248)" style="fill: #4c72b0; opacity: 0.6; stroke: #ffffff; stroke-linejoin: miter"/>
   </g>
   <g id="patch_15">
    <path d="M 93.820478 181.8 
L 109.839617 181.8 
L 109.839617 181.8 
L 93.820478 181.8 
z
" clip-path="url(#p31d89f3248)" style="fill: #4c72b0; opacity: 0.6; stroke: #ffffff; stroke-linejoin: miter"/>
   </g>
   <g id="patch_16">
    <path d="M 97.024306 181.8 
L 113.043445 181.8 
L 113.043445 181.8 
L 97.024306 181.8 
z
" clip-path="url(#p31d89f3248)" style="fill: #4c72b0; opacity: 0.6; stroke: #ffffff; stroke-linejoin: miter"/>
   </g>
   <g id="patch_17">
    <path d="M 100.228134 181.8 
L 116.247273 181.8 
L 116.247273 181.8 
L 100.228134 181.8 
z
" clip-path="url(#p31d89f3248)" style="fill: #4c72b0; opacity: 0.6; stroke: #ffffff; stroke-linejoin: miter"/>
   </g>
   <g id="patch_18">
    <path d="M 103.431962 181.8 
L 119.4511 181.8 
L 119.4511 181.8 
L 103.431962 181.8 
z
" clip-path="url(#p31d89f3248)" style="fill: #4c72b0; opacity: 0.6; stroke: #ffffff; stroke-linejoin: miter"/>
   </g>
   <g id="patch_19">
    <path d="M 106.635789 181.8 
L 122.654928 181.8 
L 122.654928 181.8 
L 106.635789 181.8 
z
" clip-path="url(#p31d89f3248)" style="fill: #4c72b0; opacity: 0.6; stroke: #ffffff; stroke-linejoin: miter"/>
   </g>
   <g id="patch_20">
    <path d="M 109.839617 181.8 
L 125.858756 181.8 
L 125.858756 181.8 
L 109.839617 181.8 
z
" clip-path="url(#p31d89f3248)" style="fill: #4c72b0; opacity: 0.6; stroke: #ffffff; stroke-linejoin: miter"/>
   </g>
   <g id="patch_21">
    <path d="M 113.043445 181.8 
L 129.062584 181.8 
L 129.062584 181.8 
L 113.043445 181.8 
z
" clip-path="url(#p31d89f3248)" style="fill: #4c72b0; opacity: 0.6; stroke: #ffffff; stroke-linejoin: miter"/>
   </g>
   <g id="patch_22">
    <path d="M 116.247273 181.8 
L 132.266411 181.8 
L 132.266411 181.8 
L 116.247273 181.8 
z
" clip-path="url(#p31d89f3248)" style="fill: #4c72b0; opacity: 0.6; stroke: #ffffff; stroke-linejoin: miter"/>
   </g>
   <g id="patch_23">
    <path d="M 119.4511 181.8 
L 135.470239 181.8 
L 135.470239 181.8 
L 119.4511 181.8 
z
" clip-path="url(#p31d89f3248)" style="fill: #4c72b0; opacity: 0.6; stroke: #ffffff; stroke-linejoin: miter"/>
   </g>
   <g id="patch_24">
    <path d="M 122.654928 181.8 
L 138.674067 181.8 
L 138.674067 181.8 
L 122.654928 181.8 
z
" clip-path="url(#p31d89f3248)" style="fill: #4c72b0; opacity: 0.6; stroke: #ffffff; stroke-linejoin: miter"/>
   </g>
   <g id="patch_25">
    <path d="M 125.858756 181.8 
L 141.877895 181.8 
L 141.877895 181.8 
L 125.858756 181.8 
z
" clip-path="url(#p31d89f3248)" style="fill: #4c72b0; opacity: 0.6; stroke: #ffffff; stroke-linejoin: miter"/>
   </g>
   <g id="patch_26">
    <path d="M 129.062584 181.8 
L 145.081722 181.8 
L 145.081722 181.8 
L 129.062584 181.8 
z
" clip-path="url(#p31d89f3248)" style="fill: #4c72b0; opacity: 0.6; stroke: #ffffff; stroke-linejoin: miter"/>
   </g>
   <g id="patch_27">
    <path d="M 132.266411 181.8 
L 148.28555 181.8 
L 148.28555 181.8 
L 132.266411 181.8 
z
" clip-path="url(#p31d89f3248)" style="fill: #4c72b0; opacity: 0.6; stroke: #ffffff; stroke-linejoin: miter"/>
   </g>
   <g id="patch_28">
    <path d="M 135.470239 181.8 
L 151.489378 181.8 
L 151.489378 181.8 
L 135.470239 181.8 
z
" clip-path="url(#p31d89f3248)" style="fill: #4c72b0; opacity: 0.6; stroke: #ffffff; stroke-linejoin: miter"/>
   </g>
   <g id="patch_29">
    <path d="M 138.674067 181.8 
L 154.693206 181.8 
L 154.693206 181.8 
L 138.674067 181.8 
z
" clip-path="url(#p31d89f3248)" style="fill: #4c72b0; opacity: 0.6; stroke: #ffffff; stroke-linejoin: miter"/>
   </g>
   <g id="patch_30">
    <path d="M 141.877895 181.8 
L 157.897033 181.8 
L 157.897033 181.8 
L 141.877895 181.8 
z
" clip-path="url(#p31d89f3248)" style="fill: #4c72b0; opacity: 0.6; stroke: #ffffff; stroke-linejoin: miter"/>
   </g>
   <g id="patch_31">
    <path d="M 145.081722 181.8 
L 161.100861 181.8 
L 161.100861 181.8 
L 145.081722 181.8 
z
" clip-path="url(#p31d89f3248)" style="fill: #4c72b0; opacity: 0.6; stroke: #ffffff; stroke-linejoin: miter"/>
   </g>
   <g id="patch_32">
    <path d="M 148.28555 181.8 
L 164.304689 181.8 
L 164.304689 181.8 
L 148.28555 181.8 
z
" clip-path="url(#p31d89f3248)" style="fill: #4c72b0; opacity: 0.6; stroke: #ffffff; stroke-linejoin: miter"/>
   </g>
   <g id="patch_33">
    <path d="M 151.489378 181.8 
L 167.508517 181.8 
L 167.508517 181.8 
L 151.489378 181.8 
z
" clip-path="url(#p31d89f3248)" style="fill: #4c72b0; opacity: 0.6; stroke: #ffffff; stroke-linejoin: miter"/>
   </g>
   <g id="patch_34">
    <path d="M 154.693206 181.8 
L 170.712344 181.8 
L 170.712344 181.8 
L 154.693206 181.8 
z
" clip-path="url(#p31d89f3248)" style="fill: #4c72b0; opacity: 0.6; stroke: #ffffff; stroke-linejoin: miter"/>
   </g>
   <g id="patch_35">
    <path d="M 157.897033 181.8 
L 173.916172 181.8 
L 173.916172 181.8 
L 157.897033 181.8 
z
" clip-path="url(#p31d89f3248)" style="fill: #4c72b0; opacity: 0.6; stroke: #ffffff; stroke-linejoin: miter"/>
   </g>
   <g id="patch_36">
    <path d="M 161.100861 181.8 
L 177.12 181.8 
L 177.12 181.8 
L 161.100861 181.8 
z
" clip-path="url(#p31d89f3248)" style="fill: #4c72b0; opacity: 0.6; stroke: #ffffff; stroke-linejoin: miter"/>
   </g>
   <g id="patch_37">
    <path d="M 164.304689 181.8 
L 180.323828 181.8 
L 180.323828 181.8 
L 164.304689 181.8 
z
" clip-path="url(#p31d89f3248)" style="fill: #4c72b0; opacity: 0.6; stroke: #ffffff; stroke-linejoin: miter"/>
   </g>
   <g id="patch_38">
    <path d="M 167.508517 181.8 
L 183.527656 181.8 
L 183.527656 181.8 
L 167.508517 181.8 
z
" clip-path="url(#p31d89f3248)" style="fill: #4c72b0; opacity: 0.6; stroke: #ffffff; stroke-linejoin: miter"/>
   </g>
   <g id="patch_39">
    <path d="M 170.712344 181.8 
L 186.731483 181.8 
L 186.731483 181.8 
L 170.712344 181.8 
z
" clip-path="url(#p31d89f3248)" style="fill: #4c72b0; opacity: 0.6; stroke: #ffffff; stroke-linejoin: miter"/>
   </g>
   <g id="patch_40">
    <path d="M 173.916172 181.8 
L 189.935311 181.8 
L 189.935311 181.8 
L 173.916172 181.8 
z
" clip-path="url(#p31d89f3248)" style="fill: #4c72b0; opacity: 0.6; stroke: #ffffff; stroke-linejoin: miter"/>
   </g>
   <g id="patch_41">
    <path d="M 177.12 181.8 
L 193.139139 181.8 
L 193.139139 181.8 
L 177.12 181.8 
z
" clip-path="url(#p31d89f3248)" style="fill: #4c72b0; opacity: 0.6; stroke: #ffffff; stroke-linejoin: miter"/>
   </g>
   <g id="patch_42">
    <path d="M 180.323828 181.8 
L 196.342967 181.8 
L 196.342967 181.8 
L 180.323828 181.8 
z
" clip-path="url(#p31d89f3248)" style="fill: #4c72b0; opacity: 0.6; stroke: #ffffff; stroke-linejoin: miter"/>
   </g>
   <g id="patch_43">
    <path d="M 183.527656 181.8 
L 199.546794 181.8 
L 199.546794 181.8 
L 183.527656 181.8 
z
" clip-path="url(#p31d89f3248)" style="fill: #4c72b0; opacity: 0.6; stroke: #ffffff; stroke-linejoin: miter"/>
   </g>
   <g id="patch_44">
    <path d="M 186.731483 181.8 
L 202.750622 181.8 
L 202.750622 181.8 
L 186.731483 181.8 
z
" clip-path="url(#p31d89f3248)" style="fill: #4c72b0; opacity: 0.6; stroke: #ffffff; stroke-linejoin: miter"/>
   </g>
   <g id="patch_45">
    <path d="M 189.935311 181.8 
L 205.95445 181.8 
L 205.95445 181.8 
L 189.935311 181.8 
z
" clip-path="url(#p31d89f3248)" style="fill: #4c72b0; opacity: 0.6; stroke: #ffffff; stroke-linejoin: miter"/>
   </g>
   <g id="patch_46">
    <path d="M 193.139139 181.8 
L 209.158278 181.8 
L 209.158278 181.8 
L 193.139139 181.8 
z
" clip-path="url(#p31d89f3248)" style="fill: #4c72b0; opacity: 0.6; stroke: #ffffff; stroke-linejoin: miter"/>
   </g>
   <g id="patch_47">
    <path d="M 196.342967 181.8 
L 212.362105 181.8 
L 212.362105 181.8 
L 196.342967 181.8 
z
" clip-path="url(#p31d89f3248)" style="fill: #4c72b0; opacity: 0.6; stroke: #ffffff; stroke-linejoin: miter"/>
   </g>
   <g id="patch_48">
    <path d="M 199.546794 181.8 
L 215.565933 181.8 
L 215.565933 181.8 
L 199.546794 181.8 
z
" clip-path="url(#p31d89f3248)" style="fill: #4c72b0; opacity: 0.6; stroke: #ffffff; stroke-linejoin: miter"/>
   </g>
   <g id="patch_49">
    <path d="M 202.750622 181.8 
L 218.769761 181.8 
L 218.769761 181.8 
L 202.750622 181.8 
z
" clip-path="url(#p31d89f3248)" style="fill: #4c72b0; opacity: 0.6; stroke: #ffffff; stroke-linejoin: miter"/>
   </g>
   <g id="patch_50">
    <path d="M 205.95445 181.8 
L 221.973589 181.8 
L 221.973589 181.8 
L 205.95445 181.8 
z
" clip-path="url(#p31d89f3248)" style="fill: #4c72b0; opacity: 0.6; stroke: #ffffff; stroke-linejoin: miter"/>
   </g>
   <g id="patch_51">
    <path d="M 209.158278 181.8 
L 225.177416 181.8 
L 225.177416 181.8 
L 209.158278 181.8 
z
" clip-path="url(#p31d89f3248)" style="fill: #4c72b0; opacity: 0.6; stroke: #ffffff; stroke-linejoin: miter"/>
   </g>
   <g id="patch_52">
    <path d="M 212.362105 181.8 
L 228.381244 181.8 
L 228.381244 181.8 
L 212.362105 181.8 
z
" clip-path="url(#p31d89f3248)" style="fill: #4c72b0; opacity: 0.6; stroke: #ffffff; stroke-linejoin: miter"/>
   </g>
   <g id="patch_53">
    <path d="M 215.565933 181.8 
L 231.585072 181.8 
L 231.585072 181.8 
L 215.565933 181.8 
z
" clip-path="url(#p31d89f3248)" style="fill: #4c72b0; opacity: 0.6; stroke: #ffffff; stroke-linejoin: miter"/>
   </g>
   <g id="patch_54">
    <path d="M 218.769761 181.8 
L 234.7889 181.8 
L 234.7889 181.8 
L 218.769761 181.8 
z
" clip-path="url(#p31d89f3248)" style="fill: #4c72b0; opacity: 0.6; stroke: #ffffff; stroke-linejoin: miter"/>
   </g>
   <g id="patch_55">
    <path d="M 221.973589 181.8 
L 237.992727 181.8 
L 237.992727 181.8 
L 221.973589 181.8 
z
" clip-path="url(#p31d89f3248)" style="fill: #4c72b0; opacity: 0.6; stroke: #ffffff; stroke-linejoin: miter"/>
   </g>
   <g id="patch_56">
    <path d="M 225.177416 181.8 
L 241.196555 181.8 
L 241.196555 181.8 
L 225.177416 181.8 
z
" clip-path="url(#p31d89f3248)" style="fill: #4c72b0; opacity: 0.6; stroke: #ffffff; stroke-linejoin: miter"/>
   </g>
   <g id="patch_57">
    <path d="M 228.381244 181.8 
L 244.400383 181.8 
L 244.400383 181.8 
L 228.381244 181.8 
z
" clip-path="url(#p31d89f3248)" style="fill: #4c72b0; opacity: 0.6; stroke: #ffffff; stroke-linejoin: miter"/>
   </g>
   <g id="patch_58">
    <path d="M 231.585072 181.8 
L 247.604211 181.8 
L 247.604211 181.8 
L 231.585072 181.8 
z
" clip-path="url(#p31d89f3248)" style="fill: #4c72b0; opacity: 0.6; stroke: #ffffff; stroke-linejoin: miter"/>
   </g>
   <g id="patch_59">
    <path d="M 234.7889 181.8 
L 250.808038 181.8 
L 250.808038 181.8 
L 234.7889 181.8 
z
" clip-path="url(#p31d89f3248)" style="fill: #4c72b0; opacity: 0.6; stroke: #ffffff; stroke-linejoin: miter"/>
   </g>
   <g id="patch_60">
    <path d="M 237.992727 181.8 
L 254.011866 181.8 
L 254.011866 181.8 
L 237.992727 181.8 
z
" clip-path="url(#p31d89f3248)" style="fill: #4c72b0; opacity: 0.6; stroke: #ffffff; stroke-linejoin: miter"/>
   </g>
   <g id="patch_61">
    <path d="M 241.196555 181.8 
L 257.215694 181.8 
L 257.215694 181.8 
L 241.196555 181.8 
z
" clip-path="url(#p31d89f3248)" style="fill: #4c72b0; opacity: 0.6; stroke: #ffffff; stroke-linejoin: miter"/>
   </g>
   <g id="patch_62">
    <path d="M 244.400383 181.8 
L 260.419522 181.8 
L 260.419522 181.8 
L 244.400383 181.8 
z
" clip-path="url(#p31d89f3248)" style="fill: #4c72b0; opacity: 0.6; stroke: #ffffff; stroke-linejoin: miter"/>
   </g>
   <g id="patch_63">
    <path d="M 247.604211 181.8 
L 263.623349 181.8 
L 263.623349 181.8 
L 247.604211 181.8 
z
" clip-path="url(#p31d89f3248)" style="fill: #4c72b0; opacity: 0.6; stroke: #ffffff; stroke-linejoin: miter"/>
   </g>
   <g id="patch_64">
    <path d="M 250.808038 181.8 
L 266.827177 181.8 
L 266.827177 181.8 
L 250.808038 181.8 
z
" clip-path="url(#p31d89f3248)" style="fill: #4c72b0; opacity: 0.6; stroke: #ffffff; stroke-linejoin: miter"/>
   </g>
   <g id="patch_65">
    <path d="M 254.011866 181.8 
L 270.031005 181.8 
L 270.031005 181.8 
L 254.011866 181.8 
z
" clip-path="url(#p31d89f3248)" style="fill: #4c72b0; opacity: 0.6; stroke: #ffffff; stroke-linejoin: miter"/>
   </g>
   <g id="patch_66">
    <path d="M 257.215694 181.8 
L 273.234833 181.8 
L 273.234833 181.8 
L 257.215694 181.8 
z
" clip-path="url(#p31d89f3248)" style="fill: #4c72b0; opacity: 0.6; stroke: #ffffff; stroke-linejoin: miter"/>
   </g>
   <g id="patch_67">
    <path d="M 260.419522 181.8 
L 276.43866 181.8 
L 276.43866 181.8 
L 260.419522 181.8 
z
" clip-path="url(#p31d89f3248)" style="fill: #4c72b0; opacity: 0.6; stroke: #ffffff; stroke-linejoin: miter"/>
   </g>
   <g id="patch_68">
    <path d="M 263.623349 181.8 
L 279.642488 181.8 
L 279.642488 181.8 
L 263.623349 181.8 
z
" clip-path="url(#p31d89f3248)" style="fill: #4c72b0; opacity: 0.6; stroke: #ffffff; stroke-linejoin: miter"/>
   </g>
   <g id="patch_69">
    <path d="M 266.827177 181.8 
L 282.846316 181.8 
L 282.846316 181.8 
L 266.827177 181.8 
z
" clip-path="url(#p31d89f3248)" style="fill: #4c72b0; opacity: 0.6; stroke: #ffffff; stroke-linejoin: miter"/>
   </g>
   <g id="patch_70">
    <path d="M 270.031005 181.8 
L 286.050144 181.8 
L 286.050144 181.8 
L 270.031005 181.8 
z
" clip-path="url(#p31d89f3248)" style="fill: #4c72b0; opacity: 0.6; stroke: #ffffff; stroke-linejoin: miter"/>
   </g>
   <g id="patch_71">
    <path d="M 273.234833 181.8 
L 289.253971 181.8 
L 289.253971 181.8 
L 273.234833 181.8 
z
" clip-path="url(#p31d89f3248)" style="fill: #4c72b0; opacity: 0.6; stroke: #ffffff; stroke-linejoin: miter"/>
   </g>
   <g id="patch_72">
    <path d="M 276.43866 181.8 
L 292.457799 181.8 
L 292.457799 181.8 
L 276.43866 181.8 
z
" clip-path="url(#p31d89f3248)" style="fill: #4c72b0; opacity: 0.6; stroke: #ffffff; stroke-linejoin: miter"/>
   </g>
   <g id="patch_73">
    <path d="M 279.642488 181.8 
L 295.661627 181.8 
L 295.661627 181.8 
L 279.642488 181.8 
z
" clip-path="url(#p31d89f3248)" style="fill: #4c72b0; opacity: 0.6; stroke: #ffffff; stroke-linejoin: miter"/>
   </g>
   <g id="patch_74">
    <path d="M 282.846316 181.8 
L 298.865455 181.8 
L 298.865455 181.8 
L 282.846316 181.8 
z
" clip-path="url(#p31d89f3248)" style="fill: #4c72b0; opacity: 0.6; stroke: #ffffff; stroke-linejoin: miter"/>
   </g>
   <g id="line2d_10">
    <path d="M 63.384115 181.8 
L 66.587943 181.8 
L 69.79177 181.8 
L 72.995598 181.8 
L 76.199426 181.8 
L 79.403254 181.8 
L 82.607081 181.8 
L 85.810909 181.8 
L 89.014737 181.8 
L 92.218565 181.8 
L 95.422392 181.8 
L 98.62622 181.8 
L 101.830048 181.8 
L 105.033876 181.8 
L 108.237703 181.8 
L 111.441531 181.8 
L 114.645359 181.8 
L 117.849187 181.8 
L 121.053014 181.8 
L 124.256842 181.8 
L 127.46067 181.8 
L 130.664498 181.8 
L 133.868325 181.8 
L 137.072153 181.8 
L 140.275981 181.8 
L 143.479809 181.8 
L 146.683636 181.8 
L 149.887464 181.8 
L 153.091292 181.8 
L 156.29512 181.8 
L 159.498947 181.8 
L 162.702775 181.8 
L 165.906603 181.8 
L 169.110431 181.8 
L 172.314258 181.8 
L 175.518086 181.8 
L 178.721914 181.8 
L 181.925742 181.8 
L 185.129569 181.8 
L 188.333397 181.8 
L 191.537225 181.8 
L 194.741053 181.8 
L 197.94488 181.8 
L 201.148708 181.8 
L 204.352536 181.8 
L 207.556364 181.8 
L 210.760191 181.8 
L 213.964019 181.8 
L 217.167847 181.8 
L 220.371675 181.8 
L 223.575502 181.8 
L 226.77933 181.8 
L 229.983158 181.8 
L 233.186986 181.8 
L 236.390813 181.8 
L 239.594641 181.8 
L 242.798469 181.8 
L 246.002297 181.8 
L 249.206124 181.8 
L 252.409952 181.8 
L 255.61378 181.8 
L 258.817608 181.8 
L 262.021435 181.8 
L 265.225263 181.8 
L 268.429091 181.8 
L 271.632919 181.8 
L 274.836746 181.8 
L 278.040574 181.8 
L 281.244402 181.8 
L 284.44823 181.8 
L 287.652057 181.8 
L 290.855885 181.8 
" clip-path="url(#p31d89f3248)" style="fill: none; stroke: #4c72b0; stroke-width: 1.5; stroke-linecap: round"/>
    <defs>
     <path id="m3f51194e6d" d="M 0 1.5 
C 0.397805 1.5 0.77937 1.341951 1.06066 1.06066 
C 1.341951 0.77937 1.5 0.397805 1.5 0 
C 1.5 -0.397805 1.341951 -0.77937 1.06066 -1.06066 
C 0.77937 -1.341951 0.397805 -1.5 0 -1.5 
C -0.397805 -1.5 -0.77937 -1.341951 -1.06066 -1.06066 
C -1.341951 -0.77937 -1.5 -0.397805 -1.5 0 
C -1.5 0.397805 -1.341951 0.77937 -1.06066 1.06066 
C -0.77937 1.341951 -0.397805 1.5 0 1.5 
z
" style="stroke: #4c72b0"/>
    </defs>
    <g clip-path="url(#p31d89f3248)">
     <use xlink:href="#m3f51194e6d" x="63.384115" y="181.8" style="fill: #4c72b0; stroke: #4c72b0"/>
     <use xlink:href="#m3f51194e6d" x="66.587943" y="181.8" style="fill: #4c72b0; stroke: #4c72b0"/>
     <use xlink:href="#m3f51194e6d" x="69.79177" y="181.8" style="fill: #4c72b0; stroke: #4c72b0"/>
     <use xlink:href="#m3f51194e6d" x="72.995598" y="181.8" style="fill: #4c72b0; stroke: #4c72b0"/>
     <use xlink:href="#m3f51194e6d" x="76.199426" y="181.8" style="fill: #4c72b0; stroke: #4c72b0"/>
     <use xlink:href="#m3f51194e6d" x="79.403254" y="181.8" style="fill: #4c72b0; stroke: #4c72b0"/>
     <use xlink:href="#m3f51194e6d" x="82.607081" y="181.8" style="fill: #4c72b0; stroke: #4c72b0"/>
     <use xlink:href="#m3f51194e6d" x="85.810909" y="181.8" style="fill: #4c72b0; stroke: #4c72b0"/>
     <use xlink:href="#m3f51194e6d" x="89.014737" y="181.8" style="fill: #4c72b0; stroke: #4c72b0"/>
     <use xlink:href="#m3f51194e6d" x="92.218565" y="181.8" style="fill: #4c72b0; stroke: #4c72b0"/>
     <use xlink:href="#m3f51194e6d" x="95.422392" y="181.8" style="fill: #4c72b0; stroke: #4c72b0"/>
     <use xlink:href="#m3f51194e6d" x="98.62622" y="181.8" style="fill: #4c72b0; stroke: #4c72b0"/>
     <use xlink:href="#m3f51194e6d" x="101.830048" y="181.8" style="fill: #4c72b0; stroke: #4c72b0"/>
     <use xlink:href="#m3f51194e6d" x="105.033876" y="181.8" style="fill: #4c72b0; stroke: #4c72b0"/>
     <use xlink:href="#m3f51194e6d" x="108.237703" y="181.8" style="fill: #4c72b0; stroke: #4c72b0"/>
     <use xlink:href="#m3f51194e6d" x="111.441531" y="181.8" style="fill: #4c72b0; stroke: #4c72b0"/>
     <use xlink:href="#m3f51194e6d" x="114.645359" y="181.8" style="fill: #4c72b0; stroke: #4c72b0"/>
     <use xlink:href="#m3f51194e6d" x="117.849187" y="181.8" style="fill: #4c72b0; stroke: #4c72b0"/>
     <use xlink:href="#m3f51194e6d" x="121.053014" y="181.8" style="fill: #4c72b0; stroke: #4c72b0"/>
     <use xlink:href="#m3f51194e6d" x="124.256842" y="181.8" style="fill: #4c72b0; stroke: #4c72b0"/>
     <use xlink:href="#m3f51194e6d" x="127.46067" y="181.8" style="fill: #4c72b0; stroke: #4c72b0"/>
     <use xlink:href="#m3f51194e6d" x="130.664498" y="181.8" style="fill: #4c72b0; stroke: #4c72b0"/>
     <use xlink:href="#m3f51194e6d" x="133.868325" y="181.8" style="fill: #4c72b0; stroke: #4c72b0"/>
     <use xlink:href="#m3f51194e6d" x="137.072153" y="181.8" style="fill: #4c72b0; stroke: #4c72b0"/>
     <use xlink:href="#m3f51194e6d" x="140.275981" y="181.8" style="fill: #4c72b0; stroke: #4c72b0"/>
     <use xlink:href="#m3f51194e6d" x="143.479809" y="181.8" style="fill: #4c72b0; stroke: #4c72b0"/>
     <use xlink:href="#m3f51194e6d" x="146.683636" y="181.8" style="fill: #4c72b0; stroke: #4c72b0"/>
     <use xlink:href="#m3f51194e6d" x="149.887464" y="181.8" style="fill: #4c72b0; stroke: #4c72b0"/>
     <use xlink:href="#m3f51194e6d" x="153.091292" y="181.8" style="fill: #4c72b0; stroke: #4c72b0"/>
     <use xlink:href="#m3f51194e6d" x="156.29512" y="181.8" style="fill: #4c72b0; stroke: #4c72b0"/>
     <use xlink:href="#m3f51194e6d" x="159.498947" y="181.8" style="fill: #4c72b0; stroke: #4c72b0"/>
     <use xlink:href="#m3f51194e6d" x="162.702775" y="181.8" style="fill: #4c72b0; stroke: #4c72b0"/>
     <use xlink:href="#m3f51194e6d" x="165.906603" y="181.8" style="fill: #4c72b0; stroke: #4c72b0"/>
     <use xlink:href="#m3f51194e6d" x="169.110431" y="181.8" style="fill: #4c72b0; stroke: #4c72b0"/>
     <use xlink:href="#m3f51194e6d" x="172.314258" y="181.8" style="fill: #4c72b0; stroke: #4c72b0"/>
     <use xlink:href="#m3f51194e6d" x="175.518086" y="181.8" style="fill: #4c72b0; stroke: #4c72b0"/>
     <use xlink:href="#m3f51194e6d" x="178.721914" y="181.8" style="fill: #4c72b0; stroke: #4c72b0"/>
     <use xlink:href="#m3f51194e6d" x="181.925742" y="181.8" style="fill: #4c72b0; stroke: #4c72b0"/>
     <use xlink:href="#m3f51194e6d" x="185.129569" y="181.8" style="fill: #4c72b0; stroke: #4c72b0"/>
     <use xlink:href="#m3f51194e6d" x="188.333397" y="181.8" style="fill: #4c72b0; stroke: #4c72b0"/>
     <use xlink:href="#m3f51194e6d" x="191.537225" y="181.8" style="fill: #4c72b0; stroke: #4c72b0"/>
     <use xlink:href="#m3f51194e6d" x="194.741053" y="181.8" style="fill: #4c72b0; stroke: #4c72b0"/>
     <use xlink:href="#m3f51194e6d" x="197.94488" y="181.8" style="fill: #4c72b0; stroke: #4c72b0"/>
     <use xlink:href="#m3f51194e6d" x="201.148708" y="181.8" style="fill: #4c72b0; stroke: #4c72b0"/>
     <use xlink:href="#m3f51194e6d" x="204.352536" y="181.8" style="fill: #4c72b0; stroke: #4c72b0"/>
     <use xlink:href="#m3f51194e6d" x="207.556364" y="181.8" style="fill: #4c72b0; stroke: #4c72b0"/>
     <use xlink:href="#m3f51194e6d" x="210.760191" y="181.8" style="fill: #4c72b0; stroke: #4c72b0"/>
     <use xlink:href="#m3f51194e6d" x="213.964019" y="181.8" style="fill: #4c72b0; stroke: #4c72b0"/>
     <use xlink:href="#m3f51194e6d" x="217.167847" y="181.8" style="fill: #4c72b0; stroke: #4c72b0"/>
     <use xlink:href="#m3f51194e6d" x="220.371675" y="181.8" style="fill: #4c72b0; stroke: #4c72b0"/>
     <use xlink:href="#m3f51194e6d" x="223.575502" y="181.8" style="fill: #4c72b0; stroke: #4c72b0"/>
     <use xlink:href="#m3f51194e6d" x="226.77933" y="181.8" style="fill: #4c72b0; stroke: #4c72b0"/>
     <use xlink:href="#m3f51194e6d" x="229.983158" y="181.8" style="fill: #4c72b0; stroke: #4c72b0"/>
     <use xlink:href="#m3f51194e6d" x="233.186986" y="181.8" style="fill: #4c72b0; stroke: #4c72b0"/>
     <use xlink:href="#m3f51194e6d" x="236.390813" y="181.8" style="fill: #4c72b0; stroke: #4c72b0"/>
     <use xlink:href="#m3f51194e6d" x="239.594641" y="181.8" style="fill: #4c72b0; stroke: #4c72b0"/>
     <use xlink:href="#m3f51194e6d" x="242.798469" y="181.8" style="fill: #4c72b0; stroke: #4c72b0"/>
     <use xlink:href="#m3f51194e6d" x="246.002297" y="181.8" style="fill: #4c72b0; stroke: #4c72b0"/>
     <use xlink:href="#m3f51194e6d" x="249.206124" y="181.8" style="fill: #4c72b0; stroke: #4c72b0"/>
     <use xlink:href="#m3f51194e6d" x="252.409952" y="181.8" style="fill: #4c72b0; stroke: #4c72b0"/>
     <use xlink:href="#m3f51194e6d" x="255.61378" y="181.8" style="fill: #4c72b0; stroke: #4c72b0"/>
     <use xlink:href="#m3f51194e6d" x="258.817608" y="181.8" style="fill: #4c72b0; stroke: #4c72b0"/>
     <use xlink:href="#m3f51194e6d" x="262.021435" y="181.8" style="fill: #4c72b0; stroke: #4c72b0"/>
     <use xlink:href="#m3f51194e6d" x="265.225263" y="181.8" style="fill: #4c72b0; stroke: #4c72b0"/>
     <use xlink:href="#m3f51194e6d" x="268.429091" y="181.8" style="fill: #4c72b0; stroke: #4c72b0"/>
     <use xlink:href="#m3f51194e6d" x="271.632919" y="181.8" style="fill: #4c72b0; stroke: #4c72b0"/>
     <use xlink:href="#m3f51194e6d" x="274.836746" y="181.8" style="fill: #4c72b0; stroke: #4c72b0"/>
     <use xlink:href="#m3f51194e6d" x="278.040574" y="181.8" style="fill: #4c72b0; stroke: #4c72b0"/>
     <use xlink:href="#m3f51194e6d" x="281.244402" y="181.8" style="fill: #4c72b0; stroke: #4c72b0"/>
     <use xlink:href="#m3f51194e6d" x="284.44823" y="181.8" style="fill: #4c72b0; stroke: #4c72b0"/>
     <use xlink:href="#m3f51194e6d" x="287.652057" y="181.8" style="fill: #4c72b0; stroke: #4c72b0"/>
     <use xlink:href="#m3f51194e6d" x="290.855885" y="181.8" style="fill: #4c72b0; stroke: #4c72b0"/>
    </g>
   </g>
   <g id="patch_75">
    <path d="M 43.2 320.4 
L 43.2 43.2 
" style="fill: none; stroke: #ffffff; stroke-width: 1.25; stroke-linejoin: miter; stroke-linecap: square"/>
   </g>
   <g id="patch_76">
    <path d="M 311.04 320.4 
L 311.04 43.2 
" style="fill: none; stroke: #ffffff; stroke-width: 1.25; stroke-linejoin: miter; stroke-linecap: square"/>
   </g>
   <g id="patch_77">
    <path d="M 43.2 320.4 
L 311.04 320.4 
" style="fill: none; stroke: #ffffff; stroke-width: 1.25; stroke-linejoin: miter; stroke-linecap: square"/>
   </g>
   <g id="patch_78">
    <path d="M 43.2 43.2 
L 311.04 43.2 
" style="fill: none; stroke: #ffffff; stroke-width: 1.25; stroke-linejoin: miter; stroke-linecap: square"/>
   </g>
  </g>
 </g>
 <defs>
  <clipPath id="p31d89f3248">
   <rect x="43.2" y="43.2" width="267.84" height="277.2"/>
  </clipPath>
 </defs>
</svg>
