<?xml version="1.0" encoding="utf-8" standalone="no"?>
<!DOCTYPE svg PUBLIC "-//W3C//DTD SVG 1.1//EN"
  "http://www.w3.org/Graphics/SVG/1.1/DTD/svg11.dtd">
<svg xmlns:xlink="http://www.w3.org/1999/xlink" width="345.6pt" height="360pt" viewBox="0 0 345.6 360" xmlns="http://www.w3.org/2000/svg" version="1.1">
 <metadata>
  <rdf:RDF xmlns:dc="http://purl.org/dc/elements/1.1/" xmlns:cc="http://creativecommons.org/ns#" xmlns:rdf="http://www.w3.org/1999/02/22-rdf-syntax-ns#">
   <cc:Work>
    <dc:type rdf:resource="http://purl.org/dc/dcmitype/StillImage"/>
    <dc:date>2024-07-17T09:46:09.942138</dc:date>
    <dc:format>image/svg+xml</dc:format>
    <dc:creator>
     <cc:Agent>
      <dc:title>Matplotlib v3.9.1, https://matplotlib.org/</dc:title>
     </cc:Agent>
    </dc:creator>
   </cc:Work>
  </rdf:RDF>
 </metadata>
 <defs>
  <style type="text/css">*{stroke-linejoin: round; stroke-linecap: butt}</style>
 </defs>
 <g id="figure_1">
  <g id="patch_1">
   <path d="M 0 360 
L 345.6 360 
L 345.6 0 
L 0 0 
z
" style="fill: #ffffff"/>
  </g>
  <g id="axes_1">
   <g id="patch_2">
    <path d="M 43.2 320.4 
L 311.04 320.4 
L 311.04 43.2 
L 43.2 43.2 
z
" style="fill: #eaeaf2"/>
   </g>
   <g id="matplotlib.axis_1">
    <g id="xtick_1">
     <g id="line2d_1">
      <path d="M 55.374545 320.4 
L 55.374545 43.2 
" clip-path="url(#pe8fdb4c972)" style="fill: none; stroke: #ffffff; stroke-linecap: round"/>
     </g>
     <g id="text_1">
      <!-- 0 -->
      <g style="fill: #262626" transform="translate(52.31603 337.773594) scale(0.11 -0.11)">
       <defs>
        <path id="ArialMT-30" d="M 266 2259 
Q 266 3072 433 3567 
Q 600 4063 929 4331 
Q 1259 4600 1759 4600 
Q 2128 4600 2406 4451 
Q 2684 4303 2865 4023 
Q 3047 3744 3150 3342 
Q 3253 2941 3253 2259 
Q 3253 1453 3087 958 
Q 2922 463 2592 192 
Q 2263 -78 1759 -78 
Q 1097 -78 719 397 
Q 266 969 266 2259 
z
M 844 2259 
Q 844 1131 1108 757 
Q 1372 384 1759 384 
Q 2147 384 2411 759 
Q 2675 1134 2675 2259 
Q 2675 3391 2411 3762 
Q 2147 4134 1753 4134 
Q 1366 4134 1134 3806 
Q 844 3388 844 2259 
z
" transform="scale(0.015625)"/>
       </defs>
       <use xlink:href="#ArialMT-30"/>
      </g>
     </g>
    </g>
    <g id="xtick_2">
     <g id="line2d_2">
      <path d="M 104.072727 320.4 
L 104.072727 43.2 
" clip-path="url(#pe8fdb4c972)" style="fill: none; stroke: #ffffff; stroke-linecap: round"/>
     </g>
     <g id="text_2">
      <!-- 20 -->
      <g style="fill: #262626" transform="translate(97.955696 337.773594) scale(0.11 -0.11)">
       <defs>
        <path id="ArialMT-32" d="M 3222 541 
L 3222 0 
L 194 0 
Q 188 203 259 391 
Q 375 700 629 1000 
Q 884 1300 1366 1694 
Q 2113 2306 2375 2664 
Q 2638 3022 2638 3341 
Q 2638 3675 2398 3904 
Q 2159 4134 1775 4134 
Q 1369 4134 1125 3890 
Q 881 3647 878 3216 
L 300 3275 
Q 359 3922 746 4261 
Q 1134 4600 1788 4600 
Q 2447 4600 2831 4234 
Q 3216 3869 3216 3328 
Q 3216 3053 3103 2787 
Q 2991 2522 2730 2228 
Q 2469 1934 1863 1422 
Q 1356 997 1212 845 
Q 1069 694 975 541 
L 3222 541 
z
" transform="scale(0.015625)"/>
       </defs>
       <use xlink:href="#ArialMT-32"/>
       <use xlink:href="#ArialMT-30" x="55.615234"/>
      </g>
     </g>
    </g>
    <g id="xtick_3">
     <g id="line2d_3">
      <path d="M 152.770909 320.4 
L 152.770909 43.2 
" clip-path="url(#pe8fdb4c972)" style="fill: none; stroke: #ffffff; stroke-linecap: round"/>
     </g>
     <g id="text_3">
      <!-- 40 -->
      <g style="fill: #262626" transform="translate(146.653878 337.773594) scale(0.11 -0.11)">
       <defs>
        <path id="ArialMT-34" d="M 2069 0 
L 2069 1097 
L 81 1097 
L 81 1613 
L 2172 4581 
L 2631 4581 
L 2631 1613 
L 3250 1613 
L 3250 1097 
L 2631 1097 
L 2631 0 
L 2069 0 
z
M 2069 1613 
L 2069 3678 
L 634 1613 
L 2069 1613 
z
" transform="scale(0.015625)"/>
       </defs>
       <use xlink:href="#ArialMT-34"/>
       <use xlink:href="#ArialMT-30" x="55.615234"/>
      </g>
     </g>
    </g>
    <g id="xtick_4">
     <g id="line2d_4">
      <path d="M 201.469091 320.4 
L 201.469091 43.2 
" clip-path="url(#pe8fdb4c972)" style="fill: none; stroke: #ffffff; stroke-linecap: round"/>
     </g>
     <g id="text_4">
      <!-- 60 -->
      <g style="fill: #262626" transform="translate(195.35206 337.773594) scale(0.11 -0.11)">
       <defs>
        <path id="ArialMT-36" d="M 3184 3459 
L 2625 3416 
Q 2550 3747 2413 3897 
Q 2184 4138 1850 4138 
Q 1581 4138 1378 3988 
Q 1113 3794 959 3422 
Q 806 3050 800 2363 
Q 1003 2672 1297 2822 
Q 1591 2972 1913 2972 
Q 2475 2972 2870 2558 
Q 3266 2144 3266 1488 
Q 3266 1056 3080 686 
Q 2894 316 2569 119 
Q 2244 -78 1831 -78 
Q 1128 -78 684 439 
Q 241 956 241 2144 
Q 241 3472 731 4075 
Q 1159 4600 1884 4600 
Q 2425 4600 2770 4297 
Q 3116 3994 3184 3459 
z
M 888 1484 
Q 888 1194 1011 928 
Q 1134 663 1356 523 
Q 1578 384 1822 384 
Q 2178 384 2434 671 
Q 2691 959 2691 1453 
Q 2691 1928 2437 2201 
Q 2184 2475 1800 2475 
Q 1419 2475 1153 2201 
Q 888 1928 888 1484 
z
" transform="scale(0.015625)"/>
       </defs>
       <use xlink:href="#ArialMT-36"/>
       <use xlink:href="#ArialMT-30" x="55.615234"/>
      </g>
     </g>
    </g>
    <g id="xtick_5">
     <g id="line2d_5">
      <path d="M 250.167273 320.4 
L 250.167273 43.2 
" clip-path="url(#pe8fdb4c972)" style="fill: none; stroke: #ffffff; stroke-linecap: round"/>
     </g>
     <g id="text_5">
      <!-- 80 -->
      <g style="fill: #262626" transform="translate(244.050241 337.773594) scale(0.11 -0.11)">
       <defs>
        <path id="ArialMT-38" d="M 1131 2484 
Q 781 2613 612 2850 
Q 444 3088 444 3419 
Q 444 3919 803 4259 
Q 1163 4600 1759 4600 
Q 2359 4600 2725 4251 
Q 3091 3903 3091 3403 
Q 3091 3084 2923 2848 
Q 2756 2613 2416 2484 
Q 2838 2347 3058 2040 
Q 3278 1734 3278 1309 
Q 3278 722 2862 322 
Q 2447 -78 1769 -78 
Q 1091 -78 675 323 
Q 259 725 259 1325 
Q 259 1772 486 2073 
Q 713 2375 1131 2484 
z
M 1019 3438 
Q 1019 3113 1228 2906 
Q 1438 2700 1772 2700 
Q 2097 2700 2305 2904 
Q 2513 3109 2513 3406 
Q 2513 3716 2298 3927 
Q 2084 4138 1766 4138 
Q 1444 4138 1231 3931 
Q 1019 3725 1019 3438 
z
M 838 1322 
Q 838 1081 952 856 
Q 1066 631 1291 507 
Q 1516 384 1775 384 
Q 2178 384 2440 643 
Q 2703 903 2703 1303 
Q 2703 1709 2433 1975 
Q 2163 2241 1756 2241 
Q 1359 2241 1098 1978 
Q 838 1716 838 1322 
z
" transform="scale(0.015625)"/>
       </defs>
       <use xlink:href="#ArialMT-38"/>
       <use xlink:href="#ArialMT-30" x="55.615234"/>
      </g>
     </g>
    </g>
    <g id="xtick_6">
     <g id="line2d_6">
      <path d="M 298.865455 320.4 
L 298.865455 43.2 
" clip-path="url(#pe8fdb4c972)" style="fill: none; stroke: #ffffff; stroke-linecap: round"/>
     </g>
     <g id="text_6">
      <!-- 100 -->
      <g style="fill: #262626" transform="translate(289.689908 337.773594) scale(0.11 -0.11)">
       <defs>
        <path id="ArialMT-31" d="M 2384 0 
L 1822 0 
L 1822 3584 
Q 1619 3391 1289 3197 
Q 959 3003 697 2906 
L 697 3450 
Q 1169 3672 1522 3987 
Q 1875 4303 2022 4600 
L 2384 4600 
L 2384 0 
z
" transform="scale(0.015625)"/>
       </defs>
       <use xlink:href="#ArialMT-31"/>
       <use xlink:href="#ArialMT-30" x="55.615234"/>
       <use xlink:href="#ArialMT-30" x="111.230469"/>
      </g>
     </g>
    </g>
    <g id="text_7">
     <!-- range (%) -->
     <g style="fill: #262626" transform="translate(150.778125 352.695469) scale(0.12 -0.12)">
      <defs>
       <path id="ArialMT-72" d="M 416 0 
L 416 3319 
L 922 3319 
L 922 2816 
Q 1116 3169 1280 3281 
Q 1444 3394 1641 3394 
Q 1925 3394 2219 3213 
L 2025 2691 
Q 1819 2813 1613 2813 
Q 1428 2813 1281 2702 
Q 1134 2591 1072 2394 
Q 978 2094 978 1738 
L 978 0 
L 416 0 
z
" transform="scale(0.015625)"/>
       <path id="ArialMT-61" d="M 2588 409 
Q 2275 144 1986 34 
Q 1697 -75 1366 -75 
Q 819 -75 525 192 
Q 231 459 231 875 
Q 231 1119 342 1320 
Q 453 1522 633 1644 
Q 813 1766 1038 1828 
Q 1203 1872 1538 1913 
Q 2219 1994 2541 2106 
Q 2544 2222 2544 2253 
Q 2544 2597 2384 2738 
Q 2169 2928 1744 2928 
Q 1347 2928 1158 2789 
Q 969 2650 878 2297 
L 328 2372 
Q 403 2725 575 2942 
Q 747 3159 1072 3276 
Q 1397 3394 1825 3394 
Q 2250 3394 2515 3294 
Q 2781 3194 2906 3042 
Q 3031 2891 3081 2659 
Q 3109 2516 3109 2141 
L 3109 1391 
Q 3109 606 3145 398 
Q 3181 191 3288 0 
L 2700 0 
Q 2613 175 2588 409 
z
M 2541 1666 
Q 2234 1541 1622 1453 
Q 1275 1403 1131 1340 
Q 988 1278 909 1158 
Q 831 1038 831 891 
Q 831 666 1001 516 
Q 1172 366 1500 366 
Q 1825 366 2078 508 
Q 2331 650 2450 897 
Q 2541 1088 2541 1459 
L 2541 1666 
z
" transform="scale(0.015625)"/>
       <path id="ArialMT-6e" d="M 422 0 
L 422 3319 
L 928 3319 
L 928 2847 
Q 1294 3394 1984 3394 
Q 2284 3394 2536 3286 
Q 2788 3178 2913 3003 
Q 3038 2828 3088 2588 
Q 3119 2431 3119 2041 
L 3119 0 
L 2556 0 
L 2556 2019 
Q 2556 2363 2490 2533 
Q 2425 2703 2258 2804 
Q 2091 2906 1866 2906 
Q 1506 2906 1245 2678 
Q 984 2450 984 1813 
L 984 0 
L 422 0 
z
" transform="scale(0.015625)"/>
       <path id="ArialMT-67" d="M 319 -275 
L 866 -356 
Q 900 -609 1056 -725 
Q 1266 -881 1628 -881 
Q 2019 -881 2231 -725 
Q 2444 -569 2519 -288 
Q 2563 -116 2559 434 
Q 2191 0 1641 0 
Q 956 0 581 494 
Q 206 988 206 1678 
Q 206 2153 378 2554 
Q 550 2956 876 3175 
Q 1203 3394 1644 3394 
Q 2231 3394 2613 2919 
L 2613 3319 
L 3131 3319 
L 3131 450 
Q 3131 -325 2973 -648 
Q 2816 -972 2473 -1159 
Q 2131 -1347 1631 -1347 
Q 1038 -1347 672 -1080 
Q 306 -813 319 -275 
z
M 784 1719 
Q 784 1066 1043 766 
Q 1303 466 1694 466 
Q 2081 466 2343 764 
Q 2606 1063 2606 1700 
Q 2606 2309 2336 2618 
Q 2066 2928 1684 2928 
Q 1309 2928 1046 2623 
Q 784 2319 784 1719 
z
" transform="scale(0.015625)"/>
       <path id="ArialMT-65" d="M 2694 1069 
L 3275 997 
Q 3138 488 2766 206 
Q 2394 -75 1816 -75 
Q 1088 -75 661 373 
Q 234 822 234 1631 
Q 234 2469 665 2931 
Q 1097 3394 1784 3394 
Q 2450 3394 2872 2941 
Q 3294 2488 3294 1666 
Q 3294 1616 3291 1516 
L 816 1516 
Q 847 969 1125 678 
Q 1403 388 1819 388 
Q 2128 388 2347 550 
Q 2566 713 2694 1069 
z
M 847 1978 
L 2700 1978 
Q 2663 2397 2488 2606 
Q 2219 2931 1791 2931 
Q 1403 2931 1139 2672 
Q 875 2413 847 1978 
z
" transform="scale(0.015625)"/>
       <path id="ArialMT-20" transform="scale(0.015625)"/>
       <path id="ArialMT-28" d="M 1497 -1347 
Q 1031 -759 709 28 
Q 388 816 388 1659 
Q 388 2403 628 3084 
Q 909 3875 1497 4659 
L 1900 4659 
Q 1522 4009 1400 3731 
Q 1209 3300 1100 2831 
Q 966 2247 966 1656 
Q 966 153 1900 -1347 
L 1497 -1347 
z
" transform="scale(0.015625)"/>
       <path id="ArialMT-25" d="M 372 3481 
Q 372 3972 619 4315 
Q 866 4659 1334 4659 
Q 1766 4659 2048 4351 
Q 2331 4044 2331 3447 
Q 2331 2866 2045 2552 
Q 1759 2238 1341 2238 
Q 925 2238 648 2547 
Q 372 2856 372 3481 
z
M 1350 4272 
Q 1141 4272 1002 4090 
Q 863 3909 863 3425 
Q 863 2984 1003 2804 
Q 1144 2625 1350 2625 
Q 1563 2625 1702 2806 
Q 1841 2988 1841 3469 
Q 1841 3913 1700 4092 
Q 1559 4272 1350 4272 
z
M 1353 -169 
L 3859 4659 
L 4316 4659 
L 1819 -169 
L 1353 -169 
z
M 3334 1075 
Q 3334 1569 3581 1911 
Q 3828 2253 4300 2253 
Q 4731 2253 5014 1945 
Q 5297 1638 5297 1041 
Q 5297 459 5011 145 
Q 4725 -169 4303 -169 
Q 3888 -169 3611 142 
Q 3334 453 3334 1075 
z
M 4316 1866 
Q 4103 1866 3964 1684 
Q 3825 1503 3825 1019 
Q 3825 581 3965 400 
Q 4106 219 4313 219 
Q 4528 219 4667 400 
Q 4806 581 4806 1063 
Q 4806 1506 4665 1686 
Q 4525 1866 4316 1866 
z
" transform="scale(0.015625)"/>
       <path id="ArialMT-29" d="M 791 -1347 
L 388 -1347 
Q 1322 153 1322 1656 
Q 1322 2244 1188 2822 
Q 1081 3291 891 3722 
Q 769 4003 388 4659 
L 791 4659 
Q 1378 3875 1659 3084 
Q 1900 2403 1900 1659 
Q 1900 816 1576 28 
Q 1253 -759 791 -1347 
z
" transform="scale(0.015625)"/>
      </defs>
      <use xlink:href="#ArialMT-72"/>
      <use xlink:href="#ArialMT-61" x="33.300781"/>
      <use xlink:href="#ArialMT-6e" x="88.916016"/>
      <use xlink:href="#ArialMT-67" x="144.53125"/>
      <use xlink:href="#ArialMT-65" x="200.146484"/>
      <use xlink:href="#ArialMT-20" x="255.761719"/>
      <use xlink:href="#ArialMT-28" x="283.544922"/>
      <use xlink:href="#ArialMT-25" x="316.845703"/>
      <use xlink:href="#ArialMT-29" x="405.761719"/>
     </g>
    </g>
   </g>
   <g id="matplotlib.axis_2">
    <g id="ytick_1">
     <g id="line2d_7">
      <path d="M 43.2 307.8 
L 311.04 307.8 
" clip-path="url(#pe8fdb4c972)" style="fill: none; stroke: #ffffff; stroke-linecap: round"/>
     </g>
     <g id="text_8">
      <!-- 0 -->
      <g style="fill: #262626" transform="translate(27.582969 311.736797) scale(0.11 -0.11)">
       <use xlink:href="#ArialMT-30"/>
      </g>
     </g>
    </g>
    <g id="ytick_2">
     <g id="line2d_8">
      <path d="M 43.2 276.40465 
L 311.04 276.40465 
" clip-path="url(#pe8fdb4c972)" style="fill: none; stroke: #ffffff; stroke-linecap: round"/>
     </g>
     <g id="text_9">
      <!-- 10 -->
      <g style="fill: #262626" transform="translate(21.465937 280.341446) scale(0.11 -0.11)">
       <use xlink:href="#ArialMT-31"/>
       <use xlink:href="#ArialMT-30" x="55.615234"/>
      </g>
     </g>
    </g>
    <g id="ytick_3">
     <g id="line2d_9">
      <path d="M 43.2 245.009299 
L 311.04 245.009299 
" clip-path="url(#pe8fdb4c972)" style="fill: none; stroke: #ffffff; stroke-linecap: round"/>
     </g>
     <g id="text_10">
      <!-- 20 -->
      <g style="fill: #262626" transform="translate(21.465937 248.946096) scale(0.11 -0.11)">
       <use xlink:href="#ArialMT-32"/>
       <use xlink:href="#ArialMT-30" x="55.615234"/>
      </g>
     </g>
    </g>
    <g id="ytick_4">
     <g id="line2d_10">
      <path d="M 43.2 213.613949 
L 311.04 213.613949 
" clip-path="url(#pe8fdb4c972)" style="fill: none; stroke: #ffffff; stroke-linecap: round"/>
     </g>
     <g id="text_11">
      <!-- 30 -->
      <g style="fill: #262626" transform="translate(21.465937 217.550746) scale(0.11 -0.11)">
       <defs>
        <path id="ArialMT-33" d="M 269 1209 
L 831 1284 
Q 928 806 1161 595 
Q 1394 384 1728 384 
Q 2125 384 2398 659 
Q 2672 934 2672 1341 
Q 2672 1728 2419 1979 
Q 2166 2231 1775 2231 
Q 1616 2231 1378 2169 
L 1441 2663 
Q 1497 2656 1531 2656 
Q 1891 2656 2178 2843 
Q 2466 3031 2466 3422 
Q 2466 3731 2256 3934 
Q 2047 4138 1716 4138 
Q 1388 4138 1169 3931 
Q 950 3725 888 3313 
L 325 3413 
Q 428 3978 793 4289 
Q 1159 4600 1703 4600 
Q 2078 4600 2393 4439 
Q 2709 4278 2876 4000 
Q 3044 3722 3044 3409 
Q 3044 3113 2884 2869 
Q 2725 2625 2413 2481 
Q 2819 2388 3044 2092 
Q 3269 1797 3269 1353 
Q 3269 753 2831 336 
Q 2394 -81 1725 -81 
Q 1122 -81 723 278 
Q 325 638 269 1209 
z
" transform="scale(0.015625)"/>
       </defs>
       <use xlink:href="#ArialMT-33"/>
       <use xlink:href="#ArialMT-30" x="55.615234"/>
      </g>
     </g>
    </g>
    <g id="ytick_5">
     <g id="line2d_11">
      <path d="M 43.2 182.218598 
L 311.04 182.218598 
" clip-path="url(#pe8fdb4c972)" style="fill: none; stroke: #ffffff; stroke-linecap: round"/>
     </g>
     <g id="text_12">
      <!-- 40 -->
      <g style="fill: #262626" transform="translate(21.465937 186.155395) scale(0.11 -0.11)">
       <use xlink:href="#ArialMT-34"/>
       <use xlink:href="#ArialMT-30" x="55.615234"/>
      </g>
     </g>
    </g>
    <g id="ytick_6">
     <g id="line2d_12">
      <path d="M 43.2 150.823248 
L 311.04 150.823248 
" clip-path="url(#pe8fdb4c972)" style="fill: none; stroke: #ffffff; stroke-linecap: round"/>
     </g>
     <g id="text_13">
      <!-- 50 -->
      <g style="fill: #262626" transform="translate(21.465937 154.760045) scale(0.11 -0.11)">
       <defs>
        <path id="ArialMT-35" d="M 266 1200 
L 856 1250 
Q 922 819 1161 601 
Q 1400 384 1738 384 
Q 2144 384 2425 690 
Q 2706 997 2706 1503 
Q 2706 1984 2436 2262 
Q 2166 2541 1728 2541 
Q 1456 2541 1237 2417 
Q 1019 2294 894 2097 
L 366 2166 
L 809 4519 
L 3088 4519 
L 3088 3981 
L 1259 3981 
L 1013 2750 
Q 1425 3038 1878 3038 
Q 2478 3038 2890 2622 
Q 3303 2206 3303 1553 
Q 3303 931 2941 478 
Q 2500 -78 1738 -78 
Q 1113 -78 717 272 
Q 322 622 266 1200 
z
" transform="scale(0.015625)"/>
       </defs>
       <use xlink:href="#ArialMT-35"/>
       <use xlink:href="#ArialMT-30" x="55.615234"/>
      </g>
     </g>
    </g>
    <g id="ytick_7">
     <g id="line2d_13">
      <path d="M 43.2 119.427898 
L 311.04 119.427898 
" clip-path="url(#pe8fdb4c972)" style="fill: none; stroke: #ffffff; stroke-linecap: round"/>
     </g>
     <g id="text_14">
      <!-- 60 -->
      <g style="fill: #262626" transform="translate(21.465937 123.364694) scale(0.11 -0.11)">
       <use xlink:href="#ArialMT-36"/>
       <use xlink:href="#ArialMT-30" x="55.615234"/>
      </g>
     </g>
    </g>
    <g id="ytick_8">
     <g id="line2d_14">
      <path d="M 43.2 88.032547 
L 311.04 88.032547 
" clip-path="url(#pe8fdb4c972)" style="fill: none; stroke: #ffffff; stroke-linecap: round"/>
     </g>
     <g id="text_15">
      <!-- 70 -->
      <g style="fill: #262626" transform="translate(21.465937 91.969344) scale(0.11 -0.11)">
       <defs>
        <path id="ArialMT-37" d="M 303 3981 
L 303 4522 
L 3269 4522 
L 3269 4084 
Q 2831 3619 2401 2847 
Q 1972 2075 1738 1259 
Q 1569 684 1522 0 
L 944 0 
Q 953 541 1156 1306 
Q 1359 2072 1739 2783 
Q 2119 3494 2547 3981 
L 303 3981 
z
" transform="scale(0.015625)"/>
       </defs>
       <use xlink:href="#ArialMT-37"/>
       <use xlink:href="#ArialMT-30" x="55.615234"/>
      </g>
     </g>
    </g>
    <g id="ytick_9">
     <g id="line2d_15">
      <path d="M 43.2 56.637197 
L 311.04 56.637197 
" clip-path="url(#pe8fdb4c972)" style="fill: none; stroke: #ffffff; stroke-linecap: round"/>
     </g>
     <g id="text_16">
      <!-- 80 -->
      <g style="fill: #262626" transform="translate(21.465937 60.573994) scale(0.11 -0.11)">
       <use xlink:href="#ArialMT-38"/>
       <use xlink:href="#ArialMT-30" x="55.615234"/>
      </g>
     </g>
    </g>
    <g id="text_17">
     <!-- intensity (%) -->
     <g style="fill: #262626" transform="translate(14.940312 214.8075) rotate(-90) scale(0.12 -0.12)">
      <defs>
       <path id="ArialMT-69" d="M 425 3934 
L 425 4581 
L 988 4581 
L 988 3934 
L 425 3934 
z
M 425 0 
L 425 3319 
L 988 3319 
L 988 0 
L 425 0 
z
" transform="scale(0.015625)"/>
       <path id="ArialMT-74" d="M 1650 503 
L 1731 6 
Q 1494 -44 1306 -44 
Q 1000 -44 831 53 
Q 663 150 594 308 
Q 525 466 525 972 
L 525 2881 
L 113 2881 
L 113 3319 
L 525 3319 
L 525 4141 
L 1084 4478 
L 1084 3319 
L 1650 3319 
L 1650 2881 
L 1084 2881 
L 1084 941 
Q 1084 700 1114 631 
Q 1144 563 1211 522 
Q 1278 481 1403 481 
Q 1497 481 1650 503 
z
" transform="scale(0.015625)"/>
       <path id="ArialMT-73" d="M 197 991 
L 753 1078 
Q 800 744 1014 566 
Q 1228 388 1613 388 
Q 2000 388 2187 545 
Q 2375 703 2375 916 
Q 2375 1106 2209 1216 
Q 2094 1291 1634 1406 
Q 1016 1563 777 1677 
Q 538 1791 414 1992 
Q 291 2194 291 2438 
Q 291 2659 392 2848 
Q 494 3038 669 3163 
Q 800 3259 1026 3326 
Q 1253 3394 1513 3394 
Q 1903 3394 2198 3281 
Q 2494 3169 2634 2976 
Q 2775 2784 2828 2463 
L 2278 2388 
Q 2241 2644 2061 2787 
Q 1881 2931 1553 2931 
Q 1166 2931 1000 2803 
Q 834 2675 834 2503 
Q 834 2394 903 2306 
Q 972 2216 1119 2156 
Q 1203 2125 1616 2013 
Q 2213 1853 2448 1751 
Q 2684 1650 2818 1456 
Q 2953 1263 2953 975 
Q 2953 694 2789 445 
Q 2625 197 2315 61 
Q 2006 -75 1616 -75 
Q 969 -75 630 194 
Q 291 463 197 991 
z
" transform="scale(0.015625)"/>
       <path id="ArialMT-79" d="M 397 -1278 
L 334 -750 
Q 519 -800 656 -800 
Q 844 -800 956 -737 
Q 1069 -675 1141 -563 
Q 1194 -478 1313 -144 
Q 1328 -97 1363 -6 
L 103 3319 
L 709 3319 
L 1400 1397 
Q 1534 1031 1641 628 
Q 1738 1016 1872 1384 
L 2581 3319 
L 3144 3319 
L 1881 -56 
Q 1678 -603 1566 -809 
Q 1416 -1088 1222 -1217 
Q 1028 -1347 759 -1347 
Q 597 -1347 397 -1278 
z
" transform="scale(0.015625)"/>
      </defs>
      <use xlink:href="#ArialMT-69"/>
      <use xlink:href="#ArialMT-6e" x="22.216797"/>
      <use xlink:href="#ArialMT-74" x="77.832031"/>
      <use xlink:href="#ArialMT-65" x="105.615234"/>
      <use xlink:href="#ArialMT-6e" x="161.230469"/>
      <use xlink:href="#ArialMT-73" x="216.845703"/>
      <use xlink:href="#ArialMT-69" x="266.845703"/>
      <use xlink:href="#ArialMT-74" x="289.0625"/>
      <use xlink:href="#ArialMT-79" x="316.845703"/>
      <use xlink:href="#ArialMT-20" x="366.845703"/>
      <use xlink:href="#ArialMT-28" x="394.628906"/>
      <use xlink:href="#ArialMT-25" x="427.929688"/>
      <use xlink:href="#ArialMT-29" x="516.845703"/>
     </g>
    </g>
   </g>
   <g id="line2d_16">
    <path d="M 55.374545 292.31316 
L 55.851044 292.619831 
L 56.327543 292.466496 
L 56.804042 291.163148 
L 57.280541 291.239815 
L 58.233539 289.8598 
L 58.710037 289.55313 
L 59.186536 289.016457 
L 59.663035 288.019779 
L 60.139534 287.713109 
L 60.616033 287.176436 
L 61.092532 286.946434 
L 61.56903 286.026424 
L 62.045529 285.643086 
L 62.522028 284.799743 
L 63.475026 283.726398 
L 63.951525 282.653053 
L 64.904522 281.733042 
L 65.381021 281.656375 
L 65.85752 281.426372 
L 66.334019 281.426372 
L 66.810518 281.733042 
L 67.287017 281.119702 
L 67.763515 281.579707 
L 68.240014 281.733042 
L 68.716513 282.039712 
L 69.193012 282.653053 
L 69.669511 282.499718 
L 70.14601 282.806388 
L 71.099007 284.033068 
L 71.575506 285.873089 
L 72.052005 285.489751 
L 72.528504 286.103091 
L 73.005003 286.333094 
L 73.481502 287.099769 
L 74.434499 287.099769 
L 74.910998 286.793099 
L 75.387497 286.793099 
L 75.863996 285.413083 
L 76.340495 285.566419 
L 77.769991 281.886377 
L 78.24649 279.586352 
L 78.722989 276.366316 
L 79.199488 270.462917 
L 80.152485 250.452693 
L 80.628984 236.652539 
L 81.105483 227.299102 
L 81.581982 229.905797 
L 83.011478 269.159569 
L 83.487977 277.746331 
L 83.964476 282.499718 
L 84.440975 285.413083 
L 85.393973 288.93979 
L 85.870471 290.47314 
L 86.34697 291.08648 
L 86.823469 292.31316 
L 87.776467 293.079836 
L 88.252966 293.079836 
L 88.729465 293.233171 
L 89.682462 293.923178 
L 90.63546 293.999846 
L 91.111959 293.693176 
L 91.588458 293.999846 
L 92.064956 293.999846 
L 92.541455 293.539841 
L 93.017954 293.846511 
L 93.494453 293.539841 
L 93.970952 293.539841 
L 94.447451 293.693176 
L 94.923949 292.619831 
L 95.400448 293.079836 
L 97.306444 289.706465 
L 97.782943 288.556452 
L 98.259441 286.946434 
L 98.73594 284.799743 
L 99.212439 283.879733 
L 99.688938 283.266393 
L 100.165437 284.033068 
L 100.641936 284.493073 
L 101.118434 284.493073 
L 101.594933 285.873089 
L 102.071432 285.413083 
L 102.547931 286.409761 
L 103.02443 286.103091 
L 104.453926 287.253104 
L 104.930425 287.866444 
L 105.406924 287.406439 
L 106.359922 288.479784 
L 107.312919 289.016457 
L 107.789418 289.55313 
L 108.265917 289.24646 
L 108.742416 289.24646 
L 109.218915 289.55313 
L 110.171912 290.47314 
L 110.648411 290.396472 
L 111.12491 290.626475 
L 111.601409 290.47314 
L 112.077908 290.77981 
L 112.554407 290.16647 
L 113.507404 291.08648 
L 113.983903 290.396472 
L 114.936901 290.856478 
L 115.4134 290.703143 
L 115.889899 289.936467 
L 116.366397 290.933145 
L 116.842896 290.703143 
L 117.319395 290.856478 
L 117.795894 290.703143 
L 118.272393 290.703143 
L 118.748892 291.469818 
L 119.22539 290.703143 
L 120.178388 291.469818 
L 120.654887 291.39315 
L 121.607885 290.626475 
L 122.084384 290.933145 
L 122.560882 290.77981 
L 123.037381 290.243137 
L 124.943377 290.933145 
L 125.419875 290.319805 
L 125.896374 290.319805 
L 126.372873 289.706465 
L 126.849372 290.089802 
L 127.325871 290.77981 
L 127.80237 290.396472 
L 128.278869 290.16647 
L 128.755367 290.243137 
L 129.231866 290.089802 
L 130.184864 290.013135 
L 130.661363 289.936467 
L 131.137862 290.319805 
L 131.61436 290.089802 
L 132.090859 290.319805 
L 132.567358 290.089802 
L 133.043857 289.706465 
L 133.520356 289.783132 
L 133.996855 290.16647 
L 134.473353 289.399795 
L 135.426351 290.013135 
L 135.90285 289.24646 
L 136.379349 289.629797 
L 137.332347 289.24646 
L 137.808845 289.55313 
L 138.285344 289.706465 
L 139.238342 289.399795 
L 139.714841 288.633119 
L 140.19134 289.476462 
L 141.144337 288.786454 
L 141.620836 289.706465 
L 142.097335 288.786454 
L 142.573834 288.93979 
L 143.050333 288.93979 
L 143.526832 289.55313 
L 144.00333 289.24646 
L 144.479829 288.479784 
L 144.956328 288.479784 
L 145.432827 289.24646 
L 145.909326 288.786454 
L 146.385825 288.93979 
L 146.862323 288.633119 
L 147.338822 289.016457 
L 148.29182 288.479784 
L 148.768319 288.709787 
L 149.244818 288.173114 
L 149.721316 288.93979 
L 150.197815 288.633119 
L 150.674314 288.479784 
L 151.627312 289.093125 
L 152.103811 288.709787 
L 152.58031 288.633119 
L 153.056808 288.786454 
L 153.533307 288.479784 
L 154.009806 288.786454 
L 154.486305 288.019779 
L 154.962804 288.249782 
L 155.439303 288.633119 
L 155.915801 288.019779 
L 156.3923 288.326449 
L 157.345298 288.019779 
L 157.821797 287.559774 
L 158.774795 287.636442 
L 159.251293 287.713109 
L 159.727792 287.559774 
L 160.204291 287.559774 
L 160.68079 288.173114 
L 161.157289 288.173114 
L 161.633788 287.866444 
L 162.110286 287.406439 
L 163.063284 288.479784 
L 164.016282 287.406439 
L 164.492781 288.403117 
L 164.969279 287.559774 
L 165.445778 288.019779 
L 165.922277 288.019779 
L 167.351774 287.636442 
L 167.828273 288.019779 
L 168.304771 288.173114 
L 168.78127 287.406439 
L 169.257769 287.943112 
L 170.210767 287.253104 
L 171.640263 287.329772 
L 172.116762 287.406439 
L 172.593261 286.869766 
L 173.06976 287.559774 
L 173.546259 286.946434 
L 174.022758 287.406439 
L 174.499256 287.253104 
L 175.452254 286.563096 
L 175.928753 286.639764 
L 176.405252 287.176436 
L 176.881751 286.793099 
L 177.358249 286.179759 
L 177.834748 286.486429 
L 178.311247 287.099769 
L 178.787746 286.486429 
L 179.264245 286.486429 
L 179.740744 286.793099 
L 180.693741 286.256426 
L 181.17024 285.566419 
L 181.646739 286.026424 
L 182.123238 285.873089 
L 182.599737 285.106413 
L 183.076236 285.719754 
L 183.552734 285.873089 
L 184.029233 284.953078 
L 184.505732 285.106413 
L 184.982231 285.029746 
L 185.45873 284.186403 
L 185.935229 284.953078 
L 186.411727 284.569741 
L 186.888226 284.569741 
L 187.364725 284.186403 
L 188.317723 282.42305 
L 188.794222 282.193048 
L 189.747219 280.966367 
L 190.223718 279.433017 
L 190.700217 279.893022 
L 191.176716 279.586352 
L 191.653215 278.513006 
L 192.129714 278.206336 
L 192.606212 278.743009 
L 193.082711 278.513006 
L 194.512208 279.739687 
L 195.465205 280.199692 
L 196.418203 282.193048 
L 196.894702 283.726398 
L 197.371201 284.263071 
L 197.8477 284.493073 
L 198.324199 284.953078 
L 198.800697 285.719754 
L 199.277196 286.103091 
L 199.753695 286.333094 
L 200.230194 287.253104 
L 200.706693 287.099769 
L 201.65969 288.633119 
L 202.136189 288.556452 
L 202.612688 288.863122 
L 203.089187 289.629797 
L 203.565686 289.399795 
L 204.042185 290.013135 
L 204.518684 290.013135 
L 204.995182 290.47314 
L 205.471681 290.16647 
L 206.424679 290.77981 
L 206.901178 290.319805 
L 208.330674 291.546485 
L 209.283672 291.08648 
L 209.760171 291.316483 
L 210.23667 291.316483 
L 210.713168 291.623153 
L 211.189667 291.546485 
L 211.666166 292.159825 
L 212.142665 291.69982 
L 212.619164 291.546485 
L 213.095663 292.466496 
L 213.572162 292.466496 
L 214.04866 292.619831 
L 215.001658 292.31316 
L 215.478157 292.926501 
L 216.431155 292.31316 
L 216.907653 293.003168 
L 217.384152 293.233171 
L 217.860651 292.926501 
L 218.33715 293.616508 
L 219.290148 293.386506 
L 219.766647 293.079836 
L 220.243145 293.463173 
L 220.719644 293.693176 
L 221.196143 293.693176 
L 221.672642 294.613186 
L 222.149141 293.923178 
L 223.102138 294.383184 
L 224.055136 294.306516 
L 224.531635 294.153181 
L 225.008134 294.613186 
L 225.484633 294.613186 
L 225.961131 295.073191 
L 226.43763 294.383184 
L 226.914129 294.919856 
L 227.390628 294.613186 
L 227.867127 295.073191 
L 228.343626 295.149859 
L 228.820125 295.073191 
L 229.296623 295.226526 
L 229.773122 295.533196 
L 230.249621 295.226526 
L 230.72612 295.379861 
L 231.679118 295.379861 
L 232.155616 295.686531 
L 232.632115 295.763199 
L 233.108614 296.299872 
L 233.585113 296.146537 
L 234.061612 295.763199 
L 234.538111 295.839867 
L 235.01461 296.069869 
L 235.491108 295.686531 
L 235.967607 296.299872 
L 236.444106 296.146537 
L 236.920605 296.146537 
L 237.397104 296.836544 
L 237.873603 296.299872 
L 238.350101 296.606542 
L 238.8266 297.066547 
L 239.303099 296.759877 
L 240.256097 296.683209 
L 240.732596 296.606542 
L 241.209094 296.683209 
L 241.685593 296.299872 
L 242.162092 297.066547 
L 242.638591 296.759877 
L 243.11509 297.219882 
L 243.591589 296.606542 
L 244.068088 297.066547 
L 244.544586 297.219882 
L 245.021085 297.066547 
L 245.497584 297.373217 
L 245.974083 297.219882 
L 246.450582 296.299872 
L 246.927081 297.526552 
L 247.403579 297.143214 
L 247.880078 297.066547 
L 248.356577 297.219882 
L 248.833076 296.683209 
L 249.309575 296.913212 
L 249.786074 297.526552 
L 250.262572 297.066547 
L 250.739071 297.219882 
L 252.168568 297.143214 
L 252.645067 297.526552 
L 253.598064 296.836544 
L 254.074563 297.679887 
L 254.551062 297.066547 
L 255.027561 297.526552 
L 255.50406 297.066547 
L 255.980559 297.373217 
L 256.933556 296.989879 
L 257.886554 297.373217 
L 259.316051 297.756555 
L 260.269048 297.679887 
L 260.745547 297.066547 
L 261.698545 298.293227 
L 262.175044 297.833222 
L 262.651542 297.679887 
L 263.128041 298.446562 
L 263.60454 298.293227 
L 264.081039 298.369895 
L 264.557538 297.986557 
L 265.034037 298.369895 
L 265.510535 298.52323 
L 267.416531 297.986557 
L 268.846027 297.986557 
L 269.322526 297.449884 
L 269.799025 297.526552 
L 270.275524 297.833222 
L 270.752023 297.90989 
L 271.228522 297.679887 
L 271.70502 298.063225 
L 272.181519 297.143214 
L 272.658018 297.679887 
L 273.134517 297.833222 
L 274.087515 297.756555 
L 274.564014 297.679887 
L 275.040512 297.143214 
L 275.517011 297.833222 
L 276.470009 297.833222 
L 276.946508 297.526552 
L 277.423007 297.449884 
L 277.899505 297.756555 
L 278.852503 297.833222 
L 279.329002 297.679887 
L 279.805501 297.143214 
L 280.282 297.679887 
L 280.758498 297.679887 
L 281.234997 297.449884 
L 282.187995 297.60322 
L 282.664494 297.526552 
L 283.617492 297.679887 
L 284.09399 297.986557 
L 284.570489 297.90989 
L 285.046988 297.526552 
L 285.523487 298.063225 
L 285.999986 298.139892 
L 286.476485 297.833222 
L 286.952983 297.986557 
L 287.429482 297.679887 
L 287.905981 298.21656 
L 288.858979 298.753232 
L 289.335478 298.293227 
L 289.811977 298.52323 
L 290.764974 298.293227 
L 291.241473 298.52323 
L 291.717972 298.599897 
L 292.194471 298.446562 
L 292.67097 298.753232 
L 293.147468 298.753232 
L 293.623967 298.599897 
L 294.100466 298.906567 
L 295.053464 298.293227 
L 295.529963 298.906567 
L 296.006461 299.059902 
L 296.48296 298.599897 
L 296.959459 298.906567 
L 297.435958 298.446562 
L 297.912457 298.676565 
L 298.388956 298.599897 
L 298.865455 298.676565 
L 298.865455 298.676565 
" clip-path="url(#pe8fdb4c972)" style="fill: none; stroke: #ff7f0e; stroke-width: 1.5; stroke-linecap: round"/>
   </g>
   <g id="line2d_17">
    <path d="M 55.374545 306.46619 
L 55.851044 307.8 
L 56.327543 307.8 
L 56.804042 307.237963 
L 57.75704 307.8 
L 58.233539 307.330395 
L 58.710037 307.8 
L 59.186536 307.8 
L 60.139534 307.428113 
L 60.616033 307.8 
L 66.810518 307.8 
L 67.287017 307.471946 
L 67.763515 307.8 
L 68.240014 307.687206 
L 68.716513 307.223289 
L 69.193012 307.444369 
L 69.669511 306.080345 
L 70.14601 305.518734 
L 70.622508 305.555848 
L 71.099007 304.759967 
L 71.575506 306.646894 
L 72.052005 304.323044 
L 72.528504 304.316907 
L 73.005003 303.305936 
L 73.481502 302.920794 
L 73.958 301.981691 
L 74.434499 300.177428 
L 74.910998 297.864435 
L 75.387497 296.736802 
L 75.863996 292.112923 
L 76.340495 290.233787 
L 77.769991 275.629192 
L 78.24649 266.067566 
L 78.722989 253.789361 
L 79.199488 232.717718 
L 79.675986 199.09727 
L 80.152485 156.378181 
L 81.105483 56.532904 
L 81.581982 55.8 
L 83.487977 232.119355 
L 83.964476 250.215711 
L 84.440975 263.131017 
L 84.917474 271.547345 
L 85.393973 276.555702 
L 85.870471 283.681152 
L 86.34697 287.17336 
L 86.823469 291.558039 
L 87.776467 295.210258 
L 88.252966 294.230806 
L 88.729465 296.705009 
L 89.682462 299.049057 
L 90.158961 297.359459 
L 90.63546 298.210066 
L 91.111959 298.356068 
L 92.064956 299.192766 
L 92.541455 297.7833 
L 93.017954 299.361178 
L 93.494453 297.481726 
L 93.970952 298.378381 
L 94.447451 298.914093 
L 94.923949 294.696666 
L 95.400448 296.265572 
L 96.353446 291.114031 
L 96.829945 287.164538 
L 97.306444 284.273148 
L 98.259441 273.372628 
L 98.73594 265.483389 
L 99.212439 263.187851 
L 99.688938 261.462602 
L 100.165437 266.932708 
L 100.641936 270.142093 
L 101.118434 271.03833 
L 101.594933 277.402471 
L 102.071432 276.423085 
L 102.547931 281.773069 
L 103.02443 282.266695 
L 103.500929 283.672921 
L 103.977428 286.458444 
L 104.453926 288.116633 
L 104.930425 291.077928 
L 105.406924 290.516905 
L 105.883423 292.036339 
L 106.359922 295.02926 
L 106.836421 295.740027 
L 107.312919 297.200571 
L 107.789418 299.450083 
L 108.265917 298.7918 
L 108.742416 299.302378 
L 109.218915 300.622724 
L 109.695414 302.604336 
L 110.171912 303.802595 
L 110.648411 303.85403 
L 111.12491 304.622766 
L 111.601409 305.044327 
L 112.077908 305.778343 
L 112.554407 304.488526 
L 113.030906 305.528751 
L 113.507404 306.836748 
L 113.983903 306.224857 
L 114.460402 306.560174 
L 114.936901 307.031886 
L 115.4134 306.888876 
L 115.889899 305.710919 
L 116.366397 307.8 
L 116.842896 307.21715 
L 117.795894 307.8 
L 118.272393 307.659485 
L 118.748892 307.8 
L 157.345298 307.8 
L 157.821797 307.631012 
L 158.774795 307.8 
L 159.251293 307.632059 
L 160.68079 307.633856 
L 161.157289 307.8 
L 161.633788 307.8 
L 162.110286 307.470809 
L 162.586785 307.718153 
L 163.063284 307.8 
L 163.539783 307.635561 
L 164.016282 307.227942 
L 164.492781 307.8 
L 164.969279 307.474035 
L 165.445778 307.8 
L 166.398776 307.718937 
L 166.875275 307.639805 
L 167.351774 307.401284 
L 167.828273 307.8 
L 168.304771 307.8 
L 168.78127 307.325564 
L 169.257769 307.8 
L 170.210767 307.252569 
L 170.687266 307.175904 
L 171.163764 307.251548 
L 171.640263 307.170697 
L 172.116762 307.408543 
L 172.593261 306.784704 
L 173.06976 307.486787 
L 173.546259 306.860526 
L 174.022758 307.016148 
L 174.499256 307.019488 
L 174.975755 306.783935 
L 175.452254 306.382047 
L 175.928753 306.23401 
L 176.405252 307.020745 
L 177.358249 305.94952 
L 178.311247 306.473185 
L 178.787746 305.945842 
L 179.264245 306.021956 
L 179.740744 306.26665 
L 180.217242 305.878963 
L 180.693741 305.78987 
L 181.17024 304.951507 
L 181.646739 305.261539 
L 182.123238 305.267526 
L 182.599737 304.477632 
L 183.076236 304.930547 
L 183.552734 305.016136 
L 184.029233 304.412451 
L 184.982231 304.07843 
L 185.45873 303.508305 
L 185.935229 304.031063 
L 186.411727 303.538809 
L 186.888226 303.396214 
L 187.364725 302.948284 
L 187.841224 301.836961 
L 188.317723 301.220395 
L 188.794222 300.812402 
L 189.270721 299.886733 
L 189.747219 299.394072 
L 190.223718 297.703542 
L 190.700217 298.227768 
L 191.653215 296.540437 
L 192.129714 295.863534 
L 192.606212 296.234954 
L 193.082711 296.191436 
L 193.55921 296.321723 
L 194.035709 296.920284 
L 194.512208 296.987951 
L 194.988707 296.863301 
L 195.465205 297.052538 
L 197.371201 301.017454 
L 197.8477 301.313642 
L 198.324199 301.468276 
L 198.800697 302.174269 
L 199.277196 302.616847 
L 199.753695 302.750198 
L 200.230194 303.613487 
L 200.706693 303.326862 
L 201.65969 305.047964 
L 202.136189 304.833921 
L 202.612688 305.0151 
L 203.089187 305.617757 
L 203.565686 305.091462 
L 204.042185 305.868097 
L 204.518684 305.839732 
L 204.995182 306.415408 
L 205.471681 305.999874 
L 206.424679 306.151775 
L 206.901178 305.7253 
L 207.377677 306.53793 
L 207.854175 306.520579 
L 208.330674 307.258821 
L 209.283672 306.24926 
L 209.760171 306.229198 
L 210.713168 306.560644 
L 211.189667 306.663423 
L 211.666166 306.881994 
L 212.619164 306.043597 
L 213.095663 307.206166 
L 213.572162 307.320566 
L 214.525159 307.061334 
L 215.001658 306.793461 
L 215.478157 307.544534 
L 215.954656 306.757543 
L 216.431155 306.342721 
L 216.907653 307.131774 
L 217.384152 307.530886 
L 217.860651 306.981502 
L 218.33715 307.661769 
L 218.813649 307.238886 
L 219.290148 307.089196 
L 219.766647 306.356979 
L 220.243145 306.916961 
L 221.196143 307.190149 
L 221.672642 307.8 
L 222.149141 307.022482 
L 222.62564 307.484001 
L 223.578637 307.47267 
L 224.055136 307.308879 
L 224.531635 306.640178 
L 225.008134 307.8 
L 225.484633 307.461573 
L 225.961131 307.456783 
L 226.43763 306.932646 
L 226.914129 307.2701 
L 227.390628 306.72343 
L 227.867127 307.432382 
L 228.343626 307.613151 
L 228.820125 307.043009 
L 229.296623 307.222165 
L 229.773122 307.8 
L 230.249621 307.00241 
L 230.72612 307.395491 
L 231.202619 307.18096 
L 231.679118 307.377785 
L 232.632115 307.364172 
L 233.585113 307.8 
L 234.061612 307.126592 
L 234.538111 306.67007 
L 235.01461 307.340101 
L 235.491108 307.329382 
L 235.967607 307.561405 
L 236.444106 307.314953 
L 237.397104 307.8 
L 237.873603 307.546814 
L 238.350101 307.8 
L 239.779598 307.8 
L 240.256097 307.257759 
L 240.732596 307.247924 
L 241.209094 307.8 
L 241.685593 306.082444 
L 242.162092 307.8 
L 242.638591 306.902543 
L 243.11509 307.8 
L 243.591589 306.581608 
L 244.068088 307.8 
L 245.497584 307.8 
L 245.974083 307.147063 
L 246.450582 305.141929 
L 246.927081 307.123403 
L 247.403579 307.8 
L 247.880078 307.097476 
L 248.356577 307.8 
L 248.833076 305.653773 
L 249.786074 307.8 
L 250.262572 306.666888 
L 250.739071 307.04009 
L 251.21557 307.8 
L 251.692069 307.405873 
L 252.168568 306.584566 
L 252.645067 306.988257 
L 253.121566 306.562947 
L 253.598064 305.299399 
L 254.074563 307.8 
L 254.551062 306.075945 
L 255.027561 306.929245 
L 255.50406 305.589015 
L 255.980559 306.460322 
L 256.457057 305.978869 
L 256.933556 305.055218 
L 257.886554 305.883523 
L 258.363053 307.305681 
L 258.839552 307.8 
L 259.316051 307.8 
L 259.792549 307.286735 
L 260.269048 307.8 
L 260.745547 304.579202 
L 261.222046 306.703493 
L 261.698545 307.8 
L 268.846027 307.8 
L 269.322526 305.201162 
L 269.799025 307.144458 
L 270.275524 307.8 
L 271.70502 307.8 
L 272.181519 304.375788 
L 272.658018 306.417574 
L 273.134517 307.8 
L 274.564014 307.8 
L 275.040512 304.890816 
L 275.517011 307.8 
L 279.329002 307.8 
L 279.805501 306.999583 
L 280.282 307.8 
L 286.952983 307.8 
L 287.429482 306.843278 
L 287.905981 307.8 
L 298.865455 307.8 
L 298.865455 307.8 
" clip-path="url(#pe8fdb4c972)" style="fill: none; stroke: #1f77b4; stroke-width: 1.5; stroke-linecap: round"/>
   </g>
   <g id="patch_3">
    <path d="M 43.2 320.4 
L 43.2 43.2 
" style="fill: none; stroke: #ffffff; stroke-width: 1.25; stroke-linejoin: miter; stroke-linecap: square"/>
   </g>
   <g id="patch_4">
    <path d="M 311.04 320.4 
L 311.04 43.2 
" style="fill: none; stroke: #ffffff; stroke-width: 1.25; stroke-linejoin: miter; stroke-linecap: square"/>
   </g>
   <g id="patch_5">
    <path d="M 43.2 320.4 
L 311.04 320.4 
" style="fill: none; stroke: #ffffff; stroke-width: 1.25; stroke-linejoin: miter; stroke-linecap: square"/>
   </g>
   <g id="patch_6">
    <path d="M 43.2 43.2 
L 311.04 43.2 
" style="fill: none; stroke: #ffffff; stroke-width: 1.25; stroke-linejoin: miter; stroke-linecap: square"/>
   </g>
   <g id="legend_1">
    <g id="patch_7">
     <path d="M 246.743281 83.119687 
L 303.34 83.119687 
Q 305.54 83.119687 305.54 80.919687 
L 305.54 50.9 
Q 305.54 48.7 303.34 48.7 
L 246.743281 48.7 
Q 244.543281 48.7 244.543281 50.9 
L 244.543281 80.919687 
Q 244.543281 83.119687 246.743281 83.119687 
z
" style="fill: #eaeaf2; opacity: 0.8; stroke: #cccccc; stroke-linejoin: miter"/>
    </g>
    <g id="line2d_18">
     <path d="M 248.943281 57.123594 
L 259.943281 57.123594 
L 270.943281 57.123594 
" style="fill: none; stroke: #ff7f0e; stroke-width: 1.5; stroke-linecap: round"/>
    </g>
    <g id="text_18">
     <!-- raw -->
     <g style="fill: #262626" transform="translate(279.743281 60.973594) scale(0.11 -0.11)">
      <defs>
       <path id="ArialMT-77" d="M 1034 0 
L 19 3319 
L 600 3319 
L 1128 1403 
L 1325 691 
Q 1338 744 1497 1375 
L 2025 3319 
L 2603 3319 
L 3100 1394 
L 3266 759 
L 3456 1400 
L 4025 3319 
L 4572 3319 
L 3534 0 
L 2950 0 
L 2422 1988 
L 2294 2553 
L 1622 0 
L 1034 0 
z
" transform="scale(0.015625)"/>
      </defs>
      <use xlink:href="#ArialMT-72"/>
      <use xlink:href="#ArialMT-61" x="33.300781"/>
      <use xlink:href="#ArialMT-77" x="88.916016"/>
     </g>
    </g>
    <g id="line2d_19">
     <path d="M 248.943281 72.683437 
L 259.943281 72.683437 
L 270.943281 72.683437 
" style="fill: none; stroke: #1f77b4; stroke-width: 1.5; stroke-linecap: round"/>
    </g>
    <g id="text_19">
     <!-- dark -->
     <g style="fill: #262626" transform="translate(279.743281 76.533437) scale(0.11 -0.11)">
      <defs>
       <path id="ArialMT-64" d="M 2575 0 
L 2575 419 
Q 2259 -75 1647 -75 
Q 1250 -75 917 144 
Q 584 363 401 755 
Q 219 1147 219 1656 
Q 219 2153 384 2558 
Q 550 2963 881 3178 
Q 1213 3394 1622 3394 
Q 1922 3394 2156 3267 
Q 2391 3141 2538 2938 
L 2538 4581 
L 3097 4581 
L 3097 0 
L 2575 0 
z
M 797 1656 
Q 797 1019 1065 703 
Q 1334 388 1700 388 
Q 2069 388 2326 689 
Q 2584 991 2584 1609 
Q 2584 2291 2321 2609 
Q 2059 2928 1675 2928 
Q 1300 2928 1048 2622 
Q 797 2316 797 1656 
z
" transform="scale(0.015625)"/>
       <path id="ArialMT-6b" d="M 425 0 
L 425 4581 
L 988 4581 
L 988 1969 
L 2319 3319 
L 3047 3319 
L 1778 2088 
L 3175 0 
L 2481 0 
L 1384 1697 
L 988 1316 
L 988 0 
L 425 0 
z
" transform="scale(0.015625)"/>
      </defs>
      <use xlink:href="#ArialMT-64"/>
      <use xlink:href="#ArialMT-61" x="55.615234"/>
      <use xlink:href="#ArialMT-72" x="111.230469"/>
      <use xlink:href="#ArialMT-6b" x="144.53125"/>
     </g>
    </g>
   </g>
  </g>
 </g>
 <defs>
  <clipPath id="pe8fdb4c972">
   <rect x="43.2" y="43.2" width="267.84" height="277.2"/>
  </clipPath>
 </defs>
</svg>
