<?xml version="1.0" encoding="utf-8" standalone="no"?>
<!DOCTYPE svg PUBLIC "-//W3C//DTD SVG 1.1//EN"
  "http://www.w3.org/Graphics/SVG/1.1/DTD/svg11.dtd">
<svg xmlns:xlink="http://www.w3.org/1999/xlink" width="460.8pt" height="345.6pt" viewBox="0 0 460.8 345.6" xmlns="http://www.w3.org/2000/svg" version="1.1">
 <metadata>
  <rdf:RDF xmlns:dc="http://purl.org/dc/elements/1.1/" xmlns:cc="http://creativecommons.org/ns#" xmlns:rdf="http://www.w3.org/1999/02/22-rdf-syntax-ns#">
   <cc:Work>
    <dc:type rdf:resource="http://purl.org/dc/dcmitype/StillImage"/>
    <dc:date>2024-07-18T11:34:40.557513</dc:date>
    <dc:format>image/svg+xml</dc:format>
    <dc:creator>
     <cc:Agent>
      <dc:title>Matplotlib v3.9.1, https://matplotlib.org/</dc:title>
     </cc:Agent>
    </dc:creator>
   </cc:Work>
  </rdf:RDF>
 </metadata>
 <defs>
  <style type="text/css">*{stroke-linejoin: round; stroke-linecap: butt}</style>
 </defs>
 <g id="figure_1">
  <g id="patch_1">
   <path d="M 0 345.6 
L 460.8 345.6 
L 460.8 0 
L 0 0 
z
" style="fill: #ffffff"/>
  </g>
  <g id="axes_1">
   <g id="patch_2">
    <path d="M 369.216 174.528 
C 369.216 157.055246 365.774248 139.752393 359.087715 123.609673 
C 352.401182 107.466954 342.599903 92.798303 330.2448 80.4432 
C 317.889697 68.088097 303.221046 58.286818 287.078327 51.600285 
C 270.935607 44.913752 253.632754 41.472 236.16 41.472 
C 218.687246 41.472 201.384393 44.913752 185.241673 51.600285 
C 169.098954 58.286818 154.430303 68.088097 142.0752 80.4432 
C 129.720097 92.798303 119.918818 107.466954 113.232285 123.609673 
C 106.545752 139.752393 103.104 157.055246 103.104 174.528 
C 103.104 192.000754 106.545752 209.303607 113.232285 225.446327 
C 119.918818 241.589046 129.720097 256.257697 142.0752 268.6128 
C 154.430303 280.967903 169.098954 290.769182 185.241673 297.455715 
C 201.384393 304.142248 218.687246 307.584 236.16 307.584 
C 253.632754 307.584 270.935607 304.142248 287.078327 297.455715 
C 303.221046 290.769182 317.889697 280.967903 330.2448 268.6128 
C 342.599903 256.257697 352.401182 241.589046 359.087715 225.446327 
C 365.774248 209.303607 369.216 192.000754 369.216 174.528 
M 236.16 174.528 
C 236.16 174.528 236.16 174.528 236.16 174.528 
C 236.16 174.528 236.16 174.528 236.16 174.528 
C 236.16 174.528 236.16 174.528 236.16 174.528 
C 236.16 174.528 236.16 174.528 236.16 174.528 
C 236.16 174.528 236.16 174.528 236.16 174.528 
C 236.16 174.528 236.16 174.528 236.16 174.528 
C 236.16 174.528 236.16 174.528 236.16 174.528 
C 236.16 174.528 236.16 174.528 236.16 174.528 
C 236.16 174.528 236.16 174.528 236.16 174.528 
C 236.16 174.528 236.16 174.528 236.16 174.528 
C 236.16 174.528 236.16 174.528 236.16 174.528 
C 236.16 174.528 236.16 174.528 236.16 174.528 
C 236.16 174.528 236.16 174.528 236.16 174.528 
C 236.16 174.528 236.16 174.528 236.16 174.528 
C 236.16 174.528 236.16 174.528 236.16 174.528 
C 236.16 174.528 236.16 174.528 236.16 174.528 
z
" style="fill: #eaeaf2"/>
   </g>
   <g id="matplotlib.axis_1">
    <g id="xtick_1">
     <g id="line2d_1">
      <path d="M 236.16 174.528 
L 236.16 41.472 
" clip-path="url(#p0332b8afe5)" style="fill: none; stroke: #ffffff; stroke-linecap: round"/>
     </g>
     <g id="text_1">
      <!-- 0° -->
      <g style="fill: #262626" transform="translate(230.902344 27.815672) scale(0.11 -0.11)">
       <defs>
        <path id="ArialMT-30" d="M 266 2259 
Q 266 3072 433 3567 
Q 600 4063 929 4331 
Q 1259 4600 1759 4600 
Q 2128 4600 2406 4451 
Q 2684 4303 2865 4023 
Q 3047 3744 3150 3342 
Q 3253 2941 3253 2259 
Q 3253 1453 3087 958 
Q 2922 463 2592 192 
Q 2263 -78 1759 -78 
Q 1097 -78 719 397 
Q 266 969 266 2259 
z
M 844 2259 
Q 844 1131 1108 757 
Q 1372 384 1759 384 
Q 2147 384 2411 759 
Q 2675 1134 2675 2259 
Q 2675 3391 2411 3762 
Q 2147 4134 1753 4134 
Q 1366 4134 1134 3806 
Q 844 3388 844 2259 
z
" transform="scale(0.015625)"/>
        <path id="ArialMT-b0" d="M 400 3794 
Q 400 4153 654 4406 
Q 909 4659 1266 4659 
Q 1628 4659 1881 4406 
Q 2134 4153 2134 3794 
Q 2134 3434 1879 3179 
Q 1625 2925 1266 2925 
Q 909 2925 654 3178 
Q 400 3431 400 3794 
z
M 741 3794 
Q 741 3575 895 3420 
Q 1050 3266 1269 3266 
Q 1484 3266 1639 3420 
Q 1794 3575 1794 3794 
Q 1794 4013 1639 4167 
Q 1484 4322 1269 4322 
Q 1050 4322 895 4167 
Q 741 4013 741 3794 
z
" transform="scale(0.015625)"/>
       </defs>
       <use xlink:href="#ArialMT-30"/>
       <use xlink:href="#ArialMT-b0" x="55.615234"/>
      </g>
     </g>
    </g>
    <g id="xtick_2">
     <g id="line2d_2">
      <path d="M 236.16 174.528 
L 330.2448 80.4432 
" clip-path="url(#p0332b8afe5)" style="fill: none; stroke: #ffffff; stroke-linecap: round"/>
     </g>
     <g id="text_2">
      <!-- 45° -->
      <g style="fill: #262626" transform="translate(333.59589 71.61961) scale(0.11 -0.11)">
       <defs>
        <path id="ArialMT-34" d="M 2069 0 
L 2069 1097 
L 81 1097 
L 81 1613 
L 2172 4581 
L 2631 4581 
L 2631 1613 
L 3250 1613 
L 3250 1097 
L 2631 1097 
L 2631 0 
L 2069 0 
z
M 2069 1613 
L 2069 3678 
L 634 1613 
L 2069 1613 
z
" transform="scale(0.015625)"/>
        <path id="ArialMT-35" d="M 266 1200 
L 856 1250 
Q 922 819 1161 601 
Q 1400 384 1738 384 
Q 2144 384 2425 690 
Q 2706 997 2706 1503 
Q 2706 1984 2436 2262 
Q 2166 2541 1728 2541 
Q 1456 2541 1237 2417 
Q 1019 2294 894 2097 
L 366 2166 
L 809 4519 
L 3088 4519 
L 3088 3981 
L 1259 3981 
L 1013 2750 
Q 1425 3038 1878 3038 
Q 2478 3038 2890 2622 
Q 3303 2206 3303 1553 
Q 3303 931 2941 478 
Q 2500 -78 1738 -78 
Q 1113 -78 717 272 
Q 322 622 266 1200 
z
" transform="scale(0.015625)"/>
       </defs>
       <use xlink:href="#ArialMT-34"/>
       <use xlink:href="#ArialMT-35" x="55.615234"/>
       <use xlink:href="#ArialMT-b0" x="111.230469"/>
      </g>
     </g>
    </g>
    <g id="xtick_3">
     <g id="line2d_3">
      <path d="M 236.16 174.528 
L 369.216 174.528 
" clip-path="url(#p0332b8afe5)" style="fill: none; stroke: #ffffff; stroke-linecap: round"/>
     </g>
     <g id="text_3">
      <!-- 90° -->
      <g style="fill: #262626" transform="translate(377.399828 177.371672) scale(0.11 -0.11)">
       <defs>
        <path id="ArialMT-39" d="M 350 1059 
L 891 1109 
Q 959 728 1153 556 
Q 1347 384 1650 384 
Q 1909 384 2104 503 
Q 2300 622 2425 820 
Q 2550 1019 2634 1356 
Q 2719 1694 2719 2044 
Q 2719 2081 2716 2156 
Q 2547 1888 2255 1720 
Q 1963 1553 1622 1553 
Q 1053 1553 659 1965 
Q 266 2378 266 3053 
Q 266 3750 677 4175 
Q 1088 4600 1706 4600 
Q 2153 4600 2523 4359 
Q 2894 4119 3086 3673 
Q 3278 3228 3278 2384 
Q 3278 1506 3087 986 
Q 2897 466 2520 194 
Q 2144 -78 1638 -78 
Q 1100 -78 759 220 
Q 419 519 350 1059 
z
M 2653 3081 
Q 2653 3566 2395 3850 
Q 2138 4134 1775 4134 
Q 1400 4134 1122 3828 
Q 844 3522 844 3034 
Q 844 2597 1108 2323 
Q 1372 2050 1759 2050 
Q 2150 2050 2401 2323 
Q 2653 2597 2653 3081 
z
" transform="scale(0.015625)"/>
       </defs>
       <use xlink:href="#ArialMT-39"/>
       <use xlink:href="#ArialMT-30" x="55.615234"/>
       <use xlink:href="#ArialMT-b0" x="111.230469"/>
      </g>
     </g>
    </g>
    <g id="xtick_4">
     <g id="line2d_4">
      <path d="M 236.16 174.528 
L 330.2448 268.6128 
" clip-path="url(#p0332b8afe5)" style="fill: none; stroke: #ffffff; stroke-linecap: round"/>
     </g>
     <g id="text_4">
      <!-- 135° -->
      <g style="fill: #262626" transform="translate(330.537374 283.123734) scale(0.11 -0.11)">
       <defs>
        <path id="ArialMT-31" d="M 2384 0 
L 1822 0 
L 1822 3584 
Q 1619 3391 1289 3197 
Q 959 3003 697 2906 
L 697 3450 
Q 1169 3672 1522 3987 
Q 1875 4303 2022 4600 
L 2384 4600 
L 2384 0 
z
" transform="scale(0.015625)"/>
        <path id="ArialMT-33" d="M 269 1209 
L 831 1284 
Q 928 806 1161 595 
Q 1394 384 1728 384 
Q 2125 384 2398 659 
Q 2672 934 2672 1341 
Q 2672 1728 2419 1979 
Q 2166 2231 1775 2231 
Q 1616 2231 1378 2169 
L 1441 2663 
Q 1497 2656 1531 2656 
Q 1891 2656 2178 2843 
Q 2466 3031 2466 3422 
Q 2466 3731 2256 3934 
Q 2047 4138 1716 4138 
Q 1388 4138 1169 3931 
Q 950 3725 888 3313 
L 325 3413 
Q 428 3978 793 4289 
Q 1159 4600 1703 4600 
Q 2078 4600 2393 4439 
Q 2709 4278 2876 4000 
Q 3044 3722 3044 3409 
Q 3044 3113 2884 2869 
Q 2725 2625 2413 2481 
Q 2819 2388 3044 2092 
Q 3269 1797 3269 1353 
Q 3269 753 2831 336 
Q 2394 -81 1725 -81 
Q 1122 -81 723 278 
Q 325 638 269 1209 
z
" transform="scale(0.015625)"/>
       </defs>
       <use xlink:href="#ArialMT-31"/>
       <use xlink:href="#ArialMT-33" x="55.615234"/>
       <use xlink:href="#ArialMT-35" x="111.230469"/>
       <use xlink:href="#ArialMT-b0" x="166.845703"/>
      </g>
     </g>
    </g>
    <g id="xtick_5">
     <g id="line2d_5">
      <path d="M 236.16 174.528 
L 236.16 307.584 
" clip-path="url(#p0332b8afe5)" style="fill: none; stroke: #ffffff; stroke-linecap: round"/>
     </g>
     <g id="text_5">
      <!-- 180° -->
      <g style="fill: #262626" transform="translate(224.785313 326.927672) scale(0.11 -0.11)">
       <defs>
        <path id="ArialMT-38" d="M 1131 2484 
Q 781 2613 612 2850 
Q 444 3088 444 3419 
Q 444 3919 803 4259 
Q 1163 4600 1759 4600 
Q 2359 4600 2725 4251 
Q 3091 3903 3091 3403 
Q 3091 3084 2923 2848 
Q 2756 2613 2416 2484 
Q 2838 2347 3058 2040 
Q 3278 1734 3278 1309 
Q 3278 722 2862 322 
Q 2447 -78 1769 -78 
Q 1091 -78 675 323 
Q 259 725 259 1325 
Q 259 1772 486 2073 
Q 713 2375 1131 2484 
z
M 1019 3438 
Q 1019 3113 1228 2906 
Q 1438 2700 1772 2700 
Q 2097 2700 2305 2904 
Q 2513 3109 2513 3406 
Q 2513 3716 2298 3927 
Q 2084 4138 1766 4138 
Q 1444 4138 1231 3931 
Q 1019 3725 1019 3438 
z
M 838 1322 
Q 838 1081 952 856 
Q 1066 631 1291 507 
Q 1516 384 1775 384 
Q 2178 384 2440 643 
Q 2703 903 2703 1303 
Q 2703 1709 2433 1975 
Q 2163 2241 1756 2241 
Q 1359 2241 1098 1978 
Q 838 1716 838 1322 
z
" transform="scale(0.015625)"/>
       </defs>
       <use xlink:href="#ArialMT-31"/>
       <use xlink:href="#ArialMT-38" x="55.615234"/>
       <use xlink:href="#ArialMT-30" x="111.230469"/>
       <use xlink:href="#ArialMT-b0" x="166.845703"/>
      </g>
     </g>
    </g>
    <g id="xtick_6">
     <g id="line2d_6">
      <path d="M 236.16 174.528 
L 142.0752 268.6128 
" clip-path="url(#p0332b8afe5)" style="fill: none; stroke: #ffffff; stroke-linecap: round"/>
     </g>
     <g id="text_6">
      <!-- 225° -->
      <g style="fill: #262626" transform="translate(119.033251 283.123734) scale(0.11 -0.11)">
       <defs>
        <path id="ArialMT-32" d="M 3222 541 
L 3222 0 
L 194 0 
Q 188 203 259 391 
Q 375 700 629 1000 
Q 884 1300 1366 1694 
Q 2113 2306 2375 2664 
Q 2638 3022 2638 3341 
Q 2638 3675 2398 3904 
Q 2159 4134 1775 4134 
Q 1369 4134 1125 3890 
Q 881 3647 878 3216 
L 300 3275 
Q 359 3922 746 4261 
Q 1134 4600 1788 4600 
Q 2447 4600 2831 4234 
Q 3216 3869 3216 3328 
Q 3216 3053 3103 2787 
Q 2991 2522 2730 2228 
Q 2469 1934 1863 1422 
Q 1356 997 1212 845 
Q 1069 694 975 541 
L 3222 541 
z
" transform="scale(0.015625)"/>
       </defs>
       <use xlink:href="#ArialMT-32"/>
       <use xlink:href="#ArialMT-32" x="55.615234"/>
       <use xlink:href="#ArialMT-35" x="111.230469"/>
       <use xlink:href="#ArialMT-b0" x="166.845703"/>
      </g>
     </g>
    </g>
    <g id="xtick_7">
     <g id="line2d_7">
      <path d="M 236.16 174.528 
L 103.104 174.528 
" clip-path="url(#p0332b8afe5)" style="fill: none; stroke: #ffffff; stroke-linecap: round"/>
     </g>
     <g id="text_7">
      <!-- 270° -->
      <g style="fill: #262626" transform="translate(75.229313 177.371672) scale(0.11 -0.11)">
       <defs>
        <path id="ArialMT-37" d="M 303 3981 
L 303 4522 
L 3269 4522 
L 3269 4084 
Q 2831 3619 2401 2847 
Q 1972 2075 1738 1259 
Q 1569 684 1522 0 
L 944 0 
Q 953 541 1156 1306 
Q 1359 2072 1739 2783 
Q 2119 3494 2547 3981 
L 303 3981 
z
" transform="scale(0.015625)"/>
       </defs>
       <use xlink:href="#ArialMT-32"/>
       <use xlink:href="#ArialMT-37" x="55.615234"/>
       <use xlink:href="#ArialMT-30" x="111.230469"/>
       <use xlink:href="#ArialMT-b0" x="166.845703"/>
      </g>
     </g>
    </g>
    <g id="xtick_8">
     <g id="line2d_8">
      <path d="M 236.16 174.528 
L 142.0752 80.4432 
" clip-path="url(#p0332b8afe5)" style="fill: none; stroke: #ffffff; stroke-linecap: round"/>
     </g>
     <g id="text_8">
      <!-- 315° -->
      <g style="fill: #262626" transform="translate(119.033251 71.61961) scale(0.11 -0.11)">
       <use xlink:href="#ArialMT-33"/>
       <use xlink:href="#ArialMT-31" x="55.615234"/>
       <use xlink:href="#ArialMT-35" x="111.230469"/>
       <use xlink:href="#ArialMT-b0" x="166.845703"/>
      </g>
     </g>
    </g>
   </g>
   <g id="matplotlib.axis_2">
    <g id="ytick_1">
     <g id="line2d_9">
      <path d="M 236.16 174.528 
C 236.16 174.528 236.16 174.528 236.16 174.528 
C 236.16 174.528 236.16 174.528 236.16 174.528 
C 236.16 174.528 236.16 174.528 236.16 174.528 
C 236.16 174.528 236.16 174.528 236.16 174.528 
C 236.16 174.528 236.16 174.528 236.16 174.528 
C 236.16 174.528 236.16 174.528 236.16 174.528 
C 236.16 174.528 236.16 174.528 236.16 174.528 
C 236.16 174.528 236.16 174.528 236.16 174.528 
C 236.16 174.528 236.16 174.528 236.16 174.528 
C 236.16 174.528 236.16 174.528 236.16 174.528 
C 236.16 174.528 236.16 174.528 236.16 174.528 
C 236.16 174.528 236.16 174.528 236.16 174.528 
C 236.16 174.528 236.16 174.528 236.16 174.528 
C 236.16 174.528 236.16 174.528 236.16 174.528 
C 236.16 174.528 236.16 174.528 236.16 174.528 
C 236.16 174.528 236.16 174.528 236.16 174.528 
" clip-path="url(#p0332b8afe5)" style="fill: none; stroke: #ffffff; stroke-linecap: round"/>
     </g>
     <g id="text_9">
      <!-- 0.0 -->
      <g style="fill: #dc143c" transform="translate(236.16 172.34175) scale(0.11 -0.11)">
       <defs>
        <path id="ArialMT-2e" d="M 581 0 
L 581 641 
L 1222 641 
L 1222 0 
L 581 0 
z
" transform="scale(0.015625)"/>
       </defs>
       <use xlink:href="#ArialMT-30"/>
       <use xlink:href="#ArialMT-2e" x="55.615234"/>
       <use xlink:href="#ArialMT-30" x="83.398438"/>
      </g>
     </g>
    </g>
    <g id="ytick_2">
     <g id="line2d_10">
      <path d="M 236.16 159.744 
C 238.101417 159.744 240.023956 160.126417 241.817592 160.869365 
C 243.611227 161.612313 245.241077 162.701344 246.613867 164.074133 
C 247.986656 165.446923 249.075687 167.076773 249.818635 168.870408 
C 250.561583 170.664044 250.944 172.586583 250.944 174.528 
C 250.944 176.469417 250.561583 178.391956 249.818635 180.185592 
C 249.075687 181.979227 247.986656 183.609077 246.613867 184.981867 
C 245.241077 186.354656 243.611227 187.443687 241.817592 188.186635 
C 240.023956 188.929583 238.101417 189.312 236.16 189.312 
C 234.218583 189.312 232.296044 188.929583 230.502408 188.186635 
C 228.708773 187.443687 227.078923 186.354656 225.706133 184.981867 
C 224.333344 183.609077 223.244313 181.979227 222.501365 180.185592 
C 221.758417 178.391956 221.376 176.469417 221.376 174.528 
C 221.376 172.586583 221.758417 170.664044 222.501365 168.870408 
C 223.244313 167.076773 224.333344 165.446923 225.706133 164.074133 
C 227.078923 162.701344 228.708773 161.612313 230.502408 160.869365 
C 232.296044 160.126417 234.218583 159.744 236.16 159.744 
" clip-path="url(#p0332b8afe5)" style="fill: none; stroke: #ffffff; stroke-linecap: round"/>
     </g>
     <g id="text_10">
      <!-- 0.1 -->
      <g style="fill: #dc143c" transform="translate(241.817592 158.683115) scale(0.11 -0.11)">
       <use xlink:href="#ArialMT-30"/>
       <use xlink:href="#ArialMT-2e" x="55.615234"/>
       <use xlink:href="#ArialMT-31" x="83.398438"/>
      </g>
     </g>
    </g>
    <g id="ytick_3">
     <g id="line2d_11">
      <path d="M 236.16 144.96 
C 240.042834 144.96 243.887913 145.724834 247.475184 147.21073 
C 251.062455 148.696626 254.322155 150.874688 257.067733 153.620267 
C 259.813312 156.365845 261.991374 159.625545 263.47727 163.212816 
C 264.963166 166.800087 265.728 170.645166 265.728 174.528 
C 265.728 178.410834 264.963166 182.255913 263.47727 185.843184 
C 261.991374 189.430455 259.813312 192.690155 257.067733 195.435733 
C 254.322155 198.181312 251.062455 200.359374 247.475184 201.84527 
C 243.887913 203.331166 240.042834 204.096 236.16 204.096 
C 232.277166 204.096 228.432087 203.331166 224.844816 201.84527 
C 221.257545 200.359374 217.997845 198.181312 215.252267 195.435733 
C 212.506688 192.690155 210.328626 189.430455 208.84273 185.843184 
C 207.356834 182.255913 206.592 178.410834 206.592 174.528 
C 206.592 170.645166 207.356834 166.800087 208.84273 163.212816 
C 210.328626 159.625545 212.506688 156.365845 215.252267 153.620267 
C 217.997845 150.874688 221.257545 148.696626 224.844816 147.21073 
C 228.432087 145.724834 232.277166 144.96 236.16 144.96 
" clip-path="url(#p0332b8afe5)" style="fill: none; stroke: #ffffff; stroke-linecap: round"/>
     </g>
     <g id="text_11">
      <!-- 0.2 -->
      <g style="fill: #dc143c" transform="translate(247.475184 145.02448) scale(0.11 -0.11)">
       <use xlink:href="#ArialMT-30"/>
       <use xlink:href="#ArialMT-2e" x="55.615234"/>
       <use xlink:href="#ArialMT-32" x="83.398438"/>
      </g>
     </g>
    </g>
    <g id="ytick_4">
     <g id="line2d_12">
      <path d="M 236.16 130.176 
C 241.984251 130.176 247.751869 131.323251 253.132776 133.552095 
C 258.513682 135.780939 263.403232 139.048032 267.5216 143.1664 
C 271.639968 147.284768 274.907061 152.174318 277.135905 157.555224 
C 279.364749 162.936131 280.512 168.703749 280.512 174.528 
C 280.512 180.352251 279.364749 186.119869 277.135905 191.500776 
C 274.907061 196.881682 271.639968 201.771232 267.5216 205.8896 
C 263.403232 210.007968 258.513682 213.275061 253.132776 215.503905 
C 247.751869 217.732749 241.984251 218.88 236.16 218.88 
C 230.335749 218.88 224.568131 217.732749 219.187224 215.503905 
C 213.806318 213.275061 208.916768 210.007968 204.7984 205.8896 
C 200.680032 201.771232 197.412939 196.881682 195.184095 191.500776 
C 192.955251 186.119869 191.808 180.352251 191.808 174.528 
C 191.808 168.703749 192.955251 162.936131 195.184095 157.555224 
C 197.412939 152.174318 200.680032 147.284768 204.7984 143.1664 
C 208.916768 139.048032 213.806318 135.780939 219.187224 133.552095 
C 224.568131 131.323251 230.335749 130.176 236.16 130.176 
" clip-path="url(#p0332b8afe5)" style="fill: none; stroke: #ffffff; stroke-linecap: round"/>
     </g>
     <g id="text_12">
      <!-- 0.3 -->
      <g style="fill: #dc143c" transform="translate(253.132776 131.365845) scale(0.11 -0.11)">
       <use xlink:href="#ArialMT-30"/>
       <use xlink:href="#ArialMT-2e" x="55.615234"/>
       <use xlink:href="#ArialMT-33" x="83.398438"/>
      </g>
     </g>
    </g>
    <g id="ytick_5">
     <g id="line2d_13">
      <path d="M 236.16 115.392 
C 243.925668 115.392 251.615825 116.921667 258.790367 119.89346 
C 265.96491 122.865253 272.48431 127.221377 277.975467 132.712533 
C 283.466623 138.20369 287.822747 144.72309 290.79454 151.897633 
C 293.766333 159.072175 295.296 166.762332 295.296 174.528 
C 295.296 182.293668 293.766333 189.983825 290.79454 197.158367 
C 287.822747 204.33291 283.466623 210.85231 277.975467 216.343467 
C 272.48431 221.834623 265.96491 226.190747 258.790367 229.16254 
C 251.615825 232.134333 243.925668 233.664 236.16 233.664 
C 228.394332 233.664 220.704175 232.134333 213.529633 229.16254 
C 206.35509 226.190747 199.83569 221.834623 194.344533 216.343467 
C 188.853377 210.85231 184.497253 204.33291 181.52546 197.158367 
C 178.553667 189.983825 177.024 182.293668 177.024 174.528 
C 177.024 166.762332 178.553667 159.072175 181.52546 151.897633 
C 184.497253 144.72309 188.853377 138.20369 194.344533 132.712533 
C 199.83569 127.221377 206.35509 122.865253 213.529633 119.89346 
C 220.704175 116.921667 228.394332 115.392 236.16 115.392 
" clip-path="url(#p0332b8afe5)" style="fill: none; stroke: #ffffff; stroke-linecap: round"/>
     </g>
     <g id="text_13">
      <!-- 0.4 -->
      <g style="fill: #dc143c" transform="translate(258.790367 117.70721) scale(0.11 -0.11)">
       <use xlink:href="#ArialMT-30"/>
       <use xlink:href="#ArialMT-2e" x="55.615234"/>
       <use xlink:href="#ArialMT-34" x="83.398438"/>
      </g>
     </g>
    </g>
    <g id="ytick_6">
     <g id="line2d_14">
      <path d="M 236.16 100.608 
C 245.867085 100.608 255.479782 102.520084 264.447959 106.234825 
C 273.416137 109.949566 281.565387 115.394721 288.429333 122.258667 
C 295.293279 129.122613 300.738434 137.271863 304.453175 146.240041 
C 308.167916 155.208218 310.08 164.820915 310.08 174.528 
C 310.08 184.235085 308.167916 193.847782 304.453175 202.815959 
C 300.738434 211.784137 295.293279 219.933387 288.429333 226.797333 
C 281.565387 233.661279 273.416137 239.106434 264.447959 242.821175 
C 255.479782 246.535916 245.867085 248.448 236.16 248.448 
C 226.452915 248.448 216.840218 246.535916 207.872041 242.821175 
C 198.903863 239.106434 190.754613 233.661279 183.890667 226.797333 
C 177.026721 219.933387 171.581566 211.784137 167.866825 202.815959 
C 164.152084 193.847782 162.24 184.235085 162.24 174.528 
C 162.24 164.820915 164.152084 155.208218 167.866825 146.240041 
C 171.581566 137.271863 177.026721 129.122613 183.890667 122.258667 
C 190.754613 115.394721 198.903863 109.949566 207.872041 106.234825 
C 216.840218 102.520084 226.452915 100.608 236.16 100.608 
" clip-path="url(#p0332b8afe5)" style="fill: none; stroke: #ffffff; stroke-linecap: round"/>
     </g>
     <g id="text_14">
      <!-- 0.5 -->
      <g style="fill: #dc143c" transform="translate(264.447959 104.048575) scale(0.11 -0.11)">
       <use xlink:href="#ArialMT-30"/>
       <use xlink:href="#ArialMT-2e" x="55.615234"/>
       <use xlink:href="#ArialMT-35" x="83.398438"/>
      </g>
     </g>
    </g>
    <g id="ytick_7">
     <g id="line2d_15">
      <path d="M 236.16 85.824 
C 247.808503 85.824 259.343738 88.118501 270.105551 92.57619 
C 280.867364 97.033879 290.646465 103.568065 298.8832 111.8048 
C 307.119935 120.041535 313.654121 129.820636 318.11181 140.582449 
C 322.569499 151.344262 324.864 162.879497 324.864 174.528 
C 324.864 186.176503 322.569499 197.711738 318.11181 208.473551 
C 313.654121 219.235364 307.119935 229.014465 298.8832 237.2512 
C 290.646465 245.487935 280.867364 252.022121 270.105551 256.47981 
C 259.343738 260.937499 247.808503 263.232 236.16 263.232 
C 224.511497 263.232 212.976262 260.937499 202.214449 256.47981 
C 191.452636 252.022121 181.673535 245.487935 173.4368 237.2512 
C 165.200065 229.014465 158.665879 219.235364 154.20819 208.473551 
C 149.750501 197.711738 147.456 186.176503 147.456 174.528 
C 147.456 162.879497 149.750501 151.344262 154.20819 140.582449 
C 158.665879 129.820636 165.200065 120.041535 173.4368 111.8048 
C 181.673535 103.568065 191.452636 97.033879 202.214449 92.57619 
C 212.976262 88.118501 224.511497 85.824 236.16 85.824 
" clip-path="url(#p0332b8afe5)" style="fill: none; stroke: #ffffff; stroke-linecap: round"/>
     </g>
     <g id="text_15">
      <!-- 0.6 -->
      <g style="fill: #dc143c" transform="translate(270.105551 90.38994) scale(0.11 -0.11)">
       <defs>
        <path id="ArialMT-36" d="M 3184 3459 
L 2625 3416 
Q 2550 3747 2413 3897 
Q 2184 4138 1850 4138 
Q 1581 4138 1378 3988 
Q 1113 3794 959 3422 
Q 806 3050 800 2363 
Q 1003 2672 1297 2822 
Q 1591 2972 1913 2972 
Q 2475 2972 2870 2558 
Q 3266 2144 3266 1488 
Q 3266 1056 3080 686 
Q 2894 316 2569 119 
Q 2244 -78 1831 -78 
Q 1128 -78 684 439 
Q 241 956 241 2144 
Q 241 3472 731 4075 
Q 1159 4600 1884 4600 
Q 2425 4600 2770 4297 
Q 3116 3994 3184 3459 
z
M 888 1484 
Q 888 1194 1011 928 
Q 1134 663 1356 523 
Q 1578 384 1822 384 
Q 2178 384 2434 671 
Q 2691 959 2691 1453 
Q 2691 1928 2437 2201 
Q 2184 2475 1800 2475 
Q 1419 2475 1153 2201 
Q 888 1928 888 1484 
z
" transform="scale(0.015625)"/>
       </defs>
       <use xlink:href="#ArialMT-30"/>
       <use xlink:href="#ArialMT-2e" x="55.615234"/>
       <use xlink:href="#ArialMT-36" x="83.398438"/>
      </g>
     </g>
    </g>
    <g id="ytick_8">
     <g id="line2d_16">
      <path d="M 236.16 71.04 
C 249.74992 71.04 263.207694 73.716918 275.763143 78.917555 
C 288.318592 84.118192 299.727542 91.741409 309.337067 101.350933 
C 318.946591 110.960458 326.569808 122.369408 331.770445 134.924857 
C 336.971082 147.480306 339.648 160.93808 339.648 174.528 
C 339.648 188.11792 336.971082 201.575694 331.770445 214.131143 
C 326.569808 226.686592 318.946591 238.095542 309.337067 247.705067 
C 299.727542 257.314591 288.318592 264.937808 275.763143 270.138445 
C 263.207694 275.339082 249.74992 278.016 236.16 278.016 
C 222.57008 278.016 209.112306 275.339082 196.556857 270.138445 
C 184.001408 264.937808 172.592458 257.314591 162.982933 247.705067 
C 153.373409 238.095542 145.750192 226.686592 140.549555 214.131143 
C 135.348918 201.575694 132.672 188.11792 132.672 174.528 
C 132.672 160.93808 135.348918 147.480306 140.549555 134.924857 
C 145.750192 122.369408 153.373409 110.960458 162.982933 101.350933 
C 172.592458 91.741409 184.001408 84.118192 196.556857 78.917555 
C 209.112306 73.716918 222.57008 71.04 236.16 71.04 
" clip-path="url(#p0332b8afe5)" style="fill: none; stroke: #ffffff; stroke-linecap: round"/>
     </g>
     <g id="text_16">
      <!-- 0.7 -->
      <g style="fill: #dc143c" transform="translate(275.763143 76.731305) scale(0.11 -0.11)">
       <use xlink:href="#ArialMT-30"/>
       <use xlink:href="#ArialMT-2e" x="55.615234"/>
       <use xlink:href="#ArialMT-37" x="83.398438"/>
      </g>
     </g>
    </g>
    <g id="ytick_9">
     <g id="line2d_17">
      <path d="M 236.16 56.256 
C 251.691337 56.256 267.071651 59.315335 281.420735 65.25892 
C 295.769819 71.202505 308.80862 79.914753 319.790933 90.897067 
C 330.773247 101.87938 339.485495 114.918181 345.42908 129.267265 
C 351.372665 143.616349 354.432 158.996663 354.432 174.528 
C 354.432 190.059337 351.372665 205.439651 345.42908 219.788735 
C 339.485495 234.137819 330.773247 247.17662 319.790933 258.158933 
C 308.80862 269.141247 295.769819 277.853495 281.420735 283.79708 
C 267.071651 289.740665 251.691337 292.8 236.16 292.8 
C 220.628663 292.8 205.248349 289.740665 190.899265 283.79708 
C 176.550181 277.853495 163.51138 269.141247 152.529067 258.158933 
C 141.546753 247.17662 132.834505 234.137819 126.89092 219.788735 
C 120.947335 205.439651 117.888 190.059337 117.888 174.528 
C 117.888 158.996663 120.947335 143.616349 126.89092 129.267265 
C 132.834505 114.918181 141.546753 101.87938 152.529067 90.897067 
C 163.51138 79.914753 176.550181 71.202505 190.899265 65.25892 
C 205.248349 59.315335 220.628663 56.256 236.16 56.256 
" clip-path="url(#p0332b8afe5)" style="fill: none; stroke: #ffffff; stroke-linecap: round"/>
     </g>
     <g id="text_17">
      <!-- 0.8 -->
      <g style="fill: #dc143c" transform="translate(281.420735 63.07267) scale(0.11 -0.11)">
       <use xlink:href="#ArialMT-30"/>
       <use xlink:href="#ArialMT-2e" x="55.615234"/>
       <use xlink:href="#ArialMT-38" x="83.398438"/>
      </g>
     </g>
    </g>
    <g id="ytick_10">
     <g id="line2d_18">
      <path d="M 236.16 41.472 
C 253.632754 41.472 270.935607 44.913752 287.078327 51.600285 
C 303.221046 58.286818 317.889697 68.088097 330.2448 80.4432 
C 342.599903 92.798303 352.401182 107.466954 359.087715 123.609673 
C 365.774248 139.752393 369.216 157.055246 369.216 174.528 
C 369.216 192.000754 365.774248 209.303607 359.087715 225.446327 
C 352.401182 241.589046 342.599903 256.257697 330.2448 268.6128 
C 317.889697 280.967903 303.221046 290.769182 287.078327 297.455715 
C 270.935607 304.142248 253.632754 307.584 236.16 307.584 
C 218.687246 307.584 201.384393 304.142248 185.241673 297.455715 
C 169.098954 290.769182 154.430303 280.967903 142.0752 268.6128 
C 129.720097 256.257697 119.918818 241.589046 113.232285 225.446327 
C 106.545752 209.303607 103.104 192.000754 103.104 174.528 
C 103.104 157.055246 106.545752 139.752393 113.232285 123.609673 
C 119.918818 107.466954 129.720097 92.798303 142.0752 80.4432 
C 154.430303 68.088097 169.098954 58.286818 185.241673 51.600285 
C 201.384393 44.913752 218.687246 41.472 236.16 41.472 
" clip-path="url(#p0332b8afe5)" style="fill: none; stroke: #ffffff; stroke-linecap: round"/>
     </g>
     <g id="text_18">
      <!-- 0.9 -->
      <g style="fill: #dc143c" transform="translate(287.078327 49.414035) scale(0.11 -0.11)">
       <use xlink:href="#ArialMT-30"/>
       <use xlink:href="#ArialMT-2e" x="55.615234"/>
       <use xlink:href="#ArialMT-39" x="83.398438"/>
      </g>
     </g>
    </g>
   </g>
   <g id="line2d_19">
    <defs>
     <path id="mee4152d7c0" d="M 0 1.5 
C 0.397805 1.5 0.77937 1.341951 1.06066 1.06066 
C 1.341951 0.77937 1.5 0.397805 1.5 0 
C 1.5 -0.397805 1.341951 -0.77937 1.06066 -1.06066 
C 0.77937 -1.341951 0.397805 -1.5 0 -1.5 
C -0.397805 -1.5 -0.77937 -1.341951 -1.06066 -1.06066 
C -1.341951 -0.77937 -1.5 -0.397805 -1.5 0 
C -1.5 0.397805 -1.341951 0.77937 -1.06066 1.06066 
C -0.77937 1.341951 -0.397805 1.5 0 1.5 
z
" style="stroke: #ffffff"/>
    </defs>
    <g clip-path="url(#p0332b8afe5)">
     <use xlink:href="#mee4152d7c0" x="236.16" y="254.762962" style="stroke: #ffffff"/>
     <use xlink:href="#mee4152d7c0" x="236.16" y="225.685837" style="stroke: #ffffff"/>
     <use xlink:href="#mee4152d7c0" x="229.433824" y="251.408541" style="stroke: #ffffff"/>
     <use xlink:href="#mee4152d7c0" x="232.168134" y="220.155236" style="stroke: #ffffff"/>
     <use xlink:href="#mee4152d7c0" x="240.704516" y="122.583943" style="stroke: #ffffff"/>
     <use xlink:href="#mee4152d7c0" x="245.906374" y="63.126436" style="stroke: #ffffff"/>
     <use xlink:href="#mee4152d7c0" x="222.758839" y="250.529763" style="stroke: #ffffff"/>
     <use xlink:href="#mee4152d7c0" x="228.206649" y="219.633697" style="stroke: #ffffff"/>
     <use xlink:href="#mee4152d7c0" x="245.081572" y="123.931249" style="stroke: #ffffff"/>
     <use xlink:href="#mee4152d7c0" x="255.711446" y="63.646242" style="stroke: #ffffff"/>
     <use xlink:href="#mee4152d7c0" x="215.393664" y="252.029022" style="stroke: #ffffff"/>
     <use xlink:href="#mee4152d7c0" x="222.721332" y="224.681791" style="stroke: #ffffff"/>
     <use xlink:href="#mee4152d7c0" x="208.718027" y="249.924202" style="stroke: #ffffff"/>
     <use xlink:href="#mee4152d7c0" x="218.40128" y="223.319683" style="stroke: #ffffff"/>
     <use xlink:href="#mee4152d7c0" x="201.604475" y="248.632562" style="stroke: #ffffff"/>
     <use xlink:href="#mee4152d7c0" x="213.569617" y="222.973233" style="stroke: #ffffff"/>
     <use xlink:href="#mee4152d7c0" x="254.639158" y="134.899318" style="stroke: #ffffff"/>
     <use xlink:href="#mee4152d7c0" x="204.842175" y="228.772064" style="stroke: #ffffff"/>
     <use xlink:href="#mee4152d7c0" x="249.605644" y="151.239462" style="stroke: #ffffff"/>
     <use xlink:href="#mee4152d7c0" x="277.152394" y="103.527091" style="stroke: #ffffff"/>
     <use xlink:href="#mee4152d7c0" x="204.622602" y="219.568072" style="stroke: #ffffff"/>
     <use xlink:href="#mee4152d7c0" x="252.461996" y="151.246337" style="stroke: #ffffff"/>
     <use xlink:href="#mee4152d7c0" x="283.623436" y="106.743189" style="stroke: #ffffff"/>
     <use xlink:href="#mee4152d7c0" x="184.58596" y="235.991547" style="stroke: #ffffff"/>
     <use xlink:href="#mee4152d7c0" x="202.29267" y="214.889512" style="stroke: #ffffff"/>
     <use xlink:href="#mee4152d7c0" x="268.692831" y="135.756882" style="stroke: #ffffff"/>
     <use xlink:href="#mee4152d7c0" x="302.630691" y="95.311315" style="stroke: #ffffff"/>
     <use xlink:href="#mee4152d7c0" x="175.09676" y="235.59124" style="stroke: #ffffff"/>
     <use xlink:href="#mee4152d7c0" x="195.657392" y="215.030608" style="stroke: #ffffff"/>
     <use xlink:href="#mee4152d7c0" x="169.420944" y="230.528717" style="stroke: #ffffff"/>
     <use xlink:href="#mee4152d7c0" x="190.522979" y="212.822008" style="stroke: #ffffff"/>
     <use xlink:href="#mee4152d7c0" x="168.554952" y="221.865564" style="stroke: #ffffff"/>
     <use xlink:href="#mee4152d7c0" x="192.373538" y="205.187611" style="stroke: #ffffff"/>
     <use xlink:href="#mee4152d7c0" x="273.858176" y="148.131453" style="stroke: #ffffff"/>
     <use xlink:href="#mee4152d7c0" x="186.554639" y="203.167669" style="stroke: #ffffff"/>
     <use xlink:href="#mee4152d7c0" x="261.436554" y="159.934575" style="stroke: #ffffff"/>
     <use xlink:href="#mee4152d7c0" x="307.160909" y="133.535606" style="stroke: #ffffff"/>
     <use xlink:href="#mee4152d7c0" x="154.426989" y="212.640729" style="stroke: #ffffff"/>
     <use xlink:href="#mee4152d7c0" x="179.392823" y="200.99897" style="stroke: #ffffff"/>
     <use xlink:href="#mee4152d7c0" x="261.225279" y="162.839869" style="stroke: #ffffff"/>
     <use xlink:href="#mee4152d7c0" x="160.763798" y="201.969973" style="stroke: #ffffff"/>
     <use xlink:href="#mee4152d7c0" x="186.649276" y="192.54843" style="stroke: #ffffff"/>
     <use xlink:href="#mee4152d7c0" x="281.562694" y="158.002771" style="stroke: #ffffff"/>
     <use xlink:href="#mee4152d7c0" x="152.746063" y="196.878697" style="stroke: #ffffff"/>
     <use xlink:href="#mee4152d7c0" x="180.093294" y="189.551029" style="stroke: #ffffff"/>
     <use xlink:href="#mee4152d7c0" x="155.636862" y="188.726402" style="stroke: #ffffff"/>
     <use xlink:href="#mee4152d7c0" x="189.547178" y="182.747098" style="stroke: #ffffff"/>
     <use xlink:href="#mee4152d7c0" x="330.463381" y="157.89977" style="stroke: #ffffff"/>
     <use xlink:href="#mee4152d7c0" x="160.041734" y="181.187485" style="stroke: #ffffff"/>
     <use xlink:href="#mee4152d7c0" x="190.532764" y="178.519866" style="stroke: #ffffff"/>
     <use xlink:href="#mee4152d7c0" x="290.390884" y="169.783412" style="stroke: #ffffff"/>
     <use xlink:href="#mee4152d7c0" x="350.610667" y="164.514864" style="stroke: #ffffff"/>
     <use xlink:href="#mee4152d7c0" x="158.985788" y="174.528" style="stroke: #ffffff"/>
     <use xlink:href="#mee4152d7c0" x="192.654038" y="174.528" style="stroke: #ffffff"/>
     <use xlink:href="#mee4152d7c0" x="289.067662" y="174.528" style="stroke: #ffffff"/>
     <use xlink:href="#mee4152d7c0" x="351.04785" y="174.528" style="stroke: #ffffff"/>
     <use xlink:href="#mee4152d7c0" x="156.992631" y="167.601753" style="stroke: #ffffff"/>
     <use xlink:href="#mee4152d7c0" x="186.721385" y="170.202682" style="stroke: #ffffff"/>
     <use xlink:href="#mee4152d7c0" x="338.414255" y="183.474088" style="stroke: #ffffff"/>
     <use xlink:href="#mee4152d7c0" x="153.376174" y="159.930978" style="stroke: #ffffff"/>
     <use xlink:href="#mee4152d7c0" x="179.750864" y="164.581547" style="stroke: #ffffff"/>
     <use xlink:href="#mee4152d7c0" x="275.453312" y="181.456471" style="stroke: #ffffff"/>
     <use xlink:href="#mee4152d7c0" x="175.658608" y="158.316701" style="stroke: #ffffff"/>
     <use xlink:href="#mee4152d7c0" x="262.134989" y="181.487977" style="stroke: #ffffff"/>
     <use xlink:href="#mee4152d7c0" x="315.351224" y="195.747224" style="stroke: #ffffff"/>
     <use xlink:href="#mee4152d7c0" x="177.301742" y="153.105346" style="stroke: #ffffff"/>
     <use xlink:href="#mee4152d7c0" x="261.429544" y="183.725362" style="stroke: #ffffff"/>
     <use xlink:href="#mee4152d7c0" x="313.2005" y="202.568449" style="stroke: #ffffff"/>
     <use xlink:href="#mee4152d7c0" x="179.392823" y="148.05703" style="stroke: #ffffff"/>
     <use xlink:href="#mee4152d7c0" x="260.531783" y="185.892749" style="stroke: #ffffff"/>
     <use xlink:href="#mee4152d7c0" x="310.463451" y="209.176268" style="stroke: #ffffff"/>
     <use xlink:href="#mee4152d7c0" x="181.915936" y="143.210175" style="stroke: #ffffff"/>
     <use xlink:href="#mee4152d7c0" x="260.773882" y="188.738831" style="stroke: #ffffff"/>
     <use xlink:href="#mee4152d7c0" x="307.160909" y="215.520394" style="stroke: #ffffff"/>
     <use xlink:href="#mee4152d7c0" x="167.301342" y="126.312649" style="stroke: #ffffff"/>
     <use xlink:href="#mee4152d7c0" x="190.493123" y="142.551709" style="stroke: #ffffff"/>
     <use xlink:href="#mee4152d7c0" x="271.977761" y="199.607866" style="stroke: #ffffff"/>
     <use xlink:href="#mee4152d7c0" x="175.868788" y="123.937666" style="stroke: #ffffff"/>
     <use xlink:href="#mee4152d7c0" x="197.55699" y="142.136229" style="stroke: #ffffff"/>
     <use xlink:href="#mee4152d7c0" x="173.473552" y="111.841552" style="stroke: #ffffff"/>
     <use xlink:href="#mee4152d7c0" x="192.410976" y="130.778976" style="stroke: #ffffff"/>
     <use xlink:href="#mee4152d7c0" x="296.296276" y="234.664276" style="stroke: #ffffff"/>
     <use xlink:href="#mee4152d7c0" x="187.045225" y="115.995291" style="stroke: #ffffff"/>
     <use xlink:href="#mee4152d7c0" x="207.703053" y="140.614332" style="stroke: #ffffff"/>
     <use xlink:href="#mee4152d7c0" x="310.50034" y="263.123367" style="stroke: #ffffff"/>
     <use xlink:href="#mee4152d7c0" x="192.772477" y="112.564196" style="stroke: #ffffff"/>
     <use xlink:href="#mee4152d7c0" x="210.328218" y="137.636392" style="stroke: #ffffff"/>
     <use xlink:href="#mee4152d7c0" x="302.495857" y="269.265422" style="stroke: #ffffff"/>
     <use xlink:href="#mee4152d7c0" x="192.216581" y="98.415766" style="stroke: #ffffff"/>
     <use xlink:href="#mee4152d7c0" x="208.668113" y="126.910654" style="stroke: #ffffff"/>
     <use xlink:href="#mee4152d7c0" x="279.447956" y="249.50494" style="stroke: #ffffff"/>
     <use xlink:href="#mee4152d7c0" x="199.017418" y="94.875475" style="stroke: #ffffff"/>
     <use xlink:href="#mee4152d7c0" x="212.922853" y="124.695777" style="stroke: #ffffff"/>
     <use xlink:href="#mee4152d7c0" x="272.748562" y="252.992424" style="stroke: #ffffff"/>
     <use xlink:href="#mee4152d7c0" x="208.979736" y="99.850839" style="stroke: #ffffff"/>
     <use xlink:href="#mee4152d7c0" x="219.186408" y="127.89344" style="stroke: #ffffff"/>
     <use xlink:href="#mee4152d7c0" x="213.215168" y="88.896719" style="stroke: #ffffff"/>
     <use xlink:href="#mee4152d7c0" x="220.344791" y="115.504837" style="stroke: #ffffff"/>
     <use xlink:href="#mee4152d7c0" x="257.775315" y="255.197452" style="stroke: #ffffff"/>
     <use xlink:href="#mee4152d7c0" x="223.024585" y="100.033362" style="stroke: #ffffff"/>
     <use xlink:href="#mee4152d7c0" x="228.339522" y="130.175866" style="stroke: #ffffff"/>
     <use xlink:href="#mee4152d7c0" x="229.433824" y="97.647459" style="stroke: #ffffff"/>
     <use xlink:href="#mee4152d7c0" x="232.101444" y="128.138488" style="stroke: #ffffff"/>
     <use xlink:href="#mee4152d7c0" x="240.771207" y="227.234333" style="stroke: #ffffff"/>
     <use xlink:href="#mee4152d7c0" x="246.039755" y="287.454116" style="stroke: #ffffff"/>
    </g>
   </g>
   <g id="patch_3">
    <path d="M 236.16 41.472 
C 218.687246 41.472 201.384393 44.913752 185.241673 51.600285 
C 169.098954 58.286818 154.430303 68.088097 142.0752 80.4432 
C 129.720097 92.798303 119.918818 107.466954 113.232285 123.609673 
C 106.545752 139.752393 103.104 157.055246 103.104 174.528 
C 103.104 192.000754 106.545752 209.303607 113.232285 225.446327 
C 119.918818 241.589046 129.720097 256.257697 142.0752 268.6128 
C 154.430303 280.967903 169.098954 290.769182 185.241673 297.455715 
C 201.384393 304.142248 218.687246 307.584 236.16 307.584 
C 253.632754 307.584 270.935607 304.142248 287.078327 297.455715 
C 303.221046 290.769182 317.889697 280.967903 330.2448 268.6128 
C 342.599903 256.257697 352.401182 241.589046 359.087715 225.446327 
C 365.774248 209.303607 369.216 192.000754 369.216 174.528 
C 369.216 157.055246 365.774248 139.752393 359.087715 123.609673 
C 352.401182 107.466954 342.599903 92.798303 330.2448 80.4432 
C 317.889697 68.088097 303.221046 58.286818 287.078327 51.600285 
C 270.935607 44.913752 253.632754 41.472 236.16 41.472 
" style="fill: none; stroke: #ffffff; stroke-width: 1.25; stroke-linejoin: miter; stroke-linecap: square"/>
   </g>
  </g>
 </g>
 <defs>
  <clipPath id="p0332b8afe5">
   <path d="M 369.216 174.528 
C 369.216 157.055246 365.774248 139.752393 359.087715 123.609673 
C 352.401182 107.466954 342.599903 92.798303 330.2448 80.4432 
C 317.889697 68.088097 303.221046 58.286818 287.078327 51.600285 
C 270.935607 44.913752 253.632754 41.472 236.16 41.472 
C 218.687246 41.472 201.384393 44.913752 185.241673 51.600285 
C 169.098954 58.286818 154.430303 68.088097 142.0752 80.4432 
C 129.720097 92.798303 119.918818 107.466954 113.232285 123.609673 
C 106.545752 139.752393 103.104 157.055246 103.104 174.528 
C 103.104 192.000754 106.545752 209.303607 113.232285 225.446327 
C 119.918818 241.589046 129.720097 256.257697 142.0752 268.6128 
C 154.430303 280.967903 169.098954 290.769182 185.241673 297.455715 
C 201.384393 304.142248 218.687246 307.584 236.16 307.584 
C 253.632754 307.584 270.935607 304.142248 287.078327 297.455715 
C 303.221046 290.769182 317.889697 280.967903 330.2448 268.6128 
C 342.599903 256.257697 352.401182 241.589046 359.087715 225.446327 
C 365.774248 209.303607 369.216 192.000754 369.216 174.528 
M 236.16 174.528 
C 236.16 174.528 236.16 174.528 236.16 174.528 
C 236.16 174.528 236.16 174.528 236.16 174.528 
C 236.16 174.528 236.16 174.528 236.16 174.528 
C 236.16 174.528 236.16 174.528 236.16 174.528 
C 236.16 174.528 236.16 174.528 236.16 174.528 
C 236.16 174.528 236.16 174.528 236.16 174.528 
C 236.16 174.528 236.16 174.528 236.16 174.528 
C 236.16 174.528 236.16 174.528 236.16 174.528 
C 236.16 174.528 236.16 174.528 236.16 174.528 
C 236.16 174.528 236.16 174.528 236.16 174.528 
C 236.16 174.528 236.16 174.528 236.16 174.528 
C 236.16 174.528 236.16 174.528 236.16 174.528 
C 236.16 174.528 236.16 174.528 236.16 174.528 
C 236.16 174.528 236.16 174.528 236.16 174.528 
C 236.16 174.528 236.16 174.528 236.16 174.528 
C 236.16 174.528 236.16 174.528 236.16 174.528 
z
"/>
  </clipPath>
 </defs>
</svg>
