<?xml version="1.0" encoding="utf-8" standalone="no"?>
<!DOCTYPE svg PUBLIC "-//W3C//DTD SVG 1.1//EN"
  "http://www.w3.org/Graphics/SVG/1.1/DTD/svg11.dtd">
<svg xmlns:xlink="http://www.w3.org/1999/xlink" width="432pt" height="432pt" viewBox="0 0 432 432" xmlns="http://www.w3.org/2000/svg" version="1.1">
 <metadata>
  <rdf:RDF xmlns:dc="http://purl.org/dc/elements/1.1/" xmlns:cc="http://creativecommons.org/ns#" xmlns:rdf="http://www.w3.org/1999/02/22-rdf-syntax-ns#">
   <cc:Work>
    <dc:type rdf:resource="http://purl.org/dc/dcmitype/StillImage"/>
    <dc:date>2024-12-24T16:25:24.941665</dc:date>
    <dc:format>image/svg+xml</dc:format>
    <dc:creator>
     <cc:Agent>
      <dc:title>Matplotlib v3.9.2, https://matplotlib.org/</dc:title>
     </cc:Agent>
    </dc:creator>
   </cc:Work>
  </rdf:RDF>
 </metadata>
 <defs>
  <style type="text/css">*{stroke-linejoin: round; stroke-linecap: butt}</style>
 </defs>
 <g id="figure_1">
  <g id="patch_1">
   <path d="M 0 432 
L 432 432 
L 432 0 
L 0 0 
z
" style="fill: #ffffff"/>
  </g>
  <g id="axes_1">
   <g id="patch_2">
    <path d="M 387.72 218.16 
C 387.72 196.319058 383.417811 174.690491 375.059644 154.512092 
C 366.701477 134.333692 354.449878 115.997879 339.006 100.554 
C 323.562121 85.110122 305.226308 72.858523 285.047908 64.500356 
C 264.869509 56.142189 243.240942 51.84 221.4 51.84 
C 199.559058 51.84 177.930491 56.142189 157.752092 64.500356 
C 137.573692 72.858523 119.237879 85.110122 103.794 100.554 
C 88.350122 115.997879 76.098523 134.333692 67.740356 154.512092 
C 59.382189 174.690491 55.08 196.319058 55.08 218.16 
C 55.08 240.000942 59.382189 261.629509 67.740356 281.807908 
C 76.098523 301.986308 88.350122 320.322121 103.794 335.766 
C 119.237879 351.209878 137.573692 363.461477 157.752092 371.819644 
C 177.930491 380.177811 199.559058 384.48 221.4 384.48 
C 243.240942 384.48 264.869509 380.177811 285.047908 371.819644 
C 305.226308 363.461477 323.562121 351.209878 339.006 335.766 
C 354.449878 320.322121 366.701477 301.986308 375.059644 281.807908 
C 383.417811 261.629509 387.72 240.000942 387.72 218.16 
M 221.4 218.16 
C 221.4 218.16 221.4 218.16 221.4 218.16 
C 221.4 218.16 221.4 218.16 221.4 218.16 
C 221.4 218.16 221.4 218.16 221.4 218.16 
C 221.4 218.16 221.4 218.16 221.4 218.16 
C 221.4 218.16 221.4 218.16 221.4 218.16 
C 221.4 218.16 221.4 218.16 221.4 218.16 
C 221.4 218.16 221.4 218.16 221.4 218.16 
C 221.4 218.16 221.4 218.16 221.4 218.16 
C 221.4 218.16 221.4 218.16 221.4 218.16 
C 221.4 218.16 221.4 218.16 221.4 218.16 
C 221.4 218.16 221.4 218.16 221.4 218.16 
C 221.4 218.16 221.4 218.16 221.4 218.16 
C 221.4 218.16 221.4 218.16 221.4 218.16 
C 221.4 218.16 221.4 218.16 221.4 218.16 
C 221.4 218.16 221.4 218.16 221.4 218.16 
C 221.4 218.16 221.4 218.16 221.4 218.16 
z
" style="fill: #eaeaf2"/>
   </g>
   <g id="matplotlib.axis_1">
    <g id="xtick_1">
     <g id="line2d_1">
      <path d="M 221.4 218.16 
L 221.4 51.84 
" clip-path="url(#pb6627dcab6)" style="fill: none; stroke: #ffffff; stroke-linecap: round"/>
     </g>
     <g id="text_1">
      <!-- 0° -->
      <g style="fill: #262626" transform="translate(216.142344 38.183672) scale(0.11 -0.11)">
       <defs>
        <path id="ArialMT-30" d="M 266 2259 
Q 266 3072 433 3567 
Q 600 4063 929 4331 
Q 1259 4600 1759 4600 
Q 2128 4600 2406 4451 
Q 2684 4303 2865 4023 
Q 3047 3744 3150 3342 
Q 3253 2941 3253 2259 
Q 3253 1453 3087 958 
Q 2922 463 2592 192 
Q 2263 -78 1759 -78 
Q 1097 -78 719 397 
Q 266 969 266 2259 
z
M 844 2259 
Q 844 1131 1108 757 
Q 1372 384 1759 384 
Q 2147 384 2411 759 
Q 2675 1134 2675 2259 
Q 2675 3391 2411 3762 
Q 2147 4134 1753 4134 
Q 1366 4134 1134 3806 
Q 844 3388 844 2259 
z
" transform="scale(0.015625)"/>
        <path id="ArialMT-b0" d="M 400 3794 
Q 400 4153 654 4406 
Q 909 4659 1266 4659 
Q 1628 4659 1881 4406 
Q 2134 4153 2134 3794 
Q 2134 3434 1879 3179 
Q 1625 2925 1266 2925 
Q 909 2925 654 3178 
Q 400 3431 400 3794 
z
M 741 3794 
Q 741 3575 895 3420 
Q 1050 3266 1269 3266 
Q 1484 3266 1639 3420 
Q 1794 3575 1794 3794 
Q 1794 4013 1639 4167 
Q 1484 4322 1269 4322 
Q 1050 4322 895 4167 
Q 741 4013 741 3794 
z
" transform="scale(0.015625)"/>
       </defs>
       <use xlink:href="#ArialMT-30"/>
       <use xlink:href="#ArialMT-b0" x="55.615234"/>
      </g>
     </g>
    </g>
    <g id="xtick_2">
     <g id="line2d_2">
      <path d="M 221.4 218.16 
L 339.006 100.554 
" clip-path="url(#pb6627dcab6)" style="fill: none; stroke: #ffffff; stroke-linecap: round"/>
     </g>
     <g id="text_2">
      <!-- 45° -->
      <g style="fill: #262626" transform="translate(342.35709 91.73041) scale(0.11 -0.11)">
       <defs>
        <path id="ArialMT-34" d="M 2069 0 
L 2069 1097 
L 81 1097 
L 81 1613 
L 2172 4581 
L 2631 4581 
L 2631 1613 
L 3250 1613 
L 3250 1097 
L 2631 1097 
L 2631 0 
L 2069 0 
z
M 2069 1613 
L 2069 3678 
L 634 1613 
L 2069 1613 
z
" transform="scale(0.015625)"/>
        <path id="ArialMT-35" d="M 266 1200 
L 856 1250 
Q 922 819 1161 601 
Q 1400 384 1738 384 
Q 2144 384 2425 690 
Q 2706 997 2706 1503 
Q 2706 1984 2436 2262 
Q 2166 2541 1728 2541 
Q 1456 2541 1237 2417 
Q 1019 2294 894 2097 
L 366 2166 
L 809 4519 
L 3088 4519 
L 3088 3981 
L 1259 3981 
L 1013 2750 
Q 1425 3038 1878 3038 
Q 2478 3038 2890 2622 
Q 3303 2206 3303 1553 
Q 3303 931 2941 478 
Q 2500 -78 1738 -78 
Q 1113 -78 717 272 
Q 322 622 266 1200 
z
" transform="scale(0.015625)"/>
       </defs>
       <use xlink:href="#ArialMT-34"/>
       <use xlink:href="#ArialMT-35" x="55.615234"/>
       <use xlink:href="#ArialMT-b0" x="111.230469"/>
      </g>
     </g>
    </g>
    <g id="xtick_3">
     <g id="line2d_3">
      <path d="M 221.4 218.16 
L 387.72 218.16 
" clip-path="url(#pb6627dcab6)" style="fill: none; stroke: #ffffff; stroke-linecap: round"/>
     </g>
     <g id="text_3">
      <!-- 90° -->
      <g style="fill: #262626" transform="translate(395.903828 221.003672) scale(0.11 -0.11)">
       <defs>
        <path id="ArialMT-39" d="M 350 1059 
L 891 1109 
Q 959 728 1153 556 
Q 1347 384 1650 384 
Q 1909 384 2104 503 
Q 2300 622 2425 820 
Q 2550 1019 2634 1356 
Q 2719 1694 2719 2044 
Q 2719 2081 2716 2156 
Q 2547 1888 2255 1720 
Q 1963 1553 1622 1553 
Q 1053 1553 659 1965 
Q 266 2378 266 3053 
Q 266 3750 677 4175 
Q 1088 4600 1706 4600 
Q 2153 4600 2523 4359 
Q 2894 4119 3086 3673 
Q 3278 3228 3278 2384 
Q 3278 1506 3087 986 
Q 2897 466 2520 194 
Q 2144 -78 1638 -78 
Q 1100 -78 759 220 
Q 419 519 350 1059 
z
M 2653 3081 
Q 2653 3566 2395 3850 
Q 2138 4134 1775 4134 
Q 1400 4134 1122 3828 
Q 844 3522 844 3034 
Q 844 2597 1108 2323 
Q 1372 2050 1759 2050 
Q 2150 2050 2401 2323 
Q 2653 2597 2653 3081 
z
" transform="scale(0.015625)"/>
       </defs>
       <use xlink:href="#ArialMT-39"/>
       <use xlink:href="#ArialMT-30" x="55.615234"/>
       <use xlink:href="#ArialMT-b0" x="111.230469"/>
      </g>
     </g>
    </g>
    <g id="xtick_4">
     <g id="line2d_4">
      <path d="M 221.4 218.16 
L 339.006 335.766 
" clip-path="url(#pb6627dcab6)" style="fill: none; stroke: #ffffff; stroke-linecap: round"/>
     </g>
     <g id="text_4">
      <!-- 135° -->
      <g style="fill: #262626" transform="translate(339.298574 350.276934) scale(0.11 -0.11)">
       <defs>
        <path id="ArialMT-31" d="M 2384 0 
L 1822 0 
L 1822 3584 
Q 1619 3391 1289 3197 
Q 959 3003 697 2906 
L 697 3450 
Q 1169 3672 1522 3987 
Q 1875 4303 2022 4600 
L 2384 4600 
L 2384 0 
z
" transform="scale(0.015625)"/>
        <path id="ArialMT-33" d="M 269 1209 
L 831 1284 
Q 928 806 1161 595 
Q 1394 384 1728 384 
Q 2125 384 2398 659 
Q 2672 934 2672 1341 
Q 2672 1728 2419 1979 
Q 2166 2231 1775 2231 
Q 1616 2231 1378 2169 
L 1441 2663 
Q 1497 2656 1531 2656 
Q 1891 2656 2178 2843 
Q 2466 3031 2466 3422 
Q 2466 3731 2256 3934 
Q 2047 4138 1716 4138 
Q 1388 4138 1169 3931 
Q 950 3725 888 3313 
L 325 3413 
Q 428 3978 793 4289 
Q 1159 4600 1703 4600 
Q 2078 4600 2393 4439 
Q 2709 4278 2876 4000 
Q 3044 3722 3044 3409 
Q 3044 3113 2884 2869 
Q 2725 2625 2413 2481 
Q 2819 2388 3044 2092 
Q 3269 1797 3269 1353 
Q 3269 753 2831 336 
Q 2394 -81 1725 -81 
Q 1122 -81 723 278 
Q 325 638 269 1209 
z
" transform="scale(0.015625)"/>
       </defs>
       <use xlink:href="#ArialMT-31"/>
       <use xlink:href="#ArialMT-33" x="55.615234"/>
       <use xlink:href="#ArialMT-35" x="111.230469"/>
       <use xlink:href="#ArialMT-b0" x="166.845703"/>
      </g>
     </g>
    </g>
    <g id="xtick_5">
     <g id="line2d_5">
      <path d="M 221.4 218.16 
L 221.4 384.48 
" clip-path="url(#pb6627dcab6)" style="fill: none; stroke: #ffffff; stroke-linecap: round"/>
     </g>
     <g id="text_5">
      <!-- 180° -->
      <g style="fill: #262626" transform="translate(210.025312 403.823672) scale(0.11 -0.11)">
       <defs>
        <path id="ArialMT-38" d="M 1131 2484 
Q 781 2613 612 2850 
Q 444 3088 444 3419 
Q 444 3919 803 4259 
Q 1163 4600 1759 4600 
Q 2359 4600 2725 4251 
Q 3091 3903 3091 3403 
Q 3091 3084 2923 2848 
Q 2756 2613 2416 2484 
Q 2838 2347 3058 2040 
Q 3278 1734 3278 1309 
Q 3278 722 2862 322 
Q 2447 -78 1769 -78 
Q 1091 -78 675 323 
Q 259 725 259 1325 
Q 259 1772 486 2073 
Q 713 2375 1131 2484 
z
M 1019 3438 
Q 1019 3113 1228 2906 
Q 1438 2700 1772 2700 
Q 2097 2700 2305 2904 
Q 2513 3109 2513 3406 
Q 2513 3716 2298 3927 
Q 2084 4138 1766 4138 
Q 1444 4138 1231 3931 
Q 1019 3725 1019 3438 
z
M 838 1322 
Q 838 1081 952 856 
Q 1066 631 1291 507 
Q 1516 384 1775 384 
Q 2178 384 2440 643 
Q 2703 903 2703 1303 
Q 2703 1709 2433 1975 
Q 2163 2241 1756 2241 
Q 1359 2241 1098 1978 
Q 838 1716 838 1322 
z
" transform="scale(0.015625)"/>
       </defs>
       <use xlink:href="#ArialMT-31"/>
       <use xlink:href="#ArialMT-38" x="55.615234"/>
       <use xlink:href="#ArialMT-30" x="111.230469"/>
       <use xlink:href="#ArialMT-b0" x="166.845703"/>
      </g>
     </g>
    </g>
    <g id="xtick_6">
     <g id="line2d_6">
      <path d="M 221.4 218.16 
L 103.794 335.766 
" clip-path="url(#pb6627dcab6)" style="fill: none; stroke: #ffffff; stroke-linecap: round"/>
     </g>
     <g id="text_6">
      <!-- 225° -->
      <g style="fill: #262626" transform="translate(80.752051 350.276934) scale(0.11 -0.11)">
       <defs>
        <path id="ArialMT-32" d="M 3222 541 
L 3222 0 
L 194 0 
Q 188 203 259 391 
Q 375 700 629 1000 
Q 884 1300 1366 1694 
Q 2113 2306 2375 2664 
Q 2638 3022 2638 3341 
Q 2638 3675 2398 3904 
Q 2159 4134 1775 4134 
Q 1369 4134 1125 3890 
Q 881 3647 878 3216 
L 300 3275 
Q 359 3922 746 4261 
Q 1134 4600 1788 4600 
Q 2447 4600 2831 4234 
Q 3216 3869 3216 3328 
Q 3216 3053 3103 2787 
Q 2991 2522 2730 2228 
Q 2469 1934 1863 1422 
Q 1356 997 1212 845 
Q 1069 694 975 541 
L 3222 541 
z
" transform="scale(0.015625)"/>
       </defs>
       <use xlink:href="#ArialMT-32"/>
       <use xlink:href="#ArialMT-32" x="55.615234"/>
       <use xlink:href="#ArialMT-35" x="111.230469"/>
       <use xlink:href="#ArialMT-b0" x="166.845703"/>
      </g>
     </g>
    </g>
    <g id="xtick_7">
     <g id="line2d_7">
      <path d="M 221.4 218.16 
L 55.08 218.16 
" clip-path="url(#pb6627dcab6)" style="fill: none; stroke: #ffffff; stroke-linecap: round"/>
     </g>
     <g id="text_7">
      <!-- 270° -->
      <g style="fill: #262626" transform="translate(27.205312 221.003672) scale(0.11 -0.11)">
       <defs>
        <path id="ArialMT-37" d="M 303 3981 
L 303 4522 
L 3269 4522 
L 3269 4084 
Q 2831 3619 2401 2847 
Q 1972 2075 1738 1259 
Q 1569 684 1522 0 
L 944 0 
Q 953 541 1156 1306 
Q 1359 2072 1739 2783 
Q 2119 3494 2547 3981 
L 303 3981 
z
" transform="scale(0.015625)"/>
       </defs>
       <use xlink:href="#ArialMT-32"/>
       <use xlink:href="#ArialMT-37" x="55.615234"/>
       <use xlink:href="#ArialMT-30" x="111.230469"/>
       <use xlink:href="#ArialMT-b0" x="166.845703"/>
      </g>
     </g>
    </g>
    <g id="xtick_8">
     <g id="line2d_8">
      <path d="M 221.4 218.16 
L 103.794 100.554 
" clip-path="url(#pb6627dcab6)" style="fill: none; stroke: #ffffff; stroke-linecap: round"/>
     </g>
     <g id="text_8">
      <!-- 315° -->
      <g style="fill: #262626" transform="translate(80.752051 91.73041) scale(0.11 -0.11)">
       <use xlink:href="#ArialMT-33"/>
       <use xlink:href="#ArialMT-31" x="55.615234"/>
       <use xlink:href="#ArialMT-35" x="111.230469"/>
       <use xlink:href="#ArialMT-b0" x="166.845703"/>
      </g>
     </g>
    </g>
   </g>
   <g id="matplotlib.axis_2">
    <g id="ytick_1">
     <g id="line2d_9">
      <path d="M 221.4 218.16 
C 221.4 218.16 221.4 218.16 221.4 218.16 
C 221.4 218.16 221.4 218.16 221.4 218.16 
C 221.4 218.16 221.4 218.16 221.4 218.16 
C 221.4 218.16 221.4 218.16 221.4 218.16 
C 221.4 218.16 221.4 218.16 221.4 218.16 
C 221.4 218.16 221.4 218.16 221.4 218.16 
C 221.4 218.16 221.4 218.16 221.4 218.16 
C 221.4 218.16 221.4 218.16 221.4 218.16 
C 221.4 218.16 221.4 218.16 221.4 218.16 
C 221.4 218.16 221.4 218.16 221.4 218.16 
C 221.4 218.16 221.4 218.16 221.4 218.16 
C 221.4 218.16 221.4 218.16 221.4 218.16 
C 221.4 218.16 221.4 218.16 221.4 218.16 
C 221.4 218.16 221.4 218.16 221.4 218.16 
C 221.4 218.16 221.4 218.16 221.4 218.16 
C 221.4 218.16 221.4 218.16 221.4 218.16 
" clip-path="url(#pb6627dcab6)" style="fill: none; stroke: #ffffff; stroke-linecap: round"/>
     </g>
     <g id="text_9">
      <!-- 0.0 -->
      <g style="fill: #dc143c" transform="translate(221.4 215.97375) scale(0.11 -0.11)">
       <defs>
        <path id="ArialMT-2e" d="M 581 0 
L 581 641 
L 1222 641 
L 1222 0 
L 581 0 
z
" transform="scale(0.015625)"/>
       </defs>
       <use xlink:href="#ArialMT-30"/>
       <use xlink:href="#ArialMT-2e" x="55.615234"/>
       <use xlink:href="#ArialMT-30" x="83.398438"/>
      </g>
     </g>
    </g>
    <g id="ytick_2">
     <g id="line2d_10">
      <path d="M 221.4 204.3 
C 223.220079 204.3 225.022459 204.658516 226.703992 205.35503 
C 228.385526 206.051544 229.91351 207.07251 231.2005 208.3595 
C 232.48749 209.64649 233.508456 211.174474 234.20497 212.856008 
C 234.901484 214.537541 235.26 216.339921 235.26 218.16 
C 235.26 219.980079 234.901484 221.782459 234.20497 223.463992 
C 233.508456 225.145526 232.48749 226.67351 231.2005 227.9605 
C 229.91351 229.24749 228.385526 230.268456 226.703992 230.96497 
C 225.022459 231.661484 223.220079 232.02 221.4 232.02 
C 219.579921 232.02 217.777541 231.661484 216.096008 230.96497 
C 214.414474 230.268456 212.88649 229.24749 211.5995 227.9605 
C 210.31251 226.67351 209.291544 225.145526 208.59503 223.463992 
C 207.898516 221.782459 207.54 219.980079 207.54 218.16 
C 207.54 216.339921 207.898516 214.537541 208.59503 212.856008 
C 209.291544 211.174474 210.31251 209.64649 211.5995 208.3595 
C 212.88649 207.07251 214.414474 206.051544 216.096008 205.35503 
C 217.777541 204.658516 219.579921 204.3 221.4 204.3 
" clip-path="url(#pb6627dcab6)" style="fill: none; stroke: #ffffff; stroke-linecap: round"/>
     </g>
     <g id="text_10">
      <!-- 0.1 -->
      <g style="fill: #dc143c" transform="translate(226.703992 203.16878) scale(0.11 -0.11)">
       <use xlink:href="#ArialMT-30"/>
       <use xlink:href="#ArialMT-2e" x="55.615234"/>
       <use xlink:href="#ArialMT-31" x="83.398438"/>
      </g>
     </g>
    </g>
    <g id="ytick_3">
     <g id="line2d_11">
      <path d="M 221.4 190.44 
C 225.040157 190.44 228.644918 191.157032 232.007985 192.550059 
C 235.371051 193.943087 238.42702 195.98502 241.001 198.559 
C 243.57498 201.13298 245.616913 204.188949 247.009941 207.552015 
C 248.402968 210.915082 249.12 214.519843 249.12 218.16 
C 249.12 221.800157 248.402968 225.404918 247.009941 228.767985 
C 245.616913 232.131051 243.57498 235.18702 241.001 237.761 
C 238.42702 240.33498 235.371051 242.376913 232.007985 243.769941 
C 228.644918 245.162968 225.040157 245.88 221.4 245.88 
C 217.759843 245.88 214.155082 245.162968 210.792015 243.769941 
C 207.428949 242.376913 204.37298 240.33498 201.799 237.761 
C 199.22502 235.18702 197.183087 232.131051 195.790059 228.767985 
C 194.397032 225.404918 193.68 221.800157 193.68 218.16 
C 193.68 214.519843 194.397032 210.915082 195.790059 207.552015 
C 197.183087 204.188949 199.22502 201.13298 201.799 198.559 
C 204.37298 195.98502 207.428949 193.943087 210.792015 192.550059 
C 214.155082 191.157032 217.759843 190.44 221.4 190.44 
" clip-path="url(#pb6627dcab6)" style="fill: none; stroke: #ffffff; stroke-linecap: round"/>
     </g>
     <g id="text_11">
      <!-- 0.2 -->
      <g style="fill: #dc143c" transform="translate(232.007985 190.363809) scale(0.11 -0.11)">
       <use xlink:href="#ArialMT-30"/>
       <use xlink:href="#ArialMT-2e" x="55.615234"/>
       <use xlink:href="#ArialMT-32" x="83.398438"/>
      </g>
     </g>
    </g>
    <g id="ytick_4">
     <g id="line2d_12">
      <path d="M 221.4 176.58 
C 226.860236 176.58 232.267377 177.655547 237.311977 179.745089 
C 242.356577 181.834631 246.94053 184.89753 250.8015 188.7585 
C 254.66247 192.61947 257.725369 197.203423 259.814911 202.248023 
C 261.904453 207.292623 262.98 212.699764 262.98 218.16 
C 262.98 223.620236 261.904453 229.027377 259.814911 234.071977 
C 257.725369 239.116577 254.66247 243.70053 250.8015 247.5615 
C 246.94053 251.42247 242.356577 254.485369 237.311977 256.574911 
C 232.267377 258.664453 226.860236 259.74 221.4 259.74 
C 215.939764 259.74 210.532623 258.664453 205.488023 256.574911 
C 200.443423 254.485369 195.85947 251.42247 191.9985 247.5615 
C 188.13753 243.70053 185.074631 239.116577 182.985089 234.071977 
C 180.895547 229.027377 179.82 223.620236 179.82 218.16 
C 179.82 212.699764 180.895547 207.292623 182.985089 202.248023 
C 185.074631 197.203423 188.13753 192.61947 191.9985 188.7585 
C 195.85947 184.89753 200.443423 181.834631 205.488023 179.745089 
C 210.532623 177.655547 215.939764 176.58 221.4 176.58 
" clip-path="url(#pb6627dcab6)" style="fill: none; stroke: #ffffff; stroke-linecap: round"/>
     </g>
     <g id="text_12">
      <!-- 0.3 -->
      <g style="fill: #dc143c" transform="translate(237.311977 177.558839) scale(0.11 -0.11)">
       <use xlink:href="#ArialMT-30"/>
       <use xlink:href="#ArialMT-2e" x="55.615234"/>
       <use xlink:href="#ArialMT-33" x="83.398438"/>
      </g>
     </g>
    </g>
    <g id="ytick_5">
     <g id="line2d_13">
      <path d="M 221.4 162.72 
C 228.680314 162.72 235.889836 164.154063 242.615969 166.940119 
C 249.342103 169.726174 255.45404 173.810041 260.602 178.958 
C 265.749959 184.10596 269.833826 190.217897 272.619881 196.944031 
C 275.405937 203.670164 276.84 210.879686 276.84 218.16 
C 276.84 225.440314 275.405937 232.649836 272.619881 239.375969 
C 269.833826 246.102103 265.749959 252.21404 260.602 257.362 
C 255.45404 262.509959 249.342103 266.593826 242.615969 269.379881 
C 235.889836 272.165937 228.680314 273.6 221.4 273.6 
C 214.119686 273.6 206.910164 272.165937 200.184031 269.379881 
C 193.457897 266.593826 187.34596 262.509959 182.198 257.362 
C 177.050041 252.21404 172.966174 246.102103 170.180119 239.375969 
C 167.394063 232.649836 165.96 225.440314 165.96 218.16 
C 165.96 210.879686 167.394063 203.670164 170.180119 196.944031 
C 172.966174 190.217897 177.050041 184.10596 182.198 178.958 
C 187.34596 173.810041 193.457897 169.726174 200.184031 166.940119 
C 206.910164 164.154063 214.119686 162.72 221.4 162.72 
" clip-path="url(#pb6627dcab6)" style="fill: none; stroke: #ffffff; stroke-linecap: round"/>
     </g>
     <g id="text_13">
      <!-- 0.4 -->
      <g style="fill: #dc143c" transform="translate(242.615969 164.753869) scale(0.11 -0.11)">
       <use xlink:href="#ArialMT-30"/>
       <use xlink:href="#ArialMT-2e" x="55.615234"/>
       <use xlink:href="#ArialMT-34" x="83.398438"/>
      </g>
     </g>
    </g>
    <g id="ytick_6">
     <g id="line2d_14">
      <path d="M 221.4 148.86 
C 230.500393 148.86 239.512295 150.652579 247.919962 154.135148 
C 256.327628 157.617718 263.967551 162.722551 270.4025 169.1575 
C 276.837449 175.592449 281.942282 183.232372 285.424852 191.640038 
C 288.907421 200.047705 290.7 209.059607 290.7 218.16 
C 290.7 227.260393 288.907421 236.272295 285.424852 244.679962 
C 281.942282 253.087628 276.837449 260.727551 270.4025 267.1625 
C 263.967551 273.597449 256.327628 278.702282 247.919962 282.184852 
C 239.512295 285.667421 230.500393 287.46 221.4 287.46 
C 212.299607 287.46 203.287705 285.667421 194.880038 282.184852 
C 186.472372 278.702282 178.832449 273.597449 172.3975 267.1625 
C 165.962551 260.727551 160.857718 253.087628 157.375148 244.679962 
C 153.892579 236.272295 152.1 227.260393 152.1 218.16 
C 152.1 209.059607 153.892579 200.047705 157.375148 191.640038 
C 160.857718 183.232372 165.962551 175.592449 172.3975 169.1575 
C 178.832449 162.722551 186.472372 157.617718 194.880038 154.135148 
C 203.287705 150.652579 212.299607 148.86 221.4 148.86 
" clip-path="url(#pb6627dcab6)" style="fill: none; stroke: #ffffff; stroke-linecap: round"/>
     </g>
     <g id="text_14">
      <!-- 0.5 -->
      <g style="fill: #dc143c" transform="translate(247.919962 151.948898) scale(0.11 -0.11)">
       <use xlink:href="#ArialMT-30"/>
       <use xlink:href="#ArialMT-2e" x="55.615234"/>
       <use xlink:href="#ArialMT-35" x="83.398438"/>
      </g>
     </g>
    </g>
    <g id="ytick_7">
     <g id="line2d_15">
      <path d="M 221.4 135 
C 232.320471 135 243.134754 137.151095 253.223954 141.330178 
C 263.313154 145.509261 272.481061 151.635061 280.203 159.357 
C 287.924939 167.078939 294.050739 176.246846 298.229822 186.336046 
C 302.408905 196.425246 304.56 207.239529 304.56 218.16 
C 304.56 229.080471 302.408905 239.894754 298.229822 249.983954 
C 294.050739 260.073154 287.924939 269.241061 280.203 276.963 
C 272.481061 284.684939 263.313154 290.810739 253.223954 294.989822 
C 243.134754 299.168905 232.320471 301.32 221.4 301.32 
C 210.479529 301.32 199.665246 299.168905 189.576046 294.989822 
C 179.486846 290.810739 170.318939 284.684939 162.597 276.963 
C 154.875061 269.241061 148.749261 260.073154 144.570178 249.983954 
C 140.391095 239.894754 138.24 229.080471 138.24 218.16 
C 138.24 207.239529 140.391095 196.425246 144.570178 186.336046 
C 148.749261 176.246846 154.875061 167.078939 162.597 159.357 
C 170.318939 151.635061 179.486846 145.509261 189.576046 141.330178 
C 199.665246 137.151095 210.479529 135 221.4 135 
" clip-path="url(#pb6627dcab6)" style="fill: none; stroke: #ffffff; stroke-linecap: round"/>
     </g>
     <g id="text_15">
      <!-- 0.6 -->
      <g style="fill: #dc143c" transform="translate(253.223954 139.143928) scale(0.11 -0.11)">
       <defs>
        <path id="ArialMT-36" d="M 3184 3459 
L 2625 3416 
Q 2550 3747 2413 3897 
Q 2184 4138 1850 4138 
Q 1581 4138 1378 3988 
Q 1113 3794 959 3422 
Q 806 3050 800 2363 
Q 1003 2672 1297 2822 
Q 1591 2972 1913 2972 
Q 2475 2972 2870 2558 
Q 3266 2144 3266 1488 
Q 3266 1056 3080 686 
Q 2894 316 2569 119 
Q 2244 -78 1831 -78 
Q 1128 -78 684 439 
Q 241 956 241 2144 
Q 241 3472 731 4075 
Q 1159 4600 1884 4600 
Q 2425 4600 2770 4297 
Q 3116 3994 3184 3459 
z
M 888 1484 
Q 888 1194 1011 928 
Q 1134 663 1356 523 
Q 1578 384 1822 384 
Q 2178 384 2434 671 
Q 2691 959 2691 1453 
Q 2691 1928 2437 2201 
Q 2184 2475 1800 2475 
Q 1419 2475 1153 2201 
Q 888 1928 888 1484 
z
" transform="scale(0.015625)"/>
       </defs>
       <use xlink:href="#ArialMT-30"/>
       <use xlink:href="#ArialMT-2e" x="55.615234"/>
       <use xlink:href="#ArialMT-36" x="83.398438"/>
      </g>
     </g>
    </g>
    <g id="ytick_8">
     <g id="line2d_16">
      <path d="M 221.4 121.14 
C 234.14055 121.14 246.757214 123.64961 258.527947 128.525208 
C 270.29868 133.400805 280.994571 140.547571 290.0035 149.5565 
C 299.012429 158.565429 306.159195 169.26132 311.034792 181.032053 
C 315.91039 192.802786 318.42 205.41945 318.42 218.16 
C 318.42 230.90055 315.91039 243.517214 311.034792 255.287947 
C 306.159195 267.05868 299.012429 277.754571 290.0035 286.7635 
C 280.994571 295.772429 270.29868 302.919195 258.527947 307.794792 
C 246.757214 312.67039 234.14055 315.18 221.4 315.18 
C 208.65945 315.18 196.042786 312.67039 184.272053 307.794792 
C 172.50132 302.919195 161.805429 295.772429 152.7965 286.7635 
C 143.787571 277.754571 136.640805 267.05868 131.765208 255.287947 
C 126.88961 243.517214 124.38 230.90055 124.38 218.16 
C 124.38 205.41945 126.88961 192.802786 131.765208 181.032053 
C 136.640805 169.26132 143.787571 158.565429 152.7965 149.5565 
C 161.805429 140.547571 172.50132 133.400805 184.272053 128.525208 
C 196.042786 123.64961 208.65945 121.14 221.4 121.14 
" clip-path="url(#pb6627dcab6)" style="fill: none; stroke: #ffffff; stroke-linecap: round"/>
     </g>
     <g id="text_16">
      <!-- 0.7 -->
      <g style="fill: #dc143c" transform="translate(258.527947 126.338958) scale(0.11 -0.11)">
       <use xlink:href="#ArialMT-30"/>
       <use xlink:href="#ArialMT-2e" x="55.615234"/>
       <use xlink:href="#ArialMT-37" x="83.398438"/>
      </g>
     </g>
    </g>
    <g id="ytick_9">
     <g id="line2d_17">
      <path d="M 221.4 107.28 
C 235.960628 107.28 250.379673 110.148126 263.831939 115.720237 
C 277.284205 121.292349 289.508081 129.460081 299.804 139.756 
C 310.099919 150.051919 318.267651 162.275795 323.839763 175.728061 
C 329.411874 189.180327 332.28 203.599372 332.28 218.16 
C 332.28 232.720628 329.411874 247.139673 323.839763 260.591939 
C 318.267651 274.044205 310.099919 286.268081 299.804 296.564 
C 289.508081 306.859919 277.284205 315.027651 263.831939 320.599763 
C 250.379673 326.171874 235.960628 329.04 221.4 329.04 
C 206.839372 329.04 192.420327 326.171874 178.968061 320.599763 
C 165.515795 315.027651 153.291919 306.859919 142.996 296.564 
C 132.700081 286.268081 124.532349 274.044205 118.960237 260.591939 
C 113.388126 247.139673 110.52 232.720628 110.52 218.16 
C 110.52 203.599372 113.388126 189.180327 118.960237 175.728061 
C 124.532349 162.275795 132.700081 150.051919 142.996 139.756 
C 153.291919 129.460081 165.515795 121.292349 178.968061 115.720237 
C 192.420327 110.148126 206.839372 107.28 221.4 107.28 
" clip-path="url(#pb6627dcab6)" style="fill: none; stroke: #ffffff; stroke-linecap: round"/>
     </g>
     <g id="text_17">
      <!-- 0.8 -->
      <g style="fill: #dc143c" transform="translate(263.831939 113.533987) scale(0.11 -0.11)">
       <use xlink:href="#ArialMT-30"/>
       <use xlink:href="#ArialMT-2e" x="55.615234"/>
       <use xlink:href="#ArialMT-38" x="83.398438"/>
      </g>
     </g>
    </g>
    <g id="ytick_10">
     <g id="line2d_18">
      <path d="M 221.4 93.42 
C 237.780707 93.42 254.002132 96.646642 269.135931 102.915267 
C 284.269731 109.183892 298.021591 118.372591 309.6045 129.9555 
C 321.187409 141.538409 330.376108 155.290269 336.644733 170.424069 
C 342.913358 185.557868 346.14 201.779293 346.14 218.16 
C 346.14 234.540707 342.913358 250.762132 336.644733 265.895931 
C 330.376108 281.029731 321.187409 294.781591 309.6045 306.3645 
C 298.021591 317.947409 284.269731 327.136108 269.135931 333.404733 
C 254.002132 339.673358 237.780707 342.9 221.4 342.9 
C 205.019293 342.9 188.797868 339.673358 173.664069 333.404733 
C 158.530269 327.136108 144.778409 317.947409 133.1955 306.3645 
C 121.612591 294.781591 112.423892 281.029731 106.155267 265.895931 
C 99.886642 250.762132 96.66 234.540707 96.66 218.16 
C 96.66 201.779293 99.886642 185.557868 106.155267 170.424069 
C 112.423892 155.290269 121.612591 141.538409 133.1955 129.9555 
C 144.778409 118.372591 158.530269 109.183892 173.664069 102.915267 
C 188.797868 96.646642 205.019293 93.42 221.4 93.42 
" clip-path="url(#pb6627dcab6)" style="fill: none; stroke: #ffffff; stroke-linecap: round"/>
     </g>
     <g id="text_18">
      <!-- 0.9 -->
      <g style="fill: #dc143c" transform="translate(269.135931 100.729017) scale(0.11 -0.11)">
       <use xlink:href="#ArialMT-30"/>
       <use xlink:href="#ArialMT-2e" x="55.615234"/>
       <use xlink:href="#ArialMT-39" x="83.398438"/>
      </g>
     </g>
    </g>
    <g id="ytick_11">
     <g id="line2d_19">
      <path d="M 221.4 79.56 
C 239.600785 79.56 257.624591 83.145158 274.439924 90.110297 
C 291.255257 97.075436 306.535101 107.285101 319.405 120.155 
C 332.274899 133.024899 342.484564 148.304743 349.449703 165.120076 
C 356.414842 181.935409 360 199.959215 360 218.16 
C 360 236.360785 356.414842 254.384591 349.449703 271.199924 
C 342.484564 288.015257 332.274899 303.295101 319.405 316.165 
C 306.535101 329.034899 291.255257 339.244564 274.439924 346.209703 
C 257.624591 353.174842 239.600785 356.76 221.4 356.76 
C 203.199215 356.76 185.175409 353.174842 168.360076 346.209703 
C 151.544743 339.244564 136.264899 329.034899 123.395 316.165 
C 110.525101 303.295101 100.315436 288.015257 93.350297 271.199924 
C 86.385158 254.384591 82.8 236.360785 82.8 218.16 
C 82.8 199.959215 86.385158 181.935409 93.350297 165.120076 
C 100.315436 148.304743 110.525101 133.024899 123.395 120.155 
C 136.264899 107.285101 151.544743 97.075436 168.360076 90.110297 
C 185.175409 83.145158 203.199215 79.56 221.4 79.56 
" clip-path="url(#pb6627dcab6)" style="fill: none; stroke: #ffffff; stroke-linecap: round"/>
     </g>
     <g id="text_19">
      <!-- 1.0 -->
      <g style="fill: #dc143c" transform="translate(274.439924 87.924047) scale(0.11 -0.11)">
       <use xlink:href="#ArialMT-31"/>
       <use xlink:href="#ArialMT-2e" x="55.615234"/>
       <use xlink:href="#ArialMT-30" x="83.398438"/>
      </g>
     </g>
    </g>
    <g id="ytick_12">
     <g id="line2d_20">
      <path d="M 221.4 65.7 
C 241.420864 65.7 261.24705 69.643674 279.743916 77.305326 
C 298.240782 84.966979 315.048611 96.197612 329.2055 110.3545 
C 343.362388 124.511389 354.593021 141.319218 362.254674 159.816084 
C 369.916326 178.31295 373.86 198.139136 373.86 218.16 
C 373.86 238.180864 369.916326 258.00705 362.254674 276.503916 
C 354.593021 295.000782 343.362388 311.808611 329.2055 325.9655 
C 315.048611 340.122388 298.240782 351.353021 279.743916 359.014674 
C 261.24705 366.676326 241.420864 370.62 221.4 370.62 
C 201.379136 370.62 181.55295 366.676326 163.056084 359.014674 
C 144.559218 351.353021 127.751389 340.122388 113.5945 325.9655 
C 99.437612 311.808611 88.206979 295.000782 80.545326 276.503916 
C 72.883674 258.00705 68.94 238.180864 68.94 218.16 
C 68.94 198.139136 72.883674 178.31295 80.545326 159.816084 
C 88.206979 141.319218 99.437612 124.511389 113.5945 110.3545 
C 127.751389 96.197612 144.559218 84.966979 163.056084 77.305326 
C 181.55295 69.643674 201.379136 65.7 221.4 65.7 
" clip-path="url(#pb6627dcab6)" style="fill: none; stroke: #ffffff; stroke-linecap: round"/>
     </g>
     <g id="text_20">
      <!-- 1.1 -->
      <g style="fill: #dc143c" transform="translate(279.743916 75.119076) scale(0.11 -0.11)">
       <use xlink:href="#ArialMT-31"/>
       <use xlink:href="#ArialMT-2e" x="55.615234"/>
       <use xlink:href="#ArialMT-31" x="83.398438"/>
      </g>
     </g>
    </g>
    <g id="ytick_13">
     <g id="line2d_21">
      <path d="M 221.4 51.84 
C 243.240942 51.84 264.869509 56.142189 285.047908 64.500356 
C 305.226308 72.858523 323.562121 85.110122 339.006 100.554 
C 354.449878 115.997879 366.701477 134.333692 375.059644 154.512092 
C 383.417811 174.690491 387.72 196.319058 387.72 218.16 
C 387.72 240.000942 383.417811 261.629509 375.059644 281.807908 
C 366.701477 301.986308 354.449878 320.322121 339.006 335.766 
C 323.562121 351.209878 305.226308 363.461477 285.047908 371.819644 
C 264.869509 380.177811 243.240942 384.48 221.4 384.48 
C 199.559058 384.48 177.930491 380.177811 157.752092 371.819644 
C 137.573692 363.461477 119.237879 351.209878 103.794 335.766 
C 88.350122 320.322121 76.098523 301.986308 67.740356 281.807908 
C 59.382189 261.629509 55.08 240.000942 55.08 218.16 
C 55.08 196.319058 59.382189 174.690491 67.740356 154.512092 
C 76.098523 134.333692 88.350122 115.997879 103.794 100.554 
C 119.237879 85.110122 137.573692 72.858523 157.752092 64.500356 
C 177.930491 56.142189 199.559058 51.84 221.4 51.84 
" clip-path="url(#pb6627dcab6)" style="fill: none; stroke: #ffffff; stroke-linecap: round"/>
     </g>
     <g id="text_21">
      <!-- 1.2 -->
      <g style="fill: #dc143c" transform="translate(285.047908 62.314106) scale(0.11 -0.11)">
       <use xlink:href="#ArialMT-31"/>
       <use xlink:href="#ArialMT-2e" x="55.615234"/>
       <use xlink:href="#ArialMT-32" x="83.398438"/>
      </g>
     </g>
    </g>
   </g>
   <g id="line2d_22">
    <defs>
     <path id="m4dcf7e2bf1" d="M 0 0.5 
C 0.132602 0.5 0.25979 0.447317 0.353553 0.353553 
C 0.447317 0.25979 0.5 0.132602 0.5 0 
C 0.5 -0.132602 0.447317 -0.25979 0.353553 -0.353553 
C 0.25979 -0.447317 0.132602 -0.5 0 -0.5 
C -0.132602 -0.5 -0.25979 -0.447317 -0.353553 -0.353553 
C -0.447317 -0.25979 -0.5 -0.132602 -0.5 0 
C -0.5 0.132602 -0.447317 0.25979 -0.353553 0.353553 
C -0.25979 0.447317 -0.132602 0.5 0 0.5 
z
" style="stroke: #000000"/>
    </defs>
    <g clip-path="url(#pb6627dcab6)">
     <use xlink:href="#m4dcf7e2bf1" x="223.601202" y="92.05321" style="stroke: #000000"/>
     <use xlink:href="#m4dcf7e2bf1" x="225.753363" y="93.495988" style="stroke: #000000"/>
     <use xlink:href="#m4dcf7e2bf1" x="227.85585" y="94.975052" style="stroke: #000000"/>
     <use xlink:href="#m4dcf7e2bf1" x="230.00474" y="95.106484" style="stroke: #000000"/>
     <use xlink:href="#m4dcf7e2bf1" x="232.030212" y="96.656125" style="stroke: #000000"/>
     <use xlink:href="#m4dcf7e2bf1" x="234.149128" y="96.860153" style="stroke: #000000"/>
     <use xlink:href="#m4dcf7e2bf1" x="236.26416" y="97.101131" style="stroke: #000000"/>
     <use xlink:href="#m4dcf7e2bf1" x="238.374665" y="97.378984" style="stroke: #000000"/>
     <use xlink:href="#m4dcf7e2bf1" x="240.263181" y="99.062565" style="stroke: #000000"/>
     <use xlink:href="#m4dcf7e2bf1" x="242.338845" y="99.409912" style="stroke: #000000"/>
     <use xlink:href="#m4dcf7e2bf1" x="244.40813" y="99.793431" style="stroke: #000000"/>
     <use xlink:href="#m4dcf7e2bf1" x="246.470408" y="100.213006" style="stroke: #000000"/>
     <use xlink:href="#m4dcf7e2bf1" x="248.213266" y="102.018986" style="stroke: #000000"/>
     <use xlink:href="#m4dcf7e2bf1" x="250.236122" y="102.504631" style="stroke: #000000"/>
     <use xlink:href="#m4dcf7e2bf1" x="252.250195" y="103.025505" style="stroke: #000000"/>
     <use xlink:href="#m4dcf7e2bf1" x="254.25487" y="103.581451" style="stroke: #000000"/>
     <use xlink:href="#m4dcf7e2bf1" x="256.249538" y="104.172298" style="stroke: #000000"/>
     <use xlink:href="#m4dcf7e2bf1" x="258.23359" y="104.797867" style="stroke: #000000"/>
     <use xlink:href="#m4dcf7e2bf1" x="260.206422" y="105.457968" style="stroke: #000000"/>
     <use xlink:href="#m4dcf7e2bf1" x="262.641473" y="104.849984" style="stroke: #000000"/>
     <use xlink:href="#m4dcf7e2bf1" x="264.612724" y="105.587005" style="stroke: #000000"/>
     <use xlink:href="#m4dcf7e2bf1" x="266.570812" y="106.358316" style="stroke: #000000"/>
     <use xlink:href="#m4dcf7e2bf1" x="269.056694" y="105.887864" style="stroke: #000000"/>
     <use xlink:href="#m4dcf7e2bf1" x="271.008855" y="106.736688" style="stroke: #000000"/>
     <use xlink:href="#m4dcf7e2bf1" x="273.531653" y="106.363309" style="stroke: #000000"/>
     <use xlink:href="#m4dcf7e2bf1" x="275.474834" y="107.290159" style="stroke: #000000"/>
     <use xlink:href="#m4dcf7e2bf1" x="278.030775" y="107.015846" style="stroke: #000000"/>
     <use xlink:href="#m4dcf7e2bf1" x="280.61257" y="106.797352" style="stroke: #000000"/>
     <use xlink:href="#m4dcf7e2bf1" x="282.547098" y="107.847715" style="stroke: #000000"/>
     <use xlink:href="#m4dcf7e2bf1" x="285.156" y="107.731369" style="stroke: #000000"/>
     <use xlink:href="#m4dcf7e2bf1" x="287.787378" y="107.672849" style="stroke: #000000"/>
     <use xlink:href="#m4dcf7e2bf1" x="290.440001" y="107.672902" style="stroke: #000000"/>
     <use xlink:href="#m4dcf7e2bf1" x="293.112622" y="107.732246" style="stroke: #000000"/>
     <use xlink:href="#m4dcf7e2bf1" x="295.803971" y="107.851577" style="stroke: #000000"/>
     <use xlink:href="#m4dcf7e2bf1" x="297.717786" y="109.166906" style="stroke: #000000"/>
     <use xlink:href="#m4dcf7e2bf1" x="300.423025" y="109.394137" style="stroke: #000000"/>
     <use xlink:href="#m4dcf7e2bf1" x="303.143331" y="109.682936" style="stroke: #000000"/>
     <use xlink:href="#m4dcf7e2bf1" x="305.877374" y="110.033892" style="stroke: #000000"/>
     <use xlink:href="#m4dcf7e2bf1" x="307.751568" y="111.524694" style="stroke: #000000"/>
     <use xlink:href="#m4dcf7e2bf1" x="310.490363" y="111.98624" style="stroke: #000000"/>
     <use xlink:href="#m4dcf7e2bf1" x="313.239079" y="112.511225" style="stroke: #000000"/>
     <use xlink:href="#m4dcf7e2bf1" x="315.068917" y="114.130128" style="stroke: #000000"/>
     <use xlink:href="#m4dcf7e2bf1" x="317.815472" y="114.767064" style="stroke: #000000"/>
     <use xlink:href="#m4dcf7e2bf1" x="319.605243" y="116.465494" style="stroke: #000000"/>
     <use xlink:href="#m4dcf7e2bf1" x="321.3651" y="118.1949" style="stroke: #000000"/>
     <use xlink:href="#m4dcf7e2bf1" x="324.091511" y="118.99196" style="stroke: #000000"/>
     <use xlink:href="#m4dcf7e2bf1" x="325.806592" y="120.799278" style="stroke: #000000"/>
     <use xlink:href="#m4dcf7e2bf1" x="327.489869" y="122.636253" style="stroke: #000000"/>
     <use xlink:href="#m4dcf7e2bf1" x="329.14083" y="124.502325" style="stroke: #000000"/>
     <use xlink:href="#m4dcf7e2bf1" x="331.82071" y="125.506023" style="stroke: #000000"/>
     <use xlink:href="#m4dcf7e2bf1" x="333.420927" y="127.447242" style="stroke: #000000"/>
     <use xlink:href="#m4dcf7e2bf1" x="333.894839" y="130.269399" style="stroke: #000000"/>
     <use xlink:href="#m4dcf7e2bf1" x="335.411608" y="132.246091" style="stroke: #000000"/>
     <use xlink:href="#m4dcf7e2bf1" x="336.893648" y="134.248953" style="stroke: #000000"/>
     <use xlink:href="#m4dcf7e2bf1" x="338.340508" y="136.277375" style="stroke: #000000"/>
     <use xlink:href="#m4dcf7e2bf1" x="338.6027" y="139.105781" style="stroke: #000000"/>
     <use xlink:href="#m4dcf7e2bf1" x="339.964536" y="141.16329" style="stroke: #000000"/>
     <use xlink:href="#m4dcf7e2bf1" x="341.290255" y="143.244254" style="stroke: #000000"/>
     <use xlink:href="#m4dcf7e2bf1" x="341.391422" y="146.06188" style="stroke: #000000"/>
     <use xlink:href="#m4dcf7e2bf1" x="341.431121" y="148.86" style="stroke: #000000"/>
     <use xlink:href="#m4dcf7e2bf1" x="342.622291" y="150.965387" style="stroke: #000000"/>
     <use xlink:href="#m4dcf7e2bf1" x="342.552771" y="153.741929" style="stroke: #000000"/>
     <use xlink:href="#m4dcf7e2bf1" x="343.658569" y="155.866148" style="stroke: #000000"/>
     <use xlink:href="#m4dcf7e2bf1" x="343.481398" y="158.616924" style="stroke: #000000"/>
     <use xlink:href="#m4dcf7e2bf1" x="343.245832" y="161.342356" style="stroke: #000000"/>
     <use xlink:href="#m4dcf7e2bf1" x="342.952704" y="164.041249" style="stroke: #000000"/>
     <use xlink:href="#m4dcf7e2bf1" x="343.878694" y="166.170879" style="stroke: #000000"/>
     <use xlink:href="#m4dcf7e2bf1" x="343.482298" y="168.83555" style="stroke: #000000"/>
     <use xlink:href="#m4dcf7e2bf1" x="343.030592" y="171.47039" style="stroke: #000000"/>
     <use xlink:href="#m4dcf7e2bf1" x="342.524499" y="174.074288" style="stroke: #000000"/>
     <use xlink:href="#m4dcf7e2bf1" x="341.964965" y="176.646153" style="stroke: #000000"/>
     <use xlink:href="#m4dcf7e2bf1" x="341.352954" y="179.184923" style="stroke: #000000"/>
     <use xlink:href="#m4dcf7e2bf1" x="222.827153" y="136.398455" style="stroke: #000000"/>
     <use xlink:href="#m4dcf7e2bf1" x="224.205501" y="137.82097" style="stroke: #000000"/>
     <use xlink:href="#m4dcf7e2bf1" x="225.534645" y="139.266269" style="stroke: #000000"/>
     <use xlink:href="#m4dcf7e2bf1" x="226.910901" y="139.350445" style="stroke: #000000"/>
     <use xlink:href="#m4dcf7e2bf1" x="228.16468" y="140.839352" style="stroke: #000000"/>
     <use xlink:href="#m4dcf7e2bf1" x="229.368205" y="142.347596" style="stroke: #000000"/>
     <use xlink:href="#m4dcf7e2bf1" x="230.6901" y="142.498207" style="stroke: #000000"/>
     <use xlink:href="#m4dcf7e2bf1" x="232.009165" y="142.671865" style="stroke: #000000"/>
     <use xlink:href="#m4dcf7e2bf1" x="233.108181" y="144.237454" style="stroke: #000000"/>
     <use xlink:href="#m4dcf7e2bf1" x="234.396524" y="144.453049" style="stroke: #000000"/>
     <use xlink:href="#m4dcf7e2bf1" x="235.680908" y="144.691095" style="stroke: #000000"/>
     <use xlink:href="#m4dcf7e2bf1" x="236.672777" y="146.307234" style="stroke: #000000"/>
     <use xlink:href="#m4dcf7e2bf1" x="238.236237" y="145.234247" style="stroke: #000000"/>
     <use xlink:href="#m4dcf7e2bf1" x="239.506402" y="145.539187" style="stroke: #000000"/>
     <use xlink:href="#m4dcf7e2bf1" x="242.029802" y="146.21533" style="stroke: #000000"/>
     <use xlink:href="#m4dcf7e2bf1" x="243.282268" y="146.586327" style="stroke: #000000"/>
     <use xlink:href="#m4dcf7e2bf1" x="244.956365" y="145.660962" style="stroke: #000000"/>
     <use xlink:href="#m4dcf7e2bf1" x="246.21806" y="146.083119" style="stroke: #000000"/>
     <use xlink:href="#m4dcf7e2bf1" x="247.946235" y="145.224818" style="stroke: #000000"/>
     <use xlink:href="#m4dcf7e2bf1" x="249.215087" y="145.699222" style="stroke: #000000"/>
     <use xlink:href="#m4dcf7e2bf1" x="254.787688" y="146.559872" style="stroke: #000000"/>
     <use xlink:href="#m4dcf7e2bf1" x="256.63978" y="145.907744" style="stroke: #000000"/>
     <use xlink:href="#m4dcf7e2bf1" x="257.895388" y="146.533768" style="stroke: #000000"/>
     <use xlink:href="#m4dcf7e2bf1" x="259.13988" y="147.181609" style="stroke: #000000"/>
     <use xlink:href="#m4dcf7e2bf1" x="261.044822" y="146.638848" style="stroke: #000000"/>
     <use xlink:href="#m4dcf7e2bf1" x="262.98" y="146.141327" style="stroke: #000000"/>
     <use xlink:href="#m4dcf7e2bf1" x="264.944409" y="145.689933" style="stroke: #000000"/>
     <use xlink:href="#m4dcf7e2bf1" x="266.937022" y="145.285531" style="stroke: #000000"/>
     <use xlink:href="#m4dcf7e2bf1" x="268.201922" y="146.091361" style="stroke: #000000"/>
     <use xlink:href="#m4dcf7e2bf1" x="270.227606" y="145.770097" style="stroke: #000000"/>
     <use xlink:href="#m4dcf7e2bf1" x="272.278524" y="145.497937" style="stroke: #000000"/>
     <use xlink:href="#m4dcf7e2bf1" x="274.353573" y="145.275659" style="stroke: #000000"/>
     <use xlink:href="#m4dcf7e2bf1" x="276.451631" y="145.104018" style="stroke: #000000"/>
     <use xlink:href="#m4dcf7e2bf1" x="278.571556" y="144.983745" style="stroke: #000000"/>
     <use xlink:href="#m4dcf7e2bf1" x="280.712188" y="144.915547" style="stroke: #000000"/>
     <use xlink:href="#m4dcf7e2bf1" x="281.981447" y="145.961843" style="stroke: #000000"/>
     <use xlink:href="#m4dcf7e2bf1" x="283.232251" y="147.030131" style="stroke: #000000"/>
     <use xlink:href="#m4dcf7e2bf1" x="284.464221" y="148.120086" style="stroke: #000000"/>
     <use xlink:href="#m4dcf7e2bf1" x="286.622231" y="148.21772" style="stroke: #000000"/>
     <use xlink:href="#m4dcf7e2bf1" x="286.870162" y="150.363662" style="stroke: #000000"/>
     <use xlink:href="#m4dcf7e2bf1" x="289.02345" y="150.53655" style="stroke: #000000"/>
     <use xlink:href="#m4dcf7e2bf1" x="290.193342" y="151.727041" style="stroke: #000000"/>
     <use xlink:href="#m4dcf7e2bf1" x="291.34228" y="152.937769" style="stroke: #000000"/>
     <use xlink:href="#m4dcf7e2bf1" x="292.469912" y="154.168364" style="stroke: #000000"/>
     <use xlink:href="#m4dcf7e2bf1" x="293.499911" y="153.240949" style="stroke: #000000"/>
     <use xlink:href="#m4dcf7e2bf1" x="294.621923" y="154.509153" style="stroke: #000000"/>
     <use xlink:href="#m4dcf7e2bf1" x="295.721632" y="155.796746" style="stroke: #000000"/>
     <use xlink:href="#m4dcf7e2bf1" x="296.798701" y="157.103336" style="stroke: #000000"/>
     <use xlink:href="#m4dcf7e2bf1" x="297.852803" y="158.428524" style="stroke: #000000"/>
     <use xlink:href="#m4dcf7e2bf1" x="298.883617" y="159.771906" style="stroke: #000000"/>
     <use xlink:href="#m4dcf7e2bf1" x="301.012126" y="160.318404" style="stroke: #000000"/>
     <use xlink:href="#m4dcf7e2bf1" x="299.890829" y="161.133075" style="stroke: #000000"/>
     <use xlink:href="#m4dcf7e2bf1" x="300.874131" y="162.511614" style="stroke: #000000"/>
     <use xlink:href="#m4dcf7e2bf1" x="300.684179" y="164.682146" style="stroke: #000000"/>
     <use xlink:href="#m4dcf7e2bf1" x="300.443024" y="166.82886" style="stroke: #000000"/>
     <use xlink:href="#m4dcf7e2bf1" x="301.326837" y="168.216169" style="stroke: #000000"/>
     <use xlink:href="#m4dcf7e2bf1" x="302.186304" y="169.618692" style="stroke: #000000"/>
     <use xlink:href="#m4dcf7e2bf1" x="303.021162" y="171.036" style="stroke: #000000"/>
     <use xlink:href="#m4dcf7e2bf1" x="302.618935" y="173.139609" style="stroke: #000000"/>
     <use xlink:href="#m4dcf7e2bf1" x="303.392279" y="174.563932" style="stroke: #000000"/>
     <use xlink:href="#m4dcf7e2bf1" x="302.905713" y="176.630765" style="stroke: #000000"/>
     <use xlink:href="#m4dcf7e2bf1" x="302.372356" y="178.667143" style="stroke: #000000"/>
     <use xlink:href="#m4dcf7e2bf1" x="303.049269" y="180.086321" style="stroke: #000000"/>
     <use xlink:href="#m4dcf7e2bf1" x="302.435136" y="182.080833" style="stroke: #000000"/>
     <use xlink:href="#m4dcf7e2bf1" x="303.052463" y="183.500586" style="stroke: #000000"/>
     <use xlink:href="#m4dcf7e2bf1" x="303.644917" y="184.930897" style="stroke: #000000"/>
     <use xlink:href="#m4dcf7e2bf1" x="302.918376" y="186.868027" style="stroke: #000000"/>
     <use xlink:href="#m4dcf7e2bf1" x="302.149666" y="188.769525" style="stroke: #000000"/>
     <use xlink:href="#m4dcf7e2bf1" x="301.339813" y="190.634515" style="stroke: #000000"/>
     <use xlink:href="#m4dcf7e2bf1" x="300.48986" y="192.462147" style="stroke: #000000"/>
    </g>
   </g>
   <g id="patch_3">
    <path d="M 221.4 51.84 
C 199.559058 51.84 177.930491 56.142189 157.752092 64.500356 
C 137.573692 72.858523 119.237879 85.110122 103.794 100.554 
C 88.350122 115.997879 76.098523 134.333692 67.740356 154.512092 
C 59.382189 174.690491 55.08 196.319058 55.08 218.16 
C 55.08 240.000942 59.382189 261.629509 67.740356 281.807908 
C 76.098523 301.986308 88.350122 320.322121 103.794 335.766 
C 119.237879 351.209878 137.573692 363.461477 157.752092 371.819644 
C 177.930491 380.177811 199.559058 384.48 221.4 384.48 
C 243.240942 384.48 264.869509 380.177811 285.047908 371.819644 
C 305.226308 363.461477 323.562121 351.209878 339.006 335.766 
C 354.449878 320.322121 366.701477 301.986308 375.059644 281.807908 
C 383.417811 261.629509 387.72 240.000942 387.72 218.16 
C 387.72 196.319058 383.417811 174.690491 375.059644 154.512092 
C 366.701477 134.333692 354.449878 115.997879 339.006 100.554 
C 323.562121 85.110122 305.226308 72.858523 285.047908 64.500356 
C 264.869509 56.142189 243.240942 51.84 221.4 51.84 
" style="fill: none; stroke: #ffffff; stroke-width: 1.25; stroke-linejoin: miter; stroke-linecap: square"/>
   </g>
  </g>
 </g>
 <defs>
  <clipPath id="pb6627dcab6">
   <path d="M 387.72 218.16 
C 387.72 196.319058 383.417811 174.690491 375.059644 154.512092 
C 366.701477 134.333692 354.449878 115.997879 339.006 100.554 
C 323.562121 85.110122 305.226308 72.858523 285.047908 64.500356 
C 264.869509 56.142189 243.240942 51.84 221.4 51.84 
C 199.559058 51.84 177.930491 56.142189 157.752092 64.500356 
C 137.573692 72.858523 119.237879 85.110122 103.794 100.554 
C 88.350122 115.997879 76.098523 134.333692 67.740356 154.512092 
C 59.382189 174.690491 55.08 196.319058 55.08 218.16 
C 55.08 240.000942 59.382189 261.629509 67.740356 281.807908 
C 76.098523 301.986308 88.350122 320.322121 103.794 335.766 
C 119.237879 351.209878 137.573692 363.461477 157.752092 371.819644 
C 177.930491 380.177811 199.559058 384.48 221.4 384.48 
C 243.240942 384.48 264.869509 380.177811 285.047908 371.819644 
C 305.226308 363.461477 323.562121 351.209878 339.006 335.766 
C 354.449878 320.322121 366.701477 301.986308 375.059644 281.807908 
C 383.417811 261.629509 387.72 240.000942 387.72 218.16 
M 221.4 218.16 
C 221.4 218.16 221.4 218.16 221.4 218.16 
C 221.4 218.16 221.4 218.16 221.4 218.16 
C 221.4 218.16 221.4 218.16 221.4 218.16 
C 221.4 218.16 221.4 218.16 221.4 218.16 
C 221.4 218.16 221.4 218.16 221.4 218.16 
C 221.4 218.16 221.4 218.16 221.4 218.16 
C 221.4 218.16 221.4 218.16 221.4 218.16 
C 221.4 218.16 221.4 218.16 221.4 218.16 
C 221.4 218.16 221.4 218.16 221.4 218.16 
C 221.4 218.16 221.4 218.16 221.4 218.16 
C 221.4 218.16 221.4 218.16 221.4 218.16 
C 221.4 218.16 221.4 218.16 221.4 218.16 
C 221.4 218.16 221.4 218.16 221.4 218.16 
C 221.4 218.16 221.4 218.16 221.4 218.16 
C 221.4 218.16 221.4 218.16 221.4 218.16 
C 221.4 218.16 221.4 218.16 221.4 218.16 
z
"/>
  </clipPath>
 </defs>
</svg>
