<?xml version="1.0" encoding="utf-8" standalone="no"?>
<!DOCTYPE svg PUBLIC "-//W3C//DTD SVG 1.1//EN"
  "http://www.w3.org/Graphics/SVG/1.1/DTD/svg11.dtd">
<svg xmlns:xlink="http://www.w3.org/1999/xlink" width="460.8pt" height="345.6pt" viewBox="0 0 460.8 345.6" xmlns="http://www.w3.org/2000/svg" version="1.1">
 <metadata>
  <rdf:RDF xmlns:dc="http://purl.org/dc/elements/1.1/" xmlns:cc="http://creativecommons.org/ns#" xmlns:rdf="http://www.w3.org/1999/02/22-rdf-syntax-ns#">
   <cc:Work>
    <dc:type rdf:resource="http://purl.org/dc/dcmitype/StillImage"/>
    <dc:date>2024-08-06T12:21:01.875758</dc:date>
    <dc:format>image/svg+xml</dc:format>
    <dc:creator>
     <cc:Agent>
      <dc:title>Matplotlib v3.9.1, https://matplotlib.org/</dc:title>
     </cc:Agent>
    </dc:creator>
   </cc:Work>
  </rdf:RDF>
 </metadata>
 <defs>
  <style type="text/css">*{stroke-linejoin: round; stroke-linecap: butt}</style>
 </defs>
 <g id="figure_1">
  <g id="patch_1">
   <path d="M 0 345.6 
L 460.8 345.6 
L 460.8 0 
L 0 0 
z
" style="fill: #ffffff"/>
  </g>
  <g id="axes_1">
   <g id="patch_2">
    <path d="M 369.216 174.528 
C 369.216 157.055246 365.774248 139.752393 359.087715 123.609673 
C 352.401182 107.466954 342.599903 92.798303 330.2448 80.4432 
C 317.889697 68.088097 303.221046 58.286818 287.078327 51.600285 
C 270.935607 44.913752 253.632754 41.472 236.16 41.472 
C 218.687246 41.472 201.384393 44.913752 185.241673 51.600285 
C 169.098954 58.286818 154.430303 68.088097 142.0752 80.4432 
C 129.720097 92.798303 119.918818 107.466954 113.232285 123.609673 
C 106.545752 139.752393 103.104 157.055246 103.104 174.528 
C 103.104 192.000754 106.545752 209.303607 113.232285 225.446327 
C 119.918818 241.589046 129.720097 256.257697 142.0752 268.6128 
C 154.430303 280.967903 169.098954 290.769182 185.241673 297.455715 
C 201.384393 304.142248 218.687246 307.584 236.16 307.584 
C 253.632754 307.584 270.935607 304.142248 287.078327 297.455715 
C 303.221046 290.769182 317.889697 280.967903 330.2448 268.6128 
C 342.599903 256.257697 352.401182 241.589046 359.087715 225.446327 
C 365.774248 209.303607 369.216 192.000754 369.216 174.528 
M 236.16 174.528 
C 236.16 174.528 236.16 174.528 236.16 174.528 
C 236.16 174.528 236.16 174.528 236.16 174.528 
C 236.16 174.528 236.16 174.528 236.16 174.528 
C 236.16 174.528 236.16 174.528 236.16 174.528 
C 236.16 174.528 236.16 174.528 236.16 174.528 
C 236.16 174.528 236.16 174.528 236.16 174.528 
C 236.16 174.528 236.16 174.528 236.16 174.528 
C 236.16 174.528 236.16 174.528 236.16 174.528 
C 236.16 174.528 236.16 174.528 236.16 174.528 
C 236.16 174.528 236.16 174.528 236.16 174.528 
C 236.16 174.528 236.16 174.528 236.16 174.528 
C 236.16 174.528 236.16 174.528 236.16 174.528 
C 236.16 174.528 236.16 174.528 236.16 174.528 
C 236.16 174.528 236.16 174.528 236.16 174.528 
C 236.16 174.528 236.16 174.528 236.16 174.528 
C 236.16 174.528 236.16 174.528 236.16 174.528 
z
" style="fill: #eaeaf2"/>
   </g>
   <g id="matplotlib.axis_1">
    <g id="xtick_1">
     <g id="line2d_1">
      <path d="M 236.16 174.528 
L 236.16 41.472 
" clip-path="url(#p93e165b583)" style="fill: none; stroke: #ffffff; stroke-linecap: round"/>
     </g>
     <g id="text_1">
      <!-- 0° -->
      <g style="fill: #262626" transform="translate(230.902344 27.815672) scale(0.11 -0.11)">
       <defs>
        <path id="ArialMT-30" d="M 266 2259 
Q 266 3072 433 3567 
Q 600 4063 929 4331 
Q 1259 4600 1759 4600 
Q 2128 4600 2406 4451 
Q 2684 4303 2865 4023 
Q 3047 3744 3150 3342 
Q 3253 2941 3253 2259 
Q 3253 1453 3087 958 
Q 2922 463 2592 192 
Q 2263 -78 1759 -78 
Q 1097 -78 719 397 
Q 266 969 266 2259 
z
M 844 2259 
Q 844 1131 1108 757 
Q 1372 384 1759 384 
Q 2147 384 2411 759 
Q 2675 1134 2675 2259 
Q 2675 3391 2411 3762 
Q 2147 4134 1753 4134 
Q 1366 4134 1134 3806 
Q 844 3388 844 2259 
z
" transform="scale(0.015625)"/>
        <path id="ArialMT-b0" d="M 400 3794 
Q 400 4153 654 4406 
Q 909 4659 1266 4659 
Q 1628 4659 1881 4406 
Q 2134 4153 2134 3794 
Q 2134 3434 1879 3179 
Q 1625 2925 1266 2925 
Q 909 2925 654 3178 
Q 400 3431 400 3794 
z
M 741 3794 
Q 741 3575 895 3420 
Q 1050 3266 1269 3266 
Q 1484 3266 1639 3420 
Q 1794 3575 1794 3794 
Q 1794 4013 1639 4167 
Q 1484 4322 1269 4322 
Q 1050 4322 895 4167 
Q 741 4013 741 3794 
z
" transform="scale(0.015625)"/>
       </defs>
       <use xlink:href="#ArialMT-30"/>
       <use xlink:href="#ArialMT-b0" x="55.615234"/>
      </g>
     </g>
    </g>
    <g id="xtick_2">
     <g id="line2d_2">
      <path d="M 236.16 174.528 
L 330.2448 80.4432 
" clip-path="url(#p93e165b583)" style="fill: none; stroke: #ffffff; stroke-linecap: round"/>
     </g>
     <g id="text_2">
      <!-- 45° -->
      <g style="fill: #262626" transform="translate(333.59589 71.61961) scale(0.11 -0.11)">
       <defs>
        <path id="ArialMT-34" d="M 2069 0 
L 2069 1097 
L 81 1097 
L 81 1613 
L 2172 4581 
L 2631 4581 
L 2631 1613 
L 3250 1613 
L 3250 1097 
L 2631 1097 
L 2631 0 
L 2069 0 
z
M 2069 1613 
L 2069 3678 
L 634 1613 
L 2069 1613 
z
" transform="scale(0.015625)"/>
        <path id="ArialMT-35" d="M 266 1200 
L 856 1250 
Q 922 819 1161 601 
Q 1400 384 1738 384 
Q 2144 384 2425 690 
Q 2706 997 2706 1503 
Q 2706 1984 2436 2262 
Q 2166 2541 1728 2541 
Q 1456 2541 1237 2417 
Q 1019 2294 894 2097 
L 366 2166 
L 809 4519 
L 3088 4519 
L 3088 3981 
L 1259 3981 
L 1013 2750 
Q 1425 3038 1878 3038 
Q 2478 3038 2890 2622 
Q 3303 2206 3303 1553 
Q 3303 931 2941 478 
Q 2500 -78 1738 -78 
Q 1113 -78 717 272 
Q 322 622 266 1200 
z
" transform="scale(0.015625)"/>
       </defs>
       <use xlink:href="#ArialMT-34"/>
       <use xlink:href="#ArialMT-35" x="55.615234"/>
       <use xlink:href="#ArialMT-b0" x="111.230469"/>
      </g>
     </g>
    </g>
    <g id="xtick_3">
     <g id="line2d_3">
      <path d="M 236.16 174.528 
L 369.216 174.528 
" clip-path="url(#p93e165b583)" style="fill: none; stroke: #ffffff; stroke-linecap: round"/>
     </g>
     <g id="text_3">
      <!-- 90° -->
      <g style="fill: #262626" transform="translate(377.399828 177.371672) scale(0.11 -0.11)">
       <defs>
        <path id="ArialMT-39" d="M 350 1059 
L 891 1109 
Q 959 728 1153 556 
Q 1347 384 1650 384 
Q 1909 384 2104 503 
Q 2300 622 2425 820 
Q 2550 1019 2634 1356 
Q 2719 1694 2719 2044 
Q 2719 2081 2716 2156 
Q 2547 1888 2255 1720 
Q 1963 1553 1622 1553 
Q 1053 1553 659 1965 
Q 266 2378 266 3053 
Q 266 3750 677 4175 
Q 1088 4600 1706 4600 
Q 2153 4600 2523 4359 
Q 2894 4119 3086 3673 
Q 3278 3228 3278 2384 
Q 3278 1506 3087 986 
Q 2897 466 2520 194 
Q 2144 -78 1638 -78 
Q 1100 -78 759 220 
Q 419 519 350 1059 
z
M 2653 3081 
Q 2653 3566 2395 3850 
Q 2138 4134 1775 4134 
Q 1400 4134 1122 3828 
Q 844 3522 844 3034 
Q 844 2597 1108 2323 
Q 1372 2050 1759 2050 
Q 2150 2050 2401 2323 
Q 2653 2597 2653 3081 
z
" transform="scale(0.015625)"/>
       </defs>
       <use xlink:href="#ArialMT-39"/>
       <use xlink:href="#ArialMT-30" x="55.615234"/>
       <use xlink:href="#ArialMT-b0" x="111.230469"/>
      </g>
     </g>
    </g>
    <g id="xtick_4">
     <g id="line2d_4">
      <path d="M 236.16 174.528 
L 330.2448 268.6128 
" clip-path="url(#p93e165b583)" style="fill: none; stroke: #ffffff; stroke-linecap: round"/>
     </g>
     <g id="text_4">
      <!-- 135° -->
      <g style="fill: #262626" transform="translate(330.537374 283.123734) scale(0.11 -0.11)">
       <defs>
        <path id="ArialMT-31" d="M 2384 0 
L 1822 0 
L 1822 3584 
Q 1619 3391 1289 3197 
Q 959 3003 697 2906 
L 697 3450 
Q 1169 3672 1522 3987 
Q 1875 4303 2022 4600 
L 2384 4600 
L 2384 0 
z
" transform="scale(0.015625)"/>
        <path id="ArialMT-33" d="M 269 1209 
L 831 1284 
Q 928 806 1161 595 
Q 1394 384 1728 384 
Q 2125 384 2398 659 
Q 2672 934 2672 1341 
Q 2672 1728 2419 1979 
Q 2166 2231 1775 2231 
Q 1616 2231 1378 2169 
L 1441 2663 
Q 1497 2656 1531 2656 
Q 1891 2656 2178 2843 
Q 2466 3031 2466 3422 
Q 2466 3731 2256 3934 
Q 2047 4138 1716 4138 
Q 1388 4138 1169 3931 
Q 950 3725 888 3313 
L 325 3413 
Q 428 3978 793 4289 
Q 1159 4600 1703 4600 
Q 2078 4600 2393 4439 
Q 2709 4278 2876 4000 
Q 3044 3722 3044 3409 
Q 3044 3113 2884 2869 
Q 2725 2625 2413 2481 
Q 2819 2388 3044 2092 
Q 3269 1797 3269 1353 
Q 3269 753 2831 336 
Q 2394 -81 1725 -81 
Q 1122 -81 723 278 
Q 325 638 269 1209 
z
" transform="scale(0.015625)"/>
       </defs>
       <use xlink:href="#ArialMT-31"/>
       <use xlink:href="#ArialMT-33" x="55.615234"/>
       <use xlink:href="#ArialMT-35" x="111.230469"/>
       <use xlink:href="#ArialMT-b0" x="166.845703"/>
      </g>
     </g>
    </g>
    <g id="xtick_5">
     <g id="line2d_5">
      <path d="M 236.16 174.528 
L 236.16 307.584 
" clip-path="url(#p93e165b583)" style="fill: none; stroke: #ffffff; stroke-linecap: round"/>
     </g>
     <g id="text_5">
      <!-- 180° -->
      <g style="fill: #262626" transform="translate(224.785313 326.927672) scale(0.11 -0.11)">
       <defs>
        <path id="ArialMT-38" d="M 1131 2484 
Q 781 2613 612 2850 
Q 444 3088 444 3419 
Q 444 3919 803 4259 
Q 1163 4600 1759 4600 
Q 2359 4600 2725 4251 
Q 3091 3903 3091 3403 
Q 3091 3084 2923 2848 
Q 2756 2613 2416 2484 
Q 2838 2347 3058 2040 
Q 3278 1734 3278 1309 
Q 3278 722 2862 322 
Q 2447 -78 1769 -78 
Q 1091 -78 675 323 
Q 259 725 259 1325 
Q 259 1772 486 2073 
Q 713 2375 1131 2484 
z
M 1019 3438 
Q 1019 3113 1228 2906 
Q 1438 2700 1772 2700 
Q 2097 2700 2305 2904 
Q 2513 3109 2513 3406 
Q 2513 3716 2298 3927 
Q 2084 4138 1766 4138 
Q 1444 4138 1231 3931 
Q 1019 3725 1019 3438 
z
M 838 1322 
Q 838 1081 952 856 
Q 1066 631 1291 507 
Q 1516 384 1775 384 
Q 2178 384 2440 643 
Q 2703 903 2703 1303 
Q 2703 1709 2433 1975 
Q 2163 2241 1756 2241 
Q 1359 2241 1098 1978 
Q 838 1716 838 1322 
z
" transform="scale(0.015625)"/>
       </defs>
       <use xlink:href="#ArialMT-31"/>
       <use xlink:href="#ArialMT-38" x="55.615234"/>
       <use xlink:href="#ArialMT-30" x="111.230469"/>
       <use xlink:href="#ArialMT-b0" x="166.845703"/>
      </g>
     </g>
    </g>
    <g id="xtick_6">
     <g id="line2d_6">
      <path d="M 236.16 174.528 
L 142.0752 268.6128 
" clip-path="url(#p93e165b583)" style="fill: none; stroke: #ffffff; stroke-linecap: round"/>
     </g>
     <g id="text_6">
      <!-- 225° -->
      <g style="fill: #262626" transform="translate(119.033251 283.123734) scale(0.11 -0.11)">
       <defs>
        <path id="ArialMT-32" d="M 3222 541 
L 3222 0 
L 194 0 
Q 188 203 259 391 
Q 375 700 629 1000 
Q 884 1300 1366 1694 
Q 2113 2306 2375 2664 
Q 2638 3022 2638 3341 
Q 2638 3675 2398 3904 
Q 2159 4134 1775 4134 
Q 1369 4134 1125 3890 
Q 881 3647 878 3216 
L 300 3275 
Q 359 3922 746 4261 
Q 1134 4600 1788 4600 
Q 2447 4600 2831 4234 
Q 3216 3869 3216 3328 
Q 3216 3053 3103 2787 
Q 2991 2522 2730 2228 
Q 2469 1934 1863 1422 
Q 1356 997 1212 845 
Q 1069 694 975 541 
L 3222 541 
z
" transform="scale(0.015625)"/>
       </defs>
       <use xlink:href="#ArialMT-32"/>
       <use xlink:href="#ArialMT-32" x="55.615234"/>
       <use xlink:href="#ArialMT-35" x="111.230469"/>
       <use xlink:href="#ArialMT-b0" x="166.845703"/>
      </g>
     </g>
    </g>
    <g id="xtick_7">
     <g id="line2d_7">
      <path d="M 236.16 174.528 
L 103.104 174.528 
" clip-path="url(#p93e165b583)" style="fill: none; stroke: #ffffff; stroke-linecap: round"/>
     </g>
     <g id="text_7">
      <!-- 270° -->
      <g style="fill: #262626" transform="translate(75.229313 177.371672) scale(0.11 -0.11)">
       <defs>
        <path id="ArialMT-37" d="M 303 3981 
L 303 4522 
L 3269 4522 
L 3269 4084 
Q 2831 3619 2401 2847 
Q 1972 2075 1738 1259 
Q 1569 684 1522 0 
L 944 0 
Q 953 541 1156 1306 
Q 1359 2072 1739 2783 
Q 2119 3494 2547 3981 
L 303 3981 
z
" transform="scale(0.015625)"/>
       </defs>
       <use xlink:href="#ArialMT-32"/>
       <use xlink:href="#ArialMT-37" x="55.615234"/>
       <use xlink:href="#ArialMT-30" x="111.230469"/>
       <use xlink:href="#ArialMT-b0" x="166.845703"/>
      </g>
     </g>
    </g>
    <g id="xtick_8">
     <g id="line2d_8">
      <path d="M 236.16 174.528 
L 142.0752 80.4432 
" clip-path="url(#p93e165b583)" style="fill: none; stroke: #ffffff; stroke-linecap: round"/>
     </g>
     <g id="text_8">
      <!-- 315° -->
      <g style="fill: #262626" transform="translate(119.033251 71.61961) scale(0.11 -0.11)">
       <use xlink:href="#ArialMT-33"/>
       <use xlink:href="#ArialMT-31" x="55.615234"/>
       <use xlink:href="#ArialMT-35" x="111.230469"/>
       <use xlink:href="#ArialMT-b0" x="166.845703"/>
      </g>
     </g>
    </g>
   </g>
   <g id="matplotlib.axis_2">
    <g id="ytick_1">
     <g id="line2d_9">
      <path d="M 236.16 174.528 
C 236.16 174.528 236.16 174.528 236.16 174.528 
C 236.16 174.528 236.16 174.528 236.16 174.528 
C 236.16 174.528 236.16 174.528 236.16 174.528 
C 236.16 174.528 236.16 174.528 236.16 174.528 
C 236.16 174.528 236.16 174.528 236.16 174.528 
C 236.16 174.528 236.16 174.528 236.16 174.528 
C 236.16 174.528 236.16 174.528 236.16 174.528 
C 236.16 174.528 236.16 174.528 236.16 174.528 
C 236.16 174.528 236.16 174.528 236.16 174.528 
C 236.16 174.528 236.16 174.528 236.16 174.528 
C 236.16 174.528 236.16 174.528 236.16 174.528 
C 236.16 174.528 236.16 174.528 236.16 174.528 
C 236.16 174.528 236.16 174.528 236.16 174.528 
C 236.16 174.528 236.16 174.528 236.16 174.528 
C 236.16 174.528 236.16 174.528 236.16 174.528 
C 236.16 174.528 236.16 174.528 236.16 174.528 
" clip-path="url(#p93e165b583)" style="fill: none; stroke: #ffffff; stroke-linecap: round"/>
     </g>
     <g id="text_9">
      <!-- 0.0 -->
      <g style="fill: #dc143c" transform="translate(236.16 172.34175) scale(0.11 -0.11)">
       <defs>
        <path id="ArialMT-2e" d="M 581 0 
L 581 641 
L 1222 641 
L 1222 0 
L 581 0 
z
" transform="scale(0.015625)"/>
       </defs>
       <use xlink:href="#ArialMT-30"/>
       <use xlink:href="#ArialMT-2e" x="55.615234"/>
       <use xlink:href="#ArialMT-30" x="83.398438"/>
      </g>
     </g>
    </g>
    <g id="ytick_2">
     <g id="line2d_10">
      <path d="M 236.16 161.2224 
C 237.907275 161.2224 239.637561 161.566575 241.251833 162.235228 
C 242.866105 162.903882 244.33297 163.88401 245.56848 165.11952 
C 246.80399 166.35503 247.784118 167.821895 248.452772 169.436167 
C 249.121425 171.050439 249.4656 172.780725 249.4656 174.528 
C 249.4656 176.275275 249.121425 178.005561 248.452772 179.619833 
C 247.784118 181.234105 246.80399 182.70097 245.56848 183.93648 
C 244.33297 185.17199 242.866105 186.152118 241.251833 186.820772 
C 239.637561 187.489425 237.907275 187.8336 236.16 187.8336 
C 234.412725 187.8336 232.682439 187.489425 231.068167 186.820772 
C 229.453895 186.152118 227.98703 185.17199 226.75152 183.93648 
C 225.51601 182.70097 224.535882 181.234105 223.867228 179.619833 
C 223.198575 178.005561 222.8544 176.275275 222.8544 174.528 
C 222.8544 172.780725 223.198575 171.050439 223.867228 169.436167 
C 224.535882 167.821895 225.51601 166.35503 226.75152 165.11952 
C 227.98703 163.88401 229.453895 162.903882 231.068167 162.235228 
C 232.682439 161.566575 234.412725 161.2224 236.16 161.2224 
" clip-path="url(#p93e165b583)" style="fill: none; stroke: #ffffff; stroke-linecap: round"/>
     </g>
     <g id="text_10">
      <!-- 0.1 -->
      <g style="fill: #dc143c" transform="translate(241.251833 160.048978) scale(0.11 -0.11)">
       <use xlink:href="#ArialMT-30"/>
       <use xlink:href="#ArialMT-2e" x="55.615234"/>
       <use xlink:href="#ArialMT-31" x="83.398438"/>
      </g>
     </g>
    </g>
    <g id="ytick_3">
     <g id="line2d_11">
      <path d="M 236.16 147.9168 
C 239.654551 147.9168 243.115121 148.60515 246.343665 149.942457 
C 249.572209 151.279764 252.505939 153.240019 254.97696 155.71104 
C 257.447981 158.182061 259.408236 161.115791 260.745543 164.344335 
C 262.08285 167.572879 262.7712 171.033449 262.7712 174.528 
C 262.7712 178.022551 262.08285 181.483121 260.745543 184.711665 
C 259.408236 187.940209 257.447981 190.873939 254.97696 193.34496 
C 252.505939 195.815981 249.572209 197.776236 246.343665 199.113543 
C 243.115121 200.45085 239.654551 201.1392 236.16 201.1392 
C 232.665449 201.1392 229.204879 200.45085 225.976335 199.113543 
C 222.747791 197.776236 219.814061 195.815981 217.34304 193.34496 
C 214.872019 190.873939 212.911764 187.940209 211.574457 184.711665 
C 210.23715 181.483121 209.5488 178.022551 209.5488 174.528 
C 209.5488 171.033449 210.23715 167.572879 211.574457 164.344335 
C 212.911764 161.115791 214.872019 158.182061 217.34304 155.71104 
C 219.814061 153.240019 222.747791 151.279764 225.976335 149.942457 
C 229.204879 148.60515 232.665449 147.9168 236.16 147.9168 
" clip-path="url(#p93e165b583)" style="fill: none; stroke: #ffffff; stroke-linecap: round"/>
     </g>
     <g id="text_11">
      <!-- 0.2 -->
      <g style="fill: #dc143c" transform="translate(246.343665 147.756207) scale(0.11 -0.11)">
       <use xlink:href="#ArialMT-30"/>
       <use xlink:href="#ArialMT-2e" x="55.615234"/>
       <use xlink:href="#ArialMT-32" x="83.398438"/>
      </g>
     </g>
    </g>
    <g id="ytick_4">
     <g id="line2d_12">
      <path d="M 236.16 134.6112 
C 241.401826 134.6112 246.592682 135.643725 251.435498 137.649685 
C 256.278314 139.655645 260.678909 142.596029 264.38544 146.30256 
C 268.091971 150.009091 271.032355 154.409686 273.038315 159.252502 
C 275.044275 164.095318 276.0768 169.286174 276.0768 174.528 
C 276.0768 179.769826 275.044275 184.960682 273.038315 189.803498 
C 271.032355 194.646314 268.091971 199.046909 264.38544 202.75344 
C 260.678909 206.459971 256.278314 209.400355 251.435498 211.406315 
C 246.592682 213.412275 241.401826 214.4448 236.16 214.4448 
C 230.918174 214.4448 225.727318 213.412275 220.884502 211.406315 
C 216.041686 209.400355 211.641091 206.459971 207.93456 202.75344 
C 204.228029 199.046909 201.287645 194.646314 199.281685 189.803498 
C 197.275725 184.960682 196.2432 179.769826 196.2432 174.528 
C 196.2432 169.286174 197.275725 164.095318 199.281685 159.252502 
C 201.287645 154.409686 204.228029 150.009091 207.93456 146.30256 
C 211.641091 142.596029 216.041686 139.655645 220.884502 137.649685 
C 225.727318 135.643725 230.918174 134.6112 236.16 134.6112 
" clip-path="url(#p93e165b583)" style="fill: none; stroke: #ffffff; stroke-linecap: round"/>
     </g>
     <g id="text_12">
      <!-- 0.3 -->
      <g style="fill: #dc143c" transform="translate(251.435498 135.463435) scale(0.11 -0.11)">
       <use xlink:href="#ArialMT-30"/>
       <use xlink:href="#ArialMT-2e" x="55.615234"/>
       <use xlink:href="#ArialMT-33" x="83.398438"/>
      </g>
     </g>
    </g>
    <g id="ytick_5">
     <g id="line2d_13">
      <path d="M 236.16 121.3056 
C 243.149102 121.3056 250.070243 122.682301 256.527331 125.356914 
C 262.984419 128.031527 268.851879 131.952039 273.79392 136.89408 
C 278.735961 141.836121 282.656473 147.703581 285.331086 154.160669 
C 288.005699 160.617757 289.3824 167.538898 289.3824 174.528 
C 289.3824 181.517102 288.005699 188.438243 285.331086 194.895331 
C 282.656473 201.352419 278.735961 207.219879 273.79392 212.16192 
C 268.851879 217.103961 262.984419 221.024473 256.527331 223.699086 
C 250.070243 226.373699 243.149102 227.7504 236.16 227.7504 
C 229.170898 227.7504 222.249757 226.373699 215.792669 223.699086 
C 209.335581 221.024473 203.468121 217.103961 198.52608 212.16192 
C 193.584039 207.219879 189.663527 201.352419 186.988914 194.895331 
C 184.314301 188.438243 182.9376 181.517102 182.9376 174.528 
C 182.9376 167.538898 184.314301 160.617757 186.988914 154.160669 
C 189.663527 147.703581 193.584039 141.836121 198.52608 136.89408 
C 203.468121 131.952039 209.335581 128.031527 215.792669 125.356914 
C 222.249757 122.682301 229.170898 121.3056 236.16 121.3056 
" clip-path="url(#p93e165b583)" style="fill: none; stroke: #ffffff; stroke-linecap: round"/>
     </g>
     <g id="text_13">
      <!-- 0.4 -->
      <g style="fill: #dc143c" transform="translate(256.527331 123.170664) scale(0.11 -0.11)">
       <use xlink:href="#ArialMT-30"/>
       <use xlink:href="#ArialMT-2e" x="55.615234"/>
       <use xlink:href="#ArialMT-34" x="83.398438"/>
      </g>
     </g>
    </g>
    <g id="ytick_6">
     <g id="line2d_14">
      <path d="M 236.16 108 
C 244.896377 108 253.547804 109.720876 261.619163 113.064142 
C 269.690523 116.407409 277.024849 121.308049 283.2024 127.4856 
C 289.379951 133.663151 294.280591 140.997477 297.623858 149.068837 
C 300.967124 157.140196 302.688 165.791623 302.688 174.528 
C 302.688 183.264377 300.967124 191.915804 297.623858 199.987163 
C 294.280591 208.058523 289.379951 215.392849 283.2024 221.5704 
C 277.024849 227.747951 269.690523 232.648591 261.619163 235.991858 
C 253.547804 239.335124 244.896377 241.056 236.16 241.056 
C 227.423623 241.056 218.772196 239.335124 210.700837 235.991858 
C 202.629477 232.648591 195.295151 227.747951 189.1176 221.5704 
C 182.940049 215.392849 178.039409 208.058523 174.696142 199.987163 
C 171.352876 191.915804 169.632 183.264377 169.632 174.528 
C 169.632 165.791623 171.352876 157.140196 174.696142 149.068837 
C 178.039409 140.997477 182.940049 133.663151 189.1176 127.4856 
C 195.295151 121.308049 202.629477 116.407409 210.700837 113.064142 
C 218.772196 109.720876 227.423623 108 236.16 108 
" clip-path="url(#p93e165b583)" style="fill: none; stroke: #ffffff; stroke-linecap: round"/>
     </g>
     <g id="text_14">
      <!-- 0.5 -->
      <g style="fill: #dc143c" transform="translate(261.619163 110.877892) scale(0.11 -0.11)">
       <use xlink:href="#ArialMT-30"/>
       <use xlink:href="#ArialMT-2e" x="55.615234"/>
       <use xlink:href="#ArialMT-35" x="83.398438"/>
      </g>
     </g>
    </g>
    <g id="ytick_7">
     <g id="line2d_15">
      <path d="M 236.16 94.6944 
C 246.643652 94.6944 257.025364 96.759451 266.710996 100.771371 
C 276.396628 104.783291 285.197818 110.664058 292.61088 118.07712 
C 300.023942 125.490182 305.904709 134.291372 309.916629 143.977004 
C 313.928549 153.662636 315.9936 164.044348 315.9936 174.528 
C 315.9936 185.011652 313.928549 195.393364 309.916629 205.078996 
C 305.904709 214.764628 300.023942 223.565818 292.61088 230.97888 
C 285.197818 238.391942 276.396628 244.272709 266.710996 248.284629 
C 257.025364 252.296549 246.643652 254.3616 236.16 254.3616 
C 225.676348 254.3616 215.294636 252.296549 205.609004 248.284629 
C 195.923372 244.272709 187.122182 238.391942 179.70912 230.97888 
C 172.296058 223.565818 166.415291 214.764628 162.403371 205.078996 
C 158.391451 195.393364 156.3264 185.011652 156.3264 174.528 
C 156.3264 164.044348 158.391451 153.662636 162.403371 143.977004 
C 166.415291 134.291372 172.296058 125.490182 179.70912 118.07712 
C 187.122182 110.664058 195.923372 104.783291 205.609004 100.771371 
C 215.294636 96.759451 225.676348 94.6944 236.16 94.6944 
" clip-path="url(#p93e165b583)" style="fill: none; stroke: #ffffff; stroke-linecap: round"/>
     </g>
     <g id="text_15">
      <!-- 0.6 -->
      <g style="fill: #dc143c" transform="translate(266.710996 98.585121) scale(0.11 -0.11)">
       <defs>
        <path id="ArialMT-36" d="M 3184 3459 
L 2625 3416 
Q 2550 3747 2413 3897 
Q 2184 4138 1850 4138 
Q 1581 4138 1378 3988 
Q 1113 3794 959 3422 
Q 806 3050 800 2363 
Q 1003 2672 1297 2822 
Q 1591 2972 1913 2972 
Q 2475 2972 2870 2558 
Q 3266 2144 3266 1488 
Q 3266 1056 3080 686 
Q 2894 316 2569 119 
Q 2244 -78 1831 -78 
Q 1128 -78 684 439 
Q 241 956 241 2144 
Q 241 3472 731 4075 
Q 1159 4600 1884 4600 
Q 2425 4600 2770 4297 
Q 3116 3994 3184 3459 
z
M 888 1484 
Q 888 1194 1011 928 
Q 1134 663 1356 523 
Q 1578 384 1822 384 
Q 2178 384 2434 671 
Q 2691 959 2691 1453 
Q 2691 1928 2437 2201 
Q 2184 2475 1800 2475 
Q 1419 2475 1153 2201 
Q 888 1928 888 1484 
z
" transform="scale(0.015625)"/>
       </defs>
       <use xlink:href="#ArialMT-30"/>
       <use xlink:href="#ArialMT-2e" x="55.615234"/>
       <use xlink:href="#ArialMT-36" x="83.398438"/>
      </g>
     </g>
    </g>
    <g id="ytick_8">
     <g id="line2d_16">
      <path d="M 236.16 81.3888 
C 248.390928 81.3888 260.502925 83.798026 271.802829 88.478599 
C 283.102732 93.159173 293.370788 100.020068 302.01936 108.66864 
C 310.667932 117.317212 317.528827 127.585268 322.209401 138.885171 
C 326.889974 150.185075 329.2992 162.297072 329.2992 174.528 
C 329.2992 186.758928 326.889974 198.870925 322.209401 210.170829 
C 317.528827 221.470732 310.667932 231.738788 302.01936 240.38736 
C 293.370788 249.035932 283.102732 255.896827 271.802829 260.577401 
C 260.502925 265.257974 248.390928 267.6672 236.16 267.6672 
C 223.929072 267.6672 211.817075 265.257974 200.517171 260.577401 
C 189.217268 255.896827 178.949212 249.035932 170.30064 240.38736 
C 161.652068 231.738788 154.791173 221.470732 150.110599 210.170829 
C 145.430026 198.870925 143.0208 186.758928 143.0208 174.528 
C 143.0208 162.297072 145.430026 150.185075 150.110599 138.885171 
C 154.791173 127.585268 161.652068 117.317212 170.30064 108.66864 
C 178.949212 100.020068 189.217268 93.159173 200.517171 88.478599 
C 211.817075 83.798026 223.929072 81.3888 236.16 81.3888 
" clip-path="url(#p93e165b583)" style="fill: none; stroke: #ffffff; stroke-linecap: round"/>
     </g>
     <g id="text_16">
      <!-- 0.7 -->
      <g style="fill: #dc143c" transform="translate(271.802829 86.292349) scale(0.11 -0.11)">
       <use xlink:href="#ArialMT-30"/>
       <use xlink:href="#ArialMT-2e" x="55.615234"/>
       <use xlink:href="#ArialMT-37" x="83.398438"/>
      </g>
     </g>
    </g>
    <g id="ytick_9">
     <g id="line2d_17">
      <path d="M 236.16 68.0832 
C 250.138203 68.0832 263.980486 70.836601 276.894661 76.185828 
C 289.808837 81.535055 301.543758 89.376078 311.42784 99.26016 
C 321.311922 109.144242 329.152945 120.879163 334.502172 133.793339 
C 339.851399 146.707514 342.6048 160.549797 342.6048 174.528 
C 342.6048 188.506203 339.851399 202.348486 334.502172 215.262661 
C 329.152945 228.176837 321.311922 239.911758 311.42784 249.79584 
C 301.543758 259.679922 289.808837 267.520945 276.894661 272.870172 
C 263.980486 278.219399 250.138203 280.9728 236.16 280.9728 
C 222.181797 280.9728 208.339514 278.219399 195.425339 272.870172 
C 182.511163 267.520945 170.776242 259.679922 160.89216 249.79584 
C 151.008078 239.911758 143.167055 228.176837 137.817828 215.262661 
C 132.468601 202.348486 129.7152 188.506203 129.7152 174.528 
C 129.7152 160.549797 132.468601 146.707514 137.817828 133.793339 
C 143.167055 120.879163 151.008078 109.144242 160.89216 99.26016 
C 170.776242 89.376078 182.511163 81.535055 195.425339 76.185828 
C 208.339514 70.836601 222.181797 68.0832 236.16 68.0832 
" clip-path="url(#p93e165b583)" style="fill: none; stroke: #ffffff; stroke-linecap: round"/>
     </g>
     <g id="text_17">
      <!-- 0.8 -->
      <g style="fill: #dc143c" transform="translate(276.894661 73.999578) scale(0.11 -0.11)">
       <use xlink:href="#ArialMT-30"/>
       <use xlink:href="#ArialMT-2e" x="55.615234"/>
       <use xlink:href="#ArialMT-38" x="83.398438"/>
      </g>
     </g>
    </g>
    <g id="ytick_10">
     <g id="line2d_18">
      <path d="M 236.16 54.7776 
C 251.885478 54.7776 267.458046 57.875176 281.986494 63.893056 
C 296.514942 69.910936 309.716727 78.732088 320.83632 89.85168 
C 331.955912 100.971273 340.777064 114.173058 346.794944 128.701506 
C 352.812824 143.229954 355.9104 158.802522 355.9104 174.528 
C 355.9104 190.253478 352.812824 205.826046 346.794944 220.354494 
C 340.777064 234.882942 331.955912 248.084727 320.83632 259.20432 
C 309.716727 270.323912 296.514942 279.145064 281.986494 285.162944 
C 267.458046 291.180824 251.885478 294.2784 236.16 294.2784 
C 220.434522 294.2784 204.861954 291.180824 190.333506 285.162944 
C 175.805058 279.145064 162.603273 270.323912 151.48368 259.20432 
C 140.364088 248.084727 131.542936 234.882942 125.525056 220.354494 
C 119.507176 205.826046 116.4096 190.253478 116.4096 174.528 
C 116.4096 158.802522 119.507176 143.229954 125.525056 128.701506 
C 131.542936 114.173058 140.364088 100.971273 151.48368 89.85168 
C 162.603273 78.732088 175.805058 69.910936 190.333506 63.893056 
C 204.861954 57.875176 220.434522 54.7776 236.16 54.7776 
" clip-path="url(#p93e165b583)" style="fill: none; stroke: #ffffff; stroke-linecap: round"/>
     </g>
     <g id="text_18">
      <!-- 0.9 -->
      <g style="fill: #dc143c" transform="translate(281.986494 61.706806) scale(0.11 -0.11)">
       <use xlink:href="#ArialMT-30"/>
       <use xlink:href="#ArialMT-2e" x="55.615234"/>
       <use xlink:href="#ArialMT-39" x="83.398438"/>
      </g>
     </g>
    </g>
   </g>
   <g id="line2d_19">
    <defs>
     <path id="ma36e38d364" d="M 0 1.5 
C 0.397805 1.5 0.77937 1.341951 1.06066 1.06066 
C 1.341951 0.77937 1.5 0.397805 1.5 0 
C 1.5 -0.397805 1.341951 -0.77937 1.06066 -1.06066 
C 0.77937 -1.341951 0.397805 -1.5 0 -1.5 
C -0.397805 -1.5 -0.77937 -1.341951 -1.06066 -1.06066 
C -1.341951 -0.77937 -1.5 -0.397805 -1.5 0 
C -1.5 0.397805 -1.341951 0.77937 -1.06066 1.06066 
C -0.77937 1.341951 -0.397805 1.5 0 1.5 
z
" style="stroke: #ffffff"/>
    </defs>
    <g clip-path="url(#p93e165b583)">
     <use xlink:href="#ma36e38d364" x="235.314646" y="222.958326" style="stroke: #ffffff"/>
     <use xlink:href="#ma36e38d364" x="237.112161" y="119.978707" style="stroke: #ffffff"/>
     <use xlink:href="#ma36e38d364" x="237.862165" y="77.011031" style="stroke: #ffffff"/>
     <use xlink:href="#ma36e38d364" x="232.90551" y="267.724403" style="stroke: #ffffff"/>
     <use xlink:href="#ma36e38d364" x="234.375724" y="225.62297" style="stroke: #ffffff"/>
     <use xlink:href="#ma36e38d364" x="238.064033" y="120.003633" style="stroke: #ffffff"/>
     <use xlink:href="#ma36e38d364" x="233.389557" y="227.39121" style="stroke: #ffffff"/>
     <use xlink:href="#ma36e38d364" x="239.041499" y="119.545729" style="stroke: #ffffff"/>
     <use xlink:href="#ma36e38d364" x="229.580788" y="268.615114" style="stroke: #ffffff"/>
     <use xlink:href="#ma36e38d364" x="232.593623" y="225.529574" style="stroke: #ffffff"/>
     <use xlink:href="#ma36e38d364" x="240.139042" y="117.625055" style="stroke: #ffffff"/>
     <use xlink:href="#ma36e38d364" x="242.880699" y="78.417526" style="stroke: #ffffff"/>
     <use xlink:href="#ma36e38d364" x="231.782471" y="224.563389" style="stroke: #ffffff"/>
     <use xlink:href="#ma36e38d364" x="240.915008" y="120.178006" style="stroke: #ffffff"/>
     <use xlink:href="#ma36e38d364" x="226.189604" y="269.389985" style="stroke: #ffffff"/>
     <use xlink:href="#ma36e38d364" x="230.626707" y="227.173769" style="stroke: #ffffff"/>
     <use xlink:href="#ma36e38d364" x="241.704948" y="121.771348" style="stroke: #ffffff"/>
     <use xlink:href="#ma36e38d364" x="245.939331" y="81.48388" style="stroke: #ffffff"/>
     <use xlink:href="#ma36e38d364" x="224.535552" y="269.201529" style="stroke: #ffffff"/>
     <use xlink:href="#ma36e38d364" x="229.708754" y="227.069182" style="stroke: #ffffff"/>
     <use xlink:href="#ma36e38d364" x="242.624834" y="121.876155" style="stroke: #ffffff"/>
     <use xlink:href="#ma36e38d364" x="247.561685" y="81.668724" style="stroke: #ffffff"/>
     <use xlink:href="#ma36e38d364" x="222.735897" y="270.045455" style="stroke: #ffffff"/>
     <use xlink:href="#ma36e38d364" x="228.66611" y="227.8498" style="stroke: #ffffff"/>
     <use xlink:href="#ma36e38d364" x="243.752951" y="120.501349" style="stroke: #ffffff"/>
     <use xlink:href="#ma36e38d364" x="249.40282" y="80.300436" style="stroke: #ffffff"/>
     <use xlink:href="#ma36e38d364" x="221.571984" y="266.633109" style="stroke: #ffffff"/>
     <use xlink:href="#ma36e38d364" x="228.443028" y="223.251044" style="stroke: #ffffff"/>
     <use xlink:href="#ma36e38d364" x="244.928629" y="119.165054" style="stroke: #ffffff"/>
     <use xlink:href="#ma36e38d364" x="219.782048" y="267.41198" style="stroke: #ffffff"/>
     <use xlink:href="#ma36e38d364" x="228.666471" y="217.025912" style="stroke: #ffffff"/>
     <use xlink:href="#ma36e38d364" x="252.683248" y="80.820005" style="stroke: #ffffff"/>
     <use xlink:href="#ma36e38d364" x="218.163494" y="267.111999" style="stroke: #ffffff"/>
     <use xlink:href="#ma36e38d364" x="227.925922" y="216.88866" style="stroke: #ffffff"/>
     <use xlink:href="#ma36e38d364" x="254.316161" y="81.122648" style="stroke: #ffffff"/>
     <use xlink:href="#ma36e38d364" x="225.903637" y="222.780396" style="stroke: #ffffff"/>
     <use xlink:href="#ma36e38d364" x="247.607145" y="120.673418" style="stroke: #ffffff"/>
     <use xlink:href="#ma36e38d364" x="214.703154" y="267.467812" style="stroke: #ffffff"/>
     <use xlink:href="#ma36e38d364" x="248.545293" y="120.8814" style="stroke: #ffffff"/>
     <use xlink:href="#ma36e38d364" x="224.009106" y="223.262574" style="stroke: #ffffff"/>
     <use xlink:href="#ma36e38d364" x="249.358679" y="121.590992" style="stroke: #ffffff"/>
     <use xlink:href="#ma36e38d364" x="259.468005" y="81.044697" style="stroke: #ffffff"/>
     <use xlink:href="#ma36e38d364" x="223.160421" y="223.043089" style="stroke: #ffffff"/>
     <use xlink:href="#ma36e38d364" x="250.280546" y="121.829403" style="stroke: #ffffff"/>
     <use xlink:href="#ma36e38d364" x="261.095964" y="81.465716" style="stroke: #ffffff"/>
     <use xlink:href="#ma36e38d364" x="222.315696" y="222.808826" style="stroke: #ffffff"/>
     <use xlink:href="#ma36e38d364" x="251.198113" y="122.083867" style="stroke: #ffffff"/>
     <use xlink:href="#ma36e38d364" x="262.716327" y="81.915082" style="stroke: #ffffff"/>
     <use xlink:href="#ma36e38d364" x="208.584417" y="264.723667" style="stroke: #ffffff"/>
     <use xlink:href="#ma36e38d364" x="221.212171" y="223.420147" style="stroke: #ffffff"/>
     <use xlink:href="#ma36e38d364" x="252.257321" y="121.876035" style="stroke: #ffffff"/>
     <use xlink:href="#ma36e38d364" x="264.444404" y="82.013883" style="stroke: #ffffff"/>
     <use xlink:href="#ma36e38d364" x="207.014486" y="264.228669" style="stroke: #ffffff"/>
     <use xlink:href="#ma36e38d364" x="220.361162" y="223.151825" style="stroke: #ffffff"/>
     <use xlink:href="#ma36e38d364" x="253.173773" y="122.164991" style="stroke: #ffffff"/>
     <use xlink:href="#ma36e38d364" x="266.05469" y="82.521605" style="stroke: #ffffff"/>
     <use xlink:href="#ma36e38d364" x="205.105841" y="264.715827" style="stroke: #ffffff"/>
     <use xlink:href="#ma36e38d364" x="218.925803" y="224.579742" style="stroke: #ffffff"/>
     <use xlink:href="#ma36e38d364" x="254.570319" y="121.060552" style="stroke: #ffffff"/>
     <use xlink:href="#ma36e38d364" x="267.65587" y="83.057352" style="stroke: #ffffff"/>
     <use xlink:href="#ma36e38d364" x="203.536576" y="264.160121" style="stroke: #ffffff"/>
     <use xlink:href="#ma36e38d364" x="218.054905" y="224.27134" style="stroke: #ffffff"/>
     <use xlink:href="#ma36e38d364" x="255.50065" y="121.39" style="stroke: #ffffff"/>
     <use xlink:href="#ma36e38d364" x="269.247456" y="83.620962" style="stroke: #ffffff"/>
     <use xlink:href="#ma36e38d364" x="202.741038" y="261.587372" style="stroke: #ffffff"/>
     <use xlink:href="#ma36e38d364" x="222.239962" y="210.790938" style="stroke: #ffffff"/>
     <use xlink:href="#ma36e38d364" x="255.890924" y="123.127185" style="stroke: #ffffff"/>
     <use xlink:href="#ma36e38d364" x="216.329916" y="223.609179" style="stroke: #ffffff"/>
     <use xlink:href="#ma36e38d364" x="257.896304" y="120.728759" style="stroke: #ffffff"/>
     <use xlink:href="#ma36e38d364" x="272.251534" y="85.198318" style="stroke: #ffffff"/>
     <use xlink:href="#ma36e38d364" x="215.476352" y="223.255621" style="stroke: #ffffff"/>
     <use xlink:href="#ma36e38d364" x="258.83192" y="121.116304" style="stroke: #ffffff"/>
     <use xlink:href="#ma36e38d364" x="273.805055" y="85.841807" style="stroke: #ffffff"/>
     <use xlink:href="#ma36e38d364" x="214.629088" y="222.88722" style="stroke: #ffffff"/>
     <use xlink:href="#ma36e38d364" x="259.760629" y="121.520118" style="stroke: #ffffff"/>
     <use xlink:href="#ma36e38d364" x="275.347109" y="86.512311" style="stroke: #ffffff"/>
     <use xlink:href="#ma36e38d364" x="217.183893" y="215.222393" style="stroke: #ffffff"/>
     <use xlink:href="#ma36e38d364" x="259.004978" y="125.536787" style="stroke: #ffffff"/>
     <use xlink:href="#ma36e38d364" x="214.142145" y="219.671294" style="stroke: #ffffff"/>
     <use xlink:href="#ma36e38d364" x="260.076479" y="125.491952" style="stroke: #ffffff"/>
     <use xlink:href="#ma36e38d364" x="192.856338" y="259.516222" style="stroke: #ffffff"/>
     <use xlink:href="#ma36e38d364" x="214.169743" y="217.68631" style="stroke: #ffffff"/>
     <use xlink:href="#ma36e38d364" x="261.607553" y="124.584365" style="stroke: #ffffff"/>
     <use xlink:href="#ma36e38d364" x="212.580079" y="218.875381" style="stroke: #ffffff"/>
     <use xlink:href="#ma36e38d364" x="261.773243" y="126.356497" style="stroke: #ffffff"/>
     <use xlink:href="#ma36e38d364" x="211.809702" y="218.457101" style="stroke: #ffffff"/>
     <use xlink:href="#ma36e38d364" x="262.61005" y="126.810846" style="stroke: #ffffff"/>
     <use xlink:href="#ma36e38d364" x="211.046742" y="218.025439" style="stroke: #ffffff"/>
     <use xlink:href="#ma36e38d364" x="263.438801" y="127.279731" style="stroke: #ffffff"/>
     <use xlink:href="#ma36e38d364" x="284.530625" y="90.747621" style="stroke: #ffffff"/>
     <use xlink:href="#ma36e38d364" x="210.291432" y="217.580527" style="stroke: #ffffff"/>
     <use xlink:href="#ma36e38d364" x="264.259242" y="127.763007" style="stroke: #ffffff"/>
     <use xlink:href="#ma36e38d364" x="285.985427" y="91.604565" style="stroke: #ffffff"/>
     <use xlink:href="#ma36e38d364" x="186.179676" y="254.513238" style="stroke: #ffffff"/>
     <use xlink:href="#ma36e38d364" x="208.588729" y="218.651257" style="stroke: #ffffff"/>
     <use xlink:href="#ma36e38d364" x="265.336149" y="127.836401" style="stroke: #ffffff"/>
     <use xlink:href="#ma36e38d364" x="287.63466" y="92.151324" style="stroke: #ffffff"/>
     <use xlink:href="#ma36e38d364" x="184.791354" y="253.628779" style="stroke: #ffffff"/>
     <use xlink:href="#ma36e38d364" x="214.071021" y="208.542045" style="stroke: #ffffff"/>
     <use xlink:href="#ma36e38d364" x="266.146586" y="128.352706" style="stroke: #ffffff"/>
     <use xlink:href="#ma36e38d364" x="288.200994" y="94.391896" style="stroke: #ffffff"/>
     <use xlink:href="#ma36e38d364" x="182.2224" y="254.493781" style="stroke: #ffffff"/>
     <use xlink:href="#ma36e38d364" x="288.476205" y="96.966036" style="stroke: #ffffff"/>
     <use xlink:href="#ma36e38d364" x="181.449692" y="252.662417" style="stroke: #ffffff"/>
     <use xlink:href="#ma36e38d364" x="212.897404" y="207.750431" style="stroke: #ffffff"/>
     <use xlink:href="#ma36e38d364" x="267.739814" y="129.427352" style="stroke: #ffffff"/>
     <use xlink:href="#ma36e38d364" x="291.648501" y="95.282208" style="stroke: #ffffff"/>
     <use xlink:href="#ma36e38d364" x="180.094391" y="251.69569" style="stroke: #ffffff"/>
     <use xlink:href="#ma36e38d364" x="212.321135" y="207.339383" style="stroke: #ffffff"/>
     <use xlink:href="#ma36e38d364" x="268.522119" y="129.985364" style="stroke: #ffffff"/>
     <use xlink:href="#ma36e38d364" x="293.023079" y="96.262685" style="stroke: #ffffff"/>
     <use xlink:href="#ma36e38d364" x="178.756168" y="250.705458" style="stroke: #ffffff"/>
     <use xlink:href="#ma36e38d364" x="210.712442" y="208.29805" style="stroke: #ffffff"/>
     <use xlink:href="#ma36e38d364" x="269.294566" y="130.556945" style="stroke: #ffffff"/>
     <use xlink:href="#ma36e38d364" x="176.775658" y="250.536491" style="stroke: #ffffff"/>
     <use xlink:href="#ma36e38d364" x="203.569494" y="216.241946" style="stroke: #ffffff"/>
     <use xlink:href="#ma36e38d364" x="177.473853" y="246.999356" style="stroke: #ffffff"/>
     <use xlink:href="#ma36e38d364" x="205.115384" y="212.864908" style="stroke: #ffffff"/>
     <use xlink:href="#ma36e38d364" x="270.494211" y="132.12878" style="stroke: #ffffff"/>
     <use xlink:href="#ma36e38d364" x="208.421458" y="207.585507" style="stroke: #ffffff"/>
     <use xlink:href="#ma36e38d364" x="271.228951" y="132.734452" style="stroke: #ffffff"/>
     <use xlink:href="#ma36e38d364" x="299.359104" y="99.21024" style="stroke: #ffffff"/>
     <use xlink:href="#ma36e38d364" x="172.879065" y="247.324388" style="stroke: #ffffff"/>
     <use xlink:href="#ma36e38d364" x="200.833961" y="215.165959" style="stroke: #ffffff"/>
     <use xlink:href="#ma36e38d364" x="271.953007" y="133.352855" style="stroke: #ffffff"/>
     <use xlink:href="#ma36e38d364" x="171.618231" y="246.208896" style="stroke: #ffffff"/>
     <use xlink:href="#ma36e38d364" x="200.130111" y="214.543245" style="stroke: #ffffff"/>
     <use xlink:href="#ma36e38d364" x="272.666161" y="133.9838" style="stroke: #ffffff"/>
     <use xlink:href="#ma36e38d364" x="170.377057" y="245.07157" style="stroke: #ffffff"/>
     <use xlink:href="#ma36e38d364" x="199.437237" y="213.908342" style="stroke: #ffffff"/>
     <use xlink:href="#ma36e38d364" x="273.368195" y="134.627096" style="stroke: #ffffff"/>
     <use xlink:href="#ma36e38d364" x="169.900351" y="243.141875" style="stroke: #ffffff"/>
     <use xlink:href="#ma36e38d364" x="208.583231" y="203.084581" style="stroke: #ffffff"/>
     <use xlink:href="#ma36e38d364" x="274.40631" y="134.922787" style="stroke: #ffffff"/>
     <use xlink:href="#ma36e38d364" x="303.362118" y="104.938169" style="stroke: #ffffff"/>
     <use xlink:href="#ma36e38d364" x="168.712965" y="241.975035" style="stroke: #ffffff"/>
     <use xlink:href="#ma36e38d364" x="303.725007" y="106.962993" style="stroke: #ffffff"/>
     <use xlink:href="#ma36e38d364" x="167.546125" y="240.787649" style="stroke: #ffffff"/>
     <use xlink:href="#ma36e38d364" x="304.893888" y="108.152456" style="stroke: #ffffff"/>
     <use xlink:href="#ma36e38d364" x="166.400185" y="239.58008" style="stroke: #ffffff"/>
     <use xlink:href="#ma36e38d364" x="306.041833" y="109.362137" style="stroke: #ffffff"/>
     <use xlink:href="#ma36e38d364" x="198.834425" y="208.136099" style="stroke: #ffffff"/>
     <use xlink:href="#ma36e38d364" x="276.331305" y="138.357594" style="stroke: #ffffff"/>
     <use xlink:href="#ma36e38d364" x="164.172396" y="237.10587" style="stroke: #ffffff"/>
     <use xlink:href="#ma36e38d364" x="196.208877" y="209.256981" style="stroke: #ffffff"/>
     <use xlink:href="#ma36e38d364" x="277.335145" y="138.734993" style="stroke: #ffffff"/>
     <use xlink:href="#ma36e38d364" x="309.171547" y="111.06003" style="stroke: #ffffff"/>
     <use xlink:href="#ma36e38d364" x="163.091225" y="235.839982" style="stroke: #ffffff"/>
     <use xlink:href="#ma36e38d364" x="195.608857" y="208.554449" style="stroke: #ffffff"/>
     <use xlink:href="#ma36e38d364" x="277.953548" y="139.459049" style="stroke: #ffffff"/>
     <use xlink:href="#ma36e38d364" x="310.268096" y="112.343924" style="stroke: #ffffff"/>
     <use xlink:href="#ma36e38d364" x="162.032312" y="234.555418" style="stroke: #ffffff"/>
     <use xlink:href="#ma36e38d364" x="195.02119" y="207.841551" style="stroke: #ffffff"/>
     <use xlink:href="#ma36e38d364" x="278.55922" y="140.193789" style="stroke: #ffffff"/>
     <use xlink:href="#ma36e38d364" x="311.342071" y="113.646759" style="stroke: #ffffff"/>
     <use xlink:href="#ma36e38d364" x="193.728912" y="207.678799" style="stroke: #ffffff"/>
     <use xlink:href="#ma36e38d364" x="279.151977" y="140.938986" style="stroke: #ffffff"/>
     <use xlink:href="#ma36e38d364" x="310.828159" y="116.190841" style="stroke: #ffffff"/>
     <use xlink:href="#ma36e38d364" x="193.883625" y="206.385534" style="stroke: #ffffff"/>
     <use xlink:href="#ma36e38d364" x="313.104671" y="116.546032" style="stroke: #ffffff"/>
     <use xlink:href="#ma36e38d364" x="204.043385" y="197.862086" style="stroke: #ffffff"/>
     <use xlink:href="#ma36e38d364" x="280.298027" y="142.459846" style="stroke: #ffffff"/>
     <use xlink:href="#ma36e38d364" x="158.900147" y="228.625931" style="stroke: #ffffff"/>
     <use xlink:href="#ma36e38d364" x="194.279938" y="203.852735" style="stroke: #ffffff"/>
     <use xlink:href="#ma36e38d364" x="282.481638" y="142.09324" style="stroke: #ffffff"/>
     <use xlink:href="#ma36e38d364" x="315.729806" y="118.812622" style="stroke: #ffffff"/>
     <use xlink:href="#ma36e38d364" x="196.740534" y="201.116765" style="stroke: #ffffff"/>
     <use xlink:href="#ma36e38d364" x="281.390302" y="144.019776" style="stroke: #ffffff"/>
     <use xlink:href="#ma36e38d364" x="155.265058" y="227.06179" style="stroke: #ffffff"/>
     <use xlink:href="#ma36e38d364" x="281.915855" y="144.8138" style="stroke: #ffffff"/>
     <use xlink:href="#ma36e38d364" x="154.360537" y="225.641977" style="stroke: #ffffff"/>
     <use xlink:href="#ma36e38d364" x="282.427471" y="145.616876" style="stroke: #ffffff"/>
     <use xlink:href="#ma36e38d364" x="193.875609" y="199.935025" style="stroke: #ffffff"/>
     <use xlink:href="#ma36e38d364" x="283.353682" y="146.171175" style="stroke: #ffffff"/>
     <use xlink:href="#ma36e38d364" x="154.479199" y="221.686433" style="stroke: #ffffff"/>
     <use xlink:href="#ma36e38d364" x="192.662561" y="199.641258" style="stroke: #ffffff"/>
     <use xlink:href="#ma36e38d364" x="282.973716" y="147.500089" style="stroke: #ffffff"/>
     <use xlink:href="#ma36e38d364" x="320.966696" y="125.564831" style="stroke: #ffffff"/>
     <use xlink:href="#ma36e38d364" x="153.668611" y="220.253724" style="stroke: #ffffff"/>
     <use xlink:href="#ma36e38d364" x="192.230899" y="198.878298" style="stroke: #ffffff"/>
     <use xlink:href="#ma36e38d364" x="283.438288" y="148.321217" style="stroke: #ffffff"/>
     <use xlink:href="#ma36e38d364" x="321.808305" y="127.052369" style="stroke: #ffffff"/>
     <use xlink:href="#ma36e38d364" x="153.822302" y="218.307731" style="stroke: #ffffff"/>
     <use xlink:href="#ma36e38d364" x="199.589002" y="193.973145" style="stroke: #ffffff"/>
     <use xlink:href="#ma36e38d364" x="284.331503" y="148.914757" style="stroke: #ffffff"/>
     <use xlink:href="#ma36e38d364" x="152.123058" y="217.346961" style="stroke: #ffffff"/>
     <use xlink:href="#ma36e38d364" x="191.407847" y="197.330361" style="stroke: #ffffff"/>
     <use xlink:href="#ma36e38d364" x="284.771179" y="149.759367" style="stroke: #ffffff"/>
     <use xlink:href="#ma36e38d364" x="190.208152" y="196.940214" style="stroke: #ffffff"/>
     <use xlink:href="#ma36e38d364" x="285.196048" y="150.611521" style="stroke: #ffffff"/>
     <use xlink:href="#ma36e38d364" x="149.712275" y="214.839236" style="stroke: #ffffff"/>
     <use xlink:href="#ma36e38d364" x="188.183911" y="196.899618" style="stroke: #ffffff"/>
     <use xlink:href="#ma36e38d364" x="190.275794" y="194.956965" style="stroke: #ffffff"/>
     <use xlink:href="#ma36e38d364" x="286.00085" y="152.337424" style="stroke: #ffffff"/>
     <use xlink:href="#ma36e38d364" x="149.340868" y="211.380535" style="stroke: #ffffff"/>
     <use xlink:href="#ma36e38d364" x="190.751143" y="193.802916" style="stroke: #ffffff"/>
     <use xlink:href="#ma36e38d364" x="287.299756" y="152.820461" style="stroke: #ffffff"/>
     <use xlink:href="#ma36e38d364" x="324.11548" y="137.193114" style="stroke: #ffffff"/>
     <use xlink:href="#ma36e38d364" x="147.721021" y="210.259667" style="stroke: #ffffff"/>
     <use xlink:href="#ma36e38d364" x="197.756771" y="190.043912" style="stroke: #ffffff"/>
     <use xlink:href="#ma36e38d364" x="287.208634" y="153.903013" style="stroke: #ffffff"/>
     <use xlink:href="#ma36e38d364" x="325.856924" y="138.28809" style="stroke: #ffffff"/>
     <use xlink:href="#ma36e38d364" x="147.110887" y="208.710752" style="stroke: #ffffff"/>
     <use xlink:href="#ma36e38d364" x="197.49183" y="189.37132" style="stroke: #ffffff"/>
     <use xlink:href="#ma36e38d364" x="287.560815" y="154.797076" style="stroke: #ffffff"/>
     <use xlink:href="#ma36e38d364" x="326.475737" y="139.859037" style="stroke: #ffffff"/>
     <use xlink:href="#ma36e38d364" x="146.527879" y="207.151424" style="stroke: #ffffff"/>
     <use xlink:href="#ma36e38d364" x="197.238667" y="188.694207" style="stroke: #ffffff"/>
     <use xlink:href="#ma36e38d364" x="287.897338" y="155.697149" style="stroke: #ffffff"/>
     <use xlink:href="#ma36e38d364" x="327.067038" y="141.440544" style="stroke: #ffffff"/>
     <use xlink:href="#ma36e38d364" x="147.987357" y="204.888276" style="stroke: #ffffff"/>
     <use xlink:href="#ma36e38d364" x="188.669896" y="190.880154" style="stroke: #ffffff"/>
     <use xlink:href="#ma36e38d364" x="287.745226" y="156.765782" style="stroke: #ffffff"/>
     <use xlink:href="#ma36e38d364" x="326.129489" y="143.549021" style="stroke: #ffffff"/>
     <use xlink:href="#ma36e38d364" x="147.470926" y="203.344827" style="stroke: #ffffff"/>
     <use xlink:href="#ma36e38d364" x="188.391745" y="190.048847" style="stroke: #ffffff"/>
     <use xlink:href="#ma36e38d364" x="288.047363" y="157.668774" style="stroke: #ffffff"/>
     <use xlink:href="#ma36e38d364" x="326.656443" y="145.123923" style="stroke: #ffffff"/>
     <use xlink:href="#ma36e38d364" x="146.981511" y="201.7926" style="stroke: #ffffff"/>
     <use xlink:href="#ma36e38d364" x="188.128144" y="189.212812" style="stroke: #ffffff"/>
     <use xlink:href="#ma36e38d364" x="288.333694" y="158.576901" style="stroke: #ffffff"/>
     <use xlink:href="#ma36e38d364" x="327.155832" y="146.707782" style="stroke: #ffffff"/>
     <use xlink:href="#ma36e38d364" x="146.51926" y="200.232068" style="stroke: #ffffff"/>
     <use xlink:href="#ma36e38d364" x="187.879174" y="188.372304" style="stroke: #ffffff"/>
     <use xlink:href="#ma36e38d364" x="288.604133" y="159.489887" style="stroke: #ffffff"/>
     <use xlink:href="#ma36e38d364" x="327.627503" y="148.300116" style="stroke: #ffffff"/>
     <use xlink:href="#ma36e38d364" x="146.084315" y="198.663707" style="stroke: #ffffff"/>
     <use xlink:href="#ma36e38d364" x="187.644911" y="187.527579" style="stroke: #ffffff"/>
     <use xlink:href="#ma36e38d364" x="288.858597" y="160.407454" style="stroke: #ffffff"/>
     <use xlink:href="#ma36e38d364" x="328.071312" y="149.900438" style="stroke: #ffffff"/>
     <use xlink:href="#ma36e38d364" x="145.676808" y="197.087994" style="stroke: #ffffff"/>
     <use xlink:href="#ma36e38d364" x="187.425426" y="186.678894" style="stroke: #ffffff"/>
     <use xlink:href="#ma36e38d364" x="289.097008" y="161.329321" style="stroke: #ffffff"/>
     <use xlink:href="#ma36e38d364" x="328.487123" y="151.508263" style="stroke: #ffffff"/>
     <use xlink:href="#ma36e38d364" x="185.464313" y="186.232021" style="stroke: #ffffff"/>
     <use xlink:href="#ma36e38d364" x="289.8066" y="162.142707" style="stroke: #ffffff"/>
     <use xlink:href="#ma36e38d364" x="329.649382" y="152.944276" style="stroke: #ffffff"/>
     <use xlink:href="#ma36e38d364" x="142.859869" y="194.359555" style="stroke: #ffffff"/>
     <use xlink:href="#ma36e38d364" x="289.525388" y="163.184837" style="stroke: #ffffff"/>
     <use xlink:href="#ma36e38d364" x="142.527971" y="192.728223" style="stroke: #ffffff"/>
     <use xlink:href="#ma36e38d364" x="289.715225" y="164.117919" style="stroke: #ffffff"/>
     <use xlink:href="#ma36e38d364" x="143.27602" y="190.905952" style="stroke: #ffffff"/>
     <use xlink:href="#ma36e38d364" x="186.696538" y="183.249743" style="stroke: #ffffff"/>
     <use xlink:href="#ma36e38d364" x="290.872181" y="164.880766" style="stroke: #ffffff"/>
     <use xlink:href="#ma36e38d364" x="332.210096" y="157.591777" style="stroke: #ffffff"/>
     <use xlink:href="#ma36e38d364" x="187.436956" y="182.244972" style="stroke: #ffffff"/>
     <use xlink:href="#ma36e38d364" x="291.522946" y="165.759371" style="stroke: #ffffff"/>
     <use xlink:href="#ma36e38d364" x="143.814323" y="187.506339" style="stroke: #ffffff"/>
     <use xlink:href="#ma36e38d364" x="187.309697" y="181.393462" style="stroke: #ffffff"/>
     <use xlink:href="#ma36e38d364" x="290.186651" y="166.935049" style="stroke: #ffffff"/>
     <use xlink:href="#ma36e38d364" x="141.486471" y="186.152448" style="stroke: #ffffff"/>
     <use xlink:href="#ma36e38d364" x="183.618818" y="180.979246" style="stroke: #ffffff"/>
     <use xlink:href="#ma36e38d364" x="144.47151" y="184.164849" style="stroke: #ffffff"/>
     <use xlink:href="#ma36e38d364" x="187.099854" y="179.684429" style="stroke: #ffffff"/>
     <use xlink:href="#ma36e38d364" x="290.41873" y="168.825178" style="stroke: #ffffff"/>
     <use xlink:href="#ma36e38d364" x="144.317288" y="182.563196" style="stroke: #ffffff"/>
     <use xlink:href="#ma36e38d364" x="187.017334" y="178.827426" style="stroke: #ffffff"/>
     <use xlink:href="#ma36e38d364" x="290.509994" y="169.772992" style="stroke: #ffffff"/>
     <use xlink:href="#ma36e38d364" x="185.158426" y="178.094377" style="stroke: #ffffff"/>
     <use xlink:href="#ma36e38d364" x="293.062945" y="170.548958" style="stroke: #ffffff"/>
     <use xlink:href="#ma36e38d364" x="333.454241" y="167.724524" style="stroke: #ffffff"/>
     <use xlink:href="#ma36e38d364" x="140.90621" y="179.52004" style="stroke: #ffffff"/>
     <use xlink:href="#ma36e38d364" x="332.373128" y="169.485684" style="stroke: #ffffff"/>
     <use xlink:href="#ma36e38d364" x="140.833595" y="177.856871" style="stroke: #ffffff"/>
     <use xlink:href="#ma36e38d364" x="332.446475" y="171.165602" style="stroke: #ffffff"/>
     <use xlink:href="#ma36e38d364" x="142.920992" y="176.155493" style="stroke: #ffffff"/>
     <use xlink:href="#ma36e38d364" x="185.041672" y="175.420274" style="stroke: #ffffff"/>
     <use xlink:href="#ma36e38d364" x="290.709293" y="173.575839" style="stroke: #ffffff"/>
     <use xlink:href="#ma36e38d364" x="140.775489" y="174.528" style="stroke: #ffffff"/>
     <use xlink:href="#ma36e38d364" x="185.033885" y="174.528" style="stroke: #ffffff"/>
     <use xlink:href="#ma36e38d364" x="291.217726" y="174.528" style="stroke: #ffffff"/>
     <use xlink:href="#ma36e38d364" x="331.711349" y="174.528" style="stroke: #ffffff"/>
     <use xlink:href="#ma36e38d364" x="140.790016" y="172.863311" style="stroke: #ffffff"/>
     <use xlink:href="#ma36e38d364" x="185.041672" y="173.635726" style="stroke: #ffffff"/>
     <use xlink:href="#ma36e38d364" x="291.20934" y="175.48889" style="stroke: #ffffff"/>
     <use xlink:href="#ma36e38d364" x="331.696796" y="176.195601" style="stroke: #ffffff"/>
     <use xlink:href="#ma36e38d364" x="140.833595" y="171.199129" style="stroke: #ffffff"/>
     <use xlink:href="#ma36e38d364" x="185.06503" y="172.743724" style="stroke: #ffffff"/>
     <use xlink:href="#ma36e38d364" x="291.184186" y="176.449487" style="stroke: #ffffff"/>
     <use xlink:href="#ma36e38d364" x="331.653142" y="177.862694" style="stroke: #ffffff"/>
     <use xlink:href="#ma36e38d364" x="141.972393" y="169.591837" style="stroke: #ffffff"/>
     <use xlink:href="#ma36e38d364" x="184.202113" y="171.805003" style="stroke: #ffffff"/>
     <use xlink:href="#ma36e38d364" x="291.142271" y="177.409499" style="stroke: #ffffff"/>
     <use xlink:href="#ma36e38d364" x="331.580399" y="179.528771" style="stroke: #ffffff"/>
     <use xlink:href="#ma36e38d364" x="142.072886" y="167.948788" style="stroke: #ffffff"/>
     <use xlink:href="#ma36e38d364" x="184.257549" y="170.898627" style="stroke: #ffffff"/>
     <use xlink:href="#ma36e38d364" x="291.083608" y="178.368633" style="stroke: #ffffff"/>
     <use xlink:href="#ma36e38d364" x="331.478591" y="181.193325" style="stroke: #ffffff"/>
     <use xlink:href="#ma36e38d364" x="141.138456" y="166.214692" style="stroke: #ffffff"/>
     <use xlink:href="#ma36e38d364" x="184.328795" y="169.993357" style="stroke: #ffffff"/>
     <use xlink:href="#ma36e38d364" x="290.509994" y="179.283008" style="stroke: #ffffff"/>
     <use xlink:href="#ma36e38d364" x="143.41764" y="164.780385" style="stroke: #ffffff"/>
     <use xlink:href="#ma36e38d364" x="186.20863" y="169.277899" style="stroke: #ffffff"/>
     <use xlink:href="#ma36e38d364" x="290.916114" y="180.283099" style="stroke: #ffffff"/>
     <use xlink:href="#ma36e38d364" x="141.486471" y="162.903552" style="stroke: #ffffff"/>
     <use xlink:href="#ma36e38d364" x="189.845155" y="168.841252" style="stroke: #ffffff"/>
     <use xlink:href="#ma36e38d364" x="331.39335" y="186.221185" style="stroke: #ffffff"/>
     <use xlink:href="#ma36e38d364" x="185.531441" y="167.41262" style="stroke: #ffffff"/>
     <use xlink:href="#ma36e38d364" x="291.667548" y="182.329077" style="stroke: #ffffff"/>
     <use xlink:href="#ma36e38d364" x="330.387564" y="187.77082" style="stroke: #ffffff"/>
     <use xlink:href="#ma36e38d364" x="144.054891" y="159.939984" style="stroke: #ffffff"/>
     <use xlink:href="#ma36e38d364" x="187.436956" y="166.811028" style="stroke: #ffffff"/>
     <use xlink:href="#ma36e38d364" x="290.045907" y="183.062689" style="stroke: #ffffff"/>
     <use xlink:href="#ma36e38d364" x="141.169226" y="157.778564" style="stroke: #ffffff"/>
     <use xlink:href="#ma36e38d364" x="184.028456" y="165.335802" style="stroke: #ffffff"/>
     <use xlink:href="#ma36e38d364" x="289.88875" y="184.001828" style="stroke: #ffffff"/>
     <use xlink:href="#ma36e38d364" x="141.476012" y="156.123297" style="stroke: #ffffff"/>
     <use xlink:href="#ma36e38d364" x="184.196822" y="164.427381" style="stroke: #ffffff"/>
     <use xlink:href="#ma36e38d364" x="289.715225" y="184.938081" style="stroke: #ffffff"/>
     <use xlink:href="#ma36e38d364" x="193.949497" y="165.555881" style="stroke: #ffffff"/>
     <use xlink:href="#ma36e38d364" x="289.034574" y="185.766838" style="stroke: #ffffff"/>
     <use xlink:href="#ma36e38d364" x="184.580983" y="162.620046" style="stroke: #ffffff"/>
     <use xlink:href="#ma36e38d364" x="289.319294" y="186.80079" style="stroke: #ffffff"/>
     <use xlink:href="#ma36e38d364" x="196.80762" y="164.71635" style="stroke: #ffffff"/>
     <use xlink:href="#ma36e38d364" x="287.631521" y="187.361291" style="stroke: #ffffff"/>
     <use xlink:href="#ma36e38d364" x="187.644911" y="161.528421" style="stroke: #ffffff"/>
     <use xlink:href="#ma36e38d364" x="288.858597" y="188.648546" style="stroke: #ffffff"/>
     <use xlink:href="#ma36e38d364" x="144.470523" y="148.236466" style="stroke: #ffffff"/>
     <use xlink:href="#ma36e38d364" x="185.274884" y="159.936928" style="stroke: #ffffff"/>
     <use xlink:href="#ma36e38d364" x="143.918516" y="146.326948" style="stroke: #ffffff"/>
     <use xlink:href="#ma36e38d364" x="184.666983" y="158.785005" style="stroke: #ffffff"/>
     <use xlink:href="#ma36e38d364" x="288.333694" y="190.479099" style="stroke: #ffffff"/>
     <use xlink:href="#ma36e38d364" x="188.391745" y="159.007153" style="stroke: #ffffff"/>
     <use xlink:href="#ma36e38d364" x="288.047363" y="191.387226" style="stroke: #ffffff"/>
     <use xlink:href="#ma36e38d364" x="328.542584" y="204.544921" style="stroke: #ffffff"/>
     <use xlink:href="#ma36e38d364" x="145.972173" y="143.473841" style="stroke: #ffffff"/>
     <use xlink:href="#ma36e38d364" x="196.179046" y="160.761454" style="stroke: #ffffff"/>
     <use xlink:href="#ma36e38d364" x="288.218102" y="192.453042" style="stroke: #ffffff"/>
     <use xlink:href="#ma36e38d364" x="327.256144" y="205.894918" style="stroke: #ffffff"/>
     <use xlink:href="#ma36e38d364" x="148.530646" y="142.633523" style="stroke: #ffffff"/>
     <use xlink:href="#ma36e38d364" x="189.804603" y="157.656015" style="stroke: #ffffff"/>
     <use xlink:href="#ma36e38d364" x="287.427376" y="193.187799" style="stroke: #ffffff"/>
     <use xlink:href="#ma36e38d364" x="327.438732" y="207.750741" style="stroke: #ffffff"/>
     <use xlink:href="#ma36e38d364" x="149.100628" y="141.109038" style="stroke: #ffffff"/>
     <use xlink:href="#ma36e38d364" x="190.10612" y="156.849572" style="stroke: #ffffff"/>
     <use xlink:href="#ma36e38d364" x="287.093909" y="194.079696" style="stroke: #ffffff"/>
     <use xlink:href="#ma36e38d364" x="326.845013" y="209.338715" style="stroke: #ffffff"/>
     <use xlink:href="#ma36e38d364" x="149.697129" y="139.594732" style="stroke: #ffffff"/>
     <use xlink:href="#ma36e38d364" x="190.421666" y="156.048513" style="stroke: #ffffff"/>
     <use xlink:href="#ma36e38d364" x="286.744928" y="194.965637" style="stroke: #ffffff"/>
     <use xlink:href="#ma36e38d364" x="326.22367" y="210.916085" style="stroke: #ffffff"/>
     <use xlink:href="#ma36e38d364" x="150.319967" y="138.091068" style="stroke: #ffffff"/>
     <use xlink:href="#ma36e38d364" x="193.206794" y="156.295446" style="stroke: #ffffff"/>
     <use xlink:href="#ma36e38d364" x="287.299756" y="196.235539" style="stroke: #ffffff"/>
     <use xlink:href="#ma36e38d364" x="149.997256" y="136.165875" style="stroke: #ffffff"/>
     <use xlink:href="#ma36e38d364" x="198.321663" y="157.681287" style="stroke: #ffffff"/>
     <use xlink:href="#ma36e38d364" x="286.913119" y="197.124744" style="stroke: #ffffff"/>
     <use xlink:href="#ma36e38d364" x="323.450501" y="213.392235" style="stroke: #ffffff"/>
     <use xlink:href="#ma36e38d364" x="150.679891" y="134.66797" style="stroke: #ffffff"/>
     <use xlink:href="#ma36e38d364" x="198.621441" y="157.023483" style="stroke: #ffffff"/>
     <use xlink:href="#ma36e38d364" x="286.511021" y="198.007067" style="stroke: #ffffff"/>
     <use xlink:href="#ma36e38d364" x="322.758932" y="214.909745" style="stroke: #ffffff"/>
     <use xlink:href="#ma36e38d364" x="151.388563" y="133.182208" style="stroke: #ffffff"/>
     <use xlink:href="#ma36e38d364" x="198.932654" y="156.37101" style="stroke: #ffffff"/>
     <use xlink:href="#ma36e38d364" x="286.093586" y="198.882237" style="stroke: #ffffff"/>
     <use xlink:href="#ma36e38d364" x="322.040983" y="216.414954" style="stroke: #ffffff"/>
     <use xlink:href="#ma36e38d364" x="152.123058" y="131.709039" style="stroke: #ffffff"/>
     <use xlink:href="#ma36e38d364" x="189.801651" y="150.907241" style="stroke: #ffffff"/>
     <use xlink:href="#ma36e38d364" x="284.771179" y="199.296633" style="stroke: #ffffff"/>
     <use xlink:href="#ma36e38d364" x="322.357084" y="218.447608" style="stroke: #ffffff"/>
     <use xlink:href="#ma36e38d364" x="199.589002" y="155.082855" style="stroke: #ffffff"/>
     <use xlink:href="#ma36e38d364" x="284.331503" y="200.141243" style="stroke: #ffffff"/>
     <use xlink:href="#ma36e38d364" x="321.926702" y="220.130964" style="stroke: #ffffff"/>
     <use xlink:href="#ma36e38d364" x="199.933937" y="154.447565" style="stroke: #ffffff"/>
     <use xlink:href="#ma36e38d364" x="283.877154" y="200.97805" style="stroke: #ffffff"/>
     <use xlink:href="#ma36e38d364" x="321.117757" y="221.620854" style="stroke: #ffffff"/>
     <use xlink:href="#ma36e38d364" x="152.626515" y="126.29992" style="stroke: #ffffff"/>
     <use xlink:href="#ma36e38d364" x="196.51312" y="151.637863" style="stroke: #ffffff"/>
     <use xlink:href="#ma36e38d364" x="283.408269" y="201.806801" style="stroke: #ffffff"/>
     <use xlink:href="#ma36e38d364" x="153.480934" y="124.849405" style="stroke: #ffffff"/>
     <use xlink:href="#ma36e38d364" x="196.918646" y="150.949416" style="stroke: #ffffff"/>
     <use xlink:href="#ma36e38d364" x="282.924993" y="202.627242" style="stroke: #ffffff"/>
     <use xlink:href="#ma36e38d364" x="192.036743" y="146.956729" style="stroke: #ffffff"/>
     <use xlink:href="#ma36e38d364" x="282.427471" y="203.439124" style="stroke: #ffffff"/>
     <use xlink:href="#ma36e38d364" x="316.517012" y="224.740634" style="stroke: #ffffff"/>
     <use xlink:href="#ma36e38d364" x="194.78806" y="147.660748" style="stroke: #ffffff"/>
     <use xlink:href="#ma36e38d364" x="281.915855" y="204.2422" style="stroke: #ffffff"/>
     <use xlink:href="#ma36e38d364" x="157.967775" y="121.786678" style="stroke: #ffffff"/>
     <use xlink:href="#ma36e38d364" x="192.274268" y="144.9267" style="stroke: #ffffff"/>
     <use xlink:href="#ma36e38d364" x="313.389702" y="226.620092" style="stroke: #ffffff"/>
     <use xlink:href="#ma36e38d364" x="159.771442" y="121.040156" style="stroke: #ffffff"/>
     <use xlink:href="#ma36e38d364" x="195.750916" y="146.233255" style="stroke: #ffffff"/>
     <use xlink:href="#ma36e38d364" x="280.850971" y="205.820955" style="stroke: #ffffff"/>
     <use xlink:href="#ma36e38d364" x="160.716568" y="119.715138" style="stroke: #ffffff"/>
     <use xlink:href="#ma36e38d364" x="196.250882" y="145.532329" style="stroke: #ffffff"/>
     <use xlink:href="#ma36e38d364" x="280.298027" y="206.596154" style="stroke: #ffffff"/>
     <use xlink:href="#ma36e38d364" x="196.047321" y="144.300928" style="stroke: #ffffff"/>
     <use xlink:href="#ma36e38d364" x="279.731638" y="207.361585" style="stroke: #ffffff"/>
     <use xlink:href="#ma36e38d364" x="314.996409" y="233.935496" style="stroke: #ffffff"/>
     <use xlink:href="#ma36e38d364" x="195.872072" y="143.051621" style="stroke: #ffffff"/>
     <use xlink:href="#ma36e38d364" x="279.54608" y="208.424921" style="stroke: #ffffff"/>
     <use xlink:href="#ma36e38d364" x="197.126666" y="142.919429" style="stroke: #ffffff"/>
     <use xlink:href="#ma36e38d364" x="278.55922" y="208.862211" style="stroke: #ffffff"/>
     <use xlink:href="#ma36e38d364" x="197.684257" y="142.243018" style="stroke: #ffffff"/>
     <use xlink:href="#ma36e38d364" x="277.953548" y="209.596951" style="stroke: #ffffff"/>
     <use xlink:href="#ma36e38d364" x="165.780908" y="113.348389" style="stroke: #ffffff"/>
     <use xlink:href="#ma36e38d364" x="198.929888" y="142.164357" style="stroke: #ffffff"/>
     <use xlink:href="#ma36e38d364" x="277.335145" y="210.321007" style="stroke: #ffffff"/>
     <use xlink:href="#ma36e38d364" x="196.144755" y="138.498111" style="stroke: #ffffff"/>
     <use xlink:href="#ma36e38d364" x="276.7042" y="211.034161" style="stroke: #ffffff"/>
     <use xlink:href="#ma36e38d364" x="196.779658" y="137.805237" style="stroke: #ffffff"/>
     <use xlink:href="#ma36e38d364" x="276.060904" y="211.736195" style="stroke: #ffffff"/>
     <use xlink:href="#ma36e38d364" x="197.426556" y="137.123548" style="stroke: #ffffff"/>
     <use xlink:href="#ma36e38d364" x="275.405455" y="212.426895" style="stroke: #ffffff"/>
     <use xlink:href="#ma36e38d364" x="170.220022" y="108.588022" style="stroke: #ffffff"/>
     <use xlink:href="#ma36e38d364" x="200.64449" y="139.01249" style="stroke: #ffffff"/>
     <use xlink:href="#ma36e38d364" x="274.73805" y="213.10605" style="stroke: #ffffff"/>
     <use xlink:href="#ma36e38d364" x="169.155921" y="105.143245" style="stroke: #ffffff"/>
     <use xlink:href="#ma36e38d364" x="198.755548" y="135.794556" style="stroke: #ffffff"/>
     <use xlink:href="#ma36e38d364" x="273.71033" y="213.412505" style="stroke: #ffffff"/>
     <use xlink:href="#ma36e38d364" x="172.561463" y="106.326919" style="stroke: #ffffff"/>
     <use xlink:href="#ma36e38d364" x="202.51676" y="138.450042" style="stroke: #ffffff"/>
     <use xlink:href="#ma36e38d364" x="273.368195" y="214.428904" style="stroke: #ffffff"/>
     <use xlink:href="#ma36e38d364" x="173.049699" y="104.43691" style="stroke: #ffffff"/>
     <use xlink:href="#ma36e38d364" x="201.949952" y="136.533892" style="stroke: #ffffff"/>
     <use xlink:href="#ma36e38d364" x="274.328478" y="216.91839" style="stroke: #ffffff"/>
     <use xlink:href="#ma36e38d364" x="300.362102" y="245.831658" style="stroke: #ffffff"/>
     <use xlink:href="#ma36e38d364" x="174.282569" y="103.346158" style="stroke: #ffffff"/>
     <use xlink:href="#ma36e38d364" x="202.618251" y="135.942631" style="stroke: #ffffff"/>
     <use xlink:href="#ma36e38d364" x="273.582851" y="217.578065" style="stroke: #ffffff"/>
     <use xlink:href="#ma36e38d364" x="299.107904" y="246.94128" style="stroke: #ffffff"/>
     <use xlink:href="#ma36e38d364" x="175.534288" y="102.277089" style="stroke: #ffffff"/>
     <use xlink:href="#ma36e38d364" x="203.296767" y="135.363124" style="stroke: #ffffff"/>
     <use xlink:href="#ma36e38d364" x="272.825824" y="218.224627" style="stroke: #ffffff"/>
     <use xlink:href="#ma36e38d364" x="297.83453" y="248.028843" style="stroke: #ffffff"/>
     <use xlink:href="#ma36e38d364" x="176.804473" y="101.230029" style="stroke: #ffffff"/>
     <use xlink:href="#ma36e38d364" x="203.985293" y="134.795546" style="stroke: #ffffff"/>
     <use xlink:href="#ma36e38d364" x="272.057628" y="218.857879" style="stroke: #ffffff"/>
     <use xlink:href="#ma36e38d364" x="296.54237" y="249.094018" style="stroke: #ffffff"/>
     <use xlink:href="#ma36e38d364" x="178.09274" y="100.205296" style="stroke: #ffffff"/>
     <use xlink:href="#ma36e38d364" x="212.770575" y="144.590901" style="stroke: #ffffff"/>
     <use xlink:href="#ma36e38d364" x="270.056921" y="217.91408" style="stroke: #ffffff"/>
     <use xlink:href="#ma36e38d364" x="295.963384" y="251.072841" style="stroke: #ffffff"/>
     <use xlink:href="#ma36e38d364" x="179.398694" y="99.203202" style="stroke: #ffffff"/>
     <use xlink:href="#ma36e38d364" x="213.296612" y="144.187259" style="stroke: #ffffff"/>
     <use xlink:href="#ma36e38d364" x="269.294566" y="218.499055" style="stroke: #ffffff"/>
     <use xlink:href="#ma36e38d364" x="294.618384" y="252.104896" style="stroke: #ffffff"/>
     <use xlink:href="#ma36e38d364" x="180.721938" y="98.224053" style="stroke: #ffffff"/>
     <use xlink:href="#ma36e38d364" x="213.829613" y="143.792859" style="stroke: #ffffff"/>
     <use xlink:href="#ma36e38d364" x="268.522119" y="219.070636" style="stroke: #ffffff"/>
     <use xlink:href="#ma36e38d364" x="293.255577" y="253.11332" style="stroke: #ffffff"/>
     <use xlink:href="#ma36e38d364" x="182.062069" y="97.268147" style="stroke: #ffffff"/>
     <use xlink:href="#ma36e38d364" x="205.797297" y="131.165566" style="stroke: #ffffff"/>
     <use xlink:href="#ma36e38d364" x="267.452955" y="219.218971" style="stroke: #ffffff"/>
     <use xlink:href="#ma36e38d364" x="183.418678" y="96.335775" style="stroke: #ffffff"/>
     <use xlink:href="#ma36e38d364" x="206.5587" y="130.642268" style="stroke: #ffffff"/>
     <use xlink:href="#ma36e38d364" x="266.668224" y="219.758302" style="stroke: #ffffff"/>
     <use xlink:href="#ma36e38d364" x="184.791354" y="95.427221" style="stroke: #ffffff"/>
     <use xlink:href="#ma36e38d364" x="208.314722" y="131.650032" style="stroke: #ffffff"/>
     <use xlink:href="#ma36e38d364" x="265.8742" y="220.283855" style="stroke: #ffffff"/>
     <use xlink:href="#ma36e38d364" x="186.179676" y="94.542762" style="stroke: #ffffff"/>
     <use xlink:href="#ma36e38d364" x="209.067287" y="131.170596" style="stroke: #ffffff"/>
     <use xlink:href="#ma36e38d364" x="265.071124" y="220.795471" style="stroke: #ffffff"/>
     <use xlink:href="#ma36e38d364" x="188.131046" y="94.594397" style="stroke: #ffffff"/>
     <use xlink:href="#ma36e38d364" x="210.752975" y="132.243609" style="stroke: #ffffff"/>
     <use xlink:href="#ma36e38d364" x="264.259242" y="221.292993" style="stroke: #ffffff"/>
     <use xlink:href="#ma36e38d364" x="189.001567" y="92.847199" style="stroke: #ffffff"/>
     <use xlink:href="#ma36e38d364" x="210.145404" y="129.469398" style="stroke: #ffffff"/>
     <use xlink:href="#ma36e38d364" x="263.938102" y="222.641085" style="stroke: #ffffff"/>
     <use xlink:href="#ma36e38d364" x="284.134268" y="257.62187" style="stroke: #ffffff"/>
     <use xlink:href="#ma36e38d364" x="190.434276" y="92.036611" style="stroke: #ffffff"/>
     <use xlink:href="#ma36e38d364" x="210.935747" y="129.022244" style="stroke: #ffffff"/>
     <use xlink:href="#ma36e38d364" x="263.094183" y="223.118552" style="stroke: #ffffff"/>
     <use xlink:href="#ma36e38d364" x="282.676773" y="258.446481" style="stroke: #ffffff"/>
     <use xlink:href="#ma36e38d364" x="191.379685" y="90.308476" style="stroke: #ffffff"/>
     <use xlink:href="#ma36e38d364" x="262.008036" y="223.141086" style="stroke: #ffffff"/>
     <use xlink:href="#ma36e38d364" x="194.305011" y="92.382958" style="stroke: #ffffff"/>
     <use xlink:href="#ma36e38d364" x="214.169743" y="131.36969" style="stroke: #ffffff"/>
     <use xlink:href="#ma36e38d364" x="260.928633" y="223.139179" style="stroke: #ffffff"/>
     <use xlink:href="#ma36e38d364" x="194.814208" y="89.756563" style="stroke: #ffffff"/>
     <use xlink:href="#ma36e38d364" x="214.926308" y="130.99248" style="stroke: #ffffff"/>
     <use xlink:href="#ma36e38d364" x="259.856513" y="223.113052" style="stroke: #ffffff"/>
     <use xlink:href="#ma36e38d364" x="215.312079" y="129.81949" style="stroke: #ffffff"/>
     <use xlink:href="#ma36e38d364" x="259.004978" y="223.519213" style="stroke: #ffffff"/>
     <use xlink:href="#ma36e38d364" x="277.711976" y="263.636501" style="stroke: #ffffff"/>
     <use xlink:href="#ma36e38d364" x="197.797875" y="88.365256" style="stroke: #ffffff"/>
     <use xlink:href="#ma36e38d364" x="215.365136" y="127.82197" style="stroke: #ffffff"/>
     <use xlink:href="#ma36e38d364" x="258.350576" y="224.36885" style="stroke: #ffffff"/>
     <use xlink:href="#ma36e38d364" x="274.862452" y="261.455132" style="stroke: #ffffff"/>
     <use xlink:href="#ma36e38d364" x="199.307465" y="87.708868" style="stroke: #ffffff"/>
     <use xlink:href="#ma36e38d364" x="216.183435" y="127.466163" style="stroke: #ffffff"/>
     <use xlink:href="#ma36e38d364" x="257.477353" y="224.748538" style="stroke: #ffffff"/>
     <use xlink:href="#ma36e38d364" x="273.33947" y="262.117343" style="stroke: #ffffff"/>
     <use xlink:href="#ma36e38d364" x="200.82828" y="87.078925" style="stroke: #ffffff"/>
     <use xlink:href="#ma36e38d364" x="217.00782" y="127.124692" style="stroke: #ffffff"/>
     <use xlink:href="#ma36e38d364" x="256.597637" y="225.112928" style="stroke: #ffffff"/>
     <use xlink:href="#ma36e38d364" x="271.805163" y="262.752874" style="stroke: #ffffff"/>
     <use xlink:href="#ma36e38d364" x="201.20772" y="83.474199" style="stroke: #ffffff"/>
     <use xlink:href="#ma36e38d364" x="215.546199" y="120.827211" style="stroke: #ffffff"/>
     <use xlink:href="#ma36e38d364" x="203.536576" y="84.895879" style="stroke: #ffffff"/>
     <use xlink:href="#ma36e38d364" x="218.054905" y="124.78466" style="stroke: #ffffff"/>
     <use xlink:href="#ma36e38d364" x="254.819799" y="225.795376" style="stroke: #ffffff"/>
     <use xlink:href="#ma36e38d364" x="269.517848" y="266.177935" style="stroke: #ffffff"/>
     <use xlink:href="#ma36e38d364" x="205.453432" y="85.349652" style="stroke: #ffffff"/>
     <use xlink:href="#ma36e38d364" x="219.220952" y="125.333433" style="stroke: #ffffff"/>
     <use xlink:href="#ma36e38d364" x="254.085042" y="226.586102" style="stroke: #ffffff"/>
     <use xlink:href="#ma36e38d364" x="267.65587" y="265.998648" style="stroke: #ffffff"/>
     <use xlink:href="#ma36e38d364" x="207.014486" y="84.827331" style="stroke: #ffffff"/>
     <use xlink:href="#ma36e38d364" x="220.082096" y="125.045298" style="stroke: #ffffff"/>
     <use xlink:href="#ma36e38d364" x="253.173773" y="226.891009" style="stroke: #ffffff"/>
     <use xlink:href="#ma36e38d364" x="266.05469" y="266.534395" style="stroke: #ffffff"/>
     <use xlink:href="#ma36e38d364" x="208.584417" y="84.332333" style="stroke: #ffffff"/>
     <use xlink:href="#ma36e38d364" x="220.948137" y="124.772237" style="stroke: #ffffff"/>
     <use xlink:href="#ma36e38d364" x="252.257321" y="227.179965" style="stroke: #ffffff"/>
     <use xlink:href="#ma36e38d364" x="264.444404" y="267.042117" style="stroke: #ffffff"/>
     <use xlink:href="#ma36e38d364" x="210.162749" y="83.86481" style="stroke: #ffffff"/>
     <use xlink:href="#ma36e38d364" x="221.818811" y="124.514331" style="stroke: #ffffff"/>
     <use xlink:href="#ma36e38d364" x="251.335966" y="227.452883" style="stroke: #ffffff"/>
     <use xlink:href="#ma36e38d364" x="262.825502" y="267.521657" style="stroke: #ffffff"/>
     <use xlink:href="#ma36e38d364" x="222.223675" y="122.516928" style="stroke: #ffffff"/>
     <use xlink:href="#ma36e38d364" x="250.409988" y="227.709679" style="stroke: #ffffff"/>
     <use xlink:href="#ma36e38d364" x="223.133516" y="122.281628" style="stroke: #ffffff"/>
     <use xlink:href="#ma36e38d364" x="249.479669" y="227.950276" style="stroke: #ffffff"/>
     <use xlink:href="#ma36e38d364" x="214.943322" y="82.62847" style="stroke: #ffffff"/>
     <use xlink:href="#ma36e38d364" x="225.063078" y="126.461952" style="stroke: #ffffff"/>
     <use xlink:href="#ma36e38d364" x="248.43279" y="227.687294" style="stroke: #ffffff"/>
     <use xlink:href="#ma36e38d364" x="225.530283" y="124.519113" style="stroke: #ffffff"/>
     <use xlink:href="#ma36e38d364" x="247.398838" y="227.402574" style="stroke: #ffffff"/>
     <use xlink:href="#ma36e38d364" x="226.576329" y="125.224287" style="stroke: #ffffff"/>
     <use xlink:href="#ma36e38d364" x="246.474337" y="227.590665" style="stroke: #ffffff"/>
     <use xlink:href="#ma36e38d364" x="254.845226" y="270.655155" style="stroke: #ffffff"/>
    </g>
   </g>
   <g id="patch_3">
    <path d="M 236.16 41.472 
C 218.687246 41.472 201.384393 44.913752 185.241673 51.600285 
C 169.098954 58.286818 154.430303 68.088097 142.0752 80.4432 
C 129.720097 92.798303 119.918818 107.466954 113.232285 123.609673 
C 106.545752 139.752393 103.104 157.055246 103.104 174.528 
C 103.104 192.000754 106.545752 209.303607 113.232285 225.446327 
C 119.918818 241.589046 129.720097 256.257697 142.0752 268.6128 
C 154.430303 280.967903 169.098954 290.769182 185.241673 297.455715 
C 201.384393 304.142248 218.687246 307.584 236.16 307.584 
C 253.632754 307.584 270.935607 304.142248 287.078327 297.455715 
C 303.221046 290.769182 317.889697 280.967903 330.2448 268.6128 
C 342.599903 256.257697 352.401182 241.589046 359.087715 225.446327 
C 365.774248 209.303607 369.216 192.000754 369.216 174.528 
C 369.216 157.055246 365.774248 139.752393 359.087715 123.609673 
C 352.401182 107.466954 342.599903 92.798303 330.2448 80.4432 
C 317.889697 68.088097 303.221046 58.286818 287.078327 51.600285 
C 270.935607 44.913752 253.632754 41.472 236.16 41.472 
" style="fill: none; stroke: #ffffff; stroke-width: 1.25; stroke-linejoin: miter; stroke-linecap: square"/>
   </g>
  </g>
 </g>
 <defs>
  <clipPath id="p93e165b583">
   <path d="M 369.216 174.528 
C 369.216 157.055246 365.774248 139.752393 359.087715 123.609673 
C 352.401182 107.466954 342.599903 92.798303 330.2448 80.4432 
C 317.889697 68.088097 303.221046 58.286818 287.078327 51.600285 
C 270.935607 44.913752 253.632754 41.472 236.16 41.472 
C 218.687246 41.472 201.384393 44.913752 185.241673 51.600285 
C 169.098954 58.286818 154.430303 68.088097 142.0752 80.4432 
C 129.720097 92.798303 119.918818 107.466954 113.232285 123.609673 
C 106.545752 139.752393 103.104 157.055246 103.104 174.528 
C 103.104 192.000754 106.545752 209.303607 113.232285 225.446327 
C 119.918818 241.589046 129.720097 256.257697 142.0752 268.6128 
C 154.430303 280.967903 169.098954 290.769182 185.241673 297.455715 
C 201.384393 304.142248 218.687246 307.584 236.16 307.584 
C 253.632754 307.584 270.935607 304.142248 287.078327 297.455715 
C 303.221046 290.769182 317.889697 280.967903 330.2448 268.6128 
C 342.599903 256.257697 352.401182 241.589046 359.087715 225.446327 
C 365.774248 209.303607 369.216 192.000754 369.216 174.528 
M 236.16 174.528 
C 236.16 174.528 236.16 174.528 236.16 174.528 
C 236.16 174.528 236.16 174.528 236.16 174.528 
C 236.16 174.528 236.16 174.528 236.16 174.528 
C 236.16 174.528 236.16 174.528 236.16 174.528 
C 236.16 174.528 236.16 174.528 236.16 174.528 
C 236.16 174.528 236.16 174.528 236.16 174.528 
C 236.16 174.528 236.16 174.528 236.16 174.528 
C 236.16 174.528 236.16 174.528 236.16 174.528 
C 236.16 174.528 236.16 174.528 236.16 174.528 
C 236.16 174.528 236.16 174.528 236.16 174.528 
C 236.16 174.528 236.16 174.528 236.16 174.528 
C 236.16 174.528 236.16 174.528 236.16 174.528 
C 236.16 174.528 236.16 174.528 236.16 174.528 
C 236.16 174.528 236.16 174.528 236.16 174.528 
C 236.16 174.528 236.16 174.528 236.16 174.528 
C 236.16 174.528 236.16 174.528 236.16 174.528 
z
"/>
  </clipPath>
 </defs>
</svg>
