<?xml version="1.0" encoding="utf-8" standalone="no"?>
<!DOCTYPE svg PUBLIC "-//W3C//DTD SVG 1.1//EN"
  "http://www.w3.org/Graphics/SVG/1.1/DTD/svg11.dtd">
<svg xmlns:xlink="http://www.w3.org/1999/xlink" width="345.6pt" height="360pt" viewBox="0 0 345.6 360" xmlns="http://www.w3.org/2000/svg" version="1.1">
 <metadata>
  <rdf:RDF xmlns:dc="http://purl.org/dc/elements/1.1/" xmlns:cc="http://creativecommons.org/ns#" xmlns:rdf="http://www.w3.org/1999/02/22-rdf-syntax-ns#">
   <cc:Work>
    <dc:type rdf:resource="http://purl.org/dc/dcmitype/StillImage"/>
    <dc:date>2024-09-11T14:24:20.188042</dc:date>
    <dc:format>image/svg+xml</dc:format>
    <dc:creator>
     <cc:Agent>
      <dc:title>Matplotlib v3.9.1, https://matplotlib.org/</dc:title>
     </cc:Agent>
    </dc:creator>
   </cc:Work>
  </rdf:RDF>
 </metadata>
 <defs>
  <style type="text/css">*{stroke-linejoin: round; stroke-linecap: butt}</style>
 </defs>
 <g id="figure_1">
  <g id="patch_1">
   <path d="M 0 360 
L 345.6 360 
L 345.6 0 
L 0 0 
z
" style="fill: #ffffff"/>
  </g>
  <g id="axes_1">
   <g id="patch_2">
    <path d="M 43.2 320.4 
L 311.04 320.4 
L 311.04 43.2 
L 43.2 43.2 
z
" style="fill: #eaeaf2"/>
   </g>
   <g id="matplotlib.axis_1">
    <g id="xtick_1">
     <g id="line2d_1">
      <path d="M 55.374545 320.4 
L 55.374545 43.2 
" clip-path="url(#pb4d8816d7a)" style="fill: none; stroke: #ffffff; stroke-linecap: round"/>
     </g>
     <g id="text_1">
      <!-- 0 -->
      <g style="fill: #262626" transform="translate(52.31603 337.773594) scale(0.11 -0.11)">
       <defs>
        <path id="ArialMT-30" d="M 266 2259 
Q 266 3072 433 3567 
Q 600 4063 929 4331 
Q 1259 4600 1759 4600 
Q 2128 4600 2406 4451 
Q 2684 4303 2865 4023 
Q 3047 3744 3150 3342 
Q 3253 2941 3253 2259 
Q 3253 1453 3087 958 
Q 2922 463 2592 192 
Q 2263 -78 1759 -78 
Q 1097 -78 719 397 
Q 266 969 266 2259 
z
M 844 2259 
Q 844 1131 1108 757 
Q 1372 384 1759 384 
Q 2147 384 2411 759 
Q 2675 1134 2675 2259 
Q 2675 3391 2411 3762 
Q 2147 4134 1753 4134 
Q 1366 4134 1134 3806 
Q 844 3388 844 2259 
z
" transform="scale(0.015625)"/>
       </defs>
       <use xlink:href="#ArialMT-30"/>
      </g>
     </g>
    </g>
    <g id="xtick_2">
     <g id="line2d_2">
      <path d="M 104.072727 320.4 
L 104.072727 43.2 
" clip-path="url(#pb4d8816d7a)" style="fill: none; stroke: #ffffff; stroke-linecap: round"/>
     </g>
     <g id="text_2">
      <!-- 20 -->
      <g style="fill: #262626" transform="translate(97.955696 337.773594) scale(0.11 -0.11)">
       <defs>
        <path id="ArialMT-32" d="M 3222 541 
L 3222 0 
L 194 0 
Q 188 203 259 391 
Q 375 700 629 1000 
Q 884 1300 1366 1694 
Q 2113 2306 2375 2664 
Q 2638 3022 2638 3341 
Q 2638 3675 2398 3904 
Q 2159 4134 1775 4134 
Q 1369 4134 1125 3890 
Q 881 3647 878 3216 
L 300 3275 
Q 359 3922 746 4261 
Q 1134 4600 1788 4600 
Q 2447 4600 2831 4234 
Q 3216 3869 3216 3328 
Q 3216 3053 3103 2787 
Q 2991 2522 2730 2228 
Q 2469 1934 1863 1422 
Q 1356 997 1212 845 
Q 1069 694 975 541 
L 3222 541 
z
" transform="scale(0.015625)"/>
       </defs>
       <use xlink:href="#ArialMT-32"/>
       <use xlink:href="#ArialMT-30" x="55.615234"/>
      </g>
     </g>
    </g>
    <g id="xtick_3">
     <g id="line2d_3">
      <path d="M 152.770909 320.4 
L 152.770909 43.2 
" clip-path="url(#pb4d8816d7a)" style="fill: none; stroke: #ffffff; stroke-linecap: round"/>
     </g>
     <g id="text_3">
      <!-- 40 -->
      <g style="fill: #262626" transform="translate(146.653878 337.773594) scale(0.11 -0.11)">
       <defs>
        <path id="ArialMT-34" d="M 2069 0 
L 2069 1097 
L 81 1097 
L 81 1613 
L 2172 4581 
L 2631 4581 
L 2631 1613 
L 3250 1613 
L 3250 1097 
L 2631 1097 
L 2631 0 
L 2069 0 
z
M 2069 1613 
L 2069 3678 
L 634 1613 
L 2069 1613 
z
" transform="scale(0.015625)"/>
       </defs>
       <use xlink:href="#ArialMT-34"/>
       <use xlink:href="#ArialMT-30" x="55.615234"/>
      </g>
     </g>
    </g>
    <g id="xtick_4">
     <g id="line2d_4">
      <path d="M 201.469091 320.4 
L 201.469091 43.2 
" clip-path="url(#pb4d8816d7a)" style="fill: none; stroke: #ffffff; stroke-linecap: round"/>
     </g>
     <g id="text_4">
      <!-- 60 -->
      <g style="fill: #262626" transform="translate(195.35206 337.773594) scale(0.11 -0.11)">
       <defs>
        <path id="ArialMT-36" d="M 3184 3459 
L 2625 3416 
Q 2550 3747 2413 3897 
Q 2184 4138 1850 4138 
Q 1581 4138 1378 3988 
Q 1113 3794 959 3422 
Q 806 3050 800 2363 
Q 1003 2672 1297 2822 
Q 1591 2972 1913 2972 
Q 2475 2972 2870 2558 
Q 3266 2144 3266 1488 
Q 3266 1056 3080 686 
Q 2894 316 2569 119 
Q 2244 -78 1831 -78 
Q 1128 -78 684 439 
Q 241 956 241 2144 
Q 241 3472 731 4075 
Q 1159 4600 1884 4600 
Q 2425 4600 2770 4297 
Q 3116 3994 3184 3459 
z
M 888 1484 
Q 888 1194 1011 928 
Q 1134 663 1356 523 
Q 1578 384 1822 384 
Q 2178 384 2434 671 
Q 2691 959 2691 1453 
Q 2691 1928 2437 2201 
Q 2184 2475 1800 2475 
Q 1419 2475 1153 2201 
Q 888 1928 888 1484 
z
" transform="scale(0.015625)"/>
       </defs>
       <use xlink:href="#ArialMT-36"/>
       <use xlink:href="#ArialMT-30" x="55.615234"/>
      </g>
     </g>
    </g>
    <g id="xtick_5">
     <g id="line2d_5">
      <path d="M 250.167273 320.4 
L 250.167273 43.2 
" clip-path="url(#pb4d8816d7a)" style="fill: none; stroke: #ffffff; stroke-linecap: round"/>
     </g>
     <g id="text_5">
      <!-- 80 -->
      <g style="fill: #262626" transform="translate(244.050241 337.773594) scale(0.11 -0.11)">
       <defs>
        <path id="ArialMT-38" d="M 1131 2484 
Q 781 2613 612 2850 
Q 444 3088 444 3419 
Q 444 3919 803 4259 
Q 1163 4600 1759 4600 
Q 2359 4600 2725 4251 
Q 3091 3903 3091 3403 
Q 3091 3084 2923 2848 
Q 2756 2613 2416 2484 
Q 2838 2347 3058 2040 
Q 3278 1734 3278 1309 
Q 3278 722 2862 322 
Q 2447 -78 1769 -78 
Q 1091 -78 675 323 
Q 259 725 259 1325 
Q 259 1772 486 2073 
Q 713 2375 1131 2484 
z
M 1019 3438 
Q 1019 3113 1228 2906 
Q 1438 2700 1772 2700 
Q 2097 2700 2305 2904 
Q 2513 3109 2513 3406 
Q 2513 3716 2298 3927 
Q 2084 4138 1766 4138 
Q 1444 4138 1231 3931 
Q 1019 3725 1019 3438 
z
M 838 1322 
Q 838 1081 952 856 
Q 1066 631 1291 507 
Q 1516 384 1775 384 
Q 2178 384 2440 643 
Q 2703 903 2703 1303 
Q 2703 1709 2433 1975 
Q 2163 2241 1756 2241 
Q 1359 2241 1098 1978 
Q 838 1716 838 1322 
z
" transform="scale(0.015625)"/>
       </defs>
       <use xlink:href="#ArialMT-38"/>
       <use xlink:href="#ArialMT-30" x="55.615234"/>
      </g>
     </g>
    </g>
    <g id="xtick_6">
     <g id="line2d_6">
      <path d="M 298.865455 320.4 
L 298.865455 43.2 
" clip-path="url(#pb4d8816d7a)" style="fill: none; stroke: #ffffff; stroke-linecap: round"/>
     </g>
     <g id="text_6">
      <!-- 100 -->
      <g style="fill: #262626" transform="translate(289.689908 337.773594) scale(0.11 -0.11)">
       <defs>
        <path id="ArialMT-31" d="M 2384 0 
L 1822 0 
L 1822 3584 
Q 1619 3391 1289 3197 
Q 959 3003 697 2906 
L 697 3450 
Q 1169 3672 1522 3987 
Q 1875 4303 2022 4600 
L 2384 4600 
L 2384 0 
z
" transform="scale(0.015625)"/>
       </defs>
       <use xlink:href="#ArialMT-31"/>
       <use xlink:href="#ArialMT-30" x="55.615234"/>
       <use xlink:href="#ArialMT-30" x="111.230469"/>
      </g>
     </g>
    </g>
    <g id="text_7">
     <!-- range (%) -->
     <g style="fill: #262626" transform="translate(150.778125 352.695469) scale(0.12 -0.12)">
      <defs>
       <path id="ArialMT-72" d="M 416 0 
L 416 3319 
L 922 3319 
L 922 2816 
Q 1116 3169 1280 3281 
Q 1444 3394 1641 3394 
Q 1925 3394 2219 3213 
L 2025 2691 
Q 1819 2813 1613 2813 
Q 1428 2813 1281 2702 
Q 1134 2591 1072 2394 
Q 978 2094 978 1738 
L 978 0 
L 416 0 
z
" transform="scale(0.015625)"/>
       <path id="ArialMT-61" d="M 2588 409 
Q 2275 144 1986 34 
Q 1697 -75 1366 -75 
Q 819 -75 525 192 
Q 231 459 231 875 
Q 231 1119 342 1320 
Q 453 1522 633 1644 
Q 813 1766 1038 1828 
Q 1203 1872 1538 1913 
Q 2219 1994 2541 2106 
Q 2544 2222 2544 2253 
Q 2544 2597 2384 2738 
Q 2169 2928 1744 2928 
Q 1347 2928 1158 2789 
Q 969 2650 878 2297 
L 328 2372 
Q 403 2725 575 2942 
Q 747 3159 1072 3276 
Q 1397 3394 1825 3394 
Q 2250 3394 2515 3294 
Q 2781 3194 2906 3042 
Q 3031 2891 3081 2659 
Q 3109 2516 3109 2141 
L 3109 1391 
Q 3109 606 3145 398 
Q 3181 191 3288 0 
L 2700 0 
Q 2613 175 2588 409 
z
M 2541 1666 
Q 2234 1541 1622 1453 
Q 1275 1403 1131 1340 
Q 988 1278 909 1158 
Q 831 1038 831 891 
Q 831 666 1001 516 
Q 1172 366 1500 366 
Q 1825 366 2078 508 
Q 2331 650 2450 897 
Q 2541 1088 2541 1459 
L 2541 1666 
z
" transform="scale(0.015625)"/>
       <path id="ArialMT-6e" d="M 422 0 
L 422 3319 
L 928 3319 
L 928 2847 
Q 1294 3394 1984 3394 
Q 2284 3394 2536 3286 
Q 2788 3178 2913 3003 
Q 3038 2828 3088 2588 
Q 3119 2431 3119 2041 
L 3119 0 
L 2556 0 
L 2556 2019 
Q 2556 2363 2490 2533 
Q 2425 2703 2258 2804 
Q 2091 2906 1866 2906 
Q 1506 2906 1245 2678 
Q 984 2450 984 1813 
L 984 0 
L 422 0 
z
" transform="scale(0.015625)"/>
       <path id="ArialMT-67" d="M 319 -275 
L 866 -356 
Q 900 -609 1056 -725 
Q 1266 -881 1628 -881 
Q 2019 -881 2231 -725 
Q 2444 -569 2519 -288 
Q 2563 -116 2559 434 
Q 2191 0 1641 0 
Q 956 0 581 494 
Q 206 988 206 1678 
Q 206 2153 378 2554 
Q 550 2956 876 3175 
Q 1203 3394 1644 3394 
Q 2231 3394 2613 2919 
L 2613 3319 
L 3131 3319 
L 3131 450 
Q 3131 -325 2973 -648 
Q 2816 -972 2473 -1159 
Q 2131 -1347 1631 -1347 
Q 1038 -1347 672 -1080 
Q 306 -813 319 -275 
z
M 784 1719 
Q 784 1066 1043 766 
Q 1303 466 1694 466 
Q 2081 466 2343 764 
Q 2606 1063 2606 1700 
Q 2606 2309 2336 2618 
Q 2066 2928 1684 2928 
Q 1309 2928 1046 2623 
Q 784 2319 784 1719 
z
" transform="scale(0.015625)"/>
       <path id="ArialMT-65" d="M 2694 1069 
L 3275 997 
Q 3138 488 2766 206 
Q 2394 -75 1816 -75 
Q 1088 -75 661 373 
Q 234 822 234 1631 
Q 234 2469 665 2931 
Q 1097 3394 1784 3394 
Q 2450 3394 2872 2941 
Q 3294 2488 3294 1666 
Q 3294 1616 3291 1516 
L 816 1516 
Q 847 969 1125 678 
Q 1403 388 1819 388 
Q 2128 388 2347 550 
Q 2566 713 2694 1069 
z
M 847 1978 
L 2700 1978 
Q 2663 2397 2488 2606 
Q 2219 2931 1791 2931 
Q 1403 2931 1139 2672 
Q 875 2413 847 1978 
z
" transform="scale(0.015625)"/>
       <path id="ArialMT-20" transform="scale(0.015625)"/>
       <path id="ArialMT-28" d="M 1497 -1347 
Q 1031 -759 709 28 
Q 388 816 388 1659 
Q 388 2403 628 3084 
Q 909 3875 1497 4659 
L 1900 4659 
Q 1522 4009 1400 3731 
Q 1209 3300 1100 2831 
Q 966 2247 966 1656 
Q 966 153 1900 -1347 
L 1497 -1347 
z
" transform="scale(0.015625)"/>
       <path id="ArialMT-25" d="M 372 3481 
Q 372 3972 619 4315 
Q 866 4659 1334 4659 
Q 1766 4659 2048 4351 
Q 2331 4044 2331 3447 
Q 2331 2866 2045 2552 
Q 1759 2238 1341 2238 
Q 925 2238 648 2547 
Q 372 2856 372 3481 
z
M 1350 4272 
Q 1141 4272 1002 4090 
Q 863 3909 863 3425 
Q 863 2984 1003 2804 
Q 1144 2625 1350 2625 
Q 1563 2625 1702 2806 
Q 1841 2988 1841 3469 
Q 1841 3913 1700 4092 
Q 1559 4272 1350 4272 
z
M 1353 -169 
L 3859 4659 
L 4316 4659 
L 1819 -169 
L 1353 -169 
z
M 3334 1075 
Q 3334 1569 3581 1911 
Q 3828 2253 4300 2253 
Q 4731 2253 5014 1945 
Q 5297 1638 5297 1041 
Q 5297 459 5011 145 
Q 4725 -169 4303 -169 
Q 3888 -169 3611 142 
Q 3334 453 3334 1075 
z
M 4316 1866 
Q 4103 1866 3964 1684 
Q 3825 1503 3825 1019 
Q 3825 581 3965 400 
Q 4106 219 4313 219 
Q 4528 219 4667 400 
Q 4806 581 4806 1063 
Q 4806 1506 4665 1686 
Q 4525 1866 4316 1866 
z
" transform="scale(0.015625)"/>
       <path id="ArialMT-29" d="M 791 -1347 
L 388 -1347 
Q 1322 153 1322 1656 
Q 1322 2244 1188 2822 
Q 1081 3291 891 3722 
Q 769 4003 388 4659 
L 791 4659 
Q 1378 3875 1659 3084 
Q 1900 2403 1900 1659 
Q 1900 816 1576 28 
Q 1253 -759 791 -1347 
z
" transform="scale(0.015625)"/>
      </defs>
      <use xlink:href="#ArialMT-72"/>
      <use xlink:href="#ArialMT-61" x="33.300781"/>
      <use xlink:href="#ArialMT-6e" x="88.916016"/>
      <use xlink:href="#ArialMT-67" x="144.53125"/>
      <use xlink:href="#ArialMT-65" x="200.146484"/>
      <use xlink:href="#ArialMT-20" x="255.761719"/>
      <use xlink:href="#ArialMT-28" x="283.544922"/>
      <use xlink:href="#ArialMT-25" x="316.845703"/>
      <use xlink:href="#ArialMT-29" x="405.761719"/>
     </g>
    </g>
   </g>
   <g id="matplotlib.axis_2">
    <g id="ytick_1">
     <g id="line2d_7">
      <path d="M 43.2 307.8 
L 311.04 307.8 
" clip-path="url(#pb4d8816d7a)" style="fill: none; stroke: #ffffff; stroke-linecap: round"/>
     </g>
     <g id="text_8">
      <!-- 0 -->
      <g style="fill: #262626" transform="translate(27.582969 311.736797) scale(0.11 -0.11)">
       <use xlink:href="#ArialMT-30"/>
      </g>
     </g>
    </g>
    <g id="ytick_2">
     <g id="line2d_8">
      <path d="M 43.2 261.623553 
L 311.04 261.623553 
" clip-path="url(#pb4d8816d7a)" style="fill: none; stroke: #ffffff; stroke-linecap: round"/>
     </g>
     <g id="text_9">
      <!-- 5 -->
      <g style="fill: #262626" transform="translate(27.582969 265.56035) scale(0.11 -0.11)">
       <defs>
        <path id="ArialMT-35" d="M 266 1200 
L 856 1250 
Q 922 819 1161 601 
Q 1400 384 1738 384 
Q 2144 384 2425 690 
Q 2706 997 2706 1503 
Q 2706 1984 2436 2262 
Q 2166 2541 1728 2541 
Q 1456 2541 1237 2417 
Q 1019 2294 894 2097 
L 366 2166 
L 809 4519 
L 3088 4519 
L 3088 3981 
L 1259 3981 
L 1013 2750 
Q 1425 3038 1878 3038 
Q 2478 3038 2890 2622 
Q 3303 2206 3303 1553 
Q 3303 931 2941 478 
Q 2500 -78 1738 -78 
Q 1113 -78 717 272 
Q 322 622 266 1200 
z
" transform="scale(0.015625)"/>
       </defs>
       <use xlink:href="#ArialMT-35"/>
      </g>
     </g>
    </g>
    <g id="ytick_3">
     <g id="line2d_9">
      <path d="M 43.2 215.447105 
L 311.04 215.447105 
" clip-path="url(#pb4d8816d7a)" style="fill: none; stroke: #ffffff; stroke-linecap: round"/>
     </g>
     <g id="text_10">
      <!-- 10 -->
      <g style="fill: #262626" transform="translate(21.465937 219.383902) scale(0.11 -0.11)">
       <use xlink:href="#ArialMT-31"/>
       <use xlink:href="#ArialMT-30" x="55.615234"/>
      </g>
     </g>
    </g>
    <g id="ytick_4">
     <g id="line2d_10">
      <path d="M 43.2 169.270658 
L 311.04 169.270658 
" clip-path="url(#pb4d8816d7a)" style="fill: none; stroke: #ffffff; stroke-linecap: round"/>
     </g>
     <g id="text_11">
      <!-- 15 -->
      <g style="fill: #262626" transform="translate(21.465937 173.207455) scale(0.11 -0.11)">
       <use xlink:href="#ArialMT-31"/>
       <use xlink:href="#ArialMT-35" x="55.615234"/>
      </g>
     </g>
    </g>
    <g id="ytick_5">
     <g id="line2d_11">
      <path d="M 43.2 123.094211 
L 311.04 123.094211 
" clip-path="url(#pb4d8816d7a)" style="fill: none; stroke: #ffffff; stroke-linecap: round"/>
     </g>
     <g id="text_12">
      <!-- 20 -->
      <g style="fill: #262626" transform="translate(21.465937 127.031008) scale(0.11 -0.11)">
       <use xlink:href="#ArialMT-32"/>
       <use xlink:href="#ArialMT-30" x="55.615234"/>
      </g>
     </g>
    </g>
    <g id="ytick_6">
     <g id="line2d_12">
      <path d="M 43.2 76.917764 
L 311.04 76.917764 
" clip-path="url(#pb4d8816d7a)" style="fill: none; stroke: #ffffff; stroke-linecap: round"/>
     </g>
     <g id="text_13">
      <!-- 25 -->
      <g style="fill: #262626" transform="translate(21.465937 80.85456) scale(0.11 -0.11)">
       <use xlink:href="#ArialMT-32"/>
       <use xlink:href="#ArialMT-35" x="55.615234"/>
      </g>
     </g>
    </g>
    <g id="text_14">
     <!-- intensity (%) -->
     <g style="fill: #262626" transform="translate(14.940312 214.8075) rotate(-90) scale(0.12 -0.12)">
      <defs>
       <path id="ArialMT-69" d="M 425 3934 
L 425 4581 
L 988 4581 
L 988 3934 
L 425 3934 
z
M 425 0 
L 425 3319 
L 988 3319 
L 988 0 
L 425 0 
z
" transform="scale(0.015625)"/>
       <path id="ArialMT-74" d="M 1650 503 
L 1731 6 
Q 1494 -44 1306 -44 
Q 1000 -44 831 53 
Q 663 150 594 308 
Q 525 466 525 972 
L 525 2881 
L 113 2881 
L 113 3319 
L 525 3319 
L 525 4141 
L 1084 4478 
L 1084 3319 
L 1650 3319 
L 1650 2881 
L 1084 2881 
L 1084 941 
Q 1084 700 1114 631 
Q 1144 563 1211 522 
Q 1278 481 1403 481 
Q 1497 481 1650 503 
z
" transform="scale(0.015625)"/>
       <path id="ArialMT-73" d="M 197 991 
L 753 1078 
Q 800 744 1014 566 
Q 1228 388 1613 388 
Q 2000 388 2187 545 
Q 2375 703 2375 916 
Q 2375 1106 2209 1216 
Q 2094 1291 1634 1406 
Q 1016 1563 777 1677 
Q 538 1791 414 1992 
Q 291 2194 291 2438 
Q 291 2659 392 2848 
Q 494 3038 669 3163 
Q 800 3259 1026 3326 
Q 1253 3394 1513 3394 
Q 1903 3394 2198 3281 
Q 2494 3169 2634 2976 
Q 2775 2784 2828 2463 
L 2278 2388 
Q 2241 2644 2061 2787 
Q 1881 2931 1553 2931 
Q 1166 2931 1000 2803 
Q 834 2675 834 2503 
Q 834 2394 903 2306 
Q 972 2216 1119 2156 
Q 1203 2125 1616 2013 
Q 2213 1853 2448 1751 
Q 2684 1650 2818 1456 
Q 2953 1263 2953 975 
Q 2953 694 2789 445 
Q 2625 197 2315 61 
Q 2006 -75 1616 -75 
Q 969 -75 630 194 
Q 291 463 197 991 
z
" transform="scale(0.015625)"/>
       <path id="ArialMT-79" d="M 397 -1278 
L 334 -750 
Q 519 -800 656 -800 
Q 844 -800 956 -737 
Q 1069 -675 1141 -563 
Q 1194 -478 1313 -144 
Q 1328 -97 1363 -6 
L 103 3319 
L 709 3319 
L 1400 1397 
Q 1534 1031 1641 628 
Q 1738 1016 1872 1384 
L 2581 3319 
L 3144 3319 
L 1881 -56 
Q 1678 -603 1566 -809 
Q 1416 -1088 1222 -1217 
Q 1028 -1347 759 -1347 
Q 597 -1347 397 -1278 
z
" transform="scale(0.015625)"/>
      </defs>
      <use xlink:href="#ArialMT-69"/>
      <use xlink:href="#ArialMT-6e" x="22.216797"/>
      <use xlink:href="#ArialMT-74" x="77.832031"/>
      <use xlink:href="#ArialMT-65" x="105.615234"/>
      <use xlink:href="#ArialMT-6e" x="161.230469"/>
      <use xlink:href="#ArialMT-73" x="216.845703"/>
      <use xlink:href="#ArialMT-69" x="266.845703"/>
      <use xlink:href="#ArialMT-74" x="289.0625"/>
      <use xlink:href="#ArialMT-79" x="316.845703"/>
      <use xlink:href="#ArialMT-20" x="366.845703"/>
      <use xlink:href="#ArialMT-28" x="394.628906"/>
      <use xlink:href="#ArialMT-25" x="427.929688"/>
      <use xlink:href="#ArialMT-29" x="516.845703"/>
     </g>
    </g>
   </g>
   <g id="line2d_13">
    <path d="M 55.374545 299.688534 
L 55.851044 299.371326 
L 56.327543 299.643218 
L 56.804042 299.280695 
L 57.280541 298.736909 
L 57.75704 298.963487 
L 58.233539 298.555647 
L 58.710037 298.32907 
L 59.186536 298.374386 
L 59.663035 297.8306 
L 60.139534 297.739969 
L 60.616033 297.286815 
L 62.045529 296.743029 
L 62.522028 296.108613 
L 63.475026 295.746089 
L 64.428023 295.202304 
L 64.904522 294.930411 
L 65.381021 295.021042 
L 66.334019 294.522572 
L 66.810518 295.066358 
L 67.763515 294.703834 
L 68.240014 295.021042 
L 69.669511 295.383566 
L 70.622508 296.017982 
L 71.099007 296.153928 
L 71.575506 296.83366 
L 72.052005 297.014922 
L 72.528504 297.377446 
L 73.005003 296.924291 
L 73.481502 297.921231 
L 73.958 297.8306 
L 74.434499 297.921231 
L 74.910998 298.283755 
L 75.387497 298.011862 
L 75.863996 298.283755 
L 76.340495 298.32907 
L 76.816993 298.646278 
L 77.293492 298.782225 
L 78.24649 298.374386 
L 78.722989 298.736909 
L 79.199488 298.918171 
L 79.675986 298.465017 
L 80.152485 298.736909 
L 80.628984 298.555647 
L 81.581982 298.555647 
L 82.058481 298.374386 
L 82.53498 297.8306 
L 83.011478 298.011862 
L 83.964476 296.108613 
L 84.440975 294.295995 
L 84.917474 291.123913 
L 85.393973 286.954891 
L 85.870471 280.565412 
L 86.823469 263.390855 
L 87.299968 264.84095 
L 87.776467 271.638268 
L 88.729465 289.991027 
L 89.205963 294.567888 
L 89.682462 296.924291 
L 90.63546 299.008802 
L 91.111959 299.099433 
L 91.588458 299.371326 
L 92.064956 300.005742 
L 92.541455 299.82448 
L 93.017954 300.096373 
L 93.970952 300.277635 
L 94.447451 300.232319 
L 94.923949 299.82448 
L 95.400448 300.368266 
L 95.876947 300.187004 
L 96.829945 300.141688 
L 98.259441 299.82448 
L 98.73594 299.915111 
L 99.212439 299.82448 
L 99.688938 299.869796 
L 102.071432 298.283755 
L 103.500929 295.156988 
L 104.453926 291.803645 
L 104.930425 289.673819 
L 105.406924 288.314355 
L 105.883423 287.453361 
L 106.359922 288.404986 
L 106.836421 288.767509 
L 107.312919 289.401926 
L 107.789418 289.492557 
L 108.265917 289.175349 
L 109.218915 287.770569 
L 109.695414 287.906516 
L 110.171912 288.314355 
L 110.648411 289.311295 
L 111.12491 290.670759 
L 111.601409 291.486437 
L 112.554407 294.205364 
L 113.030906 294.658518 
L 113.507404 295.292935 
L 114.460402 295.292935 
L 114.936901 296.108613 
L 115.4134 296.199244 
L 115.889899 296.561767 
L 116.366397 296.471137 
L 116.842896 296.83366 
L 117.795894 297.014922 
L 118.272393 297.286815 
L 118.748892 297.286815 
L 119.22539 297.468077 
L 119.701889 297.468077 
L 120.178388 297.739969 
L 121.131386 297.33213 
L 121.607885 297.468077 
L 122.560882 297.241499 
L 123.51388 297.468077 
L 123.990379 297.105553 
L 124.943377 297.377446 
L 125.419875 297.105553 
L 125.896374 297.241499 
L 126.372873 297.150868 
L 127.80237 297.468077 
L 128.278869 297.468077 
L 129.231866 297.196184 
L 129.708365 297.196184 
L 130.184864 297.377446 
L 130.661363 297.286815 
L 131.137862 296.969607 
L 131.61436 296.924291 
L 132.090859 297.105553 
L 132.567358 296.924291 
L 134.473353 297.286815 
L 134.949852 297.014922 
L 135.426351 297.014922 
L 135.90285 297.377446 
L 136.379349 297.014922 
L 136.855848 297.105553 
L 137.332347 297.33213 
L 137.808845 297.060237 
L 138.285344 297.241499 
L 138.761843 297.241499 
L 139.238342 297.060237 
L 139.714841 297.468077 
L 140.19134 297.014922 
L 140.667838 297.105553 
L 142.097335 296.924291 
L 143.050333 296.788345 
L 143.526832 296.471137 
L 144.00333 296.743029 
L 144.956328 296.108613 
L 145.432827 296.516452 
L 146.385825 296.153928 
L 146.862323 296.199244 
L 147.338822 296.471137 
L 147.815321 296.108613 
L 148.29182 296.108613 
L 148.768319 296.380506 
L 149.244818 296.289875 
L 149.721316 296.83366 
L 150.197815 296.652398 
L 150.674314 296.924291 
L 151.150813 296.697714 
L 151.627312 296.743029 
L 152.103811 296.924291 
L 152.58031 296.697714 
L 153.056808 297.105553 
L 154.486305 296.788345 
L 154.962804 296.788345 
L 155.439303 296.652398 
L 155.915801 296.697714 
L 156.3923 296.471137 
L 156.868799 296.743029 
L 157.345298 296.108613 
L 159.251293 296.017982 
L 159.727792 295.746089 
L 160.68079 295.655458 
L 161.157289 295.111673 
L 161.633788 294.794465 
L 162.110286 294.295995 
L 162.586785 293.435001 
L 163.063284 293.299055 
L 164.492781 291.305175 
L 164.969279 290.126973 
L 165.445778 289.945711 
L 165.922277 288.631563 
L 166.398776 288.042462 
L 167.828273 284.326595 
L 168.304771 283.420286 
L 169.734268 277.846485 
L 170.687266 273.722779 
L 171.163764 270.278804 
L 171.640263 268.556817 
L 172.593261 263.934641 
L 173.06976 262.122023 
L 173.546259 261.396975 
L 174.022758 262.257969 
L 174.499256 263.436171 
L 175.452254 267.83177 
L 176.405252 272.453946 
L 177.358249 277.076122 
L 177.834748 279.070002 
L 178.311247 281.698299 
L 178.787746 281.87956 
L 179.264245 283.420286 
L 179.740744 284.462541 
L 180.217242 285.77669 
L 180.693741 286.229844 
L 181.646739 288.178409 
L 183.076236 289.537872 
L 183.552734 290.444181 
L 184.029233 290.85202 
L 184.505732 290.987967 
L 184.982231 291.622383 
L 185.45873 291.758329 
L 185.935229 292.34743 
L 186.411727 292.166168 
L 186.888226 292.574008 
L 187.364725 292.800585 
L 187.841224 293.389686 
L 188.317723 293.027162 
L 189.270721 293.84284 
L 190.223718 293.616263 
L 190.700217 293.84284 
L 191.176716 294.567888 
L 191.653215 293.978787 
L 192.129714 294.024102 
L 192.606212 294.386626 
L 193.082711 293.933471 
L 193.55921 294.386626 
L 194.035709 294.114733 
L 194.512208 294.024102 
L 194.988707 294.522572 
L 195.465205 294.114733 
L 195.941704 294.386626 
L 196.894702 294.613203 
L 197.371201 294.477257 
L 197.8477 294.703834 
L 198.324199 294.658518 
L 198.800697 294.749149 
L 199.277196 294.431941 
L 199.753695 294.34131 
L 200.230194 294.658518 
L 200.706693 294.295995 
L 201.183192 294.613203 
L 202.136189 294.567888 
L 202.612688 294.386626 
L 203.565686 294.477257 
L 204.042185 294.522572 
L 204.518684 294.386626 
L 204.995182 294.069418 
L 205.471681 294.386626 
L 205.94818 294.024102 
L 206.424679 294.205364 
L 207.854175 293.072478 
L 208.330674 293.163108 
L 208.807173 292.936531 
L 209.760171 292.755269 
L 210.23667 292.800585 
L 210.713168 293.027162 
L 211.189667 292.483377 
L 211.666166 293.117793 
L 212.142665 293.299055 
L 212.619164 294.069418 
L 213.095663 294.386626 
L 213.572162 295.111673 
L 214.04866 295.474197 
L 214.525159 295.564828 
L 215.001658 295.972667 
L 215.478157 296.561767 
L 215.954656 296.743029 
L 216.907653 297.8306 
L 217.384152 298.011862 
L 217.860651 297.921231 
L 218.33715 298.238439 
L 218.813649 298.374386 
L 219.766647 299.008802 
L 220.243145 298.918171 
L 220.719644 299.008802 
L 221.672642 299.597903 
L 222.149141 299.371326 
L 223.102138 299.552587 
L 223.578637 299.461957 
L 224.055136 299.688534 
L 224.531635 299.643218 
L 225.484633 299.960427 
L 226.43763 299.960427 
L 226.914129 300.504212 
L 227.390628 300.232319 
L 227.867127 300.277635 
L 228.343626 300.458897 
L 229.773122 300.368266 
L 230.249621 300.640158 
L 230.72612 300.594843 
L 231.202619 300.776105 
L 231.679118 300.549527 
L 232.155616 301.002682 
L 232.632115 300.82142 
L 233.585113 301.002682 
L 234.061612 300.640158 
L 234.538111 301.093313 
L 235.491108 301.002682 
L 236.444106 301.229259 
L 236.920605 301.093313 
L 237.397104 301.365206 
L 238.8266 301.138628 
L 239.303099 301.410521 
L 239.779598 301.183944 
L 240.256097 301.455836 
L 240.732596 301.501152 
L 241.209094 301.183944 
L 241.685593 301.183944 
L 242.162092 301.591783 
L 242.638591 301.455836 
L 243.11509 301.637098 
L 243.591589 301.274575 
L 244.544586 301.591783 
L 245.974083 301.682414 
L 246.450582 301.365206 
L 246.927081 301.727729 
L 247.403579 301.637098 
L 247.880078 301.727729 
L 249.309575 301.546467 
L 249.786074 301.727729 
L 252.168568 301.727729 
L 252.645067 301.863676 
L 253.598064 301.501152 
L 254.074563 301.727729 
L 255.027561 301.773045 
L 255.50406 301.908991 
L 255.980559 301.546467 
L 256.457057 301.773045 
L 256.933556 301.546467 
L 257.410055 301.546467 
L 257.886554 301.727729 
L 258.363053 301.727729 
L 258.839552 301.954306 
L 259.316051 301.863676 
L 259.792549 301.908991 
L 260.745547 301.81836 
L 261.222046 301.999622 
L 261.698545 302.362146 
L 262.175044 301.999622 
L 262.651542 302.090253 
L 263.128041 302.362146 
L 263.60454 302.180884 
L 264.081039 302.362146 
L 264.557538 302.180884 
L 265.034037 302.543407 
L 265.510535 301.999622 
L 265.987034 302.452776 
L 266.463533 302.31683 
L 266.940032 301.999622 
L 267.416531 302.180884 
L 268.369529 301.999622 
L 268.846027 302.180884 
L 270.752023 301.863676 
L 271.228522 301.999622 
L 271.70502 301.999622 
L 272.181519 301.591783 
L 272.658018 301.954306 
L 273.134517 301.81836 
L 273.611016 301.81836 
L 274.087515 301.999622 
L 274.564014 301.727729 
L 275.040512 301.908991 
L 275.517011 301.637098 
L 276.470009 301.773045 
L 276.946508 302.090253 
L 277.423007 301.637098 
L 277.899505 301.999622 
L 278.376004 301.81836 
L 278.852503 301.954306 
L 279.329002 301.954306 
L 279.805501 301.546467 
L 280.282 301.81836 
L 280.758498 301.81836 
L 281.234997 301.591783 
L 282.187995 301.908991 
L 283.140993 301.637098 
L 283.617492 301.999622 
L 284.09399 301.81836 
L 284.570489 302.090253 
L 285.046988 301.81836 
L 285.523487 302.090253 
L 287.429482 301.999622 
L 287.905981 302.271515 
L 288.38248 302.180884 
L 289.335478 302.362146 
L 289.811977 302.226199 
L 290.288475 302.452776 
L 290.764974 302.271515 
L 291.241473 302.271515 
L 292.194471 302.543407 
L 292.67097 302.498092 
L 293.147468 302.588723 
L 293.623967 302.271515 
L 294.100466 302.724669 
L 294.576965 302.271515 
L 295.053464 302.226199 
L 295.529963 302.498092 
L 296.959459 302.452776 
L 297.435958 302.452776 
L 297.912457 302.724669 
L 298.388956 302.31683 
L 298.865455 302.498092 
L 298.865455 302.498092 
" clip-path="url(#pb4d8816d7a)" style="fill: none; stroke: #ff7f0e; stroke-width: 1.5; stroke-linecap: round"/>
   </g>
   <g id="line2d_14">
    <path d="M 55.374545 306.740194 
L 55.851044 305.84183 
L 56.327543 307.572359 
L 56.804042 307.588539 
L 57.280541 306.236271 
L 57.75704 307.8 
L 58.233539 307.629508 
L 58.710037 307.010122 
L 59.186536 307.8 
L 59.663035 307.249708 
L 60.139534 307.414311 
L 60.616033 307.318213 
L 62.045529 307.8 
L 62.522028 307.231847 
L 62.998527 307.440724 
L 63.475026 307.289784 
L 64.428023 307.488027 
L 64.904522 307.270828 
L 65.381021 307.652053 
L 65.85752 307.510659 
L 66.334019 306.871996 
L 66.810518 307.658619 
L 67.763515 307.08504 
L 68.240014 307.215637 
L 68.716513 306.755398 
L 69.193012 306.801141 
L 69.669511 306.44177 
L 70.14601 306.642872 
L 70.622508 306.678065 
L 71.099007 306.169296 
L 71.575506 306.75672 
L 72.052005 306.405514 
L 72.528504 306.854877 
L 73.005003 304.90782 
L 73.481502 306.403257 
L 73.958 305.600802 
L 74.434499 305.218431 
L 74.910998 305.369738 
L 75.387497 304.435724 
L 75.863996 304.741426 
L 76.340495 303.723721 
L 76.816993 304.367516 
L 77.293492 304.420385 
L 78.24649 302.040849 
L 78.722989 303.054559 
L 79.199488 303.111601 
L 79.675986 301.367215 
L 80.152485 301.470509 
L 80.628984 300.177289 
L 81.105483 299.817842 
L 81.581982 297.773212 
L 82.058481 297.103171 
L 82.53498 293.677629 
L 83.011478 293.038671 
L 83.487977 287.185928 
L 83.964476 279.795649 
L 84.440975 268.77869 
L 84.917474 247.732178 
L 85.393973 218.700351 
L 85.870471 175.511704 
L 86.823469 55.8 
L 87.299968 60.693735 
L 87.776467 106.087019 
L 88.729465 231.458916 
L 89.205963 262.791324 
L 89.682462 279.412177 
L 90.158961 284.980763 
L 90.63546 292.678507 
L 91.111959 294.728451 
L 91.588458 295.753513 
L 92.064956 300.451234 
L 92.541455 299.962119 
L 93.017954 301.800995 
L 93.494453 301.852045 
L 93.970952 303.702021 
L 94.447451 302.667255 
L 94.923949 301.110455 
L 95.400448 303.956232 
L 95.876947 303.48359 
L 96.353446 304.631021 
L 96.829945 303.140321 
L 97.306444 303.288715 
L 98.259441 302.600941 
L 99.212439 302.901555 
L 99.688938 302.843666 
L 100.165437 302.381315 
L 100.641936 301.29412 
L 101.118434 300.52498 
L 101.594933 299.051921 
L 102.071432 298.163944 
L 103.02443 292.392301 
L 103.977428 283.178845 
L 105.406924 268.05865 
L 105.883423 266.28216 
L 106.359922 271.167271 
L 106.836421 273.140744 
L 107.312919 276.094988 
L 107.789418 277.447154 
L 108.265917 277.037747 
L 109.218915 274.764015 
L 109.695414 276.099913 
L 110.171912 278.041076 
L 110.648411 281.087577 
L 111.12491 285.259821 
L 111.601409 288.08194 
L 112.554407 295.412422 
L 113.030906 296.651682 
L 113.507404 298.322452 
L 113.983903 298.919866 
L 114.460402 299.165265 
L 114.936901 300.938685 
L 115.4134 301.220899 
L 115.889899 302.295822 
L 116.366397 302.277612 
L 116.842896 302.908964 
L 117.319395 303.268887 
L 117.795894 303.963889 
L 118.748892 304.45998 
L 119.22539 305.006944 
L 119.701889 305.034226 
L 120.178388 305.501749 
L 120.654887 305.445031 
L 121.131386 304.8061 
L 121.607885 305.318328 
L 122.084384 305.180251 
L 122.560882 304.871982 
L 123.51388 305.725956 
L 123.990379 304.936902 
L 124.466878 305.437722 
L 124.943377 305.468782 
L 125.419875 305.19579 
L 125.896374 305.54408 
L 126.372873 305.423588 
L 126.849372 305.723382 
L 127.325871 305.749704 
L 127.80237 305.892687 
L 128.278869 305.912824 
L 129.231866 305.573351 
L 129.708365 305.647039 
L 130.184864 306.086098 
L 130.661363 305.951754 
L 131.137862 305.491742 
L 131.61436 305.516526 
L 132.090859 305.882677 
L 132.567358 305.624625 
L 133.043857 305.843211 
L 133.520356 305.726868 
L 133.996855 305.932621 
L 134.473353 306.34329 
L 134.949852 305.799972 
L 135.426351 305.806052 
L 135.90285 306.483039 
L 136.379349 306.108029 
L 137.332347 306.652511 
L 137.808845 306.278672 
L 138.285344 306.542875 
L 138.761843 306.546173 
L 139.238342 306.310135 
L 139.714841 306.882873 
L 140.19134 306.401003 
L 140.667838 306.70312 
L 141.144337 306.465432 
L 142.097335 306.487673 
L 142.573834 306.260368 
L 143.050333 306.230242 
L 143.526832 305.888675 
L 144.00333 306.183626 
L 144.956328 305.652666 
L 145.432827 305.892681 
L 146.385825 305.679736 
L 146.862323 305.690605 
L 147.338822 306.153661 
L 147.815321 305.717174 
L 148.29182 305.737681 
L 148.768319 305.944845 
L 149.244818 305.954869 
L 149.721316 306.44834 
L 150.197815 306.409481 
L 150.674314 306.681452 
L 151.150813 306.360637 
L 152.103811 306.738609 
L 152.58031 306.523777 
L 153.056808 306.854284 
L 154.009806 306.809564 
L 154.486305 306.551784 
L 154.962804 306.660809 
L 155.439303 306.46114 
L 155.915801 306.46798 
L 156.3923 306.264749 
L 156.868799 306.526062 
L 157.345298 306.074315 
L 157.821797 305.876425 
L 158.298296 305.97945 
L 159.251293 305.788612 
L 159.727792 305.501317 
L 160.204291 305.500623 
L 161.157289 304.832135 
L 161.633788 304.48328 
L 162.110286 303.869183 
L 162.586785 303.01417 
L 163.063284 302.827666 
L 164.016282 301.321262 
L 164.492781 300.827206 
L 164.969279 299.443678 
L 165.445778 299.222961 
L 165.922277 297.931971 
L 166.398776 297.231407 
L 168.304771 292.613396 
L 169.257769 289.175135 
L 170.687266 283.082163 
L 171.163764 279.457931 
L 173.06976 271.079993 
L 173.546259 270.406429 
L 174.022758 271.063007 
L 174.499256 272.552562 
L 174.975755 274.932549 
L 175.452254 276.703094 
L 175.928753 278.931653 
L 177.358249 286.790505 
L 178.311247 291.011674 
L 178.787746 291.438109 
L 179.740744 294.160048 
L 180.217242 295.400059 
L 180.693741 295.813115 
L 181.646739 297.714629 
L 182.599737 298.756943 
L 183.076236 298.999695 
L 183.552734 299.944498 
L 184.029233 300.513116 
L 184.505732 300.510703 
L 184.982231 301.019658 
L 185.45873 301.290103 
L 185.935229 301.760065 
L 186.411727 301.450726 
L 187.841224 302.610927 
L 188.317723 302.341488 
L 189.270721 302.941853 
L 189.747219 302.92715 
L 190.223718 302.773717 
L 190.700217 303.040775 
L 191.176716 303.504427 
L 191.653215 303.045149 
L 192.129714 302.962888 
L 192.606212 303.236024 
L 193.082711 302.960166 
L 193.55921 303.189835 
L 194.035709 302.920788 
L 194.512208 302.78048 
L 194.988707 303.057096 
L 195.465205 302.632953 
L 195.941704 302.845694 
L 196.894702 302.876975 
L 197.371201 302.745608 
L 197.8477 302.960744 
L 198.800697 302.758673 
L 199.277196 302.384649 
L 199.753695 302.22408 
L 200.230194 302.391635 
L 200.706693 301.939781 
L 201.183192 302.257547 
L 201.65969 302.341948 
L 202.612688 301.836708 
L 203.089187 301.71018 
L 203.565686 301.458256 
L 204.042185 301.58234 
L 204.518684 301.250763 
L 204.995182 300.711035 
L 205.471681 301.217693 
L 205.94818 300.382733 
L 206.424679 300.397805 
L 207.377677 299.455815 
L 207.854175 298.428597 
L 208.330674 298.610972 
L 208.807173 298.059557 
L 209.283672 297.774139 
L 209.760171 297.303848 
L 210.713168 297.595147 
L 211.189667 296.808563 
L 211.666166 297.405531 
L 212.142665 297.599057 
L 212.619164 298.729797 
L 213.095663 298.940031 
L 213.572162 300.09328 
L 215.001658 301.124741 
L 215.478157 301.861284 
L 215.954656 301.897592 
L 216.907653 303.615838 
L 217.384152 303.837783 
L 217.860651 303.689477 
L 219.290148 304.644752 
L 219.766647 305.129257 
L 220.243145 304.885618 
L 220.719644 304.897897 
L 221.196143 305.528828 
L 221.672642 305.688974 
L 222.149141 305.283399 
L 223.102138 305.683727 
L 223.578637 305.33937 
L 224.055136 305.550514 
L 224.531635 305.301645 
L 225.008134 305.914531 
L 225.484633 306.097541 
L 225.961131 305.859528 
L 226.43763 306.046408 
L 226.914129 306.689869 
L 227.390628 306.212278 
L 227.867127 306.16825 
L 228.343626 306.615064 
L 228.820125 306.117963 
L 229.296623 306.201341 
L 229.773122 306.049162 
L 230.249621 306.773016 
L 230.72612 306.502178 
L 231.202619 306.869325 
L 231.679118 306.16361 
L 232.155616 307.10266 
L 232.632115 306.387251 
L 233.108614 306.511445 
L 233.585113 306.780812 
L 234.061612 306.036963 
L 234.538111 306.913594 
L 235.01461 306.739785 
L 235.491108 307.179394 
L 235.967607 306.855418 
L 236.444106 307.317758 
L 236.920605 306.816757 
L 237.397104 307.468978 
L 237.873603 307.462326 
L 238.350101 306.779439 
L 238.8266 306.403074 
L 239.303099 307.447365 
L 239.779598 306.723919 
L 240.256097 307.251943 
L 240.732596 307.425798 
L 241.209094 306.268098 
L 241.685593 306.227903 
L 242.162092 307.396565 
L 242.638591 307.384894 
L 243.11509 306.961901 
L 243.591589 305.899293 
L 244.068088 306.949353 
L 245.021085 307.36052 
L 245.497584 307.125346 
L 245.974083 307.339053 
L 246.450582 306.618166 
L 246.927081 306.831358 
L 247.403579 307.308644 
L 247.880078 307.546221 
L 248.356577 307.289256 
L 248.833076 307.280544 
L 249.309575 306.739534 
L 249.786074 307.259981 
L 250.262572 306.963825 
L 250.739071 306.953173 
L 251.21557 307.8 
L 251.692069 306.62279 
L 252.168568 307.193496 
L 252.645067 306.879233 
L 253.121566 306.224727 
L 253.598064 305.886252 
L 254.551062 307.129603 
L 255.50406 307.104795 
L 255.980559 305.685002 
L 256.457057 307.435036 
L 256.933556 305.620279 
L 257.410055 304.772149 
L 257.886554 306.6291 
L 258.839552 307.386698 
L 259.316051 306.958827 
L 260.269048 306.917588 
L 260.745547 307.8 
L 265.034037 307.8 
L 265.510535 307.225469 
L 265.987034 307.8 
L 269.799025 307.8 
L 270.275524 306.390002 
L 270.752023 306.390724 
L 271.228522 307.8 
L 271.70502 307.8 
L 272.181519 305.499078 
L 272.658018 307.8 
L 273.134517 304.427889 
L 274.087515 307.8 
L 274.564014 304.239051 
L 275.040512 307.8 
L 275.517011 305.009233 
L 275.99351 307.8 
L 276.946508 307.8 
L 277.423007 305.740443 
L 277.899505 307.8 
L 278.376004 305.615622 
L 278.852503 307.8 
L 279.329002 306.669066 
L 279.805501 303.127841 
L 280.282 307.8 
L 282.664494 307.8 
L 283.140993 304.896258 
L 283.617492 307.8 
L 284.09399 306.165122 
L 284.570489 307.8 
L 298.865455 307.8 
L 298.865455 307.8 
" clip-path="url(#pb4d8816d7a)" style="fill: none; stroke: #1f77b4; stroke-width: 1.5; stroke-linecap: round"/>
   </g>
   <g id="patch_3">
    <path d="M 43.2 320.4 
L 43.2 43.2 
" style="fill: none; stroke: #ffffff; stroke-width: 1.25; stroke-linejoin: miter; stroke-linecap: square"/>
   </g>
   <g id="patch_4">
    <path d="M 311.04 320.4 
L 311.04 43.2 
" style="fill: none; stroke: #ffffff; stroke-width: 1.25; stroke-linejoin: miter; stroke-linecap: square"/>
   </g>
   <g id="patch_5">
    <path d="M 43.2 320.4 
L 311.04 320.4 
" style="fill: none; stroke: #ffffff; stroke-width: 1.25; stroke-linejoin: miter; stroke-linecap: square"/>
   </g>
   <g id="patch_6">
    <path d="M 43.2 43.2 
L 311.04 43.2 
" style="fill: none; stroke: #ffffff; stroke-width: 1.25; stroke-linejoin: miter; stroke-linecap: square"/>
   </g>
   <g id="legend_1">
    <g id="patch_7">
     <path d="M 246.743281 83.119687 
L 303.34 83.119687 
Q 305.54 83.119687 305.54 80.919687 
L 305.54 50.9 
Q 305.54 48.7 303.34 48.7 
L 246.743281 48.7 
Q 244.543281 48.7 244.543281 50.9 
L 244.543281 80.919687 
Q 244.543281 83.119687 246.743281 83.119687 
z
" style="fill: #eaeaf2; opacity: 0.8; stroke: #cccccc; stroke-linejoin: miter"/>
    </g>
    <g id="line2d_15">
     <path d="M 248.943281 57.123594 
L 259.943281 57.123594 
L 270.943281 57.123594 
" style="fill: none; stroke: #ff7f0e; stroke-width: 1.5; stroke-linecap: round"/>
    </g>
    <g id="text_15">
     <!-- raw -->
     <g style="fill: #262626" transform="translate(279.743281 60.973594) scale(0.11 -0.11)">
      <defs>
       <path id="ArialMT-77" d="M 1034 0 
L 19 3319 
L 600 3319 
L 1128 1403 
L 1325 691 
Q 1338 744 1497 1375 
L 2025 3319 
L 2603 3319 
L 3100 1394 
L 3266 759 
L 3456 1400 
L 4025 3319 
L 4572 3319 
L 3534 0 
L 2950 0 
L 2422 1988 
L 2294 2553 
L 1622 0 
L 1034 0 
z
" transform="scale(0.015625)"/>
      </defs>
      <use xlink:href="#ArialMT-72"/>
      <use xlink:href="#ArialMT-61" x="33.300781"/>
      <use xlink:href="#ArialMT-77" x="88.916016"/>
     </g>
    </g>
    <g id="line2d_16">
     <path d="M 248.943281 72.683437 
L 259.943281 72.683437 
L 270.943281 72.683437 
" style="fill: none; stroke: #1f77b4; stroke-width: 1.5; stroke-linecap: round"/>
    </g>
    <g id="text_16">
     <!-- dark -->
     <g style="fill: #262626" transform="translate(279.743281 76.533437) scale(0.11 -0.11)">
      <defs>
       <path id="ArialMT-64" d="M 2575 0 
L 2575 419 
Q 2259 -75 1647 -75 
Q 1250 -75 917 144 
Q 584 363 401 755 
Q 219 1147 219 1656 
Q 219 2153 384 2558 
Q 550 2963 881 3178 
Q 1213 3394 1622 3394 
Q 1922 3394 2156 3267 
Q 2391 3141 2538 2938 
L 2538 4581 
L 3097 4581 
L 3097 0 
L 2575 0 
z
M 797 1656 
Q 797 1019 1065 703 
Q 1334 388 1700 388 
Q 2069 388 2326 689 
Q 2584 991 2584 1609 
Q 2584 2291 2321 2609 
Q 2059 2928 1675 2928 
Q 1300 2928 1048 2622 
Q 797 2316 797 1656 
z
" transform="scale(0.015625)"/>
       <path id="ArialMT-6b" d="M 425 0 
L 425 4581 
L 988 4581 
L 988 1969 
L 2319 3319 
L 3047 3319 
L 1778 2088 
L 3175 0 
L 2481 0 
L 1384 1697 
L 988 1316 
L 988 0 
L 425 0 
z
" transform="scale(0.015625)"/>
      </defs>
      <use xlink:href="#ArialMT-64"/>
      <use xlink:href="#ArialMT-61" x="55.615234"/>
      <use xlink:href="#ArialMT-72" x="111.230469"/>
      <use xlink:href="#ArialMT-6b" x="144.53125"/>
     </g>
    </g>
   </g>
  </g>
 </g>
 <defs>
  <clipPath id="pb4d8816d7a">
   <rect x="43.2" y="43.2" width="267.84" height="277.2"/>
  </clipPath>
 </defs>
</svg>
