<?xml version="1.0" encoding="utf-8" standalone="no"?>
<!DOCTYPE svg PUBLIC "-//W3C//DTD SVG 1.1//EN"
  "http://www.w3.org/Graphics/SVG/1.1/DTD/svg11.dtd">
<svg xmlns:xlink="http://www.w3.org/1999/xlink" width="432pt" height="432pt" viewBox="0 0 432 432" xmlns="http://www.w3.org/2000/svg" version="1.1">
 <metadata>
  <rdf:RDF xmlns:dc="http://purl.org/dc/elements/1.1/" xmlns:cc="http://creativecommons.org/ns#" xmlns:rdf="http://www.w3.org/1999/02/22-rdf-syntax-ns#">
   <cc:Work>
    <dc:type rdf:resource="http://purl.org/dc/dcmitype/StillImage"/>
    <dc:date>2024-09-11T14:24:22.812487</dc:date>
    <dc:format>image/svg+xml</dc:format>
    <dc:creator>
     <cc:Agent>
      <dc:title>Matplotlib v3.9.1, https://matplotlib.org/</dc:title>
     </cc:Agent>
    </dc:creator>
   </cc:Work>
  </rdf:RDF>
 </metadata>
 <defs>
  <style type="text/css">*{stroke-linejoin: round; stroke-linecap: butt}</style>
 </defs>
 <g id="figure_1">
  <g id="patch_1">
   <path d="M 0 432 
L 432 432 
L 432 0 
L 0 0 
z
" style="fill: #ffffff"/>
  </g>
  <g id="axes_1">
   <g id="patch_2">
    <path d="M 387.72 218.16 
C 387.72 196.319058 383.417811 174.690491 375.059644 154.512092 
C 366.701477 134.333692 354.449878 115.997879 339.006 100.554 
C 323.562121 85.110122 305.226308 72.858523 285.047908 64.500356 
C 264.869509 56.142189 243.240942 51.84 221.4 51.84 
C 199.559058 51.84 177.930491 56.142189 157.752092 64.500356 
C 137.573692 72.858523 119.237879 85.110122 103.794 100.554 
C 88.350122 115.997879 76.098523 134.333692 67.740356 154.512092 
C 59.382189 174.690491 55.08 196.319058 55.08 218.16 
C 55.08 240.000942 59.382189 261.629509 67.740356 281.807908 
C 76.098523 301.986308 88.350122 320.322121 103.794 335.766 
C 119.237879 351.209878 137.573692 363.461477 157.752092 371.819644 
C 177.930491 380.177811 199.559058 384.48 221.4 384.48 
C 243.240942 384.48 264.869509 380.177811 285.047908 371.819644 
C 305.226308 363.461477 323.562121 351.209878 339.006 335.766 
C 354.449878 320.322121 366.701477 301.986308 375.059644 281.807908 
C 383.417811 261.629509 387.72 240.000942 387.72 218.16 
M 221.4 218.16 
C 221.4 218.16 221.4 218.16 221.4 218.16 
C 221.4 218.16 221.4 218.16 221.4 218.16 
C 221.4 218.16 221.4 218.16 221.4 218.16 
C 221.4 218.16 221.4 218.16 221.4 218.16 
C 221.4 218.16 221.4 218.16 221.4 218.16 
C 221.4 218.16 221.4 218.16 221.4 218.16 
C 221.4 218.16 221.4 218.16 221.4 218.16 
C 221.4 218.16 221.4 218.16 221.4 218.16 
C 221.4 218.16 221.4 218.16 221.4 218.16 
C 221.4 218.16 221.4 218.16 221.4 218.16 
C 221.4 218.16 221.4 218.16 221.4 218.16 
C 221.4 218.16 221.4 218.16 221.4 218.16 
C 221.4 218.16 221.4 218.16 221.4 218.16 
C 221.4 218.16 221.4 218.16 221.4 218.16 
C 221.4 218.16 221.4 218.16 221.4 218.16 
C 221.4 218.16 221.4 218.16 221.4 218.16 
z
" style="fill: #eaeaf2"/>
   </g>
   <g id="matplotlib.axis_1">
    <g id="xtick_1">
     <g id="line2d_1">
      <path d="M 221.4 218.16 
L 221.4 51.84 
" clip-path="url(#p3c3bc285a3)" style="fill: none; stroke: #ffffff; stroke-linecap: round"/>
     </g>
     <g id="text_1">
      <!-- 0° -->
      <g style="fill: #262626" transform="translate(216.142344 38.183672) scale(0.11 -0.11)">
       <defs>
        <path id="ArialMT-30" d="M 266 2259 
Q 266 3072 433 3567 
Q 600 4063 929 4331 
Q 1259 4600 1759 4600 
Q 2128 4600 2406 4451 
Q 2684 4303 2865 4023 
Q 3047 3744 3150 3342 
Q 3253 2941 3253 2259 
Q 3253 1453 3087 958 
Q 2922 463 2592 192 
Q 2263 -78 1759 -78 
Q 1097 -78 719 397 
Q 266 969 266 2259 
z
M 844 2259 
Q 844 1131 1108 757 
Q 1372 384 1759 384 
Q 2147 384 2411 759 
Q 2675 1134 2675 2259 
Q 2675 3391 2411 3762 
Q 2147 4134 1753 4134 
Q 1366 4134 1134 3806 
Q 844 3388 844 2259 
z
" transform="scale(0.015625)"/>
        <path id="ArialMT-b0" d="M 400 3794 
Q 400 4153 654 4406 
Q 909 4659 1266 4659 
Q 1628 4659 1881 4406 
Q 2134 4153 2134 3794 
Q 2134 3434 1879 3179 
Q 1625 2925 1266 2925 
Q 909 2925 654 3178 
Q 400 3431 400 3794 
z
M 741 3794 
Q 741 3575 895 3420 
Q 1050 3266 1269 3266 
Q 1484 3266 1639 3420 
Q 1794 3575 1794 3794 
Q 1794 4013 1639 4167 
Q 1484 4322 1269 4322 
Q 1050 4322 895 4167 
Q 741 4013 741 3794 
z
" transform="scale(0.015625)"/>
       </defs>
       <use xlink:href="#ArialMT-30"/>
       <use xlink:href="#ArialMT-b0" x="55.615234"/>
      </g>
     </g>
    </g>
    <g id="xtick_2">
     <g id="line2d_2">
      <path d="M 221.4 218.16 
L 339.006 100.554 
" clip-path="url(#p3c3bc285a3)" style="fill: none; stroke: #ffffff; stroke-linecap: round"/>
     </g>
     <g id="text_2">
      <!-- 45° -->
      <g style="fill: #262626" transform="translate(342.35709 91.73041) scale(0.11 -0.11)">
       <defs>
        <path id="ArialMT-34" d="M 2069 0 
L 2069 1097 
L 81 1097 
L 81 1613 
L 2172 4581 
L 2631 4581 
L 2631 1613 
L 3250 1613 
L 3250 1097 
L 2631 1097 
L 2631 0 
L 2069 0 
z
M 2069 1613 
L 2069 3678 
L 634 1613 
L 2069 1613 
z
" transform="scale(0.015625)"/>
        <path id="ArialMT-35" d="M 266 1200 
L 856 1250 
Q 922 819 1161 601 
Q 1400 384 1738 384 
Q 2144 384 2425 690 
Q 2706 997 2706 1503 
Q 2706 1984 2436 2262 
Q 2166 2541 1728 2541 
Q 1456 2541 1237 2417 
Q 1019 2294 894 2097 
L 366 2166 
L 809 4519 
L 3088 4519 
L 3088 3981 
L 1259 3981 
L 1013 2750 
Q 1425 3038 1878 3038 
Q 2478 3038 2890 2622 
Q 3303 2206 3303 1553 
Q 3303 931 2941 478 
Q 2500 -78 1738 -78 
Q 1113 -78 717 272 
Q 322 622 266 1200 
z
" transform="scale(0.015625)"/>
       </defs>
       <use xlink:href="#ArialMT-34"/>
       <use xlink:href="#ArialMT-35" x="55.615234"/>
       <use xlink:href="#ArialMT-b0" x="111.230469"/>
      </g>
     </g>
    </g>
    <g id="xtick_3">
     <g id="line2d_3">
      <path d="M 221.4 218.16 
L 387.72 218.16 
" clip-path="url(#p3c3bc285a3)" style="fill: none; stroke: #ffffff; stroke-linecap: round"/>
     </g>
     <g id="text_3">
      <!-- 90° -->
      <g style="fill: #262626" transform="translate(395.903828 221.003672) scale(0.11 -0.11)">
       <defs>
        <path id="ArialMT-39" d="M 350 1059 
L 891 1109 
Q 959 728 1153 556 
Q 1347 384 1650 384 
Q 1909 384 2104 503 
Q 2300 622 2425 820 
Q 2550 1019 2634 1356 
Q 2719 1694 2719 2044 
Q 2719 2081 2716 2156 
Q 2547 1888 2255 1720 
Q 1963 1553 1622 1553 
Q 1053 1553 659 1965 
Q 266 2378 266 3053 
Q 266 3750 677 4175 
Q 1088 4600 1706 4600 
Q 2153 4600 2523 4359 
Q 2894 4119 3086 3673 
Q 3278 3228 3278 2384 
Q 3278 1506 3087 986 
Q 2897 466 2520 194 
Q 2144 -78 1638 -78 
Q 1100 -78 759 220 
Q 419 519 350 1059 
z
M 2653 3081 
Q 2653 3566 2395 3850 
Q 2138 4134 1775 4134 
Q 1400 4134 1122 3828 
Q 844 3522 844 3034 
Q 844 2597 1108 2323 
Q 1372 2050 1759 2050 
Q 2150 2050 2401 2323 
Q 2653 2597 2653 3081 
z
" transform="scale(0.015625)"/>
       </defs>
       <use xlink:href="#ArialMT-39"/>
       <use xlink:href="#ArialMT-30" x="55.615234"/>
       <use xlink:href="#ArialMT-b0" x="111.230469"/>
      </g>
     </g>
    </g>
    <g id="xtick_4">
     <g id="line2d_4">
      <path d="M 221.4 218.16 
L 339.006 335.766 
" clip-path="url(#p3c3bc285a3)" style="fill: none; stroke: #ffffff; stroke-linecap: round"/>
     </g>
     <g id="text_4">
      <!-- 135° -->
      <g style="fill: #262626" transform="translate(339.298574 350.276934) scale(0.11 -0.11)">
       <defs>
        <path id="ArialMT-31" d="M 2384 0 
L 1822 0 
L 1822 3584 
Q 1619 3391 1289 3197 
Q 959 3003 697 2906 
L 697 3450 
Q 1169 3672 1522 3987 
Q 1875 4303 2022 4600 
L 2384 4600 
L 2384 0 
z
" transform="scale(0.015625)"/>
        <path id="ArialMT-33" d="M 269 1209 
L 831 1284 
Q 928 806 1161 595 
Q 1394 384 1728 384 
Q 2125 384 2398 659 
Q 2672 934 2672 1341 
Q 2672 1728 2419 1979 
Q 2166 2231 1775 2231 
Q 1616 2231 1378 2169 
L 1441 2663 
Q 1497 2656 1531 2656 
Q 1891 2656 2178 2843 
Q 2466 3031 2466 3422 
Q 2466 3731 2256 3934 
Q 2047 4138 1716 4138 
Q 1388 4138 1169 3931 
Q 950 3725 888 3313 
L 325 3413 
Q 428 3978 793 4289 
Q 1159 4600 1703 4600 
Q 2078 4600 2393 4439 
Q 2709 4278 2876 4000 
Q 3044 3722 3044 3409 
Q 3044 3113 2884 2869 
Q 2725 2625 2413 2481 
Q 2819 2388 3044 2092 
Q 3269 1797 3269 1353 
Q 3269 753 2831 336 
Q 2394 -81 1725 -81 
Q 1122 -81 723 278 
Q 325 638 269 1209 
z
" transform="scale(0.015625)"/>
       </defs>
       <use xlink:href="#ArialMT-31"/>
       <use xlink:href="#ArialMT-33" x="55.615234"/>
       <use xlink:href="#ArialMT-35" x="111.230469"/>
       <use xlink:href="#ArialMT-b0" x="166.845703"/>
      </g>
     </g>
    </g>
    <g id="xtick_5">
     <g id="line2d_5">
      <path d="M 221.4 218.16 
L 221.4 384.48 
" clip-path="url(#p3c3bc285a3)" style="fill: none; stroke: #ffffff; stroke-linecap: round"/>
     </g>
     <g id="text_5">
      <!-- 180° -->
      <g style="fill: #262626" transform="translate(210.025312 403.823672) scale(0.11 -0.11)">
       <defs>
        <path id="ArialMT-38" d="M 1131 2484 
Q 781 2613 612 2850 
Q 444 3088 444 3419 
Q 444 3919 803 4259 
Q 1163 4600 1759 4600 
Q 2359 4600 2725 4251 
Q 3091 3903 3091 3403 
Q 3091 3084 2923 2848 
Q 2756 2613 2416 2484 
Q 2838 2347 3058 2040 
Q 3278 1734 3278 1309 
Q 3278 722 2862 322 
Q 2447 -78 1769 -78 
Q 1091 -78 675 323 
Q 259 725 259 1325 
Q 259 1772 486 2073 
Q 713 2375 1131 2484 
z
M 1019 3438 
Q 1019 3113 1228 2906 
Q 1438 2700 1772 2700 
Q 2097 2700 2305 2904 
Q 2513 3109 2513 3406 
Q 2513 3716 2298 3927 
Q 2084 4138 1766 4138 
Q 1444 4138 1231 3931 
Q 1019 3725 1019 3438 
z
M 838 1322 
Q 838 1081 952 856 
Q 1066 631 1291 507 
Q 1516 384 1775 384 
Q 2178 384 2440 643 
Q 2703 903 2703 1303 
Q 2703 1709 2433 1975 
Q 2163 2241 1756 2241 
Q 1359 2241 1098 1978 
Q 838 1716 838 1322 
z
" transform="scale(0.015625)"/>
       </defs>
       <use xlink:href="#ArialMT-31"/>
       <use xlink:href="#ArialMT-38" x="55.615234"/>
       <use xlink:href="#ArialMT-30" x="111.230469"/>
       <use xlink:href="#ArialMT-b0" x="166.845703"/>
      </g>
     </g>
    </g>
    <g id="xtick_6">
     <g id="line2d_6">
      <path d="M 221.4 218.16 
L 103.794 335.766 
" clip-path="url(#p3c3bc285a3)" style="fill: none; stroke: #ffffff; stroke-linecap: round"/>
     </g>
     <g id="text_6">
      <!-- 225° -->
      <g style="fill: #262626" transform="translate(80.752051 350.276934) scale(0.11 -0.11)">
       <defs>
        <path id="ArialMT-32" d="M 3222 541 
L 3222 0 
L 194 0 
Q 188 203 259 391 
Q 375 700 629 1000 
Q 884 1300 1366 1694 
Q 2113 2306 2375 2664 
Q 2638 3022 2638 3341 
Q 2638 3675 2398 3904 
Q 2159 4134 1775 4134 
Q 1369 4134 1125 3890 
Q 881 3647 878 3216 
L 300 3275 
Q 359 3922 746 4261 
Q 1134 4600 1788 4600 
Q 2447 4600 2831 4234 
Q 3216 3869 3216 3328 
Q 3216 3053 3103 2787 
Q 2991 2522 2730 2228 
Q 2469 1934 1863 1422 
Q 1356 997 1212 845 
Q 1069 694 975 541 
L 3222 541 
z
" transform="scale(0.015625)"/>
       </defs>
       <use xlink:href="#ArialMT-32"/>
       <use xlink:href="#ArialMT-32" x="55.615234"/>
       <use xlink:href="#ArialMT-35" x="111.230469"/>
       <use xlink:href="#ArialMT-b0" x="166.845703"/>
      </g>
     </g>
    </g>
    <g id="xtick_7">
     <g id="line2d_7">
      <path d="M 221.4 218.16 
L 55.08 218.16 
" clip-path="url(#p3c3bc285a3)" style="fill: none; stroke: #ffffff; stroke-linecap: round"/>
     </g>
     <g id="text_7">
      <!-- 270° -->
      <g style="fill: #262626" transform="translate(27.205312 221.003672) scale(0.11 -0.11)">
       <defs>
        <path id="ArialMT-37" d="M 303 3981 
L 303 4522 
L 3269 4522 
L 3269 4084 
Q 2831 3619 2401 2847 
Q 1972 2075 1738 1259 
Q 1569 684 1522 0 
L 944 0 
Q 953 541 1156 1306 
Q 1359 2072 1739 2783 
Q 2119 3494 2547 3981 
L 303 3981 
z
" transform="scale(0.015625)"/>
       </defs>
       <use xlink:href="#ArialMT-32"/>
       <use xlink:href="#ArialMT-37" x="55.615234"/>
       <use xlink:href="#ArialMT-30" x="111.230469"/>
       <use xlink:href="#ArialMT-b0" x="166.845703"/>
      </g>
     </g>
    </g>
    <g id="xtick_8">
     <g id="line2d_8">
      <path d="M 221.4 218.16 
L 103.794 100.554 
" clip-path="url(#p3c3bc285a3)" style="fill: none; stroke: #ffffff; stroke-linecap: round"/>
     </g>
     <g id="text_8">
      <!-- 315° -->
      <g style="fill: #262626" transform="translate(80.752051 91.73041) scale(0.11 -0.11)">
       <use xlink:href="#ArialMT-33"/>
       <use xlink:href="#ArialMT-31" x="55.615234"/>
       <use xlink:href="#ArialMT-35" x="111.230469"/>
       <use xlink:href="#ArialMT-b0" x="166.845703"/>
      </g>
     </g>
    </g>
   </g>
   <g id="matplotlib.axis_2">
    <g id="ytick_1">
     <g id="line2d_9">
      <path d="M 221.4 218.16 
C 221.4 218.16 221.4 218.16 221.4 218.16 
C 221.4 218.16 221.4 218.16 221.4 218.16 
C 221.4 218.16 221.4 218.16 221.4 218.16 
C 221.4 218.16 221.4 218.16 221.4 218.16 
C 221.4 218.16 221.4 218.16 221.4 218.16 
C 221.4 218.16 221.4 218.16 221.4 218.16 
C 221.4 218.16 221.4 218.16 221.4 218.16 
C 221.4 218.16 221.4 218.16 221.4 218.16 
C 221.4 218.16 221.4 218.16 221.4 218.16 
C 221.4 218.16 221.4 218.16 221.4 218.16 
C 221.4 218.16 221.4 218.16 221.4 218.16 
C 221.4 218.16 221.4 218.16 221.4 218.16 
C 221.4 218.16 221.4 218.16 221.4 218.16 
C 221.4 218.16 221.4 218.16 221.4 218.16 
C 221.4 218.16 221.4 218.16 221.4 218.16 
C 221.4 218.16 221.4 218.16 221.4 218.16 
" clip-path="url(#p3c3bc285a3)" style="fill: none; stroke: #ffffff; stroke-linecap: round"/>
     </g>
     <g id="text_9">
      <!-- 0.0 -->
      <g style="fill: #dc143c" transform="translate(221.4 215.97375) scale(0.11 -0.11)">
       <defs>
        <path id="ArialMT-2e" d="M 581 0 
L 581 641 
L 1222 641 
L 1222 0 
L 581 0 
z
" transform="scale(0.015625)"/>
       </defs>
       <use xlink:href="#ArialMT-30"/>
       <use xlink:href="#ArialMT-2e" x="55.615234"/>
       <use xlink:href="#ArialMT-30" x="83.398438"/>
      </g>
     </g>
    </g>
    <g id="ytick_2">
     <g id="line2d_10">
      <path d="M 221.4 204.3 
C 223.220079 204.3 225.022459 204.658516 226.703992 205.35503 
C 228.385526 206.051544 229.91351 207.07251 231.2005 208.3595 
C 232.48749 209.64649 233.508456 211.174474 234.20497 212.856008 
C 234.901484 214.537541 235.26 216.339921 235.26 218.16 
C 235.26 219.980079 234.901484 221.782459 234.20497 223.463992 
C 233.508456 225.145526 232.48749 226.67351 231.2005 227.9605 
C 229.91351 229.24749 228.385526 230.268456 226.703992 230.96497 
C 225.022459 231.661484 223.220079 232.02 221.4 232.02 
C 219.579921 232.02 217.777541 231.661484 216.096008 230.96497 
C 214.414474 230.268456 212.88649 229.24749 211.5995 227.9605 
C 210.31251 226.67351 209.291544 225.145526 208.59503 223.463992 
C 207.898516 221.782459 207.54 219.980079 207.54 218.16 
C 207.54 216.339921 207.898516 214.537541 208.59503 212.856008 
C 209.291544 211.174474 210.31251 209.64649 211.5995 208.3595 
C 212.88649 207.07251 214.414474 206.051544 216.096008 205.35503 
C 217.777541 204.658516 219.579921 204.3 221.4 204.3 
" clip-path="url(#p3c3bc285a3)" style="fill: none; stroke: #ffffff; stroke-linecap: round"/>
     </g>
     <g id="text_10">
      <!-- 0.1 -->
      <g style="fill: #dc143c" transform="translate(226.703992 203.16878) scale(0.11 -0.11)">
       <use xlink:href="#ArialMT-30"/>
       <use xlink:href="#ArialMT-2e" x="55.615234"/>
       <use xlink:href="#ArialMT-31" x="83.398438"/>
      </g>
     </g>
    </g>
    <g id="ytick_3">
     <g id="line2d_11">
      <path d="M 221.4 190.44 
C 225.040157 190.44 228.644918 191.157032 232.007985 192.550059 
C 235.371051 193.943087 238.42702 195.98502 241.001 198.559 
C 243.57498 201.13298 245.616913 204.188949 247.009941 207.552015 
C 248.402968 210.915082 249.12 214.519843 249.12 218.16 
C 249.12 221.800157 248.402968 225.404918 247.009941 228.767985 
C 245.616913 232.131051 243.57498 235.18702 241.001 237.761 
C 238.42702 240.33498 235.371051 242.376913 232.007985 243.769941 
C 228.644918 245.162968 225.040157 245.88 221.4 245.88 
C 217.759843 245.88 214.155082 245.162968 210.792015 243.769941 
C 207.428949 242.376913 204.37298 240.33498 201.799 237.761 
C 199.22502 235.18702 197.183087 232.131051 195.790059 228.767985 
C 194.397032 225.404918 193.68 221.800157 193.68 218.16 
C 193.68 214.519843 194.397032 210.915082 195.790059 207.552015 
C 197.183087 204.188949 199.22502 201.13298 201.799 198.559 
C 204.37298 195.98502 207.428949 193.943087 210.792015 192.550059 
C 214.155082 191.157032 217.759843 190.44 221.4 190.44 
" clip-path="url(#p3c3bc285a3)" style="fill: none; stroke: #ffffff; stroke-linecap: round"/>
     </g>
     <g id="text_11">
      <!-- 0.2 -->
      <g style="fill: #dc143c" transform="translate(232.007985 190.363809) scale(0.11 -0.11)">
       <use xlink:href="#ArialMT-30"/>
       <use xlink:href="#ArialMT-2e" x="55.615234"/>
       <use xlink:href="#ArialMT-32" x="83.398438"/>
      </g>
     </g>
    </g>
    <g id="ytick_4">
     <g id="line2d_12">
      <path d="M 221.4 176.58 
C 226.860236 176.58 232.267377 177.655547 237.311977 179.745089 
C 242.356577 181.834631 246.94053 184.89753 250.8015 188.7585 
C 254.66247 192.61947 257.725369 197.203423 259.814911 202.248023 
C 261.904453 207.292623 262.98 212.699764 262.98 218.16 
C 262.98 223.620236 261.904453 229.027377 259.814911 234.071977 
C 257.725369 239.116577 254.66247 243.70053 250.8015 247.5615 
C 246.94053 251.42247 242.356577 254.485369 237.311977 256.574911 
C 232.267377 258.664453 226.860236 259.74 221.4 259.74 
C 215.939764 259.74 210.532623 258.664453 205.488023 256.574911 
C 200.443423 254.485369 195.85947 251.42247 191.9985 247.5615 
C 188.13753 243.70053 185.074631 239.116577 182.985089 234.071977 
C 180.895547 229.027377 179.82 223.620236 179.82 218.16 
C 179.82 212.699764 180.895547 207.292623 182.985089 202.248023 
C 185.074631 197.203423 188.13753 192.61947 191.9985 188.7585 
C 195.85947 184.89753 200.443423 181.834631 205.488023 179.745089 
C 210.532623 177.655547 215.939764 176.58 221.4 176.58 
" clip-path="url(#p3c3bc285a3)" style="fill: none; stroke: #ffffff; stroke-linecap: round"/>
     </g>
     <g id="text_12">
      <!-- 0.3 -->
      <g style="fill: #dc143c" transform="translate(237.311977 177.558839) scale(0.11 -0.11)">
       <use xlink:href="#ArialMT-30"/>
       <use xlink:href="#ArialMT-2e" x="55.615234"/>
       <use xlink:href="#ArialMT-33" x="83.398438"/>
      </g>
     </g>
    </g>
    <g id="ytick_5">
     <g id="line2d_13">
      <path d="M 221.4 162.72 
C 228.680314 162.72 235.889836 164.154063 242.615969 166.940119 
C 249.342103 169.726174 255.45404 173.810041 260.602 178.958 
C 265.749959 184.10596 269.833826 190.217897 272.619881 196.944031 
C 275.405937 203.670164 276.84 210.879686 276.84 218.16 
C 276.84 225.440314 275.405937 232.649836 272.619881 239.375969 
C 269.833826 246.102103 265.749959 252.21404 260.602 257.362 
C 255.45404 262.509959 249.342103 266.593826 242.615969 269.379881 
C 235.889836 272.165937 228.680314 273.6 221.4 273.6 
C 214.119686 273.6 206.910164 272.165937 200.184031 269.379881 
C 193.457897 266.593826 187.34596 262.509959 182.198 257.362 
C 177.050041 252.21404 172.966174 246.102103 170.180119 239.375969 
C 167.394063 232.649836 165.96 225.440314 165.96 218.16 
C 165.96 210.879686 167.394063 203.670164 170.180119 196.944031 
C 172.966174 190.217897 177.050041 184.10596 182.198 178.958 
C 187.34596 173.810041 193.457897 169.726174 200.184031 166.940119 
C 206.910164 164.154063 214.119686 162.72 221.4 162.72 
" clip-path="url(#p3c3bc285a3)" style="fill: none; stroke: #ffffff; stroke-linecap: round"/>
     </g>
     <g id="text_13">
      <!-- 0.4 -->
      <g style="fill: #dc143c" transform="translate(242.615969 164.753869) scale(0.11 -0.11)">
       <use xlink:href="#ArialMT-30"/>
       <use xlink:href="#ArialMT-2e" x="55.615234"/>
       <use xlink:href="#ArialMT-34" x="83.398438"/>
      </g>
     </g>
    </g>
    <g id="ytick_6">
     <g id="line2d_14">
      <path d="M 221.4 148.86 
C 230.500393 148.86 239.512295 150.652579 247.919962 154.135148 
C 256.327628 157.617718 263.967551 162.722551 270.4025 169.1575 
C 276.837449 175.592449 281.942282 183.232372 285.424852 191.640038 
C 288.907421 200.047705 290.7 209.059607 290.7 218.16 
C 290.7 227.260393 288.907421 236.272295 285.424852 244.679962 
C 281.942282 253.087628 276.837449 260.727551 270.4025 267.1625 
C 263.967551 273.597449 256.327628 278.702282 247.919962 282.184852 
C 239.512295 285.667421 230.500393 287.46 221.4 287.46 
C 212.299607 287.46 203.287705 285.667421 194.880038 282.184852 
C 186.472372 278.702282 178.832449 273.597449 172.3975 267.1625 
C 165.962551 260.727551 160.857718 253.087628 157.375148 244.679962 
C 153.892579 236.272295 152.1 227.260393 152.1 218.16 
C 152.1 209.059607 153.892579 200.047705 157.375148 191.640038 
C 160.857718 183.232372 165.962551 175.592449 172.3975 169.1575 
C 178.832449 162.722551 186.472372 157.617718 194.880038 154.135148 
C 203.287705 150.652579 212.299607 148.86 221.4 148.86 
" clip-path="url(#p3c3bc285a3)" style="fill: none; stroke: #ffffff; stroke-linecap: round"/>
     </g>
     <g id="text_14">
      <!-- 0.5 -->
      <g style="fill: #dc143c" transform="translate(247.919962 151.948898) scale(0.11 -0.11)">
       <use xlink:href="#ArialMT-30"/>
       <use xlink:href="#ArialMT-2e" x="55.615234"/>
       <use xlink:href="#ArialMT-35" x="83.398438"/>
      </g>
     </g>
    </g>
    <g id="ytick_7">
     <g id="line2d_15">
      <path d="M 221.4 135 
C 232.320471 135 243.134754 137.151095 253.223954 141.330178 
C 263.313154 145.509261 272.481061 151.635061 280.203 159.357 
C 287.924939 167.078939 294.050739 176.246846 298.229822 186.336046 
C 302.408905 196.425246 304.56 207.239529 304.56 218.16 
C 304.56 229.080471 302.408905 239.894754 298.229822 249.983954 
C 294.050739 260.073154 287.924939 269.241061 280.203 276.963 
C 272.481061 284.684939 263.313154 290.810739 253.223954 294.989822 
C 243.134754 299.168905 232.320471 301.32 221.4 301.32 
C 210.479529 301.32 199.665246 299.168905 189.576046 294.989822 
C 179.486846 290.810739 170.318939 284.684939 162.597 276.963 
C 154.875061 269.241061 148.749261 260.073154 144.570178 249.983954 
C 140.391095 239.894754 138.24 229.080471 138.24 218.16 
C 138.24 207.239529 140.391095 196.425246 144.570178 186.336046 
C 148.749261 176.246846 154.875061 167.078939 162.597 159.357 
C 170.318939 151.635061 179.486846 145.509261 189.576046 141.330178 
C 199.665246 137.151095 210.479529 135 221.4 135 
" clip-path="url(#p3c3bc285a3)" style="fill: none; stroke: #ffffff; stroke-linecap: round"/>
     </g>
     <g id="text_15">
      <!-- 0.6 -->
      <g style="fill: #dc143c" transform="translate(253.223954 139.143928) scale(0.11 -0.11)">
       <defs>
        <path id="ArialMT-36" d="M 3184 3459 
L 2625 3416 
Q 2550 3747 2413 3897 
Q 2184 4138 1850 4138 
Q 1581 4138 1378 3988 
Q 1113 3794 959 3422 
Q 806 3050 800 2363 
Q 1003 2672 1297 2822 
Q 1591 2972 1913 2972 
Q 2475 2972 2870 2558 
Q 3266 2144 3266 1488 
Q 3266 1056 3080 686 
Q 2894 316 2569 119 
Q 2244 -78 1831 -78 
Q 1128 -78 684 439 
Q 241 956 241 2144 
Q 241 3472 731 4075 
Q 1159 4600 1884 4600 
Q 2425 4600 2770 4297 
Q 3116 3994 3184 3459 
z
M 888 1484 
Q 888 1194 1011 928 
Q 1134 663 1356 523 
Q 1578 384 1822 384 
Q 2178 384 2434 671 
Q 2691 959 2691 1453 
Q 2691 1928 2437 2201 
Q 2184 2475 1800 2475 
Q 1419 2475 1153 2201 
Q 888 1928 888 1484 
z
" transform="scale(0.015625)"/>
       </defs>
       <use xlink:href="#ArialMT-30"/>
       <use xlink:href="#ArialMT-2e" x="55.615234"/>
       <use xlink:href="#ArialMT-36" x="83.398438"/>
      </g>
     </g>
    </g>
    <g id="ytick_8">
     <g id="line2d_16">
      <path d="M 221.4 121.14 
C 234.14055 121.14 246.757214 123.64961 258.527947 128.525208 
C 270.29868 133.400805 280.994571 140.547571 290.0035 149.5565 
C 299.012429 158.565429 306.159195 169.26132 311.034792 181.032053 
C 315.91039 192.802786 318.42 205.41945 318.42 218.16 
C 318.42 230.90055 315.91039 243.517214 311.034792 255.287947 
C 306.159195 267.05868 299.012429 277.754571 290.0035 286.7635 
C 280.994571 295.772429 270.29868 302.919195 258.527947 307.794792 
C 246.757214 312.67039 234.14055 315.18 221.4 315.18 
C 208.65945 315.18 196.042786 312.67039 184.272053 307.794792 
C 172.50132 302.919195 161.805429 295.772429 152.7965 286.7635 
C 143.787571 277.754571 136.640805 267.05868 131.765208 255.287947 
C 126.88961 243.517214 124.38 230.90055 124.38 218.16 
C 124.38 205.41945 126.88961 192.802786 131.765208 181.032053 
C 136.640805 169.26132 143.787571 158.565429 152.7965 149.5565 
C 161.805429 140.547571 172.50132 133.400805 184.272053 128.525208 
C 196.042786 123.64961 208.65945 121.14 221.4 121.14 
" clip-path="url(#p3c3bc285a3)" style="fill: none; stroke: #ffffff; stroke-linecap: round"/>
     </g>
     <g id="text_16">
      <!-- 0.7 -->
      <g style="fill: #dc143c" transform="translate(258.527947 126.338958) scale(0.11 -0.11)">
       <use xlink:href="#ArialMT-30"/>
       <use xlink:href="#ArialMT-2e" x="55.615234"/>
       <use xlink:href="#ArialMT-37" x="83.398438"/>
      </g>
     </g>
    </g>
    <g id="ytick_9">
     <g id="line2d_17">
      <path d="M 221.4 107.28 
C 235.960628 107.28 250.379673 110.148126 263.831939 115.720237 
C 277.284205 121.292349 289.508081 129.460081 299.804 139.756 
C 310.099919 150.051919 318.267651 162.275795 323.839763 175.728061 
C 329.411874 189.180327 332.28 203.599372 332.28 218.16 
C 332.28 232.720628 329.411874 247.139673 323.839763 260.591939 
C 318.267651 274.044205 310.099919 286.268081 299.804 296.564 
C 289.508081 306.859919 277.284205 315.027651 263.831939 320.599763 
C 250.379673 326.171874 235.960628 329.04 221.4 329.04 
C 206.839372 329.04 192.420327 326.171874 178.968061 320.599763 
C 165.515795 315.027651 153.291919 306.859919 142.996 296.564 
C 132.700081 286.268081 124.532349 274.044205 118.960237 260.591939 
C 113.388126 247.139673 110.52 232.720628 110.52 218.16 
C 110.52 203.599372 113.388126 189.180327 118.960237 175.728061 
C 124.532349 162.275795 132.700081 150.051919 142.996 139.756 
C 153.291919 129.460081 165.515795 121.292349 178.968061 115.720237 
C 192.420327 110.148126 206.839372 107.28 221.4 107.28 
" clip-path="url(#p3c3bc285a3)" style="fill: none; stroke: #ffffff; stroke-linecap: round"/>
     </g>
     <g id="text_17">
      <!-- 0.8 -->
      <g style="fill: #dc143c" transform="translate(263.831939 113.533987) scale(0.11 -0.11)">
       <use xlink:href="#ArialMT-30"/>
       <use xlink:href="#ArialMT-2e" x="55.615234"/>
       <use xlink:href="#ArialMT-38" x="83.398438"/>
      </g>
     </g>
    </g>
    <g id="ytick_10">
     <g id="line2d_18">
      <path d="M 221.4 93.42 
C 237.780707 93.42 254.002132 96.646642 269.135931 102.915267 
C 284.269731 109.183892 298.021591 118.372591 309.6045 129.9555 
C 321.187409 141.538409 330.376108 155.290269 336.644733 170.424069 
C 342.913358 185.557868 346.14 201.779293 346.14 218.16 
C 346.14 234.540707 342.913358 250.762132 336.644733 265.895931 
C 330.376108 281.029731 321.187409 294.781591 309.6045 306.3645 
C 298.021591 317.947409 284.269731 327.136108 269.135931 333.404733 
C 254.002132 339.673358 237.780707 342.9 221.4 342.9 
C 205.019293 342.9 188.797868 339.673358 173.664069 333.404733 
C 158.530269 327.136108 144.778409 317.947409 133.1955 306.3645 
C 121.612591 294.781591 112.423892 281.029731 106.155267 265.895931 
C 99.886642 250.762132 96.66 234.540707 96.66 218.16 
C 96.66 201.779293 99.886642 185.557868 106.155267 170.424069 
C 112.423892 155.290269 121.612591 141.538409 133.1955 129.9555 
C 144.778409 118.372591 158.530269 109.183892 173.664069 102.915267 
C 188.797868 96.646642 205.019293 93.42 221.4 93.42 
" clip-path="url(#p3c3bc285a3)" style="fill: none; stroke: #ffffff; stroke-linecap: round"/>
     </g>
     <g id="text_18">
      <!-- 0.9 -->
      <g style="fill: #dc143c" transform="translate(269.135931 100.729017) scale(0.11 -0.11)">
       <use xlink:href="#ArialMT-30"/>
       <use xlink:href="#ArialMT-2e" x="55.615234"/>
       <use xlink:href="#ArialMT-39" x="83.398438"/>
      </g>
     </g>
    </g>
    <g id="ytick_11">
     <g id="line2d_19">
      <path d="M 221.4 79.56 
C 239.600785 79.56 257.624591 83.145158 274.439924 90.110297 
C 291.255257 97.075436 306.535101 107.285101 319.405 120.155 
C 332.274899 133.024899 342.484564 148.304743 349.449703 165.120076 
C 356.414842 181.935409 360 199.959215 360 218.16 
C 360 236.360785 356.414842 254.384591 349.449703 271.199924 
C 342.484564 288.015257 332.274899 303.295101 319.405 316.165 
C 306.535101 329.034899 291.255257 339.244564 274.439924 346.209703 
C 257.624591 353.174842 239.600785 356.76 221.4 356.76 
C 203.199215 356.76 185.175409 353.174842 168.360076 346.209703 
C 151.544743 339.244564 136.264899 329.034899 123.395 316.165 
C 110.525101 303.295101 100.315436 288.015257 93.350297 271.199924 
C 86.385158 254.384591 82.8 236.360785 82.8 218.16 
C 82.8 199.959215 86.385158 181.935409 93.350297 165.120076 
C 100.315436 148.304743 110.525101 133.024899 123.395 120.155 
C 136.264899 107.285101 151.544743 97.075436 168.360076 90.110297 
C 185.175409 83.145158 203.199215 79.56 221.4 79.56 
" clip-path="url(#p3c3bc285a3)" style="fill: none; stroke: #ffffff; stroke-linecap: round"/>
     </g>
     <g id="text_19">
      <!-- 1.0 -->
      <g style="fill: #dc143c" transform="translate(274.439924 87.924047) scale(0.11 -0.11)">
       <use xlink:href="#ArialMT-31"/>
       <use xlink:href="#ArialMT-2e" x="55.615234"/>
       <use xlink:href="#ArialMT-30" x="83.398438"/>
      </g>
     </g>
    </g>
    <g id="ytick_12">
     <g id="line2d_20">
      <path d="M 221.4 65.7 
C 241.420864 65.7 261.24705 69.643674 279.743916 77.305326 
C 298.240782 84.966979 315.048611 96.197612 329.2055 110.3545 
C 343.362388 124.511389 354.593021 141.319218 362.254674 159.816084 
C 369.916326 178.31295 373.86 198.139136 373.86 218.16 
C 373.86 238.180864 369.916326 258.00705 362.254674 276.503916 
C 354.593021 295.000782 343.362388 311.808611 329.2055 325.9655 
C 315.048611 340.122388 298.240782 351.353021 279.743916 359.014674 
C 261.24705 366.676326 241.420864 370.62 221.4 370.62 
C 201.379136 370.62 181.55295 366.676326 163.056084 359.014674 
C 144.559218 351.353021 127.751389 340.122388 113.5945 325.9655 
C 99.437612 311.808611 88.206979 295.000782 80.545326 276.503916 
C 72.883674 258.00705 68.94 238.180864 68.94 218.16 
C 68.94 198.139136 72.883674 178.31295 80.545326 159.816084 
C 88.206979 141.319218 99.437612 124.511389 113.5945 110.3545 
C 127.751389 96.197612 144.559218 84.966979 163.056084 77.305326 
C 181.55295 69.643674 201.379136 65.7 221.4 65.7 
" clip-path="url(#p3c3bc285a3)" style="fill: none; stroke: #ffffff; stroke-linecap: round"/>
     </g>
     <g id="text_20">
      <!-- 1.1 -->
      <g style="fill: #dc143c" transform="translate(279.743916 75.119076) scale(0.11 -0.11)">
       <use xlink:href="#ArialMT-31"/>
       <use xlink:href="#ArialMT-2e" x="55.615234"/>
       <use xlink:href="#ArialMT-31" x="83.398438"/>
      </g>
     </g>
    </g>
    <g id="ytick_13">
     <g id="line2d_21">
      <path d="M 221.4 51.84 
C 243.240942 51.84 264.869509 56.142189 285.047908 64.500356 
C 305.226308 72.858523 323.562121 85.110122 339.006 100.554 
C 354.449878 115.997879 366.701477 134.333692 375.059644 154.512092 
C 383.417811 174.690491 387.72 196.319058 387.72 218.16 
C 387.72 240.000942 383.417811 261.629509 375.059644 281.807908 
C 366.701477 301.986308 354.449878 320.322121 339.006 335.766 
C 323.562121 351.209878 305.226308 363.461477 285.047908 371.819644 
C 264.869509 380.177811 243.240942 384.48 221.4 384.48 
C 199.559058 384.48 177.930491 380.177811 157.752092 371.819644 
C 137.573692 363.461477 119.237879 351.209878 103.794 335.766 
C 88.350122 320.322121 76.098523 301.986308 67.740356 281.807908 
C 59.382189 261.629509 55.08 240.000942 55.08 218.16 
C 55.08 196.319058 59.382189 174.690491 67.740356 154.512092 
C 76.098523 134.333692 88.350122 115.997879 103.794 100.554 
C 119.237879 85.110122 137.573692 72.858523 157.752092 64.500356 
C 177.930491 56.142189 199.559058 51.84 221.4 51.84 
" clip-path="url(#p3c3bc285a3)" style="fill: none; stroke: #ffffff; stroke-linecap: round"/>
     </g>
     <g id="text_21">
      <!-- 1.2 -->
      <g style="fill: #dc143c" transform="translate(285.047908 62.314106) scale(0.11 -0.11)">
       <use xlink:href="#ArialMT-31"/>
       <use xlink:href="#ArialMT-2e" x="55.615234"/>
       <use xlink:href="#ArialMT-32" x="83.398438"/>
      </g>
     </g>
    </g>
   </g>
   <g id="line2d_22">
    <defs>
     <path id="m5160fae35a" d="M 0 0.5 
C 0.132602 0.5 0.25979 0.447317 0.353553 0.353553 
C 0.447317 0.25979 0.5 0.132602 0.5 0 
C 0.5 -0.132602 0.447317 -0.25979 0.353553 -0.353553 
C 0.25979 -0.447317 0.132602 -0.5 0 -0.5 
C -0.132602 -0.5 -0.25979 -0.447317 -0.353553 -0.353553 
C -0.447317 -0.25979 -0.5 -0.132602 -0.5 0 
C -0.5 0.132602 -0.447317 0.25979 -0.353553 0.353553 
C -0.25979 0.447317 -0.132602 0.5 0 0.5 
z
" style="stroke: #000000"/>
    </defs>
    <g clip-path="url(#p3c3bc285a3)">
     <use xlink:href="#m5160fae35a" x="219.706768" y="315.165223" style="stroke: #000000"/>
     <use xlink:href="#m5160fae35a" x="218.014051" y="315.120898" style="stroke: #000000"/>
     <use xlink:href="#m5160fae35a" x="216.322366" y="315.047037" style="stroke: #000000"/>
     <use xlink:href="#m5160fae35a" x="214.632227" y="314.943664" style="stroke: #000000"/>
     <use xlink:href="#m5160fae35a" x="212.94415" y="314.81081" style="stroke: #000000"/>
     <use xlink:href="#m5160fae35a" x="211.258648" y="314.648514" style="stroke: #000000"/>
     <use xlink:href="#m5160fae35a" x="209.576236" y="314.456828" style="stroke: #000000"/>
     <use xlink:href="#m5160fae35a" x="207.897426" y="314.235808" style="stroke: #000000"/>
     <use xlink:href="#m5160fae35a" x="206.222728" y="313.985523" style="stroke: #000000"/>
     <use xlink:href="#m5160fae35a" x="204.552654" y="313.706048" style="stroke: #000000"/>
     <use xlink:href="#m5160fae35a" x="202.887711" y="313.397469" style="stroke: #000000"/>
     <use xlink:href="#m5160fae35a" x="201.228408" y="313.05988" style="stroke: #000000"/>
     <use xlink:href="#m5160fae35a" x="199.575249" y="312.693384" style="stroke: #000000"/>
     <use xlink:href="#m5160fae35a" x="197.928738" y="312.298091" style="stroke: #000000"/>
     <use xlink:href="#m5160fae35a" x="196.289376" y="311.874124" style="stroke: #000000"/>
     <use xlink:href="#m5160fae35a" x="194.657664" y="311.42161" style="stroke: #000000"/>
     <use xlink:href="#m5160fae35a" x="193.034097" y="310.940687" style="stroke: #000000"/>
     <use xlink:href="#m5160fae35a" x="191.419171" y="310.431503" style="stroke: #000000"/>
     <use xlink:href="#m5160fae35a" x="189.813378" y="309.894212" style="stroke: #000000"/>
     <use xlink:href="#m5160fae35a" x="188.217206" y="309.328978" style="stroke: #000000"/>
     <use xlink:href="#m5160fae35a" x="186.631142" y="308.735973" style="stroke: #000000"/>
     <use xlink:href="#m5160fae35a" x="185.055668" y="308.115378" style="stroke: #000000"/>
     <use xlink:href="#m5160fae35a" x="183.491266" y="307.467381" style="stroke: #000000"/>
     <use xlink:href="#m5160fae35a" x="181.938411" y="306.79218" style="stroke: #000000"/>
     <use xlink:href="#m5160fae35a" x="180.397576" y="306.089981" style="stroke: #000000"/>
     <use xlink:href="#m5160fae35a" x="178.869231" y="305.360998" style="stroke: #000000"/>
     <use xlink:href="#m5160fae35a" x="177.353842" y="304.605453" style="stroke: #000000"/>
     <use xlink:href="#m5160fae35a" x="175.851869" y="303.823575" style="stroke: #000000"/>
     <use xlink:href="#m5160fae35a" x="174.363771" y="303.015604" style="stroke: #000000"/>
     <use xlink:href="#m5160fae35a" x="172.89" y="302.181785" style="stroke: #000000"/>
     <use xlink:href="#m5160fae35a" x="170.717163" y="302.510405" style="stroke: #000000"/>
     <use xlink:href="#m5160fae35a" x="169.252765" y="301.613021" style="stroke: #000000"/>
     <use xlink:href="#m5160fae35a" x="167.804251" y="300.690216" style="stroke: #000000"/>
     <use xlink:href="#m5160fae35a" x="166.372063" y="299.742271" style="stroke: #000000"/>
     <use xlink:href="#m5160fae35a" x="164.956637" y="298.769476" style="stroke: #000000"/>
     <use xlink:href="#m5160fae35a" x="163.558404" y="297.772126" style="stroke: #000000"/>
     <use xlink:href="#m5160fae35a" x="162.177791" y="296.750526" style="stroke: #000000"/>
     <use xlink:href="#m5160fae35a" x="160.815217" y="295.704986" style="stroke: #000000"/>
     <use xlink:href="#m5160fae35a" x="159.471098" y="294.635825" style="stroke: #000000"/>
     <use xlink:href="#m5160fae35a" x="158.145842" y="293.543369" style="stroke: #000000"/>
     <use xlink:href="#m5160fae35a" x="156.839855" y="292.427951" style="stroke: #000000"/>
     <use xlink:href="#m5160fae35a" x="155.553534" y="291.28991" style="stroke: #000000"/>
     <use xlink:href="#m5160fae35a" x="154.287269" y="290.129592" style="stroke: #000000"/>
     <use xlink:href="#m5160fae35a" x="153.041448" y="288.947352" style="stroke: #000000"/>
     <use xlink:href="#m5160fae35a" x="151.81645" y="287.74355" style="stroke: #000000"/>
     <use xlink:href="#m5160fae35a" x="150.612648" y="286.518552" style="stroke: #000000"/>
     <use xlink:href="#m5160fae35a" x="149.430408" y="285.272731" style="stroke: #000000"/>
     <use xlink:href="#m5160fae35a" x="148.27009" y="284.006466" style="stroke: #000000"/>
     <use xlink:href="#m5160fae35a" x="147.132049" y="282.720145" style="stroke: #000000"/>
     <use xlink:href="#m5160fae35a" x="146.016631" y="281.414158" style="stroke: #000000"/>
     <use xlink:href="#m5160fae35a" x="144.924175" y="280.088902" style="stroke: #000000"/>
     <use xlink:href="#m5160fae35a" x="143.855014" y="278.744783" style="stroke: #000000"/>
     <use xlink:href="#m5160fae35a" x="142.809474" y="277.382209" style="stroke: #000000"/>
     <use xlink:href="#m5160fae35a" x="141.787874" y="276.001596" style="stroke: #000000"/>
     <use xlink:href="#m5160fae35a" x="140.790524" y="274.603363" style="stroke: #000000"/>
     <use xlink:href="#m5160fae35a" x="139.817729" y="273.187937" style="stroke: #000000"/>
     <use xlink:href="#m5160fae35a" x="138.869784" y="271.755749" style="stroke: #000000"/>
     <use xlink:href="#m5160fae35a" x="137.946979" y="270.307235" style="stroke: #000000"/>
     <use xlink:href="#m5160fae35a" x="137.049595" y="268.842837" style="stroke: #000000"/>
     <use xlink:href="#m5160fae35a" x="136.177904" y="267.363" style="stroke: #000000"/>
     <use xlink:href="#m5160fae35a" x="135.332173" y="265.868175" style="stroke: #000000"/>
     <use xlink:href="#m5160fae35a" x="134.512659" y="264.358819" style="stroke: #000000"/>
     <use xlink:href="#m5160fae35a" x="133.719612" y="262.835389" style="stroke: #000000"/>
     <use xlink:href="#m5160fae35a" x="132.953273" y="261.298351" style="stroke: #000000"/>
     <use xlink:href="#m5160fae35a" x="132.213876" y="259.748173" style="stroke: #000000"/>
     <use xlink:href="#m5160fae35a" x="131.501646" y="258.185326" style="stroke: #000000"/>
     <use xlink:href="#m5160fae35a" x="130.816799" y="256.610287" style="stroke: #000000"/>
     <use xlink:href="#m5160fae35a" x="130.159546" y="255.023536" style="stroke: #000000"/>
     <use xlink:href="#m5160fae35a" x="129.530085" y="253.425556" style="stroke: #000000"/>
     <use xlink:href="#m5160fae35a" x="128.928608" y="251.816834" style="stroke: #000000"/>
     <use xlink:href="#m5160fae35a" x="128.355299" y="250.19786" style="stroke: #000000"/>
     <use xlink:href="#m5160fae35a" x="127.810332" y="248.569126" style="stroke: #000000"/>
     <use xlink:href="#m5160fae35a" x="127.293874" y="246.93113" style="stroke: #000000"/>
     <use xlink:href="#m5160fae35a" x="126.806082" y="245.28437" style="stroke: #000000"/>
     <use xlink:href="#m5160fae35a" x="126.347103" y="243.629347" style="stroke: #000000"/>
     <use xlink:href="#m5160fae35a" x="125.917079" y="241.966566" style="stroke: #000000"/>
     <use xlink:href="#m5160fae35a" x="125.516139" y="240.296533" style="stroke: #000000"/>
     <use xlink:href="#m5160fae35a" x="125.144407" y="238.619758" style="stroke: #000000"/>
     <use xlink:href="#m5160fae35a" x="124.801995" y="236.93675" style="stroke: #000000"/>
     <use xlink:href="#m5160fae35a" x="124.489008" y="235.248023" style="stroke: #000000"/>
     <use xlink:href="#m5160fae35a" x="124.205541" y="233.55409" style="stroke: #000000"/>
     <use xlink:href="#m5160fae35a" x="123.95168" y="231.855468" style="stroke: #000000"/>
     <use xlink:href="#m5160fae35a" x="123.727503" y="230.152675" style="stroke: #000000"/>
     <use xlink:href="#m5160fae35a" x="123.533078" y="228.446228" style="stroke: #000000"/>
     <use xlink:href="#m5160fae35a" x="123.368465" y="226.736648" style="stroke: #000000"/>
     <use xlink:href="#m5160fae35a" x="123.233712" y="225.024456" style="stroke: #000000"/>
     <use xlink:href="#m5160fae35a" x="123.128862" y="223.310172" style="stroke: #000000"/>
     <use xlink:href="#m5160fae35a" x="123.053946" y="221.59432" style="stroke: #000000"/>
     <use xlink:href="#m5160fae35a" x="123.008988" y="219.877422" style="stroke: #000000"/>
     <use xlink:href="#m5160fae35a" x="122.994" y="218.16" style="stroke: #000000"/>
     <use xlink:href="#m5160fae35a" x="123.008988" y="216.442578" style="stroke: #000000"/>
     <use xlink:href="#m5160fae35a" x="123.053946" y="214.72568" style="stroke: #000000"/>
     <use xlink:href="#m5160fae35a" x="123.128862" y="213.009828" style="stroke: #000000"/>
     <use xlink:href="#m5160fae35a" x="123.233712" y="211.295544" style="stroke: #000000"/>
     <use xlink:href="#m5160fae35a" x="123.368465" y="209.583352" style="stroke: #000000"/>
     <use xlink:href="#m5160fae35a" x="123.533078" y="207.873772" style="stroke: #000000"/>
     <use xlink:href="#m5160fae35a" x="123.727503" y="206.167325" style="stroke: #000000"/>
     <use xlink:href="#m5160fae35a" x="123.95168" y="204.464532" style="stroke: #000000"/>
     <use xlink:href="#m5160fae35a" x="124.205541" y="202.76591" style="stroke: #000000"/>
     <use xlink:href="#m5160fae35a" x="124.489008" y="201.071977" style="stroke: #000000"/>
     <use xlink:href="#m5160fae35a" x="124.801995" y="199.38325" style="stroke: #000000"/>
     <use xlink:href="#m5160fae35a" x="125.144407" y="197.700242" style="stroke: #000000"/>
     <use xlink:href="#m5160fae35a" x="125.516139" y="196.023467" style="stroke: #000000"/>
     <use xlink:href="#m5160fae35a" x="125.917079" y="194.353434" style="stroke: #000000"/>
     <use xlink:href="#m5160fae35a" x="126.347103" y="192.690653" style="stroke: #000000"/>
     <use xlink:href="#m5160fae35a" x="126.806082" y="191.03563" style="stroke: #000000"/>
     <use xlink:href="#m5160fae35a" x="127.293874" y="189.38887" style="stroke: #000000"/>
     <use xlink:href="#m5160fae35a" x="127.810332" y="187.750874" style="stroke: #000000"/>
     <use xlink:href="#m5160fae35a" x="128.355299" y="186.12214" style="stroke: #000000"/>
     <use xlink:href="#m5160fae35a" x="128.928608" y="184.503166" style="stroke: #000000"/>
     <use xlink:href="#m5160fae35a" x="130.824027" y="183.391142" style="stroke: #000000"/>
     <use xlink:href="#m5160fae35a" x="131.444622" y="181.815668" style="stroke: #000000"/>
     <use xlink:href="#m5160fae35a" x="132.092619" y="180.251266" style="stroke: #000000"/>
     <use xlink:href="#m5160fae35a" x="132.76782" y="178.698411" style="stroke: #000000"/>
     <use xlink:href="#m5160fae35a" x="133.470019" y="177.157576" style="stroke: #000000"/>
     <use xlink:href="#m5160fae35a" x="134.199002" y="175.629231" style="stroke: #000000"/>
     <use xlink:href="#m5160fae35a" x="134.954547" y="174.113842" style="stroke: #000000"/>
     <use xlink:href="#m5160fae35a" x="136.544396" y="171.123771" style="stroke: #000000"/>
     <use xlink:href="#m5160fae35a" x="137.378215" y="169.65" style="stroke: #000000"/>
     <use xlink:href="#m5160fae35a" x="138.237628" y="168.191006" style="stroke: #000000"/>
     <use xlink:href="#m5160fae35a" x="139.122374" y="166.747233" style="stroke: #000000"/>
     <use xlink:href="#m5160fae35a" x="140.032181" y="165.319121" style="stroke: #000000"/>
     <use xlink:href="#m5160fae35a" x="140.966775" y="163.907105" style="stroke: #000000"/>
     <use xlink:href="#m5160fae35a" x="141.925869" y="162.511614" style="stroke: #000000"/>
     <use xlink:href="#m5160fae35a" x="142.909171" y="161.133075" style="stroke: #000000"/>
     <use xlink:href="#m5160fae35a" x="143.916383" y="159.771906" style="stroke: #000000"/>
     <use xlink:href="#m5160fae35a" x="144.947197" y="158.428524" style="stroke: #000000"/>
     <use xlink:href="#m5160fae35a" x="146.001299" y="157.103336" style="stroke: #000000"/>
     <use xlink:href="#m5160fae35a" x="147.078368" y="155.796746" style="stroke: #000000"/>
     <use xlink:href="#m5160fae35a" x="148.178077" y="154.509153" style="stroke: #000000"/>
     <use xlink:href="#m5160fae35a" x="149.300089" y="153.240949" style="stroke: #000000"/>
     <use xlink:href="#m5160fae35a" x="150.444064" y="151.992519" style="stroke: #000000"/>
     <use xlink:href="#m5160fae35a" x="151.609653" y="150.764245" style="stroke: #000000"/>
     <use xlink:href="#m5160fae35a" x="152.7965" y="149.5565" style="stroke: #000000"/>
     <use xlink:href="#m5160fae35a" x="154.004245" y="148.369653" style="stroke: #000000"/>
     <use xlink:href="#m5160fae35a" x="155.232519" y="147.204064" style="stroke: #000000"/>
     <use xlink:href="#m5160fae35a" x="156.480949" y="146.060089" style="stroke: #000000"/>
     <use xlink:href="#m5160fae35a" x="157.749153" y="144.938077" style="stroke: #000000"/>
     <use xlink:href="#m5160fae35a" x="159.036746" y="143.838368" style="stroke: #000000"/>
     <use xlink:href="#m5160fae35a" x="160.343336" y="142.761299" style="stroke: #000000"/>
     <use xlink:href="#m5160fae35a" x="161.668524" y="141.707197" style="stroke: #000000"/>
     <use xlink:href="#m5160fae35a" x="163.011906" y="140.676383" style="stroke: #000000"/>
     <use xlink:href="#m5160fae35a" x="164.373075" y="139.669171" style="stroke: #000000"/>
     <use xlink:href="#m5160fae35a" x="165.751614" y="138.685869" style="stroke: #000000"/>
     <use xlink:href="#m5160fae35a" x="167.147105" y="137.726775" style="stroke: #000000"/>
     <use xlink:href="#m5160fae35a" x="167.804251" y="135.629784" style="stroke: #000000"/>
     <use xlink:href="#m5160fae35a" x="169.252765" y="134.706979" style="stroke: #000000"/>
     <use xlink:href="#m5160fae35a" x="170.717163" y="133.809595" style="stroke: #000000"/>
     <use xlink:href="#m5160fae35a" x="172.197" y="132.937904" style="stroke: #000000"/>
     <use xlink:href="#m5160fae35a" x="173.691825" y="132.092173" style="stroke: #000000"/>
     <use xlink:href="#m5160fae35a" x="175.201181" y="131.272659" style="stroke: #000000"/>
     <use xlink:href="#m5160fae35a" x="176.724611" y="130.479612" style="stroke: #000000"/>
     <use xlink:href="#m5160fae35a" x="178.261649" y="129.713273" style="stroke: #000000"/>
     <use xlink:href="#m5160fae35a" x="179.811827" y="128.973876" style="stroke: #000000"/>
     <use xlink:href="#m5160fae35a" x="181.374674" y="128.261646" style="stroke: #000000"/>
     <use xlink:href="#m5160fae35a" x="182.949713" y="127.576799" style="stroke: #000000"/>
     <use xlink:href="#m5160fae35a" x="184.536464" y="126.919546" style="stroke: #000000"/>
     <use xlink:href="#m5160fae35a" x="186.134444" y="126.290085" style="stroke: #000000"/>
     <use xlink:href="#m5160fae35a" x="187.743166" y="125.688608" style="stroke: #000000"/>
     <use xlink:href="#m5160fae35a" x="189.36214" y="125.115299" style="stroke: #000000"/>
     <use xlink:href="#m5160fae35a" x="190.990874" y="124.570332" style="stroke: #000000"/>
     <use xlink:href="#m5160fae35a" x="192.62887" y="124.053874" style="stroke: #000000"/>
     <use xlink:href="#m5160fae35a" x="194.27563" y="123.566082" style="stroke: #000000"/>
     <use xlink:href="#m5160fae35a" x="195.930653" y="123.107103" style="stroke: #000000"/>
     <use xlink:href="#m5160fae35a" x="197.593434" y="122.677079" style="stroke: #000000"/>
     <use xlink:href="#m5160fae35a" x="199.263467" y="122.276139" style="stroke: #000000"/>
     <use xlink:href="#m5160fae35a" x="200.940242" y="121.904407" style="stroke: #000000"/>
     <use xlink:href="#m5160fae35a" x="202.62325" y="121.561995" style="stroke: #000000"/>
     <use xlink:href="#m5160fae35a" x="204.311977" y="121.249008" style="stroke: #000000"/>
     <use xlink:href="#m5160fae35a" x="206.00591" y="120.965541" style="stroke: #000000"/>
     <use xlink:href="#m5160fae35a" x="207.704532" y="120.71168" style="stroke: #000000"/>
     <use xlink:href="#m5160fae35a" x="209.407325" y="120.487503" style="stroke: #000000"/>
     <use xlink:href="#m5160fae35a" x="211.113772" y="120.293078" style="stroke: #000000"/>
     <use xlink:href="#m5160fae35a" x="212.823352" y="120.128465" style="stroke: #000000"/>
     <use xlink:href="#m5160fae35a" x="214.535544" y="119.993712" style="stroke: #000000"/>
     <use xlink:href="#m5160fae35a" x="216.249828" y="119.888862" style="stroke: #000000"/>
     <use xlink:href="#m5160fae35a" x="217.96568" y="119.813946" style="stroke: #000000"/>
     <use xlink:href="#m5160fae35a" x="219.682578" y="119.768988" style="stroke: #000000"/>
     <use xlink:href="#m5160fae35a" x="221.4" y="119.754" style="stroke: #000000"/>
     <use xlink:href="#m5160fae35a" x="223.117422" y="119.768988" style="stroke: #000000"/>
     <use xlink:href="#m5160fae35a" x="224.83432" y="119.813946" style="stroke: #000000"/>
     <use xlink:href="#m5160fae35a" x="226.550172" y="119.888862" style="stroke: #000000"/>
     <use xlink:href="#m5160fae35a" x="228.264456" y="119.993712" style="stroke: #000000"/>
     <use xlink:href="#m5160fae35a" x="229.976648" y="120.128465" style="stroke: #000000"/>
     <use xlink:href="#m5160fae35a" x="231.686228" y="120.293078" style="stroke: #000000"/>
     <use xlink:href="#m5160fae35a" x="233.392675" y="120.487503" style="stroke: #000000"/>
     <use xlink:href="#m5160fae35a" x="235.095468" y="120.71168" style="stroke: #000000"/>
     <use xlink:href="#m5160fae35a" x="236.79409" y="120.965541" style="stroke: #000000"/>
     <use xlink:href="#m5160fae35a" x="238.488023" y="121.249008" style="stroke: #000000"/>
     <use xlink:href="#m5160fae35a" x="240.17675" y="121.561995" style="stroke: #000000"/>
     <use xlink:href="#m5160fae35a" x="241.859758" y="121.904407" style="stroke: #000000"/>
     <use xlink:href="#m5160fae35a" x="243.536533" y="122.276139" style="stroke: #000000"/>
     <use xlink:href="#m5160fae35a" x="245.54187" y="121.332249" style="stroke: #000000"/>
     <use xlink:href="#m5160fae35a" x="247.22807" y="121.76833" style="stroke: #000000"/>
     <use xlink:href="#m5160fae35a" x="248.906403" y="122.233773" style="stroke: #000000"/>
     <use xlink:href="#m5160fae35a" x="250.576357" y="122.728436" style="stroke: #000000"/>
     <use xlink:href="#m5160fae35a" x="252.237424" y="123.252168" style="stroke: #000000"/>
     <use xlink:href="#m5160fae35a" x="253.889097" y="123.80481" style="stroke: #000000"/>
     <use xlink:href="#m5160fae35a" x="255.530874" y="124.386194" style="stroke: #000000"/>
     <use xlink:href="#m5160fae35a" x="257.162254" y="124.996142" style="stroke: #000000"/>
     <use xlink:href="#m5160fae35a" x="258.782741" y="125.634469" style="stroke: #000000"/>
     <use xlink:href="#m5160fae35a" x="260.391841" y="126.30098" style="stroke: #000000"/>
     <use xlink:href="#m5160fae35a" x="261.989063" y="126.995472" style="stroke: #000000"/>
     <use xlink:href="#m5160fae35a" x="263.573922" y="127.717733" style="stroke: #000000"/>
     <use xlink:href="#m5160fae35a" x="265.145933" y="128.467545" style="stroke: #000000"/>
     <use xlink:href="#m5160fae35a" x="266.70462" y="129.244677" style="stroke: #000000"/>
     <use xlink:href="#m5160fae35a" x="268.249506" y="130.048894" style="stroke: #000000"/>
     <use xlink:href="#m5160fae35a" x="269.780122" y="130.87995" style="stroke: #000000"/>
     <use xlink:href="#m5160fae35a" x="271.296" y="131.737593" style="stroke: #000000"/>
     <use xlink:href="#m5160fae35a" x="272.79668" y="132.621561" style="stroke: #000000"/>
     <use xlink:href="#m5160fae35a" x="274.281703" y="133.531584" style="stroke: #000000"/>
     <use xlink:href="#m5160fae35a" x="275.750619" y="134.467387" style="stroke: #000000"/>
     <use xlink:href="#m5160fae35a" x="277.202978" y="135.428683" style="stroke: #000000"/>
     <use xlink:href="#m5160fae35a" x="278.63834" y="136.415179" style="stroke: #000000"/>
     <use xlink:href="#m5160fae35a" x="280.056266" y="137.426576" style="stroke: #000000"/>
     <use xlink:href="#m5160fae35a" x="281.456325" y="138.462565" style="stroke: #000000"/>
     <use xlink:href="#m5160fae35a" x="282.83809" y="139.522831" style="stroke: #000000"/>
     <use xlink:href="#m5160fae35a" x="284.20114" y="140.60705" style="stroke: #000000"/>
     <use xlink:href="#m5160fae35a" x="285.545061" y="141.714893" style="stroke: #000000"/>
     <use xlink:href="#m5160fae35a" x="286.869443" y="142.846022" style="stroke: #000000"/>
     <use xlink:href="#m5160fae35a" x="288.173881" y="144.000092" style="stroke: #000000"/>
     <use xlink:href="#m5160fae35a" x="289.45798" y="145.176751" style="stroke: #000000"/>
     <use xlink:href="#m5160fae35a" x="290.721348" y="146.375643" style="stroke: #000000"/>
     <use xlink:href="#m5160fae35a" x="291.9636" y="147.5964" style="stroke: #000000"/>
     <use xlink:href="#m5160fae35a" x="293.184357" y="148.838652" style="stroke: #000000"/>
     <use xlink:href="#m5160fae35a" x="294.383249" y="150.10202" style="stroke: #000000"/>
     <use xlink:href="#m5160fae35a" x="295.559908" y="151.386119" style="stroke: #000000"/>
     <use xlink:href="#m5160fae35a" x="296.713978" y="152.690557" style="stroke: #000000"/>
     <use xlink:href="#m5160fae35a" x="297.845107" y="154.014939" style="stroke: #000000"/>
     <use xlink:href="#m5160fae35a" x="298.95295" y="155.35886" style="stroke: #000000"/>
     <use xlink:href="#m5160fae35a" x="300.037169" y="156.72191" style="stroke: #000000"/>
     <use xlink:href="#m5160fae35a" x="301.097435" y="158.103675" style="stroke: #000000"/>
     <use xlink:href="#m5160fae35a" x="302.133424" y="159.503734" style="stroke: #000000"/>
     <use xlink:href="#m5160fae35a" x="303.144821" y="160.92166" style="stroke: #000000"/>
     <use xlink:href="#m5160fae35a" x="304.131317" y="162.357022" style="stroke: #000000"/>
     <use xlink:href="#m5160fae35a" x="305.092613" y="163.809381" style="stroke: #000000"/>
     <use xlink:href="#m5160fae35a" x="306.028416" y="165.278297" style="stroke: #000000"/>
     <use xlink:href="#m5160fae35a" x="306.938439" y="166.76332" style="stroke: #000000"/>
     <use xlink:href="#m5160fae35a" x="307.822407" y="168.264" style="stroke: #000000"/>
     <use xlink:href="#m5160fae35a" x="308.68005" y="169.779878" style="stroke: #000000"/>
     <use xlink:href="#m5160fae35a" x="309.511106" y="171.310494" style="stroke: #000000"/>
     <use xlink:href="#m5160fae35a" x="310.315323" y="172.85538" style="stroke: #000000"/>
     <use xlink:href="#m5160fae35a" x="311.092455" y="174.414067" style="stroke: #000000"/>
     <use xlink:href="#m5160fae35a" x="311.842267" y="175.986078" style="stroke: #000000"/>
     <use xlink:href="#m5160fae35a" x="312.564528" y="177.570937" style="stroke: #000000"/>
     <use xlink:href="#m5160fae35a" x="313.25902" y="179.168159" style="stroke: #000000"/>
     <use xlink:href="#m5160fae35a" x="313.925531" y="180.777259" style="stroke: #000000"/>
     <use xlink:href="#m5160fae35a" x="314.563858" y="182.397746" style="stroke: #000000"/>
     <use xlink:href="#m5160fae35a" x="315.173806" y="184.029126" style="stroke: #000000"/>
     <use xlink:href="#m5160fae35a" x="315.75519" y="185.670903" style="stroke: #000000"/>
     <use xlink:href="#m5160fae35a" x="316.307832" y="187.322576" style="stroke: #000000"/>
     <use xlink:href="#m5160fae35a" x="316.831564" y="188.983643" style="stroke: #000000"/>
     <use xlink:href="#m5160fae35a" x="317.326227" y="190.653597" style="stroke: #000000"/>
     <use xlink:href="#m5160fae35a" x="317.79167" y="192.33193" style="stroke: #000000"/>
     <use xlink:href="#m5160fae35a" x="318.227751" y="194.01813" style="stroke: #000000"/>
     <use xlink:href="#m5160fae35a" x="318.634338" y="195.711684" style="stroke: #000000"/>
     <use xlink:href="#m5160fae35a" x="319.011305" y="197.412077" style="stroke: #000000"/>
     <use xlink:href="#m5160fae35a" x="319.35854" y="199.118789" style="stroke: #000000"/>
     <use xlink:href="#m5160fae35a" x="319.675935" y="200.831301" style="stroke: #000000"/>
     <use xlink:href="#m5160fae35a" x="319.963395" y="202.549092" style="stroke: #000000"/>
     <use xlink:href="#m5160fae35a" x="320.220831" y="204.271638" style="stroke: #000000"/>
     <use xlink:href="#m5160fae35a" x="320.448166" y="205.998414" style="stroke: #000000"/>
     <use xlink:href="#m5160fae35a" x="320.645329" y="207.728896" style="stroke: #000000"/>
     <use xlink:href="#m5160fae35a" x="320.812261" y="209.462554" style="stroke: #000000"/>
     <use xlink:href="#m5160fae35a" x="320.948912" y="211.198862" style="stroke: #000000"/>
     <use xlink:href="#m5160fae35a" x="321.055239" y="212.93729" style="stroke: #000000"/>
     <use xlink:href="#m5160fae35a" x="321.131209" y="214.677309" style="stroke: #000000"/>
     <use xlink:href="#m5160fae35a" x="321.176801" y="216.418389" style="stroke: #000000"/>
     <use xlink:href="#m5160fae35a" x="321.192" y="218.16" style="stroke: #000000"/>
     <use xlink:href="#m5160fae35a" x="321.176801" y="219.901611" style="stroke: #000000"/>
     <use xlink:href="#m5160fae35a" x="321.131209" y="221.642691" style="stroke: #000000"/>
     <use xlink:href="#m5160fae35a" x="321.055239" y="223.38271" style="stroke: #000000"/>
     <use xlink:href="#m5160fae35a" x="320.948912" y="225.121138" style="stroke: #000000"/>
     <use xlink:href="#m5160fae35a" x="320.812261" y="226.857446" style="stroke: #000000"/>
     <use xlink:href="#m5160fae35a" x="320.645329" y="228.591104" style="stroke: #000000"/>
     <use xlink:href="#m5160fae35a" x="320.448166" y="230.321586" style="stroke: #000000"/>
     <use xlink:href="#m5160fae35a" x="320.220831" y="232.048362" style="stroke: #000000"/>
     <use xlink:href="#m5160fae35a" x="319.963395" y="233.770908" style="stroke: #000000"/>
     <use xlink:href="#m5160fae35a" x="319.675935" y="235.488699" style="stroke: #000000"/>
     <use xlink:href="#m5160fae35a" x="319.35854" y="237.201211" style="stroke: #000000"/>
     <use xlink:href="#m5160fae35a" x="319.011305" y="238.907923" style="stroke: #000000"/>
     <use xlink:href="#m5160fae35a" x="318.634338" y="240.608316" style="stroke: #000000"/>
     <use xlink:href="#m5160fae35a" x="318.227751" y="242.30187" style="stroke: #000000"/>
     <use xlink:href="#m5160fae35a" x="316.452897" y="243.629347" style="stroke: #000000"/>
     <use xlink:href="#m5160fae35a" x="315.993918" y="245.28437" style="stroke: #000000"/>
     <use xlink:href="#m5160fae35a" x="315.506126" y="246.93113" style="stroke: #000000"/>
     <use xlink:href="#m5160fae35a" x="314.989668" y="248.569126" style="stroke: #000000"/>
     <use xlink:href="#m5160fae35a" x="314.444701" y="250.19786" style="stroke: #000000"/>
     <use xlink:href="#m5160fae35a" x="313.871392" y="251.816834" style="stroke: #000000"/>
     <use xlink:href="#m5160fae35a" x="313.269915" y="253.425556" style="stroke: #000000"/>
     <use xlink:href="#m5160fae35a" x="312.640454" y="255.023536" style="stroke: #000000"/>
     <use xlink:href="#m5160fae35a" x="311.983201" y="256.610287" style="stroke: #000000"/>
     <use xlink:href="#m5160fae35a" x="311.298354" y="258.185326" style="stroke: #000000"/>
     <use xlink:href="#m5160fae35a" x="310.586124" y="259.748173" style="stroke: #000000"/>
     <use xlink:href="#m5160fae35a" x="309.846727" y="261.298351" style="stroke: #000000"/>
     <use xlink:href="#m5160fae35a" x="309.080388" y="262.835389" style="stroke: #000000"/>
     <use xlink:href="#m5160fae35a" x="308.287341" y="264.358819" style="stroke: #000000"/>
     <use xlink:href="#m5160fae35a" x="307.467827" y="265.868175" style="stroke: #000000"/>
     <use xlink:href="#m5160fae35a" x="306.622096" y="267.363" style="stroke: #000000"/>
     <use xlink:href="#m5160fae35a" x="305.750405" y="268.842837" style="stroke: #000000"/>
     <use xlink:href="#m5160fae35a" x="304.853021" y="270.307235" style="stroke: #000000"/>
     <use xlink:href="#m5160fae35a" x="303.930216" y="271.755749" style="stroke: #000000"/>
     <use xlink:href="#m5160fae35a" x="302.982271" y="273.187937" style="stroke: #000000"/>
     <use xlink:href="#m5160fae35a" x="302.009476" y="274.603363" style="stroke: #000000"/>
     <use xlink:href="#m5160fae35a" x="301.012126" y="276.001596" style="stroke: #000000"/>
     <use xlink:href="#m5160fae35a" x="299.990526" y="277.382209" style="stroke: #000000"/>
     <use xlink:href="#m5160fae35a" x="298.944986" y="278.744783" style="stroke: #000000"/>
     <use xlink:href="#m5160fae35a" x="297.875825" y="280.088902" style="stroke: #000000"/>
     <use xlink:href="#m5160fae35a" x="296.783369" y="281.414158" style="stroke: #000000"/>
     <use xlink:href="#m5160fae35a" x="295.667951" y="282.720145" style="stroke: #000000"/>
     <use xlink:href="#m5160fae35a" x="294.52991" y="284.006466" style="stroke: #000000"/>
     <use xlink:href="#m5160fae35a" x="293.369592" y="285.272731" style="stroke: #000000"/>
     <use xlink:href="#m5160fae35a" x="292.187352" y="286.518552" style="stroke: #000000"/>
     <use xlink:href="#m5160fae35a" x="290.98355" y="287.74355" style="stroke: #000000"/>
     <use xlink:href="#m5160fae35a" x="288.795755" y="287.950347" style="stroke: #000000"/>
     <use xlink:href="#m5160fae35a" x="287.567481" y="289.115936" style="stroke: #000000"/>
     <use xlink:href="#m5160fae35a" x="286.319051" y="290.259911" style="stroke: #000000"/>
     <use xlink:href="#m5160fae35a" x="285.050847" y="291.381923" style="stroke: #000000"/>
     <use xlink:href="#m5160fae35a" x="283.763254" y="292.481632" style="stroke: #000000"/>
     <use xlink:href="#m5160fae35a" x="282.456664" y="293.558701" style="stroke: #000000"/>
     <use xlink:href="#m5160fae35a" x="281.131476" y="294.612803" style="stroke: #000000"/>
     <use xlink:href="#m5160fae35a" x="279.788094" y="295.643617" style="stroke: #000000"/>
     <use xlink:href="#m5160fae35a" x="278.426925" y="296.650829" style="stroke: #000000"/>
     <use xlink:href="#m5160fae35a" x="277.048386" y="297.634131" style="stroke: #000000"/>
     <use xlink:href="#m5160fae35a" x="275.652895" y="298.593225" style="stroke: #000000"/>
     <use xlink:href="#m5160fae35a" x="274.240879" y="299.527819" style="stroke: #000000"/>
     <use xlink:href="#m5160fae35a" x="272.812767" y="300.437626" style="stroke: #000000"/>
     <use xlink:href="#m5160fae35a" x="272.082837" y="302.510405" style="stroke: #000000"/>
     <use xlink:href="#m5160fae35a" x="270.603" y="303.382096" style="stroke: #000000"/>
     <use xlink:href="#m5160fae35a" x="269.108175" y="304.227827" style="stroke: #000000"/>
     <use xlink:href="#m5160fae35a" x="267.598819" y="305.047341" style="stroke: #000000"/>
     <use xlink:href="#m5160fae35a" x="266.075389" y="305.840388" style="stroke: #000000"/>
     <use xlink:href="#m5160fae35a" x="264.538351" y="306.606727" style="stroke: #000000"/>
     <use xlink:href="#m5160fae35a" x="262.988173" y="307.346124" style="stroke: #000000"/>
     <use xlink:href="#m5160fae35a" x="261.425326" y="308.058354" style="stroke: #000000"/>
     <use xlink:href="#m5160fae35a" x="259.850287" y="308.743201" style="stroke: #000000"/>
     <use xlink:href="#m5160fae35a" x="258.263536" y="309.400454" style="stroke: #000000"/>
     <use xlink:href="#m5160fae35a" x="256.665556" y="310.029915" style="stroke: #000000"/>
     <use xlink:href="#m5160fae35a" x="255.056834" y="310.631392" style="stroke: #000000"/>
     <use xlink:href="#m5160fae35a" x="253.43786" y="311.204701" style="stroke: #000000"/>
     <use xlink:href="#m5160fae35a" x="251.809126" y="311.749668" style="stroke: #000000"/>
     <use xlink:href="#m5160fae35a" x="250.17113" y="312.266126" style="stroke: #000000"/>
     <use xlink:href="#m5160fae35a" x="248.52437" y="312.753918" style="stroke: #000000"/>
     <use xlink:href="#m5160fae35a" x="246.869347" y="313.212897" style="stroke: #000000"/>
     <use xlink:href="#m5160fae35a" x="245.206566" y="313.642921" style="stroke: #000000"/>
     <use xlink:href="#m5160fae35a" x="243.536533" y="314.043861" style="stroke: #000000"/>
     <use xlink:href="#m5160fae35a" x="241.859758" y="314.415593" style="stroke: #000000"/>
     <use xlink:href="#m5160fae35a" x="240.17675" y="314.758005" style="stroke: #000000"/>
     <use xlink:href="#m5160fae35a" x="238.488023" y="315.070992" style="stroke: #000000"/>
     <use xlink:href="#m5160fae35a" x="236.79409" y="315.354459" style="stroke: #000000"/>
     <use xlink:href="#m5160fae35a" x="235.095468" y="315.60832" style="stroke: #000000"/>
     <use xlink:href="#m5160fae35a" x="233.392675" y="315.832497" style="stroke: #000000"/>
     <use xlink:href="#m5160fae35a" x="231.686228" y="316.026922" style="stroke: #000000"/>
     <use xlink:href="#m5160fae35a" x="229.976648" y="316.191535" style="stroke: #000000"/>
     <use xlink:href="#m5160fae35a" x="228.264456" y="316.326288" style="stroke: #000000"/>
     <use xlink:href="#m5160fae35a" x="226.550172" y="316.431138" style="stroke: #000000"/>
     <use xlink:href="#m5160fae35a" x="224.83432" y="316.506054" style="stroke: #000000"/>
     <use xlink:href="#m5160fae35a" x="223.117422" y="316.551012" style="stroke: #000000"/>
     <use xlink:href="#m5160fae35a" x="221.4" y="316.566" style="stroke: #000000"/>
     <use xlink:href="#m5160fae35a" x="215.749818" y="271.917887" style="stroke: #000000"/>
     <use xlink:href="#m5160fae35a" x="214.981385" y="270.435421" style="stroke: #000000"/>
     <use xlink:href="#m5160fae35a" x="214.070031" y="270.315439" style="stroke: #000000"/>
     <use xlink:href="#m5160fae35a" x="213.16091" y="270.17957" style="stroke: #000000"/>
     <use xlink:href="#m5160fae35a" x="212.254298" y="270.027855" style="stroke: #000000"/>
     <use xlink:href="#m5160fae35a" x="211.350472" y="269.86034" style="stroke: #000000"/>
     <use xlink:href="#m5160fae35a" x="210.449707" y="269.677078" style="stroke: #000000"/>
     <use xlink:href="#m5160fae35a" x="209.552278" y="269.478123" style="stroke: #000000"/>
     <use xlink:href="#m5160fae35a" x="208.658458" y="269.263535" style="stroke: #000000"/>
     <use xlink:href="#m5160fae35a" x="207.768519" y="269.033381" style="stroke: #000000"/>
     <use xlink:href="#m5160fae35a" x="205.124693" y="268.250245" style="stroke: #000000"/>
     <use xlink:href="#m5160fae35a" x="204.252976" y="267.958572" style="stroke: #000000"/>
     <use xlink:href="#m5160fae35a" x="203.386483" y="267.651731" style="stroke: #000000"/>
     <use xlink:href="#m5160fae35a" x="202.525477" y="267.329814" style="stroke: #000000"/>
     <use xlink:href="#m5160fae35a" x="201.67022" y="266.992919" style="stroke: #000000"/>
     <use xlink:href="#m5160fae35a" x="199.977994" y="266.274612" style="stroke: #000000"/>
     <use xlink:href="#m5160fae35a" x="198.311868" y="265.497685" style="stroke: #000000"/>
     <use xlink:href="#m5160fae35a" x="197.489228" y="265.087532" style="stroke: #000000"/>
     <use xlink:href="#m5160fae35a" x="196.673872" y="264.663084" style="stroke: #000000"/>
     <use xlink:href="#m5160fae35a" x="195.866047" y="264.224471" style="stroke: #000000"/>
     <use xlink:href="#m5160fae35a" x="195.066" y="263.771826" style="stroke: #000000"/>
     <use xlink:href="#m5160fae35a" x="194.273975" y="263.305287" style="stroke: #000000"/>
     <use xlink:href="#m5160fae35a" x="193.490212" y="262.824997" style="stroke: #000000"/>
     <use xlink:href="#m5160fae35a" x="192.714951" y="262.331101" style="stroke: #000000"/>
     <use xlink:href="#m5160fae35a" x="191.948428" y="261.823751" style="stroke: #000000"/>
     <use xlink:href="#m5160fae35a" x="191.190876" y="261.3031" style="stroke: #000000"/>
     <use xlink:href="#m5160fae35a" x="190.442526" y="260.769307" style="stroke: #000000"/>
     <use xlink:href="#m5160fae35a" x="189.703606" y="260.222535" style="stroke: #000000"/>
     <use xlink:href="#m5160fae35a" x="188.974341" y="259.66295" style="stroke: #000000"/>
     <use xlink:href="#m5160fae35a" x="188.254954" y="259.090723" style="stroke: #000000"/>
     <use xlink:href="#m5160fae35a" x="187.545662" y="258.506029" style="stroke: #000000"/>
     <use xlink:href="#m5160fae35a" x="186.846683" y="257.909044" style="stroke: #000000"/>
     <use xlink:href="#m5160fae35a" x="186.158229" y="257.299952" style="stroke: #000000"/>
     <use xlink:href="#m5160fae35a" x="185.48051" y="256.678937" style="stroke: #000000"/>
     <use xlink:href="#m5160fae35a" x="184.813733" y="256.046189" style="stroke: #000000"/>
     <use xlink:href="#m5160fae35a" x="182.516806" y="255.709064" style="stroke: #000000"/>
     <use xlink:href="#m5160fae35a" x="181.23005" y="254.329186" style="stroke: #000000"/>
     <use xlink:href="#m5160fae35a" x="180.604928" y="253.622615" style="stroke: #000000"/>
     <use xlink:href="#m5160fae35a" x="179.992234" y="252.905241" style="stroke: #000000"/>
     <use xlink:href="#m5160fae35a" x="179.392152" y="252.177284" style="stroke: #000000"/>
     <use xlink:href="#m5160fae35a" x="178.804867" y="251.438965" style="stroke: #000000"/>
     <use xlink:href="#m5160fae35a" x="178.230556" y="250.690509" style="stroke: #000000"/>
     <use xlink:href="#m5160fae35a" x="177.669395" y="249.932144" style="stroke: #000000"/>
     <use xlink:href="#m5160fae35a" x="176.587203" y="248.386613" style="stroke: #000000"/>
     <use xlink:href="#m5160fae35a" x="176.066501" y="247.599918" style="stroke: #000000"/>
     <use xlink:href="#m5160fae35a" x="175.559608" y="246.804256" style="stroke: #000000"/>
     <use xlink:href="#m5160fae35a" x="175.066679" y="245.999868" style="stroke: #000000"/>
     <use xlink:href="#m5160fae35a" x="174.587863" y="245.187" style="stroke: #000000"/>
     <use xlink:href="#m5160fae35a" x="174.123306" y="244.365899" style="stroke: #000000"/>
     <use xlink:href="#m5160fae35a" x="173.673151" y="243.536816" style="stroke: #000000"/>
     <use xlink:href="#m5160fae35a" x="172.410439" y="241.004208" style="stroke: #000000"/>
     <use xlink:href="#m5160fae35a" x="172.019214" y="240.145743" style="stroke: #000000"/>
     <use xlink:href="#m5160fae35a" x="171.643031" y="239.28058" style="stroke: #000000"/>
     <use xlink:href="#m5160fae35a" x="171.282004" y="238.408985" style="stroke: #000000"/>
     <use xlink:href="#m5160fae35a" x="170.936244" y="237.531221" style="stroke: #000000"/>
     <use xlink:href="#m5160fae35a" x="170.605855" y="236.647557" style="stroke: #000000"/>
     <use xlink:href="#m5160fae35a" x="170.290939" y="235.758261" style="stroke: #000000"/>
     <use xlink:href="#m5160fae35a" x="169.991591" y="234.863605" style="stroke: #000000"/>
     <use xlink:href="#m5160fae35a" x="169.707903" y="233.96386" style="stroke: #000000"/>
     <use xlink:href="#m5160fae35a" x="169.43996" y="233.059302" style="stroke: #000000"/>
     <use xlink:href="#m5160fae35a" x="169.187845" y="232.150205" style="stroke: #000000"/>
     <use xlink:href="#m5160fae35a" x="168.951635" y="231.236846" style="stroke: #000000"/>
     <use xlink:href="#m5160fae35a" x="168.731401" y="230.319504" style="stroke: #000000"/>
     <use xlink:href="#m5160fae35a" x="168.52721" y="229.398459" style="stroke: #000000"/>
     <use xlink:href="#m5160fae35a" x="168.339124" y="228.473989" style="stroke: #000000"/>
     <use xlink:href="#m5160fae35a" x="168.167202" y="227.546379" style="stroke: #000000"/>
     <use xlink:href="#m5160fae35a" x="168.011494" y="226.615909" style="stroke: #000000"/>
     <use xlink:href="#m5160fae35a" x="167.87205" y="225.682863" style="stroke: #000000"/>
     <use xlink:href="#m5160fae35a" x="167.74891" y="224.747525" style="stroke: #000000"/>
     <use xlink:href="#m5160fae35a" x="167.642113" y="223.810182" style="stroke: #000000"/>
     <use xlink:href="#m5160fae35a" x="167.378928" y="220.046457" style="stroke: #000000"/>
     <use xlink:href="#m5160fae35a" x="167.354233" y="219.103372" style="stroke: #000000"/>
     <use xlink:href="#m5160fae35a" x="167.346" y="218.16" style="stroke: #000000"/>
     <use xlink:href="#m5160fae35a" x="167.354233" y="217.216628" style="stroke: #000000"/>
     <use xlink:href="#m5160fae35a" x="167.477673" y="214.389384" style="stroke: #000000"/>
     <use xlink:href="#m5160fae35a" x="167.551692" y="213.448883" style="stroke: #000000"/>
     <use xlink:href="#m5160fae35a" x="167.642113" y="212.509818" style="stroke: #000000"/>
     <use xlink:href="#m5160fae35a" x="167.74891" y="211.572475" style="stroke: #000000"/>
     <use xlink:href="#m5160fae35a" x="167.87205" y="210.637137" style="stroke: #000000"/>
     <use xlink:href="#m5160fae35a" x="168.011494" y="209.704091" style="stroke: #000000"/>
     <use xlink:href="#m5160fae35a" x="168.167202" y="208.773621" style="stroke: #000000"/>
     <use xlink:href="#m5160fae35a" x="168.339124" y="207.846011" style="stroke: #000000"/>
     <use xlink:href="#m5160fae35a" x="168.52721" y="206.921541" style="stroke: #000000"/>
     <use xlink:href="#m5160fae35a" x="168.731401" y="206.000496" style="stroke: #000000"/>
     <use xlink:href="#m5160fae35a" x="168.951635" y="205.083154" style="stroke: #000000"/>
     <use xlink:href="#m5160fae35a" x="169.991591" y="201.456395" style="stroke: #000000"/>
     <use xlink:href="#m5160fae35a" x="170.290939" y="200.561739" style="stroke: #000000"/>
     <use xlink:href="#m5160fae35a" x="170.605855" y="199.672443" style="stroke: #000000"/>
     <use xlink:href="#m5160fae35a" x="170.936244" y="198.788779" style="stroke: #000000"/>
     <use xlink:href="#m5160fae35a" x="171.282004" y="197.911015" style="stroke: #000000"/>
     <use xlink:href="#m5160fae35a" x="171.643031" y="197.03942" style="stroke: #000000"/>
     <use xlink:href="#m5160fae35a" x="173.237533" y="193.619998" style="stroke: #000000"/>
     <use xlink:href="#m5160fae35a" x="173.673151" y="192.783184" style="stroke: #000000"/>
     <use xlink:href="#m5160fae35a" x="174.123306" y="191.954101" style="stroke: #000000"/>
     <use xlink:href="#m5160fae35a" x="174.587863" y="191.133" style="stroke: #000000"/>
     <use xlink:href="#m5160fae35a" x="175.066679" y="190.320132" style="stroke: #000000"/>
     <use xlink:href="#m5160fae35a" x="175.559608" y="189.515744" style="stroke: #000000"/>
     <use xlink:href="#m5160fae35a" x="176.066501" y="188.720082" style="stroke: #000000"/>
     <use xlink:href="#m5160fae35a" x="176.587203" y="187.933387" style="stroke: #000000"/>
     <use xlink:href="#m5160fae35a" x="177.121555" y="187.155899" style="stroke: #000000"/>
     <use xlink:href="#m5160fae35a" x="177.669395" y="186.387856" style="stroke: #000000"/>
     <use xlink:href="#m5160fae35a" x="178.230556" y="185.629491" style="stroke: #000000"/>
     <use xlink:href="#m5160fae35a" x="178.804867" y="184.881035" style="stroke: #000000"/>
     <use xlink:href="#m5160fae35a" x="179.392152" y="184.142716" style="stroke: #000000"/>
     <use xlink:href="#m5160fae35a" x="179.992234" y="183.414759" style="stroke: #000000"/>
     <use xlink:href="#m5160fae35a" x="180.604928" y="182.697385" style="stroke: #000000"/>
     <use xlink:href="#m5160fae35a" x="181.23005" y="181.990814" style="stroke: #000000"/>
     <use xlink:href="#m5160fae35a" x="181.867407" y="181.295261" style="stroke: #000000"/>
     <use xlink:href="#m5160fae35a" x="186.654759" y="176.752234" style="stroke: #000000"/>
     <use xlink:href="#m5160fae35a" x="187.382716" y="176.152152" style="stroke: #000000"/>
     <use xlink:href="#m5160fae35a" x="188.121035" y="175.564867" style="stroke: #000000"/>
     <use xlink:href="#m5160fae35a" x="188.869491" y="174.990556" style="stroke: #000000"/>
     <use xlink:href="#m5160fae35a" x="189.627856" y="174.429395" style="stroke: #000000"/>
     <use xlink:href="#m5160fae35a" x="190.395899" y="173.881555" style="stroke: #000000"/>
     <use xlink:href="#m5160fae35a" x="192.755744" y="172.319608" style="stroke: #000000"/>
     <use xlink:href="#m5160fae35a" x="193.560132" y="171.826679" style="stroke: #000000"/>
     <use xlink:href="#m5160fae35a" x="194.373" y="171.347863" style="stroke: #000000"/>
     <use xlink:href="#m5160fae35a" x="195.194101" y="170.883306" style="stroke: #000000"/>
     <use xlink:href="#m5160fae35a" x="197.704286" y="169.576587" style="stroke: #000000"/>
     <use xlink:href="#m5160fae35a" x="198.555792" y="169.170439" style="stroke: #000000"/>
     <use xlink:href="#m5160fae35a" x="199.414257" y="168.779214" style="stroke: #000000"/>
     <use xlink:href="#m5160fae35a" x="202.028779" y="167.696244" style="stroke: #000000"/>
     <use xlink:href="#m5160fae35a" x="202.912443" y="167.365855" style="stroke: #000000"/>
     <use xlink:href="#m5160fae35a" x="203.801739" y="167.050939" style="stroke: #000000"/>
     <use xlink:href="#m5160fae35a" x="204.696395" y="166.751591" style="stroke: #000000"/>
     <use xlink:href="#m5160fae35a" x="205.59614" y="166.467903" style="stroke: #000000"/>
     <use xlink:href="#m5160fae35a" x="206.500698" y="166.19996" style="stroke: #000000"/>
     <use xlink:href="#m5160fae35a" x="207.409795" y="165.947845" style="stroke: #000000"/>
     <use xlink:href="#m5160fae35a" x="208.323154" y="165.711635" style="stroke: #000000"/>
     <use xlink:href="#m5160fae35a" x="212.013621" y="164.927202" style="stroke: #000000"/>
     <use xlink:href="#m5160fae35a" x="212.944091" y="164.771494" style="stroke: #000000"/>
     <use xlink:href="#m5160fae35a" x="213.877137" y="164.63205" style="stroke: #000000"/>
     <use xlink:href="#m5160fae35a" x="214.812475" y="164.50891" style="stroke: #000000"/>
     <use xlink:href="#m5160fae35a" x="216.688883" y="164.311692" style="stroke: #000000"/>
     <use xlink:href="#m5160fae35a" x="217.629384" y="164.237673" style="stroke: #000000"/>
     <use xlink:href="#m5160fae35a" x="218.571032" y="164.180079" style="stroke: #000000"/>
     <use xlink:href="#m5160fae35a" x="219.513543" y="164.138928" style="stroke: #000000"/>
     <use xlink:href="#m5160fae35a" x="220.456628" y="164.114233" style="stroke: #000000"/>
     <use xlink:href="#m5160fae35a" x="223.286457" y="164.138928" style="stroke: #000000"/>
     <use xlink:href="#m5160fae35a" x="224.228968" y="164.180079" style="stroke: #000000"/>
     <use xlink:href="#m5160fae35a" x="225.073934" y="165.620297" style="stroke: #000000"/>
     <use xlink:href="#m5160fae35a" x="225.990319" y="165.692418" style="stroke: #000000"/>
     <use xlink:href="#m5160fae35a" x="228.729969" y="166.004561" style="stroke: #000000"/>
     <use xlink:href="#m5160fae35a" x="229.855909" y="164.771494" style="stroke: #000000"/>
     <use xlink:href="#m5160fae35a" x="230.786379" y="164.927202" style="stroke: #000000"/>
     <use xlink:href="#m5160fae35a" x="231.713989" y="165.099124" style="stroke: #000000"/>
     <use xlink:href="#m5160fae35a" x="232.638459" y="165.28721" style="stroke: #000000"/>
     <use xlink:href="#m5160fae35a" x="233.559504" y="165.491401" style="stroke: #000000"/>
     <use xlink:href="#m5160fae35a" x="234.476846" y="165.711635" style="stroke: #000000"/>
     <use xlink:href="#m5160fae35a" x="235.917268" y="167.532269" style="stroke: #000000"/>
     <use xlink:href="#m5160fae35a" x="237.20386" y="166.467903" style="stroke: #000000"/>
     <use xlink:href="#m5160fae35a" x="238.103605" y="166.751591" style="stroke: #000000"/>
     <use xlink:href="#m5160fae35a" x="238.998261" y="167.050939" style="stroke: #000000"/>
     <use xlink:href="#m5160fae35a" x="242.52058" y="168.403031" style="stroke: #000000"/>
     <use xlink:href="#m5160fae35a" x="243.385743" y="168.779214" style="stroke: #000000"/>
     <use xlink:href="#m5160fae35a" x="244.244208" y="169.170439" style="stroke: #000000"/>
     <use xlink:href="#m5160fae35a" x="245.095714" y="169.576587" style="stroke: #000000"/>
     <use xlink:href="#m5160fae35a" x="246.776816" y="170.433151" style="stroke: #000000"/>
     <use xlink:href="#m5160fae35a" x="247.605899" y="170.883306" style="stroke: #000000"/>
     <use xlink:href="#m5160fae35a" x="248.427" y="171.347863" style="stroke: #000000"/>
     <use xlink:href="#m5160fae35a" x="249.239868" y="171.826679" style="stroke: #000000"/>
     <use xlink:href="#m5160fae35a" x="250.044256" y="172.319608" style="stroke: #000000"/>
     <use xlink:href="#m5160fae35a" x="250.839918" y="172.826501" style="stroke: #000000"/>
     <use xlink:href="#m5160fae35a" x="251.626613" y="173.347203" style="stroke: #000000"/>
     <use xlink:href="#m5160fae35a" x="252.404101" y="173.881555" style="stroke: #000000"/>
     <use xlink:href="#m5160fae35a" x="253.172144" y="174.429395" style="stroke: #000000"/>
     <use xlink:href="#m5160fae35a" x="255.417284" y="176.152152" style="stroke: #000000"/>
     <use xlink:href="#m5160fae35a" x="256.145241" y="176.752234" style="stroke: #000000"/>
     <use xlink:href="#m5160fae35a" x="257.569186" y="177.99005" style="stroke: #000000"/>
     <use xlink:href="#m5160fae35a" x="258.264739" y="178.627407" style="stroke: #000000"/>
     <use xlink:href="#m5160fae35a" x="260.932593" y="181.295261" style="stroke: #000000"/>
     <use xlink:href="#m5160fae35a" x="261.56995" y="181.990814" style="stroke: #000000"/>
     <use xlink:href="#m5160fae35a" x="262.195072" y="182.697385" style="stroke: #000000"/>
     <use xlink:href="#m5160fae35a" x="262.807766" y="183.414759" style="stroke: #000000"/>
     <use xlink:href="#m5160fae35a" x="263.995133" y="184.881035" style="stroke: #000000"/>
     <use xlink:href="#m5160fae35a" x="264.569444" y="185.629491" style="stroke: #000000"/>
     <use xlink:href="#m5160fae35a" x="265.130605" y="186.387856" style="stroke: #000000"/>
     <use xlink:href="#m5160fae35a" x="265.678445" y="187.155899" style="stroke: #000000"/>
     <use xlink:href="#m5160fae35a" x="266.733499" y="188.720082" style="stroke: #000000"/>
     <use xlink:href="#m5160fae35a" x="267.240392" y="189.515744" style="stroke: #000000"/>
     <use xlink:href="#m5160fae35a" x="267.733321" y="190.320132" style="stroke: #000000"/>
     <use xlink:href="#m5160fae35a" x="268.212137" y="191.133" style="stroke: #000000"/>
     <use xlink:href="#m5160fae35a" x="268.676694" y="191.954101" style="stroke: #000000"/>
     <use xlink:href="#m5160fae35a" x="269.126849" y="192.783184" style="stroke: #000000"/>
     <use xlink:href="#m5160fae35a" x="268.327532" y="194.249228" style="stroke: #000000"/>
     <use xlink:href="#m5160fae35a" x="270.569814" y="199.285477" style="stroke: #000000"/>
     <use xlink:href="#m5160fae35a" x="272.194145" y="199.672443" style="stroke: #000000"/>
     <use xlink:href="#m5160fae35a" x="272.509061" y="200.561739" style="stroke: #000000"/>
     <use xlink:href="#m5160fae35a" x="272.808409" y="201.456395" style="stroke: #000000"/>
     <use xlink:href="#m5160fae35a" x="274.27279" y="206.921541" style="stroke: #000000"/>
     <use xlink:href="#m5160fae35a" x="274.460876" y="207.846011" style="stroke: #000000"/>
     <use xlink:href="#m5160fae35a" x="274.632798" y="208.773621" style="stroke: #000000"/>
     <use xlink:href="#m5160fae35a" x="274.788506" y="209.704091" style="stroke: #000000"/>
     <use xlink:href="#m5160fae35a" x="276.300462" y="210.444243" style="stroke: #000000"/>
     <use xlink:href="#m5160fae35a" x="276.426759" y="211.403564" style="stroke: #000000"/>
     <use xlink:href="#m5160fae35a" x="276.536294" y="212.364942" style="stroke: #000000"/>
     <use xlink:href="#m5160fae35a" x="276.629034" y="213.328086" style="stroke: #000000"/>
     <use xlink:href="#m5160fae35a" x="276.704951" y="214.292701" style="stroke: #000000"/>
     <use xlink:href="#m5160fae35a" x="276.84" y="218.16" style="stroke: #000000"/>
     <use xlink:href="#m5160fae35a" x="276.831556" y="219.127561" style="stroke: #000000"/>
     <use xlink:href="#m5160fae35a" x="275.421072" y="220.046457" style="stroke: #000000"/>
     <use xlink:href="#m5160fae35a" x="275.379921" y="220.988968" style="stroke: #000000"/>
     <use xlink:href="#m5160fae35a" x="275.322327" y="221.930616" style="stroke: #000000"/>
     <use xlink:href="#m5160fae35a" x="274.632798" y="227.546379" style="stroke: #000000"/>
     <use xlink:href="#m5160fae35a" x="274.460876" y="228.473989" style="stroke: #000000"/>
     <use xlink:href="#m5160fae35a" x="274.27279" y="229.398459" style="stroke: #000000"/>
     <use xlink:href="#m5160fae35a" x="274.068599" y="230.319504" style="stroke: #000000"/>
     <use xlink:href="#m5160fae35a" x="273.848365" y="231.236846" style="stroke: #000000"/>
     <use xlink:href="#m5160fae35a" x="273.612155" y="232.150205" style="stroke: #000000"/>
     <use xlink:href="#m5160fae35a" x="272.194145" y="236.647557" style="stroke: #000000"/>
     <use xlink:href="#m5160fae35a" x="271.863756" y="237.531221" style="stroke: #000000"/>
     <use xlink:href="#m5160fae35a" x="271.517996" y="238.408985" style="stroke: #000000"/>
     <use xlink:href="#m5160fae35a" x="271.156969" y="239.28058" style="stroke: #000000"/>
     <use xlink:href="#m5160fae35a" x="269.983413" y="241.855714" style="stroke: #000000"/>
     <use xlink:href="#m5160fae35a" x="269.562467" y="242.700002" style="stroke: #000000"/>
     <use xlink:href="#m5160fae35a" x="269.126849" y="243.536816" style="stroke: #000000"/>
     <use xlink:href="#m5160fae35a" x="268.676694" y="244.365899" style="stroke: #000000"/>
     <use xlink:href="#m5160fae35a" x="268.212137" y="245.187" style="stroke: #000000"/>
     <use xlink:href="#m5160fae35a" x="267.733321" y="245.999868" style="stroke: #000000"/>
     <use xlink:href="#m5160fae35a" x="267.240392" y="246.804256" style="stroke: #000000"/>
     <use xlink:href="#m5160fae35a" x="265.571101" y="246.845049" style="stroke: #000000"/>
     <use xlink:href="#m5160fae35a" x="265.678445" y="249.164101" style="stroke: #000000"/>
     <use xlink:href="#m5160fae35a" x="265.130605" y="249.932144" style="stroke: #000000"/>
     <use xlink:href="#m5160fae35a" x="264.569444" y="250.690509" style="stroke: #000000"/>
     <use xlink:href="#m5160fae35a" x="263.995133" y="251.438965" style="stroke: #000000"/>
     <use xlink:href="#m5160fae35a" x="263.407848" y="252.177284" style="stroke: #000000"/>
     <use xlink:href="#m5160fae35a" x="262.807766" y="252.905241" style="stroke: #000000"/>
     <use xlink:href="#m5160fae35a" x="262.195072" y="253.622615" style="stroke: #000000"/>
     <use xlink:href="#m5160fae35a" x="261.56995" y="254.329186" style="stroke: #000000"/>
     <use xlink:href="#m5160fae35a" x="260.932593" y="255.024739" style="stroke: #000000"/>
     <use xlink:href="#m5160fae35a" x="250.839918" y="263.493499" style="stroke: #000000"/>
     <use xlink:href="#m5160fae35a" x="250.044256" y="264.000392" style="stroke: #000000"/>
     <use xlink:href="#m5160fae35a" x="249.239868" y="264.493321" style="stroke: #000000"/>
     <use xlink:href="#m5160fae35a" x="248.427" y="264.972137" style="stroke: #000000"/>
     <use xlink:href="#m5160fae35a" x="247.605899" y="265.436694" style="stroke: #000000"/>
     <use xlink:href="#m5160fae35a" x="246.776816" y="265.886849" style="stroke: #000000"/>
     <use xlink:href="#m5160fae35a" x="245.095714" y="266.743413" style="stroke: #000000"/>
     <use xlink:href="#m5160fae35a" x="244.244208" y="267.149561" style="stroke: #000000"/>
     <use xlink:href="#m5160fae35a" x="243.385743" y="267.540786" style="stroke: #000000"/>
     <use xlink:href="#m5160fae35a" x="241.648985" y="268.277996" style="stroke: #000000"/>
     <use xlink:href="#m5160fae35a" x="240.771221" y="268.623756" style="stroke: #000000"/>
     <use xlink:href="#m5160fae35a" x="239.887557" y="268.954145" style="stroke: #000000"/>
     <use xlink:href="#m5160fae35a" x="238.998261" y="269.269061" style="stroke: #000000"/>
     <use xlink:href="#m5160fae35a" x="238.103605" y="269.568409" style="stroke: #000000"/>
     <use xlink:href="#m5160fae35a" x="237.20386" y="269.852097" style="stroke: #000000"/>
     <use xlink:href="#m5160fae35a" x="236.299302" y="270.12004" style="stroke: #000000"/>
     <use xlink:href="#m5160fae35a" x="235.390205" y="270.372155" style="stroke: #000000"/>
     <use xlink:href="#m5160fae35a" x="231.713989" y="271.220876" style="stroke: #000000"/>
     <use xlink:href="#m5160fae35a" x="230.786379" y="271.392798" style="stroke: #000000"/>
     <use xlink:href="#m5160fae35a" x="229.855909" y="271.548506" style="stroke: #000000"/>
     <use xlink:href="#m5160fae35a" x="228.922863" y="271.68795" style="stroke: #000000"/>
     <use xlink:href="#m5160fae35a" x="227.987525" y="271.81109" style="stroke: #000000"/>
     <use xlink:href="#m5160fae35a" x="224.228968" y="272.139921" style="stroke: #000000"/>
     <use xlink:href="#m5160fae35a" x="223.286457" y="272.181072" style="stroke: #000000"/>
     <use xlink:href="#m5160fae35a" x="222.343372" y="272.205767" style="stroke: #000000"/>
     <use xlink:href="#m5160fae35a" x="221.4" y="272.214" style="stroke: #000000"/>
    </g>
   </g>
   <g id="patch_3">
    <path d="M 221.4 51.84 
C 199.559058 51.84 177.930491 56.142189 157.752092 64.500356 
C 137.573692 72.858523 119.237879 85.110122 103.794 100.554 
C 88.350122 115.997879 76.098523 134.333692 67.740356 154.512092 
C 59.382189 174.690491 55.08 196.319058 55.08 218.16 
C 55.08 240.000942 59.382189 261.629509 67.740356 281.807908 
C 76.098523 301.986308 88.350122 320.322121 103.794 335.766 
C 119.237879 351.209878 137.573692 363.461477 157.752092 371.819644 
C 177.930491 380.177811 199.559058 384.48 221.4 384.48 
C 243.240942 384.48 264.869509 380.177811 285.047908 371.819644 
C 305.226308 363.461477 323.562121 351.209878 339.006 335.766 
C 354.449878 320.322121 366.701477 301.986308 375.059644 281.807908 
C 383.417811 261.629509 387.72 240.000942 387.72 218.16 
C 387.72 196.319058 383.417811 174.690491 375.059644 154.512092 
C 366.701477 134.333692 354.449878 115.997879 339.006 100.554 
C 323.562121 85.110122 305.226308 72.858523 285.047908 64.500356 
C 264.869509 56.142189 243.240942 51.84 221.4 51.84 
" style="fill: none; stroke: #ffffff; stroke-width: 1.25; stroke-linejoin: miter; stroke-linecap: square"/>
   </g>
  </g>
 </g>
 <defs>
  <clipPath id="p3c3bc285a3">
   <path d="M 387.72 218.16 
C 387.72 196.319058 383.417811 174.690491 375.059644 154.512092 
C 366.701477 134.333692 354.449878 115.997879 339.006 100.554 
C 323.562121 85.110122 305.226308 72.858523 285.047908 64.500356 
C 264.869509 56.142189 243.240942 51.84 221.4 51.84 
C 199.559058 51.84 177.930491 56.142189 157.752092 64.500356 
C 137.573692 72.858523 119.237879 85.110122 103.794 100.554 
C 88.350122 115.997879 76.098523 134.333692 67.740356 154.512092 
C 59.382189 174.690491 55.08 196.319058 55.08 218.16 
C 55.08 240.000942 59.382189 261.629509 67.740356 281.807908 
C 76.098523 301.986308 88.350122 320.322121 103.794 335.766 
C 119.237879 351.209878 137.573692 363.461477 157.752092 371.819644 
C 177.930491 380.177811 199.559058 384.48 221.4 384.48 
C 243.240942 384.48 264.869509 380.177811 285.047908 371.819644 
C 305.226308 363.461477 323.562121 351.209878 339.006 335.766 
C 354.449878 320.322121 366.701477 301.986308 375.059644 281.807908 
C 383.417811 261.629509 387.72 240.000942 387.72 218.16 
M 221.4 218.16 
C 221.4 218.16 221.4 218.16 221.4 218.16 
C 221.4 218.16 221.4 218.16 221.4 218.16 
C 221.4 218.16 221.4 218.16 221.4 218.16 
C 221.4 218.16 221.4 218.16 221.4 218.16 
C 221.4 218.16 221.4 218.16 221.4 218.16 
C 221.4 218.16 221.4 218.16 221.4 218.16 
C 221.4 218.16 221.4 218.16 221.4 218.16 
C 221.4 218.16 221.4 218.16 221.4 218.16 
C 221.4 218.16 221.4 218.16 221.4 218.16 
C 221.4 218.16 221.4 218.16 221.4 218.16 
C 221.4 218.16 221.4 218.16 221.4 218.16 
C 221.4 218.16 221.4 218.16 221.4 218.16 
C 221.4 218.16 221.4 218.16 221.4 218.16 
C 221.4 218.16 221.4 218.16 221.4 218.16 
C 221.4 218.16 221.4 218.16 221.4 218.16 
C 221.4 218.16 221.4 218.16 221.4 218.16 
z
"/>
  </clipPath>
 </defs>
</svg>
