<?xml version="1.0" encoding="utf-8" standalone="no"?>
<!DOCTYPE svg PUBLIC "-//W3C//DTD SVG 1.1//EN"
  "http://www.w3.org/Graphics/SVG/1.1/DTD/svg11.dtd">
<svg xmlns:xlink="http://www.w3.org/1999/xlink" width="432pt" height="432pt" viewBox="0 0 432 432" xmlns="http://www.w3.org/2000/svg" version="1.1">
 <metadata>
  <rdf:RDF xmlns:dc="http://purl.org/dc/elements/1.1/" xmlns:cc="http://creativecommons.org/ns#" xmlns:rdf="http://www.w3.org/1999/02/22-rdf-syntax-ns#">
   <cc:Work>
    <dc:type rdf:resource="http://purl.org/dc/dcmitype/StillImage"/>
    <dc:date>2024-09-11T16:26:30.217573</dc:date>
    <dc:format>image/svg+xml</dc:format>
    <dc:creator>
     <cc:Agent>
      <dc:title>Matplotlib v3.9.1, https://matplotlib.org/</dc:title>
     </cc:Agent>
    </dc:creator>
   </cc:Work>
  </rdf:RDF>
 </metadata>
 <defs>
  <style type="text/css">*{stroke-linejoin: round; stroke-linecap: butt}</style>
 </defs>
 <g id="figure_1">
  <g id="patch_1">
   <path d="M 0 432 
L 432 432 
L 432 0 
L 0 0 
z
" style="fill: #ffffff"/>
  </g>
  <g id="axes_1">
   <g id="patch_2">
    <path d="M 387.72 218.16 
C 387.72 196.319058 383.417811 174.690491 375.059644 154.512092 
C 366.701477 134.333692 354.449878 115.997879 339.006 100.554 
C 323.562121 85.110122 305.226308 72.858523 285.047908 64.500356 
C 264.869509 56.142189 243.240942 51.84 221.4 51.84 
C 199.559058 51.84 177.930491 56.142189 157.752092 64.500356 
C 137.573692 72.858523 119.237879 85.110122 103.794 100.554 
C 88.350122 115.997879 76.098523 134.333692 67.740356 154.512092 
C 59.382189 174.690491 55.08 196.319058 55.08 218.16 
C 55.08 240.000942 59.382189 261.629509 67.740356 281.807908 
C 76.098523 301.986308 88.350122 320.322121 103.794 335.766 
C 119.237879 351.209878 137.573692 363.461477 157.752092 371.819644 
C 177.930491 380.177811 199.559058 384.48 221.4 384.48 
C 243.240942 384.48 264.869509 380.177811 285.047908 371.819644 
C 305.226308 363.461477 323.562121 351.209878 339.006 335.766 
C 354.449878 320.322121 366.701477 301.986308 375.059644 281.807908 
C 383.417811 261.629509 387.72 240.000942 387.72 218.16 
M 221.4 218.16 
C 221.4 218.16 221.4 218.16 221.4 218.16 
C 221.4 218.16 221.4 218.16 221.4 218.16 
C 221.4 218.16 221.4 218.16 221.4 218.16 
C 221.4 218.16 221.4 218.16 221.4 218.16 
C 221.4 218.16 221.4 218.16 221.4 218.16 
C 221.4 218.16 221.4 218.16 221.4 218.16 
C 221.4 218.16 221.4 218.16 221.4 218.16 
C 221.4 218.16 221.4 218.16 221.4 218.16 
C 221.4 218.16 221.4 218.16 221.4 218.16 
C 221.4 218.16 221.4 218.16 221.4 218.16 
C 221.4 218.16 221.4 218.16 221.4 218.16 
C 221.4 218.16 221.4 218.16 221.4 218.16 
C 221.4 218.16 221.4 218.16 221.4 218.16 
C 221.4 218.16 221.4 218.16 221.4 218.16 
C 221.4 218.16 221.4 218.16 221.4 218.16 
C 221.4 218.16 221.4 218.16 221.4 218.16 
z
" style="fill: #eaeaf2"/>
   </g>
   <g id="matplotlib.axis_1">
    <g id="xtick_1">
     <g id="line2d_1">
      <path d="M 221.4 218.16 
L 221.4 51.84 
" clip-path="url(#p2d71be413d)" style="fill: none; stroke: #ffffff; stroke-linecap: round"/>
     </g>
     <g id="text_1">
      <!-- 0° -->
      <g style="fill: #262626" transform="translate(216.142344 38.183672) scale(0.11 -0.11)">
       <defs>
        <path id="ArialMT-30" d="M 266 2259 
Q 266 3072 433 3567 
Q 600 4063 929 4331 
Q 1259 4600 1759 4600 
Q 2128 4600 2406 4451 
Q 2684 4303 2865 4023 
Q 3047 3744 3150 3342 
Q 3253 2941 3253 2259 
Q 3253 1453 3087 958 
Q 2922 463 2592 192 
Q 2263 -78 1759 -78 
Q 1097 -78 719 397 
Q 266 969 266 2259 
z
M 844 2259 
Q 844 1131 1108 757 
Q 1372 384 1759 384 
Q 2147 384 2411 759 
Q 2675 1134 2675 2259 
Q 2675 3391 2411 3762 
Q 2147 4134 1753 4134 
Q 1366 4134 1134 3806 
Q 844 3388 844 2259 
z
" transform="scale(0.015625)"/>
        <path id="ArialMT-b0" d="M 400 3794 
Q 400 4153 654 4406 
Q 909 4659 1266 4659 
Q 1628 4659 1881 4406 
Q 2134 4153 2134 3794 
Q 2134 3434 1879 3179 
Q 1625 2925 1266 2925 
Q 909 2925 654 3178 
Q 400 3431 400 3794 
z
M 741 3794 
Q 741 3575 895 3420 
Q 1050 3266 1269 3266 
Q 1484 3266 1639 3420 
Q 1794 3575 1794 3794 
Q 1794 4013 1639 4167 
Q 1484 4322 1269 4322 
Q 1050 4322 895 4167 
Q 741 4013 741 3794 
z
" transform="scale(0.015625)"/>
       </defs>
       <use xlink:href="#ArialMT-30"/>
       <use xlink:href="#ArialMT-b0" x="55.615234"/>
      </g>
     </g>
    </g>
    <g id="xtick_2">
     <g id="line2d_2">
      <path d="M 221.4 218.16 
L 339.006 100.554 
" clip-path="url(#p2d71be413d)" style="fill: none; stroke: #ffffff; stroke-linecap: round"/>
     </g>
     <g id="text_2">
      <!-- 45° -->
      <g style="fill: #262626" transform="translate(342.35709 91.73041) scale(0.11 -0.11)">
       <defs>
        <path id="ArialMT-34" d="M 2069 0 
L 2069 1097 
L 81 1097 
L 81 1613 
L 2172 4581 
L 2631 4581 
L 2631 1613 
L 3250 1613 
L 3250 1097 
L 2631 1097 
L 2631 0 
L 2069 0 
z
M 2069 1613 
L 2069 3678 
L 634 1613 
L 2069 1613 
z
" transform="scale(0.015625)"/>
        <path id="ArialMT-35" d="M 266 1200 
L 856 1250 
Q 922 819 1161 601 
Q 1400 384 1738 384 
Q 2144 384 2425 690 
Q 2706 997 2706 1503 
Q 2706 1984 2436 2262 
Q 2166 2541 1728 2541 
Q 1456 2541 1237 2417 
Q 1019 2294 894 2097 
L 366 2166 
L 809 4519 
L 3088 4519 
L 3088 3981 
L 1259 3981 
L 1013 2750 
Q 1425 3038 1878 3038 
Q 2478 3038 2890 2622 
Q 3303 2206 3303 1553 
Q 3303 931 2941 478 
Q 2500 -78 1738 -78 
Q 1113 -78 717 272 
Q 322 622 266 1200 
z
" transform="scale(0.015625)"/>
       </defs>
       <use xlink:href="#ArialMT-34"/>
       <use xlink:href="#ArialMT-35" x="55.615234"/>
       <use xlink:href="#ArialMT-b0" x="111.230469"/>
      </g>
     </g>
    </g>
    <g id="xtick_3">
     <g id="line2d_3">
      <path d="M 221.4 218.16 
L 387.72 218.16 
" clip-path="url(#p2d71be413d)" style="fill: none; stroke: #ffffff; stroke-linecap: round"/>
     </g>
     <g id="text_3">
      <!-- 90° -->
      <g style="fill: #262626" transform="translate(395.903828 221.003672) scale(0.11 -0.11)">
       <defs>
        <path id="ArialMT-39" d="M 350 1059 
L 891 1109 
Q 959 728 1153 556 
Q 1347 384 1650 384 
Q 1909 384 2104 503 
Q 2300 622 2425 820 
Q 2550 1019 2634 1356 
Q 2719 1694 2719 2044 
Q 2719 2081 2716 2156 
Q 2547 1888 2255 1720 
Q 1963 1553 1622 1553 
Q 1053 1553 659 1965 
Q 266 2378 266 3053 
Q 266 3750 677 4175 
Q 1088 4600 1706 4600 
Q 2153 4600 2523 4359 
Q 2894 4119 3086 3673 
Q 3278 3228 3278 2384 
Q 3278 1506 3087 986 
Q 2897 466 2520 194 
Q 2144 -78 1638 -78 
Q 1100 -78 759 220 
Q 419 519 350 1059 
z
M 2653 3081 
Q 2653 3566 2395 3850 
Q 2138 4134 1775 4134 
Q 1400 4134 1122 3828 
Q 844 3522 844 3034 
Q 844 2597 1108 2323 
Q 1372 2050 1759 2050 
Q 2150 2050 2401 2323 
Q 2653 2597 2653 3081 
z
" transform="scale(0.015625)"/>
       </defs>
       <use xlink:href="#ArialMT-39"/>
       <use xlink:href="#ArialMT-30" x="55.615234"/>
       <use xlink:href="#ArialMT-b0" x="111.230469"/>
      </g>
     </g>
    </g>
    <g id="xtick_4">
     <g id="line2d_4">
      <path d="M 221.4 218.16 
L 339.006 335.766 
" clip-path="url(#p2d71be413d)" style="fill: none; stroke: #ffffff; stroke-linecap: round"/>
     </g>
     <g id="text_4">
      <!-- 135° -->
      <g style="fill: #262626" transform="translate(339.298574 350.276934) scale(0.11 -0.11)">
       <defs>
        <path id="ArialMT-31" d="M 2384 0 
L 1822 0 
L 1822 3584 
Q 1619 3391 1289 3197 
Q 959 3003 697 2906 
L 697 3450 
Q 1169 3672 1522 3987 
Q 1875 4303 2022 4600 
L 2384 4600 
L 2384 0 
z
" transform="scale(0.015625)"/>
        <path id="ArialMT-33" d="M 269 1209 
L 831 1284 
Q 928 806 1161 595 
Q 1394 384 1728 384 
Q 2125 384 2398 659 
Q 2672 934 2672 1341 
Q 2672 1728 2419 1979 
Q 2166 2231 1775 2231 
Q 1616 2231 1378 2169 
L 1441 2663 
Q 1497 2656 1531 2656 
Q 1891 2656 2178 2843 
Q 2466 3031 2466 3422 
Q 2466 3731 2256 3934 
Q 2047 4138 1716 4138 
Q 1388 4138 1169 3931 
Q 950 3725 888 3313 
L 325 3413 
Q 428 3978 793 4289 
Q 1159 4600 1703 4600 
Q 2078 4600 2393 4439 
Q 2709 4278 2876 4000 
Q 3044 3722 3044 3409 
Q 3044 3113 2884 2869 
Q 2725 2625 2413 2481 
Q 2819 2388 3044 2092 
Q 3269 1797 3269 1353 
Q 3269 753 2831 336 
Q 2394 -81 1725 -81 
Q 1122 -81 723 278 
Q 325 638 269 1209 
z
" transform="scale(0.015625)"/>
       </defs>
       <use xlink:href="#ArialMT-31"/>
       <use xlink:href="#ArialMT-33" x="55.615234"/>
       <use xlink:href="#ArialMT-35" x="111.230469"/>
       <use xlink:href="#ArialMT-b0" x="166.845703"/>
      </g>
     </g>
    </g>
    <g id="xtick_5">
     <g id="line2d_5">
      <path d="M 221.4 218.16 
L 221.4 384.48 
" clip-path="url(#p2d71be413d)" style="fill: none; stroke: #ffffff; stroke-linecap: round"/>
     </g>
     <g id="text_5">
      <!-- 180° -->
      <g style="fill: #262626" transform="translate(210.025312 403.823672) scale(0.11 -0.11)">
       <defs>
        <path id="ArialMT-38" d="M 1131 2484 
Q 781 2613 612 2850 
Q 444 3088 444 3419 
Q 444 3919 803 4259 
Q 1163 4600 1759 4600 
Q 2359 4600 2725 4251 
Q 3091 3903 3091 3403 
Q 3091 3084 2923 2848 
Q 2756 2613 2416 2484 
Q 2838 2347 3058 2040 
Q 3278 1734 3278 1309 
Q 3278 722 2862 322 
Q 2447 -78 1769 -78 
Q 1091 -78 675 323 
Q 259 725 259 1325 
Q 259 1772 486 2073 
Q 713 2375 1131 2484 
z
M 1019 3438 
Q 1019 3113 1228 2906 
Q 1438 2700 1772 2700 
Q 2097 2700 2305 2904 
Q 2513 3109 2513 3406 
Q 2513 3716 2298 3927 
Q 2084 4138 1766 4138 
Q 1444 4138 1231 3931 
Q 1019 3725 1019 3438 
z
M 838 1322 
Q 838 1081 952 856 
Q 1066 631 1291 507 
Q 1516 384 1775 384 
Q 2178 384 2440 643 
Q 2703 903 2703 1303 
Q 2703 1709 2433 1975 
Q 2163 2241 1756 2241 
Q 1359 2241 1098 1978 
Q 838 1716 838 1322 
z
" transform="scale(0.015625)"/>
       </defs>
       <use xlink:href="#ArialMT-31"/>
       <use xlink:href="#ArialMT-38" x="55.615234"/>
       <use xlink:href="#ArialMT-30" x="111.230469"/>
       <use xlink:href="#ArialMT-b0" x="166.845703"/>
      </g>
     </g>
    </g>
    <g id="xtick_6">
     <g id="line2d_6">
      <path d="M 221.4 218.16 
L 103.794 335.766 
" clip-path="url(#p2d71be413d)" style="fill: none; stroke: #ffffff; stroke-linecap: round"/>
     </g>
     <g id="text_6">
      <!-- 225° -->
      <g style="fill: #262626" transform="translate(80.752051 350.276934) scale(0.11 -0.11)">
       <defs>
        <path id="ArialMT-32" d="M 3222 541 
L 3222 0 
L 194 0 
Q 188 203 259 391 
Q 375 700 629 1000 
Q 884 1300 1366 1694 
Q 2113 2306 2375 2664 
Q 2638 3022 2638 3341 
Q 2638 3675 2398 3904 
Q 2159 4134 1775 4134 
Q 1369 4134 1125 3890 
Q 881 3647 878 3216 
L 300 3275 
Q 359 3922 746 4261 
Q 1134 4600 1788 4600 
Q 2447 4600 2831 4234 
Q 3216 3869 3216 3328 
Q 3216 3053 3103 2787 
Q 2991 2522 2730 2228 
Q 2469 1934 1863 1422 
Q 1356 997 1212 845 
Q 1069 694 975 541 
L 3222 541 
z
" transform="scale(0.015625)"/>
       </defs>
       <use xlink:href="#ArialMT-32"/>
       <use xlink:href="#ArialMT-32" x="55.615234"/>
       <use xlink:href="#ArialMT-35" x="111.230469"/>
       <use xlink:href="#ArialMT-b0" x="166.845703"/>
      </g>
     </g>
    </g>
    <g id="xtick_7">
     <g id="line2d_7">
      <path d="M 221.4 218.16 
L 55.08 218.16 
" clip-path="url(#p2d71be413d)" style="fill: none; stroke: #ffffff; stroke-linecap: round"/>
     </g>
     <g id="text_7">
      <!-- 270° -->
      <g style="fill: #262626" transform="translate(27.205312 221.003672) scale(0.11 -0.11)">
       <defs>
        <path id="ArialMT-37" d="M 303 3981 
L 303 4522 
L 3269 4522 
L 3269 4084 
Q 2831 3619 2401 2847 
Q 1972 2075 1738 1259 
Q 1569 684 1522 0 
L 944 0 
Q 953 541 1156 1306 
Q 1359 2072 1739 2783 
Q 2119 3494 2547 3981 
L 303 3981 
z
" transform="scale(0.015625)"/>
       </defs>
       <use xlink:href="#ArialMT-32"/>
       <use xlink:href="#ArialMT-37" x="55.615234"/>
       <use xlink:href="#ArialMT-30" x="111.230469"/>
       <use xlink:href="#ArialMT-b0" x="166.845703"/>
      </g>
     </g>
    </g>
    <g id="xtick_8">
     <g id="line2d_8">
      <path d="M 221.4 218.16 
L 103.794 100.554 
" clip-path="url(#p2d71be413d)" style="fill: none; stroke: #ffffff; stroke-linecap: round"/>
     </g>
     <g id="text_8">
      <!-- 315° -->
      <g style="fill: #262626" transform="translate(80.752051 91.73041) scale(0.11 -0.11)">
       <use xlink:href="#ArialMT-33"/>
       <use xlink:href="#ArialMT-31" x="55.615234"/>
       <use xlink:href="#ArialMT-35" x="111.230469"/>
       <use xlink:href="#ArialMT-b0" x="166.845703"/>
      </g>
     </g>
    </g>
   </g>
   <g id="matplotlib.axis_2">
    <g id="ytick_1">
     <g id="line2d_9">
      <path d="M 221.4 218.16 
C 221.4 218.16 221.4 218.16 221.4 218.16 
C 221.4 218.16 221.4 218.16 221.4 218.16 
C 221.4 218.16 221.4 218.16 221.4 218.16 
C 221.4 218.16 221.4 218.16 221.4 218.16 
C 221.4 218.16 221.4 218.16 221.4 218.16 
C 221.4 218.16 221.4 218.16 221.4 218.16 
C 221.4 218.16 221.4 218.16 221.4 218.16 
C 221.4 218.16 221.4 218.16 221.4 218.16 
C 221.4 218.16 221.4 218.16 221.4 218.16 
C 221.4 218.16 221.4 218.16 221.4 218.16 
C 221.4 218.16 221.4 218.16 221.4 218.16 
C 221.4 218.16 221.4 218.16 221.4 218.16 
C 221.4 218.16 221.4 218.16 221.4 218.16 
C 221.4 218.16 221.4 218.16 221.4 218.16 
C 221.4 218.16 221.4 218.16 221.4 218.16 
C 221.4 218.16 221.4 218.16 221.4 218.16 
" clip-path="url(#p2d71be413d)" style="fill: none; stroke: #ffffff; stroke-linecap: round"/>
     </g>
     <g id="text_9">
      <!-- 0.0 -->
      <g style="fill: #dc143c" transform="translate(221.4 215.97375) scale(0.11 -0.11)">
       <defs>
        <path id="ArialMT-2e" d="M 581 0 
L 581 641 
L 1222 641 
L 1222 0 
L 581 0 
z
" transform="scale(0.015625)"/>
       </defs>
       <use xlink:href="#ArialMT-30"/>
       <use xlink:href="#ArialMT-2e" x="55.615234"/>
       <use xlink:href="#ArialMT-30" x="83.398438"/>
      </g>
     </g>
    </g>
    <g id="ytick_2">
     <g id="line2d_10">
      <path d="M 221.4 197.37 
C 224.130118 197.37 226.833689 197.907774 229.355989 198.952545 
C 231.878289 199.997315 234.170265 201.528765 236.10075 203.45925 
C 238.031235 205.389735 239.562685 207.681711 240.607455 210.204011 
C 241.652226 212.726311 242.19 215.429882 242.19 218.16 
C 242.19 220.890118 241.652226 223.593689 240.607455 226.115989 
C 239.562685 228.638289 238.031235 230.930265 236.10075 232.86075 
C 234.170265 234.791235 231.878289 236.322685 229.355989 237.367455 
C 226.833689 238.412226 224.130118 238.95 221.4 238.95 
C 218.669882 238.95 215.966311 238.412226 213.444011 237.367455 
C 210.921711 236.322685 208.629735 234.791235 206.69925 232.86075 
C 204.768765 230.930265 203.237315 228.638289 202.192545 226.115989 
C 201.147774 223.593689 200.61 220.890118 200.61 218.16 
C 200.61 215.429882 201.147774 212.726311 202.192545 210.204011 
C 203.237315 207.681711 204.768765 205.389735 206.69925 203.45925 
C 208.629735 201.528765 210.921711 199.997315 213.444011 198.952545 
C 215.966311 197.907774 218.669882 197.37 221.4 197.37 
" clip-path="url(#p2d71be413d)" style="fill: none; stroke: #ffffff; stroke-linecap: round"/>
     </g>
     <g id="text_10">
      <!-- 0.1 -->
      <g style="fill: #dc143c" transform="translate(229.355989 196.766295) scale(0.11 -0.11)">
       <use xlink:href="#ArialMT-30"/>
       <use xlink:href="#ArialMT-2e" x="55.615234"/>
       <use xlink:href="#ArialMT-31" x="83.398438"/>
      </g>
     </g>
    </g>
    <g id="ytick_3">
     <g id="line2d_11">
      <path d="M 221.4 176.58 
C 226.860236 176.58 232.267377 177.655547 237.311977 179.745089 
C 242.356577 181.834631 246.94053 184.89753 250.8015 188.7585 
C 254.66247 192.61947 257.725369 197.203423 259.814911 202.248023 
C 261.904453 207.292623 262.98 212.699764 262.98 218.16 
C 262.98 223.620236 261.904453 229.027377 259.814911 234.071977 
C 257.725369 239.116577 254.66247 243.70053 250.8015 247.5615 
C 246.94053 251.42247 242.356577 254.485369 237.311977 256.574911 
C 232.267377 258.664453 226.860236 259.74 221.4 259.74 
C 215.939764 259.74 210.532623 258.664453 205.488023 256.574911 
C 200.443423 254.485369 195.85947 251.42247 191.9985 247.5615 
C 188.13753 243.70053 185.074631 239.116577 182.985089 234.071977 
C 180.895547 229.027377 179.82 223.620236 179.82 218.16 
C 179.82 212.699764 180.895547 207.292623 182.985089 202.248023 
C 185.074631 197.203423 188.13753 192.61947 191.9985 188.7585 
C 195.85947 184.89753 200.443423 181.834631 205.488023 179.745089 
C 210.532623 177.655547 215.939764 176.58 221.4 176.58 
" clip-path="url(#p2d71be413d)" style="fill: none; stroke: #ffffff; stroke-linecap: round"/>
     </g>
     <g id="text_11">
      <!-- 0.2 -->
      <g style="fill: #dc143c" transform="translate(237.311977 177.558839) scale(0.11 -0.11)">
       <use xlink:href="#ArialMT-30"/>
       <use xlink:href="#ArialMT-2e" x="55.615234"/>
       <use xlink:href="#ArialMT-32" x="83.398438"/>
      </g>
     </g>
    </g>
    <g id="ytick_4">
     <g id="line2d_12">
      <path d="M 221.4 155.79 
C 229.590353 155.79 237.701066 157.403321 245.267966 160.537634 
C 252.834866 163.671946 259.710796 168.266296 265.50225 174.05775 
C 271.293704 179.849204 275.888054 186.725134 279.022366 194.292034 
C 282.156679 201.858934 283.77 209.969647 283.77 218.16 
C 283.77 226.350353 282.156679 234.461066 279.022366 242.027966 
C 275.888054 249.594866 271.293704 256.470796 265.50225 262.26225 
C 259.710796 268.053704 252.834866 272.648054 245.267966 275.782366 
C 237.701066 278.916679 229.590353 280.53 221.4 280.53 
C 213.209647 280.53 205.098934 278.916679 197.532034 275.782366 
C 189.965134 272.648054 183.089204 268.053704 177.29775 262.26225 
C 171.506296 256.470796 166.911946 249.594866 163.777634 242.027966 
C 160.643321 234.461066 159.03 226.350353 159.03 218.16 
C 159.03 209.969647 160.643321 201.858934 163.777634 194.292034 
C 166.911946 186.725134 171.506296 179.849204 177.29775 174.05775 
C 183.089204 168.266296 189.965134 163.671946 197.532034 160.537634 
C 205.098934 157.403321 213.209647 155.79 221.4 155.79 
" clip-path="url(#p2d71be413d)" style="fill: none; stroke: #ffffff; stroke-linecap: round"/>
     </g>
     <g id="text_12">
      <!-- 0.3 -->
      <g style="fill: #dc143c" transform="translate(245.267966 158.351384) scale(0.11 -0.11)">
       <use xlink:href="#ArialMT-30"/>
       <use xlink:href="#ArialMT-2e" x="55.615234"/>
       <use xlink:href="#ArialMT-33" x="83.398438"/>
      </g>
     </g>
    </g>
    <g id="ytick_5">
     <g id="line2d_13">
      <path d="M 221.4 135 
C 232.320471 135 243.134754 137.151095 253.223954 141.330178 
C 263.313154 145.509261 272.481061 151.635061 280.203 159.357 
C 287.924939 167.078939 294.050739 176.246846 298.229822 186.336046 
C 302.408905 196.425246 304.56 207.239529 304.56 218.16 
C 304.56 229.080471 302.408905 239.894754 298.229822 249.983954 
C 294.050739 260.073154 287.924939 269.241061 280.203 276.963 
C 272.481061 284.684939 263.313154 290.810739 253.223954 294.989822 
C 243.134754 299.168905 232.320471 301.32 221.4 301.32 
C 210.479529 301.32 199.665246 299.168905 189.576046 294.989822 
C 179.486846 290.810739 170.318939 284.684939 162.597 276.963 
C 154.875061 269.241061 148.749261 260.073154 144.570178 249.983954 
C 140.391095 239.894754 138.24 229.080471 138.24 218.16 
C 138.24 207.239529 140.391095 196.425246 144.570178 186.336046 
C 148.749261 176.246846 154.875061 167.078939 162.597 159.357 
C 170.318939 151.635061 179.486846 145.509261 189.576046 141.330178 
C 199.665246 137.151095 210.479529 135 221.4 135 
" clip-path="url(#p2d71be413d)" style="fill: none; stroke: #ffffff; stroke-linecap: round"/>
     </g>
     <g id="text_13">
      <!-- 0.4 -->
      <g style="fill: #dc143c" transform="translate(253.223954 139.143928) scale(0.11 -0.11)">
       <use xlink:href="#ArialMT-30"/>
       <use xlink:href="#ArialMT-2e" x="55.615234"/>
       <use xlink:href="#ArialMT-34" x="83.398438"/>
      </g>
     </g>
    </g>
    <g id="ytick_6">
     <g id="line2d_14">
      <path d="M 221.4 114.21 
C 235.050589 114.21 248.568443 116.898868 261.179943 122.122723 
C 273.791443 127.346577 285.251326 135.003826 294.90375 144.65625 
C 304.556174 154.308674 312.213423 165.768557 317.437277 178.380057 
C 322.661132 190.991557 325.35 204.509411 325.35 218.16 
C 325.35 231.810589 322.661132 245.328443 317.437277 257.939943 
C 312.213423 270.551443 304.556174 282.011326 294.90375 291.66375 
C 285.251326 301.316174 273.791443 308.973423 261.179943 314.197277 
C 248.568443 319.421132 235.050589 322.11 221.4 322.11 
C 207.749411 322.11 194.231557 319.421132 181.620057 314.197277 
C 169.008557 308.973423 157.548674 301.316174 147.89625 291.66375 
C 138.243826 282.011326 130.586577 270.551443 125.362723 257.939943 
C 120.138868 245.328443 117.45 231.810589 117.45 218.16 
C 117.45 204.509411 120.138868 190.991557 125.362723 178.380057 
C 130.586577 165.768557 138.243826 154.308674 147.89625 144.65625 
C 157.548674 135.003826 169.008557 127.346577 181.620057 122.122723 
C 194.231557 116.898868 207.749411 114.21 221.4 114.21 
" clip-path="url(#p2d71be413d)" style="fill: none; stroke: #ffffff; stroke-linecap: round"/>
     </g>
     <g id="text_14">
      <!-- 0.5 -->
      <g style="fill: #dc143c" transform="translate(261.179943 119.936473) scale(0.11 -0.11)">
       <use xlink:href="#ArialMT-30"/>
       <use xlink:href="#ArialMT-2e" x="55.615234"/>
       <use xlink:href="#ArialMT-35" x="83.398438"/>
      </g>
     </g>
    </g>
    <g id="ytick_7">
     <g id="line2d_15">
      <path d="M 221.4 93.42 
C 237.780707 93.42 254.002132 96.646642 269.135931 102.915267 
C 284.269731 109.183892 298.021591 118.372591 309.6045 129.9555 
C 321.187409 141.538409 330.376108 155.290269 336.644733 170.424069 
C 342.913358 185.557868 346.14 201.779293 346.14 218.16 
C 346.14 234.540707 342.913358 250.762132 336.644733 265.895931 
C 330.376108 281.029731 321.187409 294.781591 309.6045 306.3645 
C 298.021591 317.947409 284.269731 327.136108 269.135931 333.404733 
C 254.002132 339.673358 237.780707 342.9 221.4 342.9 
C 205.019293 342.9 188.797868 339.673358 173.664069 333.404733 
C 158.530269 327.136108 144.778409 317.947409 133.1955 306.3645 
C 121.612591 294.781591 112.423892 281.029731 106.155267 265.895931 
C 99.886642 250.762132 96.66 234.540707 96.66 218.16 
C 96.66 201.779293 99.886642 185.557868 106.155267 170.424069 
C 112.423892 155.290269 121.612591 141.538409 133.1955 129.9555 
C 144.778409 118.372591 158.530269 109.183892 173.664069 102.915267 
C 188.797868 96.646642 205.019293 93.42 221.4 93.42 
" clip-path="url(#p2d71be413d)" style="fill: none; stroke: #ffffff; stroke-linecap: round"/>
     </g>
     <g id="text_15">
      <!-- 0.6 -->
      <g style="fill: #dc143c" transform="translate(269.135931 100.729017) scale(0.11 -0.11)">
       <defs>
        <path id="ArialMT-36" d="M 3184 3459 
L 2625 3416 
Q 2550 3747 2413 3897 
Q 2184 4138 1850 4138 
Q 1581 4138 1378 3988 
Q 1113 3794 959 3422 
Q 806 3050 800 2363 
Q 1003 2672 1297 2822 
Q 1591 2972 1913 2972 
Q 2475 2972 2870 2558 
Q 3266 2144 3266 1488 
Q 3266 1056 3080 686 
Q 2894 316 2569 119 
Q 2244 -78 1831 -78 
Q 1128 -78 684 439 
Q 241 956 241 2144 
Q 241 3472 731 4075 
Q 1159 4600 1884 4600 
Q 2425 4600 2770 4297 
Q 3116 3994 3184 3459 
z
M 888 1484 
Q 888 1194 1011 928 
Q 1134 663 1356 523 
Q 1578 384 1822 384 
Q 2178 384 2434 671 
Q 2691 959 2691 1453 
Q 2691 1928 2437 2201 
Q 2184 2475 1800 2475 
Q 1419 2475 1153 2201 
Q 888 1928 888 1484 
z
" transform="scale(0.015625)"/>
       </defs>
       <use xlink:href="#ArialMT-30"/>
       <use xlink:href="#ArialMT-2e" x="55.615234"/>
       <use xlink:href="#ArialMT-36" x="83.398438"/>
      </g>
     </g>
    </g>
    <g id="ytick_8">
     <g id="line2d_16">
      <path d="M 221.4 72.63 
C 240.510824 72.63 259.43582 76.394416 277.09192 83.707812 
C 294.74802 91.021208 310.791856 101.741357 324.30525 115.25475 
C 337.818643 128.768144 348.538792 144.81198 355.852188 162.46808 
C 363.165584 180.12418 366.93 199.049176 366.93 218.16 
C 366.93 237.270824 363.165584 256.19582 355.852188 273.85192 
C 348.538792 291.50802 337.818643 307.551856 324.30525 321.06525 
C 310.791856 334.578643 294.74802 345.298792 277.09192 352.612188 
C 259.43582 359.925584 240.510824 363.69 221.4 363.69 
C 202.289176 363.69 183.36418 359.925584 165.70808 352.612188 
C 148.05198 345.298792 132.008144 334.578643 118.49475 321.06525 
C 104.981357 307.551856 94.261208 291.50802 86.947812 273.85192 
C 79.634416 256.19582 75.87 237.270824 75.87 218.16 
C 75.87 199.049176 79.634416 180.12418 86.947812 162.46808 
C 94.261208 144.81198 104.981357 128.768144 118.49475 115.25475 
C 132.008144 101.741357 148.05198 91.021208 165.70808 83.707812 
C 183.36418 76.394416 202.289176 72.63 221.4 72.63 
" clip-path="url(#p2d71be413d)" style="fill: none; stroke: #ffffff; stroke-linecap: round"/>
     </g>
     <g id="text_16">
      <!-- 0.7 -->
      <g style="fill: #dc143c" transform="translate(277.09192 81.521562) scale(0.11 -0.11)">
       <use xlink:href="#ArialMT-30"/>
       <use xlink:href="#ArialMT-2e" x="55.615234"/>
       <use xlink:href="#ArialMT-37" x="83.398438"/>
      </g>
     </g>
    </g>
    <g id="ytick_9">
     <g id="line2d_17">
      <path d="M 221.4 51.84 
C 243.240942 51.84 264.869509 56.142189 285.047908 64.500356 
C 305.226308 72.858523 323.562121 85.110122 339.006 100.554 
C 354.449878 115.997879 366.701477 134.333692 375.059644 154.512092 
C 383.417811 174.690491 387.72 196.319058 387.72 218.16 
C 387.72 240.000942 383.417811 261.629509 375.059644 281.807908 
C 366.701477 301.986308 354.449878 320.322121 339.006 335.766 
C 323.562121 351.209878 305.226308 363.461477 285.047908 371.819644 
C 264.869509 380.177811 243.240942 384.48 221.4 384.48 
C 199.559058 384.48 177.930491 380.177811 157.752092 371.819644 
C 137.573692 363.461477 119.237879 351.209878 103.794 335.766 
C 88.350122 320.322121 76.098523 301.986308 67.740356 281.807908 
C 59.382189 261.629509 55.08 240.000942 55.08 218.16 
C 55.08 196.319058 59.382189 174.690491 67.740356 154.512092 
C 76.098523 134.333692 88.350122 115.997879 103.794 100.554 
C 119.237879 85.110122 137.573692 72.858523 157.752092 64.500356 
C 177.930491 56.142189 199.559058 51.84 221.4 51.84 
" clip-path="url(#p2d71be413d)" style="fill: none; stroke: #ffffff; stroke-linecap: round"/>
     </g>
     <g id="text_17">
      <!-- 0.8 -->
      <g style="fill: #dc143c" transform="translate(285.047908 62.314106) scale(0.11 -0.11)">
       <use xlink:href="#ArialMT-30"/>
       <use xlink:href="#ArialMT-2e" x="55.615234"/>
       <use xlink:href="#ArialMT-38" x="83.398438"/>
      </g>
     </g>
    </g>
   </g>
   <g id="line2d_18">
    <defs>
     <path id="mdbd2d5336c" d="M 0 0.5 
C 0.132602 0.5 0.25979 0.447317 0.353553 0.353553 
C 0.447317 0.25979 0.5 0.132602 0.5 0 
C 0.5 -0.132602 0.447317 -0.25979 0.353553 -0.353553 
C 0.25979 -0.447317 0.132602 -0.5 0 -0.5 
C -0.132602 -0.5 -0.25979 -0.447317 -0.353553 -0.353553 
C -0.447317 -0.25979 -0.5 -0.132602 -0.5 0 
C -0.5 0.132602 -0.447317 0.25979 -0.353553 0.353553 
C -0.25979 0.447317 -0.132602 0.5 0 0.5 
z
" style="stroke: #000000"/>
    </defs>
    <g clip-path="url(#p2d71be413d)">
     <use xlink:href="#mdbd2d5336c" x="218.651379" y="296.870196" style="stroke: #000000"/>
     <use xlink:href="#mdbd2d5336c" x="216.335465" y="363.189298" style="stroke: #000000"/>
     <use xlink:href="#mdbd2d5336c" x="217.278116" y="296.810238" style="stroke: #000000"/>
     <use xlink:href="#mdbd2d5336c" x="213.7508" y="364.115425" style="stroke: #000000"/>
     <use xlink:href="#mdbd2d5336c" x="215.636002" y="300.589015" style="stroke: #000000"/>
     <use xlink:href="#mdbd2d5336c" x="211.34979" y="361.884702" style="stroke: #000000"/>
     <use xlink:href="#mdbd2d5336c" x="214.535773" y="296.618474" style="stroke: #000000"/>
     <use xlink:href="#mdbd2d5336c" x="208.842979" y="361.687412" style="stroke: #000000"/>
     <use xlink:href="#mdbd2d5336c" x="212.897173" y="299.058995" style="stroke: #000000"/>
     <use xlink:href="#mdbd2d5336c" x="206.339992" y="361.446402" style="stroke: #000000"/>
     <use xlink:href="#mdbd2d5336c" x="211.486586" y="298.898279" style="stroke: #000000"/>
     <use xlink:href="#mdbd2d5336c" x="203.588098" y="363.226304" style="stroke: #000000"/>
     <use xlink:href="#mdbd2d5336c" x="210.079018" y="298.712969" style="stroke: #000000"/>
     <use xlink:href="#mdbd2d5336c" x="201.348543" y="360.833529" style="stroke: #000000"/>
     <use xlink:href="#mdbd2d5336c" x="208.87681" y="297.228311" style="stroke: #000000"/>
     <use xlink:href="#mdbd2d5336c" x="198.861601" y="360.461853" style="stroke: #000000"/>
     <use xlink:href="#mdbd2d5336c" x="207.498785" y="296.997708" style="stroke: #000000"/>
     <use xlink:href="#mdbd2d5336c" x="196.381524" y="360.04683" style="stroke: #000000"/>
     <use xlink:href="#mdbd2d5336c" x="206.372232" y="295.471163" style="stroke: #000000"/>
     <use xlink:href="#mdbd2d5336c" x="193.710237" y="360.611479" style="stroke: #000000"/>
     <use xlink:href="#mdbd2d5336c" x="204.755857" y="296.464537" style="stroke: #000000"/>
     <use xlink:href="#mdbd2d5336c" x="191.444985" y="359.087264" style="stroke: #000000"/>
     <use xlink:href="#mdbd2d5336c" x="203.391789" y="296.162131" style="stroke: #000000"/>
     <use xlink:href="#mdbd2d5336c" x="188.75562" y="359.558343" style="stroke: #000000"/>
     <use xlink:href="#mdbd2d5336c" x="202.346674" y="294.578719" style="stroke: #000000"/>
     <use xlink:href="#mdbd2d5336c" x="186.292851" y="358.967084" style="stroke: #000000"/>
     <use xlink:href="#mdbd2d5336c" x="201.352553" y="292.978092" style="stroke: #000000"/>
     <use xlink:href="#mdbd2d5336c" x="184.110474" y="357.326404" style="stroke: #000000"/>
     <use xlink:href="#mdbd2d5336c" x="200.04985" y="292.61682" style="stroke: #000000"/>
     <use xlink:href="#mdbd2d5336c" x="181.114022" y="358.653902" style="stroke: #000000"/>
     <use xlink:href="#mdbd2d5336c" x="198.373339" y="293.476815" style="stroke: #000000"/>
     <use xlink:href="#mdbd2d5336c" x="178.668201" y="357.929416" style="stroke: #000000"/>
     <use xlink:href="#mdbd2d5336c" x="197.062386" y="293.063474" style="stroke: #000000"/>
     <use xlink:href="#mdbd2d5336c" x="176.235397" y="357.162356" style="stroke: #000000"/>
     <use xlink:href="#mdbd2d5336c" x="195.758847" y="292.627315" style="stroke: #000000"/>
     <use xlink:href="#mdbd2d5336c" x="174.493552" y="354.386216" style="stroke: #000000"/>
     <use xlink:href="#mdbd2d5336c" x="194.908013" y="290.946136" style="stroke: #000000"/>
     <use xlink:href="#mdbd2d5336c" x="172.123221" y="353.546838" style="stroke: #000000"/>
     <use xlink:href="#mdbd2d5336c" x="193.175595" y="291.687089" style="stroke: #000000"/>
     <use xlink:href="#mdbd2d5336c" x="192.383952" y="289.97724" style="stroke: #000000"/>
     <use xlink:href="#mdbd2d5336c" x="191.645225" y="288.257857" style="stroke: #000000"/>
     <use xlink:href="#mdbd2d5336c" x="189.366165" y="290.109171" style="stroke: #000000"/>
     <use xlink:href="#mdbd2d5336c" x="188.115358" y="289.539145" style="stroke: #000000"/>
     <use xlink:href="#mdbd2d5336c" x="187.444916" y="287.778239" style="stroke: #000000"/>
     <use xlink:href="#mdbd2d5336c" x="186.827927" y="286.011514" style="stroke: #000000"/>
     <use xlink:href="#mdbd2d5336c" x="184.425278" y="287.699339" style="stroke: #000000"/>
     <use xlink:href="#mdbd2d5336c" x="183.847913" y="285.905758" style="stroke: #000000"/>
     <use xlink:href="#mdbd2d5336c" x="183.324233" y="284.109164" style="stroke: #000000"/>
     <use xlink:href="#mdbd2d5336c" x="181.506496" y="284.55394" style="stroke: #000000"/>
     <use xlink:href="#mdbd2d5336c" x="181.045835" y="282.740164" style="stroke: #000000"/>
     <use xlink:href="#mdbd2d5336c" x="144.499335" y="341.226789" style="stroke: #000000"/>
     <use xlink:href="#mdbd2d5336c" x="179.924902" y="282.026051" style="stroke: #000000"/>
     <use xlink:href="#mdbd2d5336c" x="143.500498" y="338.114714" style="stroke: #000000"/>
     <use xlink:href="#mdbd2d5336c" x="178.086378" y="282.375085" style="stroke: #000000"/>
     <use xlink:href="#mdbd2d5336c" x="139.670755" y="339.328589" style="stroke: #000000"/>
     <use xlink:href="#mdbd2d5336c" x="177.721274" y="280.539685" style="stroke: #000000"/>
     <use xlink:href="#mdbd2d5336c" x="176.639251" y="279.767886" style="stroke: #000000"/>
     <use xlink:href="#mdbd2d5336c" x="137.329312" y="333.873375" style="stroke: #000000"/>
     <use xlink:href="#mdbd2d5336c" x="174.78498" y="280.020221" style="stroke: #000000"/>
     <use xlink:href="#mdbd2d5336c" x="135.322639" y="332.388516" style="stroke: #000000"/>
     <use xlink:href="#mdbd2d5336c" x="173.71247" y="279.197255" style="stroke: #000000"/>
     <use xlink:href="#mdbd2d5336c" x="173.476286" y="277.340858" style="stroke: #000000"/>
     <use xlink:href="#mdbd2d5336c" x="171.611351" y="277.495802" style="stroke: #000000"/>
     <use xlink:href="#mdbd2d5336c" x="128.789949" y="328.528361" style="stroke: #000000"/>
     <use xlink:href="#mdbd2d5336c" x="171.440098" y="275.632293" style="stroke: #000000"/>
     <use xlink:href="#mdbd2d5336c" x="126.87786" y="326.895283" style="stroke: #000000"/>
     <use xlink:href="#mdbd2d5336c" x="169.570891" y="275.722057" style="stroke: #000000"/>
     <use xlink:href="#mdbd2d5336c" x="169.464778" y="273.853707" style="stroke: #000000"/>
     <use xlink:href="#mdbd2d5336c" x="168.500699" y="272.93883" style="stroke: #000000"/>
     <use xlink:href="#mdbd2d5336c" x="167.552733" y="272.007267" style="stroke: #000000"/>
     <use xlink:href="#mdbd2d5336c" x="165.681818" y="271.966423" style="stroke: #000000"/>
     <use xlink:href="#mdbd2d5336c" x="164.751252" y="270.985812" style="stroke: #000000"/>
     <use xlink:href="#mdbd2d5336c" x="163.837943" y="269.989109" style="stroke: #000000"/>
     <use xlink:href="#mdbd2d5336c" x="162.942167" y="268.976619" style="stroke: #000000"/>
     <use xlink:href="#mdbd2d5336c" x="163.06454" y="267.109263" style="stroke: #000000"/>
     <use xlink:href="#mdbd2d5336c" x="161.204304" y="266.905514" style="stroke: #000000"/>
     <use xlink:href="#mdbd2d5336c" x="107.815667" y="310.138779" style="stroke: #000000"/>
     <use xlink:href="#mdbd2d5336c" x="163.461864" y="263.426233" style="stroke: #000000"/>
     <use xlink:href="#mdbd2d5336c" x="106.227716" y="308.14245" style="stroke: #000000"/>
     <use xlink:href="#mdbd2d5336c" x="158.500926" y="265.557852" style="stroke: #000000"/>
     <use xlink:href="#mdbd2d5336c" x="106.336059" y="304.866899" style="stroke: #000000"/>
     <use xlink:href="#mdbd2d5336c" x="159.792114" y="262.920749" style="stroke: #000000"/>
     <use xlink:href="#mdbd2d5336c" x="161.172215" y="260.331949" style="stroke: #000000"/>
     <use xlink:href="#mdbd2d5336c" x="159.354335" y="260.010329" style="stroke: #000000"/>
     <use xlink:href="#mdbd2d5336c" x="153.17867" y="262.46345" style="stroke: #000000"/>
     <use xlink:href="#mdbd2d5336c" x="155.712409" y="259.206162" style="stroke: #000000"/>
     <use xlink:href="#mdbd2d5336c" x="158.37716" y="256.027942" style="stroke: #000000"/>
     <use xlink:href="#mdbd2d5336c" x="96.12009" y="293.435764" style="stroke: #000000"/>
     <use xlink:href="#mdbd2d5336c" x="155.450836" y="256.235767" style="stroke: #000000"/>
     <use xlink:href="#mdbd2d5336c" x="94.825428" y="291.237863" style="stroke: #000000"/>
     <use xlink:href="#mdbd2d5336c" x="153.654242" y="255.712087" style="stroke: #000000"/>
     <use xlink:href="#mdbd2d5336c" x="93.569321" y="289.017702" style="stroke: #000000"/>
     <use xlink:href="#mdbd2d5336c" x="153.009186" y="254.524041" style="stroke: #000000"/>
     <use xlink:href="#mdbd2d5336c" x="91.439155" y="287.261407" style="stroke: #000000"/>
     <use xlink:href="#mdbd2d5336c" x="155.889147" y="251.539447" style="stroke: #000000"/>
     <use xlink:href="#mdbd2d5336c" x="91.174294" y="284.513311" style="stroke: #000000"/>
     <use xlink:href="#mdbd2d5336c" x="155.316573" y="250.391041" style="stroke: #000000"/>
     <use xlink:href="#mdbd2d5336c" x="89.106719" y="282.683744" style="stroke: #000000"/>
     <use xlink:href="#mdbd2d5336c" x="153.571386" y="249.789002" style="stroke: #000000"/>
     <use xlink:href="#mdbd2d5336c" x="89.878698" y="279.48939" style="stroke: #000000"/>
     <use xlink:href="#mdbd2d5336c" x="153.029715" y="248.600412" style="stroke: #000000"/>
     <use xlink:href="#mdbd2d5336c" x="152.508869" y="247.40255" style="stroke: #000000"/>
     <use xlink:href="#mdbd2d5336c" x="150.793526" y="246.686867" style="stroke: #000000"/>
     <use xlink:href="#mdbd2d5336c" x="150.306418" y="245.450269" style="stroke: #000000"/>
     <use xlink:href="#mdbd2d5336c" x="152.309523" y="243.306877" style="stroke: #000000"/>
     <use xlink:href="#mdbd2d5336c" x="153.130362" y="241.667121" style="stroke: #000000"/>
     <use xlink:href="#mdbd2d5336c" x="152.730504" y="240.472072" style="stroke: #000000"/>
     <use xlink:href="#mdbd2d5336c" x="151.088124" y="239.656498" style="stroke: #000000"/>
     <use xlink:href="#mdbd2d5336c" x="149.458603" y="238.788864" style="stroke: #000000"/>
     <use xlink:href="#mdbd2d5336c" x="147.843266" y="237.869468" style="stroke: #000000"/>
     <use xlink:href="#mdbd2d5336c" x="146.243427" y="236.898638" style="stroke: #000000"/>
     <use xlink:href="#mdbd2d5336c" x="53.797686" y="259.94795" style="stroke: #000000"/>
     <use xlink:href="#mdbd2d5336c" x="147.200224" y="235.290368" style="stroke: #000000"/>
     <use xlink:href="#mdbd2d5336c" x="55.842132" y="256.382045" style="stroke: #000000"/>
     <use xlink:href="#mdbd2d5336c" x="148.194852" y="233.720235" style="stroke: #000000"/>
     <use xlink:href="#mdbd2d5336c" x="58.927534" y="252.694589" style="stroke: #000000"/>
     <use xlink:href="#mdbd2d5336c" x="146.647583" y="232.690398" style="stroke: #000000"/>
     <use xlink:href="#mdbd2d5336c" x="146.405378" y="231.383575" style="stroke: #000000"/>
     <use xlink:href="#mdbd2d5336c" x="78.486964" y="243.359424" style="stroke: #000000"/>
     <use xlink:href="#mdbd2d5336c" x="146.186017" y="230.072725" style="stroke: #000000"/>
     <use xlink:href="#mdbd2d5336c" x="60.203055" y="243.691088" style="stroke: #000000"/>
     <use xlink:href="#mdbd2d5336c" x="142.125172" y="229.301351" style="stroke: #000000"/>
     <use xlink:href="#mdbd2d5336c" x="66.60185" y="239.915461" style="stroke: #000000"/>
     <use xlink:href="#mdbd2d5336c" x="143.228879" y="227.758207" style="stroke: #000000"/>
     <use xlink:href="#mdbd2d5336c" x="65.258041" y="237.331822" style="stroke: #000000"/>
     <use xlink:href="#mdbd2d5336c" x="144.366932" y="226.256502" style="stroke: #000000"/>
     <use xlink:href="#mdbd2d5336c" x="62.000779" y="234.913533" style="stroke: #000000"/>
     <use xlink:href="#mdbd2d5336c" x="145.538245" y="224.797044" style="stroke: #000000"/>
     <use xlink:href="#mdbd2d5336c" x="75.80044" y="230.898311" style="stroke: #000000"/>
     <use xlink:href="#mdbd2d5336c" x="144.131294" y="223.563154" style="stroke: #000000"/>
     <use xlink:href="#mdbd2d5336c" x="76.635799" y="228.282899" style="stroke: #000000"/>
     <use xlink:href="#mdbd2d5336c" x="146.661972" y="222.076854" style="stroke: #000000"/>
     <use xlink:href="#mdbd2d5336c" x="73.383308" y="225.917226" style="stroke: #000000"/>
     <use xlink:href="#mdbd2d5336c" x="142.689804" y="220.908621" style="stroke: #000000"/>
     <use xlink:href="#mdbd2d5336c" x="73.27047" y="223.332797" style="stroke: #000000"/>
     <use xlink:href="#mdbd2d5336c" x="143.954409" y="219.511818" style="stroke: #000000"/>
     <use xlink:href="#mdbd2d5336c" x="75.266534" y="220.710769" style="stroke: #000000"/>
     <use xlink:href="#mdbd2d5336c" x="142.641827" y="218.16" style="stroke: #000000"/>
     <use xlink:href="#mdbd2d5336c" x="73.180178" y="218.16" style="stroke: #000000"/>
     <use xlink:href="#mdbd2d5336c" x="145.260063" y="216.830972" style="stroke: #000000"/>
     <use xlink:href="#mdbd2d5336c" x="73.202753" y="215.573207" style="stroke: #000000"/>
     <use xlink:href="#mdbd2d5336c" x="141.394859" y="215.366159" style="stroke: #000000"/>
     <use xlink:href="#mdbd2d5336c" x="73.27047" y="212.987203" style="stroke: #000000"/>
     <use xlink:href="#mdbd2d5336c" x="142.749762" y="214.038116" style="stroke: #000000"/>
     <use xlink:href="#mdbd2d5336c" x="71.337843" y="210.295576" style="stroke: #000000"/>
     <use xlink:href="#mdbd2d5336c" x="145.433966" y="212.847937" style="stroke: #000000"/>
     <use xlink:href="#mdbd2d5336c" x="145.538245" y="211.522956" style="stroke: #000000"/>
     <use xlink:href="#mdbd2d5336c" x="71.703721" y="205.063273" style="stroke: #000000"/>
     <use xlink:href="#mdbd2d5336c" x="146.96939" y="210.337028" style="stroke: #000000"/>
     <use xlink:href="#mdbd2d5336c" x="76.04493" y="202.882567" style="stroke: #000000"/>
     <use xlink:href="#mdbd2d5336c" x="148.423491" y="209.199611" style="stroke: #000000"/>
     <use xlink:href="#mdbd2d5336c" x="75.307369" y="200.22208" style="stroke: #000000"/>
     <use xlink:href="#mdbd2d5336c" x="151.2127" y="208.295818" style="stroke: #000000"/>
     <use xlink:href="#mdbd2d5336c" x="75.64268" y="197.675145" style="stroke: #000000"/>
     <use xlink:href="#mdbd2d5336c" x="146.186017" y="206.247275" style="stroke: #000000"/>
     <use xlink:href="#mdbd2d5336c" x="77.043693" y="195.296207" style="stroke: #000000"/>
     <use xlink:href="#mdbd2d5336c" x="146.405378" y="204.936425" style="stroke: #000000"/>
     <use xlink:href="#mdbd2d5336c" x="76.446382" y="192.600766" style="stroke: #000000"/>
     <use xlink:href="#mdbd2d5336c" x="146.647583" y="203.629602" style="stroke: #000000"/>
     <use xlink:href="#mdbd2d5336c" x="76.91453" y="190.07487" style="stroke: #000000"/>
     <use xlink:href="#mdbd2d5336c" x="149.482138" y="202.873387" style="stroke: #000000"/>
     <use xlink:href="#mdbd2d5336c" x="78.438127" y="187.772516" style="stroke: #000000"/>
     <use xlink:href="#mdbd2d5336c" x="142.140248" y="199.861444" style="stroke: #000000"/>
     <use xlink:href="#mdbd2d5336c" x="144.981281" y="199.106674" style="stroke: #000000"/>
     <use xlink:href="#mdbd2d5336c" x="147.843266" y="198.450532" style="stroke: #000000"/>
     <use xlink:href="#mdbd2d5336c" x="140.739579" y="195.030996" style="stroke: #000000"/>
     <use xlink:href="#mdbd2d5336c" x="97.343554" y="182.587387" style="stroke: #000000"/>
     <use xlink:href="#mdbd2d5336c" x="144.844068" y="194.754503" style="stroke: #000000"/>
     <use xlink:href="#mdbd2d5336c" x="146.496526" y="193.822386" style="stroke: #000000"/>
     <use xlink:href="#mdbd2d5336c" x="94.499848" y="176.927641" style="stroke: #000000"/>
     <use xlink:href="#mdbd2d5336c" x="148.162601" y="192.942341" style="stroke: #000000"/>
     <use xlink:href="#mdbd2d5336c" x="91.165969" y="173.316827" style="stroke: #000000"/>
     <use xlink:href="#mdbd2d5336c" x="146.173934" y="190.779951" style="stroke: #000000"/>
     <use xlink:href="#mdbd2d5336c" x="94.998319" y="172.153551" style="stroke: #000000"/>
     <use xlink:href="#mdbd2d5336c" x="147.872911" y="189.935595" style="stroke: #000000"/>
     <use xlink:href="#mdbd2d5336c" x="96.831696" y="170.342708" style="stroke: #000000"/>
     <use xlink:href="#mdbd2d5336c" x="148.376694" y="188.656669" style="stroke: #000000"/>
     <use xlink:href="#mdbd2d5336c" x="96.680922" y="167.770222" style="stroke: #000000"/>
     <use xlink:href="#mdbd2d5336c" x="147.70999" y="186.880446" style="stroke: #000000"/>
     <use xlink:href="#mdbd2d5336c" x="148.267117" y="185.599143" style="stroke: #000000"/>
     <use xlink:href="#mdbd2d5336c" x="150.020855" y="184.875358" style="stroke: #000000"/>
     <use xlink:href="#mdbd2d5336c" x="99.489042" y="161.311987" style="stroke: #000000"/>
     <use xlink:href="#mdbd2d5336c" x="150.612623" y="183.634689" style="stroke: #000000"/>
     <use xlink:href="#mdbd2d5336c" x="151.225954" y="182.404538" style="stroke: #000000"/>
     <use xlink:href="#mdbd2d5336c" x="97.724119" y="155.143991" style="stroke: #000000"/>
     <use xlink:href="#mdbd2d5336c" x="151.860661" y="181.185278" style="stroke: #000000"/>
     <use xlink:href="#mdbd2d5336c" x="101.678655" y="154.503032" style="stroke: #000000"/>
     <use xlink:href="#mdbd2d5336c" x="152.51655" y="179.97728" style="stroke: #000000"/>
     <use xlink:href="#mdbd2d5336c" x="95.388586" y="148.310732" style="stroke: #000000"/>
     <use xlink:href="#mdbd2d5336c" x="152.071283" y="178.133046" style="stroke: #000000"/>
     <use xlink:href="#mdbd2d5336c" x="94.825428" y="145.082137" style="stroke: #000000"/>
     <use xlink:href="#mdbd2d5336c" x="153.89107" y="177.596542" style="stroke: #000000"/>
     <use xlink:href="#mdbd2d5336c" x="97.903053" y="143.955548" style="stroke: #000000"/>
     <use xlink:href="#mdbd2d5336c" x="154.609281" y="176.424527" style="stroke: #000000"/>
     <use xlink:href="#mdbd2d5336c" x="98.333211" y="141.259335" style="stroke: #000000"/>
     <use xlink:href="#mdbd2d5336c" x="155.347838" y="175.265225" style="stroke: #000000"/>
     <use xlink:href="#mdbd2d5336c" x="100.567982" y="139.69077" style="stroke: #000000"/>
     <use xlink:href="#mdbd2d5336c" x="156.106516" y="174.118989" style="stroke: #000000"/>
     <use xlink:href="#mdbd2d5336c" x="103.693672" y="138.766079" style="stroke: #000000"/>
     <use xlink:href="#mdbd2d5336c" x="155.823678" y="172.242965" style="stroke: #000000"/>
     <use xlink:href="#mdbd2d5336c" x="105.097214" y="136.723912" style="stroke: #000000"/>
     <use xlink:href="#mdbd2d5336c" x="156.635029" y="171.105494" style="stroke: #000000"/>
     <use xlink:href="#mdbd2d5336c" x="106.536183" y="134.706552" style="stroke: #000000"/>
     <use xlink:href="#mdbd2d5336c" x="157.466107" y="169.982356" style="stroke: #000000"/>
     <use xlink:href="#mdbd2d5336c" x="108.010141" y="132.714612" style="stroke: #000000"/>
     <use xlink:href="#mdbd2d5336c" x="158.31666" y="168.873893" style="stroke: #000000"/>
     <use xlink:href="#mdbd2d5336c" x="109.518638" y="130.7487" style="stroke: #000000"/>
     <use xlink:href="#mdbd2d5336c" x="160.193404" y="168.595876" style="stroke: #000000"/>
     <use xlink:href="#mdbd2d5336c" x="111.061216" y="128.809414" style="stroke: #000000"/>
     <use xlink:href="#mdbd2d5336c" x="160.075149" y="166.70234" style="stroke: #000000"/>
     <use xlink:href="#mdbd2d5336c" x="111.832971" y="126.222347" style="stroke: #000000"/>
     <use xlink:href="#mdbd2d5336c" x="160.008444" y="164.793134" style="stroke: #000000"/>
     <use xlink:href="#mdbd2d5336c" x="118.255664" y="128.497997" style="stroke: #000000"/>
     <use xlink:href="#mdbd2d5336c" x="160.949174" y="163.729832" style="stroke: #000000"/>
     <use xlink:href="#mdbd2d5336c" x="121.436722" y="128.15266" style="stroke: #000000"/>
     <use xlink:href="#mdbd2d5336c" x="161.908319" y="162.68311" style="stroke: #000000"/>
     <use xlink:href="#mdbd2d5336c" x="118.333754" y="122.049171" style="stroke: #000000"/>
     <use xlink:href="#mdbd2d5336c" x="162.885585" y="161.653286" style="stroke: #000000"/>
     <use xlink:href="#mdbd2d5336c" x="127.773647" y="127.746082" style="stroke: #000000"/>
     <use xlink:href="#mdbd2d5336c" x="162.971556" y="159.731556" style="stroke: #000000"/>
     <use xlink:href="#mdbd2d5336c" x="130.924648" y="127.684648" style="stroke: #000000"/>
     <use xlink:href="#mdbd2d5336c" x="164.893286" y="159.645585" style="stroke: #000000"/>
     <use xlink:href="#mdbd2d5336c" x="164.172842" y="156.791386" style="stroke: #000000"/>
     <use xlink:href="#mdbd2d5336c" x="165.252588" y="155.801981" style="stroke: #000000"/>
     <use xlink:href="#mdbd2d5336c" x="166.349437" y="154.831571" style="stroke: #000000"/>
     <use xlink:href="#mdbd2d5336c" x="165.826214" y="151.929741" style="stroke: #000000"/>
     <use xlink:href="#mdbd2d5336c" x="168.593103" y="152.948912" style="stroke: #000000"/>
     <use xlink:href="#mdbd2d5336c" x="167.392157" y="149.033114" style="stroke: #000000"/>
     <use xlink:href="#mdbd2d5336c" x="170.901105" y="151.145703" style="stroke: #000000"/>
     <use xlink:href="#mdbd2d5336c" x="130.966403" y="98.150564" style="stroke: #000000"/>
     <use xlink:href="#mdbd2d5336c" x="171.32851" y="149.242507" style="stroke: #000000"/>
     <use xlink:href="#mdbd2d5336c" x="133.07463" y="96.590558" style="stroke: #000000"/>
     <use xlink:href="#mdbd2d5336c" x="134.625718" y="94.233483" style="stroke: #000000"/>
     <use xlink:href="#mdbd2d5336c" x="136.80175" y="92.737937" style="stroke: #000000"/>
     <use xlink:href="#mdbd2d5336c" x="139.55813" y="92.134572" style="stroke: #000000"/>
     <use xlink:href="#mdbd2d5336c" x="141.230452" y="89.861905" style="stroke: #000000"/>
     <use xlink:href="#mdbd2d5336c" x="142.438917" y="86.74669" style="stroke: #000000"/>
     <use xlink:href="#mdbd2d5336c" x="145.756828" y="87.142183" style="stroke: #000000"/>
     <use xlink:href="#mdbd2d5336c" x="146.099121" y="82.313618" style="stroke: #000000"/>
     <use xlink:href="#mdbd2d5336c" x="148.952201" y="81.905507" style="stroke: #000000"/>
     <use xlink:href="#mdbd2d5336c" x="151.341204" y="80.661871" style="stroke: #000000"/>
     <use xlink:href="#mdbd2d5336c" x="153.751547" y="79.460118" style="stroke: #000000"/>
     <use xlink:href="#mdbd2d5336c" x="156.607905" y="79.212905" style="stroke: #000000"/>
     <use xlink:href="#mdbd2d5336c" x="159.042735" y="78.103289" style="stroke: #000000"/>
     <use xlink:href="#mdbd2d5336c" x="161.891379" y="77.966474" style="stroke: #000000"/>
     <use xlink:href="#mdbd2d5336c" x="164.347157" y="76.949258" style="stroke: #000000"/>
     <use xlink:href="#mdbd2d5336c" x="166.820314" y="75.975056" style="stroke: #000000"/>
     <use xlink:href="#mdbd2d5336c" x="169.310096" y="75.044164" style="stroke: #000000"/>
     <use xlink:href="#mdbd2d5336c" x="172.145984" y="75.115952" style="stroke: #000000"/>
     <use xlink:href="#mdbd2d5336c" x="174.024247" y="72.352425" style="stroke: #000000"/>
     <use xlink:href="#mdbd2d5336c" x="176.871587" y="72.514124" style="stroke: #000000"/>
     <use xlink:href="#mdbd2d5336c" x="203.953924" y="136.082666" style="stroke: #000000"/>
     <use xlink:href="#mdbd2d5336c" x="204.903138" y="133.291005" style="stroke: #000000"/>
     <use xlink:href="#mdbd2d5336c" x="206.386819" y="133.016021" style="stroke: #000000"/>
     <use xlink:href="#mdbd2d5336c" x="207.875073" y="132.766972" style="stroke: #000000"/>
     <use xlink:href="#mdbd2d5336c" x="209.544302" y="133.802325" style="stroke: #000000"/>
     <use xlink:href="#mdbd2d5336c" x="210.863486" y="132.346978" style="stroke: #000000"/>
     <use xlink:href="#mdbd2d5336c" x="212.495565" y="133.439956" style="stroke: #000000"/>
     <use xlink:href="#mdbd2d5336c" x="213.864736" y="132.031534" style="stroke: #000000"/>
     <use xlink:href="#mdbd2d5336c" x="208.214526" y="67.449347" style="stroke: #000000"/>
     <use xlink:href="#mdbd2d5336c" x="215.457676" y="133.180804" style="stroke: #000000"/>
     <use xlink:href="#mdbd2d5336c" x="210.705554" y="65.222301" style="stroke: #000000"/>
     <use xlink:href="#mdbd2d5336c" x="216.941672" y="133.090039" style="stroke: #000000"/>
     <use xlink:href="#mdbd2d5336c" x="213.376314" y="65.058951" style="stroke: #000000"/>
     <use xlink:href="#mdbd2d5336c" x="218.382678" y="131.755205" style="stroke: #000000"/>
     <use xlink:href="#mdbd2d5336c" x="216.084783" y="65.952086" style="stroke: #000000"/>
     <use xlink:href="#mdbd2d5336c" x="219.891109" y="131.715705" style="stroke: #000000"/>
     <use xlink:href="#mdbd2d5336c" x="218.724351" y="64.872193" style="stroke: #000000"/>
     <use xlink:href="#mdbd2d5336c" x="221.4" y="131.702538" style="stroke: #000000"/>
     <use xlink:href="#mdbd2d5336c" x="222.908891" y="131.715705" style="stroke: #000000"/>
     <use xlink:href="#mdbd2d5336c" x="224.093216" y="63.865745" style="stroke: #000000"/>
     <use xlink:href="#mdbd2d5336c" x="224.372973" y="133.025187" style="stroke: #000000"/>
     <use xlink:href="#mdbd2d5336c" x="226.679817" y="66.965816" style="stroke: #000000"/>
     <use xlink:href="#mdbd2d5336c" x="225.858328" y="133.090039" style="stroke: #000000"/>
     <use xlink:href="#mdbd2d5336c" x="229.423686" y="65.058951" style="stroke: #000000"/>
     <use xlink:href="#mdbd2d5336c" x="227.253335" y="134.453412" style="stroke: #000000"/>
     <use xlink:href="#mdbd2d5336c" x="232.023959" y="66.230305" style="stroke: #000000"/>
     <use xlink:href="#mdbd2d5336c" x="228.713325" y="134.568316" style="stroke: #000000"/>
     <use xlink:href="#mdbd2d5336c" x="234.585474" y="67.449347" style="stroke: #000000"/>
     <use xlink:href="#mdbd2d5336c" x="230.171087" y="134.708683" style="stroke: #000000"/>
     <use xlink:href="#mdbd2d5336c" x="237.319757" y="66.693628" style="stroke: #000000"/>
     <use xlink:href="#mdbd2d5336c" x="231.626177" y="134.874469" style="stroke: #000000"/>
     <use xlink:href="#mdbd2d5336c" x="239.837167" y="68.001322" style="stroke: #000000"/>
     <use xlink:href="#mdbd2d5336c" x="233.255698" y="133.802325" style="stroke: #000000"/>
     <use xlink:href="#mdbd2d5336c" x="242.736789" y="66.340857" style="stroke: #000000"/>
     <use xlink:href="#mdbd2d5336c" x="234.726137" y="134.022084" style="stroke: #000000"/>
     <use xlink:href="#mdbd2d5336c" x="245.383149" y="66.736358" style="stroke: #000000"/>
     <use xlink:href="#mdbd2d5336c" x="236.192516" y="134.267471" style="stroke: #000000"/>
     <use xlink:href="#mdbd2d5336c" x="247.493781" y="70.174815" style="stroke: #000000"/>
     <use xlink:href="#mdbd2d5336c" x="237.65439" y="134.538414" style="stroke: #000000"/>
     <use xlink:href="#mdbd2d5336c" x="250.845216" y="66.677494" style="stroke: #000000"/>
     <use xlink:href="#mdbd2d5336c" x="238.846076" y="136.082666" style="stroke: #000000"/>
     <use xlink:href="#mdbd2d5336c" x="253.065094" y="69.187444" style="stroke: #000000"/>
     <use xlink:href="#mdbd2d5336c" x="240.562839" y="135.156624" style="stroke: #000000"/>
     <use xlink:href="#mdbd2d5336c" x="255.660201" y="69.762765" style="stroke: #000000"/>
     <use xlink:href="#mdbd2d5336c" x="241.699906" y="136.741524" style="stroke: #000000"/>
     <use xlink:href="#mdbd2d5336c" x="258.244872" y="70.38329" style="stroke: #000000"/>
     <use xlink:href="#mdbd2d5336c" x="243.447942" y="135.875961" style="stroke: #000000"/>
     <use xlink:href="#mdbd2d5336c" x="261.079847" y="70.072794" style="stroke: #000000"/>
     <use xlink:href="#mdbd2d5336c" x="244.880638" y="136.273282" style="stroke: #000000"/>
     <use xlink:href="#mdbd2d5336c" x="263.37976" y="71.759179" style="stroke: #000000"/>
     <use xlink:href="#mdbd2d5336c" x="245.933199" y="137.915521" style="stroke: #000000"/>
     <use xlink:href="#mdbd2d5336c" x="265.928413" y="72.514124" style="stroke: #000000"/>
     <use xlink:href="#mdbd2d5336c" x="253.827045" y="118.359818" style="stroke: #000000"/>
     <use xlink:href="#mdbd2d5336c" x="268.150051" y="74.278137" style="stroke: #000000"/>
     <use xlink:href="#mdbd2d5336c" x="248.718746" y="138.8206" style="stroke: #000000"/>
     <use xlink:href="#mdbd2d5336c" x="254.388639" y="122.354036" style="stroke: #000000"/>
     <use xlink:href="#mdbd2d5336c" x="270.654016" y="75.115952" style="stroke: #000000"/>
     <use xlink:href="#mdbd2d5336c" x="255.224523" y="125.227887" style="stroke: #000000"/>
     <use xlink:href="#mdbd2d5336c" x="273.489904" y="75.044164" style="stroke: #000000"/>
     <use xlink:href="#mdbd2d5336c" x="257.277541" y="124.69581" style="stroke: #000000"/>
     <use xlink:href="#mdbd2d5336c" x="275.979686" y="75.975056" style="stroke: #000000"/>
     <use xlink:href="#mdbd2d5336c" x="258.903252" y="125.336195" style="stroke: #000000"/>
     <use xlink:href="#mdbd2d5336c" x="254.685098" y="139.745224" style="stroke: #000000"/>
     <use xlink:href="#mdbd2d5336c" x="256.048555" y="140.338072" style="stroke: #000000"/>
     <use xlink:href="#mdbd2d5336c" x="257.401458" y="140.954625" style="stroke: #000000"/>
     <use xlink:href="#mdbd2d5336c" x="258.743394" y="141.594696" style="stroke: #000000"/>
     <use xlink:href="#mdbd2d5336c" x="260.073955" y="142.258089" style="stroke: #000000"/>
     <use xlink:href="#mdbd2d5336c" x="260.793824" y="144.070993" style="stroke: #000000"/>
     <use xlink:href="#mdbd2d5336c" x="291.466718" y="86.383668" style="stroke: #000000"/>
     <use xlink:href="#mdbd2d5336c" x="261.459963" y="145.889913" style="stroke: #000000"/>
     <use xlink:href="#mdbd2d5336c" x="294.745075" y="85.841983" style="stroke: #000000"/>
     <use xlink:href="#mdbd2d5336c" x="262.715149" y="146.600063" style="stroke: #000000"/>
     <use xlink:href="#mdbd2d5336c" x="296.534047" y="88.024013" style="stroke: #000000"/>
     <use xlink:href="#mdbd2d5336c" x="264.617355" y="146.234243" style="stroke: #000000"/>
     <use xlink:href="#mdbd2d5336c" x="299.318227" y="88.482293" style="stroke: #000000"/>
     <use xlink:href="#mdbd2d5336c" x="265.86605" y="146.999444" style="stroke: #000000"/>
     <use xlink:href="#mdbd2d5336c" x="301.569548" y="89.861905" style="stroke: #000000"/>
     <use xlink:href="#mdbd2d5336c" x="266.403686" y="148.860401" style="stroke: #000000"/>
     <use xlink:href="#mdbd2d5336c" x="303.796448" y="91.280596" style="stroke: #000000"/>
     <use xlink:href="#mdbd2d5336c" x="306.565466" y="91.897005" style="stroke: #000000"/>
     <use xlink:href="#mdbd2d5336c" x="269.529367" y="149.42414" style="stroke: #000000"/>
     <use xlink:href="#mdbd2d5336c" x="251.822968" y="176.286377" style="stroke: #000000"/>
     <use xlink:href="#mdbd2d5336c" x="255.067396" y="173.481857" style="stroke: #000000"/>
     <use xlink:href="#mdbd2d5336c" x="256.694129" y="172.985575" style="stroke: #000000"/>
     <use xlink:href="#mdbd2d5336c" x="315.165668" y="98.145417" style="stroke: #000000"/>
     <use xlink:href="#mdbd2d5336c" x="260.927749" y="169.347295" style="stroke: #000000"/>
     <use xlink:href="#mdbd2d5336c" x="316.607581" y="100.588429" style="stroke: #000000"/>
     <use xlink:href="#mdbd2d5336c" x="272.85766" y="156.835149" style="stroke: #000000"/>
     <use xlink:href="#mdbd2d5336c" x="319.296997" y="101.490902" style="stroke: #000000"/>
     <use xlink:href="#mdbd2d5336c" x="274.766866" y="156.768444" style="stroke: #000000"/>
     <use xlink:href="#mdbd2d5336c" x="320.652772" y="103.982747" style="stroke: #000000"/>
     <use xlink:href="#mdbd2d5336c" x="275.830168" y="157.709174" style="stroke: #000000"/>
     <use xlink:href="#mdbd2d5336c" x="323.309054" y="104.978529" style="stroke: #000000"/>
     <use xlink:href="#mdbd2d5336c" x="277.753728" y="157.728026" style="stroke: #000000"/>
     <use xlink:href="#mdbd2d5336c" x="325.268822" y="106.774326" style="stroke: #000000"/>
     <use xlink:href="#mdbd2d5336c" x="277.906714" y="159.645585" style="stroke: #000000"/>
     <use xlink:href="#mdbd2d5336c" x="327.19695" y="108.604051" style="stroke: #000000"/>
     <use xlink:href="#mdbd2d5336c" x="279.828444" y="159.731556" style="stroke: #000000"/>
     <use xlink:href="#mdbd2d5336c" x="329.807359" y="109.752641" style="stroke: #000000"/>
     <use xlink:href="#mdbd2d5336c" x="280.839262" y="160.760172" style="stroke: #000000"/>
     <use xlink:href="#mdbd2d5336c" x="330.955949" y="112.36305" style="stroke: #000000"/>
     <use xlink:href="#mdbd2d5336c" x="281.831974" y="161.806272" style="stroke: #000000"/>
     <use xlink:href="#mdbd2d5336c" x="333.524682" y="113.602042" style="stroke: #000000"/>
     <use xlink:href="#mdbd2d5336c" x="282.806278" y="162.869539" style="stroke: #000000"/>
     <use xlink:href="#mdbd2d5336c" x="336.080443" y="114.901265" style="stroke: #000000"/>
     <use xlink:href="#mdbd2d5336c" x="283.761877" y="163.949647" style="stroke: #000000"/>
     <use xlink:href="#mdbd2d5336c" x="337.105399" y="117.578831" style="stroke: #000000"/>
     <use xlink:href="#mdbd2d5336c" x="284.698481" y="165.046268" style="stroke: #000000"/>
     <use xlink:href="#mdbd2d5336c" x="338.069098" y="120.263003" style="stroke: #000000"/>
     <use xlink:href="#mdbd2d5336c" x="284.616635" y="166.968179" style="stroke: #000000"/>
     <use xlink:href="#mdbd2d5336c" x="341.327422" y="121.044688" style="stroke: #000000"/>
     <use xlink:href="#mdbd2d5336c" x="285.500427" y="168.079258" style="stroke: #000000"/>
     <use xlink:href="#mdbd2d5336c" x="341.414583" y="124.394332" style="stroke: #000000"/>
     <use xlink:href="#mdbd2d5336c" x="288.414297" y="167.661105" style="stroke: #000000"/>
     <use xlink:href="#mdbd2d5336c" x="342.222646" y="127.113606" style="stroke: #000000"/>
     <use xlink:href="#mdbd2d5336c" x="288.249315" y="169.59113" style="stroke: #000000"/>
     <use xlink:href="#mdbd2d5336c" x="346.245689" y="127.454298" style="stroke: #000000"/>
     <use xlink:href="#mdbd2d5336c" x="289.086777" y="170.765208" style="stroke: #000000"/>
     <use xlink:href="#mdbd2d5336c" x="346.157423" y="130.803912" style="stroke: #000000"/>
     <use xlink:href="#mdbd2d5336c" x="289.903622" y="171.953724" style="stroke: #000000"/>
     <use xlink:href="#mdbd2d5336c" x="347.662995" y="132.994534" style="stroke: #000000"/>
     <use xlink:href="#mdbd2d5336c" x="288.538856" y="174.559517" style="stroke: #000000"/>
     <use xlink:href="#mdbd2d5336c" x="348.279404" y="135.763552" style="stroke: #000000"/>
     <use xlink:href="#mdbd2d5336c" x="290.384141" y="175.053924" style="stroke: #000000"/>
     <use xlink:href="#mdbd2d5336c" x="350.558311" y="137.45293" style="stroke: #000000"/>
     <use xlink:href="#mdbd2d5336c" x="290.019592" y="176.92919" style="stroke: #000000"/>
     <use xlink:href="#mdbd2d5336c" x="352.81331" y="139.198917" style="stroke: #000000"/>
     <use xlink:href="#mdbd2d5336c" x="291.846498" y="177.487695" style="stroke: #000000"/>
     <use xlink:href="#mdbd2d5336c" x="352.417817" y="142.516828" style="stroke: #000000"/>
     <use xlink:href="#mdbd2d5336c" x="288.003633" y="181.241003" style="stroke: #000000"/>
     <use xlink:href="#mdbd2d5336c" x="350.135066" y="146.800988" style="stroke: #000000"/>
     <use xlink:href="#mdbd2d5336c" x="287.480323" y="183.024469" style="stroke: #000000"/>
     <use xlink:href="#mdbd2d5336c" x="351.360845" y="149.058593" style="stroke: #000000"/>
     <use xlink:href="#mdbd2d5336c" x="290.415038" y="182.995082" style="stroke: #000000"/>
     <use xlink:href="#mdbd2d5336c" x="353.464828" y="150.869609" style="stroke: #000000"/>
     <use xlink:href="#mdbd2d5336c" x="289.844546" y="184.777364" style="stroke: #000000"/>
     <use xlink:href="#mdbd2d5336c" x="355.54135" y="152.734892" style="stroke: #000000"/>
     <use xlink:href="#mdbd2d5336c" x="291.600234" y="185.425093" style="stroke: #000000"/>
     <use xlink:href="#mdbd2d5336c" x="293.349171" y="186.126165" style="stroke: #000000"/>
     <use xlink:href="#mdbd2d5336c" x="292.699902" y="187.894987" style="stroke: #000000"/>
     <use xlink:href="#mdbd2d5336c" x="294.423306" y="188.656669" style="stroke: #000000"/>
     <use xlink:href="#mdbd2d5336c" x="293.712701" y="190.401755" style="stroke: #000000"/>
     <use xlink:href="#mdbd2d5336c" x="295.408474" y="191.223118" style="stroke: #000000"/>
     <use xlink:href="#mdbd2d5336c" x="362.60582" y="166.765285" style="stroke: #000000"/>
     <use xlink:href="#mdbd2d5336c" x="295.867315" y="192.518847" style="stroke: #000000"/>
     <use xlink:href="#mdbd2d5336c" x="363.481275" y="169.237494" style="stroke: #000000"/>
     <use xlink:href="#mdbd2d5336c" x="293.824413" y="194.627882" style="stroke: #000000"/>
     <use xlink:href="#mdbd2d5336c" x="362.365427" y="172.357556" style="stroke: #000000"/>
     <use xlink:href="#mdbd2d5336c" x="294.224075" y="195.895446" style="stroke: #000000"/>
     <use xlink:href="#mdbd2d5336c" x="363.14332" y="174.824718" style="stroke: #000000"/>
     <use xlink:href="#mdbd2d5336c" x="294.601554" y="197.169792" style="stroke: #000000"/>
     <use xlink:href="#mdbd2d5336c" x="363.878037" y="177.30508" style="stroke: #000000"/>
     <use xlink:href="#mdbd2d5336c" x="297.474553" y="197.775885" style="stroke: #000000"/>
     <use xlink:href="#mdbd2d5336c" x="364.569354" y="179.797887" style="stroke: #000000"/>
     <use xlink:href="#mdbd2d5336c" x="297.818719" y="199.106674" style="stroke: #000000"/>
     <use xlink:href="#mdbd2d5336c" x="365.217059" y="182.30238" style="stroke: #000000"/>
     <use xlink:href="#mdbd2d5336c" x="298.139606" y="200.443266" style="stroke: #000000"/>
     <use xlink:href="#mdbd2d5336c" x="366.820763" y="184.586971" style="stroke: #000000"/>
     <use xlink:href="#mdbd2d5336c" x="297.164758" y="202.055703" style="stroke: #000000"/>
     <use xlink:href="#mdbd2d5336c" x="366.380863" y="187.343366" style="stroke: #000000"/>
     <use xlink:href="#mdbd2d5336c" x="298.711163" y="203.132232" style="stroke: #000000"/>
     <use xlink:href="#mdbd2d5336c" x="366.896606" y="189.878325" style="stroke: #000000"/>
     <use xlink:href="#mdbd2d5336c" x="296.394622" y="204.936425" style="stroke: #000000"/>
     <use xlink:href="#mdbd2d5336c" x="367.368029" y="192.421898" style="stroke: #000000"/>
     <use xlink:href="#mdbd2d5336c" x="296.613983" y="206.247275" style="stroke: #000000"/>
     <use xlink:href="#mdbd2d5336c" x="366.777611" y="195.134448" style="stroke: #000000"/>
     <use xlink:href="#mdbd2d5336c" x="296.810433" y="207.561755" style="stroke: #000000"/>
     <use xlink:href="#mdbd2d5336c" x="368.177357" y="197.531788" style="stroke: #000000"/>
     <use xlink:href="#mdbd2d5336c" x="294.376509" y="209.199611" style="stroke: #000000"/>
     <use xlink:href="#mdbd2d5336c" x="366.466304" y="200.348098" style="stroke: #000000"/>
     <use xlink:href="#mdbd2d5336c" x="297.134369" y="210.199997" style="stroke: #000000"/>
     <use xlink:href="#mdbd2d5336c" x="367.78344" y="202.77448" style="stroke: #000000"/>
     <use xlink:href="#mdbd2d5336c" x="298.562639" y="211.409144" style="stroke: #000000"/>
     <use xlink:href="#mdbd2d5336c" x="296.058287" y="212.939384" style="stroke: #000000"/>
     <use xlink:href="#mdbd2d5336c" x="369.258766" y="207.820708" style="stroke: #000000"/>
     <use xlink:href="#mdbd2d5336c" x="296.138028" y="214.243146" style="stroke: #000000"/>
     <use xlink:href="#mdbd2d5336c" x="369.416692" y="210.402774" style="stroke: #000000"/>
     <use xlink:href="#mdbd2d5336c" x="294.87976" y="215.59403" style="stroke: #000000"/>
     <use xlink:href="#mdbd2d5336c" x="292.266276" y="216.923025" style="stroke: #000000"/>
     <use xlink:href="#mdbd2d5336c" x="293.603381" y="218.16" style="stroke: #000000"/>
     <use xlink:href="#mdbd2d5336c" x="298.845591" y="219.511818" style="stroke: #000000"/>
     <use xlink:href="#mdbd2d5336c" x="297.505145" y="220.81765" style="stroke: #000000"/>
     <use xlink:href="#mdbd2d5336c" x="293.504429" y="221.938833" style="stroke: #000000"/>
     <use xlink:href="#mdbd2d5336c" x="367.355425" y="225.8092" style="stroke: #000000"/>
     <use xlink:href="#mdbd2d5336c" x="293.427497" y="223.196653" style="stroke: #000000"/>
     <use xlink:href="#mdbd2d5336c" x="294.644766" y="224.568087" style="stroke: #000000"/>
     <use xlink:href="#mdbd2d5336c" x="293.207843" y="225.707308" style="stroke: #000000"/>
     <use xlink:href="#mdbd2d5336c" x="295.682744" y="227.280774" style="stroke: #000000"/>
     <use xlink:href="#mdbd2d5336c" x="292.900703" y="228.208768" style="stroke: #000000"/>
     <use xlink:href="#mdbd2d5336c" x="294.01934" y="229.661774" style="stroke: #000000"/>
     <use xlink:href="#mdbd2d5336c" x="292.506449" y="230.697986" style="stroke: #000000"/>
     <use xlink:href="#mdbd2d5336c" x="292.276801" y="231.937055" style="stroke: #000000"/>
     <use xlink:href="#mdbd2d5336c" x="292.025564" y="233.171927" style="stroke: #000000"/>
     <use xlink:href="#mdbd2d5336c" x="294.322435" y="234.995471" style="stroke: #000000"/>
     <use xlink:href="#mdbd2d5336c" x="291.458632" y="235.627579" style="stroke: #000000"/>
     <use xlink:href="#mdbd2d5336c" x="292.419261" y="237.189554" style="stroke: #000000"/>
     <use xlink:href="#mdbd2d5336c" x="293.341397" y="238.788864" style="stroke: #000000"/>
     <use xlink:href="#mdbd2d5336c" x="290.448437" y="239.270226" style="stroke: #000000"/>
     <use xlink:href="#mdbd2d5336c" x="288.8081" y="240.062219" style="stroke: #000000"/>
     <use xlink:href="#mdbd2d5336c" x="294.637399" y="243.377659" style="stroke: #000000"/>
     <use xlink:href="#mdbd2d5336c" x="292.959035" y="244.205359" style="stroke: #000000"/>
     <use xlink:href="#mdbd2d5336c" x="290.04108" y="244.508842" style="stroke: #000000"/>
     <use xlink:href="#mdbd2d5336c" x="289.570775" y="245.702781" style="stroke: #000000"/>
     <use xlink:href="#mdbd2d5336c" x="290.291131" y="247.40255" style="stroke: #000000"/>
     <use xlink:href="#mdbd2d5336c" x="298.056504" y="252.289675" style="stroke: #000000"/>
     <use xlink:href="#mdbd2d5336c" x="296.288482" y="253.081073" style="stroke: #000000"/>
     <use xlink:href="#mdbd2d5336c" x="293.351975" y="253.253323" style="stroke: #000000"/>
     <use xlink:href="#mdbd2d5336c" x="331.380636" y="271.80114" style="stroke: #000000"/>
     <use xlink:href="#mdbd2d5336c" x="288.083458" y="252.136919" style="stroke: #000000"/>
     <use xlink:href="#mdbd2d5336c" x="344.895274" y="283.823602" style="stroke: #000000"/>
     <use xlink:href="#mdbd2d5336c" x="294.790206" y="258.840856" style="stroke: #000000"/>
     <use xlink:href="#mdbd2d5336c" x="290.728717" y="258.186954" style="stroke: #000000"/>
     <use xlink:href="#mdbd2d5336c" x="290.019592" y="259.39081" style="stroke: #000000"/>
     <use xlink:href="#mdbd2d5336c" x="292.560556" y="262.62605" style="stroke: #000000"/>
     <use xlink:href="#mdbd2d5336c" x="339.11305" y="291.715277" style="stroke: #000000"/>
     <use xlink:href="#mdbd2d5336c" x="287.452162" y="261.054775" style="stroke: #000000"/>
     <use xlink:href="#mdbd2d5336c" x="339.589909" y="294.913424" style="stroke: #000000"/>
     <use xlink:href="#mdbd2d5336c" x="283.445665" y="260.010329" style="stroke: #000000"/>
     <use xlink:href="#mdbd2d5336c" x="338.232376" y="296.964433" style="stroke: #000000"/>
     <use xlink:href="#mdbd2d5336c" x="286.976322" y="264.077035" style="stroke: #000000"/>
     <use xlink:href="#mdbd2d5336c" x="339.419874" y="300.798405" style="stroke: #000000"/>
     <use xlink:href="#mdbd2d5336c" x="285.1167" y="264.452893" style="stroke: #000000"/>
     <use xlink:href="#mdbd2d5336c" x="337.95966" y="302.84555" style="stroke: #000000"/>
     <use xlink:href="#mdbd2d5336c" x="284.299074" y="265.557852" style="stroke: #000000"/>
     <use xlink:href="#mdbd2d5336c" x="335.628516" y="304.237361" style="stroke: #000000"/>
     <use xlink:href="#mdbd2d5336c" x="282.437255" y="265.84753" style="stroke: #000000"/>
     <use xlink:href="#mdbd2d5336c" x="279.562066" y="265.258712" style="stroke: #000000"/>
     <use xlink:href="#mdbd2d5336c" x="330.919535" y="306.84717" style="stroke: #000000"/>
     <use xlink:href="#mdbd2d5336c" x="280.735802" y="267.948649" style="stroke: #000000"/>
     <use xlink:href="#mdbd2d5336c" x="291.389877" y="279.001272" style="stroke: #000000"/>
     <use xlink:href="#mdbd2d5336c" x="285.650416" y="276.011334" style="stroke: #000000"/>
     <use xlink:href="#mdbd2d5336c" x="281.831974" y="274.513728" style="stroke: #000000"/>
     <use xlink:href="#mdbd2d5336c" x="279.914415" y="274.666714" style="stroke: #000000"/>
     <use xlink:href="#mdbd2d5336c" x="282.534658" y="279.294658" style="stroke: #000000"/>
     <use xlink:href="#mdbd2d5336c" x="277.906714" y="276.674415" style="stroke: #000000"/>
     <use xlink:href="#mdbd2d5336c" x="277.753728" y="278.591974" style="stroke: #000000"/>
     <use xlink:href="#mdbd2d5336c" x="275.830168" y="278.610826" style="stroke: #000000"/>
     <use xlink:href="#mdbd2d5336c" x="275.610353" y="280.521877" style="stroke: #000000"/>
     <use xlink:href="#mdbd2d5336c" x="272.024778" y="278.492261" style="stroke: #000000"/>
     <use xlink:href="#mdbd2d5336c" x="270.145514" y="278.355696" style="stroke: #000000"/>
     <use xlink:href="#mdbd2d5336c" x="272.272291" y="283.273563" style="stroke: #000000"/>
     <use xlink:href="#mdbd2d5336c" x="272.66664" y="286.193128" style="stroke: #000000"/>
     <use xlink:href="#mdbd2d5336c" x="269.213162" y="283.969171" style="stroke: #000000"/>
     <use xlink:href="#mdbd2d5336c" x="275.304072" y="295.142992" style="stroke: #000000"/>
     <use xlink:href="#mdbd2d5336c" x="270.454234" y="290.885893" style="stroke: #000000"/>
     <use xlink:href="#mdbd2d5336c" x="267.101201" y="288.533678" style="stroke: #000000"/>
     <use xlink:href="#mdbd2d5336c" x="264.506076" y="287.144141" style="stroke: #000000"/>
     <use xlink:href="#mdbd2d5336c" x="262.63081" y="286.779592" style="stroke: #000000"/>
     <use xlink:href="#mdbd2d5336c" x="267.768748" y="298.473027" style="stroke: #000000"/>
     <use xlink:href="#mdbd2d5336c" x="263.31541" y="293.7774" style="stroke: #000000"/>
     <use xlink:href="#mdbd2d5336c" x="260.793824" y="292.249007" style="stroke: #000000"/>
     <use xlink:href="#mdbd2d5336c" x="257.155462" y="288.334046" style="stroke: #000000"/>
     <use xlink:href="#mdbd2d5336c" x="255.355084" y="287.778239" style="stroke: #000000"/>
     <use xlink:href="#mdbd2d5336c" x="256.862317" y="294.209184" style="stroke: #000000"/>
     <use xlink:href="#mdbd2d5336c" x="256.565418" y="297.142822" style="stroke: #000000"/>
     <use xlink:href="#mdbd2d5336c" x="253.68623" y="294.22159" style="stroke: #000000"/>
     <use xlink:href="#mdbd2d5336c" x="278.507592" y="352.697056" style="stroke: #000000"/>
     <use xlink:href="#mdbd2d5336c" x="250.416048" y="289.97724" style="stroke: #000000"/>
     <use xlink:href="#mdbd2d5336c" x="274.148093" y="355.57348" style="stroke: #000000"/>
     <use xlink:href="#mdbd2d5336c" x="269.655654" y="358.304595" style="stroke: #000000"/>
     <use xlink:href="#mdbd2d5336c" x="266.564603" y="357.162356" style="stroke: #000000"/>
     <use xlink:href="#mdbd2d5336c" x="264.131799" y="357.929416" style="stroke: #000000"/>
     <use xlink:href="#mdbd2d5336c" x="239.408211" y="296.162131" style="stroke: #000000"/>
     <use xlink:href="#mdbd2d5336c" x="238.579805" y="298.984628" style="stroke: #000000"/>
     <use xlink:href="#mdbd2d5336c" x="236.921283" y="298.01008" style="stroke: #000000"/>
     <use xlink:href="#mdbd2d5336c" x="235.076213" y="295.721659" style="stroke: #000000"/>
     <use xlink:href="#mdbd2d5336c" x="234.326226" y="299.772982" style="stroke: #000000"/>
     <use xlink:href="#mdbd2d5336c" x="232.899915" y="299.986146" style="stroke: #000000"/>
     <use xlink:href="#mdbd2d5336c" x="231.313414" y="298.898279" style="stroke: #000000"/>
     <use xlink:href="#mdbd2d5336c" x="239.33792" y="364.252631" style="stroke: #000000"/>
     <use xlink:href="#mdbd2d5336c" x="230.171087" y="301.611317" style="stroke: #000000"/>
     <use xlink:href="#mdbd2d5336c" x="236.677433" y="363.51507" style="stroke: #000000"/>
     <use xlink:href="#mdbd2d5336c" x="228.601705" y="300.475865" style="stroke: #000000"/>
     <use xlink:href="#mdbd2d5336c" x="234.228433" y="364.789659" style="stroke: #000000"/>
     <use xlink:href="#mdbd2d5336c" x="226.984278" y="298.0189" style="stroke: #000000"/>
     <use xlink:href="#mdbd2d5336c" x="231.595308" y="363.959698" style="stroke: #000000"/>
     <use xlink:href="#mdbd2d5336c" x="225.657248" y="299.39313" style="stroke: #000000"/>
     <use xlink:href="#mdbd2d5336c" x="229.103317" y="365.148043" style="stroke: #000000"/>
     <use xlink:href="#mdbd2d5336c" x="224.238886" y="299.455057" style="stroke: #000000"/>
     <use xlink:href="#mdbd2d5336c" x="226.572797" y="366.28953" style="stroke: #000000"/>
     <use xlink:href="#mdbd2d5336c" x="222.819659" y="299.49222" style="stroke: #000000"/>
     <use xlink:href="#mdbd2d5336c" x="223.986793" y="366.357247" style="stroke: #000000"/>
     <use xlink:href="#mdbd2d5336c" x="221.4" y="298.213907" style="stroke: #000000"/>
     <use xlink:href="#mdbd2d5336c" x="221.4" y="365.349761" style="stroke: #000000"/>
    </g>
   </g>
   <g id="patch_3">
    <path d="M 221.4 51.84 
C 199.559058 51.84 177.930491 56.142189 157.752092 64.500356 
C 137.573692 72.858523 119.237879 85.110122 103.794 100.554 
C 88.350122 115.997879 76.098523 134.333692 67.740356 154.512092 
C 59.382189 174.690491 55.08 196.319058 55.08 218.16 
C 55.08 240.000942 59.382189 261.629509 67.740356 281.807908 
C 76.098523 301.986308 88.350122 320.322121 103.794 335.766 
C 119.237879 351.209878 137.573692 363.461477 157.752092 371.819644 
C 177.930491 380.177811 199.559058 384.48 221.4 384.48 
C 243.240942 384.48 264.869509 380.177811 285.047908 371.819644 
C 305.226308 363.461477 323.562121 351.209878 339.006 335.766 
C 354.449878 320.322121 366.701477 301.986308 375.059644 281.807908 
C 383.417811 261.629509 387.72 240.000942 387.72 218.16 
C 387.72 196.319058 383.417811 174.690491 375.059644 154.512092 
C 366.701477 134.333692 354.449878 115.997879 339.006 100.554 
C 323.562121 85.110122 305.226308 72.858523 285.047908 64.500356 
C 264.869509 56.142189 243.240942 51.84 221.4 51.84 
" style="fill: none; stroke: #ffffff; stroke-width: 1.25; stroke-linejoin: miter; stroke-linecap: square"/>
   </g>
  </g>
 </g>
 <defs>
  <clipPath id="p2d71be413d">
   <path d="M 387.72 218.16 
C 387.72 196.319058 383.417811 174.690491 375.059644 154.512092 
C 366.701477 134.333692 354.449878 115.997879 339.006 100.554 
C 323.562121 85.110122 305.226308 72.858523 285.047908 64.500356 
C 264.869509 56.142189 243.240942 51.84 221.4 51.84 
C 199.559058 51.84 177.930491 56.142189 157.752092 64.500356 
C 137.573692 72.858523 119.237879 85.110122 103.794 100.554 
C 88.350122 115.997879 76.098523 134.333692 67.740356 154.512092 
C 59.382189 174.690491 55.08 196.319058 55.08 218.16 
C 55.08 240.000942 59.382189 261.629509 67.740356 281.807908 
C 76.098523 301.986308 88.350122 320.322121 103.794 335.766 
C 119.237879 351.209878 137.573692 363.461477 157.752092 371.819644 
C 177.930491 380.177811 199.559058 384.48 221.4 384.48 
C 243.240942 384.48 264.869509 380.177811 285.047908 371.819644 
C 305.226308 363.461477 323.562121 351.209878 339.006 335.766 
C 354.449878 320.322121 366.701477 301.986308 375.059644 281.807908 
C 383.417811 261.629509 387.72 240.000942 387.72 218.16 
M 221.4 218.16 
C 221.4 218.16 221.4 218.16 221.4 218.16 
C 221.4 218.16 221.4 218.16 221.4 218.16 
C 221.4 218.16 221.4 218.16 221.4 218.16 
C 221.4 218.16 221.4 218.16 221.4 218.16 
C 221.4 218.16 221.4 218.16 221.4 218.16 
C 221.4 218.16 221.4 218.16 221.4 218.16 
C 221.4 218.16 221.4 218.16 221.4 218.16 
C 221.4 218.16 221.4 218.16 221.4 218.16 
C 221.4 218.16 221.4 218.16 221.4 218.16 
C 221.4 218.16 221.4 218.16 221.4 218.16 
C 221.4 218.16 221.4 218.16 221.4 218.16 
C 221.4 218.16 221.4 218.16 221.4 218.16 
C 221.4 218.16 221.4 218.16 221.4 218.16 
C 221.4 218.16 221.4 218.16 221.4 218.16 
C 221.4 218.16 221.4 218.16 221.4 218.16 
C 221.4 218.16 221.4 218.16 221.4 218.16 
z
"/>
  </clipPath>
 </defs>
</svg>
