<?xml version="1.0" encoding="utf-8" standalone="no"?>
<!DOCTYPE svg PUBLIC "-//W3C//DTD SVG 1.1//EN"
  "http://www.w3.org/Graphics/SVG/1.1/DTD/svg11.dtd">
<svg xmlns:xlink="http://www.w3.org/1999/xlink" width="432pt" height="432pt" viewBox="0 0 432 432" xmlns="http://www.w3.org/2000/svg" version="1.1">
 <metadata>
  <rdf:RDF xmlns:dc="http://purl.org/dc/elements/1.1/" xmlns:cc="http://creativecommons.org/ns#" xmlns:rdf="http://www.w3.org/1999/02/22-rdf-syntax-ns#">
   <cc:Work>
    <dc:type rdf:resource="http://purl.org/dc/dcmitype/StillImage"/>
    <dc:date>2024-09-11T16:33:37.800625</dc:date>
    <dc:format>image/svg+xml</dc:format>
    <dc:creator>
     <cc:Agent>
      <dc:title>Matplotlib v3.9.1, https://matplotlib.org/</dc:title>
     </cc:Agent>
    </dc:creator>
   </cc:Work>
  </rdf:RDF>
 </metadata>
 <defs>
  <style type="text/css">*{stroke-linejoin: round; stroke-linecap: butt}</style>
 </defs>
 <g id="figure_1">
  <g id="patch_1">
   <path d="M 0 432 
L 432 432 
L 432 0 
L 0 0 
z
" style="fill: #ffffff"/>
  </g>
  <g id="axes_1">
   <g id="patch_2">
    <path d="M 387.72 218.16 
C 387.72 196.319058 383.417811 174.690491 375.059644 154.512092 
C 366.701477 134.333692 354.449878 115.997879 339.006 100.554 
C 323.562121 85.110122 305.226308 72.858523 285.047908 64.500356 
C 264.869509 56.142189 243.240942 51.84 221.4 51.84 
C 199.559058 51.84 177.930491 56.142189 157.752092 64.500356 
C 137.573692 72.858523 119.237879 85.110122 103.794 100.554 
C 88.350122 115.997879 76.098523 134.333692 67.740356 154.512092 
C 59.382189 174.690491 55.08 196.319058 55.08 218.16 
C 55.08 240.000942 59.382189 261.629509 67.740356 281.807908 
C 76.098523 301.986308 88.350122 320.322121 103.794 335.766 
C 119.237879 351.209878 137.573692 363.461477 157.752092 371.819644 
C 177.930491 380.177811 199.559058 384.48 221.4 384.48 
C 243.240942 384.48 264.869509 380.177811 285.047908 371.819644 
C 305.226308 363.461477 323.562121 351.209878 339.006 335.766 
C 354.449878 320.322121 366.701477 301.986308 375.059644 281.807908 
C 383.417811 261.629509 387.72 240.000942 387.72 218.16 
M 221.4 218.16 
C 221.4 218.16 221.4 218.16 221.4 218.16 
C 221.4 218.16 221.4 218.16 221.4 218.16 
C 221.4 218.16 221.4 218.16 221.4 218.16 
C 221.4 218.16 221.4 218.16 221.4 218.16 
C 221.4 218.16 221.4 218.16 221.4 218.16 
C 221.4 218.16 221.4 218.16 221.4 218.16 
C 221.4 218.16 221.4 218.16 221.4 218.16 
C 221.4 218.16 221.4 218.16 221.4 218.16 
C 221.4 218.16 221.4 218.16 221.4 218.16 
C 221.4 218.16 221.4 218.16 221.4 218.16 
C 221.4 218.16 221.4 218.16 221.4 218.16 
C 221.4 218.16 221.4 218.16 221.4 218.16 
C 221.4 218.16 221.4 218.16 221.4 218.16 
C 221.4 218.16 221.4 218.16 221.4 218.16 
C 221.4 218.16 221.4 218.16 221.4 218.16 
C 221.4 218.16 221.4 218.16 221.4 218.16 
z
" style="fill: #eaeaf2"/>
   </g>
   <g id="matplotlib.axis_1">
    <g id="xtick_1">
     <g id="line2d_1">
      <path d="M 221.4 218.16 
L 221.4 51.84 
" clip-path="url(#p3d484813f4)" style="fill: none; stroke: #ffffff; stroke-linecap: round"/>
     </g>
     <g id="text_1">
      <!-- 0° -->
      <g style="fill: #262626" transform="translate(216.142344 38.183672) scale(0.11 -0.11)">
       <defs>
        <path id="ArialMT-30" d="M 266 2259 
Q 266 3072 433 3567 
Q 600 4063 929 4331 
Q 1259 4600 1759 4600 
Q 2128 4600 2406 4451 
Q 2684 4303 2865 4023 
Q 3047 3744 3150 3342 
Q 3253 2941 3253 2259 
Q 3253 1453 3087 958 
Q 2922 463 2592 192 
Q 2263 -78 1759 -78 
Q 1097 -78 719 397 
Q 266 969 266 2259 
z
M 844 2259 
Q 844 1131 1108 757 
Q 1372 384 1759 384 
Q 2147 384 2411 759 
Q 2675 1134 2675 2259 
Q 2675 3391 2411 3762 
Q 2147 4134 1753 4134 
Q 1366 4134 1134 3806 
Q 844 3388 844 2259 
z
" transform="scale(0.015625)"/>
        <path id="ArialMT-b0" d="M 400 3794 
Q 400 4153 654 4406 
Q 909 4659 1266 4659 
Q 1628 4659 1881 4406 
Q 2134 4153 2134 3794 
Q 2134 3434 1879 3179 
Q 1625 2925 1266 2925 
Q 909 2925 654 3178 
Q 400 3431 400 3794 
z
M 741 3794 
Q 741 3575 895 3420 
Q 1050 3266 1269 3266 
Q 1484 3266 1639 3420 
Q 1794 3575 1794 3794 
Q 1794 4013 1639 4167 
Q 1484 4322 1269 4322 
Q 1050 4322 895 4167 
Q 741 4013 741 3794 
z
" transform="scale(0.015625)"/>
       </defs>
       <use xlink:href="#ArialMT-30"/>
       <use xlink:href="#ArialMT-b0" x="55.615234"/>
      </g>
     </g>
    </g>
    <g id="xtick_2">
     <g id="line2d_2">
      <path d="M 221.4 218.16 
L 339.006 100.554 
" clip-path="url(#p3d484813f4)" style="fill: none; stroke: #ffffff; stroke-linecap: round"/>
     </g>
     <g id="text_2">
      <!-- 45° -->
      <g style="fill: #262626" transform="translate(342.35709 91.73041) scale(0.11 -0.11)">
       <defs>
        <path id="ArialMT-34" d="M 2069 0 
L 2069 1097 
L 81 1097 
L 81 1613 
L 2172 4581 
L 2631 4581 
L 2631 1613 
L 3250 1613 
L 3250 1097 
L 2631 1097 
L 2631 0 
L 2069 0 
z
M 2069 1613 
L 2069 3678 
L 634 1613 
L 2069 1613 
z
" transform="scale(0.015625)"/>
        <path id="ArialMT-35" d="M 266 1200 
L 856 1250 
Q 922 819 1161 601 
Q 1400 384 1738 384 
Q 2144 384 2425 690 
Q 2706 997 2706 1503 
Q 2706 1984 2436 2262 
Q 2166 2541 1728 2541 
Q 1456 2541 1237 2417 
Q 1019 2294 894 2097 
L 366 2166 
L 809 4519 
L 3088 4519 
L 3088 3981 
L 1259 3981 
L 1013 2750 
Q 1425 3038 1878 3038 
Q 2478 3038 2890 2622 
Q 3303 2206 3303 1553 
Q 3303 931 2941 478 
Q 2500 -78 1738 -78 
Q 1113 -78 717 272 
Q 322 622 266 1200 
z
" transform="scale(0.015625)"/>
       </defs>
       <use xlink:href="#ArialMT-34"/>
       <use xlink:href="#ArialMT-35" x="55.615234"/>
       <use xlink:href="#ArialMT-b0" x="111.230469"/>
      </g>
     </g>
    </g>
    <g id="xtick_3">
     <g id="line2d_3">
      <path d="M 221.4 218.16 
L 387.72 218.16 
" clip-path="url(#p3d484813f4)" style="fill: none; stroke: #ffffff; stroke-linecap: round"/>
     </g>
     <g id="text_3">
      <!-- 90° -->
      <g style="fill: #262626" transform="translate(395.903828 221.003672) scale(0.11 -0.11)">
       <defs>
        <path id="ArialMT-39" d="M 350 1059 
L 891 1109 
Q 959 728 1153 556 
Q 1347 384 1650 384 
Q 1909 384 2104 503 
Q 2300 622 2425 820 
Q 2550 1019 2634 1356 
Q 2719 1694 2719 2044 
Q 2719 2081 2716 2156 
Q 2547 1888 2255 1720 
Q 1963 1553 1622 1553 
Q 1053 1553 659 1965 
Q 266 2378 266 3053 
Q 266 3750 677 4175 
Q 1088 4600 1706 4600 
Q 2153 4600 2523 4359 
Q 2894 4119 3086 3673 
Q 3278 3228 3278 2384 
Q 3278 1506 3087 986 
Q 2897 466 2520 194 
Q 2144 -78 1638 -78 
Q 1100 -78 759 220 
Q 419 519 350 1059 
z
M 2653 3081 
Q 2653 3566 2395 3850 
Q 2138 4134 1775 4134 
Q 1400 4134 1122 3828 
Q 844 3522 844 3034 
Q 844 2597 1108 2323 
Q 1372 2050 1759 2050 
Q 2150 2050 2401 2323 
Q 2653 2597 2653 3081 
z
" transform="scale(0.015625)"/>
       </defs>
       <use xlink:href="#ArialMT-39"/>
       <use xlink:href="#ArialMT-30" x="55.615234"/>
       <use xlink:href="#ArialMT-b0" x="111.230469"/>
      </g>
     </g>
    </g>
    <g id="xtick_4">
     <g id="line2d_4">
      <path d="M 221.4 218.16 
L 339.006 335.766 
" clip-path="url(#p3d484813f4)" style="fill: none; stroke: #ffffff; stroke-linecap: round"/>
     </g>
     <g id="text_4">
      <!-- 135° -->
      <g style="fill: #262626" transform="translate(339.298574 350.276934) scale(0.11 -0.11)">
       <defs>
        <path id="ArialMT-31" d="M 2384 0 
L 1822 0 
L 1822 3584 
Q 1619 3391 1289 3197 
Q 959 3003 697 2906 
L 697 3450 
Q 1169 3672 1522 3987 
Q 1875 4303 2022 4600 
L 2384 4600 
L 2384 0 
z
" transform="scale(0.015625)"/>
        <path id="ArialMT-33" d="M 269 1209 
L 831 1284 
Q 928 806 1161 595 
Q 1394 384 1728 384 
Q 2125 384 2398 659 
Q 2672 934 2672 1341 
Q 2672 1728 2419 1979 
Q 2166 2231 1775 2231 
Q 1616 2231 1378 2169 
L 1441 2663 
Q 1497 2656 1531 2656 
Q 1891 2656 2178 2843 
Q 2466 3031 2466 3422 
Q 2466 3731 2256 3934 
Q 2047 4138 1716 4138 
Q 1388 4138 1169 3931 
Q 950 3725 888 3313 
L 325 3413 
Q 428 3978 793 4289 
Q 1159 4600 1703 4600 
Q 2078 4600 2393 4439 
Q 2709 4278 2876 4000 
Q 3044 3722 3044 3409 
Q 3044 3113 2884 2869 
Q 2725 2625 2413 2481 
Q 2819 2388 3044 2092 
Q 3269 1797 3269 1353 
Q 3269 753 2831 336 
Q 2394 -81 1725 -81 
Q 1122 -81 723 278 
Q 325 638 269 1209 
z
" transform="scale(0.015625)"/>
       </defs>
       <use xlink:href="#ArialMT-31"/>
       <use xlink:href="#ArialMT-33" x="55.615234"/>
       <use xlink:href="#ArialMT-35" x="111.230469"/>
       <use xlink:href="#ArialMT-b0" x="166.845703"/>
      </g>
     </g>
    </g>
    <g id="xtick_5">
     <g id="line2d_5">
      <path d="M 221.4 218.16 
L 221.4 384.48 
" clip-path="url(#p3d484813f4)" style="fill: none; stroke: #ffffff; stroke-linecap: round"/>
     </g>
     <g id="text_5">
      <!-- 180° -->
      <g style="fill: #262626" transform="translate(210.025312 403.823672) scale(0.11 -0.11)">
       <defs>
        <path id="ArialMT-38" d="M 1131 2484 
Q 781 2613 612 2850 
Q 444 3088 444 3419 
Q 444 3919 803 4259 
Q 1163 4600 1759 4600 
Q 2359 4600 2725 4251 
Q 3091 3903 3091 3403 
Q 3091 3084 2923 2848 
Q 2756 2613 2416 2484 
Q 2838 2347 3058 2040 
Q 3278 1734 3278 1309 
Q 3278 722 2862 322 
Q 2447 -78 1769 -78 
Q 1091 -78 675 323 
Q 259 725 259 1325 
Q 259 1772 486 2073 
Q 713 2375 1131 2484 
z
M 1019 3438 
Q 1019 3113 1228 2906 
Q 1438 2700 1772 2700 
Q 2097 2700 2305 2904 
Q 2513 3109 2513 3406 
Q 2513 3716 2298 3927 
Q 2084 4138 1766 4138 
Q 1444 4138 1231 3931 
Q 1019 3725 1019 3438 
z
M 838 1322 
Q 838 1081 952 856 
Q 1066 631 1291 507 
Q 1516 384 1775 384 
Q 2178 384 2440 643 
Q 2703 903 2703 1303 
Q 2703 1709 2433 1975 
Q 2163 2241 1756 2241 
Q 1359 2241 1098 1978 
Q 838 1716 838 1322 
z
" transform="scale(0.015625)"/>
       </defs>
       <use xlink:href="#ArialMT-31"/>
       <use xlink:href="#ArialMT-38" x="55.615234"/>
       <use xlink:href="#ArialMT-30" x="111.230469"/>
       <use xlink:href="#ArialMT-b0" x="166.845703"/>
      </g>
     </g>
    </g>
    <g id="xtick_6">
     <g id="line2d_6">
      <path d="M 221.4 218.16 
L 103.794 335.766 
" clip-path="url(#p3d484813f4)" style="fill: none; stroke: #ffffff; stroke-linecap: round"/>
     </g>
     <g id="text_6">
      <!-- 225° -->
      <g style="fill: #262626" transform="translate(80.752051 350.276934) scale(0.11 -0.11)">
       <defs>
        <path id="ArialMT-32" d="M 3222 541 
L 3222 0 
L 194 0 
Q 188 203 259 391 
Q 375 700 629 1000 
Q 884 1300 1366 1694 
Q 2113 2306 2375 2664 
Q 2638 3022 2638 3341 
Q 2638 3675 2398 3904 
Q 2159 4134 1775 4134 
Q 1369 4134 1125 3890 
Q 881 3647 878 3216 
L 300 3275 
Q 359 3922 746 4261 
Q 1134 4600 1788 4600 
Q 2447 4600 2831 4234 
Q 3216 3869 3216 3328 
Q 3216 3053 3103 2787 
Q 2991 2522 2730 2228 
Q 2469 1934 1863 1422 
Q 1356 997 1212 845 
Q 1069 694 975 541 
L 3222 541 
z
" transform="scale(0.015625)"/>
       </defs>
       <use xlink:href="#ArialMT-32"/>
       <use xlink:href="#ArialMT-32" x="55.615234"/>
       <use xlink:href="#ArialMT-35" x="111.230469"/>
       <use xlink:href="#ArialMT-b0" x="166.845703"/>
      </g>
     </g>
    </g>
    <g id="xtick_7">
     <g id="line2d_7">
      <path d="M 221.4 218.16 
L 55.08 218.16 
" clip-path="url(#p3d484813f4)" style="fill: none; stroke: #ffffff; stroke-linecap: round"/>
     </g>
     <g id="text_7">
      <!-- 270° -->
      <g style="fill: #262626" transform="translate(27.205312 221.003672) scale(0.11 -0.11)">
       <defs>
        <path id="ArialMT-37" d="M 303 3981 
L 303 4522 
L 3269 4522 
L 3269 4084 
Q 2831 3619 2401 2847 
Q 1972 2075 1738 1259 
Q 1569 684 1522 0 
L 944 0 
Q 953 541 1156 1306 
Q 1359 2072 1739 2783 
Q 2119 3494 2547 3981 
L 303 3981 
z
" transform="scale(0.015625)"/>
       </defs>
       <use xlink:href="#ArialMT-32"/>
       <use xlink:href="#ArialMT-37" x="55.615234"/>
       <use xlink:href="#ArialMT-30" x="111.230469"/>
       <use xlink:href="#ArialMT-b0" x="166.845703"/>
      </g>
     </g>
    </g>
    <g id="xtick_8">
     <g id="line2d_8">
      <path d="M 221.4 218.16 
L 103.794 100.554 
" clip-path="url(#p3d484813f4)" style="fill: none; stroke: #ffffff; stroke-linecap: round"/>
     </g>
     <g id="text_8">
      <!-- 315° -->
      <g style="fill: #262626" transform="translate(80.752051 91.73041) scale(0.11 -0.11)">
       <use xlink:href="#ArialMT-33"/>
       <use xlink:href="#ArialMT-31" x="55.615234"/>
       <use xlink:href="#ArialMT-35" x="111.230469"/>
       <use xlink:href="#ArialMT-b0" x="166.845703"/>
      </g>
     </g>
    </g>
   </g>
   <g id="matplotlib.axis_2">
    <g id="ytick_1">
     <g id="line2d_9">
      <path d="M 221.4 218.16 
C 221.4 218.16 221.4 218.16 221.4 218.16 
C 221.4 218.16 221.4 218.16 221.4 218.16 
C 221.4 218.16 221.4 218.16 221.4 218.16 
C 221.4 218.16 221.4 218.16 221.4 218.16 
C 221.4 218.16 221.4 218.16 221.4 218.16 
C 221.4 218.16 221.4 218.16 221.4 218.16 
C 221.4 218.16 221.4 218.16 221.4 218.16 
C 221.4 218.16 221.4 218.16 221.4 218.16 
C 221.4 218.16 221.4 218.16 221.4 218.16 
C 221.4 218.16 221.4 218.16 221.4 218.16 
C 221.4 218.16 221.4 218.16 221.4 218.16 
C 221.4 218.16 221.4 218.16 221.4 218.16 
C 221.4 218.16 221.4 218.16 221.4 218.16 
C 221.4 218.16 221.4 218.16 221.4 218.16 
C 221.4 218.16 221.4 218.16 221.4 218.16 
C 221.4 218.16 221.4 218.16 221.4 218.16 
" clip-path="url(#p3d484813f4)" style="fill: none; stroke: #ffffff; stroke-linecap: round"/>
     </g>
     <g id="text_9">
      <!-- 0.0 -->
      <g style="fill: #dc143c" transform="translate(221.4 215.97375) scale(0.11 -0.11)">
       <defs>
        <path id="ArialMT-2e" d="M 581 0 
L 581 641 
L 1222 641 
L 1222 0 
L 581 0 
z
" transform="scale(0.015625)"/>
       </defs>
       <use xlink:href="#ArialMT-30"/>
       <use xlink:href="#ArialMT-2e" x="55.615234"/>
       <use xlink:href="#ArialMT-30" x="83.398438"/>
      </g>
     </g>
    </g>
    <g id="ytick_2">
     <g id="line2d_10">
      <path d="M 221.4 204.3 
C 223.220079 204.3 225.022459 204.658516 226.703992 205.35503 
C 228.385526 206.051544 229.91351 207.07251 231.2005 208.3595 
C 232.48749 209.64649 233.508456 211.174474 234.20497 212.856008 
C 234.901484 214.537541 235.26 216.339921 235.26 218.16 
C 235.26 219.980079 234.901484 221.782459 234.20497 223.463992 
C 233.508456 225.145526 232.48749 226.67351 231.2005 227.9605 
C 229.91351 229.24749 228.385526 230.268456 226.703992 230.96497 
C 225.022459 231.661484 223.220079 232.02 221.4 232.02 
C 219.579921 232.02 217.777541 231.661484 216.096008 230.96497 
C 214.414474 230.268456 212.88649 229.24749 211.5995 227.9605 
C 210.31251 226.67351 209.291544 225.145526 208.59503 223.463992 
C 207.898516 221.782459 207.54 219.980079 207.54 218.16 
C 207.54 216.339921 207.898516 214.537541 208.59503 212.856008 
C 209.291544 211.174474 210.31251 209.64649 211.5995 208.3595 
C 212.88649 207.07251 214.414474 206.051544 216.096008 205.35503 
C 217.777541 204.658516 219.579921 204.3 221.4 204.3 
" clip-path="url(#p3d484813f4)" style="fill: none; stroke: #ffffff; stroke-linecap: round"/>
     </g>
     <g id="text_10">
      <!-- 0.1 -->
      <g style="fill: #dc143c" transform="translate(226.703992 203.16878) scale(0.11 -0.11)">
       <use xlink:href="#ArialMT-30"/>
       <use xlink:href="#ArialMT-2e" x="55.615234"/>
       <use xlink:href="#ArialMT-31" x="83.398438"/>
      </g>
     </g>
    </g>
    <g id="ytick_3">
     <g id="line2d_11">
      <path d="M 221.4 190.44 
C 225.040157 190.44 228.644918 191.157032 232.007985 192.550059 
C 235.371051 193.943087 238.42702 195.98502 241.001 198.559 
C 243.57498 201.13298 245.616913 204.188949 247.009941 207.552015 
C 248.402968 210.915082 249.12 214.519843 249.12 218.16 
C 249.12 221.800157 248.402968 225.404918 247.009941 228.767985 
C 245.616913 232.131051 243.57498 235.18702 241.001 237.761 
C 238.42702 240.33498 235.371051 242.376913 232.007985 243.769941 
C 228.644918 245.162968 225.040157 245.88 221.4 245.88 
C 217.759843 245.88 214.155082 245.162968 210.792015 243.769941 
C 207.428949 242.376913 204.37298 240.33498 201.799 237.761 
C 199.22502 235.18702 197.183087 232.131051 195.790059 228.767985 
C 194.397032 225.404918 193.68 221.800157 193.68 218.16 
C 193.68 214.519843 194.397032 210.915082 195.790059 207.552015 
C 197.183087 204.188949 199.22502 201.13298 201.799 198.559 
C 204.37298 195.98502 207.428949 193.943087 210.792015 192.550059 
C 214.155082 191.157032 217.759843 190.44 221.4 190.44 
" clip-path="url(#p3d484813f4)" style="fill: none; stroke: #ffffff; stroke-linecap: round"/>
     </g>
     <g id="text_11">
      <!-- 0.2 -->
      <g style="fill: #dc143c" transform="translate(232.007985 190.363809) scale(0.11 -0.11)">
       <use xlink:href="#ArialMT-30"/>
       <use xlink:href="#ArialMT-2e" x="55.615234"/>
       <use xlink:href="#ArialMT-32" x="83.398438"/>
      </g>
     </g>
    </g>
    <g id="ytick_4">
     <g id="line2d_12">
      <path d="M 221.4 176.58 
C 226.860236 176.58 232.267377 177.655547 237.311977 179.745089 
C 242.356577 181.834631 246.94053 184.89753 250.8015 188.7585 
C 254.66247 192.61947 257.725369 197.203423 259.814911 202.248023 
C 261.904453 207.292623 262.98 212.699764 262.98 218.16 
C 262.98 223.620236 261.904453 229.027377 259.814911 234.071977 
C 257.725369 239.116577 254.66247 243.70053 250.8015 247.5615 
C 246.94053 251.42247 242.356577 254.485369 237.311977 256.574911 
C 232.267377 258.664453 226.860236 259.74 221.4 259.74 
C 215.939764 259.74 210.532623 258.664453 205.488023 256.574911 
C 200.443423 254.485369 195.85947 251.42247 191.9985 247.5615 
C 188.13753 243.70053 185.074631 239.116577 182.985089 234.071977 
C 180.895547 229.027377 179.82 223.620236 179.82 218.16 
C 179.82 212.699764 180.895547 207.292623 182.985089 202.248023 
C 185.074631 197.203423 188.13753 192.61947 191.9985 188.7585 
C 195.85947 184.89753 200.443423 181.834631 205.488023 179.745089 
C 210.532623 177.655547 215.939764 176.58 221.4 176.58 
" clip-path="url(#p3d484813f4)" style="fill: none; stroke: #ffffff; stroke-linecap: round"/>
     </g>
     <g id="text_12">
      <!-- 0.3 -->
      <g style="fill: #dc143c" transform="translate(237.311977 177.558839) scale(0.11 -0.11)">
       <use xlink:href="#ArialMT-30"/>
       <use xlink:href="#ArialMT-2e" x="55.615234"/>
       <use xlink:href="#ArialMT-33" x="83.398438"/>
      </g>
     </g>
    </g>
    <g id="ytick_5">
     <g id="line2d_13">
      <path d="M 221.4 162.72 
C 228.680314 162.72 235.889836 164.154063 242.615969 166.940119 
C 249.342103 169.726174 255.45404 173.810041 260.602 178.958 
C 265.749959 184.10596 269.833826 190.217897 272.619881 196.944031 
C 275.405937 203.670164 276.84 210.879686 276.84 218.16 
C 276.84 225.440314 275.405937 232.649836 272.619881 239.375969 
C 269.833826 246.102103 265.749959 252.21404 260.602 257.362 
C 255.45404 262.509959 249.342103 266.593826 242.615969 269.379881 
C 235.889836 272.165937 228.680314 273.6 221.4 273.6 
C 214.119686 273.6 206.910164 272.165937 200.184031 269.379881 
C 193.457897 266.593826 187.34596 262.509959 182.198 257.362 
C 177.050041 252.21404 172.966174 246.102103 170.180119 239.375969 
C 167.394063 232.649836 165.96 225.440314 165.96 218.16 
C 165.96 210.879686 167.394063 203.670164 170.180119 196.944031 
C 172.966174 190.217897 177.050041 184.10596 182.198 178.958 
C 187.34596 173.810041 193.457897 169.726174 200.184031 166.940119 
C 206.910164 164.154063 214.119686 162.72 221.4 162.72 
" clip-path="url(#p3d484813f4)" style="fill: none; stroke: #ffffff; stroke-linecap: round"/>
     </g>
     <g id="text_13">
      <!-- 0.4 -->
      <g style="fill: #dc143c" transform="translate(242.615969 164.753869) scale(0.11 -0.11)">
       <use xlink:href="#ArialMT-30"/>
       <use xlink:href="#ArialMT-2e" x="55.615234"/>
       <use xlink:href="#ArialMT-34" x="83.398438"/>
      </g>
     </g>
    </g>
    <g id="ytick_6">
     <g id="line2d_14">
      <path d="M 221.4 148.86 
C 230.500393 148.86 239.512295 150.652579 247.919962 154.135148 
C 256.327628 157.617718 263.967551 162.722551 270.4025 169.1575 
C 276.837449 175.592449 281.942282 183.232372 285.424852 191.640038 
C 288.907421 200.047705 290.7 209.059607 290.7 218.16 
C 290.7 227.260393 288.907421 236.272295 285.424852 244.679962 
C 281.942282 253.087628 276.837449 260.727551 270.4025 267.1625 
C 263.967551 273.597449 256.327628 278.702282 247.919962 282.184852 
C 239.512295 285.667421 230.500393 287.46 221.4 287.46 
C 212.299607 287.46 203.287705 285.667421 194.880038 282.184852 
C 186.472372 278.702282 178.832449 273.597449 172.3975 267.1625 
C 165.962551 260.727551 160.857718 253.087628 157.375148 244.679962 
C 153.892579 236.272295 152.1 227.260393 152.1 218.16 
C 152.1 209.059607 153.892579 200.047705 157.375148 191.640038 
C 160.857718 183.232372 165.962551 175.592449 172.3975 169.1575 
C 178.832449 162.722551 186.472372 157.617718 194.880038 154.135148 
C 203.287705 150.652579 212.299607 148.86 221.4 148.86 
" clip-path="url(#p3d484813f4)" style="fill: none; stroke: #ffffff; stroke-linecap: round"/>
     </g>
     <g id="text_14">
      <!-- 0.5 -->
      <g style="fill: #dc143c" transform="translate(247.919962 151.948898) scale(0.11 -0.11)">
       <use xlink:href="#ArialMT-30"/>
       <use xlink:href="#ArialMT-2e" x="55.615234"/>
       <use xlink:href="#ArialMT-35" x="83.398438"/>
      </g>
     </g>
    </g>
    <g id="ytick_7">
     <g id="line2d_15">
      <path d="M 221.4 135 
C 232.320471 135 243.134754 137.151095 253.223954 141.330178 
C 263.313154 145.509261 272.481061 151.635061 280.203 159.357 
C 287.924939 167.078939 294.050739 176.246846 298.229822 186.336046 
C 302.408905 196.425246 304.56 207.239529 304.56 218.16 
C 304.56 229.080471 302.408905 239.894754 298.229822 249.983954 
C 294.050739 260.073154 287.924939 269.241061 280.203 276.963 
C 272.481061 284.684939 263.313154 290.810739 253.223954 294.989822 
C 243.134754 299.168905 232.320471 301.32 221.4 301.32 
C 210.479529 301.32 199.665246 299.168905 189.576046 294.989822 
C 179.486846 290.810739 170.318939 284.684939 162.597 276.963 
C 154.875061 269.241061 148.749261 260.073154 144.570178 249.983954 
C 140.391095 239.894754 138.24 229.080471 138.24 218.16 
C 138.24 207.239529 140.391095 196.425246 144.570178 186.336046 
C 148.749261 176.246846 154.875061 167.078939 162.597 159.357 
C 170.318939 151.635061 179.486846 145.509261 189.576046 141.330178 
C 199.665246 137.151095 210.479529 135 221.4 135 
" clip-path="url(#p3d484813f4)" style="fill: none; stroke: #ffffff; stroke-linecap: round"/>
     </g>
     <g id="text_15">
      <!-- 0.6 -->
      <g style="fill: #dc143c" transform="translate(253.223954 139.143928) scale(0.11 -0.11)">
       <defs>
        <path id="ArialMT-36" d="M 3184 3459 
L 2625 3416 
Q 2550 3747 2413 3897 
Q 2184 4138 1850 4138 
Q 1581 4138 1378 3988 
Q 1113 3794 959 3422 
Q 806 3050 800 2363 
Q 1003 2672 1297 2822 
Q 1591 2972 1913 2972 
Q 2475 2972 2870 2558 
Q 3266 2144 3266 1488 
Q 3266 1056 3080 686 
Q 2894 316 2569 119 
Q 2244 -78 1831 -78 
Q 1128 -78 684 439 
Q 241 956 241 2144 
Q 241 3472 731 4075 
Q 1159 4600 1884 4600 
Q 2425 4600 2770 4297 
Q 3116 3994 3184 3459 
z
M 888 1484 
Q 888 1194 1011 928 
Q 1134 663 1356 523 
Q 1578 384 1822 384 
Q 2178 384 2434 671 
Q 2691 959 2691 1453 
Q 2691 1928 2437 2201 
Q 2184 2475 1800 2475 
Q 1419 2475 1153 2201 
Q 888 1928 888 1484 
z
" transform="scale(0.015625)"/>
       </defs>
       <use xlink:href="#ArialMT-30"/>
       <use xlink:href="#ArialMT-2e" x="55.615234"/>
       <use xlink:href="#ArialMT-36" x="83.398438"/>
      </g>
     </g>
    </g>
    <g id="ytick_8">
     <g id="line2d_16">
      <path d="M 221.4 121.14 
C 234.14055 121.14 246.757214 123.64961 258.527947 128.525208 
C 270.29868 133.400805 280.994571 140.547571 290.0035 149.5565 
C 299.012429 158.565429 306.159195 169.26132 311.034792 181.032053 
C 315.91039 192.802786 318.42 205.41945 318.42 218.16 
C 318.42 230.90055 315.91039 243.517214 311.034792 255.287947 
C 306.159195 267.05868 299.012429 277.754571 290.0035 286.7635 
C 280.994571 295.772429 270.29868 302.919195 258.527947 307.794792 
C 246.757214 312.67039 234.14055 315.18 221.4 315.18 
C 208.65945 315.18 196.042786 312.67039 184.272053 307.794792 
C 172.50132 302.919195 161.805429 295.772429 152.7965 286.7635 
C 143.787571 277.754571 136.640805 267.05868 131.765208 255.287947 
C 126.88961 243.517214 124.38 230.90055 124.38 218.16 
C 124.38 205.41945 126.88961 192.802786 131.765208 181.032053 
C 136.640805 169.26132 143.787571 158.565429 152.7965 149.5565 
C 161.805429 140.547571 172.50132 133.400805 184.272053 128.525208 
C 196.042786 123.64961 208.65945 121.14 221.4 121.14 
" clip-path="url(#p3d484813f4)" style="fill: none; stroke: #ffffff; stroke-linecap: round"/>
     </g>
     <g id="text_16">
      <!-- 0.7 -->
      <g style="fill: #dc143c" transform="translate(258.527947 126.338958) scale(0.11 -0.11)">
       <use xlink:href="#ArialMT-30"/>
       <use xlink:href="#ArialMT-2e" x="55.615234"/>
       <use xlink:href="#ArialMT-37" x="83.398438"/>
      </g>
     </g>
    </g>
    <g id="ytick_9">
     <g id="line2d_17">
      <path d="M 221.4 107.28 
C 235.960628 107.28 250.379673 110.148126 263.831939 115.720237 
C 277.284205 121.292349 289.508081 129.460081 299.804 139.756 
C 310.099919 150.051919 318.267651 162.275795 323.839763 175.728061 
C 329.411874 189.180327 332.28 203.599372 332.28 218.16 
C 332.28 232.720628 329.411874 247.139673 323.839763 260.591939 
C 318.267651 274.044205 310.099919 286.268081 299.804 296.564 
C 289.508081 306.859919 277.284205 315.027651 263.831939 320.599763 
C 250.379673 326.171874 235.960628 329.04 221.4 329.04 
C 206.839372 329.04 192.420327 326.171874 178.968061 320.599763 
C 165.515795 315.027651 153.291919 306.859919 142.996 296.564 
C 132.700081 286.268081 124.532349 274.044205 118.960237 260.591939 
C 113.388126 247.139673 110.52 232.720628 110.52 218.16 
C 110.52 203.599372 113.388126 189.180327 118.960237 175.728061 
C 124.532349 162.275795 132.700081 150.051919 142.996 139.756 
C 153.291919 129.460081 165.515795 121.292349 178.968061 115.720237 
C 192.420327 110.148126 206.839372 107.28 221.4 107.28 
" clip-path="url(#p3d484813f4)" style="fill: none; stroke: #ffffff; stroke-linecap: round"/>
     </g>
     <g id="text_17">
      <!-- 0.8 -->
      <g style="fill: #dc143c" transform="translate(263.831939 113.533987) scale(0.11 -0.11)">
       <use xlink:href="#ArialMT-30"/>
       <use xlink:href="#ArialMT-2e" x="55.615234"/>
       <use xlink:href="#ArialMT-38" x="83.398438"/>
      </g>
     </g>
    </g>
    <g id="ytick_10">
     <g id="line2d_18">
      <path d="M 221.4 93.42 
C 237.780707 93.42 254.002132 96.646642 269.135931 102.915267 
C 284.269731 109.183892 298.021591 118.372591 309.6045 129.9555 
C 321.187409 141.538409 330.376108 155.290269 336.644733 170.424069 
C 342.913358 185.557868 346.14 201.779293 346.14 218.16 
C 346.14 234.540707 342.913358 250.762132 336.644733 265.895931 
C 330.376108 281.029731 321.187409 294.781591 309.6045 306.3645 
C 298.021591 317.947409 284.269731 327.136108 269.135931 333.404733 
C 254.002132 339.673358 237.780707 342.9 221.4 342.9 
C 205.019293 342.9 188.797868 339.673358 173.664069 333.404733 
C 158.530269 327.136108 144.778409 317.947409 133.1955 306.3645 
C 121.612591 294.781591 112.423892 281.029731 106.155267 265.895931 
C 99.886642 250.762132 96.66 234.540707 96.66 218.16 
C 96.66 201.779293 99.886642 185.557868 106.155267 170.424069 
C 112.423892 155.290269 121.612591 141.538409 133.1955 129.9555 
C 144.778409 118.372591 158.530269 109.183892 173.664069 102.915267 
C 188.797868 96.646642 205.019293 93.42 221.4 93.42 
" clip-path="url(#p3d484813f4)" style="fill: none; stroke: #ffffff; stroke-linecap: round"/>
     </g>
     <g id="text_18">
      <!-- 0.9 -->
      <g style="fill: #dc143c" transform="translate(269.135931 100.729017) scale(0.11 -0.11)">
       <use xlink:href="#ArialMT-30"/>
       <use xlink:href="#ArialMT-2e" x="55.615234"/>
       <use xlink:href="#ArialMT-39" x="83.398438"/>
      </g>
     </g>
    </g>
    <g id="ytick_11">
     <g id="line2d_19">
      <path d="M 221.4 79.56 
C 239.600785 79.56 257.624591 83.145158 274.439924 90.110297 
C 291.255257 97.075436 306.535101 107.285101 319.405 120.155 
C 332.274899 133.024899 342.484564 148.304743 349.449703 165.120076 
C 356.414842 181.935409 360 199.959215 360 218.16 
C 360 236.360785 356.414842 254.384591 349.449703 271.199924 
C 342.484564 288.015257 332.274899 303.295101 319.405 316.165 
C 306.535101 329.034899 291.255257 339.244564 274.439924 346.209703 
C 257.624591 353.174842 239.600785 356.76 221.4 356.76 
C 203.199215 356.76 185.175409 353.174842 168.360076 346.209703 
C 151.544743 339.244564 136.264899 329.034899 123.395 316.165 
C 110.525101 303.295101 100.315436 288.015257 93.350297 271.199924 
C 86.385158 254.384591 82.8 236.360785 82.8 218.16 
C 82.8 199.959215 86.385158 181.935409 93.350297 165.120076 
C 100.315436 148.304743 110.525101 133.024899 123.395 120.155 
C 136.264899 107.285101 151.544743 97.075436 168.360076 90.110297 
C 185.175409 83.145158 203.199215 79.56 221.4 79.56 
" clip-path="url(#p3d484813f4)" style="fill: none; stroke: #ffffff; stroke-linecap: round"/>
     </g>
     <g id="text_19">
      <!-- 1.0 -->
      <g style="fill: #dc143c" transform="translate(274.439924 87.924047) scale(0.11 -0.11)">
       <use xlink:href="#ArialMT-31"/>
       <use xlink:href="#ArialMT-2e" x="55.615234"/>
       <use xlink:href="#ArialMT-30" x="83.398438"/>
      </g>
     </g>
    </g>
    <g id="ytick_12">
     <g id="line2d_20">
      <path d="M 221.4 65.7 
C 241.420864 65.7 261.24705 69.643674 279.743916 77.305326 
C 298.240782 84.966979 315.048611 96.197612 329.2055 110.3545 
C 343.362388 124.511389 354.593021 141.319218 362.254674 159.816084 
C 369.916326 178.31295 373.86 198.139136 373.86 218.16 
C 373.86 238.180864 369.916326 258.00705 362.254674 276.503916 
C 354.593021 295.000782 343.362388 311.808611 329.2055 325.9655 
C 315.048611 340.122388 298.240782 351.353021 279.743916 359.014674 
C 261.24705 366.676326 241.420864 370.62 221.4 370.62 
C 201.379136 370.62 181.55295 366.676326 163.056084 359.014674 
C 144.559218 351.353021 127.751389 340.122388 113.5945 325.9655 
C 99.437612 311.808611 88.206979 295.000782 80.545326 276.503916 
C 72.883674 258.00705 68.94 238.180864 68.94 218.16 
C 68.94 198.139136 72.883674 178.31295 80.545326 159.816084 
C 88.206979 141.319218 99.437612 124.511389 113.5945 110.3545 
C 127.751389 96.197612 144.559218 84.966979 163.056084 77.305326 
C 181.55295 69.643674 201.379136 65.7 221.4 65.7 
" clip-path="url(#p3d484813f4)" style="fill: none; stroke: #ffffff; stroke-linecap: round"/>
     </g>
     <g id="text_20">
      <!-- 1.1 -->
      <g style="fill: #dc143c" transform="translate(279.743916 75.119076) scale(0.11 -0.11)">
       <use xlink:href="#ArialMT-31"/>
       <use xlink:href="#ArialMT-2e" x="55.615234"/>
       <use xlink:href="#ArialMT-31" x="83.398438"/>
      </g>
     </g>
    </g>
    <g id="ytick_13">
     <g id="line2d_21">
      <path d="M 221.4 51.84 
C 243.240942 51.84 264.869509 56.142189 285.047908 64.500356 
C 305.226308 72.858523 323.562121 85.110122 339.006 100.554 
C 354.449878 115.997879 366.701477 134.333692 375.059644 154.512092 
C 383.417811 174.690491 387.72 196.319058 387.72 218.16 
C 387.72 240.000942 383.417811 261.629509 375.059644 281.807908 
C 366.701477 301.986308 354.449878 320.322121 339.006 335.766 
C 323.562121 351.209878 305.226308 363.461477 285.047908 371.819644 
C 264.869509 380.177811 243.240942 384.48 221.4 384.48 
C 199.559058 384.48 177.930491 380.177811 157.752092 371.819644 
C 137.573692 363.461477 119.237879 351.209878 103.794 335.766 
C 88.350122 320.322121 76.098523 301.986308 67.740356 281.807908 
C 59.382189 261.629509 55.08 240.000942 55.08 218.16 
C 55.08 196.319058 59.382189 174.690491 67.740356 154.512092 
C 76.098523 134.333692 88.350122 115.997879 103.794 100.554 
C 119.237879 85.110122 137.573692 72.858523 157.752092 64.500356 
C 177.930491 56.142189 199.559058 51.84 221.4 51.84 
" clip-path="url(#p3d484813f4)" style="fill: none; stroke: #ffffff; stroke-linecap: round"/>
     </g>
     <g id="text_21">
      <!-- 1.2 -->
      <g style="fill: #dc143c" transform="translate(285.047908 62.314106) scale(0.11 -0.11)">
       <use xlink:href="#ArialMT-31"/>
       <use xlink:href="#ArialMT-2e" x="55.615234"/>
       <use xlink:href="#ArialMT-32" x="83.398438"/>
      </g>
     </g>
    </g>
   </g>
   <g id="line2d_22">
    <defs>
     <path id="mb4480f79c7" d="M 0 0.5 
C 0.132602 0.5 0.25979 0.447317 0.353553 0.353553 
C 0.447317 0.25979 0.5 0.132602 0.5 0 
C 0.5 -0.132602 0.447317 -0.25979 0.353553 -0.353553 
C 0.25979 -0.447317 0.132602 -0.5 0 -0.5 
C -0.132602 -0.5 -0.25979 -0.447317 -0.353553 -0.353553 
C -0.447317 -0.25979 -0.5 -0.132602 -0.5 0 
C -0.5 0.132602 -0.447317 0.25979 -0.353553 0.353553 
C -0.25979 0.447317 -0.132602 0.5 0 0.5 
z
" style="stroke: #000000"/>
    </defs>
    <g clip-path="url(#p3d484813f4)">
     <use xlink:href="#mb4480f79c7" x="223.1658" y="116.99741" style="stroke: #000000"/>
     <use xlink:href="#mb4480f79c7" x="224.931061" y="117.043635" style="stroke: #000000"/>
     <use xlink:href="#mb4480f79c7" x="226.695247" y="117.120661" style="stroke: #000000"/>
     <use xlink:href="#mb4480f79c7" x="228.457821" y="117.228465" style="stroke: #000000"/>
     <use xlink:href="#mb4480f79c7" x="230.218244" y="117.367013" style="stroke: #000000"/>
     <use xlink:href="#mb4480f79c7" x="231.975981" y="117.536264" style="stroke: #000000"/>
     <use xlink:href="#mb4480f79c7" x="233.730496" y="117.736165" style="stroke: #000000"/>
     <use xlink:href="#mb4480f79c7" x="235.481256" y="117.966657" style="stroke: #000000"/>
     <use xlink:href="#mb4480f79c7" x="237.227726" y="118.227669" style="stroke: #000000"/>
     <use xlink:href="#mb4480f79c7" x="238.969375" y="118.519121" style="stroke: #000000"/>
     <use xlink:href="#mb4480f79c7" x="240.705673" y="118.840925" style="stroke: #000000"/>
     <use xlink:href="#mb4480f79c7" x="242.436089" y="119.192982" style="stroke: #000000"/>
     <use xlink:href="#mb4480f79c7" x="244.160098" y="119.575186" style="stroke: #000000"/>
     <use xlink:href="#mb4480f79c7" x="245.877174" y="119.987419" style="stroke: #000000"/>
     <use xlink:href="#mb4480f79c7" x="247.586793" y="120.429557" style="stroke: #000000"/>
     <use xlink:href="#mb4480f79c7" x="249.288436" y="120.901464" style="stroke: #000000"/>
     <use xlink:href="#mb4480f79c7" x="250.981584" y="121.402997" style="stroke: #000000"/>
     <use xlink:href="#mb4480f79c7" x="252.665721" y="121.934004" style="stroke: #000000"/>
     <use xlink:href="#mb4480f79c7" x="254.340335" y="122.494322" style="stroke: #000000"/>
     <use xlink:href="#mb4480f79c7" x="256.004914" y="123.08378" style="stroke: #000000"/>
     <use xlink:href="#mb4480f79c7" x="257.658952" y="123.7022" style="stroke: #000000"/>
     <use xlink:href="#mb4480f79c7" x="259.301946" y="124.349392" style="stroke: #000000"/>
     <use xlink:href="#mb4480f79c7" x="260.933394" y="125.02516" style="stroke: #000000"/>
     <use xlink:href="#mb4480f79c7" x="262.5528" y="125.729298" style="stroke: #000000"/>
     <use xlink:href="#mb4480f79c7" x="264.15967" y="126.461591" style="stroke: #000000"/>
     <use xlink:href="#mb4480f79c7" x="265.753516" y="127.221816" style="stroke: #000000"/>
     <use xlink:href="#mb4480f79c7" x="267.333851" y="128.009742" style="stroke: #000000"/>
     <use xlink:href="#mb4480f79c7" x="268.900194" y="128.825128" style="stroke: #000000"/>
     <use xlink:href="#mb4480f79c7" x="270.452068" y="129.667727" style="stroke: #000000"/>
     <use xlink:href="#mb4480f79c7" x="271.989" y="130.537282" style="stroke: #000000"/>
     <use xlink:href="#mb4480f79c7" x="273.510522" y="131.433527" style="stroke: #000000"/>
     <use xlink:href="#mb4480f79c7" x="275.016171" y="132.35619" style="stroke: #000000"/>
     <use xlink:href="#mb4480f79c7" x="276.505488" y="133.304989" style="stroke: #000000"/>
     <use xlink:href="#mb4480f79c7" x="277.97802" y="134.279636" style="stroke: #000000"/>
     <use xlink:href="#mb4480f79c7" x="279.433317" y="135.279834" style="stroke: #000000"/>
     <use xlink:href="#mb4480f79c7" x="280.870936" y="136.305279" style="stroke: #000000"/>
     <use xlink:href="#mb4480f79c7" x="281.456325" y="138.462565" style="stroke: #000000"/>
     <use xlink:href="#mb4480f79c7" x="282.83809" y="139.522831" style="stroke: #000000"/>
     <use xlink:href="#mb4480f79c7" x="284.20114" y="140.60705" style="stroke: #000000"/>
     <use xlink:href="#mb4480f79c7" x="285.545061" y="141.714893" style="stroke: #000000"/>
     <use xlink:href="#mb4480f79c7" x="286.869443" y="142.846022" style="stroke: #000000"/>
     <use xlink:href="#mb4480f79c7" x="288.173881" y="144.000092" style="stroke: #000000"/>
     <use xlink:href="#mb4480f79c7" x="289.45798" y="145.176751" style="stroke: #000000"/>
     <use xlink:href="#mb4480f79c7" x="290.721348" y="146.375643" style="stroke: #000000"/>
     <use xlink:href="#mb4480f79c7" x="291.9636" y="147.5964" style="stroke: #000000"/>
     <use xlink:href="#mb4480f79c7" x="293.184357" y="148.838652" style="stroke: #000000"/>
     <use xlink:href="#mb4480f79c7" x="294.383249" y="150.10202" style="stroke: #000000"/>
     <use xlink:href="#mb4480f79c7" x="295.559908" y="151.386119" style="stroke: #000000"/>
     <use xlink:href="#mb4480f79c7" x="296.713978" y="152.690557" style="stroke: #000000"/>
     <use xlink:href="#mb4480f79c7" x="297.845107" y="154.014939" style="stroke: #000000"/>
     <use xlink:href="#mb4480f79c7" x="298.95295" y="155.35886" style="stroke: #000000"/>
     <use xlink:href="#mb4480f79c7" x="300.037169" y="156.72191" style="stroke: #000000"/>
     <use xlink:href="#mb4480f79c7" x="301.097435" y="158.103675" style="stroke: #000000"/>
     <use xlink:href="#mb4480f79c7" x="302.133424" y="159.503734" style="stroke: #000000"/>
     <use xlink:href="#mb4480f79c7" x="303.144821" y="160.92166" style="stroke: #000000"/>
     <use xlink:href="#mb4480f79c7" x="304.131317" y="162.357022" style="stroke: #000000"/>
     <use xlink:href="#mb4480f79c7" x="305.092613" y="163.809381" style="stroke: #000000"/>
     <use xlink:href="#mb4480f79c7" x="306.028416" y="165.278297" style="stroke: #000000"/>
     <use xlink:href="#mb4480f79c7" x="306.938439" y="166.76332" style="stroke: #000000"/>
     <use xlink:href="#mb4480f79c7" x="307.822407" y="168.264" style="stroke: #000000"/>
     <use xlink:href="#mb4480f79c7" x="308.68005" y="169.779878" style="stroke: #000000"/>
     <use xlink:href="#mb4480f79c7" x="309.511106" y="171.310494" style="stroke: #000000"/>
     <use xlink:href="#mb4480f79c7" x="310.315323" y="172.85538" style="stroke: #000000"/>
     <use xlink:href="#mb4480f79c7" x="311.092455" y="174.414067" style="stroke: #000000"/>
     <use xlink:href="#mb4480f79c7" x="311.842267" y="175.986078" style="stroke: #000000"/>
     <use xlink:href="#mb4480f79c7" x="312.564528" y="177.570937" style="stroke: #000000"/>
     <use xlink:href="#mb4480f79c7" x="313.25902" y="179.168159" style="stroke: #000000"/>
     <use xlink:href="#mb4480f79c7" x="313.925531" y="180.777259" style="stroke: #000000"/>
     <use xlink:href="#mb4480f79c7" x="314.563858" y="182.397746" style="stroke: #000000"/>
     <use xlink:href="#mb4480f79c7" x="315.173806" y="184.029126" style="stroke: #000000"/>
     <use xlink:href="#mb4480f79c7" x="315.75519" y="185.670903" style="stroke: #000000"/>
     <use xlink:href="#mb4480f79c7" x="317.625996" y="186.894279" style="stroke: #000000"/>
     <use xlink:href="#mb4480f79c7" x="318.157003" y="188.578416" style="stroke: #000000"/>
     <use xlink:href="#mb4480f79c7" x="318.658536" y="190.271564" style="stroke: #000000"/>
     <use xlink:href="#mb4480f79c7" x="319.130443" y="191.973207" style="stroke: #000000"/>
     <use xlink:href="#mb4480f79c7" x="319.572581" y="193.682826" style="stroke: #000000"/>
     <use xlink:href="#mb4480f79c7" x="319.984814" y="195.399902" style="stroke: #000000"/>
     <use xlink:href="#mb4480f79c7" x="320.367018" y="197.123911" style="stroke: #000000"/>
     <use xlink:href="#mb4480f79c7" x="320.719075" y="198.854327" style="stroke: #000000"/>
     <use xlink:href="#mb4480f79c7" x="321.040879" y="200.590625" style="stroke: #000000"/>
     <use xlink:href="#mb4480f79c7" x="321.332331" y="202.332274" style="stroke: #000000"/>
     <use xlink:href="#mb4480f79c7" x="321.593343" y="204.078744" style="stroke: #000000"/>
     <use xlink:href="#mb4480f79c7" x="321.823835" y="205.829504" style="stroke: #000000"/>
     <use xlink:href="#mb4480f79c7" x="322.023736" y="207.584019" style="stroke: #000000"/>
     <use xlink:href="#mb4480f79c7" x="322.192987" y="209.341756" style="stroke: #000000"/>
     <use xlink:href="#mb4480f79c7" x="322.331535" y="211.102179" style="stroke: #000000"/>
     <use xlink:href="#mb4480f79c7" x="322.439339" y="212.864753" style="stroke: #000000"/>
     <use xlink:href="#mb4480f79c7" x="322.516365" y="214.628939" style="stroke: #000000"/>
     <use xlink:href="#mb4480f79c7" x="322.56259" y="216.3942" style="stroke: #000000"/>
     <use xlink:href="#mb4480f79c7" x="322.578" y="218.16" style="stroke: #000000"/>
     <use xlink:href="#mb4480f79c7" x="322.56259" y="219.9258" style="stroke: #000000"/>
     <use xlink:href="#mb4480f79c7" x="322.516365" y="221.691061" style="stroke: #000000"/>
     <use xlink:href="#mb4480f79c7" x="321.055239" y="223.38271" style="stroke: #000000"/>
     <use xlink:href="#mb4480f79c7" x="320.948912" y="225.121138" style="stroke: #000000"/>
     <use xlink:href="#mb4480f79c7" x="320.812261" y="226.857446" style="stroke: #000000"/>
     <use xlink:href="#mb4480f79c7" x="320.645329" y="228.591104" style="stroke: #000000"/>
     <use xlink:href="#mb4480f79c7" x="320.448166" y="230.321586" style="stroke: #000000"/>
     <use xlink:href="#mb4480f79c7" x="320.220831" y="232.048362" style="stroke: #000000"/>
     <use xlink:href="#mb4480f79c7" x="319.963395" y="233.770908" style="stroke: #000000"/>
     <use xlink:href="#mb4480f79c7" x="319.675935" y="235.488699" style="stroke: #000000"/>
     <use xlink:href="#mb4480f79c7" x="319.35854" y="237.201211" style="stroke: #000000"/>
     <use xlink:href="#mb4480f79c7" x="319.011305" y="238.907923" style="stroke: #000000"/>
     <use xlink:href="#mb4480f79c7" x="318.634338" y="240.608316" style="stroke: #000000"/>
     <use xlink:href="#mb4480f79c7" x="318.227751" y="242.30187" style="stroke: #000000"/>
     <use xlink:href="#mb4480f79c7" x="317.79167" y="243.98807" style="stroke: #000000"/>
     <use xlink:href="#mb4480f79c7" x="317.326227" y="245.666403" style="stroke: #000000"/>
     <use xlink:href="#mb4480f79c7" x="316.831564" y="247.336357" style="stroke: #000000"/>
     <use xlink:href="#mb4480f79c7" x="316.307832" y="248.997424" style="stroke: #000000"/>
     <use xlink:href="#mb4480f79c7" x="315.75519" y="250.649097" style="stroke: #000000"/>
     <use xlink:href="#mb4480f79c7" x="315.173806" y="252.290874" style="stroke: #000000"/>
     <use xlink:href="#mb4480f79c7" x="314.563858" y="253.922254" style="stroke: #000000"/>
     <use xlink:href="#mb4480f79c7" x="313.925531" y="255.542741" style="stroke: #000000"/>
     <use xlink:href="#mb4480f79c7" x="313.25902" y="257.151841" style="stroke: #000000"/>
     <use xlink:href="#mb4480f79c7" x="312.564528" y="258.749063" style="stroke: #000000"/>
     <use xlink:href="#mb4480f79c7" x="311.842267" y="260.333922" style="stroke: #000000"/>
     <use xlink:href="#mb4480f79c7" x="311.092455" y="261.905933" style="stroke: #000000"/>
     <use xlink:href="#mb4480f79c7" x="310.315323" y="263.46462" style="stroke: #000000"/>
     <use xlink:href="#mb4480f79c7" x="309.511106" y="265.009506" style="stroke: #000000"/>
     <use xlink:href="#mb4480f79c7" x="308.68005" y="266.540122" style="stroke: #000000"/>
     <use xlink:href="#mb4480f79c7" x="309.022718" y="268.749" style="stroke: #000000"/>
     <use xlink:href="#mb4480f79c7" x="308.126473" y="270.270522" style="stroke: #000000"/>
     <use xlink:href="#mb4480f79c7" x="307.20381" y="271.776171" style="stroke: #000000"/>
     <use xlink:href="#mb4480f79c7" x="306.255011" y="273.265488" style="stroke: #000000"/>
     <use xlink:href="#mb4480f79c7" x="305.280364" y="274.73802" style="stroke: #000000"/>
     <use xlink:href="#mb4480f79c7" x="304.280166" y="276.193317" style="stroke: #000000"/>
     <use xlink:href="#mb4480f79c7" x="303.254721" y="277.630936" style="stroke: #000000"/>
     <use xlink:href="#mb4480f79c7" x="302.204344" y="279.05044" style="stroke: #000000"/>
     <use xlink:href="#mb4480f79c7" x="301.129352" y="280.451397" style="stroke: #000000"/>
     <use xlink:href="#mb4480f79c7" x="300.030074" y="281.833379" style="stroke: #000000"/>
     <use xlink:href="#mb4480f79c7" x="298.906845" y="283.195965" style="stroke: #000000"/>
     <use xlink:href="#mb4480f79c7" x="297.760006" y="284.53874" style="stroke: #000000"/>
     <use xlink:href="#mb4480f79c7" x="296.589907" y="285.861296" style="stroke: #000000"/>
     <use xlink:href="#mb4480f79c7" x="294.383249" y="286.21798" style="stroke: #000000"/>
     <use xlink:href="#mb4480f79c7" x="293.184357" y="287.481348" style="stroke: #000000"/>
     <use xlink:href="#mb4480f79c7" x="291.9636" y="288.7236" style="stroke: #000000"/>
     <use xlink:href="#mb4480f79c7" x="290.721348" y="289.944357" style="stroke: #000000"/>
     <use xlink:href="#mb4480f79c7" x="289.45798" y="291.143249" style="stroke: #000000"/>
     <use xlink:href="#mb4480f79c7" x="287.246466" y="291.28991" style="stroke: #000000"/>
     <use xlink:href="#mb4480f79c7" x="285.960145" y="292.427951" style="stroke: #000000"/>
     <use xlink:href="#mb4480f79c7" x="284.654158" y="293.543369" style="stroke: #000000"/>
     <use xlink:href="#mb4480f79c7" x="283.328902" y="294.635825" style="stroke: #000000"/>
     <use xlink:href="#mb4480f79c7" x="281.984783" y="295.704986" style="stroke: #000000"/>
     <use xlink:href="#mb4480f79c7" x="280.622209" y="296.750526" style="stroke: #000000"/>
     <use xlink:href="#mb4480f79c7" x="278.426925" y="296.650829" style="stroke: #000000"/>
     <use xlink:href="#mb4480f79c7" x="277.048386" y="297.634131" style="stroke: #000000"/>
     <use xlink:href="#mb4480f79c7" x="275.652895" y="298.593225" style="stroke: #000000"/>
     <use xlink:href="#mb4480f79c7" x="274.240879" y="299.527819" style="stroke: #000000"/>
     <use xlink:href="#mb4480f79c7" x="272.812767" y="300.437626" style="stroke: #000000"/>
     <use xlink:href="#mb4480f79c7" x="270.655151" y="300.134338" style="stroke: #000000"/>
     <use xlink:href="#mb4480f79c7" x="269.217" y="300.981473" style="stroke: #000000"/>
     <use xlink:href="#mb4480f79c7" x="267.764283" y="301.803381" style="stroke: #000000"/>
     <use xlink:href="#mb4480f79c7" x="266.297443" y="302.59981" style="stroke: #000000"/>
     <use xlink:href="#mb4480f79c7" x="264.816927" y="303.370518" style="stroke: #000000"/>
     <use xlink:href="#mb4480f79c7" x="263.323186" y="304.11527" style="stroke: #000000"/>
     <use xlink:href="#mb4480f79c7" x="261.816675" y="304.833839" style="stroke: #000000"/>
     <use xlink:href="#mb4480f79c7" x="260.297852" y="305.526006" style="stroke: #000000"/>
     <use xlink:href="#mb4480f79c7" x="258.767181" y="306.191561" style="stroke: #000000"/>
     <use xlink:href="#mb4480f79c7" x="257.225127" y="306.830301" style="stroke: #000000"/>
     <use xlink:href="#mb4480f79c7" x="255.67216" y="307.442031" style="stroke: #000000"/>
     <use xlink:href="#mb4480f79c7" x="254.108754" y="308.026564" style="stroke: #000000"/>
     <use xlink:href="#mb4480f79c7" x="252.535385" y="308.583723" style="stroke: #000000"/>
     <use xlink:href="#mb4480f79c7" x="250.952531" y="309.113339" style="stroke: #000000"/>
     <use xlink:href="#mb4480f79c7" x="249.360676" y="309.615249" style="stroke: #000000"/>
     <use xlink:href="#mb4480f79c7" x="247.760303" y="310.089301" style="stroke: #000000"/>
     <use xlink:href="#mb4480f79c7" x="246.151901" y="310.53535" style="stroke: #000000"/>
     <use xlink:href="#mb4480f79c7" x="244.535959" y="310.953261" style="stroke: #000000"/>
     <use xlink:href="#mb4480f79c7" x="242.912969" y="311.342907" style="stroke: #000000"/>
     <use xlink:href="#mb4480f79c7" x="241.283427" y="311.704168" style="stroke: #000000"/>
     <use xlink:href="#mb4480f79c7" x="239.647827" y="312.036934" style="stroke: #000000"/>
     <use xlink:href="#mb4480f79c7" x="238.00667" y="312.341105" style="stroke: #000000"/>
     <use xlink:href="#mb4480f79c7" x="236.360454" y="312.616587" style="stroke: #000000"/>
     <use xlink:href="#mb4480f79c7" x="234.70968" y="312.863296" style="stroke: #000000"/>
     <use xlink:href="#mb4480f79c7" x="233.054853" y="313.081159" style="stroke: #000000"/>
     <use xlink:href="#mb4480f79c7" x="231.396475" y="313.270107" style="stroke: #000000"/>
     <use xlink:href="#mb4480f79c7" x="229.735052" y="313.430084" style="stroke: #000000"/>
     <use xlink:href="#mb4480f79c7" x="228.071091" y="313.56104" style="stroke: #000000"/>
     <use xlink:href="#mb4480f79c7" x="226.405097" y="313.662937" style="stroke: #000000"/>
     <use xlink:href="#mb4480f79c7" x="224.737578" y="313.735742" style="stroke: #000000"/>
     <use xlink:href="#mb4480f79c7" x="223.069043" y="313.779434" style="stroke: #000000"/>
     <use xlink:href="#mb4480f79c7" x="221.4" y="313.794" style="stroke: #000000"/>
     <use xlink:href="#mb4480f79c7" x="219.730957" y="313.779434" style="stroke: #000000"/>
     <use xlink:href="#mb4480f79c7" x="218.062422" y="313.735742" style="stroke: #000000"/>
     <use xlink:href="#mb4480f79c7" x="216.394903" y="313.662937" style="stroke: #000000"/>
     <use xlink:href="#mb4480f79c7" x="214.728909" y="313.56104" style="stroke: #000000"/>
     <use xlink:href="#mb4480f79c7" x="213.064948" y="313.430084" style="stroke: #000000"/>
     <use xlink:href="#mb4480f79c7" x="211.403525" y="313.270107" style="stroke: #000000"/>
     <use xlink:href="#mb4480f79c7" x="209.745147" y="313.081159" style="stroke: #000000"/>
     <use xlink:href="#mb4480f79c7" x="208.09032" y="312.863296" style="stroke: #000000"/>
     <use xlink:href="#mb4480f79c7" x="206.439546" y="312.616587" style="stroke: #000000"/>
     <use xlink:href="#mb4480f79c7" x="204.79333" y="312.341105" style="stroke: #000000"/>
     <use xlink:href="#mb4480f79c7" x="203.152173" y="312.036934" style="stroke: #000000"/>
     <use xlink:href="#mb4480f79c7" x="201.516573" y="311.704168" style="stroke: #000000"/>
     <use xlink:href="#mb4480f79c7" x="199.887031" y="311.342907" style="stroke: #000000"/>
     <use xlink:href="#mb4480f79c7" x="198.264041" y="310.953261" style="stroke: #000000"/>
     <use xlink:href="#mb4480f79c7" x="196.648099" y="310.53535" style="stroke: #000000"/>
     <use xlink:href="#mb4480f79c7" x="195.039697" y="310.089301" style="stroke: #000000"/>
     <use xlink:href="#mb4480f79c7" x="193.034097" y="310.940687" style="stroke: #000000"/>
     <use xlink:href="#mb4480f79c7" x="191.419171" y="310.431503" style="stroke: #000000"/>
     <use xlink:href="#mb4480f79c7" x="189.813378" y="309.894212" style="stroke: #000000"/>
     <use xlink:href="#mb4480f79c7" x="188.217206" y="309.328978" style="stroke: #000000"/>
     <use xlink:href="#mb4480f79c7" x="186.631142" y="308.735973" style="stroke: #000000"/>
     <use xlink:href="#mb4480f79c7" x="185.055668" y="308.115378" style="stroke: #000000"/>
     <use xlink:href="#mb4480f79c7" x="183.491266" y="307.467381" style="stroke: #000000"/>
     <use xlink:href="#mb4480f79c7" x="181.938411" y="306.79218" style="stroke: #000000"/>
     <use xlink:href="#mb4480f79c7" x="180.397576" y="306.089981" style="stroke: #000000"/>
     <use xlink:href="#mb4480f79c7" x="178.869231" y="305.360998" style="stroke: #000000"/>
     <use xlink:href="#mb4480f79c7" x="177.353842" y="304.605453" style="stroke: #000000"/>
     <use xlink:href="#mb4480f79c7" x="176.502557" y="302.59981" style="stroke: #000000"/>
     <use xlink:href="#mb4480f79c7" x="175.035717" y="301.803381" style="stroke: #000000"/>
     <use xlink:href="#mb4480f79c7" x="173.583" y="300.981473" style="stroke: #000000"/>
     <use xlink:href="#mb4480f79c7" x="172.144849" y="300.134338" style="stroke: #000000"/>
     <use xlink:href="#mb4480f79c7" x="170.721701" y="299.262232" style="stroke: #000000"/>
     <use xlink:href="#mb4480f79c7" x="169.313991" y="298.365421" style="stroke: #000000"/>
     <use xlink:href="#mb4480f79c7" x="167.922146" y="297.444179" style="stroke: #000000"/>
     <use xlink:href="#mb4480f79c7" x="166.546591" y="296.498787" style="stroke: #000000"/>
     <use xlink:href="#mb4480f79c7" x="165.187745" y="295.529531" style="stroke: #000000"/>
     <use xlink:href="#mb4480f79c7" x="163.846022" y="294.536708" style="stroke: #000000"/>
     <use xlink:href="#mb4480f79c7" x="161.668524" y="294.612803" style="stroke: #000000"/>
     <use xlink:href="#mb4480f79c7" x="160.343336" y="293.558701" style="stroke: #000000"/>
     <use xlink:href="#mb4480f79c7" x="159.036746" y="292.481632" style="stroke: #000000"/>
     <use xlink:href="#mb4480f79c7" x="157.749153" y="291.381923" style="stroke: #000000"/>
     <use xlink:href="#mb4480f79c7" x="156.480949" y="290.259911" style="stroke: #000000"/>
     <use xlink:href="#mb4480f79c7" x="155.232519" y="289.115936" style="stroke: #000000"/>
     <use xlink:href="#mb4480f79c7" x="154.004245" y="287.950347" style="stroke: #000000"/>
     <use xlink:href="#mb4480f79c7" x="152.7965" y="286.7635" style="stroke: #000000"/>
     <use xlink:href="#mb4480f79c7" x="151.609653" y="285.555755" style="stroke: #000000"/>
     <use xlink:href="#mb4480f79c7" x="150.444064" y="284.327481" style="stroke: #000000"/>
     <use xlink:href="#mb4480f79c7" x="149.300089" y="283.079051" style="stroke: #000000"/>
     <use xlink:href="#mb4480f79c7" x="148.178077" y="281.810847" style="stroke: #000000"/>
     <use xlink:href="#mb4480f79c7" x="147.078368" y="280.523254" style="stroke: #000000"/>
     <use xlink:href="#mb4480f79c7" x="146.001299" y="279.216664" style="stroke: #000000"/>
     <use xlink:href="#mb4480f79c7" x="144.947197" y="277.891476" style="stroke: #000000"/>
     <use xlink:href="#mb4480f79c7" x="143.916383" y="276.548094" style="stroke: #000000"/>
     <use xlink:href="#mb4480f79c7" x="142.909171" y="275.186925" style="stroke: #000000"/>
     <use xlink:href="#mb4480f79c7" x="141.925869" y="273.808386" style="stroke: #000000"/>
     <use xlink:href="#mb4480f79c7" x="140.966775" y="272.412895" style="stroke: #000000"/>
     <use xlink:href="#mb4480f79c7" x="140.032181" y="271.000879" style="stroke: #000000"/>
     <use xlink:href="#mb4480f79c7" x="137.946979" y="270.307235" style="stroke: #000000"/>
     <use xlink:href="#mb4480f79c7" x="137.049595" y="268.842837" style="stroke: #000000"/>
     <use xlink:href="#mb4480f79c7" x="136.177904" y="267.363" style="stroke: #000000"/>
     <use xlink:href="#mb4480f79c7" x="135.332173" y="265.868175" style="stroke: #000000"/>
     <use xlink:href="#mb4480f79c7" x="134.512659" y="264.358819" style="stroke: #000000"/>
     <use xlink:href="#mb4480f79c7" x="133.719612" y="262.835389" style="stroke: #000000"/>
     <use xlink:href="#mb4480f79c7" x="132.953273" y="261.298351" style="stroke: #000000"/>
     <use xlink:href="#mb4480f79c7" x="132.213876" y="259.748173" style="stroke: #000000"/>
     <use xlink:href="#mb4480f79c7" x="130.235472" y="258.749063" style="stroke: #000000"/>
     <use xlink:href="#mb4480f79c7" x="130.816799" y="256.610287" style="stroke: #000000"/>
     <use xlink:href="#mb4480f79c7" x="130.159546" y="255.023536" style="stroke: #000000"/>
     <use xlink:href="#mb4480f79c7" x="129.530085" y="253.425556" style="stroke: #000000"/>
     <use xlink:href="#mb4480f79c7" x="128.928608" y="251.816834" style="stroke: #000000"/>
     <use xlink:href="#mb4480f79c7" x="128.355299" y="250.19786" style="stroke: #000000"/>
     <use xlink:href="#mb4480f79c7" x="127.810332" y="248.569126" style="stroke: #000000"/>
     <use xlink:href="#mb4480f79c7" x="127.293874" y="246.93113" style="stroke: #000000"/>
     <use xlink:href="#mb4480f79c7" x="126.806082" y="245.28437" style="stroke: #000000"/>
     <use xlink:href="#mb4480f79c7" x="126.347103" y="243.629347" style="stroke: #000000"/>
     <use xlink:href="#mb4480f79c7" x="125.917079" y="241.966566" style="stroke: #000000"/>
     <use xlink:href="#mb4480f79c7" x="125.516139" y="240.296533" style="stroke: #000000"/>
     <use xlink:href="#mb4480f79c7" x="125.144407" y="238.619758" style="stroke: #000000"/>
     <use xlink:href="#mb4480f79c7" x="124.801995" y="236.93675" style="stroke: #000000"/>
     <use xlink:href="#mb4480f79c7" x="124.489008" y="235.248023" style="stroke: #000000"/>
     <use xlink:href="#mb4480f79c7" x="124.205541" y="233.55409" style="stroke: #000000"/>
     <use xlink:href="#mb4480f79c7" x="123.95168" y="231.855468" style="stroke: #000000"/>
     <use xlink:href="#mb4480f79c7" x="122.351834" y="230.321586" style="stroke: #000000"/>
     <use xlink:href="#mb4480f79c7" x="122.154671" y="228.591104" style="stroke: #000000"/>
     <use xlink:href="#mb4480f79c7" x="121.987739" y="226.857446" style="stroke: #000000"/>
     <use xlink:href="#mb4480f79c7" x="121.851088" y="225.121138" style="stroke: #000000"/>
     <use xlink:href="#mb4480f79c7" x="121.744761" y="223.38271" style="stroke: #000000"/>
     <use xlink:href="#mb4480f79c7" x="121.668791" y="221.642691" style="stroke: #000000"/>
     <use xlink:href="#mb4480f79c7" x="121.623199" y="219.901611" style="stroke: #000000"/>
     <use xlink:href="#mb4480f79c7" x="120.222" y="218.16" style="stroke: #000000"/>
     <use xlink:href="#mb4480f79c7" x="120.23741" y="216.3942" style="stroke: #000000"/>
     <use xlink:href="#mb4480f79c7" x="120.283635" y="214.628939" style="stroke: #000000"/>
     <use xlink:href="#mb4480f79c7" x="120.360661" y="212.864753" style="stroke: #000000"/>
     <use xlink:href="#mb4480f79c7" x="120.468465" y="211.102179" style="stroke: #000000"/>
     <use xlink:href="#mb4480f79c7" x="120.607013" y="209.341756" style="stroke: #000000"/>
     <use xlink:href="#mb4480f79c7" x="120.776264" y="207.584019" style="stroke: #000000"/>
     <use xlink:href="#mb4480f79c7" x="120.976165" y="205.829504" style="stroke: #000000"/>
     <use xlink:href="#mb4480f79c7" x="121.206657" y="204.078744" style="stroke: #000000"/>
     <use xlink:href="#mb4480f79c7" x="121.467669" y="202.332274" style="stroke: #000000"/>
     <use xlink:href="#mb4480f79c7" x="121.759121" y="200.590625" style="stroke: #000000"/>
     <use xlink:href="#mb4480f79c7" x="122.080925" y="198.854327" style="stroke: #000000"/>
     <use xlink:href="#mb4480f79c7" x="122.432982" y="197.123911" style="stroke: #000000"/>
     <use xlink:href="#mb4480f79c7" x="122.815186" y="195.399902" style="stroke: #000000"/>
     <use xlink:href="#mb4480f79c7" x="123.227419" y="193.682826" style="stroke: #000000"/>
     <use xlink:href="#mb4480f79c7" x="123.669557" y="191.973207" style="stroke: #000000"/>
     <use xlink:href="#mb4480f79c7" x="124.141464" y="190.271564" style="stroke: #000000"/>
     <use xlink:href="#mb4480f79c7" x="124.642997" y="188.578416" style="stroke: #000000"/>
     <use xlink:href="#mb4480f79c7" x="125.174004" y="186.894279" style="stroke: #000000"/>
     <use xlink:href="#mb4480f79c7" x="125.734322" y="185.219665" style="stroke: #000000"/>
     <use xlink:href="#mb4480f79c7" x="126.32378" y="183.555086" style="stroke: #000000"/>
     <use xlink:href="#mb4480f79c7" x="126.9422" y="181.901048" style="stroke: #000000"/>
     <use xlink:href="#mb4480f79c7" x="127.589392" y="180.258054" style="stroke: #000000"/>
     <use xlink:href="#mb4480f79c7" x="128.26516" y="178.626606" style="stroke: #000000"/>
     <use xlink:href="#mb4480f79c7" x="128.969298" y="177.0072" style="stroke: #000000"/>
     <use xlink:href="#mb4480f79c7" x="129.701591" y="175.40033" style="stroke: #000000"/>
     <use xlink:href="#mb4480f79c7" x="130.461816" y="173.806484" style="stroke: #000000"/>
     <use xlink:href="#mb4480f79c7" x="131.249742" y="172.226149" style="stroke: #000000"/>
     <use xlink:href="#mb4480f79c7" x="132.065128" y="170.659806" style="stroke: #000000"/>
     <use xlink:href="#mb4480f79c7" x="132.907727" y="169.107932" style="stroke: #000000"/>
     <use xlink:href="#mb4480f79c7" x="133.777282" y="167.571" style="stroke: #000000"/>
     <use xlink:href="#mb4480f79c7" x="134.673527" y="166.049478" style="stroke: #000000"/>
     <use xlink:href="#mb4480f79c7" x="135.59619" y="164.543829" style="stroke: #000000"/>
     <use xlink:href="#mb4480f79c7" x="136.544989" y="163.054512" style="stroke: #000000"/>
     <use xlink:href="#mb4480f79c7" x="137.519636" y="161.58198" style="stroke: #000000"/>
     <use xlink:href="#mb4480f79c7" x="138.519834" y="160.126683" style="stroke: #000000"/>
     <use xlink:href="#mb4480f79c7" x="139.545279" y="158.689064" style="stroke: #000000"/>
     <use xlink:href="#mb4480f79c7" x="140.595656" y="157.26956" style="stroke: #000000"/>
     <use xlink:href="#mb4480f79c7" x="141.670648" y="155.868603" style="stroke: #000000"/>
     <use xlink:href="#mb4480f79c7" x="142.769926" y="154.486621" style="stroke: #000000"/>
     <use xlink:href="#mb4480f79c7" x="143.893155" y="153.124035" style="stroke: #000000"/>
     <use xlink:href="#mb4480f79c7" x="145.039994" y="151.78126" style="stroke: #000000"/>
     <use xlink:href="#mb4480f79c7" x="146.210093" y="150.458704" style="stroke: #000000"/>
     <use xlink:href="#mb4480f79c7" x="147.403095" y="149.15677" style="stroke: #000000"/>
     <use xlink:href="#mb4480f79c7" x="148.618638" y="147.875855" style="stroke: #000000"/>
     <use xlink:href="#mb4480f79c7" x="149.85635" y="146.61635" style="stroke: #000000"/>
     <use xlink:href="#mb4480f79c7" x="151.115855" y="145.378638" style="stroke: #000000"/>
     <use xlink:href="#mb4480f79c7" x="152.39677" y="144.163095" style="stroke: #000000"/>
     <use xlink:href="#mb4480f79c7" x="153.698704" y="142.970093" style="stroke: #000000"/>
     <use xlink:href="#mb4480f79c7" x="155.02126" y="141.799994" style="stroke: #000000"/>
     <use xlink:href="#mb4480f79c7" x="156.364035" y="140.653155" style="stroke: #000000"/>
     <use xlink:href="#mb4480f79c7" x="157.726621" y="139.529926" style="stroke: #000000"/>
     <use xlink:href="#mb4480f79c7" x="159.108603" y="138.430648" style="stroke: #000000"/>
     <use xlink:href="#mb4480f79c7" x="160.50956" y="137.355656" style="stroke: #000000"/>
     <use xlink:href="#mb4480f79c7" x="161.929064" y="136.305279" style="stroke: #000000"/>
     <use xlink:href="#mb4480f79c7" x="163.366683" y="135.279834" style="stroke: #000000"/>
     <use xlink:href="#mb4480f79c7" x="164.82198" y="134.279636" style="stroke: #000000"/>
     <use xlink:href="#mb4480f79c7" x="166.294512" y="133.304989" style="stroke: #000000"/>
     <use xlink:href="#mb4480f79c7" x="167.783829" y="132.35619" style="stroke: #000000"/>
     <use xlink:href="#mb4480f79c7" x="169.289478" y="131.433527" style="stroke: #000000"/>
     <use xlink:href="#mb4480f79c7" x="170.811" y="130.537282" style="stroke: #000000"/>
     <use xlink:href="#mb4480f79c7" x="172.347932" y="129.667727" style="stroke: #000000"/>
     <use xlink:href="#mb4480f79c7" x="173.899806" y="128.825128" style="stroke: #000000"/>
     <use xlink:href="#mb4480f79c7" x="175.466149" y="128.009742" style="stroke: #000000"/>
     <use xlink:href="#mb4480f79c7" x="177.046484" y="127.221816" style="stroke: #000000"/>
     <use xlink:href="#mb4480f79c7" x="178.64033" y="126.461591" style="stroke: #000000"/>
     <use xlink:href="#mb4480f79c7" x="180.2472" y="125.729298" style="stroke: #000000"/>
     <use xlink:href="#mb4480f79c7" x="181.866606" y="125.02516" style="stroke: #000000"/>
     <use xlink:href="#mb4480f79c7" x="184.017259" y="125.634469" style="stroke: #000000"/>
     <use xlink:href="#mb4480f79c7" x="185.637746" y="124.996142" style="stroke: #000000"/>
     <use xlink:href="#mb4480f79c7" x="187.269126" y="124.386194" style="stroke: #000000"/>
     <use xlink:href="#mb4480f79c7" x="188.910903" y="123.80481" style="stroke: #000000"/>
     <use xlink:href="#mb4480f79c7" x="190.562576" y="123.252168" style="stroke: #000000"/>
     <use xlink:href="#mb4480f79c7" x="192.223643" y="122.728436" style="stroke: #000000"/>
     <use xlink:href="#mb4480f79c7" x="193.893597" y="122.233773" style="stroke: #000000"/>
     <use xlink:href="#mb4480f79c7" x="195.57193" y="121.76833" style="stroke: #000000"/>
     <use xlink:href="#mb4480f79c7" x="197.25813" y="121.332249" style="stroke: #000000"/>
     <use xlink:href="#mb4480f79c7" x="198.951684" y="120.925662" style="stroke: #000000"/>
     <use xlink:href="#mb4480f79c7" x="200.652077" y="120.548695" style="stroke: #000000"/>
     <use xlink:href="#mb4480f79c7" x="202.358789" y="120.20146" style="stroke: #000000"/>
     <use xlink:href="#mb4480f79c7" x="204.071301" y="119.884065" style="stroke: #000000"/>
     <use xlink:href="#mb4480f79c7" x="205.789092" y="119.596605" style="stroke: #000000"/>
     <use xlink:href="#mb4480f79c7" x="207.511638" y="119.339169" style="stroke: #000000"/>
     <use xlink:href="#mb4480f79c7" x="209.238414" y="119.111834" style="stroke: #000000"/>
     <use xlink:href="#mb4480f79c7" x="210.968896" y="118.914671" style="stroke: #000000"/>
     <use xlink:href="#mb4480f79c7" x="212.702554" y="118.747739" style="stroke: #000000"/>
     <use xlink:href="#mb4480f79c7" x="214.438862" y="118.611088" style="stroke: #000000"/>
     <use xlink:href="#mb4480f79c7" x="216.17729" y="118.504761" style="stroke: #000000"/>
     <use xlink:href="#mb4480f79c7" x="217.868939" y="117.043635" style="stroke: #000000"/>
     <use xlink:href="#mb4480f79c7" x="219.6342" y="116.99741" style="stroke: #000000"/>
     <use xlink:href="#mb4480f79c7" x="221.4" y="116.982" style="stroke: #000000"/>
     <use xlink:href="#mb4480f79c7" x="222.367561" y="162.728444" style="stroke: #000000"/>
     <use xlink:href="#mb4480f79c7" x="223.383199" y="161.368617" style="stroke: #000000"/>
     <use xlink:href="#mb4480f79c7" x="224.374043" y="161.411878" style="stroke: #000000"/>
     <use xlink:href="#mb4480f79c7" x="225.363981" y="161.472425" style="stroke: #000000"/>
     <use xlink:href="#mb4480f79c7" x="226.352712" y="161.55024" style="stroke: #000000"/>
     <use xlink:href="#mb4480f79c7" x="227.339934" y="161.645299" style="stroke: #000000"/>
     <use xlink:href="#mb4480f79c7" x="228.325347" y="161.757572" style="stroke: #000000"/>
     <use xlink:href="#mb4480f79c7" x="229.308651" y="161.887027" style="stroke: #000000"/>
     <use xlink:href="#mb4480f79c7" x="230.289545" y="162.033622" style="stroke: #000000"/>
     <use xlink:href="#mb4480f79c7" x="231.267731" y="162.197315" style="stroke: #000000"/>
     <use xlink:href="#mb4480f79c7" x="232.242912" y="162.378054" style="stroke: #000000"/>
     <use xlink:href="#mb4480f79c7" x="233.21479" y="162.575784" style="stroke: #000000"/>
     <use xlink:href="#mb4480f79c7" x="234.183069" y="162.790447" style="stroke: #000000"/>
     <use xlink:href="#mb4480f79c7" x="235.147454" y="163.021975" style="stroke: #000000"/>
     <use xlink:href="#mb4480f79c7" x="236.107651" y="163.270299" style="stroke: #000000"/>
     <use xlink:href="#mb4480f79c7" x="237.063368" y="163.535343" style="stroke: #000000"/>
     <use xlink:href="#mb4480f79c7" x="238.014314" y="163.817026" style="stroke: #000000"/>
     <use xlink:href="#mb4480f79c7" x="239.388497" y="162.797098" style="stroke: #000000"/>
     <use xlink:href="#mb4480f79c7" x="240.351973" y="163.119473" style="stroke: #000000"/>
     <use xlink:href="#mb4480f79c7" x="241.309677" y="163.458613" style="stroke: #000000"/>
     <use xlink:href="#mb4480f79c7" x="243.206599" y="164.186773" style="stroke: #000000"/>
     <use xlink:href="#mb4480f79c7" x="244.14524" y="164.575571" style="stroke: #000000"/>
     <use xlink:href="#mb4480f79c7" x="245.076953" y="164.980692" style="stroke: #000000"/>
     <use xlink:href="#mb4480f79c7" x="246.001454" y="165.402011" style="stroke: #000000"/>
     <use xlink:href="#mb4480f79c7" x="246.918461" y="165.839401" style="stroke: #000000"/>
     <use xlink:href="#mb4480f79c7" x="247.827695" y="166.292728" style="stroke: #000000"/>
     <use xlink:href="#mb4480f79c7" x="248.728879" y="166.761855" style="stroke: #000000"/>
     <use xlink:href="#mb4480f79c7" x="249.621738" y="167.246638" style="stroke: #000000"/>
     <use xlink:href="#mb4480f79c7" x="250.506" y="167.746929" style="stroke: #000000"/>
     <use xlink:href="#mb4480f79c7" x="250.667554" y="169.450611" style="stroke: #000000"/>
     <use xlink:href="#mb4480f79c7" x="251.513192" y="169.968819" style="stroke: #000000"/>
     <use xlink:href="#mb4480f79c7" x="252.349658" y="170.501706" style="stroke: #000000"/>
     <use xlink:href="#mb4480f79c7" x="252.401655" y="172.198157" style="stroke: #000000"/>
     <use xlink:href="#mb4480f79c7" x="252.404101" y="173.881555" style="stroke: #000000"/>
     <use xlink:href="#mb4480f79c7" x="252.357474" y="175.550693" style="stroke: #000000"/>
     <use xlink:href="#mb4480f79c7" x="252.262278" y="177.204374" style="stroke: #000000"/>
     <use xlink:href="#mb4480f79c7" x="252.972352" y="177.749233" style="stroke: #000000"/>
     <use xlink:href="#mb4480f79c7" x="255.714356" y="180.050047" style="stroke: #000000"/>
     <use xlink:href="#mb4480f79c7" x="256.37424" y="180.654719" style="stroke: #000000"/>
     <use xlink:href="#mb4480f79c7" x="257.023471" y="181.270816" style="stroke: #000000"/>
     <use xlink:href="#mb4480f79c7" x="257.66185" y="181.89815" style="stroke: #000000"/>
     <use xlink:href="#mb4480f79c7" x="258.289184" y="182.536529" style="stroke: #000000"/>
     <use xlink:href="#mb4480f79c7" x="257.891624" y="184.13101" style="stroke: #000000"/>
     <use xlink:href="#mb4480f79c7" x="259.509953" y="183.845644" style="stroke: #000000"/>
     <use xlink:href="#mb4480f79c7" x="261.149044" y="183.606683" style="stroke: #000000"/>
     <use xlink:href="#mb4480f79c7" x="262.807766" y="183.414759" style="stroke: #000000"/>
     <use xlink:href="#mb4480f79c7" x="263.407848" y="184.142716" style="stroke: #000000"/>
     <use xlink:href="#mb4480f79c7" x="262.90295" y="185.734341" style="stroke: #000000"/>
     <use xlink:href="#mb4480f79c7" x="263.462535" y="186.463606" style="stroke: #000000"/>
     <use xlink:href="#mb4480f79c7" x="264.009307" y="187.202526" style="stroke: #000000"/>
     <use xlink:href="#mb4480f79c7" x="264.5431" y="187.950876" style="stroke: #000000"/>
     <use xlink:href="#mb4480f79c7" x="265.063751" y="188.708428" style="stroke: #000000"/>
     <use xlink:href="#mb4480f79c7" x="265.571101" y="189.474951" style="stroke: #000000"/>
     <use xlink:href="#mb4480f79c7" x="266.064997" y="190.250212" style="stroke: #000000"/>
     <use xlink:href="#mb4480f79c7" x="265.357254" y="191.747817" style="stroke: #000000"/>
     <use xlink:href="#mb4480f79c7" x="264.611204" y="193.212" style="stroke: #000000"/>
     <use xlink:href="#mb4480f79c7" x="263.827802" y="194.641885" style="stroke: #000000"/>
     <use xlink:href="#mb4480f79c7" x="264.231788" y="195.385934" style="stroke: #000000"/>
     <use xlink:href="#mb4480f79c7" x="264.622726" y="196.136921" style="stroke: #000000"/>
     <use xlink:href="#mb4480f79c7" x="265.000499" y="196.894616" style="stroke: #000000"/>
     <use xlink:href="#mb4480f79c7" x="265.364991" y="197.658788" style="stroke: #000000"/>
     <use xlink:href="#mb4480f79c7" x="265.71609" y="198.429205" style="stroke: #000000"/>
     <use xlink:href="#mb4480f79c7" x="266.05369" y="199.205633" style="stroke: #000000"/>
     <use xlink:href="#mb4480f79c7" x="266.377689" y="199.987834" style="stroke: #000000"/>
     <use xlink:href="#mb4480f79c7" x="266.687986" y="200.775571" style="stroke: #000000"/>
     <use xlink:href="#mb4480f79c7" x="266.984489" y="201.568603" style="stroke: #000000"/>
     <use xlink:href="#mb4480f79c7" x="267.267106" y="202.366689" style="stroke: #000000"/>
     <use xlink:href="#mb4480f79c7" x="268.853916" y="202.741288" style="stroke: #000000"/>
     <use xlink:href="#mb4480f79c7" x="269.115782" y="203.571821" style="stroke: #000000"/>
     <use xlink:href="#mb4480f79c7" x="268.030805" y="204.788832" style="stroke: #000000"/>
     <use xlink:href="#mb4480f79c7" x="268.257062" y="205.604688" style="stroke: #000000"/>
     <use xlink:href="#mb4480f79c7" x="268.469046" y="206.424369" style="stroke: #000000"/>
     <use xlink:href="#mb4480f79c7" x="268.666692" y="207.247624" style="stroke: #000000"/>
     <use xlink:href="#mb4480f79c7" x="267.494228" y="208.362369" style="stroke: #000000"/>
     <use xlink:href="#mb4480f79c7" x="267.658199" y="209.168317" style="stroke: #000000"/>
     <use xlink:href="#mb4480f79c7" x="267.808081" y="209.977003" style="stroke: #000000"/>
     <use xlink:href="#mb4480f79c7" x="269.312761" y="210.571364" style="stroke: #000000"/>
     <use xlink:href="#mb4480f79c7" x="270.810416" y="211.215819" style="stroke: #000000"/>
     <use xlink:href="#mb4480f79c7" x="271.106131" y="213.811277" style="stroke: #000000"/>
     <use xlink:href="#mb4480f79c7" x="271.288401" y="217.289195" style="stroke: #000000"/>
     <use xlink:href="#mb4480f79c7" x="272.682" y="218.16" style="stroke: #000000"/>
     <use xlink:href="#mb4480f79c7" x="272.67419" y="219.054994" style="stroke: #000000"/>
     <use xlink:href="#mb4480f79c7" x="272.65076" y="219.949716" style="stroke: #000000"/>
     <use xlink:href="#mb4480f79c7" x="272.61172" y="220.843893" style="stroke: #000000"/>
     <use xlink:href="#mb4480f79c7" x="273.939703" y="221.833934" style="stroke: #000000"/>
     <use xlink:href="#mb4480f79c7" x="273.867582" y="222.750319" style="stroke: #000000"/>
     <use xlink:href="#mb4480f79c7" x="275.157887" y="223.810182" style="stroke: #000000"/>
     <use xlink:href="#mb4480f79c7" x="273.675421" y="224.578615" style="stroke: #000000"/>
     <use xlink:href="#mb4480f79c7" x="272.182927" y="225.297075" style="stroke: #000000"/>
     <use xlink:href="#mb4480f79c7" x="272.050633" y="226.182272" style="stroke: #000000"/>
     <use xlink:href="#mb4480f79c7" x="273.267855" y="227.305702" style="stroke: #000000"/>
     <use xlink:href="#mb4480f79c7" x="273.10034" y="228.209528" style="stroke: #000000"/>
     <use xlink:href="#mb4480f79c7" x="271.561365" y="228.822127" style="stroke: #000000"/>
     <use xlink:href="#mb4480f79c7" x="271.367646" y="229.69594" style="stroke: #000000"/>
     <use xlink:href="#mb4480f79c7" x="268.469046" y="229.895631" style="stroke: #000000"/>
     <use xlink:href="#mb4480f79c7" x="268.257062" y="230.715312" style="stroke: #000000"/>
     <use xlink:href="#mb4480f79c7" x="268.030805" y="231.531168" style="stroke: #000000"/>
     <use xlink:href="#mb4480f79c7" x="269.115782" y="232.748179" style="stroke: #000000"/>
     <use xlink:href="#mb4480f79c7" x="270.17208" y="234.00701" style="stroke: #000000"/>
     <use xlink:href="#mb4480f79c7" x="269.888084" y="234.855786" style="stroke: #000000"/>
     <use xlink:href="#mb4480f79c7" x="269.589317" y="235.699477" style="stroke: #000000"/>
     <use xlink:href="#mb4480f79c7" x="267.981929" y="236.041127" style="stroke: #000000"/>
     <use xlink:href="#mb4480f79c7" x="266.377689" y="236.332166" style="stroke: #000000"/>
     <use xlink:href="#mb4480f79c7" x="264.777871" y="236.572814" style="stroke: #000000"/>
     <use xlink:href="#mb4480f79c7" x="265.71609" y="237.890795" style="stroke: #000000"/>
     <use xlink:href="#mb4480f79c7" x="267.877276" y="239.83271" style="stroke: #000000"/>
     <use xlink:href="#mb4480f79c7" x="268.737685" y="241.248132" style="stroke: #000000"/>
     <use xlink:href="#mb4480f79c7" x="267.092597" y="241.441541" style="stroke: #000000"/>
     <use xlink:href="#mb4480f79c7" x="266.252248" y="243.022007" style="stroke: #000000"/>
     <use xlink:href="#mb4480f79c7" x="264.611204" y="243.108" style="stroke: #000000"/>
     <use xlink:href="#mb4480f79c7" x="260.176475" y="249.56057" style="stroke: #000000"/>
     <use xlink:href="#mb4480f79c7" x="259.622554" y="250.232531" style="stroke: #000000"/>
     <use xlink:href="#mb4480f79c7" x="259.056989" y="250.894721" style="stroke: #000000"/>
     <use xlink:href="#mb4480f79c7" x="258.905281" y="253.13424" style="stroke: #000000"/>
     <use xlink:href="#mb4480f79c7" x="259.286189" y="254.746267" style="stroke: #000000"/>
     <use xlink:href="#mb4480f79c7" x="258.6419" y="255.4019" style="stroke: #000000"/>
     <use xlink:href="#mb4480f79c7" x="257.986267" y="256.046189" style="stroke: #000000"/>
     <use xlink:href="#mb4480f79c7" x="257.31949" y="256.678937" style="stroke: #000000"/>
     <use xlink:href="#mb4480f79c7" x="257.569186" y="258.32995" style="stroke: #000000"/>
     <use xlink:href="#mb4480f79c7" x="255.953317" y="257.909044" style="stroke: #000000"/>
     <use xlink:href="#mb4480f79c7" x="254.363434" y="257.444291" style="stroke: #000000"/>
     <use xlink:href="#mb4480f79c7" x="253.672808" y="258.013599" style="stroke: #000000"/>
     <use xlink:href="#mb4480f79c7" x="252.972352" y="258.570767" style="stroke: #000000"/>
     <use xlink:href="#mb4480f79c7" x="252.262278" y="259.115626" style="stroke: #000000"/>
     <use xlink:href="#mb4480f79c7" x="250.814147" y="260.167755" style="stroke: #000000"/>
     <use xlink:href="#mb4480f79c7" x="247.812183" y="262.117254" style="stroke: #000000"/>
     <use xlink:href="#mb4480f79c7" x="247.041" y="262.571515" style="stroke: #000000"/>
     <use xlink:href="#mb4480f79c7" x="242.486961" y="263.381133" style="stroke: #000000"/>
     <use xlink:href="#mb4480f79c7" x="241.694532" y="263.742264" style="stroke: #000000"/>
     <use xlink:href="#mb4480f79c7" x="240.89592" y="264.08951" style="stroke: #000000"/>
     <use xlink:href="#mb4480f79c7" x="240.091371" y="264.422766" style="stroke: #000000"/>
     <use xlink:href="#mb4480f79c7" x="239.777825" y="266.035871" style="stroke: #000000"/>
     <use xlink:href="#mb4480f79c7" x="239.413517" y="267.651731" style="stroke: #000000"/>
     <use xlink:href="#mb4480f79c7" x="238.547024" y="267.958572" style="stroke: #000000"/>
     <use xlink:href="#mb4480f79c7" x="237.675307" y="268.250245" style="stroke: #000000"/>
     <use xlink:href="#mb4480f79c7" x="236.393406" y="267.20122" style="stroke: #000000"/>
     <use xlink:href="#mb4480f79c7" x="235.535235" y="267.455422" style="stroke: #000000"/>
     <use xlink:href="#mb4480f79c7" x="234.672758" y="267.694608" style="stroke: #000000"/>
     <use xlink:href="#mb4480f79c7" x="233.806239" y="267.918705" style="stroke: #000000"/>
     <use xlink:href="#mb4480f79c7" x="233.247722" y="269.478123" style="stroke: #000000"/>
     <use xlink:href="#mb4480f79c7" x="232.350293" y="269.677078" style="stroke: #000000"/>
     <use xlink:href="#mb4480f79c7" x="231.449528" y="269.86034" style="stroke: #000000"/>
     <use xlink:href="#mb4480f79c7" x="230.545702" y="270.027855" style="stroke: #000000"/>
     <use xlink:href="#mb4480f79c7" x="229.422272" y="268.810633" style="stroke: #000000"/>
     <use xlink:href="#mb4480f79c7" x="228.537075" y="268.942927" style="stroke: #000000"/>
     <use xlink:href="#mb4480f79c7" x="227.649704" y="269.059752" style="stroke: #000000"/>
     <use xlink:href="#mb4480f79c7" x="226.905305" y="270.539479" style="stroke: #000000"/>
     <use xlink:href="#mb4480f79c7" x="225.990319" y="270.627582" style="stroke: #000000"/>
     <use xlink:href="#mb4480f79c7" x="225.073934" y="270.699703" style="stroke: #000000"/>
     <use xlink:href="#mb4480f79c7" x="224.15643" y="270.75582" style="stroke: #000000"/>
     <use xlink:href="#mb4480f79c7" x="223.238087" y="270.795916" style="stroke: #000000"/>
     <use xlink:href="#mb4480f79c7" x="222.319183" y="270.819978" style="stroke: #000000"/>
     <use xlink:href="#mb4480f79c7" x="221.4" y="269.442" style="stroke: #000000"/>
     <use xlink:href="#mb4480f79c7" x="220.505006" y="269.43419" style="stroke: #000000"/>
     <use xlink:href="#mb4480f79c7" x="219.610284" y="269.41076" style="stroke: #000000"/>
     <use xlink:href="#mb4480f79c7" x="218.716107" y="269.37172" style="stroke: #000000"/>
     <use xlink:href="#mb4480f79c7" x="217.919431" y="267.934456" style="stroke: #000000"/>
     <use xlink:href="#mb4480f79c7" x="217.051277" y="267.866131" style="stroke: #000000"/>
     <use xlink:href="#mb4480f79c7" x="216.329324" y="266.404257" style="stroke: #000000"/>
     <use xlink:href="#mb4480f79c7" x="215.488118" y="266.308414" style="stroke: #000000"/>
     <use xlink:href="#mb4480f79c7" x="214.648713" y="266.197904" style="stroke: #000000"/>
     <use xlink:href="#mb4480f79c7" x="214.028182" y="264.703825" style="stroke: #000000"/>
     <use xlink:href="#mb4480f79c7" x="213.217003" y="264.568081" style="stroke: #000000"/>
     <use xlink:href="#mb4480f79c7" x="212.143856" y="265.778735" style="stroke: #000000"/>
     <use xlink:href="#mb4480f79c7" x="211.314204" y="265.60994" style="stroke: #000000"/>
     <use xlink:href="#mb4480f79c7" x="210.175842" y="266.777169" style="stroke: #000000"/>
     <use xlink:href="#mb4480f79c7" x="209.329065" y="266.573876" style="stroke: #000000"/>
     <use xlink:href="#mb4480f79c7" x="208.485965" y="266.355835" style="stroke: #000000"/>
     <use xlink:href="#mb4480f79c7" x="207.646798" y="266.123114" style="stroke: #000000"/>
     <use xlink:href="#mb4480f79c7" x="206.406594" y="267.20122" style="stroke: #000000"/>
     <use xlink:href="#mb4480f79c7" x="205.981288" y="265.613916" style="stroke: #000000"/>
     <use xlink:href="#mb4480f79c7" x="205.55299" y="266.93208" style="stroke: #000000"/>
     <use xlink:href="#mb4480f79c7" x="205.155451" y="265.337595" style="stroke: #000000"/>
     <use xlink:href="#mb4480f79c7" x="205.155451" y="265.337595" style="stroke: #000000"/>
     <use xlink:href="#mb4480f79c7" x="204.334563" y="265.046903" style="stroke: #000000"/>
     <use xlink:href="#mb4480f79c7" x="204.334563" y="265.046903" style="stroke: #000000"/>
     <use xlink:href="#mb4480f79c7" x="204.015571" y="263.447986" style="stroke: #000000"/>
     <use xlink:href="#mb4480f79c7" x="203.518873" y="264.741929" style="stroke: #000000"/>
     <use xlink:href="#mb4480f79c7" x="203.227834" y="263.137689" style="stroke: #000000"/>
     <use xlink:href="#mb4480f79c7" x="202.708629" y="264.422766" style="stroke: #000000"/>
     <use xlink:href="#mb4480f79c7" x="202.445633" y="262.81369" style="stroke: #000000"/>
     <use xlink:href="#mb4480f79c7" x="202.445633" y="262.81369" style="stroke: #000000"/>
     <use xlink:href="#mb4480f79c7" x="202.232942" y="261.209916" style="stroke: #000000"/>
     <use xlink:href="#mb4480f79c7" x="201.669205" y="262.47609" style="stroke: #000000"/>
     <use xlink:href="#mb4480f79c7" x="200.898788" y="262.124991" style="stroke: #000000"/>
     <use xlink:href="#mb4480f79c7" x="200.313039" y="263.381133" style="stroke: #000000"/>
     <use xlink:href="#mb4480f79c7" x="200.134616" y="261.760499" style="stroke: #000000"/>
     <use xlink:href="#mb4480f79c7" x="198.74769" y="262.617662" style="stroke: #000000"/>
     <use xlink:href="#mb4480f79c7" x="197.975247" y="262.215553" style="stroke: #000000"/>
     <use xlink:href="#mb4480f79c7" x="197.209939" y="261.800025" style="stroke: #000000"/>
     <use xlink:href="#mb4480f79c7" x="197.145" y="260.170892" style="stroke: #000000"/>
     <use xlink:href="#mb4480f79c7" x="195.70166" y="260.92922" style="stroke: #000000"/>
     <use xlink:href="#mb4480f79c7" x="194.959148" y="260.474208" style="stroke: #000000"/>
     <use xlink:href="#mb4480f79c7" x="193.469821" y="261.168704" style="stroke: #000000"/>
     <use xlink:href="#mb4480f79c7" x="192.72347" y="260.674705" style="stroke: #000000"/>
     <use xlink:href="#mb4480f79c7" x="192.78083" y="259.03241" style="stroke: #000000"/>
     <use xlink:href="#mb4480f79c7" x="192.071867" y="258.526712" style="stroke: #000000"/>
     <use xlink:href="#mb4480f79c7" x="192.205953" y="256.901809" style="stroke: #000000"/>
     <use xlink:href="#mb4480f79c7" x="191.534262" y="256.386402" style="stroke: #000000"/>
     <use xlink:href="#mb4480f79c7" x="191.743906" y="254.782226" style="stroke: #000000"/>
     <use xlink:href="#mb4480f79c7" x="191.743906" y="254.782226" style="stroke: #000000"/>
     <use xlink:href="#mb4480f79c7" x="191.109277" y="254.259078" style="stroke: #000000"/>
     <use xlink:href="#mb4480f79c7" x="191.393172" y="252.678907" style="stroke: #000000"/>
     <use xlink:href="#mb4480f79c7" x="190.795304" y="252.149958" style="stroke: #000000"/>
     <use xlink:href="#mb4480f79c7" x="191.152009" y="250.596999" style="stroke: #000000"/>
     <use xlink:href="#mb4480f79c7" x="190.590512" y="250.064159" style="stroke: #000000"/>
     <use xlink:href="#mb4480f79c7" x="189.05835" y="250.50165" style="stroke: #000000"/>
     <use xlink:href="#mb4480f79c7" x="188.498836" y="249.932285" style="stroke: #000000"/>
     <use xlink:href="#mb4480f79c7" x="187.949344" y="249.353241" style="stroke: #000000"/>
     <use xlink:href="#mb4480f79c7" x="188.440041" y="247.837281" style="stroke: #000000"/>
     <use xlink:href="#mb4480f79c7" x="186.881093" y="248.166828" style="stroke: #000000"/>
     <use xlink:href="#mb4480f79c7" x="185.300922" y="248.450723" style="stroke: #000000"/>
     <use xlink:href="#mb4480f79c7" x="183.700649" y="248.688332" style="stroke: #000000"/>
     <use xlink:href="#mb4480f79c7" x="181.033288" y="247.488133" style="stroke: #000000"/>
     <use xlink:href="#mb4480f79c7" x="180.52759" y="246.77917" style="stroke: #000000"/>
     <use xlink:href="#mb4480f79c7" x="179.085792" y="244.600852" style="stroke: #000000"/>
     <use xlink:href="#mb4480f79c7" x="179.818814" y="243.144497" style="stroke: #000000"/>
     <use xlink:href="#mb4480f79c7" x="180.589419" y="241.722" style="stroke: #000000"/>
     <use xlink:href="#mb4480f79c7" x="178.177274" y="240.183079" style="stroke: #000000"/>
     <use xlink:href="#mb4480f79c7" x="173.204165" y="231.074035" style="stroke: #000000"/>
     <use xlink:href="#mb4480f79c7" x="171.238635" y="228.822127" style="stroke: #000000"/>
     <use xlink:href="#mb4480f79c7" x="172.42073" y="227.680606" style="stroke: #000000"/>
     <use xlink:href="#mb4480f79c7" x="172.262032" y="226.824349" style="stroke: #000000"/>
     <use xlink:href="#mb4480f79c7" x="173.487239" y="225.748636" style="stroke: #000000"/>
     <use xlink:href="#mb4480f79c7" x="173.362096" y="224.911287" style="stroke: #000000"/>
     <use xlink:href="#mb4480f79c7" x="171.875917" y="224.240793" style="stroke: #000000"/>
     <use xlink:href="#mb4480f79c7" x="170.398928" y="223.520429" style="stroke: #000000"/>
     <use xlink:href="#mb4480f79c7" x="168.932418" y="222.750319" style="stroke: #000000"/>
     <use xlink:href="#mb4480f79c7" x="167.477673" y="221.930616" style="stroke: #000000"/>
     <use xlink:href="#mb4480f79c7" x="168.80418" y="220.91643" style="stroke: #000000"/>
     <use xlink:href="#mb4480f79c7" x="170.14924" y="219.949716" style="stroke: #000000"/>
     <use xlink:href="#mb4480f79c7" x="170.12581" y="219.054994" style="stroke: #000000"/>
     <use xlink:href="#mb4480f79c7" x="170.118" y="218.16" style="stroke: #000000"/>
     <use xlink:href="#mb4480f79c7" x="168.740022" y="217.240817" style="stroke: #000000"/>
     <use xlink:href="#mb4480f79c7" x="167.378928" y="216.273543" style="stroke: #000000"/>
     <use xlink:href="#mb4480f79c7" x="166.035979" y="215.258495" style="stroke: #000000"/>
     <use xlink:href="#mb4480f79c7" x="166.095049" y="214.292701" style="stroke: #000000"/>
     <use xlink:href="#mb4480f79c7" x="166.170966" y="213.328086" style="stroke: #000000"/>
     <use xlink:href="#mb4480f79c7" x="166.263706" y="212.364942" style="stroke: #000000"/>
     <use xlink:href="#mb4480f79c7" x="166.373241" y="211.403564" style="stroke: #000000"/>
     <use xlink:href="#mb4480f79c7" x="165.127027" y="210.251349" style="stroke: #000000"/>
     <use xlink:href="#mb4480f79c7" x="163.904686" y="209.053637" style="stroke: #000000"/>
     <use xlink:href="#mb4480f79c7" x="162.707428" y="207.810916" style="stroke: #000000"/>
     <use xlink:href="#mb4480f79c7" x="161.536448" y="206.523704" style="stroke: #000000"/>
     <use xlink:href="#mb4480f79c7" x="162.493979" y="202.376179" style="stroke: #000000"/>
     <use xlink:href="#mb4480f79c7" x="162.778417" y="201.350531" style="stroke: #000000"/>
     <use xlink:href="#mb4480f79c7" x="164.406149" y="200.735231" style="stroke: #000000"/>
     <use xlink:href="#mb4480f79c7" x="164.718934" y="199.743205" style="stroke: #000000"/>
     <use xlink:href="#mb4480f79c7" x="166.359473" y="199.208027" style="stroke: #000000"/>
     <use xlink:href="#mb4480f79c7" x="166.698613" y="198.250323" style="stroke: #000000"/>
     <use xlink:href="#mb4480f79c7" x="168.348359" y="197.795383" style="stroke: #000000"/>
     <use xlink:href="#mb4480f79c7" x="168.71185" y="196.872606" style="stroke: #000000"/>
     <use xlink:href="#mb4480f79c7" x="169.091391" y="195.956313" style="stroke: #000000"/>
     <use xlink:href="#mb4480f79c7" x="169.486866" y="195.046784" style="stroke: #000000"/>
     <use xlink:href="#mb4480f79c7" x="171.154296" y="194.730044" style="stroke: #000000"/>
     <use xlink:href="#mb4480f79c7" x="171.570858" y="193.856704" style="stroke: #000000"/>
     <use xlink:href="#mb4480f79c7" x="172.002598" y="192.990767" style="stroke: #000000"/>
     <use xlink:href="#mb4480f79c7" x="171.22562" y="191.481809" style="stroke: #000000"/>
     <use xlink:href="#mb4480f79c7" x="171.698861" y="190.610209" style="stroke: #000000"/>
     <use xlink:href="#mb4480f79c7" x="170.486638" y="189.938262" style="stroke: #000000"/>
     <use xlink:href="#mb4480f79c7" x="172.18724" y="189.747" style="stroke: #000000"/>
     <use xlink:href="#mb4480f79c7" x="172.690611" y="188.892446" style="stroke: #000000"/>
     <use xlink:href="#mb4480f79c7" x="173.208819" y="188.046808" style="stroke: #000000"/>
     <use xlink:href="#mb4480f79c7" x="173.741706" y="187.210342" style="stroke: #000000"/>
     <use xlink:href="#mb4480f79c7" x="174.289111" y="186.383304" style="stroke: #000000"/>
     <use xlink:href="#mb4480f79c7" x="173.140065" y="185.608263" style="stroke: #000000"/>
     <use xlink:href="#mb4480f79c7" x="174.850866" y="185.565945" style="stroke: #000000"/>
     <use xlink:href="#mb4480f79c7" x="176.548098" y="185.573186" style="stroke: #000000"/>
     <use xlink:href="#mb4480f79c7" x="177.123647" y="184.795375" style="stroke: #000000"/>
     <use xlink:href="#mb4480f79c7" x="177.712684" y="184.027728" style="stroke: #000000"/>
     <use xlink:href="#mb4480f79c7" x="178.315028" y="183.270478" style="stroke: #000000"/>
     <use xlink:href="#mb4480f79c7" x="177.868758" y="181.632951" style="stroke: #000000"/>
     <use xlink:href="#mb4480f79c7" x="178.512873" y="180.87879" style="stroke: #000000"/>
     <use xlink:href="#mb4480f79c7" x="179.170052" y="180.135984" style="stroke: #000000"/>
     <use xlink:href="#mb4480f79c7" x="180.853751" y="180.350011" style="stroke: #000000"/>
     <use xlink:href="#mb4480f79c7" x="181.519801" y="179.64814" style="stroke: #000000"/>
     <use xlink:href="#mb4480f79c7" x="182.198" y="178.958" style="stroke: #000000"/>
     <use xlink:href="#mb4480f79c7" x="181.925343" y="177.282797" style="stroke: #000000"/>
     <use xlink:href="#mb4480f79c7" x="181.699511" y="175.586438" style="stroke: #000000"/>
     <use xlink:href="#mb4480f79c7" x="187.201259" y="172.776739" style="stroke: #000000"/>
     <use xlink:href="#mb4480f79c7" x="187.998515" y="172.1868" style="stroke: #000000"/>
     <use xlink:href="#mb4480f79c7" x="188.805945" y="171.610866" style="stroke: #000000"/>
     <use xlink:href="#mb4480f79c7" x="189.623304" y="171.049111" style="stroke: #000000"/>
     <use xlink:href="#mb4480f79c7" x="190.450342" y="170.501706" style="stroke: #000000"/>
     <use xlink:href="#mb4480f79c7" x="190.55234" y="168.793424" style="stroke: #000000"/>
     <use xlink:href="#mb4480f79c7" x="191.418604" y="168.262577" style="stroke: #000000"/>
     <use xlink:href="#mb4480f79c7" x="192.294" y="167.746929" style="stroke: #000000"/>
     <use xlink:href="#mb4480f79c7" x="193.178262" y="167.246638" style="stroke: #000000"/>
     <use xlink:href="#mb4480f79c7" x="194.071121" y="166.761855" style="stroke: #000000"/>
     <use xlink:href="#mb4480f79c7" x="194.972305" y="166.292728" style="stroke: #000000"/>
     <use xlink:href="#mb4480f79c7" x="195.881539" y="165.839401" style="stroke: #000000"/>
     <use xlink:href="#mb4480f79c7" x="196.798546" y="165.402011" style="stroke: #000000"/>
     <use xlink:href="#mb4480f79c7" x="197.723047" y="164.980692" style="stroke: #000000"/>
     <use xlink:href="#mb4480f79c7" x="198.65476" y="164.575571" style="stroke: #000000"/>
     <use xlink:href="#mb4480f79c7" x="199.593401" y="164.186773" style="stroke: #000000"/>
     <use xlink:href="#mb4480f79c7" x="200.538685" y="163.814416" style="stroke: #000000"/>
     <use xlink:href="#mb4480f79c7" x="201.490323" y="163.458613" style="stroke: #000000"/>
     <use xlink:href="#mb4480f79c7" x="202.448027" y="163.119473" style="stroke: #000000"/>
     <use xlink:href="#mb4480f79c7" x="203.411503" y="162.797098" style="stroke: #000000"/>
     <use xlink:href="#mb4480f79c7" x="204.380458" y="162.491588" style="stroke: #000000"/>
     <use xlink:href="#mb4480f79c7" x="205.354598" y="162.203034" style="stroke: #000000"/>
     <use xlink:href="#mb4480f79c7" x="206.333626" y="161.931526" style="stroke: #000000"/>
     <use xlink:href="#mb4480f79c7" x="207.317243" y="161.677145" style="stroke: #000000"/>
     <use xlink:href="#mb4480f79c7" x="208.305149" y="161.43997" style="stroke: #000000"/>
     <use xlink:href="#mb4480f79c7" x="209.58521" y="162.575784" style="stroke: #000000"/>
     <use xlink:href="#mb4480f79c7" x="210.557088" y="162.378054" style="stroke: #000000"/>
     <use xlink:href="#mb4480f79c7" x="211.532269" y="162.197315" style="stroke: #000000"/>
     <use xlink:href="#mb4480f79c7" x="212.510455" y="162.033622" style="stroke: #000000"/>
     <use xlink:href="#mb4480f79c7" x="217.436019" y="161.472425" style="stroke: #000000"/>
     <use xlink:href="#mb4480f79c7" x="218.425957" y="161.411878" style="stroke: #000000"/>
     <use xlink:href="#mb4480f79c7" x="219.416801" y="161.368617" style="stroke: #000000"/>
     <use xlink:href="#mb4480f79c7" x="220.40825" y="161.342655" style="stroke: #000000"/>
     <use xlink:href="#mb4480f79c7" x="221.4" y="161.334" style="stroke: #000000"/>
    </g>
   </g>
   <g id="patch_3">
    <path d="M 221.4 51.84 
C 199.559058 51.84 177.930491 56.142189 157.752092 64.500356 
C 137.573692 72.858523 119.237879 85.110122 103.794 100.554 
C 88.350122 115.997879 76.098523 134.333692 67.740356 154.512092 
C 59.382189 174.690491 55.08 196.319058 55.08 218.16 
C 55.08 240.000942 59.382189 261.629509 67.740356 281.807908 
C 76.098523 301.986308 88.350122 320.322121 103.794 335.766 
C 119.237879 351.209878 137.573692 363.461477 157.752092 371.819644 
C 177.930491 380.177811 199.559058 384.48 221.4 384.48 
C 243.240942 384.48 264.869509 380.177811 285.047908 371.819644 
C 305.226308 363.461477 323.562121 351.209878 339.006 335.766 
C 354.449878 320.322121 366.701477 301.986308 375.059644 281.807908 
C 383.417811 261.629509 387.72 240.000942 387.72 218.16 
C 387.72 196.319058 383.417811 174.690491 375.059644 154.512092 
C 366.701477 134.333692 354.449878 115.997879 339.006 100.554 
C 323.562121 85.110122 305.226308 72.858523 285.047908 64.500356 
C 264.869509 56.142189 243.240942 51.84 221.4 51.84 
" style="fill: none; stroke: #ffffff; stroke-width: 1.25; stroke-linejoin: miter; stroke-linecap: square"/>
   </g>
  </g>
 </g>
 <defs>
  <clipPath id="p3d484813f4">
   <path d="M 387.72 218.16 
C 387.72 196.319058 383.417811 174.690491 375.059644 154.512092 
C 366.701477 134.333692 354.449878 115.997879 339.006 100.554 
C 323.562121 85.110122 305.226308 72.858523 285.047908 64.500356 
C 264.869509 56.142189 243.240942 51.84 221.4 51.84 
C 199.559058 51.84 177.930491 56.142189 157.752092 64.500356 
C 137.573692 72.858523 119.237879 85.110122 103.794 100.554 
C 88.350122 115.997879 76.098523 134.333692 67.740356 154.512092 
C 59.382189 174.690491 55.08 196.319058 55.08 218.16 
C 55.08 240.000942 59.382189 261.629509 67.740356 281.807908 
C 76.098523 301.986308 88.350122 320.322121 103.794 335.766 
C 119.237879 351.209878 137.573692 363.461477 157.752092 371.819644 
C 177.930491 380.177811 199.559058 384.48 221.4 384.48 
C 243.240942 384.48 264.869509 380.177811 285.047908 371.819644 
C 305.226308 363.461477 323.562121 351.209878 339.006 335.766 
C 354.449878 320.322121 366.701477 301.986308 375.059644 281.807908 
C 383.417811 261.629509 387.72 240.000942 387.72 218.16 
M 221.4 218.16 
C 221.4 218.16 221.4 218.16 221.4 218.16 
C 221.4 218.16 221.4 218.16 221.4 218.16 
C 221.4 218.16 221.4 218.16 221.4 218.16 
C 221.4 218.16 221.4 218.16 221.4 218.16 
C 221.4 218.16 221.4 218.16 221.4 218.16 
C 221.4 218.16 221.4 218.16 221.4 218.16 
C 221.4 218.16 221.4 218.16 221.4 218.16 
C 221.4 218.16 221.4 218.16 221.4 218.16 
C 221.4 218.16 221.4 218.16 221.4 218.16 
C 221.4 218.16 221.4 218.16 221.4 218.16 
C 221.4 218.16 221.4 218.16 221.4 218.16 
C 221.4 218.16 221.4 218.16 221.4 218.16 
C 221.4 218.16 221.4 218.16 221.4 218.16 
C 221.4 218.16 221.4 218.16 221.4 218.16 
C 221.4 218.16 221.4 218.16 221.4 218.16 
C 221.4 218.16 221.4 218.16 221.4 218.16 
z
"/>
  </clipPath>
 </defs>
</svg>
