<?xml version="1.0" encoding="utf-8" standalone="no"?>
<!DOCTYPE svg PUBLIC "-//W3C//DTD SVG 1.1//EN"
  "http://www.w3.org/Graphics/SVG/1.1/DTD/svg11.dtd">
<svg xmlns:xlink="http://www.w3.org/1999/xlink" width="432pt" height="432pt" viewBox="0 0 432 432" xmlns="http://www.w3.org/2000/svg" version="1.1">
 <metadata>
  <rdf:RDF xmlns:dc="http://purl.org/dc/elements/1.1/" xmlns:cc="http://creativecommons.org/ns#" xmlns:rdf="http://www.w3.org/1999/02/22-rdf-syntax-ns#">
   <cc:Work>
    <dc:type rdf:resource="http://purl.org/dc/dcmitype/StillImage"/>
    <dc:date>2024-09-06T16:24:08.197189</dc:date>
    <dc:format>image/svg+xml</dc:format>
    <dc:creator>
     <cc:Agent>
      <dc:title>Matplotlib v3.9.1, https://matplotlib.org/</dc:title>
     </cc:Agent>
    </dc:creator>
   </cc:Work>
  </rdf:RDF>
 </metadata>
 <defs>
  <style type="text/css">*{stroke-linejoin: round; stroke-linecap: butt}</style>
 </defs>
 <g id="figure_1">
  <g id="patch_1">
   <path d="M 0 432 
L 432 432 
L 432 0 
L 0 0 
z
" style="fill: #ffffff"/>
  </g>
  <g id="axes_1">
   <g id="patch_2">
    <path d="M 387.72 218.16 
C 387.72 196.319058 383.417811 174.690491 375.059644 154.512092 
C 366.701477 134.333692 354.449878 115.997879 339.006 100.554 
C 323.562121 85.110122 305.226308 72.858523 285.047908 64.500356 
C 264.869509 56.142189 243.240942 51.84 221.4 51.84 
C 199.559058 51.84 177.930491 56.142189 157.752092 64.500356 
C 137.573692 72.858523 119.237879 85.110122 103.794 100.554 
C 88.350122 115.997879 76.098523 134.333692 67.740356 154.512092 
C 59.382189 174.690491 55.08 196.319058 55.08 218.16 
C 55.08 240.000942 59.382189 261.629509 67.740356 281.807908 
C 76.098523 301.986308 88.350122 320.322121 103.794 335.766 
C 119.237879 351.209878 137.573692 363.461477 157.752092 371.819644 
C 177.930491 380.177811 199.559058 384.48 221.4 384.48 
C 243.240942 384.48 264.869509 380.177811 285.047908 371.819644 
C 305.226308 363.461477 323.562121 351.209878 339.006 335.766 
C 354.449878 320.322121 366.701477 301.986308 375.059644 281.807908 
C 383.417811 261.629509 387.72 240.000942 387.72 218.16 
M 221.4 218.16 
C 221.4 218.16 221.4 218.16 221.4 218.16 
C 221.4 218.16 221.4 218.16 221.4 218.16 
C 221.4 218.16 221.4 218.16 221.4 218.16 
C 221.4 218.16 221.4 218.16 221.4 218.16 
C 221.4 218.16 221.4 218.16 221.4 218.16 
C 221.4 218.16 221.4 218.16 221.4 218.16 
C 221.4 218.16 221.4 218.16 221.4 218.16 
C 221.4 218.16 221.4 218.16 221.4 218.16 
C 221.4 218.16 221.4 218.16 221.4 218.16 
C 221.4 218.16 221.4 218.16 221.4 218.16 
C 221.4 218.16 221.4 218.16 221.4 218.16 
C 221.4 218.16 221.4 218.16 221.4 218.16 
C 221.4 218.16 221.4 218.16 221.4 218.16 
C 221.4 218.16 221.4 218.16 221.4 218.16 
C 221.4 218.16 221.4 218.16 221.4 218.16 
C 221.4 218.16 221.4 218.16 221.4 218.16 
z
" style="fill: #eaeaf2"/>
   </g>
   <g id="matplotlib.axis_1">
    <g id="xtick_1">
     <g id="line2d_1">
      <path d="M 221.4 218.16 
L 221.4 51.84 
" clip-path="url(#p2f548f69a4)" style="fill: none; stroke: #ffffff; stroke-linecap: round"/>
     </g>
     <g id="text_1">
      <!-- 0° -->
      <g style="fill: #262626" transform="translate(216.142344 38.183672) scale(0.11 -0.11)">
       <defs>
        <path id="ArialMT-30" d="M 266 2259 
Q 266 3072 433 3567 
Q 600 4063 929 4331 
Q 1259 4600 1759 4600 
Q 2128 4600 2406 4451 
Q 2684 4303 2865 4023 
Q 3047 3744 3150 3342 
Q 3253 2941 3253 2259 
Q 3253 1453 3087 958 
Q 2922 463 2592 192 
Q 2263 -78 1759 -78 
Q 1097 -78 719 397 
Q 266 969 266 2259 
z
M 844 2259 
Q 844 1131 1108 757 
Q 1372 384 1759 384 
Q 2147 384 2411 759 
Q 2675 1134 2675 2259 
Q 2675 3391 2411 3762 
Q 2147 4134 1753 4134 
Q 1366 4134 1134 3806 
Q 844 3388 844 2259 
z
" transform="scale(0.015625)"/>
        <path id="ArialMT-b0" d="M 400 3794 
Q 400 4153 654 4406 
Q 909 4659 1266 4659 
Q 1628 4659 1881 4406 
Q 2134 4153 2134 3794 
Q 2134 3434 1879 3179 
Q 1625 2925 1266 2925 
Q 909 2925 654 3178 
Q 400 3431 400 3794 
z
M 741 3794 
Q 741 3575 895 3420 
Q 1050 3266 1269 3266 
Q 1484 3266 1639 3420 
Q 1794 3575 1794 3794 
Q 1794 4013 1639 4167 
Q 1484 4322 1269 4322 
Q 1050 4322 895 4167 
Q 741 4013 741 3794 
z
" transform="scale(0.015625)"/>
       </defs>
       <use xlink:href="#ArialMT-30"/>
       <use xlink:href="#ArialMT-b0" x="55.615234"/>
      </g>
     </g>
    </g>
    <g id="xtick_2">
     <g id="line2d_2">
      <path d="M 221.4 218.16 
L 339.006 100.554 
" clip-path="url(#p2f548f69a4)" style="fill: none; stroke: #ffffff; stroke-linecap: round"/>
     </g>
     <g id="text_2">
      <!-- 45° -->
      <g style="fill: #262626" transform="translate(342.35709 91.73041) scale(0.11 -0.11)">
       <defs>
        <path id="ArialMT-34" d="M 2069 0 
L 2069 1097 
L 81 1097 
L 81 1613 
L 2172 4581 
L 2631 4581 
L 2631 1613 
L 3250 1613 
L 3250 1097 
L 2631 1097 
L 2631 0 
L 2069 0 
z
M 2069 1613 
L 2069 3678 
L 634 1613 
L 2069 1613 
z
" transform="scale(0.015625)"/>
        <path id="ArialMT-35" d="M 266 1200 
L 856 1250 
Q 922 819 1161 601 
Q 1400 384 1738 384 
Q 2144 384 2425 690 
Q 2706 997 2706 1503 
Q 2706 1984 2436 2262 
Q 2166 2541 1728 2541 
Q 1456 2541 1237 2417 
Q 1019 2294 894 2097 
L 366 2166 
L 809 4519 
L 3088 4519 
L 3088 3981 
L 1259 3981 
L 1013 2750 
Q 1425 3038 1878 3038 
Q 2478 3038 2890 2622 
Q 3303 2206 3303 1553 
Q 3303 931 2941 478 
Q 2500 -78 1738 -78 
Q 1113 -78 717 272 
Q 322 622 266 1200 
z
" transform="scale(0.015625)"/>
       </defs>
       <use xlink:href="#ArialMT-34"/>
       <use xlink:href="#ArialMT-35" x="55.615234"/>
       <use xlink:href="#ArialMT-b0" x="111.230469"/>
      </g>
     </g>
    </g>
    <g id="xtick_3">
     <g id="line2d_3">
      <path d="M 221.4 218.16 
L 387.72 218.16 
" clip-path="url(#p2f548f69a4)" style="fill: none; stroke: #ffffff; stroke-linecap: round"/>
     </g>
     <g id="text_3">
      <!-- 90° -->
      <g style="fill: #262626" transform="translate(395.903828 221.003672) scale(0.11 -0.11)">
       <defs>
        <path id="ArialMT-39" d="M 350 1059 
L 891 1109 
Q 959 728 1153 556 
Q 1347 384 1650 384 
Q 1909 384 2104 503 
Q 2300 622 2425 820 
Q 2550 1019 2634 1356 
Q 2719 1694 2719 2044 
Q 2719 2081 2716 2156 
Q 2547 1888 2255 1720 
Q 1963 1553 1622 1553 
Q 1053 1553 659 1965 
Q 266 2378 266 3053 
Q 266 3750 677 4175 
Q 1088 4600 1706 4600 
Q 2153 4600 2523 4359 
Q 2894 4119 3086 3673 
Q 3278 3228 3278 2384 
Q 3278 1506 3087 986 
Q 2897 466 2520 194 
Q 2144 -78 1638 -78 
Q 1100 -78 759 220 
Q 419 519 350 1059 
z
M 2653 3081 
Q 2653 3566 2395 3850 
Q 2138 4134 1775 4134 
Q 1400 4134 1122 3828 
Q 844 3522 844 3034 
Q 844 2597 1108 2323 
Q 1372 2050 1759 2050 
Q 2150 2050 2401 2323 
Q 2653 2597 2653 3081 
z
" transform="scale(0.015625)"/>
       </defs>
       <use xlink:href="#ArialMT-39"/>
       <use xlink:href="#ArialMT-30" x="55.615234"/>
       <use xlink:href="#ArialMT-b0" x="111.230469"/>
      </g>
     </g>
    </g>
    <g id="xtick_4">
     <g id="line2d_4">
      <path d="M 221.4 218.16 
L 339.006 335.766 
" clip-path="url(#p2f548f69a4)" style="fill: none; stroke: #ffffff; stroke-linecap: round"/>
     </g>
     <g id="text_4">
      <!-- 135° -->
      <g style="fill: #262626" transform="translate(339.298574 350.276934) scale(0.11 -0.11)">
       <defs>
        <path id="ArialMT-31" d="M 2384 0 
L 1822 0 
L 1822 3584 
Q 1619 3391 1289 3197 
Q 959 3003 697 2906 
L 697 3450 
Q 1169 3672 1522 3987 
Q 1875 4303 2022 4600 
L 2384 4600 
L 2384 0 
z
" transform="scale(0.015625)"/>
        <path id="ArialMT-33" d="M 269 1209 
L 831 1284 
Q 928 806 1161 595 
Q 1394 384 1728 384 
Q 2125 384 2398 659 
Q 2672 934 2672 1341 
Q 2672 1728 2419 1979 
Q 2166 2231 1775 2231 
Q 1616 2231 1378 2169 
L 1441 2663 
Q 1497 2656 1531 2656 
Q 1891 2656 2178 2843 
Q 2466 3031 2466 3422 
Q 2466 3731 2256 3934 
Q 2047 4138 1716 4138 
Q 1388 4138 1169 3931 
Q 950 3725 888 3313 
L 325 3413 
Q 428 3978 793 4289 
Q 1159 4600 1703 4600 
Q 2078 4600 2393 4439 
Q 2709 4278 2876 4000 
Q 3044 3722 3044 3409 
Q 3044 3113 2884 2869 
Q 2725 2625 2413 2481 
Q 2819 2388 3044 2092 
Q 3269 1797 3269 1353 
Q 3269 753 2831 336 
Q 2394 -81 1725 -81 
Q 1122 -81 723 278 
Q 325 638 269 1209 
z
" transform="scale(0.015625)"/>
       </defs>
       <use xlink:href="#ArialMT-31"/>
       <use xlink:href="#ArialMT-33" x="55.615234"/>
       <use xlink:href="#ArialMT-35" x="111.230469"/>
       <use xlink:href="#ArialMT-b0" x="166.845703"/>
      </g>
     </g>
    </g>
    <g id="xtick_5">
     <g id="line2d_5">
      <path d="M 221.4 218.16 
L 221.4 384.48 
" clip-path="url(#p2f548f69a4)" style="fill: none; stroke: #ffffff; stroke-linecap: round"/>
     </g>
     <g id="text_5">
      <!-- 180° -->
      <g style="fill: #262626" transform="translate(210.025312 403.823672) scale(0.11 -0.11)">
       <defs>
        <path id="ArialMT-38" d="M 1131 2484 
Q 781 2613 612 2850 
Q 444 3088 444 3419 
Q 444 3919 803 4259 
Q 1163 4600 1759 4600 
Q 2359 4600 2725 4251 
Q 3091 3903 3091 3403 
Q 3091 3084 2923 2848 
Q 2756 2613 2416 2484 
Q 2838 2347 3058 2040 
Q 3278 1734 3278 1309 
Q 3278 722 2862 322 
Q 2447 -78 1769 -78 
Q 1091 -78 675 323 
Q 259 725 259 1325 
Q 259 1772 486 2073 
Q 713 2375 1131 2484 
z
M 1019 3438 
Q 1019 3113 1228 2906 
Q 1438 2700 1772 2700 
Q 2097 2700 2305 2904 
Q 2513 3109 2513 3406 
Q 2513 3716 2298 3927 
Q 2084 4138 1766 4138 
Q 1444 4138 1231 3931 
Q 1019 3725 1019 3438 
z
M 838 1322 
Q 838 1081 952 856 
Q 1066 631 1291 507 
Q 1516 384 1775 384 
Q 2178 384 2440 643 
Q 2703 903 2703 1303 
Q 2703 1709 2433 1975 
Q 2163 2241 1756 2241 
Q 1359 2241 1098 1978 
Q 838 1716 838 1322 
z
" transform="scale(0.015625)"/>
       </defs>
       <use xlink:href="#ArialMT-31"/>
       <use xlink:href="#ArialMT-38" x="55.615234"/>
       <use xlink:href="#ArialMT-30" x="111.230469"/>
       <use xlink:href="#ArialMT-b0" x="166.845703"/>
      </g>
     </g>
    </g>
    <g id="xtick_6">
     <g id="line2d_6">
      <path d="M 221.4 218.16 
L 103.794 335.766 
" clip-path="url(#p2f548f69a4)" style="fill: none; stroke: #ffffff; stroke-linecap: round"/>
     </g>
     <g id="text_6">
      <!-- 225° -->
      <g style="fill: #262626" transform="translate(80.752051 350.276934) scale(0.11 -0.11)">
       <defs>
        <path id="ArialMT-32" d="M 3222 541 
L 3222 0 
L 194 0 
Q 188 203 259 391 
Q 375 700 629 1000 
Q 884 1300 1366 1694 
Q 2113 2306 2375 2664 
Q 2638 3022 2638 3341 
Q 2638 3675 2398 3904 
Q 2159 4134 1775 4134 
Q 1369 4134 1125 3890 
Q 881 3647 878 3216 
L 300 3275 
Q 359 3922 746 4261 
Q 1134 4600 1788 4600 
Q 2447 4600 2831 4234 
Q 3216 3869 3216 3328 
Q 3216 3053 3103 2787 
Q 2991 2522 2730 2228 
Q 2469 1934 1863 1422 
Q 1356 997 1212 845 
Q 1069 694 975 541 
L 3222 541 
z
" transform="scale(0.015625)"/>
       </defs>
       <use xlink:href="#ArialMT-32"/>
       <use xlink:href="#ArialMT-32" x="55.615234"/>
       <use xlink:href="#ArialMT-35" x="111.230469"/>
       <use xlink:href="#ArialMT-b0" x="166.845703"/>
      </g>
     </g>
    </g>
    <g id="xtick_7">
     <g id="line2d_7">
      <path d="M 221.4 218.16 
L 55.08 218.16 
" clip-path="url(#p2f548f69a4)" style="fill: none; stroke: #ffffff; stroke-linecap: round"/>
     </g>
     <g id="text_7">
      <!-- 270° -->
      <g style="fill: #262626" transform="translate(27.205312 221.003672) scale(0.11 -0.11)">
       <defs>
        <path id="ArialMT-37" d="M 303 3981 
L 303 4522 
L 3269 4522 
L 3269 4084 
Q 2831 3619 2401 2847 
Q 1972 2075 1738 1259 
Q 1569 684 1522 0 
L 944 0 
Q 953 541 1156 1306 
Q 1359 2072 1739 2783 
Q 2119 3494 2547 3981 
L 303 3981 
z
" transform="scale(0.015625)"/>
       </defs>
       <use xlink:href="#ArialMT-32"/>
       <use xlink:href="#ArialMT-37" x="55.615234"/>
       <use xlink:href="#ArialMT-30" x="111.230469"/>
       <use xlink:href="#ArialMT-b0" x="166.845703"/>
      </g>
     </g>
    </g>
    <g id="xtick_8">
     <g id="line2d_8">
      <path d="M 221.4 218.16 
L 103.794 100.554 
" clip-path="url(#p2f548f69a4)" style="fill: none; stroke: #ffffff; stroke-linecap: round"/>
     </g>
     <g id="text_8">
      <!-- 315° -->
      <g style="fill: #262626" transform="translate(80.752051 91.73041) scale(0.11 -0.11)">
       <use xlink:href="#ArialMT-33"/>
       <use xlink:href="#ArialMT-31" x="55.615234"/>
       <use xlink:href="#ArialMT-35" x="111.230469"/>
       <use xlink:href="#ArialMT-b0" x="166.845703"/>
      </g>
     </g>
    </g>
   </g>
   <g id="matplotlib.axis_2">
    <g id="ytick_1">
     <g id="line2d_9">
      <path d="M 221.4 218.16 
C 221.4 218.16 221.4 218.16 221.4 218.16 
C 221.4 218.16 221.4 218.16 221.4 218.16 
C 221.4 218.16 221.4 218.16 221.4 218.16 
C 221.4 218.16 221.4 218.16 221.4 218.16 
C 221.4 218.16 221.4 218.16 221.4 218.16 
C 221.4 218.16 221.4 218.16 221.4 218.16 
C 221.4 218.16 221.4 218.16 221.4 218.16 
C 221.4 218.16 221.4 218.16 221.4 218.16 
C 221.4 218.16 221.4 218.16 221.4 218.16 
C 221.4 218.16 221.4 218.16 221.4 218.16 
C 221.4 218.16 221.4 218.16 221.4 218.16 
C 221.4 218.16 221.4 218.16 221.4 218.16 
C 221.4 218.16 221.4 218.16 221.4 218.16 
C 221.4 218.16 221.4 218.16 221.4 218.16 
C 221.4 218.16 221.4 218.16 221.4 218.16 
C 221.4 218.16 221.4 218.16 221.4 218.16 
" clip-path="url(#p2f548f69a4)" style="fill: none; stroke: #ffffff; stroke-linecap: round"/>
     </g>
     <g id="text_9">
      <!-- 0.0 -->
      <g style="fill: #dc143c" transform="translate(221.4 215.97375) scale(0.11 -0.11)">
       <defs>
        <path id="ArialMT-2e" d="M 581 0 
L 581 641 
L 1222 641 
L 1222 0 
L 581 0 
z
" transform="scale(0.015625)"/>
       </defs>
       <use xlink:href="#ArialMT-30"/>
       <use xlink:href="#ArialMT-2e" x="55.615234"/>
       <use xlink:href="#ArialMT-30" x="83.398438"/>
      </g>
     </g>
    </g>
    <g id="ytick_2">
     <g id="line2d_10">
      <path d="M 221.4 197.37 
C 224.130118 197.37 226.833689 197.907774 229.355989 198.952545 
C 231.878289 199.997315 234.170265 201.528765 236.10075 203.45925 
C 238.031235 205.389735 239.562685 207.681711 240.607455 210.204011 
C 241.652226 212.726311 242.19 215.429882 242.19 218.16 
C 242.19 220.890118 241.652226 223.593689 240.607455 226.115989 
C 239.562685 228.638289 238.031235 230.930265 236.10075 232.86075 
C 234.170265 234.791235 231.878289 236.322685 229.355989 237.367455 
C 226.833689 238.412226 224.130118 238.95 221.4 238.95 
C 218.669882 238.95 215.966311 238.412226 213.444011 237.367455 
C 210.921711 236.322685 208.629735 234.791235 206.69925 232.86075 
C 204.768765 230.930265 203.237315 228.638289 202.192545 226.115989 
C 201.147774 223.593689 200.61 220.890118 200.61 218.16 
C 200.61 215.429882 201.147774 212.726311 202.192545 210.204011 
C 203.237315 207.681711 204.768765 205.389735 206.69925 203.45925 
C 208.629735 201.528765 210.921711 199.997315 213.444011 198.952545 
C 215.966311 197.907774 218.669882 197.37 221.4 197.37 
" clip-path="url(#p2f548f69a4)" style="fill: none; stroke: #ffffff; stroke-linecap: round"/>
     </g>
     <g id="text_10">
      <!-- 0.1 -->
      <g style="fill: #dc143c" transform="translate(229.355989 196.766295) scale(0.11 -0.11)">
       <use xlink:href="#ArialMT-30"/>
       <use xlink:href="#ArialMT-2e" x="55.615234"/>
       <use xlink:href="#ArialMT-31" x="83.398438"/>
      </g>
     </g>
    </g>
    <g id="ytick_3">
     <g id="line2d_11">
      <path d="M 221.4 176.58 
C 226.860236 176.58 232.267377 177.655547 237.311977 179.745089 
C 242.356577 181.834631 246.94053 184.89753 250.8015 188.7585 
C 254.66247 192.61947 257.725369 197.203423 259.814911 202.248023 
C 261.904453 207.292623 262.98 212.699764 262.98 218.16 
C 262.98 223.620236 261.904453 229.027377 259.814911 234.071977 
C 257.725369 239.116577 254.66247 243.70053 250.8015 247.5615 
C 246.94053 251.42247 242.356577 254.485369 237.311977 256.574911 
C 232.267377 258.664453 226.860236 259.74 221.4 259.74 
C 215.939764 259.74 210.532623 258.664453 205.488023 256.574911 
C 200.443423 254.485369 195.85947 251.42247 191.9985 247.5615 
C 188.13753 243.70053 185.074631 239.116577 182.985089 234.071977 
C 180.895547 229.027377 179.82 223.620236 179.82 218.16 
C 179.82 212.699764 180.895547 207.292623 182.985089 202.248023 
C 185.074631 197.203423 188.13753 192.61947 191.9985 188.7585 
C 195.85947 184.89753 200.443423 181.834631 205.488023 179.745089 
C 210.532623 177.655547 215.939764 176.58 221.4 176.58 
" clip-path="url(#p2f548f69a4)" style="fill: none; stroke: #ffffff; stroke-linecap: round"/>
     </g>
     <g id="text_11">
      <!-- 0.2 -->
      <g style="fill: #dc143c" transform="translate(237.311977 177.558839) scale(0.11 -0.11)">
       <use xlink:href="#ArialMT-30"/>
       <use xlink:href="#ArialMT-2e" x="55.615234"/>
       <use xlink:href="#ArialMT-32" x="83.398438"/>
      </g>
     </g>
    </g>
    <g id="ytick_4">
     <g id="line2d_12">
      <path d="M 221.4 155.79 
C 229.590353 155.79 237.701066 157.403321 245.267966 160.537634 
C 252.834866 163.671946 259.710796 168.266296 265.50225 174.05775 
C 271.293704 179.849204 275.888054 186.725134 279.022366 194.292034 
C 282.156679 201.858934 283.77 209.969647 283.77 218.16 
C 283.77 226.350353 282.156679 234.461066 279.022366 242.027966 
C 275.888054 249.594866 271.293704 256.470796 265.50225 262.26225 
C 259.710796 268.053704 252.834866 272.648054 245.267966 275.782366 
C 237.701066 278.916679 229.590353 280.53 221.4 280.53 
C 213.209647 280.53 205.098934 278.916679 197.532034 275.782366 
C 189.965134 272.648054 183.089204 268.053704 177.29775 262.26225 
C 171.506296 256.470796 166.911946 249.594866 163.777634 242.027966 
C 160.643321 234.461066 159.03 226.350353 159.03 218.16 
C 159.03 209.969647 160.643321 201.858934 163.777634 194.292034 
C 166.911946 186.725134 171.506296 179.849204 177.29775 174.05775 
C 183.089204 168.266296 189.965134 163.671946 197.532034 160.537634 
C 205.098934 157.403321 213.209647 155.79 221.4 155.79 
" clip-path="url(#p2f548f69a4)" style="fill: none; stroke: #ffffff; stroke-linecap: round"/>
     </g>
     <g id="text_12">
      <!-- 0.3 -->
      <g style="fill: #dc143c" transform="translate(245.267966 158.351384) scale(0.11 -0.11)">
       <use xlink:href="#ArialMT-30"/>
       <use xlink:href="#ArialMT-2e" x="55.615234"/>
       <use xlink:href="#ArialMT-33" x="83.398438"/>
      </g>
     </g>
    </g>
    <g id="ytick_5">
     <g id="line2d_13">
      <path d="M 221.4 135 
C 232.320471 135 243.134754 137.151095 253.223954 141.330178 
C 263.313154 145.509261 272.481061 151.635061 280.203 159.357 
C 287.924939 167.078939 294.050739 176.246846 298.229822 186.336046 
C 302.408905 196.425246 304.56 207.239529 304.56 218.16 
C 304.56 229.080471 302.408905 239.894754 298.229822 249.983954 
C 294.050739 260.073154 287.924939 269.241061 280.203 276.963 
C 272.481061 284.684939 263.313154 290.810739 253.223954 294.989822 
C 243.134754 299.168905 232.320471 301.32 221.4 301.32 
C 210.479529 301.32 199.665246 299.168905 189.576046 294.989822 
C 179.486846 290.810739 170.318939 284.684939 162.597 276.963 
C 154.875061 269.241061 148.749261 260.073154 144.570178 249.983954 
C 140.391095 239.894754 138.24 229.080471 138.24 218.16 
C 138.24 207.239529 140.391095 196.425246 144.570178 186.336046 
C 148.749261 176.246846 154.875061 167.078939 162.597 159.357 
C 170.318939 151.635061 179.486846 145.509261 189.576046 141.330178 
C 199.665246 137.151095 210.479529 135 221.4 135 
" clip-path="url(#p2f548f69a4)" style="fill: none; stroke: #ffffff; stroke-linecap: round"/>
     </g>
     <g id="text_13">
      <!-- 0.4 -->
      <g style="fill: #dc143c" transform="translate(253.223954 139.143928) scale(0.11 -0.11)">
       <use xlink:href="#ArialMT-30"/>
       <use xlink:href="#ArialMT-2e" x="55.615234"/>
       <use xlink:href="#ArialMT-34" x="83.398438"/>
      </g>
     </g>
    </g>
    <g id="ytick_6">
     <g id="line2d_14">
      <path d="M 221.4 114.21 
C 235.050589 114.21 248.568443 116.898868 261.179943 122.122723 
C 273.791443 127.346577 285.251326 135.003826 294.90375 144.65625 
C 304.556174 154.308674 312.213423 165.768557 317.437277 178.380057 
C 322.661132 190.991557 325.35 204.509411 325.35 218.16 
C 325.35 231.810589 322.661132 245.328443 317.437277 257.939943 
C 312.213423 270.551443 304.556174 282.011326 294.90375 291.66375 
C 285.251326 301.316174 273.791443 308.973423 261.179943 314.197277 
C 248.568443 319.421132 235.050589 322.11 221.4 322.11 
C 207.749411 322.11 194.231557 319.421132 181.620057 314.197277 
C 169.008557 308.973423 157.548674 301.316174 147.89625 291.66375 
C 138.243826 282.011326 130.586577 270.551443 125.362723 257.939943 
C 120.138868 245.328443 117.45 231.810589 117.45 218.16 
C 117.45 204.509411 120.138868 190.991557 125.362723 178.380057 
C 130.586577 165.768557 138.243826 154.308674 147.89625 144.65625 
C 157.548674 135.003826 169.008557 127.346577 181.620057 122.122723 
C 194.231557 116.898868 207.749411 114.21 221.4 114.21 
" clip-path="url(#p2f548f69a4)" style="fill: none; stroke: #ffffff; stroke-linecap: round"/>
     </g>
     <g id="text_14">
      <!-- 0.5 -->
      <g style="fill: #dc143c" transform="translate(261.179943 119.936473) scale(0.11 -0.11)">
       <use xlink:href="#ArialMT-30"/>
       <use xlink:href="#ArialMT-2e" x="55.615234"/>
       <use xlink:href="#ArialMT-35" x="83.398438"/>
      </g>
     </g>
    </g>
    <g id="ytick_7">
     <g id="line2d_15">
      <path d="M 221.4 93.42 
C 237.780707 93.42 254.002132 96.646642 269.135931 102.915267 
C 284.269731 109.183892 298.021591 118.372591 309.6045 129.9555 
C 321.187409 141.538409 330.376108 155.290269 336.644733 170.424069 
C 342.913358 185.557868 346.14 201.779293 346.14 218.16 
C 346.14 234.540707 342.913358 250.762132 336.644733 265.895931 
C 330.376108 281.029731 321.187409 294.781591 309.6045 306.3645 
C 298.021591 317.947409 284.269731 327.136108 269.135931 333.404733 
C 254.002132 339.673358 237.780707 342.9 221.4 342.9 
C 205.019293 342.9 188.797868 339.673358 173.664069 333.404733 
C 158.530269 327.136108 144.778409 317.947409 133.1955 306.3645 
C 121.612591 294.781591 112.423892 281.029731 106.155267 265.895931 
C 99.886642 250.762132 96.66 234.540707 96.66 218.16 
C 96.66 201.779293 99.886642 185.557868 106.155267 170.424069 
C 112.423892 155.290269 121.612591 141.538409 133.1955 129.9555 
C 144.778409 118.372591 158.530269 109.183892 173.664069 102.915267 
C 188.797868 96.646642 205.019293 93.42 221.4 93.42 
" clip-path="url(#p2f548f69a4)" style="fill: none; stroke: #ffffff; stroke-linecap: round"/>
     </g>
     <g id="text_15">
      <!-- 0.6 -->
      <g style="fill: #dc143c" transform="translate(269.135931 100.729017) scale(0.11 -0.11)">
       <defs>
        <path id="ArialMT-36" d="M 3184 3459 
L 2625 3416 
Q 2550 3747 2413 3897 
Q 2184 4138 1850 4138 
Q 1581 4138 1378 3988 
Q 1113 3794 959 3422 
Q 806 3050 800 2363 
Q 1003 2672 1297 2822 
Q 1591 2972 1913 2972 
Q 2475 2972 2870 2558 
Q 3266 2144 3266 1488 
Q 3266 1056 3080 686 
Q 2894 316 2569 119 
Q 2244 -78 1831 -78 
Q 1128 -78 684 439 
Q 241 956 241 2144 
Q 241 3472 731 4075 
Q 1159 4600 1884 4600 
Q 2425 4600 2770 4297 
Q 3116 3994 3184 3459 
z
M 888 1484 
Q 888 1194 1011 928 
Q 1134 663 1356 523 
Q 1578 384 1822 384 
Q 2178 384 2434 671 
Q 2691 959 2691 1453 
Q 2691 1928 2437 2201 
Q 2184 2475 1800 2475 
Q 1419 2475 1153 2201 
Q 888 1928 888 1484 
z
" transform="scale(0.015625)"/>
       </defs>
       <use xlink:href="#ArialMT-30"/>
       <use xlink:href="#ArialMT-2e" x="55.615234"/>
       <use xlink:href="#ArialMT-36" x="83.398438"/>
      </g>
     </g>
    </g>
    <g id="ytick_8">
     <g id="line2d_16">
      <path d="M 221.4 72.63 
C 240.510824 72.63 259.43582 76.394416 277.09192 83.707812 
C 294.74802 91.021208 310.791856 101.741357 324.30525 115.25475 
C 337.818643 128.768144 348.538792 144.81198 355.852188 162.46808 
C 363.165584 180.12418 366.93 199.049176 366.93 218.16 
C 366.93 237.270824 363.165584 256.19582 355.852188 273.85192 
C 348.538792 291.50802 337.818643 307.551856 324.30525 321.06525 
C 310.791856 334.578643 294.74802 345.298792 277.09192 352.612188 
C 259.43582 359.925584 240.510824 363.69 221.4 363.69 
C 202.289176 363.69 183.36418 359.925584 165.70808 352.612188 
C 148.05198 345.298792 132.008144 334.578643 118.49475 321.06525 
C 104.981357 307.551856 94.261208 291.50802 86.947812 273.85192 
C 79.634416 256.19582 75.87 237.270824 75.87 218.16 
C 75.87 199.049176 79.634416 180.12418 86.947812 162.46808 
C 94.261208 144.81198 104.981357 128.768144 118.49475 115.25475 
C 132.008144 101.741357 148.05198 91.021208 165.70808 83.707812 
C 183.36418 76.394416 202.289176 72.63 221.4 72.63 
" clip-path="url(#p2f548f69a4)" style="fill: none; stroke: #ffffff; stroke-linecap: round"/>
     </g>
     <g id="text_16">
      <!-- 0.7 -->
      <g style="fill: #dc143c" transform="translate(277.09192 81.521562) scale(0.11 -0.11)">
       <use xlink:href="#ArialMT-30"/>
       <use xlink:href="#ArialMT-2e" x="55.615234"/>
       <use xlink:href="#ArialMT-37" x="83.398438"/>
      </g>
     </g>
    </g>
    <g id="ytick_9">
     <g id="line2d_17">
      <path d="M 221.4 51.84 
C 243.240942 51.84 264.869509 56.142189 285.047908 64.500356 
C 305.226308 72.858523 323.562121 85.110122 339.006 100.554 
C 354.449878 115.997879 366.701477 134.333692 375.059644 154.512092 
C 383.417811 174.690491 387.72 196.319058 387.72 218.16 
C 387.72 240.000942 383.417811 261.629509 375.059644 281.807908 
C 366.701477 301.986308 354.449878 320.322121 339.006 335.766 
C 323.562121 351.209878 305.226308 363.461477 285.047908 371.819644 
C 264.869509 380.177811 243.240942 384.48 221.4 384.48 
C 199.559058 384.48 177.930491 380.177811 157.752092 371.819644 
C 137.573692 363.461477 119.237879 351.209878 103.794 335.766 
C 88.350122 320.322121 76.098523 301.986308 67.740356 281.807908 
C 59.382189 261.629509 55.08 240.000942 55.08 218.16 
C 55.08 196.319058 59.382189 174.690491 67.740356 154.512092 
C 76.098523 134.333692 88.350122 115.997879 103.794 100.554 
C 119.237879 85.110122 137.573692 72.858523 157.752092 64.500356 
C 177.930491 56.142189 199.559058 51.84 221.4 51.84 
" clip-path="url(#p2f548f69a4)" style="fill: none; stroke: #ffffff; stroke-linecap: round"/>
     </g>
     <g id="text_17">
      <!-- 0.8 -->
      <g style="fill: #dc143c" transform="translate(285.047908 62.314106) scale(0.11 -0.11)">
       <use xlink:href="#ArialMT-30"/>
       <use xlink:href="#ArialMT-2e" x="55.615234"/>
       <use xlink:href="#ArialMT-38" x="83.398438"/>
      </g>
     </g>
    </g>
   </g>
   <g id="line2d_18">
    <defs>
     <path id="md07053678e" d="M 0 0.5 
C 0.132602 0.5 0.25979 0.447317 0.353553 0.353553 
C 0.447317 0.25979 0.5 0.132602 0.5 0 
C 0.5 -0.132602 0.447317 -0.25979 0.353553 -0.353553 
C 0.25979 -0.447317 0.132602 -0.5 0 -0.5 
C -0.132602 -0.5 -0.25979 -0.447317 -0.353553 -0.353553 
C -0.447317 -0.25979 -0.5 -0.132602 -0.5 0 
C -0.5 0.132602 -0.447317 0.25979 -0.353553 0.353553 
C -0.25979 0.447317 -0.132602 0.5 0 0.5 
z
" style="stroke: #000000"/>
    </defs>
    <g clip-path="url(#p2f548f69a4)">
     <use xlink:href="#md07053678e" x="216.321076" y="363.601347" style="stroke: #000000"/>
     <use xlink:href="#md07053678e" x="211.24834" y="363.335496" style="stroke: #000000"/>
     <use xlink:href="#md07053678e" x="206.187973" y="362.892771" style="stroke: #000000"/>
     <use xlink:href="#md07053678e" x="200.856798" y="364.332479" style="stroke: #000000"/>
     <use xlink:href="#md07053678e" x="195.767966" y="363.526488" style="stroke: #000000"/>
     <use xlink:href="#md07053678e" x="190.710363" y="362.543389" style="stroke: #000000"/>
     <use xlink:href="#md07053678e" x="185.690151" y="361.384382" style="stroke: #000000"/>
     <use xlink:href="#md07053678e" x="180.713446" y="360.050878" style="stroke: #000000"/>
     <use xlink:href="#md07053678e" x="175.78631" y="358.544501" style="stroke: #000000"/>
     <use xlink:href="#md07053678e" x="170.914749" y="356.867088" style="stroke: #000000"/>
     <use xlink:href="#md07053678e" x="166.104695" y="355.020682" style="stroke: #000000"/>
     <use xlink:href="#md07053678e" x="162.207616" y="351.10827" style="stroke: #000000"/>
     <use xlink:href="#md07053678e" x="157.603847" y="348.961498" style="stroke: #000000"/>
     <use xlink:href="#md07053678e" x="154.053835" y="344.819715" style="stroke: #000000"/>
     <use xlink:href="#md07053678e" x="149.6745" y="342.39221" style="stroke: #000000"/>
     <use xlink:href="#md07053678e" x="146.484254" y="338.050255" style="stroke: #000000"/>
     <use xlink:href="#md07053678e" x="142.345781" y="335.3627" style="stroke: #000000"/>
     <use xlink:href="#md07053678e" x="138.303623" y="332.532351" style="stroke: #000000"/>
     <use xlink:href="#md07053678e" x="134.362706" y="329.562656" style="stroke: #000000"/>
     <use xlink:href="#md07053678e" x="130.52783" y="326.457235" style="stroke: #000000"/>
     <use xlink:href="#md07053678e" x="126.803668" y="323.21987" style="stroke: #000000"/>
     <use xlink:href="#md07053678e" x="123.194757" y="319.854506" style="stroke: #000000"/>
     <use xlink:href="#md07053678e" x="119.705494" y="316.365243" style="stroke: #000000"/>
     <use xlink:href="#md07053678e" x="114.795132" y="314.147455" style="stroke: #000000"/>
     <use xlink:href="#md07053678e" x="111.510159" y="310.368525" style="stroke: #000000"/>
     <use xlink:href="#md07053678e" x="108.359069" y="306.477254" style="stroke: #000000"/>
     <use xlink:href="#md07053678e" x="103.663757" y="303.700388" style="stroke: #000000"/>
     <use xlink:href="#md07053678e" x="100.750162" y="299.539343" style="stroke: #000000"/>
     <use xlink:href="#md07053678e" x="97.983561" y="295.279151" style="stroke: #000000"/>
     <use xlink:href="#md07053678e" x="95.367323" y="290.925" style="stroke: #000000"/>
     <use xlink:href="#md07053678e" x="92.904637" y="286.482197" style="stroke: #000000"/>
     <use xlink:href="#md07053678e" x="90.598502" y="281.956153" style="stroke: #000000"/>
     <use xlink:href="#md07053678e" x="88.45173" y="277.352384" style="stroke: #000000"/>
     <use xlink:href="#md07053678e" x="86.466934" y="272.676498" style="stroke: #000000"/>
     <use xlink:href="#md07053678e" x="84.646533" y="267.934191" style="stroke: #000000"/>
     <use xlink:href="#md07053678e" x="82.992745" y="263.131243" style="stroke: #000000"/>
     <use xlink:href="#md07053678e" x="81.507585" y="258.273504" style="stroke: #000000"/>
     <use xlink:href="#md07053678e" x="80.192863" y="253.366893" style="stroke: #000000"/>
     <use xlink:href="#md07053678e" x="79.05018" y="248.417388" style="stroke: #000000"/>
     <use xlink:href="#md07053678e" x="78.080928" y="243.431019" style="stroke: #000000"/>
     <use xlink:href="#md07053678e" x="78.080928" y="243.431019" style="stroke: #000000"/>
     <use xlink:href="#md07053678e" x="77.286288" y="238.413861" style="stroke: #000000"/>
     <use xlink:href="#md07053678e" x="76.667229" y="233.372027" style="stroke: #000000"/>
     <use xlink:href="#md07053678e" x="76.224504" y="228.31166" style="stroke: #000000"/>
     <use xlink:href="#md07053678e" x="75.958653" y="223.238924" style="stroke: #000000"/>
     <use xlink:href="#md07053678e" x="75.87" y="218.16" style="stroke: #000000"/>
     <use xlink:href="#md07053678e" x="73.880919" y="213.00852" style="stroke: #000000"/>
     <use xlink:href="#md07053678e" x="76.224504" y="208.00834" style="stroke: #000000"/>
     <use xlink:href="#md07053678e" x="76.667229" y="202.947973" style="stroke: #000000"/>
     <use xlink:href="#md07053678e" x="75.227521" y="197.616798" style="stroke: #000000"/>
     <use xlink:href="#md07053678e" x="76.033512" y="192.527966" style="stroke: #000000"/>
     <use xlink:href="#md07053678e" x="77.016611" y="187.470363" style="stroke: #000000"/>
     <use xlink:href="#md07053678e" x="78.175618" y="182.450151" style="stroke: #000000"/>
     <use xlink:href="#md07053678e" x="79.509122" y="177.473446" style="stroke: #000000"/>
     <use xlink:href="#md07053678e" x="81.015499" y="172.54631" style="stroke: #000000"/>
     <use xlink:href="#md07053678e" x="82.692912" y="167.674749" style="stroke: #000000"/>
     <use xlink:href="#md07053678e" x="84.539318" y="162.864695" style="stroke: #000000"/>
     <use xlink:href="#md07053678e" x="86.552469" y="158.122011" style="stroke: #000000"/>
     <use xlink:href="#md07053678e" x="88.72991" y="153.452473" style="stroke: #000000"/>
     <use xlink:href="#md07053678e" x="91.068989" y="148.861772" style="stroke: #000000"/>
     <use xlink:href="#md07053678e" x="95.367323" y="145.395" style="stroke: #000000"/>
     <use xlink:href="#md07053678e" x="97.983561" y="141.040849" style="stroke: #000000"/>
     <use xlink:href="#md07053678e" x="102.473731" y="137.943219" style="stroke: #000000"/>
     <use xlink:href="#md07053678e" x="105.345703" y="133.841618" style="stroke: #000000"/>
     <use xlink:href="#md07053678e" x="109.997344" y="131.122706" style="stroke: #000000"/>
     <use xlink:href="#md07053678e" x="113.102765" y="127.28783" style="stroke: #000000"/>
     <use xlink:href="#md07053678e" x="116.34013" y="123.563668" style="stroke: #000000"/>
     <use xlink:href="#md07053678e" x="119.705494" y="119.954757" style="stroke: #000000"/>
     <use xlink:href="#md07053678e" x="123.194757" y="116.465494" style="stroke: #000000"/>
     <use xlink:href="#md07053678e" x="126.803668" y="113.10013" style="stroke: #000000"/>
     <use xlink:href="#md07053678e" x="129.191475" y="108.270159" style="stroke: #000000"/>
     <use xlink:href="#md07053678e" x="133.082746" y="105.119069" style="stroke: #000000"/>
     <use xlink:href="#md07053678e" x="135.859612" y="100.423757" style="stroke: #000000"/>
     <use xlink:href="#md07053678e" x="138.858095" y="95.786593" style="stroke: #000000"/>
     <use xlink:href="#md07053678e" x="143.179147" y="92.980469" style="stroke: #000000"/>
     <use xlink:href="#md07053678e" x="146.556" y="88.526389" style="stroke: #000000"/>
     <use xlink:href="#md07053678e" x="150.149709" y="84.157693" style="stroke: #000000"/>
     <use xlink:href="#md07053678e" x="154.869726" y="81.752724" style="stroke: #000000"/>
     <use xlink:href="#md07053678e" x="159.6708" y="79.513947" style="stroke: #000000"/>
     <use xlink:href="#md07053678e" x="164.547081" y="77.444088" style="stroke: #000000"/>
     <use xlink:href="#md07053678e" x="169.492629" y="75.54567" style="stroke: #000000"/>
     <use xlink:href="#md07053678e" x="174.501418" y="73.821006" style="stroke: #000000"/>
     <use xlink:href="#md07053678e" x="179.567345" y="72.272196" style="stroke: #000000"/>
     <use xlink:href="#md07053678e" x="184.68424" y="70.901129" style="stroke: #000000"/>
     <use xlink:href="#md07053678e" x="189.845866" y="69.709473" style="stroke: #000000"/>
     <use xlink:href="#md07053678e" x="195.045937" y="68.698682" style="stroke: #000000"/>
     <use xlink:href="#md07053678e" x="200.567457" y="69.928753" style="stroke: #000000"/>
     <use xlink:href="#md07053678e" x="205.753343" y="69.292007" style="stroke: #000000"/>
     <use xlink:href="#md07053678e" x="210.958293" y="68.836632" style="stroke: #000000"/>
     <use xlink:href="#md07053678e" x="216.175964" y="68.563186" style="stroke: #000000"/>
     <use xlink:href="#md07053678e" x="221.4" y="68.472" style="stroke: #000000"/>
     <use xlink:href="#md07053678e" x="226.624036" y="68.563186" style="stroke: #000000"/>
     <use xlink:href="#md07053678e" x="231.841707" y="68.836632" style="stroke: #000000"/>
     <use xlink:href="#md07053678e" x="237.046657" y="69.292007" style="stroke: #000000"/>
     <use xlink:href="#md07053678e" x="242.232543" y="69.928753" style="stroke: #000000"/>
     <use xlink:href="#md07053678e" x="247.754063" y="68.698682" style="stroke: #000000"/>
     <use xlink:href="#md07053678e" x="252.954134" y="69.709473" style="stroke: #000000"/>
     <use xlink:href="#md07053678e" x="258.11576" y="70.901129" style="stroke: #000000"/>
     <use xlink:href="#md07053678e" x="263.805705" y="70.273733" style="stroke: #000000"/>
     <use xlink:href="#md07053678e" x="268.941029" y="71.843759" style="stroke: #000000"/>
     <use xlink:href="#md07053678e" x="274.018431" y="73.592049" style="stroke: #000000"/>
     <use xlink:href="#md07053678e" x="279.031726" y="75.516473" style="stroke: #000000"/>
     <use xlink:href="#md07053678e" x="283.974806" y="77.614686" style="stroke: #000000"/>
     <use xlink:href="#md07053678e" x="288.841647" y="79.884131" style="stroke: #000000"/>
     <use xlink:href="#md07053678e" x="293.626322" y="82.322045" style="stroke: #000000"/>
     <use xlink:href="#md07053678e" x="298.323" y="84.925456" style="stroke: #000000"/>
     <use xlink:href="#md07053678e" x="302.925959" y="87.691193" style="stroke: #000000"/>
     <use xlink:href="#md07053678e" x="307.429591" y="90.615886" style="stroke: #000000"/>
     <use xlink:href="#md07053678e" x="311.82841" y="93.695971" style="stroke: #000000"/>
     <use xlink:href="#md07053678e" x="316.117055" y="96.927698" style="stroke: #000000"/>
     <use xlink:href="#md07053678e" x="316.117055" y="96.927698" style="stroke: #000000"/>
     <use xlink:href="#md07053678e" x="320.290303" y="100.307127" style="stroke: #000000"/>
     <use xlink:href="#md07053678e" x="324.343067" y="103.830141" style="stroke: #000000"/>
     <use xlink:href="#md07053678e" x="328.270412" y="107.492449" style="stroke: #000000"/>
     <use xlink:href="#md07053678e" x="332.067551" y="111.289588" style="stroke: #000000"/>
     <use xlink:href="#md07053678e" x="335.729859" y="115.216933" style="stroke: #000000"/>
     <use xlink:href="#md07053678e" x="339.252873" y="119.269697" style="stroke: #000000"/>
     <use xlink:href="#md07053678e" x="342.632302" y="123.442945" style="stroke: #000000"/>
     <use xlink:href="#md07053678e" x="345.864029" y="127.73159" style="stroke: #000000"/>
     <use xlink:href="#md07053678e" x="348.944114" y="132.130409" style="stroke: #000000"/>
     <use xlink:href="#md07053678e" x="351.868807" y="136.634041" style="stroke: #000000"/>
     <use xlink:href="#md07053678e" x="354.634544" y="141.237" style="stroke: #000000"/>
     <use xlink:href="#md07053678e" x="357.237955" y="145.933678" style="stroke: #000000"/>
     <use xlink:href="#md07053678e" x="359.675869" y="150.718353" style="stroke: #000000"/>
     <use xlink:href="#md07053678e" x="361.945314" y="155.585194" style="stroke: #000000"/>
     <use xlink:href="#md07053678e" x="364.043527" y="160.528274" style="stroke: #000000"/>
     <use xlink:href="#md07053678e" x="365.967951" y="165.541569" style="stroke: #000000"/>
     <use xlink:href="#md07053678e" x="365.738994" y="171.261418" style="stroke: #000000"/>
     <use xlink:href="#md07053678e" x="367.287804" y="176.327345" style="stroke: #000000"/>
     <use xlink:href="#md07053678e" x="368.658871" y="181.44424" style="stroke: #000000"/>
     <use xlink:href="#md07053678e" x="367.816958" y="187.038115" style="stroke: #000000"/>
     <use xlink:href="#md07053678e" x="368.813903" y="192.166952" style="stroke: #000000"/>
     <use xlink:href="#md07053678e" x="369.631247" y="197.327457" style="stroke: #000000"/>
     <use xlink:href="#md07053678e" x="370.267993" y="202.513343" style="stroke: #000000"/>
     <use xlink:href="#md07053678e" x="370.723368" y="207.718293" style="stroke: #000000"/>
     <use xlink:href="#md07053678e" x="370.996814" y="212.935964" style="stroke: #000000"/>
     <use xlink:href="#md07053678e" x="371.088" y="218.16" style="stroke: #000000"/>
     <use xlink:href="#md07053678e" x="373.074548" y="223.456592" style="stroke: #000000"/>
     <use xlink:href="#md07053678e" x="372.797303" y="228.746731" style="stroke: #000000"/>
     <use xlink:href="#md07053678e" x="372.335604" y="234.023971" style="stroke: #000000"/>
     <use xlink:href="#md07053678e" x="373.748781" y="239.571225" style="stroke: #000000"/>
     <use xlink:href="#md07053678e" x="372.908734" y="244.875078" style="stroke: #000000"/>
     <use xlink:href="#md07053678e" x="373.917665" y="250.57863" style="stroke: #000000"/>
     <use xlink:href="#md07053678e" x="372.693361" y="255.881672" style="stroke: #000000"/>
     <use xlink:href="#md07053678e" x="371.28473" y="261.138755" style="stroke: #000000"/>
     <use xlink:href="#md07053678e" x="369.693487" y="266.343475" style="stroke: #000000"/>
     <use xlink:href="#md07053678e" x="367.921572" y="271.489491" style="stroke: #000000"/>
     <use xlink:href="#md07053678e" x="365.971143" y="276.570533" style="stroke: #000000"/>
     <use xlink:href="#md07053678e" x="361.945314" y="280.734806" style="stroke: #000000"/>
     <use xlink:href="#md07053678e" x="359.675869" y="285.601647" style="stroke: #000000"/>
     <use xlink:href="#md07053678e" x="355.402307" y="289.410291" style="stroke: #000000"/>
     <use xlink:href="#md07053678e" x="352.834077" y="294.0435" style="stroke: #000000"/>
     <use xlink:href="#md07053678e" x="348.342623" y="297.482555" style="stroke: #000000"/>
     <use xlink:href="#md07053678e" x="345.496976" y="301.864467" style="stroke: #000000"/>
     <use xlink:href="#md07053678e" x="342.500136" y="306.144399" style="stroke: #000000"/>
     <use xlink:href="#md07053678e" x="339.355754" y="310.317135" style="stroke: #000000"/>
     <use xlink:href="#md07053678e" x="334.475054" y="313.041236" style="stroke: #000000"/>
     <use xlink:href="#md07053678e" x="331.094865" y="316.9297" style="stroke: #000000"/>
     <use xlink:href="#md07053678e" x="329.076536" y="322.142022" style="stroke: #000000"/>
     <use xlink:href="#md07053678e" x="325.382022" y="325.836536" style="stroke: #000000"/>
     <use xlink:href="#md07053678e" x="321.560822" y="329.399863" style="stroke: #000000"/>
     <use xlink:href="#md07053678e" x="317.617592" y="332.827661" style="stroke: #000000"/>
     <use xlink:href="#md07053678e" x="314.837095" y="337.754028" style="stroke: #000000"/>
     <use xlink:href="#md07053678e" x="310.606404" y="340.942082" style="stroke: #000000"/>
     <use xlink:href="#md07053678e" x="306.267029" y="343.980545" style="stroke: #000000"/>
     <use xlink:href="#md07053678e" x="301.824257" y="346.865715" style="stroke: #000000"/>
     <use xlink:href="#md07053678e" x="297.2835" y="349.594077" style="stroke: #000000"/>
     <use xlink:href="#md07053678e" x="292.650291" y="352.162307" style="stroke: #000000"/>
     <use xlink:href="#md07053678e" x="287.930274" y="354.567276" style="stroke: #000000"/>
     <use xlink:href="#md07053678e" x="282.283595" y="354.906792" style="stroke: #000000"/>
     <use xlink:href="#md07053678e" x="277.474112" y="356.948297" style="stroke: #000000"/>
     <use xlink:href="#md07053678e" x="271.885251" y="356.867088" style="stroke: #000000"/>
     <use xlink:href="#md07053678e" x="267.01369" y="358.544501" style="stroke: #000000"/>
     <use xlink:href="#md07053678e" x="261.513504" y="358.052415" style="stroke: #000000"/>
     <use xlink:href="#md07053678e" x="256.606893" y="359.367137" style="stroke: #000000"/>
     <use xlink:href="#md07053678e" x="251.22514" y="358.476251" style="stroke: #000000"/>
     <use xlink:href="#md07053678e" x="246.310005" y="359.431657" style="stroke: #000000"/>
     <use xlink:href="#md07053678e" x="241.364521" y="360.214945" style="stroke: #000000"/>
     <use xlink:href="#md07053678e" x="236.394713" y="360.82516" style="stroke: #000000"/>
     <use xlink:href="#md07053678e" x="231.406636" y="361.261561" style="stroke: #000000"/>
     <use xlink:href="#md07053678e" x="226.406368" y="361.523614" style="stroke: #000000"/>
     <use xlink:href="#md07053678e" x="217.844753" y="319.968943" style="stroke: #000000"/>
     <use xlink:href="#md07053678e" x="214.293838" y="319.782847" style="stroke: #000000"/>
     <use xlink:href="#md07053678e" x="199.78758" y="319.838443" style="stroke: #000000"/>
     <use xlink:href="#md07053678e" x="196.252219" y="319.022241" style="stroke: #000000"/>
     <use xlink:href="#md07053678e" x="192.747497" y="318.083153" style="stroke: #000000"/>
     <use xlink:href="#md07053678e" x="189.277683" y="317.022325" style="stroke: #000000"/>
     <use xlink:href="#md07053678e" x="186.558066" y="313.887427" style="stroke: #000000"/>
     <use xlink:href="#md07053678e" x="183.238452" y="312.613146" style="stroke: #000000"/>
     <use xlink:href="#md07053678e" x="180.810937" y="309.324528" style="stroke: #000000"/>
     <use xlink:href="#md07053678e" x="177.654067" y="307.852455" style="stroke: #000000"/>
     <use xlink:href="#md07053678e" x="174.550494" y="306.271106" style="stroke: #000000"/>
     <use xlink:href="#md07053678e" x="171.504" y="304.582407" style="stroke: #000000"/>
     <use xlink:href="#md07053678e" x="169.619999" y="301.025324" style="stroke: #000000"/>
     <use xlink:href="#md07053678e" x="169.619999" y="301.025324" style="stroke: #000000"/>
     <use xlink:href="#md07053678e" x="167.922146" y="297.444179" style="stroke: #000000"/>
     <use xlink:href="#md07053678e" x="165.187745" y="295.529531" style="stroke: #000000"/>
     <use xlink:href="#md07053678e" x="162.52183" y="293.52062" style="stroke: #000000"/>
     <use xlink:href="#md07053678e" x="162.52183" y="293.52062" style="stroke: #000000"/>
     <use xlink:href="#md07053678e" x="161.264005" y="289.827288" style="stroke: #000000"/>
     <use xlink:href="#md07053678e" x="159.92765" y="291.419894" style="stroke: #000000"/>
     <use xlink:href="#md07053678e" x="157.408364" y="289.229912" style="stroke: #000000"/>
     <use xlink:href="#md07053678e" x="154.967041" y="286.953342" style="stroke: #000000"/>
     <use xlink:href="#md07053678e" x="152.606658" y="284.592959" style="stroke: #000000"/>
     <use xlink:href="#md07053678e" x="150.330088" y="282.151636" style="stroke: #000000"/>
     <use xlink:href="#md07053678e" x="142.115821" y="271.637854" style="stroke: #000000"/>
     <use xlink:href="#md07053678e" x="138.534676" y="269.940001" style="stroke: #000000"/>
     <use xlink:href="#md07053678e" x="136.77806" y="267.0165" style="stroke: #000000"/>
     <use xlink:href="#md07053678e" x="135.124542" y="264.033475" style="stroke: #000000"/>
     <use xlink:href="#md07053678e" x="133.576137" y="260.99456" style="stroke: #000000"/>
     <use xlink:href="#md07053678e" x="132.134733" y="257.903458" style="stroke: #000000"/>
     <use xlink:href="#md07053678e" x="132.729699" y="253.985127" style="stroke: #000000"/>
     <use xlink:href="#md07053678e" x="131.533436" y="250.868754" style="stroke: #000000"/>
     <use xlink:href="#md07053678e" x="132.423908" y="247.070085" style="stroke: #000000"/>
     <use xlink:href="#md07053678e" x="131.469162" y="243.947253" style="stroke: #000000"/>
     <use xlink:href="#md07053678e" x="130.623983" y="240.793003" style="stroke: #000000"/>
     <use xlink:href="#md07053678e" x="131.92297" y="237.17893" style="stroke: #000000"/>
     <use xlink:href="#md07053678e" x="131.313726" y="234.044641" style="stroke: #000000"/>
     <use xlink:href="#md07053678e" x="133.361141" y="233.683626" style="stroke: #000000"/>
     <use xlink:href="#md07053678e" x="132.873005" y="230.601658" style="stroke: #000000"/>
     <use xlink:href="#md07053678e" x="130.814238" y="230.890999" style="stroke: #000000"/>
     <use xlink:href="#md07053678e" x="130.425115" y="227.721846" style="stroke: #000000"/>
     <use xlink:href="#md07053678e" x="132.220767" y="224.396019" style="stroke: #000000"/>
     <use xlink:href="#md07053678e" x="132.220767" y="224.396019" style="stroke: #000000"/>
     <use xlink:href="#md07053678e" x="132.057458" y="221.27991" style="stroke: #000000"/>
     <use xlink:href="#md07053678e" x="132.003" y="218.16" style="stroke: #000000"/>
     <use xlink:href="#md07053678e" x="132.057458" y="215.04009" style="stroke: #000000"/>
     <use xlink:href="#md07053678e" x="130.146831" y="211.778957" style="stroke: #000000"/>
     <use xlink:href="#md07053678e" x="130.425115" y="208.598154" style="stroke: #000000"/>
     <use xlink:href="#md07053678e" x="130.814238" y="205.429001" style="stroke: #000000"/>
     <use xlink:href="#md07053678e" x="129.266311" y="201.914345" style="stroke: #000000"/>
     <use xlink:href="#md07053678e" x="129.889401" y="198.708822" style="stroke: #000000"/>
     <use xlink:href="#md07053678e" x="130.623983" y="195.526997" style="stroke: #000000"/>
     <use xlink:href="#md07053678e" x="129.470699" y="191.799697" style="stroke: #000000"/>
     <use xlink:href="#md07053678e" x="128.469415" y="187.965022" style="stroke: #000000"/>
     <use xlink:href="#md07053678e" x="129.579815" y="184.740186" style="stroke: #000000"/>
     <use xlink:href="#md07053678e" x="130.802084" y="181.556066" style="stroke: #000000"/>
     <use xlink:href="#md07053678e" x="130.235472" y="177.570937" style="stroke: #000000"/>
     <use xlink:href="#md07053678e" x="133.576137" y="175.32544" style="stroke: #000000"/>
     <use xlink:href="#md07053678e" x="135.124542" y="172.286525" style="stroke: #000000"/>
     <use xlink:href="#md07053678e" x="136.77806" y="169.3035" style="stroke: #000000"/>
     <use xlink:href="#md07053678e" x="138.534676" y="166.379999" style="stroke: #000000"/>
     <use xlink:href="#md07053678e" x="142.115821" y="164.682146" style="stroke: #000000"/>
     <use xlink:href="#md07053678e" x="144.030469" y="161.947745" style="stroke: #000000"/>
     <use xlink:href="#md07053678e" x="147.677654" y="160.561791" style="stroke: #000000"/>
     <use xlink:href="#md07053678e" x="147.677654" y="160.561791" style="stroke: #000000"/>
     <use xlink:href="#md07053678e" x="149.732712" y="158.024005" style="stroke: #000000"/>
     <use xlink:href="#md07053678e" x="151.875086" y="155.559486" style="stroke: #000000"/>
     <use xlink:href="#md07053678e" x="154.102165" y="153.171236" style="stroke: #000000"/>
     <use xlink:href="#md07053678e" x="157.855431" y="152.357672" style="stroke: #000000"/>
     <use xlink:href="#md07053678e" x="160.190609" y="150.180084" style="stroke: #000000"/>
     <use xlink:href="#md07053678e" x="161.264005" y="146.492712" style="stroke: #000000"/>
     <use xlink:href="#md07053678e" x="163.801791" y="144.437654" style="stroke: #000000"/>
     <use xlink:href="#md07053678e" x="165.187745" y="140.790469" style="stroke: #000000"/>
     <use xlink:href="#md07053678e" x="167.922146" y="138.875821" style="stroke: #000000"/>
     <use xlink:href="#md07053678e" x="169.619999" y="135.294676" style="stroke: #000000"/>
     <use xlink:href="#md07053678e" x="171.504" y="131.737593" style="stroke: #000000"/>
     <use xlink:href="#md07053678e" x="174.550494" y="130.048894" style="stroke: #000000"/>
     <use xlink:href="#md07053678e" x="176.742693" y="126.598952" style="stroke: #000000"/>
     <use xlink:href="#md07053678e" x="179.965331" y="125.096211" style="stroke: #000000"/>
     <use xlink:href="#md07053678e" x="183.238452" y="123.706854" style="stroke: #000000"/>
     <use xlink:href="#md07053678e" x="186.558066" y="122.432573" style="stroke: #000000"/>
     <use xlink:href="#md07053678e" x="189.277683" y="119.297675" style="stroke: #000000"/>
     <use xlink:href="#md07053678e" x="193.320547" y="120.23531" style="stroke: #000000"/>
     <use xlink:href="#md07053678e" x="196.755175" y="119.315004" style="stroke: #000000"/>
     <use xlink:href="#md07053678e" x="200.652077" y="120.548695" style="stroke: #000000"/>
     <use xlink:href="#md07053678e" x="204.071301" y="119.884065" style="stroke: #000000"/>
     <use xlink:href="#md07053678e" x="207.511638" y="119.339169" style="stroke: #000000"/>
     <use xlink:href="#md07053678e" x="211.18621" y="120.982282" style="stroke: #000000"/>
     <use xlink:href="#md07053678e" x="214.583886" y="120.685024" style="stroke: #000000"/>
     <use xlink:href="#md07053678e" x="214.728909" y="122.75896" style="stroke: #000000"/>
     <use xlink:href="#md07053678e" x="218.062422" y="122.584258" style="stroke: #000000"/>
     <use xlink:href="#md07053678e" x="221.4" y="122.526" style="stroke: #000000"/>
     <use xlink:href="#md07053678e" x="221.4" y="122.526" style="stroke: #000000"/>
     <use xlink:href="#md07053678e" x="224.665022" y="124.661991" style="stroke: #000000"/>
     <use xlink:href="#md07053678e" x="227.926067" y="124.832895" style="stroke: #000000"/>
     <use xlink:href="#md07053678e" x="231.396475" y="123.049893" style="stroke: #000000"/>
     <use xlink:href="#md07053678e" x="234.70968" y="123.456704" style="stroke: #000000"/>
     <use xlink:href="#md07053678e" x="238.00667" y="123.978895" style="stroke: #000000"/>
     <use xlink:href="#md07053678e" x="241.715675" y="122.582263" style="stroke: #000000"/>
     <use xlink:href="#md07053678e" x="245.038914" y="123.349494" style="stroke: #000000"/>
     <use xlink:href="#md07053678e" x="248.333353" y="124.232236" style="stroke: #000000"/>
     <use xlink:href="#md07053678e" x="251.594978" y="125.229415" style="stroke: #000000"/>
     <use xlink:href="#md07053678e" x="254.819814" y="126.339815" style="stroke: #000000"/>
     <use xlink:href="#md07053678e" x="258.003934" y="127.562084" style="stroke: #000000"/>
     <use xlink:href="#md07053678e" x="261.143458" y="128.894733" style="stroke: #000000"/>
     <use xlink:href="#md07053678e" x="264.23456" y="130.336137" style="stroke: #000000"/>
     <use xlink:href="#md07053678e" x="267.273475" y="131.884542" style="stroke: #000000"/>
     <use xlink:href="#md07053678e" x="270.2565" y="133.53806" style="stroke: #000000"/>
     <use xlink:href="#md07053678e" x="273.180001" y="135.294676" style="stroke: #000000"/>
     <use xlink:href="#md07053678e" x="274.877854" y="138.875821" style="stroke: #000000"/>
     <use xlink:href="#md07053678e" x="277.612255" y="140.790469" style="stroke: #000000"/>
     <use xlink:href="#md07053678e" x="281.55813" y="141.161105" style="stroke: #000000"/>
     <use xlink:href="#md07053678e" x="284.208706" y="143.307499" style="stroke: #000000"/>
     <use xlink:href="#md07053678e" x="286.782759" y="145.54509" style="stroke: #000000"/>
     <use xlink:href="#md07053678e" x="290.721348" y="146.375643" style="stroke: #000000"/>
     <use xlink:href="#md07053678e" x="294.679865" y="147.394457" style="stroke: #000000"/>
     <use xlink:href="#md07053678e" x="298.649905" y="148.603873" style="stroke: #000000"/>
     <use xlink:href="#md07053678e" x="302.622926" y="150.005873" style="stroke: #000000"/>
     <use xlink:href="#md07053678e" x="304.951992" y="152.882029" style="stroke: #000000"/>
     <use xlink:href="#md07053678e" x="308.861209" y="154.615712" style="stroke: #000000"/>
     <use xlink:href="#md07053678e" x="312.749163" y="156.544212" style="stroke: #000000"/>
     <use xlink:href="#md07053678e" x="314.843876" y="159.769786" style="stroke: #000000"/>
     <use xlink:href="#md07053678e" x="316.824741" y="163.0665" style="stroke: #000000"/>
     <use xlink:href="#md07053678e" x="320.524994" y="165.454306" style="stroke: #000000"/>
     <use xlink:href="#md07053678e" x="322.304012" y="168.945825" style="stroke: #000000"/>
     <use xlink:href="#md07053678e" x="322.060833" y="173.34291" style="stroke: #000000"/>
     <use xlink:href="#md07053678e" x="321.635992" y="177.66203" style="stroke: #000000"/>
     <use xlink:href="#md07053678e" x="322.98829" y="181.184886" style="stroke: #000000"/>
     <use xlink:href="#md07053678e" x="322.239571" y="185.395237" style="stroke: #000000"/>
     <use xlink:href="#md07053678e" x="321.323153" y="189.507497" style="stroke: #000000"/>
     <use xlink:href="#md07053678e" x="322.262241" y="193.012219" style="stroke: #000000"/>
     <use xlink:href="#md07053678e" x="323.078443" y="196.54758" style="stroke: #000000"/>
     <use xlink:href="#md07053678e" x="323.078443" y="196.54758" style="stroke: #000000"/>
     <use xlink:href="#md07053678e" x="321.723351" y="200.470286" style="stroke: #000000"/>
     <use xlink:href="#md07053678e" x="321.723351" y="200.470286" style="stroke: #000000"/>
     <use xlink:href="#md07053678e" x="322.279598" y="203.982297" style="stroke: #000000"/>
     <use xlink:href="#md07053678e" x="322.279598" y="203.982297" style="stroke: #000000"/>
     <use xlink:href="#md07053678e" x="322.71294" y="207.511581" style="stroke: #000000"/>
     <use xlink:href="#md07053678e" x="324.780551" y="207.294266" style="stroke: #000000"/>
     <use xlink:href="#md07053678e" x="323.022847" y="211.053838" style="stroke: #000000"/>
     <use xlink:href="#md07053678e" x="325.096783" y="210.908815" style="stroke: #000000"/>
     <use xlink:href="#md07053678e" x="325.286676" y="214.532197" style="stroke: #000000"/>
     <use xlink:href="#md07053678e" x="325.286676" y="214.532197" style="stroke: #000000"/>
     <use xlink:href="#md07053678e" x="325.35" y="218.16" style="stroke: #000000"/>
     <use xlink:href="#md07053678e" x="325.35" y="218.16" style="stroke: #000000"/>
     <use xlink:href="#md07053678e" x="325.286676" y="221.787803" style="stroke: #000000"/>
     <use xlink:href="#md07053678e" x="325.286676" y="221.787803" style="stroke: #000000"/>
     <use xlink:href="#md07053678e" x="325.096783" y="225.411185" style="stroke: #000000"/>
     <use xlink:href="#md07053678e" x="326.848162" y="229.243048" style="stroke: #000000"/>
     <use xlink:href="#md07053678e" x="326.397133" y="232.916385" style="stroke: #000000"/>
     <use xlink:href="#md07053678e" x="327.865597" y="236.932757" style="stroke: #000000"/>
     <use xlink:href="#md07053678e" x="327.145581" y="240.636917" style="stroke: #000000"/>
     <use xlink:href="#md07053678e" x="326.29673" y="244.313692" style="stroke: #000000"/>
     <use xlink:href="#md07053678e" x="327.318542" y="248.531653" style="stroke: #000000"/>
     <use xlink:href="#md07053678e" x="324.216818" y="251.567209" style="stroke: #000000"/>
     <use xlink:href="#md07053678e" x="322.98829" y="255.135114" style="stroke: #000000"/>
     <use xlink:href="#md07053678e" x="321.635992" y="258.65797" style="stroke: #000000"/>
     <use xlink:href="#md07053678e" x="320.161572" y="262.131485" style="stroke: #000000"/>
     <use xlink:href="#md07053678e" x="318.566827" y="265.551428" style="stroke: #000000"/>
     <use xlink:href="#md07053678e" x="316.853698" y="268.913632" style="stroke: #000000"/>
     <use xlink:href="#md07053678e" x="313.223808" y="271.1745" style="stroke: #000000"/>
     <use xlink:href="#md07053678e" x="311.317692" y="274.34681" style="stroke: #000000"/>
     <use xlink:href="#md07053678e" x="311.317692" y="274.34681" style="stroke: #000000"/>
     <use xlink:href="#md07053678e" x="307.578456" y="276.288102" style="stroke: #000000"/>
     <use xlink:href="#md07053678e" x="307.179263" y="280.482283" style="stroke: #000000"/>
     <use xlink:href="#md07053678e" x="305.497317" y="279.260277" style="stroke: #000000"/>
     <use xlink:href="#md07053678e" x="304.951992" y="283.437971" style="stroke: #000000"/>
     <use xlink:href="#md07053678e" x="302.622926" y="286.314127" style="stroke: #000000"/>
     <use xlink:href="#md07053678e" x="302.622926" y="286.314127" style="stroke: #000000"/>
     <use xlink:href="#md07053678e" x="300.194903" y="289.107249" style="stroke: #000000"/>
     <use xlink:href="#md07053678e" x="300.194903" y="289.107249" style="stroke: #000000"/>
     <use xlink:href="#md07053678e" x="297.67088" y="291.813932" style="stroke: #000000"/>
     <use xlink:href="#md07053678e" x="295.053932" y="294.43088" style="stroke: #000000"/>
     <use xlink:href="#md07053678e" x="296.498127" y="295.926387" style="stroke: #000000"/>
     <use xlink:href="#md07053678e" x="293.738372" y="298.499901" style="stroke: #000000"/>
     <use xlink:href="#md07053678e" x="290.890483" y="300.975533" style="stroke: #000000"/>
     <use xlink:href="#md07053678e" x="289.237891" y="304.988541" style="stroke: #000000"/>
     <use xlink:href="#md07053678e" x="286.166294" y="307.303156" style="stroke: #000000"/>
     <use xlink:href="#md07053678e" x="283.015788" y="309.509163" style="stroke: #000000"/>
     <use xlink:href="#md07053678e" x="280.891916" y="313.366968" style="stroke: #000000"/>
     <use xlink:href="#md07053678e" x="276.4935" y="313.584741" style="stroke: #000000"/>
     <use xlink:href="#md07053678e" x="273.129663" y="315.449346" style="stroke: #000000"/>
     <use xlink:href="#md07053678e" x="268.791428" y="315.326827" style="stroke: #000000"/>
     <use xlink:href="#md07053678e" x="265.371485" y="316.921572" style="stroke: #000000"/>
     <use xlink:href="#md07053678e" x="261.119162" y="316.468377" style="stroke: #000000"/>
     <use xlink:href="#md07053678e" x="256.952994" y="315.841048" style="stroke: #000000"/>
     <use xlink:href="#md07053678e" x="253.522317" y="317.022325" style="stroke: #000000"/>
     <use xlink:href="#md07053678e" x="249.479453" y="316.08469" style="stroke: #000000"/>
     <use xlink:href="#md07053678e" x="246.044825" y="317.004996" style="stroke: #000000"/>
     <use xlink:href="#md07053678e" x="246.044825" y="317.004996" style="stroke: #000000"/>
     <use xlink:href="#md07053678e" x="242.147923" y="315.771305" style="stroke: #000000"/>
     <use xlink:href="#md07053678e" x="238.728699" y="316.435935" style="stroke: #000000"/>
     <use xlink:href="#md07053678e" x="238.728699" y="316.435935" style="stroke: #000000"/>
     <use xlink:href="#md07053678e" x="235.288362" y="316.980831" style="stroke: #000000"/>
     <use xlink:href="#md07053678e" x="231.831104" y="317.405329" style="stroke: #000000"/>
     <use xlink:href="#md07053678e" x="231.831104" y="317.405329" style="stroke: #000000"/>
     <use xlink:href="#md07053678e" x="228.361138" y="317.708912" style="stroke: #000000"/>
     <use xlink:href="#md07053678e" x="228.361138" y="317.708912" style="stroke: #000000"/>
     <use xlink:href="#md07053678e" x="224.955247" y="319.968943" style="stroke: #000000"/>
     <use xlink:href="#md07053678e" x="224.955247" y="319.968943" style="stroke: #000000"/>
     <use xlink:href="#md07053678e" x="221.4" y="320.031" style="stroke: #000000"/>
    </g>
   </g>
   <g id="patch_3">
    <path d="M 221.4 51.84 
C 199.559058 51.84 177.930491 56.142189 157.752092 64.500356 
C 137.573692 72.858523 119.237879 85.110122 103.794 100.554 
C 88.350122 115.997879 76.098523 134.333692 67.740356 154.512092 
C 59.382189 174.690491 55.08 196.319058 55.08 218.16 
C 55.08 240.000942 59.382189 261.629509 67.740356 281.807908 
C 76.098523 301.986308 88.350122 320.322121 103.794 335.766 
C 119.237879 351.209878 137.573692 363.461477 157.752092 371.819644 
C 177.930491 380.177811 199.559058 384.48 221.4 384.48 
C 243.240942 384.48 264.869509 380.177811 285.047908 371.819644 
C 305.226308 363.461477 323.562121 351.209878 339.006 335.766 
C 354.449878 320.322121 366.701477 301.986308 375.059644 281.807908 
C 383.417811 261.629509 387.72 240.000942 387.72 218.16 
C 387.72 196.319058 383.417811 174.690491 375.059644 154.512092 
C 366.701477 134.333692 354.449878 115.997879 339.006 100.554 
C 323.562121 85.110122 305.226308 72.858523 285.047908 64.500356 
C 264.869509 56.142189 243.240942 51.84 221.4 51.84 
" style="fill: none; stroke: #ffffff; stroke-width: 1.25; stroke-linejoin: miter; stroke-linecap: square"/>
   </g>
  </g>
 </g>
 <defs>
  <clipPath id="p2f548f69a4">
   <path d="M 387.72 218.16 
C 387.72 196.319058 383.417811 174.690491 375.059644 154.512092 
C 366.701477 134.333692 354.449878 115.997879 339.006 100.554 
C 323.562121 85.110122 305.226308 72.858523 285.047908 64.500356 
C 264.869509 56.142189 243.240942 51.84 221.4 51.84 
C 199.559058 51.84 177.930491 56.142189 157.752092 64.500356 
C 137.573692 72.858523 119.237879 85.110122 103.794 100.554 
C 88.350122 115.997879 76.098523 134.333692 67.740356 154.512092 
C 59.382189 174.690491 55.08 196.319058 55.08 218.16 
C 55.08 240.000942 59.382189 261.629509 67.740356 281.807908 
C 76.098523 301.986308 88.350122 320.322121 103.794 335.766 
C 119.237879 351.209878 137.573692 363.461477 157.752092 371.819644 
C 177.930491 380.177811 199.559058 384.48 221.4 384.48 
C 243.240942 384.48 264.869509 380.177811 285.047908 371.819644 
C 305.226308 363.461477 323.562121 351.209878 339.006 335.766 
C 354.449878 320.322121 366.701477 301.986308 375.059644 281.807908 
C 383.417811 261.629509 387.72 240.000942 387.72 218.16 
M 221.4 218.16 
C 221.4 218.16 221.4 218.16 221.4 218.16 
C 221.4 218.16 221.4 218.16 221.4 218.16 
C 221.4 218.16 221.4 218.16 221.4 218.16 
C 221.4 218.16 221.4 218.16 221.4 218.16 
C 221.4 218.16 221.4 218.16 221.4 218.16 
C 221.4 218.16 221.4 218.16 221.4 218.16 
C 221.4 218.16 221.4 218.16 221.4 218.16 
C 221.4 218.16 221.4 218.16 221.4 218.16 
C 221.4 218.16 221.4 218.16 221.4 218.16 
C 221.4 218.16 221.4 218.16 221.4 218.16 
C 221.4 218.16 221.4 218.16 221.4 218.16 
C 221.4 218.16 221.4 218.16 221.4 218.16 
C 221.4 218.16 221.4 218.16 221.4 218.16 
C 221.4 218.16 221.4 218.16 221.4 218.16 
C 221.4 218.16 221.4 218.16 221.4 218.16 
C 221.4 218.16 221.4 218.16 221.4 218.16 
z
"/>
  </clipPath>
 </defs>
</svg>
