<?xml version="1.0" encoding="utf-8" standalone="no"?>
<!DOCTYPE svg PUBLIC "-//W3C//DTD SVG 1.1//EN"
  "http://www.w3.org/Graphics/SVG/1.1/DTD/svg11.dtd">
<svg xmlns:xlink="http://www.w3.org/1999/xlink" width="432pt" height="432pt" viewBox="0 0 432 432" xmlns="http://www.w3.org/2000/svg" version="1.1">
 <metadata>
  <rdf:RDF xmlns:dc="http://purl.org/dc/elements/1.1/" xmlns:cc="http://creativecommons.org/ns#" xmlns:rdf="http://www.w3.org/1999/02/22-rdf-syntax-ns#">
   <cc:Work>
    <dc:type rdf:resource="http://purl.org/dc/dcmitype/StillImage"/>
    <dc:date>2024-09-06T15:34:05.749674</dc:date>
    <dc:format>image/svg+xml</dc:format>
    <dc:creator>
     <cc:Agent>
      <dc:title>Matplotlib v3.9.1, https://matplotlib.org/</dc:title>
     </cc:Agent>
    </dc:creator>
   </cc:Work>
  </rdf:RDF>
 </metadata>
 <defs>
  <style type="text/css">*{stroke-linejoin: round; stroke-linecap: butt}</style>
 </defs>
 <g id="figure_1">
  <g id="patch_1">
   <path d="M 0 432 
L 432 432 
L 432 0 
L 0 0 
z
" style="fill: #ffffff"/>
  </g>
  <g id="axes_1">
   <g id="patch_2">
    <path d="M 387.72 218.16 
C 387.72 196.319058 383.417811 174.690491 375.059644 154.512092 
C 366.701477 134.333692 354.449878 115.997879 339.006 100.554 
C 323.562121 85.110122 305.226308 72.858523 285.047908 64.500356 
C 264.869509 56.142189 243.240942 51.84 221.4 51.84 
C 199.559058 51.84 177.930491 56.142189 157.752092 64.500356 
C 137.573692 72.858523 119.237879 85.110122 103.794 100.554 
C 88.350122 115.997879 76.098523 134.333692 67.740356 154.512092 
C 59.382189 174.690491 55.08 196.319058 55.08 218.16 
C 55.08 240.000942 59.382189 261.629509 67.740356 281.807908 
C 76.098523 301.986308 88.350122 320.322121 103.794 335.766 
C 119.237879 351.209878 137.573692 363.461477 157.752092 371.819644 
C 177.930491 380.177811 199.559058 384.48 221.4 384.48 
C 243.240942 384.48 264.869509 380.177811 285.047908 371.819644 
C 305.226308 363.461477 323.562121 351.209878 339.006 335.766 
C 354.449878 320.322121 366.701477 301.986308 375.059644 281.807908 
C 383.417811 261.629509 387.72 240.000942 387.72 218.16 
M 221.4 218.16 
C 221.4 218.16 221.4 218.16 221.4 218.16 
C 221.4 218.16 221.4 218.16 221.4 218.16 
C 221.4 218.16 221.4 218.16 221.4 218.16 
C 221.4 218.16 221.4 218.16 221.4 218.16 
C 221.4 218.16 221.4 218.16 221.4 218.16 
C 221.4 218.16 221.4 218.16 221.4 218.16 
C 221.4 218.16 221.4 218.16 221.4 218.16 
C 221.4 218.16 221.4 218.16 221.4 218.16 
C 221.4 218.16 221.4 218.16 221.4 218.16 
C 221.4 218.16 221.4 218.16 221.4 218.16 
C 221.4 218.16 221.4 218.16 221.4 218.16 
C 221.4 218.16 221.4 218.16 221.4 218.16 
C 221.4 218.16 221.4 218.16 221.4 218.16 
C 221.4 218.16 221.4 218.16 221.4 218.16 
C 221.4 218.16 221.4 218.16 221.4 218.16 
C 221.4 218.16 221.4 218.16 221.4 218.16 
z
" style="fill: #eaeaf2"/>
   </g>
   <g id="matplotlib.axis_1">
    <g id="xtick_1">
     <g id="line2d_1">
      <path d="M 221.4 218.16 
L 221.4 51.84 
" clip-path="url(#p32e6e0974e)" style="fill: none; stroke: #ffffff; stroke-linecap: round"/>
     </g>
     <g id="text_1">
      <!-- 0° -->
      <g style="fill: #262626" transform="translate(216.142344 38.183672) scale(0.11 -0.11)">
       <defs>
        <path id="ArialMT-30" d="M 266 2259 
Q 266 3072 433 3567 
Q 600 4063 929 4331 
Q 1259 4600 1759 4600 
Q 2128 4600 2406 4451 
Q 2684 4303 2865 4023 
Q 3047 3744 3150 3342 
Q 3253 2941 3253 2259 
Q 3253 1453 3087 958 
Q 2922 463 2592 192 
Q 2263 -78 1759 -78 
Q 1097 -78 719 397 
Q 266 969 266 2259 
z
M 844 2259 
Q 844 1131 1108 757 
Q 1372 384 1759 384 
Q 2147 384 2411 759 
Q 2675 1134 2675 2259 
Q 2675 3391 2411 3762 
Q 2147 4134 1753 4134 
Q 1366 4134 1134 3806 
Q 844 3388 844 2259 
z
" transform="scale(0.015625)"/>
        <path id="ArialMT-b0" d="M 400 3794 
Q 400 4153 654 4406 
Q 909 4659 1266 4659 
Q 1628 4659 1881 4406 
Q 2134 4153 2134 3794 
Q 2134 3434 1879 3179 
Q 1625 2925 1266 2925 
Q 909 2925 654 3178 
Q 400 3431 400 3794 
z
M 741 3794 
Q 741 3575 895 3420 
Q 1050 3266 1269 3266 
Q 1484 3266 1639 3420 
Q 1794 3575 1794 3794 
Q 1794 4013 1639 4167 
Q 1484 4322 1269 4322 
Q 1050 4322 895 4167 
Q 741 4013 741 3794 
z
" transform="scale(0.015625)"/>
       </defs>
       <use xlink:href="#ArialMT-30"/>
       <use xlink:href="#ArialMT-b0" x="55.615234"/>
      </g>
     </g>
    </g>
    <g id="xtick_2">
     <g id="line2d_2">
      <path d="M 221.4 218.16 
L 339.006 100.554 
" clip-path="url(#p32e6e0974e)" style="fill: none; stroke: #ffffff; stroke-linecap: round"/>
     </g>
     <g id="text_2">
      <!-- 45° -->
      <g style="fill: #262626" transform="translate(342.35709 91.73041) scale(0.11 -0.11)">
       <defs>
        <path id="ArialMT-34" d="M 2069 0 
L 2069 1097 
L 81 1097 
L 81 1613 
L 2172 4581 
L 2631 4581 
L 2631 1613 
L 3250 1613 
L 3250 1097 
L 2631 1097 
L 2631 0 
L 2069 0 
z
M 2069 1613 
L 2069 3678 
L 634 1613 
L 2069 1613 
z
" transform="scale(0.015625)"/>
        <path id="ArialMT-35" d="M 266 1200 
L 856 1250 
Q 922 819 1161 601 
Q 1400 384 1738 384 
Q 2144 384 2425 690 
Q 2706 997 2706 1503 
Q 2706 1984 2436 2262 
Q 2166 2541 1728 2541 
Q 1456 2541 1237 2417 
Q 1019 2294 894 2097 
L 366 2166 
L 809 4519 
L 3088 4519 
L 3088 3981 
L 1259 3981 
L 1013 2750 
Q 1425 3038 1878 3038 
Q 2478 3038 2890 2622 
Q 3303 2206 3303 1553 
Q 3303 931 2941 478 
Q 2500 -78 1738 -78 
Q 1113 -78 717 272 
Q 322 622 266 1200 
z
" transform="scale(0.015625)"/>
       </defs>
       <use xlink:href="#ArialMT-34"/>
       <use xlink:href="#ArialMT-35" x="55.615234"/>
       <use xlink:href="#ArialMT-b0" x="111.230469"/>
      </g>
     </g>
    </g>
    <g id="xtick_3">
     <g id="line2d_3">
      <path d="M 221.4 218.16 
L 387.72 218.16 
" clip-path="url(#p32e6e0974e)" style="fill: none; stroke: #ffffff; stroke-linecap: round"/>
     </g>
     <g id="text_3">
      <!-- 90° -->
      <g style="fill: #262626" transform="translate(395.903828 221.003672) scale(0.11 -0.11)">
       <defs>
        <path id="ArialMT-39" d="M 350 1059 
L 891 1109 
Q 959 728 1153 556 
Q 1347 384 1650 384 
Q 1909 384 2104 503 
Q 2300 622 2425 820 
Q 2550 1019 2634 1356 
Q 2719 1694 2719 2044 
Q 2719 2081 2716 2156 
Q 2547 1888 2255 1720 
Q 1963 1553 1622 1553 
Q 1053 1553 659 1965 
Q 266 2378 266 3053 
Q 266 3750 677 4175 
Q 1088 4600 1706 4600 
Q 2153 4600 2523 4359 
Q 2894 4119 3086 3673 
Q 3278 3228 3278 2384 
Q 3278 1506 3087 986 
Q 2897 466 2520 194 
Q 2144 -78 1638 -78 
Q 1100 -78 759 220 
Q 419 519 350 1059 
z
M 2653 3081 
Q 2653 3566 2395 3850 
Q 2138 4134 1775 4134 
Q 1400 4134 1122 3828 
Q 844 3522 844 3034 
Q 844 2597 1108 2323 
Q 1372 2050 1759 2050 
Q 2150 2050 2401 2323 
Q 2653 2597 2653 3081 
z
" transform="scale(0.015625)"/>
       </defs>
       <use xlink:href="#ArialMT-39"/>
       <use xlink:href="#ArialMT-30" x="55.615234"/>
       <use xlink:href="#ArialMT-b0" x="111.230469"/>
      </g>
     </g>
    </g>
    <g id="xtick_4">
     <g id="line2d_4">
      <path d="M 221.4 218.16 
L 339.006 335.766 
" clip-path="url(#p32e6e0974e)" style="fill: none; stroke: #ffffff; stroke-linecap: round"/>
     </g>
     <g id="text_4">
      <!-- 135° -->
      <g style="fill: #262626" transform="translate(339.298574 350.276934) scale(0.11 -0.11)">
       <defs>
        <path id="ArialMT-31" d="M 2384 0 
L 1822 0 
L 1822 3584 
Q 1619 3391 1289 3197 
Q 959 3003 697 2906 
L 697 3450 
Q 1169 3672 1522 3987 
Q 1875 4303 2022 4600 
L 2384 4600 
L 2384 0 
z
" transform="scale(0.015625)"/>
        <path id="ArialMT-33" d="M 269 1209 
L 831 1284 
Q 928 806 1161 595 
Q 1394 384 1728 384 
Q 2125 384 2398 659 
Q 2672 934 2672 1341 
Q 2672 1728 2419 1979 
Q 2166 2231 1775 2231 
Q 1616 2231 1378 2169 
L 1441 2663 
Q 1497 2656 1531 2656 
Q 1891 2656 2178 2843 
Q 2466 3031 2466 3422 
Q 2466 3731 2256 3934 
Q 2047 4138 1716 4138 
Q 1388 4138 1169 3931 
Q 950 3725 888 3313 
L 325 3413 
Q 428 3978 793 4289 
Q 1159 4600 1703 4600 
Q 2078 4600 2393 4439 
Q 2709 4278 2876 4000 
Q 3044 3722 3044 3409 
Q 3044 3113 2884 2869 
Q 2725 2625 2413 2481 
Q 2819 2388 3044 2092 
Q 3269 1797 3269 1353 
Q 3269 753 2831 336 
Q 2394 -81 1725 -81 
Q 1122 -81 723 278 
Q 325 638 269 1209 
z
" transform="scale(0.015625)"/>
       </defs>
       <use xlink:href="#ArialMT-31"/>
       <use xlink:href="#ArialMT-33" x="55.615234"/>
       <use xlink:href="#ArialMT-35" x="111.230469"/>
       <use xlink:href="#ArialMT-b0" x="166.845703"/>
      </g>
     </g>
    </g>
    <g id="xtick_5">
     <g id="line2d_5">
      <path d="M 221.4 218.16 
L 221.4 384.48 
" clip-path="url(#p32e6e0974e)" style="fill: none; stroke: #ffffff; stroke-linecap: round"/>
     </g>
     <g id="text_5">
      <!-- 180° -->
      <g style="fill: #262626" transform="translate(210.025312 403.823672) scale(0.11 -0.11)">
       <defs>
        <path id="ArialMT-38" d="M 1131 2484 
Q 781 2613 612 2850 
Q 444 3088 444 3419 
Q 444 3919 803 4259 
Q 1163 4600 1759 4600 
Q 2359 4600 2725 4251 
Q 3091 3903 3091 3403 
Q 3091 3084 2923 2848 
Q 2756 2613 2416 2484 
Q 2838 2347 3058 2040 
Q 3278 1734 3278 1309 
Q 3278 722 2862 322 
Q 2447 -78 1769 -78 
Q 1091 -78 675 323 
Q 259 725 259 1325 
Q 259 1772 486 2073 
Q 713 2375 1131 2484 
z
M 1019 3438 
Q 1019 3113 1228 2906 
Q 1438 2700 1772 2700 
Q 2097 2700 2305 2904 
Q 2513 3109 2513 3406 
Q 2513 3716 2298 3927 
Q 2084 4138 1766 4138 
Q 1444 4138 1231 3931 
Q 1019 3725 1019 3438 
z
M 838 1322 
Q 838 1081 952 856 
Q 1066 631 1291 507 
Q 1516 384 1775 384 
Q 2178 384 2440 643 
Q 2703 903 2703 1303 
Q 2703 1709 2433 1975 
Q 2163 2241 1756 2241 
Q 1359 2241 1098 1978 
Q 838 1716 838 1322 
z
" transform="scale(0.015625)"/>
       </defs>
       <use xlink:href="#ArialMT-31"/>
       <use xlink:href="#ArialMT-38" x="55.615234"/>
       <use xlink:href="#ArialMT-30" x="111.230469"/>
       <use xlink:href="#ArialMT-b0" x="166.845703"/>
      </g>
     </g>
    </g>
    <g id="xtick_6">
     <g id="line2d_6">
      <path d="M 221.4 218.16 
L 103.794 335.766 
" clip-path="url(#p32e6e0974e)" style="fill: none; stroke: #ffffff; stroke-linecap: round"/>
     </g>
     <g id="text_6">
      <!-- 225° -->
      <g style="fill: #262626" transform="translate(80.752051 350.276934) scale(0.11 -0.11)">
       <defs>
        <path id="ArialMT-32" d="M 3222 541 
L 3222 0 
L 194 0 
Q 188 203 259 391 
Q 375 700 629 1000 
Q 884 1300 1366 1694 
Q 2113 2306 2375 2664 
Q 2638 3022 2638 3341 
Q 2638 3675 2398 3904 
Q 2159 4134 1775 4134 
Q 1369 4134 1125 3890 
Q 881 3647 878 3216 
L 300 3275 
Q 359 3922 746 4261 
Q 1134 4600 1788 4600 
Q 2447 4600 2831 4234 
Q 3216 3869 3216 3328 
Q 3216 3053 3103 2787 
Q 2991 2522 2730 2228 
Q 2469 1934 1863 1422 
Q 1356 997 1212 845 
Q 1069 694 975 541 
L 3222 541 
z
" transform="scale(0.015625)"/>
       </defs>
       <use xlink:href="#ArialMT-32"/>
       <use xlink:href="#ArialMT-32" x="55.615234"/>
       <use xlink:href="#ArialMT-35" x="111.230469"/>
       <use xlink:href="#ArialMT-b0" x="166.845703"/>
      </g>
     </g>
    </g>
    <g id="xtick_7">
     <g id="line2d_7">
      <path d="M 221.4 218.16 
L 55.08 218.16 
" clip-path="url(#p32e6e0974e)" style="fill: none; stroke: #ffffff; stroke-linecap: round"/>
     </g>
     <g id="text_7">
      <!-- 270° -->
      <g style="fill: #262626" transform="translate(27.205312 221.003672) scale(0.11 -0.11)">
       <defs>
        <path id="ArialMT-37" d="M 303 3981 
L 303 4522 
L 3269 4522 
L 3269 4084 
Q 2831 3619 2401 2847 
Q 1972 2075 1738 1259 
Q 1569 684 1522 0 
L 944 0 
Q 953 541 1156 1306 
Q 1359 2072 1739 2783 
Q 2119 3494 2547 3981 
L 303 3981 
z
" transform="scale(0.015625)"/>
       </defs>
       <use xlink:href="#ArialMT-32"/>
       <use xlink:href="#ArialMT-37" x="55.615234"/>
       <use xlink:href="#ArialMT-30" x="111.230469"/>
       <use xlink:href="#ArialMT-b0" x="166.845703"/>
      </g>
     </g>
    </g>
    <g id="xtick_8">
     <g id="line2d_8">
      <path d="M 221.4 218.16 
L 103.794 100.554 
" clip-path="url(#p32e6e0974e)" style="fill: none; stroke: #ffffff; stroke-linecap: round"/>
     </g>
     <g id="text_8">
      <!-- 315° -->
      <g style="fill: #262626" transform="translate(80.752051 91.73041) scale(0.11 -0.11)">
       <use xlink:href="#ArialMT-33"/>
       <use xlink:href="#ArialMT-31" x="55.615234"/>
       <use xlink:href="#ArialMT-35" x="111.230469"/>
       <use xlink:href="#ArialMT-b0" x="166.845703"/>
      </g>
     </g>
    </g>
   </g>
   <g id="matplotlib.axis_2">
    <g id="ytick_1">
     <g id="line2d_9">
      <path d="M 221.4 218.16 
C 221.4 218.16 221.4 218.16 221.4 218.16 
C 221.4 218.16 221.4 218.16 221.4 218.16 
C 221.4 218.16 221.4 218.16 221.4 218.16 
C 221.4 218.16 221.4 218.16 221.4 218.16 
C 221.4 218.16 221.4 218.16 221.4 218.16 
C 221.4 218.16 221.4 218.16 221.4 218.16 
C 221.4 218.16 221.4 218.16 221.4 218.16 
C 221.4 218.16 221.4 218.16 221.4 218.16 
C 221.4 218.16 221.4 218.16 221.4 218.16 
C 221.4 218.16 221.4 218.16 221.4 218.16 
C 221.4 218.16 221.4 218.16 221.4 218.16 
C 221.4 218.16 221.4 218.16 221.4 218.16 
C 221.4 218.16 221.4 218.16 221.4 218.16 
C 221.4 218.16 221.4 218.16 221.4 218.16 
C 221.4 218.16 221.4 218.16 221.4 218.16 
C 221.4 218.16 221.4 218.16 221.4 218.16 
" clip-path="url(#p32e6e0974e)" style="fill: none; stroke: #ffffff; stroke-linecap: round"/>
     </g>
     <g id="text_9">
      <!-- 0.0 -->
      <g style="fill: #dc143c" transform="translate(221.4 215.97375) scale(0.11 -0.11)">
       <defs>
        <path id="ArialMT-2e" d="M 581 0 
L 581 641 
L 1222 641 
L 1222 0 
L 581 0 
z
" transform="scale(0.015625)"/>
       </defs>
       <use xlink:href="#ArialMT-30"/>
       <use xlink:href="#ArialMT-2e" x="55.615234"/>
       <use xlink:href="#ArialMT-30" x="83.398438"/>
      </g>
     </g>
    </g>
    <g id="ytick_2">
     <g id="line2d_10">
      <path d="M 221.4 197.37 
C 224.130118 197.37 226.833689 197.907774 229.355989 198.952545 
C 231.878289 199.997315 234.170265 201.528765 236.10075 203.45925 
C 238.031235 205.389735 239.562685 207.681711 240.607455 210.204011 
C 241.652226 212.726311 242.19 215.429882 242.19 218.16 
C 242.19 220.890118 241.652226 223.593689 240.607455 226.115989 
C 239.562685 228.638289 238.031235 230.930265 236.10075 232.86075 
C 234.170265 234.791235 231.878289 236.322685 229.355989 237.367455 
C 226.833689 238.412226 224.130118 238.95 221.4 238.95 
C 218.669882 238.95 215.966311 238.412226 213.444011 237.367455 
C 210.921711 236.322685 208.629735 234.791235 206.69925 232.86075 
C 204.768765 230.930265 203.237315 228.638289 202.192545 226.115989 
C 201.147774 223.593689 200.61 220.890118 200.61 218.16 
C 200.61 215.429882 201.147774 212.726311 202.192545 210.204011 
C 203.237315 207.681711 204.768765 205.389735 206.69925 203.45925 
C 208.629735 201.528765 210.921711 199.997315 213.444011 198.952545 
C 215.966311 197.907774 218.669882 197.37 221.4 197.37 
" clip-path="url(#p32e6e0974e)" style="fill: none; stroke: #ffffff; stroke-linecap: round"/>
     </g>
     <g id="text_10">
      <!-- 0.1 -->
      <g style="fill: #dc143c" transform="translate(229.355989 196.766295) scale(0.11 -0.11)">
       <use xlink:href="#ArialMT-30"/>
       <use xlink:href="#ArialMT-2e" x="55.615234"/>
       <use xlink:href="#ArialMT-31" x="83.398438"/>
      </g>
     </g>
    </g>
    <g id="ytick_3">
     <g id="line2d_11">
      <path d="M 221.4 176.58 
C 226.860236 176.58 232.267377 177.655547 237.311977 179.745089 
C 242.356577 181.834631 246.94053 184.89753 250.8015 188.7585 
C 254.66247 192.61947 257.725369 197.203423 259.814911 202.248023 
C 261.904453 207.292623 262.98 212.699764 262.98 218.16 
C 262.98 223.620236 261.904453 229.027377 259.814911 234.071977 
C 257.725369 239.116577 254.66247 243.70053 250.8015 247.5615 
C 246.94053 251.42247 242.356577 254.485369 237.311977 256.574911 
C 232.267377 258.664453 226.860236 259.74 221.4 259.74 
C 215.939764 259.74 210.532623 258.664453 205.488023 256.574911 
C 200.443423 254.485369 195.85947 251.42247 191.9985 247.5615 
C 188.13753 243.70053 185.074631 239.116577 182.985089 234.071977 
C 180.895547 229.027377 179.82 223.620236 179.82 218.16 
C 179.82 212.699764 180.895547 207.292623 182.985089 202.248023 
C 185.074631 197.203423 188.13753 192.61947 191.9985 188.7585 
C 195.85947 184.89753 200.443423 181.834631 205.488023 179.745089 
C 210.532623 177.655547 215.939764 176.58 221.4 176.58 
" clip-path="url(#p32e6e0974e)" style="fill: none; stroke: #ffffff; stroke-linecap: round"/>
     </g>
     <g id="text_11">
      <!-- 0.2 -->
      <g style="fill: #dc143c" transform="translate(237.311977 177.558839) scale(0.11 -0.11)">
       <use xlink:href="#ArialMT-30"/>
       <use xlink:href="#ArialMT-2e" x="55.615234"/>
       <use xlink:href="#ArialMT-32" x="83.398438"/>
      </g>
     </g>
    </g>
    <g id="ytick_4">
     <g id="line2d_12">
      <path d="M 221.4 155.79 
C 229.590353 155.79 237.701066 157.403321 245.267966 160.537634 
C 252.834866 163.671946 259.710796 168.266296 265.50225 174.05775 
C 271.293704 179.849204 275.888054 186.725134 279.022366 194.292034 
C 282.156679 201.858934 283.77 209.969647 283.77 218.16 
C 283.77 226.350353 282.156679 234.461066 279.022366 242.027966 
C 275.888054 249.594866 271.293704 256.470796 265.50225 262.26225 
C 259.710796 268.053704 252.834866 272.648054 245.267966 275.782366 
C 237.701066 278.916679 229.590353 280.53 221.4 280.53 
C 213.209647 280.53 205.098934 278.916679 197.532034 275.782366 
C 189.965134 272.648054 183.089204 268.053704 177.29775 262.26225 
C 171.506296 256.470796 166.911946 249.594866 163.777634 242.027966 
C 160.643321 234.461066 159.03 226.350353 159.03 218.16 
C 159.03 209.969647 160.643321 201.858934 163.777634 194.292034 
C 166.911946 186.725134 171.506296 179.849204 177.29775 174.05775 
C 183.089204 168.266296 189.965134 163.671946 197.532034 160.537634 
C 205.098934 157.403321 213.209647 155.79 221.4 155.79 
" clip-path="url(#p32e6e0974e)" style="fill: none; stroke: #ffffff; stroke-linecap: round"/>
     </g>
     <g id="text_12">
      <!-- 0.3 -->
      <g style="fill: #dc143c" transform="translate(245.267966 158.351384) scale(0.11 -0.11)">
       <use xlink:href="#ArialMT-30"/>
       <use xlink:href="#ArialMT-2e" x="55.615234"/>
       <use xlink:href="#ArialMT-33" x="83.398438"/>
      </g>
     </g>
    </g>
    <g id="ytick_5">
     <g id="line2d_13">
      <path d="M 221.4 135 
C 232.320471 135 243.134754 137.151095 253.223954 141.330178 
C 263.313154 145.509261 272.481061 151.635061 280.203 159.357 
C 287.924939 167.078939 294.050739 176.246846 298.229822 186.336046 
C 302.408905 196.425246 304.56 207.239529 304.56 218.16 
C 304.56 229.080471 302.408905 239.894754 298.229822 249.983954 
C 294.050739 260.073154 287.924939 269.241061 280.203 276.963 
C 272.481061 284.684939 263.313154 290.810739 253.223954 294.989822 
C 243.134754 299.168905 232.320471 301.32 221.4 301.32 
C 210.479529 301.32 199.665246 299.168905 189.576046 294.989822 
C 179.486846 290.810739 170.318939 284.684939 162.597 276.963 
C 154.875061 269.241061 148.749261 260.073154 144.570178 249.983954 
C 140.391095 239.894754 138.24 229.080471 138.24 218.16 
C 138.24 207.239529 140.391095 196.425246 144.570178 186.336046 
C 148.749261 176.246846 154.875061 167.078939 162.597 159.357 
C 170.318939 151.635061 179.486846 145.509261 189.576046 141.330178 
C 199.665246 137.151095 210.479529 135 221.4 135 
" clip-path="url(#p32e6e0974e)" style="fill: none; stroke: #ffffff; stroke-linecap: round"/>
     </g>
     <g id="text_13">
      <!-- 0.4 -->
      <g style="fill: #dc143c" transform="translate(253.223954 139.143928) scale(0.11 -0.11)">
       <use xlink:href="#ArialMT-30"/>
       <use xlink:href="#ArialMT-2e" x="55.615234"/>
       <use xlink:href="#ArialMT-34" x="83.398438"/>
      </g>
     </g>
    </g>
    <g id="ytick_6">
     <g id="line2d_14">
      <path d="M 221.4 114.21 
C 235.050589 114.21 248.568443 116.898868 261.179943 122.122723 
C 273.791443 127.346577 285.251326 135.003826 294.90375 144.65625 
C 304.556174 154.308674 312.213423 165.768557 317.437277 178.380057 
C 322.661132 190.991557 325.35 204.509411 325.35 218.16 
C 325.35 231.810589 322.661132 245.328443 317.437277 257.939943 
C 312.213423 270.551443 304.556174 282.011326 294.90375 291.66375 
C 285.251326 301.316174 273.791443 308.973423 261.179943 314.197277 
C 248.568443 319.421132 235.050589 322.11 221.4 322.11 
C 207.749411 322.11 194.231557 319.421132 181.620057 314.197277 
C 169.008557 308.973423 157.548674 301.316174 147.89625 291.66375 
C 138.243826 282.011326 130.586577 270.551443 125.362723 257.939943 
C 120.138868 245.328443 117.45 231.810589 117.45 218.16 
C 117.45 204.509411 120.138868 190.991557 125.362723 178.380057 
C 130.586577 165.768557 138.243826 154.308674 147.89625 144.65625 
C 157.548674 135.003826 169.008557 127.346577 181.620057 122.122723 
C 194.231557 116.898868 207.749411 114.21 221.4 114.21 
" clip-path="url(#p32e6e0974e)" style="fill: none; stroke: #ffffff; stroke-linecap: round"/>
     </g>
     <g id="text_14">
      <!-- 0.5 -->
      <g style="fill: #dc143c" transform="translate(261.179943 119.936473) scale(0.11 -0.11)">
       <use xlink:href="#ArialMT-30"/>
       <use xlink:href="#ArialMT-2e" x="55.615234"/>
       <use xlink:href="#ArialMT-35" x="83.398438"/>
      </g>
     </g>
    </g>
    <g id="ytick_7">
     <g id="line2d_15">
      <path d="M 221.4 93.42 
C 237.780707 93.42 254.002132 96.646642 269.135931 102.915267 
C 284.269731 109.183892 298.021591 118.372591 309.6045 129.9555 
C 321.187409 141.538409 330.376108 155.290269 336.644733 170.424069 
C 342.913358 185.557868 346.14 201.779293 346.14 218.16 
C 346.14 234.540707 342.913358 250.762132 336.644733 265.895931 
C 330.376108 281.029731 321.187409 294.781591 309.6045 306.3645 
C 298.021591 317.947409 284.269731 327.136108 269.135931 333.404733 
C 254.002132 339.673358 237.780707 342.9 221.4 342.9 
C 205.019293 342.9 188.797868 339.673358 173.664069 333.404733 
C 158.530269 327.136108 144.778409 317.947409 133.1955 306.3645 
C 121.612591 294.781591 112.423892 281.029731 106.155267 265.895931 
C 99.886642 250.762132 96.66 234.540707 96.66 218.16 
C 96.66 201.779293 99.886642 185.557868 106.155267 170.424069 
C 112.423892 155.290269 121.612591 141.538409 133.1955 129.9555 
C 144.778409 118.372591 158.530269 109.183892 173.664069 102.915267 
C 188.797868 96.646642 205.019293 93.42 221.4 93.42 
" clip-path="url(#p32e6e0974e)" style="fill: none; stroke: #ffffff; stroke-linecap: round"/>
     </g>
     <g id="text_15">
      <!-- 0.6 -->
      <g style="fill: #dc143c" transform="translate(269.135931 100.729017) scale(0.11 -0.11)">
       <defs>
        <path id="ArialMT-36" d="M 3184 3459 
L 2625 3416 
Q 2550 3747 2413 3897 
Q 2184 4138 1850 4138 
Q 1581 4138 1378 3988 
Q 1113 3794 959 3422 
Q 806 3050 800 2363 
Q 1003 2672 1297 2822 
Q 1591 2972 1913 2972 
Q 2475 2972 2870 2558 
Q 3266 2144 3266 1488 
Q 3266 1056 3080 686 
Q 2894 316 2569 119 
Q 2244 -78 1831 -78 
Q 1128 -78 684 439 
Q 241 956 241 2144 
Q 241 3472 731 4075 
Q 1159 4600 1884 4600 
Q 2425 4600 2770 4297 
Q 3116 3994 3184 3459 
z
M 888 1484 
Q 888 1194 1011 928 
Q 1134 663 1356 523 
Q 1578 384 1822 384 
Q 2178 384 2434 671 
Q 2691 959 2691 1453 
Q 2691 1928 2437 2201 
Q 2184 2475 1800 2475 
Q 1419 2475 1153 2201 
Q 888 1928 888 1484 
z
" transform="scale(0.015625)"/>
       </defs>
       <use xlink:href="#ArialMT-30"/>
       <use xlink:href="#ArialMT-2e" x="55.615234"/>
       <use xlink:href="#ArialMT-36" x="83.398438"/>
      </g>
     </g>
    </g>
    <g id="ytick_8">
     <g id="line2d_16">
      <path d="M 221.4 72.63 
C 240.510824 72.63 259.43582 76.394416 277.09192 83.707812 
C 294.74802 91.021208 310.791856 101.741357 324.30525 115.25475 
C 337.818643 128.768144 348.538792 144.81198 355.852188 162.46808 
C 363.165584 180.12418 366.93 199.049176 366.93 218.16 
C 366.93 237.270824 363.165584 256.19582 355.852188 273.85192 
C 348.538792 291.50802 337.818643 307.551856 324.30525 321.06525 
C 310.791856 334.578643 294.74802 345.298792 277.09192 352.612188 
C 259.43582 359.925584 240.510824 363.69 221.4 363.69 
C 202.289176 363.69 183.36418 359.925584 165.70808 352.612188 
C 148.05198 345.298792 132.008144 334.578643 118.49475 321.06525 
C 104.981357 307.551856 94.261208 291.50802 86.947812 273.85192 
C 79.634416 256.19582 75.87 237.270824 75.87 218.16 
C 75.87 199.049176 79.634416 180.12418 86.947812 162.46808 
C 94.261208 144.81198 104.981357 128.768144 118.49475 115.25475 
C 132.008144 101.741357 148.05198 91.021208 165.70808 83.707812 
C 183.36418 76.394416 202.289176 72.63 221.4 72.63 
" clip-path="url(#p32e6e0974e)" style="fill: none; stroke: #ffffff; stroke-linecap: round"/>
     </g>
     <g id="text_16">
      <!-- 0.7 -->
      <g style="fill: #dc143c" transform="translate(277.09192 81.521562) scale(0.11 -0.11)">
       <use xlink:href="#ArialMT-30"/>
       <use xlink:href="#ArialMT-2e" x="55.615234"/>
       <use xlink:href="#ArialMT-37" x="83.398438"/>
      </g>
     </g>
    </g>
    <g id="ytick_9">
     <g id="line2d_17">
      <path d="M 221.4 51.84 
C 243.240942 51.84 264.869509 56.142189 285.047908 64.500356 
C 305.226308 72.858523 323.562121 85.110122 339.006 100.554 
C 354.449878 115.997879 366.701477 134.333692 375.059644 154.512092 
C 383.417811 174.690491 387.72 196.319058 387.72 218.16 
C 387.72 240.000942 383.417811 261.629509 375.059644 281.807908 
C 366.701477 301.986308 354.449878 320.322121 339.006 335.766 
C 323.562121 351.209878 305.226308 363.461477 285.047908 371.819644 
C 264.869509 380.177811 243.240942 384.48 221.4 384.48 
C 199.559058 384.48 177.930491 380.177811 157.752092 371.819644 
C 137.573692 363.461477 119.237879 351.209878 103.794 335.766 
C 88.350122 320.322121 76.098523 301.986308 67.740356 281.807908 
C 59.382189 261.629509 55.08 240.000942 55.08 218.16 
C 55.08 196.319058 59.382189 174.690491 67.740356 154.512092 
C 76.098523 134.333692 88.350122 115.997879 103.794 100.554 
C 119.237879 85.110122 137.573692 72.858523 157.752092 64.500356 
C 177.930491 56.142189 199.559058 51.84 221.4 51.84 
" clip-path="url(#p32e6e0974e)" style="fill: none; stroke: #ffffff; stroke-linecap: round"/>
     </g>
     <g id="text_17">
      <!-- 0.8 -->
      <g style="fill: #dc143c" transform="translate(285.047908 62.314106) scale(0.11 -0.11)">
       <use xlink:href="#ArialMT-30"/>
       <use xlink:href="#ArialMT-2e" x="55.615234"/>
       <use xlink:href="#ArialMT-38" x="83.398438"/>
      </g>
     </g>
    </g>
   </g>
   <g id="line2d_18">
    <defs>
     <path id="m35723fbb3d" d="M 0 0.5 
C 0.132602 0.5 0.25979 0.447317 0.353553 0.353553 
C 0.447317 0.25979 0.5 0.132602 0.5 0 
C 0.5 -0.132602 0.447317 -0.25979 0.353553 -0.353553 
C 0.25979 -0.447317 0.132602 -0.5 0 -0.5 
C -0.132602 -0.5 -0.25979 -0.447317 -0.353553 -0.353553 
C -0.447317 -0.25979 -0.5 -0.132602 -0.5 0 
C -0.5 0.132602 -0.447317 0.25979 -0.353553 0.353553 
C -0.25979 0.447317 -0.132602 0.5 0 0.5 
z
" style="stroke: #000000"/>
    </defs>
    <g clip-path="url(#p32e6e0974e)">
     <use xlink:href="#m35723fbb3d" x="223.623875" y="90.754289" style="stroke: #000000"/>
     <use xlink:href="#m35723fbb3d" x="224.826772" y="21.840383" style="stroke: #000000"/>
     <use xlink:href="#m35723fbb3d" x="225.879761" y="89.87643" style="stroke: #000000"/>
     <use xlink:href="#m35723fbb3d" x="228.252499" y="21.930089" style="stroke: #000000"/>
     <use xlink:href="#m35723fbb3d" x="228.166773" y="89.042283" style="stroke: #000000"/>
     <use xlink:href="#m35723fbb3d" x="231.67614" y="22.079568" style="stroke: #000000"/>
     <use xlink:href="#m35723fbb3d" x="231.367126" y="75.623463" style="stroke: #000000"/>
     <use xlink:href="#m35723fbb3d" x="235.485974" y="16.72118" style="stroke: #000000"/>
     <use xlink:href="#m35723fbb3d" x="233.853213" y="75.819122" style="stroke: #000000"/>
     <use xlink:href="#m35723fbb3d" x="239.119411" y="15.626207" style="stroke: #000000"/>
     <use xlink:href="#m35723fbb3d" x="236.335507" y="76.05814" style="stroke: #000000"/>
     <use xlink:href="#m35723fbb3d" x="242.651414" y="15.9663" style="stroke: #000000"/>
     <use xlink:href="#m35723fbb3d" x="238.70566" y="77.216708" style="stroke: #000000"/>
     <use xlink:href="#m35723fbb3d" x="246.009163" y="17.734448" style="stroke: #000000"/>
     <use xlink:href="#m35723fbb3d" x="241.285692" y="76.665946" style="stroke: #000000"/>
     <use xlink:href="#m35723fbb3d" x="249.790355" y="16.15213" style="stroke: #000000"/>
     <use xlink:href="#m35723fbb3d" x="243.613968" y="77.906526" style="stroke: #000000"/>
     <use xlink:href="#m35723fbb3d" x="253.311554" y="16.678377" style="stroke: #000000"/>
     <use xlink:href="#m35723fbb3d" x="246.21165" y="77.446141" style="stroke: #000000"/>
     <use xlink:href="#m35723fbb3d" x="257.06025" y="15.920675" style="stroke: #000000"/>
     <use xlink:href="#m35723fbb3d" x="248.495211" y="78.767221" style="stroke: #000000"/>
     <use xlink:href="#m35723fbb3d" x="260.584381" y="16.573834" style="stroke: #000000"/>
     <use xlink:href="#m35723fbb3d" x="251.107378" y="78.397774" style="stroke: #000000"/>
     <use xlink:href="#m35723fbb3d" x="261.484949" y="29.575144" style="stroke: #000000"/>
     <use xlink:href="#m35723fbb3d" x="253.343444" y="79.797744" style="stroke: #000000"/>
     <use xlink:href="#m35723fbb3d" x="267.134223" y="20.063317" style="stroke: #000000"/>
     <use xlink:href="#m35723fbb3d" x="252.67927" y="92.7057" style="stroke: #000000"/>
     <use xlink:href="#m35723fbb3d" x="268.901249" y="27.642898" style="stroke: #000000"/>
     <use xlink:href="#m35723fbb3d" x="258.608922" y="79.294412" style="stroke: #000000"/>
     <use xlink:href="#m35723fbb3d" x="274.197304" y="21.11778" style="stroke: #000000"/>
     <use xlink:href="#m35723fbb3d" x="260.540987" y="81.659156" style="stroke: #000000"/>
     <use xlink:href="#m35723fbb3d" x="277.439125" y="22.728346" style="stroke: #000000"/>
     <use xlink:href="#m35723fbb3d" x="262.917294" y="82.36305" style="stroke: #000000"/>
     <use xlink:href="#m35723fbb3d" x="280.236773" y="25.713587" style="stroke: #000000"/>
     <use xlink:href="#m35723fbb3d" x="265.280954" y="83.108309" style="stroke: #000000"/>
     <use xlink:href="#m35723fbb3d" x="284.43734" y="24.151017" style="stroke: #000000"/>
     <use xlink:href="#m35723fbb3d" x="267.631248" y="83.894706" style="stroke: #000000"/>
     <use xlink:href="#m35723fbb3d" x="288.479941" y="23.345705" style="stroke: #000000"/>
     <use xlink:href="#m35723fbb3d" x="296.86284" y="-1" style="stroke: #000000"/>
     <use xlink:href="#m35723fbb3d" x="269.967459" y="84.722002" style="stroke: #000000"/>
     <use xlink:href="#m35723fbb3d" x="277.477887" y="64.087272" style="stroke: #000000"/>
     <use xlink:href="#m35723fbb3d" x="291.169755" y="26.469173" style="stroke: #000000"/>
     <use xlink:href="#m35723fbb3d" x="271.971337" y="86.417164" style="stroke: #000000"/>
     <use xlink:href="#m35723fbb3d" x="294.994153" y="26.440677" style="stroke: #000000"/>
     <use xlink:href="#m35723fbb3d" x="274.594792" y="86.498269" style="stroke: #000000"/>
     <use xlink:href="#m35723fbb3d" x="283.122488" y="65.391481" style="stroke: #000000"/>
     <use xlink:href="#m35723fbb3d" x="298.073365" y="28.386763" style="stroke: #000000"/>
     <use xlink:href="#m35723fbb3d" x="276.884504" y="87.446699" style="stroke: #000000"/>
     <use xlink:href="#m35723fbb3d" x="285.148814" y="67.977205" style="stroke: #000000"/>
     <use xlink:href="#m35723fbb3d" x="301.640229" y="29.125866" style="stroke: #000000"/>
     <use xlink:href="#m35723fbb3d" x="279.157316" y="88.434945" style="stroke: #000000"/>
     <use xlink:href="#m35723fbb3d" x="304.649648" y="31.17823" style="stroke: #000000"/>
     <use xlink:href="#m35723fbb3d" x="318.976319" y="-1" style="stroke: #000000"/>
     <use xlink:href="#m35723fbb3d" x="276.435284" y="100.136452" style="stroke: #000000"/>
     <use xlink:href="#m35723fbb3d" x="304.678561" y="39.56855" style="stroke: #000000"/>
     <use xlink:href="#m35723fbb3d" x="283.649471" y="90.529671" style="stroke: #000000"/>
     <use xlink:href="#m35723fbb3d" x="311.721828" y="32.972809" style="stroke: #000000"/>
     <use xlink:href="#m35723fbb3d" x="285.465178" y="92.425009" style="stroke: #000000"/>
     <use xlink:href="#m35723fbb3d" x="314.631123" y="35.183619" style="stroke: #000000"/>
     <use xlink:href="#m35723fbb3d" x="288.065784" y="92.779896" style="stroke: #000000"/>
     <use xlink:href="#m35723fbb3d" x="317.810301" y="36.838595" style="stroke: #000000"/>
     <use xlink:href="#m35723fbb3d" x="290.243815" y="93.96247" style="stroke: #000000"/>
     <use xlink:href="#m35723fbb3d" x="321.289994" y="37.953681" style="stroke: #000000"/>
     <use xlink:href="#m35723fbb3d" x="292.400876" y="95.182876" style="stroke: #000000"/>
     <use xlink:href="#m35723fbb3d" x="323.738514" y="40.904493" style="stroke: #000000"/>
     <use xlink:href="#m35723fbb3d" x="294.536309" y="96.440742" style="stroke: #000000"/>
     <use xlink:href="#m35723fbb3d" x="327.167803" y="42.132815" style="stroke: #000000"/>
     <use xlink:href="#m35723fbb3d" x="296.649464" y="97.735685" style="stroke: #000000"/>
     <use xlink:href="#m35723fbb3d" x="330.584368" y="43.428486" style="stroke: #000000"/>
     <use xlink:href="#m35723fbb3d" x="298.739697" y="99.067311" style="stroke: #000000"/>
     <use xlink:href="#m35723fbb3d" x="332.502614" y="47.076977" style="stroke: #000000"/>
     <use xlink:href="#m35723fbb3d" x="300.806372" y="100.435213" style="stroke: #000000"/>
     <use xlink:href="#m35723fbb3d" x="335.853942" y="48.475053" style="stroke: #000000"/>
     <use xlink:href="#m35723fbb3d" x="369.225287" y="-1" style="stroke: #000000"/>
     <use xlink:href="#m35723fbb3d" x="302.848858" y="101.838975" style="stroke: #000000"/>
     <use xlink:href="#m35723fbb3d" x="339.189194" y="49.939597" style="stroke: #000000"/>
     <use xlink:href="#m35723fbb3d" x="374.857484" y="-1" style="stroke: #000000"/>
     <use xlink:href="#m35723fbb3d" x="297.397642" y="113.558219" style="stroke: #000000"/>
     <use xlink:href="#m35723fbb3d" x="336.811353" y="59.3099" style="stroke: #000000"/>
     <use xlink:href="#m35723fbb3d" x="306.858787" y="104.752359" style="stroke: #000000"/>
     <use xlink:href="#m35723fbb3d" x="344.166122" y="55.243853" style="stroke: #000000"/>
     <use xlink:href="#m35723fbb3d" x="308.279488" y="106.959327" style="stroke: #000000"/>
     <use xlink:href="#m35723fbb3d" x="347.831744" y="56.334748" style="stroke: #000000"/>
     <use xlink:href="#m35723fbb3d" x="311.873765" y="106.434205" style="stroke: #000000"/>
     <use xlink:href="#m35723fbb3d" x="350.636728" y="58.565933" style="stroke: #000000"/>
     <use xlink:href="#m35723fbb3d" x="266.386549" y="164.547119" style="stroke: #000000"/>
     <use xlink:href="#m35723fbb3d" x="312.676966" y="109.380348" style="stroke: #000000"/>
     <use xlink:href="#m35723fbb3d" x="353.83972" y="60.324488" style="stroke: #000000"/>
     <use xlink:href="#m35723fbb3d" x="315.14073" y="110.323626" style="stroke: #000000"/>
     <use xlink:href="#m35723fbb3d" x="356.574158" y="62.659919" style="stroke: #000000"/>
     <use xlink:href="#m35723fbb3d" x="316.417718" y="112.632133" style="stroke: #000000"/>
     <use xlink:href="#m35723fbb3d" x="359.267421" y="65.042717" style="stroke: #000000"/>
     <use xlink:href="#m35723fbb3d" x="415.639731" y="2.434924" style="stroke: #000000"/>
     <use xlink:href="#m35723fbb3d" x="318.244961" y="114.306494" style="stroke: #000000"/>
     <use xlink:href="#m35723fbb3d" x="361.918688" y="67.472156" style="stroke: #000000"/>
     <use xlink:href="#m35723fbb3d" x="319.427188" y="116.649875" style="stroke: #000000"/>
     <use xlink:href="#m35723fbb3d" x="365.468938" y="68.972248" style="stroke: #000000"/>
     <use xlink:href="#m35723fbb3d" x="423.050102" y="9.345207" style="stroke: #000000"/>
     <use xlink:href="#m35723fbb3d" x="321.183854" y="118.376146" style="stroke: #000000"/>
     <use xlink:href="#m35723fbb3d" x="367.092018" y="72.467982" style="stroke: #000000"/>
     <use xlink:href="#m35723fbb3d" x="323.547511" y="119.517295" style="stroke: #000000"/>
     <use xlink:href="#m35723fbb3d" x="369.612505" y="75.032848" style="stroke: #000000"/>
     <use xlink:href="#m35723fbb3d" x="316.640227" y="129.347052" style="stroke: #000000"/>
     <use xlink:href="#m35723fbb3d" x="364.484389" y="84.731648" style="stroke: #000000"/>
     <use xlink:href="#m35723fbb3d" x="326.269387" y="123.73518" style="stroke: #000000"/>
     <use xlink:href="#m35723fbb3d" x="375.524805" y="79.385403" style="stroke: #000000"/>
     <use xlink:href="#m35723fbb3d" x="437.125076" y="23.920269" style="stroke: #000000"/>
     <use xlink:href="#m35723fbb3d" x="327.901355" y="125.579784" style="stroke: #000000"/>
     <use xlink:href="#m35723fbb3d" x="377.923281" y="82.096387" style="stroke: #000000"/>
     <use xlink:href="#m35723fbb3d" x="328.819627" y="128.024231" style="stroke: #000000"/>
     <use xlink:href="#m35723fbb3d" x="379.755444" y="85.284005" style="stroke: #000000"/>
     <use xlink:href="#m35723fbb3d" x="331.756087" y="128.795402" style="stroke: #000000"/>
     <use xlink:href="#m35723fbb3d" x="381.522865" y="88.495061" style="stroke: #000000"/>
     <use xlink:href="#m35723fbb3d" x="333.298907" y="130.734992" style="stroke: #000000"/>
     <use xlink:href="#m35723fbb3d" x="383.761442" y="91.309339" style="stroke: #000000"/>
     <use xlink:href="#m35723fbb3d" x="334.807641" y="132.701213" style="stroke: #000000"/>
     <use xlink:href="#m35723fbb3d" x="385.407144" y="94.571753" style="stroke: #000000"/>
     <use xlink:href="#m35723fbb3d" x="336.28183" y="134.693465" style="stroke: #000000"/>
     <use xlink:href="#m35723fbb3d" x="388.08956" y="97.052945" style="stroke: #000000"/>
     <use xlink:href="#m35723fbb3d" x="339.164767" y="135.700222" style="stroke: #000000"/>
     <use xlink:href="#m35723fbb3d" x="390.177782" y="99.980525" style="stroke: #000000"/>
     <use xlink:href="#m35723fbb3d" x="337.652925" y="139.746412" style="stroke: #000000"/>
     <use xlink:href="#m35723fbb3d" x="393.338564" y="102.185974" style="stroke: #000000"/>
     <use xlink:href="#m35723fbb3d" x="340.492689" y="140.820303" style="stroke: #000000"/>
     <use xlink:href="#m35723fbb3d" x="394.768597" y="105.573117" style="stroke: #000000"/>
     <use xlink:href="#m35723fbb3d" x="331.836705" y="149.151488" style="stroke: #000000"/>
     <use xlink:href="#m35723fbb3d" x="387.314856" y="114.484892" style="stroke: #000000"/>
     <use xlink:href="#m35723fbb3d" x="345.381265" y="143.66454" style="stroke: #000000"/>
     <use xlink:href="#m35723fbb3d" x="399.172539" y="111.343482" style="stroke: #000000"/>
     <use xlink:href="#m35723fbb3d" x="342.839594" y="148.046818" style="stroke: #000000"/>
     <use xlink:href="#m35723fbb3d" x="400.423343" y="114.800824" style="stroke: #000000"/>
     <use xlink:href="#m35723fbb3d" x="346.369684" y="148.888173" style="stroke: #000000"/>
     <use xlink:href="#m35723fbb3d" x="402.792088" y="117.612724" style="stroke: #000000"/>
     <use xlink:href="#m35723fbb3d" x="348.336286" y="150.66678" style="stroke: #000000"/>
     <use xlink:href="#m35723fbb3d" x="402.721405" y="121.749699" style="stroke: #000000"/>
     <use xlink:href="#m35723fbb3d" x="350.275794" y="152.494503" style="stroke: #000000"/>
     <use xlink:href="#m35723fbb3d" x="406.190638" y="124.004467" style="stroke: #000000"/>
     <use xlink:href="#m35723fbb3d" x="355.298501" y="152.853337" style="stroke: #000000"/>
     <use xlink:href="#m35723fbb3d" x="409.018257" y="126.652462" style="stroke: #000000"/>
     <use xlink:href="#m35723fbb3d" x="359.510636" y="153.757953" style="stroke: #000000"/>
     <use xlink:href="#m35723fbb3d" x="408.135319" y="131.083891" style="stroke: #000000"/>
     <use xlink:href="#m35723fbb3d" x="352.735164" y="159.685817" style="stroke: #000000"/>
     <use xlink:href="#m35723fbb3d" x="409.626566" y="134.356134" style="stroke: #000000"/>
     <use xlink:href="#m35723fbb3d" x="351.297668" y="163.021711" style="stroke: #000000"/>
     <use xlink:href="#m35723fbb3d" x="412.308455" y="137.124168" style="stroke: #000000"/>
     <use xlink:href="#m35723fbb3d" x="352.24018" y="165.297136" style="stroke: #000000"/>
     <use xlink:href="#m35723fbb3d" x="412.436616" y="140.976197" style="stroke: #000000"/>
     <use xlink:href="#m35723fbb3d" x="342.975116" y="171.491685" style="stroke: #000000"/>
     <use xlink:href="#m35723fbb3d" x="404.70807" y="147.794624" style="stroke: #000000"/>
     <use xlink:href="#m35723fbb3d" x="354.005363" y="169.895595" style="stroke: #000000"/>
     <use xlink:href="#m35723fbb3d" x="414.374518" y="147.923019" style="stroke: #000000"/>
     <use xlink:href="#m35723fbb3d" x="355.665294" y="171.928752" style="stroke: #000000"/>
     <use xlink:href="#m35723fbb3d" x="417.496186" y="150.638668" style="stroke: #000000"/>
     <use xlink:href="#m35723fbb3d" x="354.763197" y="174.82767" style="stroke: #000000"/>
     <use xlink:href="#m35723fbb3d" x="416.059422" y="154.91132" style="stroke: #000000"/>
     <use xlink:href="#m35723fbb3d" x="353.78885" y="177.684667" style="stroke: #000000"/>
     <use xlink:href="#m35723fbb3d" x="418.436676" y="157.919843" style="stroke: #000000"/>
     <use xlink:href="#m35723fbb3d" x="353.610753" y="180.249177" style="stroke: #000000"/>
     <use xlink:href="#m35723fbb3d" x="418.148188" y="161.743365" style="stroke: #000000"/>
     <use xlink:href="#m35723fbb3d" x="354.252252" y="182.562346" style="stroke: #000000"/>
     <use xlink:href="#m35723fbb3d" x="419.102828" y="165.185687" style="stroke: #000000"/>
     <use xlink:href="#m35723fbb3d" x="354.853283" y="184.88636" style="stroke: #000000"/>
     <use xlink:href="#m35723fbb3d" x="422.634852" y="167.986516" style="stroke: #000000"/>
     <use xlink:href="#m35723fbb3d" x="358.032372" y="186.615932" style="stroke: #000000"/>
     <use xlink:href="#m35723fbb3d" x="421.49585" y="171.964233" style="stroke: #000000"/>
     <use xlink:href="#m35723fbb3d" x="361.162226" y="188.452622" style="stroke: #000000"/>
     <use xlink:href="#m35723fbb3d" x="422.271602" y="175.463423" style="stroke: #000000"/>
     <use xlink:href="#m35723fbb3d" x="359.050011" y="191.403548" style="stroke: #000000"/>
     <use xlink:href="#m35723fbb3d" x="422.986166" y="178.975619" style="stroke: #000000"/>
     <use xlink:href="#m35723fbb3d" x="349.646173" y="195.546739" style="stroke: #000000"/>
     <use xlink:href="#m35723fbb3d" x="414.766531" y="184.064263" style="stroke: #000000"/>
     <use xlink:href="#m35723fbb3d" x="361.653474" y="195.946032" style="stroke: #000000"/>
     <use xlink:href="#m35723fbb3d" x="425.573305" y="185.822125" style="stroke: #000000"/>
     <use xlink:href="#m35723fbb3d" x="359.3778" y="198.768485" style="stroke: #000000"/>
     <use xlink:href="#m35723fbb3d" x="425.434464" y="189.484826" style="stroke: #000000"/>
     <use xlink:href="#m35723fbb3d" x="362.343292" y="200.85434" style="stroke: #000000"/>
     <use xlink:href="#m35723fbb3d" x="424.551397" y="193.216145" style="stroke: #000000"/>
     <use xlink:href="#m35723fbb3d" x="366.116822" y="202.949649" style="stroke: #000000"/>
     <use xlink:href="#m35723fbb3d" x="424.955787" y="196.765425" style="stroke: #000000"/>
     <use xlink:href="#m35723fbb3d" x="359.31113" y="206.09434" style="stroke: #000000"/>
     <use xlink:href="#m35723fbb3d" x="425.977739" y="200.261767" style="stroke: #000000"/>
     <use xlink:href="#m35723fbb3d" x="362.171929" y="208.316268" style="stroke: #000000"/>
     <use xlink:href="#m35723fbb3d" x="425.578446" y="203.882452" style="stroke: #000000"/>
     <use xlink:href="#m35723fbb3d" x="364.967212" y="210.635961" style="stroke: #000000"/>
     <use xlink:href="#m35723fbb3d" x="424.428814" y="207.519711" style="stroke: #000000"/>
     <use xlink:href="#m35723fbb3d" x="359.753596" y="213.328586" style="stroke: #000000"/>
     <use xlink:href="#m35723fbb3d" x="425.26885" y="211.040743" style="stroke: #000000"/>
     <use xlink:href="#m35723fbb3d" x="362.494187" y="215.697192" style="stroke: #000000"/>
     <use xlink:href="#m35723fbb3d" x="424.676475" y="214.611796" style="stroke: #000000"/>
     <use xlink:href="#m35723fbb3d" x="366.040685" y="218.16" style="stroke: #000000"/>
     <use xlink:href="#m35723fbb3d" x="421.946704" y="218.16" style="stroke: #000000"/>
     <use xlink:href="#m35723fbb3d" x="352.530805" y="220.448897" style="stroke: #000000"/>
     <use xlink:href="#m35723fbb3d" x="417.719617" y="221.586772" style="stroke: #000000"/>
     <use xlink:href="#m35723fbb3d" x="359.753596" y="222.991414" style="stroke: #000000"/>
     <use xlink:href="#m35723fbb3d" x="423.896547" y="225.231335" style="stroke: #000000"/>
     <use xlink:href="#m35723fbb3d" x="361.434189" y="225.498881" style="stroke: #000000"/>
     <use xlink:href="#m35723fbb3d" x="423.742294" y="228.76431" style="stroke: #000000"/>
     <use xlink:href="#m35723fbb3d" x="360.394377" y="227.879434" style="stroke: #000000"/>
     <use xlink:href="#m35723fbb3d" x="424.8962" y="232.389841" style="stroke: #000000"/>
     <use xlink:href="#m35723fbb3d" x="360.20358" y="230.30374" style="stroke: #000000"/>
     <use xlink:href="#m35723fbb3d" x="423.933793" y="235.879411" style="stroke: #000000"/>
     <use xlink:href="#m35723fbb3d" x="362.623851" y="233.003225" style="stroke: #000000"/>
     <use xlink:href="#m35723fbb3d" x="418.76955" y="238.904376" style="stroke: #000000"/>
     <use xlink:href="#m35723fbb3d" x="359.695214" y="235.140517" style="stroke: #000000"/>
     <use xlink:href="#m35723fbb3d" x="423.192017" y="242.936944" style="stroke: #000000"/>
     <use xlink:href="#m35723fbb3d" x="360.261691" y="237.675738" style="stroke: #000000"/>
     <use xlink:href="#m35723fbb3d" x="423.40787" y="246.550355" style="stroke: #000000"/>
     <use xlink:href="#m35723fbb3d" x="360.778311" y="240.235356" style="stroke: #000000"/>
     <use xlink:href="#m35723fbb3d" x="422.881623" y="250.071554" style="stroke: #000000"/>
     <use xlink:href="#m35723fbb3d" x="359.496011" y="242.510053" style="stroke: #000000"/>
     <use xlink:href="#m35723fbb3d" x="422.967525" y="253.701793" style="stroke: #000000"/>
     <use xlink:href="#m35723fbb3d" x="358.173833" y="244.74614" style="stroke: #000000"/>
     <use xlink:href="#m35723fbb3d" x="419.620677" y="256.690197" style="stroke: #000000"/>
     <use xlink:href="#m35723fbb3d" x="349.684821" y="245.42778" style="stroke: #000000"/>
     <use xlink:href="#m35723fbb3d" x="412.767941" y="258.836512" style="stroke: #000000"/>
     <use xlink:href="#m35723fbb3d" x="357.162671" y="249.503282" style="stroke: #000000"/>
     <use xlink:href="#m35723fbb3d" x="416.806705" y="263.273193" style="stroke: #000000"/>
     <use xlink:href="#m35723fbb3d" x="356.594978" y="251.867894" style="stroke: #000000"/>
     <use xlink:href="#m35723fbb3d" x="419.33365" y="267.510402" style="stroke: #000000"/>
     <use xlink:href="#m35723fbb3d" x="355.986103" y="254.222238" style="stroke: #000000"/>
     <use xlink:href="#m35723fbb3d" x="355.336232" y="256.565597" style="stroke: #000000"/>
     <use xlink:href="#m35723fbb3d" x="354.645563" y="258.897257" style="stroke: #000000"/>
     <use xlink:href="#m35723fbb3d" x="353.062294" y="260.939673" style="stroke: #000000"/>
     <use xlink:href="#m35723fbb3d" x="351.445464" y="262.938244" style="stroke: #000000"/>
     <use xlink:href="#m35723fbb3d" x="412.32924" y="283.90221" style="stroke: #000000"/>
     <use xlink:href="#m35723fbb3d" x="350.644169" y="265.20103" style="stroke: #000000"/>
     <use xlink:href="#m35723fbb3d" x="413.090827" y="287.929755" style="stroke: #000000"/>
     <use xlink:href="#m35723fbb3d" x="349.803505" y="267.449488" style="stroke: #000000"/>
     <use xlink:href="#m35723fbb3d" x="414.388206" y="292.241232" style="stroke: #000000"/>
     <use xlink:href="#m35723fbb3d" x="348.923729" y="269.682931" style="stroke: #000000"/>
     <use xlink:href="#m35723fbb3d" x="339.557627" y="268.314937" style="stroke: #000000"/>
     <use xlink:href="#m35723fbb3d" x="401.490529" y="294.603894" style="stroke: #000000"/>
     <use xlink:href="#m35723fbb3d" x="341.212199" y="271.503828" style="stroke: #000000"/>
     <use xlink:href="#m35723fbb3d" x="400.12897" y="297.735264" style="stroke: #000000"/>
     <use xlink:href="#m35723fbb3d" x="343.589619" y="275.137955" style="stroke: #000000"/>
     <use xlink:href="#m35723fbb3d" x="405.659115" y="304.081437" style="stroke: #000000"/>
     <use xlink:href="#m35723fbb3d" x="341.756427" y="276.861751" style="stroke: #000000"/>
     <use xlink:href="#m35723fbb3d" x="404.747799" y="307.584697" style="stroke: #000000"/>
     <use xlink:href="#m35723fbb3d" x="341.526682" y="279.367602" style="stroke: #000000"/>
     <use xlink:href="#m35723fbb3d" x="401.935722" y="310.147545" style="stroke: #000000"/>
     <use xlink:href="#m35723fbb3d" x="342.042691" y="282.306857" style="stroke: #000000"/>
     <use xlink:href="#m35723fbb3d" x="399.694237" y="312.960727" style="stroke: #000000"/>
     <use xlink:href="#m35723fbb3d" x="341.69412" y="284.84012" style="stroke: #000000"/>
     <use xlink:href="#m35723fbb3d" x="397.408145" y="315.722908" style="stroke: #000000"/>
     <use xlink:href="#m35723fbb3d" x="340.51207" y="286.929386" style="stroke: #000000"/>
     <use xlink:href="#m35723fbb3d" x="395.67863" y="318.779814" style="stroke: #000000"/>
     <use xlink:href="#m35723fbb3d" x="338.520167" y="288.532896" style="stroke: #000000"/>
     <use xlink:href="#m35723fbb3d" x="391.510608" y="320.372765" style="stroke: #000000"/>
     <use xlink:href="#m35723fbb3d" x="338.039494" y="291.044445" style="stroke: #000000"/>
     <use xlink:href="#m35723fbb3d" x="390.884043" y="324.065384" style="stroke: #000000"/>
     <use xlink:href="#m35723fbb3d" x="337.503816" y="293.5587" style="stroke: #000000"/>
     <use xlink:href="#m35723fbb3d" x="389.592618" y="327.385563" style="stroke: #000000"/>
     <use xlink:href="#m35723fbb3d" x="336.170244" y="295.573507" style="stroke: #000000"/>
     <use xlink:href="#m35723fbb3d" x="385.928075" y="329.135588" style="stroke: #000000"/>
     <use xlink:href="#m35723fbb3d" x="328.83243" y="293.384997" style="stroke: #000000"/>
     <use xlink:href="#m35723fbb3d" x="382.240112" y="330.781459" style="stroke: #000000"/>
     <use xlink:href="#m35723fbb3d" x="467.348268" y="390.374831" style="stroke: #000000"/>
     <use xlink:href="#m35723fbb3d" x="333.398637" y="299.531773" style="stroke: #000000"/>
     <use xlink:href="#m35723fbb3d" x="331.243347" y="300.932899" style="stroke: #000000"/>
     <use xlink:href="#m35723fbb3d" x="329.070872" y="302.281705" style="stroke: #000000"/>
     <use xlink:href="#m35723fbb3d" x="379.43296" y="341.62888" style="stroke: #000000"/>
     <use xlink:href="#m35723fbb3d" x="328.287701" y="304.715954" style="stroke: #000000"/>
     <use xlink:href="#m35723fbb3d" x="376.172711" y="343.49247" style="stroke: #000000"/>
     <use xlink:href="#m35723fbb3d" x="326.760812" y="306.568218" style="stroke: #000000"/>
     <use xlink:href="#m35723fbb3d" x="375.558499" y="347.51434" style="stroke: #000000"/>
     <use xlink:href="#m35723fbb3d" x="324.520723" y="307.801477" style="stroke: #000000"/>
     <use xlink:href="#m35723fbb3d" x="369.586865" y="346.976877" style="stroke: #000000"/>
     <use xlink:href="#m35723fbb3d" x="323.611227" y="310.191402" style="stroke: #000000"/>
     <use xlink:href="#m35723fbb3d" x="370.950188" y="352.815594" style="stroke: #000000"/>
     <use xlink:href="#m35723fbb3d" x="322.647092" y="312.57444" style="stroke: #000000"/>
     <use xlink:href="#m35723fbb3d" x="370.089648" y="356.81534" style="stroke: #000000"/>
     <use xlink:href="#m35723fbb3d" x="320.337113" y="313.702459" style="stroke: #000000"/>
     <use xlink:href="#m35723fbb3d" x="367.152614" y="358.911663" style="stroke: #000000"/>
     <use xlink:href="#m35723fbb3d" x="318.654598" y="315.414598" style="stroke: #000000"/>
     <use xlink:href="#m35723fbb3d" x="363.697906" y="360.457906" style="stroke: #000000"/>
     <use xlink:href="#m35723fbb3d" x="312.504987" y="312.501976" style="stroke: #000000"/>
     <use xlink:href="#m35723fbb3d" x="315.81444" y="319.407092" style="stroke: #000000"/>
     <use xlink:href="#m35723fbb3d" x="358.645096" y="365.337347" style="stroke: #000000"/>
     <use xlink:href="#m35723fbb3d" x="309.157001" y="315.624024" style="stroke: #000000"/>
     <use xlink:href="#m35723fbb3d" x="307.442653" y="317.14075" style="stroke: #000000"/>
     <use xlink:href="#m35723fbb3d" x="305.702096" y="318.627326" style="stroke: #000000"/>
     <use xlink:href="#m35723fbb3d" x="348.063781" y="369.112016" style="stroke: #000000"/>
     <use xlink:href="#m35723fbb3d" x="401.716879" y="433.053289" style="stroke: #000000"/>
     <use xlink:href="#m35723fbb3d" x="303.93586" y="320.083299" style="stroke: #000000"/>
     <use xlink:href="#m35723fbb3d" x="344.966758" y="370.752238" style="stroke: #000000"/>
     <use xlink:href="#m35723fbb3d" x="404.083354" y="443.755154" style="stroke: #000000"/>
     <use xlink:href="#m35723fbb3d" x="301.574255" y="320.778367" style="stroke: #000000"/>
     <use xlink:href="#m35723fbb3d" x="342.284836" y="372.885535" style="stroke: #000000"/>
     <use xlink:href="#m35723fbb3d" x="300.32851" y="322.90167" style="stroke: #000000"/>
     <use xlink:href="#m35723fbb3d" x="337.858616" y="372.705803" style="stroke: #000000"/>
     <use xlink:href="#m35723fbb3d" x="299.030878" y="325.009737" style="stroke: #000000"/>
     <use xlink:href="#m35723fbb3d" x="335.143682" y="374.714748" style="stroke: #000000"/>
     <use xlink:href="#m35723fbb3d" x="295.560515" y="324.072191" style="stroke: #000000"/>
     <use xlink:href="#m35723fbb3d" x="334.021459" y="379.000112" style="stroke: #000000"/>
     <use xlink:href="#m35723fbb3d" x="294.738585" y="326.888924" style="stroke: #000000"/>
     <use xlink:href="#m35723fbb3d" x="293.332404" y="328.926189" style="stroke: #000000"/>
     <use xlink:href="#m35723fbb3d" x="290.899325" y="329.382169" style="stroke: #000000"/>
     <use xlink:href="#m35723fbb3d" x="323.945901" y="382.267747" style="stroke: #000000"/>
     <use xlink:href="#m35723fbb3d" x="289.422901" y="331.369118" style="stroke: #000000"/>
     <use xlink:href="#m35723fbb3d" x="287.436769" y="332.539039" style="stroke: #000000"/>
     <use xlink:href="#m35723fbb3d" x="284.98316" y="332.867057" style="stroke: #000000"/>
     <use xlink:href="#m35723fbb3d" x="318.626972" y="393.5621" style="stroke: #000000"/>
     <use xlink:href="#m35723fbb3d" x="283.40477" y="334.774013" style="stroke: #000000"/>
     <use xlink:href="#m35723fbb3d" x="314.569785" y="393.38688" style="stroke: #000000"/>
     <use xlink:href="#m35723fbb3d" x="281.360132" y="335.838384" style="stroke: #000000"/>
     <use xlink:href="#m35723fbb3d" x="279.297228" y="336.86691" style="stroke: #000000"/>
     <use xlink:href="#m35723fbb3d" x="307.473965" y="394.637781" style="stroke: #000000"/>
     <use xlink:href="#m35723fbb3d" x="276.826715" y="337.022973" style="stroke: #000000"/>
     <use xlink:href="#m35723fbb3d" x="305.271433" y="398.022868" style="stroke: #000000"/>
     <use xlink:href="#m35723fbb3d" x="274.367107" y="337.126071" style="stroke: #000000"/>
     <use xlink:href="#m35723fbb3d" x="301.262545" y="397.534214" style="stroke: #000000"/>
     <use xlink:href="#m35723fbb3d" x="327.675828" y="456.859417" style="stroke: #000000"/>
     <use xlink:href="#m35723fbb3d" x="272.644692" y="338.88493" style="stroke: #000000"/>
     <use xlink:href="#m35723fbb3d" x="298.669525" y="400.195592" style="stroke: #000000"/>
     <use xlink:href="#m35723fbb3d" x="270.875618" y="340.616452" style="stroke: #000000"/>
     <use xlink:href="#m35723fbb3d" x="295.743195" y="402.165863" style="stroke: #000000"/>
     <use xlink:href="#m35723fbb3d" x="268.730923" y="341.46127" style="stroke: #000000"/>
     <use xlink:href="#m35723fbb3d" x="292.520527" y="403.435306" style="stroke: #000000"/>
     <use xlink:href="#m35723fbb3d" x="266.57181" y="342.268529" style="stroke: #000000"/>
     <use xlink:href="#m35723fbb3d" x="289.036623" y="403.990093" style="stroke: #000000"/>
     <use xlink:href="#m35723fbb3d" x="264.398938" y="343.037984" style="stroke: #000000"/>
     <use xlink:href="#m35723fbb3d" x="285.554462" y="404.478087" style="stroke: #000000"/>
     <use xlink:href="#m35723fbb3d" x="262.497057" y="344.643736" style="stroke: #000000"/>
     <use xlink:href="#m35723fbb3d" x="282.726498" y="406.903554" style="stroke: #000000"/>
     <use xlink:href="#m35723fbb3d" x="260.283352" y="345.341714" style="stroke: #000000"/>
     <use xlink:href="#m35723fbb3d" x="278.807044" y="405.929982" style="stroke: #000000"/>
     <use xlink:href="#m35723fbb3d" x="257.804401" y="345.117233" style="stroke: #000000"/>
     <use xlink:href="#m35723fbb3d" x="275.715406" y="407.58033" style="stroke: #000000"/>
     <use xlink:href="#m35723fbb3d" x="255.583147" y="345.733242" style="stroke: #000000"/>
     <use xlink:href="#m35723fbb3d" x="272.401292" y="408.499415" style="stroke: #000000"/>
     <use xlink:href="#m35723fbb3d" x="253.351481" y="346.31039" style="stroke: #000000"/>
     <use xlink:href="#m35723fbb3d" x="269.411025" y="410.721704" style="stroke: #000000"/>
     <use xlink:href="#m35723fbb3d" x="250.064415" y="342.319221" style="stroke: #000000"/>
     <use xlink:href="#m35723fbb3d" x="265.727474" y="410.163385" style="stroke: #000000"/>
     <use xlink:href="#m35723fbb3d" x="249.050772" y="348.246657" style="stroke: #000000"/>
     <use xlink:href="#m35723fbb3d" x="262.369802" y="410.907763" style="stroke: #000000"/>
     <use xlink:href="#m35723fbb3d" x="246.951002" y="349.608512" style="stroke: #000000"/>
     <use xlink:href="#m35723fbb3d" x="259.533545" y="414.34008" style="stroke: #000000"/>
     <use xlink:href="#m35723fbb3d" x="244.653018" y="350.034418" style="stroke: #000000"/>
     <use xlink:href="#m35723fbb3d" x="255.982949" y="414.289651" style="stroke: #000000"/>
     <use xlink:href="#m35723fbb3d" x="242.204668" y="349.515507" style="stroke: #000000"/>
     <use xlink:href="#m35723fbb3d" x="252.335894" y="413.481547" style="stroke: #000000"/>
     <use xlink:href="#m35723fbb3d" x="240.036502" y="350.765603" style="stroke: #000000"/>
     <use xlink:href="#m35723fbb3d" x="249.117056" y="415.377101" style="stroke: #000000"/>
     <use xlink:href="#m35723fbb3d" x="237.830587" y="351.97639" style="stroke: #000000"/>
     <use xlink:href="#m35723fbb3d" x="245.670922" y="415.830794" style="stroke: #000000"/>
     <use xlink:href="#m35723fbb3d" x="235.492666" y="352.242762" style="stroke: #000000"/>
     <use xlink:href="#m35723fbb3d" x="241.997737" y="414.134381" style="stroke: #000000"/>
     <use xlink:href="#m35723fbb3d" x="233.150453" y="352.468292" style="stroke: #000000"/>
     <use xlink:href="#m35723fbb3d" x="238.696643" y="415.861529" style="stroke: #000000"/>
     <use xlink:href="#m35723fbb3d" x="230.741005" y="351.742599" style="stroke: #000000"/>
     <use xlink:href="#m35723fbb3d" x="235.292369" y="416.830134" style="stroke: #000000"/>
     <use xlink:href="#m35723fbb3d" x="228.408245" y="351.885276" style="stroke: #000000"/>
     <use xlink:href="#m35723fbb3d" x="231.822981" y="417.042331" style="stroke: #000000"/>
     <use xlink:href="#m35723fbb3d" x="225.912327" y="347.376149" style="stroke: #000000"/>
     <use xlink:href="#m35723fbb3d" x="228.252499" y="414.389911" style="stroke: #000000"/>
     <use xlink:href="#m35723fbb3d" x="223.752957" y="352.960794" style="stroke: #000000"/>
     <use xlink:href="#m35723fbb3d" x="224.863547" y="416.586491" style="stroke: #000000"/>
     <use xlink:href="#m35723fbb3d" x="221.4" y="351.15287" style="stroke: #000000"/>
     <use xlink:href="#m35723fbb3d" x="221.4" y="416.616717" style="stroke: #000000"/>
     <use xlink:href="#m35723fbb3d" x="219.062969" y="352.048399" style="stroke: #000000"/>
     <use xlink:href="#m35723fbb3d" x="217.936453" y="416.586491" style="stroke: #000000"/>
     <use xlink:href="#m35723fbb3d" x="216.72665" y="351.98722" style="stroke: #000000"/>
     <use xlink:href="#m35723fbb3d" x="214.425268" y="417.890179" style="stroke: #000000"/>
     <use xlink:href="#m35723fbb3d" x="214.343997" y="352.79656" style="stroke: #000000"/>
     <use xlink:href="#m35723fbb3d" x="210.977019" y="417.042331" style="stroke: #000000"/>
     <use xlink:href="#m35723fbb3d" x="211.93192" y="353.559857" style="stroke: #000000"/>
     <use xlink:href="#m35723fbb3d" x="207.556359" y="416.133286" style="stroke: #000000"/>
     <use xlink:href="#m35723fbb3d" x="209.649547" y="352.468292" style="stroke: #000000"/>
     <use xlink:href="#m35723fbb3d" x="204.103357" y="415.861529" style="stroke: #000000"/>
     <use xlink:href="#m35723fbb3d" x="207.307334" y="352.242762" style="stroke: #000000"/>
     <use xlink:href="#m35723fbb3d" x="200.509786" y="416.917113" style="stroke: #000000"/>
     <use xlink:href="#m35723fbb3d" x="204.858614" y="352.878775" style="stroke: #000000"/>
     <use xlink:href="#m35723fbb3d" x="197.044177" y="416.522257" style="stroke: #000000"/>
     <use xlink:href="#m35723fbb3d" x="202.636498" y="351.669256" style="stroke: #000000"/>
     <use xlink:href="#m35723fbb3d" x="193.780163" y="414.685349" style="stroke: #000000"/>
     <use xlink:href="#m35723fbb3d" x="201.319796" y="344.941418" style="stroke: #000000"/>
     <use xlink:href="#m35723fbb3d" x="190.794658" y="411.394522" style="stroke: #000000"/>
     <use xlink:href="#m35723fbb3d" x="197.830648" y="351.828438" style="stroke: #000000"/>
     <use xlink:href="#m35723fbb3d" x="186.57543" y="415.659949" style="stroke: #000000"/>
     <use xlink:href="#m35723fbb3d" x="195.501402" y="351.396738" style="stroke: #000000"/>
     <use xlink:href="#m35723fbb3d" x="183.266455" y="414.34008" style="stroke: #000000"/>
     <use xlink:href="#m35723fbb3d" x="193.180044" y="350.924453" style="stroke: #000000"/>
     <use xlink:href="#m35723fbb3d" x="179.848449" y="413.644679" style="stroke: #000000"/>
     <use xlink:href="#m35723fbb3d" x="190.258242" y="353.049773" style="stroke: #000000"/>
     <use xlink:href="#m35723fbb3d" x="176.443099" y="412.889731" style="stroke: #000000"/>
     <use xlink:href="#m35723fbb3d" x="188.344688" y="350.737616" style="stroke: #000000"/>
     <use xlink:href="#m35723fbb3d" x="172.883361" y="412.74961" style="stroke: #000000"/>
     <use xlink:href="#m35723fbb3d" x="186.270364" y="349.265585" style="stroke: #000000"/>
     <use xlink:href="#m35723fbb3d" x="169.315352" y="412.542554" style="stroke: #000000"/>
     <use xlink:href="#m35723fbb3d" x="183.489177" y="350.370753" style="stroke: #000000"/>
     <use xlink:href="#m35723fbb3d" x="166.121837" y="410.937865" style="stroke: #000000"/>
     <use xlink:href="#m35723fbb3d" x="181.451413" y="348.825942" style="stroke: #000000"/>
     <use xlink:href="#m35723fbb3d" x="163.172635" y="408.613129" style="stroke: #000000"/>
     <use xlink:href="#m35723fbb3d" x="178.620327" y="349.822294" style="stroke: #000000"/>
     <use xlink:href="#m35723fbb3d" x="159.42766" y="408.89125" style="stroke: #000000"/>
     <use xlink:href="#m35723fbb3d" x="176.915573" y="347.352158" style="stroke: #000000"/>
     <use xlink:href="#m35723fbb3d" x="156.10838" y="407.780634" style="stroke: #000000"/>
     <use xlink:href="#m35723fbb3d" x="177.497691" y="338.780603" style="stroke: #000000"/>
     <use xlink:href="#m35723fbb3d" x="154.48608" y="402.004485" style="stroke: #000000"/>
     <use xlink:href="#m35723fbb3d" x="172.43393" y="345.720974" style="stroke: #000000"/>
     <use xlink:href="#m35723fbb3d" x="149.282167" y="406.033378" style="stroke: #000000"/>
     <use xlink:href="#m35723fbb3d" x="170.554464" y="344.007119" style="stroke: #000000"/>
     <use xlink:href="#m35723fbb3d" x="146.273882" y="404.103666" style="stroke: #000000"/>
     <use xlink:href="#m35723fbb3d" x="166.957952" y="346.417427" style="stroke: #000000"/>
     <use xlink:href="#m35723fbb3d" x="143.04016" y="402.764215" style="stroke: #000000"/>
     <use xlink:href="#m35723fbb3d" x="165.457942" y="343.80792" style="stroke: #000000"/>
     <use xlink:href="#m35723fbb3d" x="139.830307" y="401.368531" style="stroke: #000000"/>
     <use xlink:href="#m35723fbb3d" x="162.893603" y="343.627373" style="stroke: #000000"/>
     <use xlink:href="#m35723fbb3d" x="160.712806" y="342.587186" style="stroke: #000000"/>
     <use xlink:href="#m35723fbb3d" x="158.958704" y="340.707943" style="stroke: #000000"/>
     <use xlink:href="#m35723fbb3d" x="130.353702" y="396.848422" style="stroke: #000000"/>
     <use xlink:href="#m35723fbb3d" x="156.407329" y="340.393436" style="stroke: #000000"/>
     <use xlink:href="#m35723fbb3d" x="126.599273" y="396.454237" style="stroke: #000000"/>
     <use xlink:href="#m35723fbb3d" x="153.41691" y="340.804742" style="stroke: #000000"/>
     <use xlink:href="#m35723fbb3d" x="124.847611" y="392.345121" style="stroke: #000000"/>
     <use xlink:href="#m35723fbb3d" x="152.630614" y="337.27207" style="stroke: #000000"/>
     <use xlink:href="#m35723fbb3d" x="121.126648" y="391.838541" style="stroke: #000000"/>
     <use xlink:href="#m35723fbb3d" x="154.808198" y="328.98737" style="stroke: #000000"/>
     <use xlink:href="#m35723fbb3d" x="120.27252" y="386.46439" style="stroke: #000000"/>
     <use xlink:href="#m35723fbb3d" x="145.682699" y="339.333011" style="stroke: #000000"/>
     <use xlink:href="#m35723fbb3d" x="115.863788" y="387.053245" style="stroke: #000000"/>
     <use xlink:href="#m35723fbb3d" x="144.542892" y="336.509567" style="stroke: #000000"/>
     <use xlink:href="#m35723fbb3d" x="112.174437" y="386.352618" style="stroke: #000000"/>
     <use xlink:href="#m35723fbb3d" x="142.986412" y="334.412925" style="stroke: #000000"/>
     <use xlink:href="#m35723fbb3d" x="108.481778" y="385.568148" style="stroke: #000000"/>
     <use xlink:href="#m35723fbb3d" x="139.951142" y="334.481025" style="stroke: #000000"/>
     <use xlink:href="#m35723fbb3d" x="106.371136" y="382.438243" style="stroke: #000000"/>
     <use xlink:href="#m35723fbb3d" x="138.454285" y="332.324983" style="stroke: #000000"/>
     <use xlink:href="#m35723fbb3d" x="103.521605" y="380.405692" style="stroke: #000000"/>
     <use xlink:href="#m35723fbb3d" x="100.707981" y="378.323719" style="stroke: #000000"/>
     <use xlink:href="#m35723fbb3d" x="96.654686" y="377.826721" style="stroke: #000000"/>
     <use xlink:href="#m35723fbb3d" x="132.035402" y="328.516087" style="stroke: #000000"/>
     <use xlink:href="#m35723fbb3d" x="95.19187" y="374.014061" style="stroke: #000000"/>
     <use xlink:href="#m35723fbb3d" x="130.123034" y="326.939652" style="stroke: #000000"/>
     <use xlink:href="#m35723fbb3d" x="91.158389" y="373.375908" style="stroke: #000000"/>
     <use xlink:href="#m35723fbb3d" x="127.65927" y="325.996374" style="stroke: #000000"/>
     <use xlink:href="#m35723fbb3d" x="89.829524" y="369.514519" style="stroke: #000000"/>
    </g>
   </g>
   <g id="patch_3">
    <path d="M 221.4 51.84 
C 199.559058 51.84 177.930491 56.142189 157.752092 64.500356 
C 137.573692 72.858523 119.237879 85.110122 103.794 100.554 
C 88.350122 115.997879 76.098523 134.333692 67.740356 154.512092 
C 59.382189 174.690491 55.08 196.319058 55.08 218.16 
C 55.08 240.000942 59.382189 261.629509 67.740356 281.807908 
C 76.098523 301.986308 88.350122 320.322121 103.794 335.766 
C 119.237879 351.209878 137.573692 363.461477 157.752092 371.819644 
C 177.930491 380.177811 199.559058 384.48 221.4 384.48 
C 243.240942 384.48 264.869509 380.177811 285.047908 371.819644 
C 305.226308 363.461477 323.562121 351.209878 339.006 335.766 
C 354.449878 320.322121 366.701477 301.986308 375.059644 281.807908 
C 383.417811 261.629509 387.72 240.000942 387.72 218.16 
C 387.72 196.319058 383.417811 174.690491 375.059644 154.512092 
C 366.701477 134.333692 354.449878 115.997879 339.006 100.554 
C 323.562121 85.110122 305.226308 72.858523 285.047908 64.500356 
C 264.869509 56.142189 243.240942 51.84 221.4 51.84 
" style="fill: none; stroke: #ffffff; stroke-width: 1.25; stroke-linejoin: miter; stroke-linecap: square"/>
   </g>
  </g>
 </g>
 <defs>
  <clipPath id="p32e6e0974e">
   <path d="M 387.72 218.16 
C 387.72 196.319058 383.417811 174.690491 375.059644 154.512092 
C 366.701477 134.333692 354.449878 115.997879 339.006 100.554 
C 323.562121 85.110122 305.226308 72.858523 285.047908 64.500356 
C 264.869509 56.142189 243.240942 51.84 221.4 51.84 
C 199.559058 51.84 177.930491 56.142189 157.752092 64.500356 
C 137.573692 72.858523 119.237879 85.110122 103.794 100.554 
C 88.350122 115.997879 76.098523 134.333692 67.740356 154.512092 
C 59.382189 174.690491 55.08 196.319058 55.08 218.16 
C 55.08 240.000942 59.382189 261.629509 67.740356 281.807908 
C 76.098523 301.986308 88.350122 320.322121 103.794 335.766 
C 119.237879 351.209878 137.573692 363.461477 157.752092 371.819644 
C 177.930491 380.177811 199.559058 384.48 221.4 384.48 
C 243.240942 384.48 264.869509 380.177811 285.047908 371.819644 
C 305.226308 363.461477 323.562121 351.209878 339.006 335.766 
C 354.449878 320.322121 366.701477 301.986308 375.059644 281.807908 
C 383.417811 261.629509 387.72 240.000942 387.72 218.16 
M 221.4 218.16 
C 221.4 218.16 221.4 218.16 221.4 218.16 
C 221.4 218.16 221.4 218.16 221.4 218.16 
C 221.4 218.16 221.4 218.16 221.4 218.16 
C 221.4 218.16 221.4 218.16 221.4 218.16 
C 221.4 218.16 221.4 218.16 221.4 218.16 
C 221.4 218.16 221.4 218.16 221.4 218.16 
C 221.4 218.16 221.4 218.16 221.4 218.16 
C 221.4 218.16 221.4 218.16 221.4 218.16 
C 221.4 218.16 221.4 218.16 221.4 218.16 
C 221.4 218.16 221.4 218.16 221.4 218.16 
C 221.4 218.16 221.4 218.16 221.4 218.16 
C 221.4 218.16 221.4 218.16 221.4 218.16 
C 221.4 218.16 221.4 218.16 221.4 218.16 
C 221.4 218.16 221.4 218.16 221.4 218.16 
C 221.4 218.16 221.4 218.16 221.4 218.16 
C 221.4 218.16 221.4 218.16 221.4 218.16 
z
"/>
  </clipPath>
 </defs>
</svg>
