<?xml version="1.0" encoding="utf-8" standalone="no"?>
<!DOCTYPE svg PUBLIC "-//W3C//DTD SVG 1.1//EN"
  "http://www.w3.org/Graphics/SVG/1.1/DTD/svg11.dtd">
<svg xmlns:xlink="http://www.w3.org/1999/xlink" width="432pt" height="432pt" viewBox="0 0 432 432" xmlns="http://www.w3.org/2000/svg" version="1.1">
 <metadata>
  <rdf:RDF xmlns:dc="http://purl.org/dc/elements/1.1/" xmlns:cc="http://creativecommons.org/ns#" xmlns:rdf="http://www.w3.org/1999/02/22-rdf-syntax-ns#">
   <cc:Work>
    <dc:type rdf:resource="http://purl.org/dc/dcmitype/StillImage"/>
    <dc:date>2024-09-06T15:34:08.403064</dc:date>
    <dc:format>image/svg+xml</dc:format>
    <dc:creator>
     <cc:Agent>
      <dc:title>Matplotlib v3.9.1, https://matplotlib.org/</dc:title>
     </cc:Agent>
    </dc:creator>
   </cc:Work>
  </rdf:RDF>
 </metadata>
 <defs>
  <style type="text/css">*{stroke-linejoin: round; stroke-linecap: butt}</style>
 </defs>
 <g id="figure_1">
  <g id="patch_1">
   <path d="M 0 432 
L 432 432 
L 432 0 
L 0 0 
z
" style="fill: #ffffff"/>
  </g>
  <g id="axes_1">
   <g id="patch_2">
    <path d="M 387.72 218.16 
C 387.72 196.319058 383.417811 174.690491 375.059644 154.512092 
C 366.701477 134.333692 354.449878 115.997879 339.006 100.554 
C 323.562121 85.110122 305.226308 72.858523 285.047908 64.500356 
C 264.869509 56.142189 243.240942 51.84 221.4 51.84 
C 199.559058 51.84 177.930491 56.142189 157.752092 64.500356 
C 137.573692 72.858523 119.237879 85.110122 103.794 100.554 
C 88.350122 115.997879 76.098523 134.333692 67.740356 154.512092 
C 59.382189 174.690491 55.08 196.319058 55.08 218.16 
C 55.08 240.000942 59.382189 261.629509 67.740356 281.807908 
C 76.098523 301.986308 88.350122 320.322121 103.794 335.766 
C 119.237879 351.209878 137.573692 363.461477 157.752092 371.819644 
C 177.930491 380.177811 199.559058 384.48 221.4 384.48 
C 243.240942 384.48 264.869509 380.177811 285.047908 371.819644 
C 305.226308 363.461477 323.562121 351.209878 339.006 335.766 
C 354.449878 320.322121 366.701477 301.986308 375.059644 281.807908 
C 383.417811 261.629509 387.72 240.000942 387.72 218.16 
M 221.4 218.16 
C 221.4 218.16 221.4 218.16 221.4 218.16 
C 221.4 218.16 221.4 218.16 221.4 218.16 
C 221.4 218.16 221.4 218.16 221.4 218.16 
C 221.4 218.16 221.4 218.16 221.4 218.16 
C 221.4 218.16 221.4 218.16 221.4 218.16 
C 221.4 218.16 221.4 218.16 221.4 218.16 
C 221.4 218.16 221.4 218.16 221.4 218.16 
C 221.4 218.16 221.4 218.16 221.4 218.16 
C 221.4 218.16 221.4 218.16 221.4 218.16 
C 221.4 218.16 221.4 218.16 221.4 218.16 
C 221.4 218.16 221.4 218.16 221.4 218.16 
C 221.4 218.16 221.4 218.16 221.4 218.16 
C 221.4 218.16 221.4 218.16 221.4 218.16 
C 221.4 218.16 221.4 218.16 221.4 218.16 
C 221.4 218.16 221.4 218.16 221.4 218.16 
C 221.4 218.16 221.4 218.16 221.4 218.16 
z
" style="fill: #eaeaf2"/>
   </g>
   <g id="matplotlib.axis_1">
    <g id="xtick_1">
     <g id="line2d_1">
      <path d="M 221.4 218.16 
L 221.4 51.84 
" clip-path="url(#p4930186b40)" style="fill: none; stroke: #ffffff; stroke-linecap: round"/>
     </g>
     <g id="text_1">
      <!-- 0° -->
      <g style="fill: #262626" transform="translate(216.142344 38.183672) scale(0.11 -0.11)">
       <defs>
        <path id="ArialMT-30" d="M 266 2259 
Q 266 3072 433 3567 
Q 600 4063 929 4331 
Q 1259 4600 1759 4600 
Q 2128 4600 2406 4451 
Q 2684 4303 2865 4023 
Q 3047 3744 3150 3342 
Q 3253 2941 3253 2259 
Q 3253 1453 3087 958 
Q 2922 463 2592 192 
Q 2263 -78 1759 -78 
Q 1097 -78 719 397 
Q 266 969 266 2259 
z
M 844 2259 
Q 844 1131 1108 757 
Q 1372 384 1759 384 
Q 2147 384 2411 759 
Q 2675 1134 2675 2259 
Q 2675 3391 2411 3762 
Q 2147 4134 1753 4134 
Q 1366 4134 1134 3806 
Q 844 3388 844 2259 
z
" transform="scale(0.015625)"/>
        <path id="ArialMT-b0" d="M 400 3794 
Q 400 4153 654 4406 
Q 909 4659 1266 4659 
Q 1628 4659 1881 4406 
Q 2134 4153 2134 3794 
Q 2134 3434 1879 3179 
Q 1625 2925 1266 2925 
Q 909 2925 654 3178 
Q 400 3431 400 3794 
z
M 741 3794 
Q 741 3575 895 3420 
Q 1050 3266 1269 3266 
Q 1484 3266 1639 3420 
Q 1794 3575 1794 3794 
Q 1794 4013 1639 4167 
Q 1484 4322 1269 4322 
Q 1050 4322 895 4167 
Q 741 4013 741 3794 
z
" transform="scale(0.015625)"/>
       </defs>
       <use xlink:href="#ArialMT-30"/>
       <use xlink:href="#ArialMT-b0" x="55.615234"/>
      </g>
     </g>
    </g>
    <g id="xtick_2">
     <g id="line2d_2">
      <path d="M 221.4 218.16 
L 339.006 100.554 
" clip-path="url(#p4930186b40)" style="fill: none; stroke: #ffffff; stroke-linecap: round"/>
     </g>
     <g id="text_2">
      <!-- 45° -->
      <g style="fill: #262626" transform="translate(342.35709 91.73041) scale(0.11 -0.11)">
       <defs>
        <path id="ArialMT-34" d="M 2069 0 
L 2069 1097 
L 81 1097 
L 81 1613 
L 2172 4581 
L 2631 4581 
L 2631 1613 
L 3250 1613 
L 3250 1097 
L 2631 1097 
L 2631 0 
L 2069 0 
z
M 2069 1613 
L 2069 3678 
L 634 1613 
L 2069 1613 
z
" transform="scale(0.015625)"/>
        <path id="ArialMT-35" d="M 266 1200 
L 856 1250 
Q 922 819 1161 601 
Q 1400 384 1738 384 
Q 2144 384 2425 690 
Q 2706 997 2706 1503 
Q 2706 1984 2436 2262 
Q 2166 2541 1728 2541 
Q 1456 2541 1237 2417 
Q 1019 2294 894 2097 
L 366 2166 
L 809 4519 
L 3088 4519 
L 3088 3981 
L 1259 3981 
L 1013 2750 
Q 1425 3038 1878 3038 
Q 2478 3038 2890 2622 
Q 3303 2206 3303 1553 
Q 3303 931 2941 478 
Q 2500 -78 1738 -78 
Q 1113 -78 717 272 
Q 322 622 266 1200 
z
" transform="scale(0.015625)"/>
       </defs>
       <use xlink:href="#ArialMT-34"/>
       <use xlink:href="#ArialMT-35" x="55.615234"/>
       <use xlink:href="#ArialMT-b0" x="111.230469"/>
      </g>
     </g>
    </g>
    <g id="xtick_3">
     <g id="line2d_3">
      <path d="M 221.4 218.16 
L 387.72 218.16 
" clip-path="url(#p4930186b40)" style="fill: none; stroke: #ffffff; stroke-linecap: round"/>
     </g>
     <g id="text_3">
      <!-- 90° -->
      <g style="fill: #262626" transform="translate(395.903828 221.003672) scale(0.11 -0.11)">
       <defs>
        <path id="ArialMT-39" d="M 350 1059 
L 891 1109 
Q 959 728 1153 556 
Q 1347 384 1650 384 
Q 1909 384 2104 503 
Q 2300 622 2425 820 
Q 2550 1019 2634 1356 
Q 2719 1694 2719 2044 
Q 2719 2081 2716 2156 
Q 2547 1888 2255 1720 
Q 1963 1553 1622 1553 
Q 1053 1553 659 1965 
Q 266 2378 266 3053 
Q 266 3750 677 4175 
Q 1088 4600 1706 4600 
Q 2153 4600 2523 4359 
Q 2894 4119 3086 3673 
Q 3278 3228 3278 2384 
Q 3278 1506 3087 986 
Q 2897 466 2520 194 
Q 2144 -78 1638 -78 
Q 1100 -78 759 220 
Q 419 519 350 1059 
z
M 2653 3081 
Q 2653 3566 2395 3850 
Q 2138 4134 1775 4134 
Q 1400 4134 1122 3828 
Q 844 3522 844 3034 
Q 844 2597 1108 2323 
Q 1372 2050 1759 2050 
Q 2150 2050 2401 2323 
Q 2653 2597 2653 3081 
z
" transform="scale(0.015625)"/>
       </defs>
       <use xlink:href="#ArialMT-39"/>
       <use xlink:href="#ArialMT-30" x="55.615234"/>
       <use xlink:href="#ArialMT-b0" x="111.230469"/>
      </g>
     </g>
    </g>
    <g id="xtick_4">
     <g id="line2d_4">
      <path d="M 221.4 218.16 
L 339.006 335.766 
" clip-path="url(#p4930186b40)" style="fill: none; stroke: #ffffff; stroke-linecap: round"/>
     </g>
     <g id="text_4">
      <!-- 135° -->
      <g style="fill: #262626" transform="translate(339.298574 350.276934) scale(0.11 -0.11)">
       <defs>
        <path id="ArialMT-31" d="M 2384 0 
L 1822 0 
L 1822 3584 
Q 1619 3391 1289 3197 
Q 959 3003 697 2906 
L 697 3450 
Q 1169 3672 1522 3987 
Q 1875 4303 2022 4600 
L 2384 4600 
L 2384 0 
z
" transform="scale(0.015625)"/>
        <path id="ArialMT-33" d="M 269 1209 
L 831 1284 
Q 928 806 1161 595 
Q 1394 384 1728 384 
Q 2125 384 2398 659 
Q 2672 934 2672 1341 
Q 2672 1728 2419 1979 
Q 2166 2231 1775 2231 
Q 1616 2231 1378 2169 
L 1441 2663 
Q 1497 2656 1531 2656 
Q 1891 2656 2178 2843 
Q 2466 3031 2466 3422 
Q 2466 3731 2256 3934 
Q 2047 4138 1716 4138 
Q 1388 4138 1169 3931 
Q 950 3725 888 3313 
L 325 3413 
Q 428 3978 793 4289 
Q 1159 4600 1703 4600 
Q 2078 4600 2393 4439 
Q 2709 4278 2876 4000 
Q 3044 3722 3044 3409 
Q 3044 3113 2884 2869 
Q 2725 2625 2413 2481 
Q 2819 2388 3044 2092 
Q 3269 1797 3269 1353 
Q 3269 753 2831 336 
Q 2394 -81 1725 -81 
Q 1122 -81 723 278 
Q 325 638 269 1209 
z
" transform="scale(0.015625)"/>
       </defs>
       <use xlink:href="#ArialMT-31"/>
       <use xlink:href="#ArialMT-33" x="55.615234"/>
       <use xlink:href="#ArialMT-35" x="111.230469"/>
       <use xlink:href="#ArialMT-b0" x="166.845703"/>
      </g>
     </g>
    </g>
    <g id="xtick_5">
     <g id="line2d_5">
      <path d="M 221.4 218.16 
L 221.4 384.48 
" clip-path="url(#p4930186b40)" style="fill: none; stroke: #ffffff; stroke-linecap: round"/>
     </g>
     <g id="text_5">
      <!-- 180° -->
      <g style="fill: #262626" transform="translate(210.025312 403.823672) scale(0.11 -0.11)">
       <defs>
        <path id="ArialMT-38" d="M 1131 2484 
Q 781 2613 612 2850 
Q 444 3088 444 3419 
Q 444 3919 803 4259 
Q 1163 4600 1759 4600 
Q 2359 4600 2725 4251 
Q 3091 3903 3091 3403 
Q 3091 3084 2923 2848 
Q 2756 2613 2416 2484 
Q 2838 2347 3058 2040 
Q 3278 1734 3278 1309 
Q 3278 722 2862 322 
Q 2447 -78 1769 -78 
Q 1091 -78 675 323 
Q 259 725 259 1325 
Q 259 1772 486 2073 
Q 713 2375 1131 2484 
z
M 1019 3438 
Q 1019 3113 1228 2906 
Q 1438 2700 1772 2700 
Q 2097 2700 2305 2904 
Q 2513 3109 2513 3406 
Q 2513 3716 2298 3927 
Q 2084 4138 1766 4138 
Q 1444 4138 1231 3931 
Q 1019 3725 1019 3438 
z
M 838 1322 
Q 838 1081 952 856 
Q 1066 631 1291 507 
Q 1516 384 1775 384 
Q 2178 384 2440 643 
Q 2703 903 2703 1303 
Q 2703 1709 2433 1975 
Q 2163 2241 1756 2241 
Q 1359 2241 1098 1978 
Q 838 1716 838 1322 
z
" transform="scale(0.015625)"/>
       </defs>
       <use xlink:href="#ArialMT-31"/>
       <use xlink:href="#ArialMT-38" x="55.615234"/>
       <use xlink:href="#ArialMT-30" x="111.230469"/>
       <use xlink:href="#ArialMT-b0" x="166.845703"/>
      </g>
     </g>
    </g>
    <g id="xtick_6">
     <g id="line2d_6">
      <path d="M 221.4 218.16 
L 103.794 335.766 
" clip-path="url(#p4930186b40)" style="fill: none; stroke: #ffffff; stroke-linecap: round"/>
     </g>
     <g id="text_6">
      <!-- 225° -->
      <g style="fill: #262626" transform="translate(80.752051 350.276934) scale(0.11 -0.11)">
       <defs>
        <path id="ArialMT-32" d="M 3222 541 
L 3222 0 
L 194 0 
Q 188 203 259 391 
Q 375 700 629 1000 
Q 884 1300 1366 1694 
Q 2113 2306 2375 2664 
Q 2638 3022 2638 3341 
Q 2638 3675 2398 3904 
Q 2159 4134 1775 4134 
Q 1369 4134 1125 3890 
Q 881 3647 878 3216 
L 300 3275 
Q 359 3922 746 4261 
Q 1134 4600 1788 4600 
Q 2447 4600 2831 4234 
Q 3216 3869 3216 3328 
Q 3216 3053 3103 2787 
Q 2991 2522 2730 2228 
Q 2469 1934 1863 1422 
Q 1356 997 1212 845 
Q 1069 694 975 541 
L 3222 541 
z
" transform="scale(0.015625)"/>
       </defs>
       <use xlink:href="#ArialMT-32"/>
       <use xlink:href="#ArialMT-32" x="55.615234"/>
       <use xlink:href="#ArialMT-35" x="111.230469"/>
       <use xlink:href="#ArialMT-b0" x="166.845703"/>
      </g>
     </g>
    </g>
    <g id="xtick_7">
     <g id="line2d_7">
      <path d="M 221.4 218.16 
L 55.08 218.16 
" clip-path="url(#p4930186b40)" style="fill: none; stroke: #ffffff; stroke-linecap: round"/>
     </g>
     <g id="text_7">
      <!-- 270° -->
      <g style="fill: #262626" transform="translate(27.205312 221.003672) scale(0.11 -0.11)">
       <defs>
        <path id="ArialMT-37" d="M 303 3981 
L 303 4522 
L 3269 4522 
L 3269 4084 
Q 2831 3619 2401 2847 
Q 1972 2075 1738 1259 
Q 1569 684 1522 0 
L 944 0 
Q 953 541 1156 1306 
Q 1359 2072 1739 2783 
Q 2119 3494 2547 3981 
L 303 3981 
z
" transform="scale(0.015625)"/>
       </defs>
       <use xlink:href="#ArialMT-32"/>
       <use xlink:href="#ArialMT-37" x="55.615234"/>
       <use xlink:href="#ArialMT-30" x="111.230469"/>
       <use xlink:href="#ArialMT-b0" x="166.845703"/>
      </g>
     </g>
    </g>
    <g id="xtick_8">
     <g id="line2d_8">
      <path d="M 221.4 218.16 
L 103.794 100.554 
" clip-path="url(#p4930186b40)" style="fill: none; stroke: #ffffff; stroke-linecap: round"/>
     </g>
     <g id="text_8">
      <!-- 315° -->
      <g style="fill: #262626" transform="translate(80.752051 91.73041) scale(0.11 -0.11)">
       <use xlink:href="#ArialMT-33"/>
       <use xlink:href="#ArialMT-31" x="55.615234"/>
       <use xlink:href="#ArialMT-35" x="111.230469"/>
       <use xlink:href="#ArialMT-b0" x="166.845703"/>
      </g>
     </g>
    </g>
   </g>
   <g id="matplotlib.axis_2">
    <g id="ytick_1">
     <g id="line2d_9">
      <path d="M 221.4 218.16 
C 221.4 218.16 221.4 218.16 221.4 218.16 
C 221.4 218.16 221.4 218.16 221.4 218.16 
C 221.4 218.16 221.4 218.16 221.4 218.16 
C 221.4 218.16 221.4 218.16 221.4 218.16 
C 221.4 218.16 221.4 218.16 221.4 218.16 
C 221.4 218.16 221.4 218.16 221.4 218.16 
C 221.4 218.16 221.4 218.16 221.4 218.16 
C 221.4 218.16 221.4 218.16 221.4 218.16 
C 221.4 218.16 221.4 218.16 221.4 218.16 
C 221.4 218.16 221.4 218.16 221.4 218.16 
C 221.4 218.16 221.4 218.16 221.4 218.16 
C 221.4 218.16 221.4 218.16 221.4 218.16 
C 221.4 218.16 221.4 218.16 221.4 218.16 
C 221.4 218.16 221.4 218.16 221.4 218.16 
C 221.4 218.16 221.4 218.16 221.4 218.16 
C 221.4 218.16 221.4 218.16 221.4 218.16 
" clip-path="url(#p4930186b40)" style="fill: none; stroke: #ffffff; stroke-linecap: round"/>
     </g>
     <g id="text_9">
      <!-- 0.0 -->
      <g style="fill: #dc143c" transform="translate(221.4 215.97375) scale(0.11 -0.11)">
       <defs>
        <path id="ArialMT-2e" d="M 581 0 
L 581 641 
L 1222 641 
L 1222 0 
L 581 0 
z
" transform="scale(0.015625)"/>
       </defs>
       <use xlink:href="#ArialMT-30"/>
       <use xlink:href="#ArialMT-2e" x="55.615234"/>
       <use xlink:href="#ArialMT-30" x="83.398438"/>
      </g>
     </g>
    </g>
    <g id="ytick_2">
     <g id="line2d_10">
      <path d="M 221.4 197.37 
C 224.130118 197.37 226.833689 197.907774 229.355989 198.952545 
C 231.878289 199.997315 234.170265 201.528765 236.10075 203.45925 
C 238.031235 205.389735 239.562685 207.681711 240.607455 210.204011 
C 241.652226 212.726311 242.19 215.429882 242.19 218.16 
C 242.19 220.890118 241.652226 223.593689 240.607455 226.115989 
C 239.562685 228.638289 238.031235 230.930265 236.10075 232.86075 
C 234.170265 234.791235 231.878289 236.322685 229.355989 237.367455 
C 226.833689 238.412226 224.130118 238.95 221.4 238.95 
C 218.669882 238.95 215.966311 238.412226 213.444011 237.367455 
C 210.921711 236.322685 208.629735 234.791235 206.69925 232.86075 
C 204.768765 230.930265 203.237315 228.638289 202.192545 226.115989 
C 201.147774 223.593689 200.61 220.890118 200.61 218.16 
C 200.61 215.429882 201.147774 212.726311 202.192545 210.204011 
C 203.237315 207.681711 204.768765 205.389735 206.69925 203.45925 
C 208.629735 201.528765 210.921711 199.997315 213.444011 198.952545 
C 215.966311 197.907774 218.669882 197.37 221.4 197.37 
" clip-path="url(#p4930186b40)" style="fill: none; stroke: #ffffff; stroke-linecap: round"/>
     </g>
     <g id="text_10">
      <!-- 0.1 -->
      <g style="fill: #dc143c" transform="translate(229.355989 196.766295) scale(0.11 -0.11)">
       <use xlink:href="#ArialMT-30"/>
       <use xlink:href="#ArialMT-2e" x="55.615234"/>
       <use xlink:href="#ArialMT-31" x="83.398438"/>
      </g>
     </g>
    </g>
    <g id="ytick_3">
     <g id="line2d_11">
      <path d="M 221.4 176.58 
C 226.860236 176.58 232.267377 177.655547 237.311977 179.745089 
C 242.356577 181.834631 246.94053 184.89753 250.8015 188.7585 
C 254.66247 192.61947 257.725369 197.203423 259.814911 202.248023 
C 261.904453 207.292623 262.98 212.699764 262.98 218.16 
C 262.98 223.620236 261.904453 229.027377 259.814911 234.071977 
C 257.725369 239.116577 254.66247 243.70053 250.8015 247.5615 
C 246.94053 251.42247 242.356577 254.485369 237.311977 256.574911 
C 232.267377 258.664453 226.860236 259.74 221.4 259.74 
C 215.939764 259.74 210.532623 258.664453 205.488023 256.574911 
C 200.443423 254.485369 195.85947 251.42247 191.9985 247.5615 
C 188.13753 243.70053 185.074631 239.116577 182.985089 234.071977 
C 180.895547 229.027377 179.82 223.620236 179.82 218.16 
C 179.82 212.699764 180.895547 207.292623 182.985089 202.248023 
C 185.074631 197.203423 188.13753 192.61947 191.9985 188.7585 
C 195.85947 184.89753 200.443423 181.834631 205.488023 179.745089 
C 210.532623 177.655547 215.939764 176.58 221.4 176.58 
" clip-path="url(#p4930186b40)" style="fill: none; stroke: #ffffff; stroke-linecap: round"/>
     </g>
     <g id="text_11">
      <!-- 0.2 -->
      <g style="fill: #dc143c" transform="translate(237.311977 177.558839) scale(0.11 -0.11)">
       <use xlink:href="#ArialMT-30"/>
       <use xlink:href="#ArialMT-2e" x="55.615234"/>
       <use xlink:href="#ArialMT-32" x="83.398438"/>
      </g>
     </g>
    </g>
    <g id="ytick_4">
     <g id="line2d_12">
      <path d="M 221.4 155.79 
C 229.590353 155.79 237.701066 157.403321 245.267966 160.537634 
C 252.834866 163.671946 259.710796 168.266296 265.50225 174.05775 
C 271.293704 179.849204 275.888054 186.725134 279.022366 194.292034 
C 282.156679 201.858934 283.77 209.969647 283.77 218.16 
C 283.77 226.350353 282.156679 234.461066 279.022366 242.027966 
C 275.888054 249.594866 271.293704 256.470796 265.50225 262.26225 
C 259.710796 268.053704 252.834866 272.648054 245.267966 275.782366 
C 237.701066 278.916679 229.590353 280.53 221.4 280.53 
C 213.209647 280.53 205.098934 278.916679 197.532034 275.782366 
C 189.965134 272.648054 183.089204 268.053704 177.29775 262.26225 
C 171.506296 256.470796 166.911946 249.594866 163.777634 242.027966 
C 160.643321 234.461066 159.03 226.350353 159.03 218.16 
C 159.03 209.969647 160.643321 201.858934 163.777634 194.292034 
C 166.911946 186.725134 171.506296 179.849204 177.29775 174.05775 
C 183.089204 168.266296 189.965134 163.671946 197.532034 160.537634 
C 205.098934 157.403321 213.209647 155.79 221.4 155.79 
" clip-path="url(#p4930186b40)" style="fill: none; stroke: #ffffff; stroke-linecap: round"/>
     </g>
     <g id="text_12">
      <!-- 0.3 -->
      <g style="fill: #dc143c" transform="translate(245.267966 158.351384) scale(0.11 -0.11)">
       <use xlink:href="#ArialMT-30"/>
       <use xlink:href="#ArialMT-2e" x="55.615234"/>
       <use xlink:href="#ArialMT-33" x="83.398438"/>
      </g>
     </g>
    </g>
    <g id="ytick_5">
     <g id="line2d_13">
      <path d="M 221.4 135 
C 232.320471 135 243.134754 137.151095 253.223954 141.330178 
C 263.313154 145.509261 272.481061 151.635061 280.203 159.357 
C 287.924939 167.078939 294.050739 176.246846 298.229822 186.336046 
C 302.408905 196.425246 304.56 207.239529 304.56 218.16 
C 304.56 229.080471 302.408905 239.894754 298.229822 249.983954 
C 294.050739 260.073154 287.924939 269.241061 280.203 276.963 
C 272.481061 284.684939 263.313154 290.810739 253.223954 294.989822 
C 243.134754 299.168905 232.320471 301.32 221.4 301.32 
C 210.479529 301.32 199.665246 299.168905 189.576046 294.989822 
C 179.486846 290.810739 170.318939 284.684939 162.597 276.963 
C 154.875061 269.241061 148.749261 260.073154 144.570178 249.983954 
C 140.391095 239.894754 138.24 229.080471 138.24 218.16 
C 138.24 207.239529 140.391095 196.425246 144.570178 186.336046 
C 148.749261 176.246846 154.875061 167.078939 162.597 159.357 
C 170.318939 151.635061 179.486846 145.509261 189.576046 141.330178 
C 199.665246 137.151095 210.479529 135 221.4 135 
" clip-path="url(#p4930186b40)" style="fill: none; stroke: #ffffff; stroke-linecap: round"/>
     </g>
     <g id="text_13">
      <!-- 0.4 -->
      <g style="fill: #dc143c" transform="translate(253.223954 139.143928) scale(0.11 -0.11)">
       <use xlink:href="#ArialMT-30"/>
       <use xlink:href="#ArialMT-2e" x="55.615234"/>
       <use xlink:href="#ArialMT-34" x="83.398438"/>
      </g>
     </g>
    </g>
    <g id="ytick_6">
     <g id="line2d_14">
      <path d="M 221.4 114.21 
C 235.050589 114.21 248.568443 116.898868 261.179943 122.122723 
C 273.791443 127.346577 285.251326 135.003826 294.90375 144.65625 
C 304.556174 154.308674 312.213423 165.768557 317.437277 178.380057 
C 322.661132 190.991557 325.35 204.509411 325.35 218.16 
C 325.35 231.810589 322.661132 245.328443 317.437277 257.939943 
C 312.213423 270.551443 304.556174 282.011326 294.90375 291.66375 
C 285.251326 301.316174 273.791443 308.973423 261.179943 314.197277 
C 248.568443 319.421132 235.050589 322.11 221.4 322.11 
C 207.749411 322.11 194.231557 319.421132 181.620057 314.197277 
C 169.008557 308.973423 157.548674 301.316174 147.89625 291.66375 
C 138.243826 282.011326 130.586577 270.551443 125.362723 257.939943 
C 120.138868 245.328443 117.45 231.810589 117.45 218.16 
C 117.45 204.509411 120.138868 190.991557 125.362723 178.380057 
C 130.586577 165.768557 138.243826 154.308674 147.89625 144.65625 
C 157.548674 135.003826 169.008557 127.346577 181.620057 122.122723 
C 194.231557 116.898868 207.749411 114.21 221.4 114.21 
" clip-path="url(#p4930186b40)" style="fill: none; stroke: #ffffff; stroke-linecap: round"/>
     </g>
     <g id="text_14">
      <!-- 0.5 -->
      <g style="fill: #dc143c" transform="translate(261.179943 119.936473) scale(0.11 -0.11)">
       <use xlink:href="#ArialMT-30"/>
       <use xlink:href="#ArialMT-2e" x="55.615234"/>
       <use xlink:href="#ArialMT-35" x="83.398438"/>
      </g>
     </g>
    </g>
    <g id="ytick_7">
     <g id="line2d_15">
      <path d="M 221.4 93.42 
C 237.780707 93.42 254.002132 96.646642 269.135931 102.915267 
C 284.269731 109.183892 298.021591 118.372591 309.6045 129.9555 
C 321.187409 141.538409 330.376108 155.290269 336.644733 170.424069 
C 342.913358 185.557868 346.14 201.779293 346.14 218.16 
C 346.14 234.540707 342.913358 250.762132 336.644733 265.895931 
C 330.376108 281.029731 321.187409 294.781591 309.6045 306.3645 
C 298.021591 317.947409 284.269731 327.136108 269.135931 333.404733 
C 254.002132 339.673358 237.780707 342.9 221.4 342.9 
C 205.019293 342.9 188.797868 339.673358 173.664069 333.404733 
C 158.530269 327.136108 144.778409 317.947409 133.1955 306.3645 
C 121.612591 294.781591 112.423892 281.029731 106.155267 265.895931 
C 99.886642 250.762132 96.66 234.540707 96.66 218.16 
C 96.66 201.779293 99.886642 185.557868 106.155267 170.424069 
C 112.423892 155.290269 121.612591 141.538409 133.1955 129.9555 
C 144.778409 118.372591 158.530269 109.183892 173.664069 102.915267 
C 188.797868 96.646642 205.019293 93.42 221.4 93.42 
" clip-path="url(#p4930186b40)" style="fill: none; stroke: #ffffff; stroke-linecap: round"/>
     </g>
     <g id="text_15">
      <!-- 0.6 -->
      <g style="fill: #dc143c" transform="translate(269.135931 100.729017) scale(0.11 -0.11)">
       <defs>
        <path id="ArialMT-36" d="M 3184 3459 
L 2625 3416 
Q 2550 3747 2413 3897 
Q 2184 4138 1850 4138 
Q 1581 4138 1378 3988 
Q 1113 3794 959 3422 
Q 806 3050 800 2363 
Q 1003 2672 1297 2822 
Q 1591 2972 1913 2972 
Q 2475 2972 2870 2558 
Q 3266 2144 3266 1488 
Q 3266 1056 3080 686 
Q 2894 316 2569 119 
Q 2244 -78 1831 -78 
Q 1128 -78 684 439 
Q 241 956 241 2144 
Q 241 3472 731 4075 
Q 1159 4600 1884 4600 
Q 2425 4600 2770 4297 
Q 3116 3994 3184 3459 
z
M 888 1484 
Q 888 1194 1011 928 
Q 1134 663 1356 523 
Q 1578 384 1822 384 
Q 2178 384 2434 671 
Q 2691 959 2691 1453 
Q 2691 1928 2437 2201 
Q 2184 2475 1800 2475 
Q 1419 2475 1153 2201 
Q 888 1928 888 1484 
z
" transform="scale(0.015625)"/>
       </defs>
       <use xlink:href="#ArialMT-30"/>
       <use xlink:href="#ArialMT-2e" x="55.615234"/>
       <use xlink:href="#ArialMT-36" x="83.398438"/>
      </g>
     </g>
    </g>
    <g id="ytick_8">
     <g id="line2d_16">
      <path d="M 221.4 72.63 
C 240.510824 72.63 259.43582 76.394416 277.09192 83.707812 
C 294.74802 91.021208 310.791856 101.741357 324.30525 115.25475 
C 337.818643 128.768144 348.538792 144.81198 355.852188 162.46808 
C 363.165584 180.12418 366.93 199.049176 366.93 218.16 
C 366.93 237.270824 363.165584 256.19582 355.852188 273.85192 
C 348.538792 291.50802 337.818643 307.551856 324.30525 321.06525 
C 310.791856 334.578643 294.74802 345.298792 277.09192 352.612188 
C 259.43582 359.925584 240.510824 363.69 221.4 363.69 
C 202.289176 363.69 183.36418 359.925584 165.70808 352.612188 
C 148.05198 345.298792 132.008144 334.578643 118.49475 321.06525 
C 104.981357 307.551856 94.261208 291.50802 86.947812 273.85192 
C 79.634416 256.19582 75.87 237.270824 75.87 218.16 
C 75.87 199.049176 79.634416 180.12418 86.947812 162.46808 
C 94.261208 144.81198 104.981357 128.768144 118.49475 115.25475 
C 132.008144 101.741357 148.05198 91.021208 165.70808 83.707812 
C 183.36418 76.394416 202.289176 72.63 221.4 72.63 
" clip-path="url(#p4930186b40)" style="fill: none; stroke: #ffffff; stroke-linecap: round"/>
     </g>
     <g id="text_16">
      <!-- 0.7 -->
      <g style="fill: #dc143c" transform="translate(277.09192 81.521562) scale(0.11 -0.11)">
       <use xlink:href="#ArialMT-30"/>
       <use xlink:href="#ArialMT-2e" x="55.615234"/>
       <use xlink:href="#ArialMT-37" x="83.398438"/>
      </g>
     </g>
    </g>
    <g id="ytick_9">
     <g id="line2d_17">
      <path d="M 221.4 51.84 
C 243.240942 51.84 264.869509 56.142189 285.047908 64.500356 
C 305.226308 72.858523 323.562121 85.110122 339.006 100.554 
C 354.449878 115.997879 366.701477 134.333692 375.059644 154.512092 
C 383.417811 174.690491 387.72 196.319058 387.72 218.16 
C 387.72 240.000942 383.417811 261.629509 375.059644 281.807908 
C 366.701477 301.986308 354.449878 320.322121 339.006 335.766 
C 323.562121 351.209878 305.226308 363.461477 285.047908 371.819644 
C 264.869509 380.177811 243.240942 384.48 221.4 384.48 
C 199.559058 384.48 177.930491 380.177811 157.752092 371.819644 
C 137.573692 363.461477 119.237879 351.209878 103.794 335.766 
C 88.350122 320.322121 76.098523 301.986308 67.740356 281.807908 
C 59.382189 261.629509 55.08 240.000942 55.08 218.16 
C 55.08 196.319058 59.382189 174.690491 67.740356 154.512092 
C 76.098523 134.333692 88.350122 115.997879 103.794 100.554 
C 119.237879 85.110122 137.573692 72.858523 157.752092 64.500356 
C 177.930491 56.142189 199.559058 51.84 221.4 51.84 
" clip-path="url(#p4930186b40)" style="fill: none; stroke: #ffffff; stroke-linecap: round"/>
     </g>
     <g id="text_17">
      <!-- 0.8 -->
      <g style="fill: #dc143c" transform="translate(285.047908 62.314106) scale(0.11 -0.11)">
       <use xlink:href="#ArialMT-30"/>
       <use xlink:href="#ArialMT-2e" x="55.615234"/>
       <use xlink:href="#ArialMT-38" x="83.398438"/>
      </g>
     </g>
    </g>
   </g>
   <g id="line2d_18">
    <defs>
     <path id="mdc2820c423" d="M 0 0.5 
C 0.132602 0.5 0.25979 0.447317 0.353553 0.353553 
C 0.447317 0.25979 0.5 0.132602 0.5 0 
C 0.5 -0.132602 0.447317 -0.25979 0.353553 -0.353553 
C 0.25979 -0.447317 0.132602 -0.5 0 -0.5 
C -0.132602 -0.5 -0.25979 -0.447317 -0.353553 -0.353553 
C -0.447317 -0.25979 -0.5 -0.132602 -0.5 0 
C -0.5 0.132602 -0.447317 0.25979 -0.353553 0.353553 
C -0.25979 0.447317 -0.132602 0.5 0 0.5 
z
" style="stroke: #000000"/>
    </defs>
    <g clip-path="url(#p4930186b40)">
     <use xlink:href="#mdc2820c423" x="219.730957" y="313.779434" style="stroke: #000000"/>
     <use xlink:href="#mdc2820c423" x="218.062422" y="313.735742" style="stroke: #000000"/>
     <use xlink:href="#mdc2820c423" x="216.394903" y="313.662937" style="stroke: #000000"/>
     <use xlink:href="#mdc2820c423" x="214.728909" y="313.56104" style="stroke: #000000"/>
     <use xlink:href="#mdc2820c423" x="213.064948" y="313.430084" style="stroke: #000000"/>
     <use xlink:href="#mdc2820c423" x="211.403525" y="313.270107" style="stroke: #000000"/>
     <use xlink:href="#mdc2820c423" x="209.745147" y="313.081159" style="stroke: #000000"/>
     <use xlink:href="#mdc2820c423" x="208.09032" y="312.863296" style="stroke: #000000"/>
     <use xlink:href="#mdc2820c423" x="206.439546" y="312.616587" style="stroke: #000000"/>
     <use xlink:href="#mdc2820c423" x="204.79333" y="312.341105" style="stroke: #000000"/>
     <use xlink:href="#mdc2820c423" x="203.152173" y="312.036934" style="stroke: #000000"/>
     <use xlink:href="#mdc2820c423" x="201.516573" y="311.704168" style="stroke: #000000"/>
     <use xlink:href="#mdc2820c423" x="199.887031" y="311.342907" style="stroke: #000000"/>
     <use xlink:href="#mdc2820c423" x="198.264041" y="310.953261" style="stroke: #000000"/>
     <use xlink:href="#mdc2820c423" x="196.648099" y="310.53535" style="stroke: #000000"/>
     <use xlink:href="#mdc2820c423" x="195.612747" y="308.090838" style="stroke: #000000"/>
     <use xlink:href="#mdc2820c423" x="194.047165" y="307.627091" style="stroke: #000000"/>
     <use xlink:href="#mdc2820c423" x="192.489915" y="307.136092" style="stroke: #000000"/>
     <use xlink:href="#mdc2820c423" x="190.941471" y="306.61799" style="stroke: #000000"/>
     <use xlink:href="#mdc2820c423" x="189.402305" y="306.072943" style="stroke: #000000"/>
     <use xlink:href="#mdc2820c423" x="187.872886" y="305.501117" style="stroke: #000000"/>
     <use xlink:href="#mdc2820c423" x="186.35368" y="304.902686" style="stroke: #000000"/>
     <use xlink:href="#mdc2820c423" x="184.845149" y="304.277832" style="stroke: #000000"/>
     <use xlink:href="#mdc2820c423" x="183.347753" y="303.626745" style="stroke: #000000"/>
     <use xlink:href="#mdc2820c423" x="181.861949" y="302.949625" style="stroke: #000000"/>
     <use xlink:href="#mdc2820c423" x="180.388187" y="302.246677" style="stroke: #000000"/>
     <use xlink:href="#mdc2820c423" x="178.926919" y="301.518115" style="stroke: #000000"/>
     <use xlink:href="#mdc2820c423" x="177.478588" y="300.764162" style="stroke: #000000"/>
     <use xlink:href="#mdc2820c423" x="176.043636" y="299.985047" style="stroke: #000000"/>
     <use xlink:href="#mdc2820c423" x="174.6225" y="299.181007" style="stroke: #000000"/>
     <use xlink:href="#mdc2820c423" x="173.215613" y="298.352287" style="stroke: #000000"/>
     <use xlink:href="#mdc2820c423" x="171.823403" y="297.49914" style="stroke: #000000"/>
     <use xlink:href="#mdc2820c423" x="170.446295" y="296.621825" style="stroke: #000000"/>
     <use xlink:href="#mdc2820c423" x="169.084708" y="295.72061" style="stroke: #000000"/>
     <use xlink:href="#mdc2820c423" x="167.739056" y="294.79577" style="stroke: #000000"/>
     <use xlink:href="#mdc2820c423" x="166.409751" y="293.847585" style="stroke: #000000"/>
     <use xlink:href="#mdc2820c423" x="165.097196" y="292.876345" style="stroke: #000000"/>
     <use xlink:href="#mdc2820c423" x="163.801791" y="291.882346" style="stroke: #000000"/>
     <use xlink:href="#mdc2820c423" x="162.523931" y="290.86589" style="stroke: #000000"/>
     <use xlink:href="#mdc2820c423" x="161.264005" y="289.827288" style="stroke: #000000"/>
     <use xlink:href="#mdc2820c423" x="160.022398" y="288.766855" style="stroke: #000000"/>
     <use xlink:href="#mdc2820c423" x="158.799486" y="287.684914" style="stroke: #000000"/>
     <use xlink:href="#mdc2820c423" x="157.595643" y="286.581796" style="stroke: #000000"/>
     <use xlink:href="#mdc2820c423" x="156.411236" y="285.457835" style="stroke: #000000"/>
     <use xlink:href="#mdc2820c423" x="155.246625" y="284.313375" style="stroke: #000000"/>
     <use xlink:href="#mdc2820c423" x="154.102165" y="283.148764" style="stroke: #000000"/>
     <use xlink:href="#mdc2820c423" x="152.978204" y="281.964357" style="stroke: #000000"/>
     <use xlink:href="#mdc2820c423" x="151.875086" y="280.760514" style="stroke: #000000"/>
     <use xlink:href="#mdc2820c423" x="150.793145" y="279.537602" style="stroke: #000000"/>
     <use xlink:href="#mdc2820c423" x="149.732712" y="278.295995" style="stroke: #000000"/>
     <use xlink:href="#mdc2820c423" x="148.69411" y="277.036069" style="stroke: #000000"/>
     <use xlink:href="#mdc2820c423" x="147.677654" y="275.758209" style="stroke: #000000"/>
     <use xlink:href="#mdc2820c423" x="146.683655" y="274.462804" style="stroke: #000000"/>
     <use xlink:href="#mdc2820c423" x="145.712415" y="273.150249" style="stroke: #000000"/>
     <use xlink:href="#mdc2820c423" x="144.76423" y="271.820944" style="stroke: #000000"/>
     <use xlink:href="#mdc2820c423" x="143.83939" y="270.475292" style="stroke: #000000"/>
     <use xlink:href="#mdc2820c423" x="142.938175" y="269.113705" style="stroke: #000000"/>
     <use xlink:href="#mdc2820c423" x="142.06086" y="267.736597" style="stroke: #000000"/>
     <use xlink:href="#mdc2820c423" x="141.207713" y="266.344387" style="stroke: #000000"/>
     <use xlink:href="#mdc2820c423" x="140.378993" y="264.9375" style="stroke: #000000"/>
     <use xlink:href="#mdc2820c423" x="139.574953" y="263.516364" style="stroke: #000000"/>
     <use xlink:href="#mdc2820c423" x="138.795838" y="262.081412" style="stroke: #000000"/>
     <use xlink:href="#mdc2820c423" x="138.041885" y="260.633081" style="stroke: #000000"/>
     <use xlink:href="#mdc2820c423" x="137.313323" y="259.171813" style="stroke: #000000"/>
     <use xlink:href="#mdc2820c423" x="136.610375" y="257.698051" style="stroke: #000000"/>
     <use xlink:href="#mdc2820c423" x="135.933255" y="256.212247" style="stroke: #000000"/>
     <use xlink:href="#mdc2820c423" x="135.282168" y="254.714851" style="stroke: #000000"/>
     <use xlink:href="#mdc2820c423" x="134.657314" y="253.20632" style="stroke: #000000"/>
     <use xlink:href="#mdc2820c423" x="134.058883" y="251.687114" style="stroke: #000000"/>
     <use xlink:href="#mdc2820c423" x="133.487057" y="250.157695" style="stroke: #000000"/>
     <use xlink:href="#mdc2820c423" x="132.94201" y="248.618529" style="stroke: #000000"/>
     <use xlink:href="#mdc2820c423" x="132.423908" y="247.070085" style="stroke: #000000"/>
     <use xlink:href="#mdc2820c423" x="131.932909" y="245.512835" style="stroke: #000000"/>
     <use xlink:href="#mdc2820c423" x="131.469162" y="243.947253" style="stroke: #000000"/>
     <use xlink:href="#mdc2820c423" x="131.032809" y="242.373816" style="stroke: #000000"/>
     <use xlink:href="#mdc2820c423" x="130.623983" y="240.793003" style="stroke: #000000"/>
     <use xlink:href="#mdc2820c423" x="130.242809" y="239.205296" style="stroke: #000000"/>
     <use xlink:href="#mdc2820c423" x="129.889401" y="237.611178" style="stroke: #000000"/>
     <use xlink:href="#mdc2820c423" x="129.563869" y="236.011136" style="stroke: #000000"/>
     <use xlink:href="#mdc2820c423" x="129.266311" y="234.405655" style="stroke: #000000"/>
     <use xlink:href="#mdc2820c423" x="128.996817" y="232.795226" style="stroke: #000000"/>
     <use xlink:href="#mdc2820c423" x="128.755471" y="231.180339" style="stroke: #000000"/>
     <use xlink:href="#mdc2820c423" x="128.542345" y="229.561486" style="stroke: #000000"/>
     <use xlink:href="#mdc2820c423" x="128.357504" y="227.93916" style="stroke: #000000"/>
     <use xlink:href="#mdc2820c423" x="128.201005" y="226.313856" style="stroke: #000000"/>
     <use xlink:href="#mdc2820c423" x="128.072895" y="224.686067" style="stroke: #000000"/>
     <use xlink:href="#mdc2820c423" x="127.973214" y="223.05629" style="stroke: #000000"/>
     <use xlink:href="#mdc2820c423" x="127.901991" y="221.425022" style="stroke: #000000"/>
     <use xlink:href="#mdc2820c423" x="127.859249" y="219.79276" style="stroke: #000000"/>
     <use xlink:href="#mdc2820c423" x="127.845" y="218.16" style="stroke: #000000"/>
     <use xlink:href="#mdc2820c423" x="127.859249" y="216.52724" style="stroke: #000000"/>
     <use xlink:href="#mdc2820c423" x="127.901991" y="214.894978" style="stroke: #000000"/>
     <use xlink:href="#mdc2820c423" x="127.973214" y="213.26371" style="stroke: #000000"/>
     <use xlink:href="#mdc2820c423" x="128.072895" y="211.633933" style="stroke: #000000"/>
     <use xlink:href="#mdc2820c423" x="128.201005" y="210.006144" style="stroke: #000000"/>
     <use xlink:href="#mdc2820c423" x="128.357504" y="208.38084" style="stroke: #000000"/>
     <use xlink:href="#mdc2820c423" x="128.542345" y="206.758514" style="stroke: #000000"/>
     <use xlink:href="#mdc2820c423" x="128.755471" y="205.139661" style="stroke: #000000"/>
     <use xlink:href="#mdc2820c423" x="128.996817" y="203.524774" style="stroke: #000000"/>
     <use xlink:href="#mdc2820c423" x="129.266311" y="201.914345" style="stroke: #000000"/>
     <use xlink:href="#mdc2820c423" x="129.563869" y="200.308864" style="stroke: #000000"/>
     <use xlink:href="#mdc2820c423" x="127.855832" y="198.276573" style="stroke: #000000"/>
     <use xlink:href="#mdc2820c423" x="128.217093" y="196.647031" style="stroke: #000000"/>
     <use xlink:href="#mdc2820c423" x="128.606739" y="195.024041" style="stroke: #000000"/>
     <use xlink:href="#mdc2820c423" x="129.02465" y="193.408099" style="stroke: #000000"/>
     <use xlink:href="#mdc2820c423" x="129.470699" y="191.799697" style="stroke: #000000"/>
     <use xlink:href="#mdc2820c423" x="129.944751" y="190.199324" style="stroke: #000000"/>
     <use xlink:href="#mdc2820c423" x="130.446661" y="188.607469" style="stroke: #000000"/>
     <use xlink:href="#mdc2820c423" x="130.976277" y="187.024615" style="stroke: #000000"/>
     <use xlink:href="#mdc2820c423" x="131.533436" y="185.451246" style="stroke: #000000"/>
     <use xlink:href="#mdc2820c423" x="132.117969" y="183.88784" style="stroke: #000000"/>
     <use xlink:href="#mdc2820c423" x="132.729699" y="182.334873" style="stroke: #000000"/>
     <use xlink:href="#mdc2820c423" x="133.368439" y="180.792819" style="stroke: #000000"/>
     <use xlink:href="#mdc2820c423" x="134.033994" y="179.262148" style="stroke: #000000"/>
     <use xlink:href="#mdc2820c423" x="134.726161" y="177.743325" style="stroke: #000000"/>
     <use xlink:href="#mdc2820c423" x="135.44473" y="176.236814" style="stroke: #000000"/>
     <use xlink:href="#mdc2820c423" x="136.189482" y="174.743073" style="stroke: #000000"/>
     <use xlink:href="#mdc2820c423" x="136.96019" y="173.262557" style="stroke: #000000"/>
     <use xlink:href="#mdc2820c423" x="137.756619" y="171.795717" style="stroke: #000000"/>
     <use xlink:href="#mdc2820c423" x="138.578527" y="170.343" style="stroke: #000000"/>
     <use xlink:href="#mdc2820c423" x="139.425662" y="168.904849" style="stroke: #000000"/>
     <use xlink:href="#mdc2820c423" x="140.297768" y="167.481701" style="stroke: #000000"/>
     <use xlink:href="#mdc2820c423" x="141.194579" y="166.073991" style="stroke: #000000"/>
     <use xlink:href="#mdc2820c423" x="142.115821" y="164.682146" style="stroke: #000000"/>
     <use xlink:href="#mdc2820c423" x="143.061213" y="163.306591" style="stroke: #000000"/>
     <use xlink:href="#mdc2820c423" x="144.030469" y="161.947745" style="stroke: #000000"/>
     <use xlink:href="#mdc2820c423" x="145.023292" y="160.606022" style="stroke: #000000"/>
     <use xlink:href="#mdc2820c423" x="146.03938" y="159.28183" style="stroke: #000000"/>
     <use xlink:href="#mdc2820c423" x="147.078423" y="157.975574" style="stroke: #000000"/>
     <use xlink:href="#mdc2820c423" x="148.140106" y="156.68765" style="stroke: #000000"/>
     <use xlink:href="#mdc2820c423" x="149.224104" y="155.418451" style="stroke: #000000"/>
     <use xlink:href="#mdc2820c423" x="150.330088" y="154.168364" style="stroke: #000000"/>
     <use xlink:href="#mdc2820c423" x="149.937236" y="151.519894" style="stroke: #000000"/>
     <use xlink:href="#mdc2820c423" x="151.11115" y="150.282847" style="stroke: #000000"/>
     <use xlink:href="#mdc2820c423" x="152.306475" y="149.066475" style="stroke: #000000"/>
     <use xlink:href="#mdc2820c423" x="153.522847" y="147.87115" style="stroke: #000000"/>
     <use xlink:href="#mdc2820c423" x="154.759894" y="146.697236" style="stroke: #000000"/>
     <use xlink:href="#mdc2820c423" x="156.017241" y="145.54509" style="stroke: #000000"/>
     <use xlink:href="#mdc2820c423" x="155.930557" y="142.846022" style="stroke: #000000"/>
     <use xlink:href="#mdc2820c423" x="157.254939" y="141.714893" style="stroke: #000000"/>
     <use xlink:href="#mdc2820c423" x="158.59886" y="140.60705" style="stroke: #000000"/>
     <use xlink:href="#mdc2820c423" x="159.96191" y="139.522831" style="stroke: #000000"/>
     <use xlink:href="#mdc2820c423" x="161.343675" y="138.462565" style="stroke: #000000"/>
     <use xlink:href="#mdc2820c423" x="162.743734" y="137.426576" style="stroke: #000000"/>
     <use xlink:href="#mdc2820c423" x="164.16166" y="136.415179" style="stroke: #000000"/>
     <use xlink:href="#mdc2820c423" x="165.597022" y="135.428683" style="stroke: #000000"/>
     <use xlink:href="#mdc2820c423" x="167.049381" y="134.467387" style="stroke: #000000"/>
     <use xlink:href="#mdc2820c423" x="168.518297" y="133.531584" style="stroke: #000000"/>
     <use xlink:href="#mdc2820c423" x="170.00332" y="132.621561" style="stroke: #000000"/>
     <use xlink:href="#mdc2820c423" x="171.504" y="131.737593" style="stroke: #000000"/>
     <use xlink:href="#mdc2820c423" x="173.019878" y="130.87995" style="stroke: #000000"/>
     <use xlink:href="#mdc2820c423" x="174.550494" y="130.048894" style="stroke: #000000"/>
     <use xlink:href="#mdc2820c423" x="176.09538" y="129.244677" style="stroke: #000000"/>
     <use xlink:href="#mdc2820c423" x="177.654067" y="128.467545" style="stroke: #000000"/>
     <use xlink:href="#mdc2820c423" x="179.226078" y="127.717733" style="stroke: #000000"/>
     <use xlink:href="#mdc2820c423" x="180.810937" y="126.995472" style="stroke: #000000"/>
     <use xlink:href="#mdc2820c423" x="182.408159" y="126.30098" style="stroke: #000000"/>
     <use xlink:href="#mdc2820c423" x="184.017259" y="125.634469" style="stroke: #000000"/>
     <use xlink:href="#mdc2820c423" x="185.637746" y="124.996142" style="stroke: #000000"/>
     <use xlink:href="#mdc2820c423" x="187.269126" y="124.386194" style="stroke: #000000"/>
     <use xlink:href="#mdc2820c423" x="188.910903" y="123.80481" style="stroke: #000000"/>
     <use xlink:href="#mdc2820c423" x="190.562576" y="123.252168" style="stroke: #000000"/>
     <use xlink:href="#mdc2820c423" x="192.223643" y="122.728436" style="stroke: #000000"/>
     <use xlink:href="#mdc2820c423" x="193.893597" y="122.233773" style="stroke: #000000"/>
     <use xlink:href="#mdc2820c423" x="195.57193" y="121.76833" style="stroke: #000000"/>
     <use xlink:href="#mdc2820c423" x="197.761086" y="123.349494" style="stroke: #000000"/>
     <use xlink:href="#mdc2820c423" x="199.419358" y="122.951378" style="stroke: #000000"/>
     <use xlink:href="#mdc2820c423" x="201.084325" y="122.582263" style="stroke: #000000"/>
     <use xlink:href="#mdc2820c423" x="202.755481" y="122.242263" style="stroke: #000000"/>
     <use xlink:href="#mdc2820c423" x="204.432316" y="121.93148" style="stroke: #000000"/>
     <use xlink:href="#mdc2820c423" x="206.114319" y="121.650009" style="stroke: #000000"/>
     <use xlink:href="#mdc2820c423" x="207.800979" y="121.397936" style="stroke: #000000"/>
     <use xlink:href="#mdc2820c423" x="209.491781" y="121.175338" style="stroke: #000000"/>
     <use xlink:href="#mdc2820c423" x="211.18621" y="120.982282" style="stroke: #000000"/>
     <use xlink:href="#mdc2820c423" x="212.883751" y="120.818827" style="stroke: #000000"/>
     <use xlink:href="#mdc2820c423" x="214.583886" y="120.685024" style="stroke: #000000"/>
     <use xlink:href="#mdc2820c423" x="216.286097" y="120.580912" style="stroke: #000000"/>
     <use xlink:href="#mdc2820c423" x="217.989865" y="120.506524" style="stroke: #000000"/>
     <use xlink:href="#mdc2820c423" x="219.694673" y="120.461882" style="stroke: #000000"/>
     <use xlink:href="#mdc2820c423" x="221.4" y="120.447" style="stroke: #000000"/>
     <use xlink:href="#mdc2820c423" x="223.105327" y="120.461882" style="stroke: #000000"/>
     <use xlink:href="#mdc2820c423" x="224.810135" y="120.506524" style="stroke: #000000"/>
     <use xlink:href="#mdc2820c423" x="226.513903" y="120.580912" style="stroke: #000000"/>
     <use xlink:href="#mdc2820c423" x="228.216114" y="120.685024" style="stroke: #000000"/>
     <use xlink:href="#mdc2820c423" x="229.916249" y="120.818827" style="stroke: #000000"/>
     <use xlink:href="#mdc2820c423" x="231.61379" y="120.982282" style="stroke: #000000"/>
     <use xlink:href="#mdc2820c423" x="233.308219" y="121.175338" style="stroke: #000000"/>
     <use xlink:href="#mdc2820c423" x="234.999021" y="121.397936" style="stroke: #000000"/>
     <use xlink:href="#mdc2820c423" x="236.685681" y="121.650009" style="stroke: #000000"/>
     <use xlink:href="#mdc2820c423" x="238.367684" y="121.93148" style="stroke: #000000"/>
     <use xlink:href="#mdc2820c423" x="240.044519" y="122.242263" style="stroke: #000000"/>
     <use xlink:href="#mdc2820c423" x="241.715675" y="122.582263" style="stroke: #000000"/>
     <use xlink:href="#mdc2820c423" x="243.380642" y="122.951378" style="stroke: #000000"/>
     <use xlink:href="#mdc2820c423" x="245.038914" y="123.349494" style="stroke: #000000"/>
     <use xlink:href="#mdc2820c423" x="246.689985" y="123.77649" style="stroke: #000000"/>
     <use xlink:href="#mdc2820c423" x="248.333353" y="124.232236" style="stroke: #000000"/>
     <use xlink:href="#mdc2820c423" x="249.968516" y="124.716593" style="stroke: #000000"/>
     <use xlink:href="#mdc2820c423" x="251.594978" y="125.229415" style="stroke: #000000"/>
     <use xlink:href="#mdc2820c423" x="253.212241" y="125.770543" style="stroke: #000000"/>
     <use xlink:href="#mdc2820c423" x="254.819814" y="126.339815" style="stroke: #000000"/>
     <use xlink:href="#mdc2820c423" x="255.67216" y="128.877969" style="stroke: #000000"/>
     <use xlink:href="#mdc2820c423" x="257.225127" y="129.489699" style="stroke: #000000"/>
     <use xlink:href="#mdc2820c423" x="258.767181" y="130.128439" style="stroke: #000000"/>
     <use xlink:href="#mdc2820c423" x="260.297852" y="130.793994" style="stroke: #000000"/>
     <use xlink:href="#mdc2820c423" x="261.816675" y="131.486161" style="stroke: #000000"/>
     <use xlink:href="#mdc2820c423" x="263.323186" y="132.20473" style="stroke: #000000"/>
     <use xlink:href="#mdc2820c423" x="264.816927" y="132.949482" style="stroke: #000000"/>
     <use xlink:href="#mdc2820c423" x="266.297443" y="133.72019" style="stroke: #000000"/>
     <use xlink:href="#mdc2820c423" x="267.764283" y="134.516619" style="stroke: #000000"/>
     <use xlink:href="#mdc2820c423" x="269.217" y="135.338527" style="stroke: #000000"/>
     <use xlink:href="#mdc2820c423" x="270.655151" y="136.185662" style="stroke: #000000"/>
     <use xlink:href="#mdc2820c423" x="272.078299" y="137.057768" style="stroke: #000000"/>
     <use xlink:href="#mdc2820c423" x="273.486009" y="137.954579" style="stroke: #000000"/>
     <use xlink:href="#mdc2820c423" x="274.877854" y="138.875821" style="stroke: #000000"/>
     <use xlink:href="#mdc2820c423" x="276.253409" y="139.821213" style="stroke: #000000"/>
     <use xlink:href="#mdc2820c423" x="277.612255" y="140.790469" style="stroke: #000000"/>
     <use xlink:href="#mdc2820c423" x="278.953978" y="141.783292" style="stroke: #000000"/>
     <use xlink:href="#mdc2820c423" x="280.27817" y="142.79938" style="stroke: #000000"/>
     <use xlink:href="#mdc2820c423" x="282.892783" y="142.222737" style="stroke: #000000"/>
     <use xlink:href="#mdc2820c423" x="282.87235" y="144.900106" style="stroke: #000000"/>
     <use xlink:href="#mdc2820c423" x="284.141549" y="145.984104" style="stroke: #000000"/>
     <use xlink:href="#mdc2820c423" x="220.89203" y="247.261567" style="stroke: #000000"/>
     <use xlink:href="#mdc2820c423" x="220.384215" y="247.248269" style="stroke: #000000"/>
     <use xlink:href="#mdc2820c423" x="219.87671" y="247.226111" style="stroke: #000000"/>
     <use xlink:href="#mdc2820c423" x="219.369668" y="247.195099" style="stroke: #000000"/>
     <use xlink:href="#mdc2820c423" x="218.863245" y="247.155243" style="stroke: #000000"/>
     <use xlink:href="#mdc2820c423" x="218.357595" y="247.106554" style="stroke: #000000"/>
     <use xlink:href="#mdc2820c423" x="217.852871" y="247.049048" style="stroke: #000000"/>
     <use xlink:href="#mdc2820c423" x="217.638569" y="244.923975" style="stroke: #000000"/>
     <use xlink:href="#mdc2820c423" x="217.172046" y="244.854253" style="stroke: #000000"/>
     <use xlink:href="#mdc2820c423" x="216.345796" y="246.823814" style="stroke: #000000"/>
     <use xlink:href="#mdc2820c423" x="215.846313" y="246.731241" style="stroke: #000000"/>
     <use xlink:href="#mdc2820c423" x="215.780771" y="244.596395" style="stroke: #000000"/>
     <use xlink:href="#mdc2820c423" x="215.320248" y="244.4943" style="stroke: #000000"/>
     <use xlink:href="#mdc2820c423" x="214.861577" y="244.384183" style="stroke: #000000"/>
     <use xlink:href="#mdc2820c423" x="214.404898" y="244.266077" style="stroke: #000000"/>
     <use xlink:href="#mdc2820c423" x="214.523399" y="242.141557" style="stroke: #000000"/>
     <use xlink:href="#mdc2820c423" x="214.105911" y="242.017891" style="stroke: #000000"/>
     <use xlink:href="#mdc2820c423" x="213.690644" y="241.886958" style="stroke: #000000"/>
     <use xlink:href="#mdc2820c423" x="213.954582" y="239.783064" style="stroke: #000000"/>
     <use xlink:href="#mdc2820c423" x="213.578341" y="239.649831" style="stroke: #000000"/>
     <use xlink:href="#mdc2820c423" x="213.578341" y="239.649831" style="stroke: #000000"/>
     <use xlink:href="#mdc2820c423" x="213.204483" y="239.510051" style="stroke: #000000"/>
     <use xlink:href="#mdc2820c423" x="212.833122" y="239.363768" style="stroke: #000000"/>
     <use xlink:href="#mdc2820c423" x="212.46437" y="239.211025" style="stroke: #000000"/>
     <use xlink:href="#mdc2820c423" x="212.09834" y="239.051871" style="stroke: #000000"/>
     <use xlink:href="#mdc2820c423" x="211.735143" y="238.886353" style="stroke: #000000"/>
     <use xlink:href="#mdc2820c423" x="211.37489" y="238.714521" style="stroke: #000000"/>
     <use xlink:href="#mdc2820c423" x="211.017691" y="238.536428" style="stroke: #000000"/>
     <use xlink:href="#mdc2820c423" x="210.663655" y="238.352129" style="stroke: #000000"/>
     <use xlink:href="#mdc2820c423" x="211.639686" y="236.51648" style="stroke: #000000"/>
     <use xlink:href="#mdc2820c423" x="211.320808" y="236.343344" style="stroke: #000000"/>
     <use xlink:href="#mdc2820c423" x="211.320808" y="236.343344" style="stroke: #000000"/>
     <use xlink:href="#mdc2820c423" x="211.005" y="236.164668" style="stroke: #000000"/>
     <use xlink:href="#mdc2820c423" x="211.005" y="236.164668" style="stroke: #000000"/>
     <use xlink:href="#mdc2820c423" x="211.763123" y="234.198457" style="stroke: #000000"/>
     <use xlink:href="#mdc2820c423" x="210.382978" y="235.79092" style="stroke: #000000"/>
     <use xlink:href="#mdc2820c423" x="211.209259" y="233.852365" style="stroke: #000000"/>
     <use xlink:href="#mdc2820c423" x="210.936942" y="233.672122" style="stroke: #000000"/>
     <use xlink:href="#mdc2820c423" x="210.936942" y="233.672122" style="stroke: #000000"/>
     <use xlink:href="#mdc2820c423" x="209.475346" y="235.190171" style="stroke: #000000"/>
     <use xlink:href="#mdc2820c423" x="209.179945" y="234.979463" style="stroke: #000000"/>
     <use xlink:href="#mdc2820c423" x="208.888266" y="234.763632" style="stroke: #000000"/>
     <use xlink:href="#mdc2820c423" x="208.600398" y="234.542744" style="stroke: #000000"/>
     <use xlink:href="#mdc2820c423" x="209.624786" y="232.701178" style="stroke: #000000"/>
     <use xlink:href="#mdc2820c423" x="208.036446" y="234.086064" style="stroke: #000000"/>
     <use xlink:href="#mdc2820c423" x="209.12448" y="232.281371" style="stroke: #000000"/>
     <use xlink:href="#mdc2820c423" x="208.879897" y="232.064983" style="stroke: #000000"/>
     <use xlink:href="#mdc2820c423" x="208.639129" y="231.844359" style="stroke: #000000"/>
     <use xlink:href="#mdc2820c423" x="207.221254" y="233.364843" style="stroke: #000000"/>
     <use xlink:href="#mdc2820c423" x="208.402247" y="231.619567" style="stroke: #000000"/>
     <use xlink:href="#mdc2820c423" x="206.958052" y="233.115074" style="stroke: #000000"/>
     <use xlink:href="#mdc2820c423" x="206.69925" y="232.86075" style="stroke: #000000"/>
     <use xlink:href="#mdc2820c423" x="206.69925" y="232.86075" style="stroke: #000000"/>
     <use xlink:href="#mdc2820c423" x="206.444926" y="232.601948" style="stroke: #000000"/>
     <use xlink:href="#mdc2820c423" x="206.444926" y="232.601948" style="stroke: #000000"/>
     <use xlink:href="#mdc2820c423" x="206.195157" y="232.338746" style="stroke: #000000"/>
     <use xlink:href="#mdc2820c423" x="204.674672" y="233.75662" style="stroke: #000000"/>
     <use xlink:href="#mdc2820c423" x="205.950019" y="232.071225" style="stroke: #000000"/>
     <use xlink:href="#mdc2820c423" x="204.140547" y="233.163414" style="stroke: #000000"/>
     <use xlink:href="#mdc2820c423" x="205.473936" y="231.523554" style="stroke: #000000"/>
     <use xlink:href="#mdc2820c423" x="203.627449" y="232.551928" style="stroke: #000000"/>
     <use xlink:href="#mdc2820c423" x="205.017256" y="230.959602" style="stroke: #000000"/>
     <use xlink:href="#mdc2820c423" x="204.796368" y="230.671734" style="stroke: #000000"/>
     <use xlink:href="#mdc2820c423" x="204.580537" y="230.380055" style="stroke: #000000"/>
     <use xlink:href="#mdc2820c423" x="204.580537" y="230.380055" style="stroke: #000000"/>
     <use xlink:href="#mdc2820c423" x="204.369829" y="230.084654" style="stroke: #000000"/>
     <use xlink:href="#mdc2820c423" x="204.369829" y="230.084654" style="stroke: #000000"/>
     <use xlink:href="#mdc2820c423" x="204.164309" y="229.78562" style="stroke: #000000"/>
     <use xlink:href="#mdc2820c423" x="202.220443" y="230.61535" style="stroke: #000000"/>
     <use xlink:href="#mdc2820c423" x="202.005988" y="230.278724" style="stroke: #000000"/>
     <use xlink:href="#mdc2820c423" x="201.797441" y="229.938406" style="stroke: #000000"/>
     <use xlink:href="#mdc2820c423" x="201.594865" y="229.5945" style="stroke: #000000"/>
     <use xlink:href="#mdc2820c423" x="199.579988" y="230.25503" style="stroke: #000000"/>
     <use xlink:href="#mdc2820c423" x="199.372223" y="229.872377" style="stroke: #000000"/>
     <use xlink:href="#mdc2820c423" x="199.171169" y="229.486155" style="stroke: #000000"/>
     <use xlink:href="#mdc2820c423" x="200.845479" y="228.18511" style="stroke: #000000"/>
     <use xlink:href="#mdc2820c423" x="200.673647" y="227.824857" style="stroke: #000000"/>
     <use xlink:href="#mdc2820c423" x="200.508129" y="227.46166" style="stroke: #000000"/>
     <use xlink:href="#mdc2820c423" x="202.262704" y="226.2833" style="stroke: #000000"/>
     <use xlink:href="#mdc2820c423" x="202.123848" y="225.948071" style="stroke: #000000"/>
     <use xlink:href="#mdc2820c423" x="202.123848" y="225.948071" style="stroke: #000000"/>
     <use xlink:href="#mdc2820c423" x="201.990863" y="225.61047" style="stroke: #000000"/>
     <use xlink:href="#mdc2820c423" x="203.817411" y="224.559539" style="stroke: #000000"/>
     <use xlink:href="#mdc2820c423" x="203.708402" y="224.251706" style="stroke: #000000"/>
     <use xlink:href="#mdc2820c423" x="203.604782" y="223.942017" style="stroke: #000000"/>
     <use xlink:href="#mdc2820c423" x="205.582028" y="223.299571" style="stroke: #000000"/>
     <use xlink:href="#mdc2820c423" x="203.506582" y="223.630567" style="stroke: #000000"/>
     <use xlink:href="#mdc2820c423" x="205.494739" y="223.022726" style="stroke: #000000"/>
     <use xlink:href="#mdc2820c423" x="203.413832" y="223.317451" style="stroke: #000000"/>
     <use xlink:href="#mdc2820c423" x="201.318402" y="223.540848" style="stroke: #000000"/>
     <use xlink:href="#mdc2820c423" x="201.227552" y="223.189556" style="stroke: #000000"/>
     <use xlink:href="#mdc2820c423" x="201.142846" y="222.836732" style="stroke: #000000"/>
     <use xlink:href="#mdc2820c423" x="201.064311" y="222.482484" style="stroke: #000000"/>
     <use xlink:href="#mdc2820c423" x="198.951168" y="222.523611" style="stroke: #000000"/>
     <use xlink:href="#mdc2820c423" x="198.878431" y="222.13116" style="stroke: #000000"/>
     <use xlink:href="#mdc2820c423" x="198.878431" y="222.13116" style="stroke: #000000"/>
     <use xlink:href="#mdc2820c423" x="198.812555" y="221.7375" style="stroke: #000000"/>
     <use xlink:href="#mdc2820c423" x="198.75356" y="221.34275" style="stroke: #000000"/>
     <use xlink:href="#mdc2820c423" x="196.637959" y="221.200396" style="stroke: #000000"/>
     <use xlink:href="#mdc2820c423" x="196.512772" y="219.900285" style="stroke: #000000"/>
     <use xlink:href="#mdc2820c423" x="196.48619" y="219.465677" style="stroke: #000000"/>
     <use xlink:href="#mdc2820c423" x="196.467198" y="219.030673" style="stroke: #000000"/>
     <use xlink:href="#mdc2820c423" x="196.452" y="218.16" style="stroke: #000000"/>
     <use xlink:href="#mdc2820c423" x="196.4558" y="217.724597" style="stroke: #000000"/>
     <use xlink:href="#mdc2820c423" x="196.4558" y="217.724597" style="stroke: #000000"/>
     <use xlink:href="#mdc2820c423" x="196.467198" y="217.289327" style="stroke: #000000"/>
     <use xlink:href="#mdc2820c423" x="196.48619" y="216.854323" style="stroke: #000000"/>
     <use xlink:href="#mdc2820c423" x="196.512772" y="216.419715" style="stroke: #000000"/>
     <use xlink:href="#mdc2820c423" x="196.546935" y="215.985639" style="stroke: #000000"/>
     <use xlink:href="#mdc2820c423" x="198.656279" y="215.769539" style="stroke: #000000"/>
     <use xlink:href="#mdc2820c423" x="196.637959" y="215.119604" style="stroke: #000000"/>
     <use xlink:href="#mdc2820c423" x="196.694792" y="214.687909" style="stroke: #000000"/>
     <use xlink:href="#mdc2820c423" x="196.759151" y="214.257273" style="stroke: #000000"/>
     <use xlink:href="#mdc2820c423" x="196.831016" y="213.827825" style="stroke: #000000"/>
     <use xlink:href="#mdc2820c423" x="196.910365" y="213.399697" style="stroke: #000000"/>
     <use xlink:href="#mdc2820c423" x="196.997174" y="212.973019" style="stroke: #000000"/>
     <use xlink:href="#mdc2820c423" x="197.091416" y="212.547921" style="stroke: #000000"/>
     <use xlink:href="#mdc2820c423" x="197.193062" y="212.124533" style="stroke: #000000"/>
     <use xlink:href="#mdc2820c423" x="197.302082" y="211.702982" style="stroke: #000000"/>
     <use xlink:href="#mdc2820c423" x="197.418443" y="211.283399" style="stroke: #000000"/>
     <use xlink:href="#mdc2820c423" x="197.542109" y="210.865911" style="stroke: #000000"/>
     <use xlink:href="#mdc2820c423" x="197.673042" y="210.450644" style="stroke: #000000"/>
     <use xlink:href="#mdc2820c423" x="195.845469" y="209.360869" style="stroke: #000000"/>
     <use xlink:href="#mdc2820c423" x="196.002928" y="208.916222" style="stroke: #000000"/>
     <use xlink:href="#mdc2820c423" x="198.109036" y="209.219436" style="stroke: #000000"/>
     <use xlink:href="#mdc2820c423" x="198.268617" y="208.814315" style="stroke: #000000"/>
     <use xlink:href="#mdc2820c423" x="198.435245" y="208.41204" style="stroke: #000000"/>
     <use xlink:href="#mdc2820c423" x="198.608868" y="208.012734" style="stroke: #000000"/>
     <use xlink:href="#mdc2820c423" x="198.789433" y="207.61652" style="stroke: #000000"/>
     <use xlink:href="#mdc2820c423" x="198.789433" y="207.61652" style="stroke: #000000"/>
     <use xlink:href="#mdc2820c423" x="198.976886" y="207.223517" style="stroke: #000000"/>
     <use xlink:href="#mdc2820c423" x="197.318767" y="205.889999" style="stroke: #000000"/>
     <use xlink:href="#mdc2820c423" x="199.372223" y="206.447623" style="stroke: #000000"/>
     <use xlink:href="#mdc2820c423" x="199.579988" y="206.06497" style="stroke: #000000"/>
     <use xlink:href="#mdc2820c423" x="199.794398" y="205.686" style="stroke: #000000"/>
     <use xlink:href="#mdc2820c423" x="198.233339" y="204.240066" style="stroke: #000000"/>
     <use xlink:href="#mdc2820c423" x="198.479804" y="203.837872" style="stroke: #000000"/>
     <use xlink:href="#mdc2820c423" x="198.733251" y="203.440041" style="stroke: #000000"/>
     <use xlink:href="#mdc2820c423" x="199.260778" y="202.65795" style="stroke: #000000"/>
     <use xlink:href="#mdc2820c423" x="199.534698" y="202.273928" style="stroke: #000000"/>
     <use xlink:href="#mdc2820c423" x="199.815278" y="201.894745" style="stroke: #000000"/>
     <use xlink:href="#mdc2820c423" x="200.102433" y="201.520517" style="stroke: #000000"/>
     <use xlink:href="#mdc2820c423" x="200.396076" y="201.151358" style="stroke: #000000"/>
     <use xlink:href="#mdc2820c423" x="199.10351" y="199.451024" style="stroke: #000000"/>
     <use xlink:href="#mdc2820c423" x="199.433423" y="199.064746" style="stroke: #000000"/>
     <use xlink:href="#mdc2820c423" x="199.770027" y="198.684285" style="stroke: #000000"/>
     <use xlink:href="#mdc2820c423" x="200.113219" y="198.309756" style="stroke: #000000"/>
     <use xlink:href="#mdc2820c423" x="198.967388" y="196.497079" style="stroke: #000000"/>
     <use xlink:href="#mdc2820c423" x="199.348875" y="196.108875" style="stroke: #000000"/>
     <use xlink:href="#mdc2820c423" x="199.737079" y="195.727388" style="stroke: #000000"/>
     <use xlink:href="#mdc2820c423" x="200.533162" y="194.985029" style="stroke: #000000"/>
     <use xlink:href="#mdc2820c423" x="200.940799" y="194.624382" style="stroke: #000000"/>
     <use xlink:href="#mdc2820c423" x="200.018313" y="192.678298" style="stroke: #000000"/>
     <use xlink:href="#mdc2820c423" x="200.466287" y="192.309017" style="stroke: #000000"/>
     <use xlink:href="#mdc2820c423" x="200.920637" y="191.94761" style="stroke: #000000"/>
     <use xlink:href="#mdc2820c423" x="201.381225" y="191.594188" style="stroke: #000000"/>
     <use xlink:href="#mdc2820c423" x="201.847911" y="191.248859" style="stroke: #000000"/>
     <use xlink:href="#mdc2820c423" x="202.320553" y="190.911726" style="stroke: #000000"/>
     <use xlink:href="#mdc2820c423" x="202.799007" y="190.582894" style="stroke: #000000"/>
     <use xlink:href="#mdc2820c423" x="204.415432" y="192.006058" style="stroke: #000000"/>
     <use xlink:href="#mdc2820c423" x="204.874468" y="191.71362" style="stroke: #000000"/>
     <use xlink:href="#mdc2820c423" x="206.409302" y="193.211289" style="stroke: #000000"/>
     <use xlink:href="#mdc2820c423" x="206.409302" y="193.211289" style="stroke: #000000"/>
     <use xlink:href="#mdc2820c423" x="206.847" y="192.953465" style="stroke: #000000"/>
     <use xlink:href="#mdc2820c423" x="206.847" y="192.953465" style="stroke: #000000"/>
     <use xlink:href="#mdc2820c423" x="207.289131" y="192.703319" style="stroke: #000000"/>
     <use xlink:href="#mdc2820c423" x="207.289131" y="192.703319" style="stroke: #000000"/>
     <use xlink:href="#mdc2820c423" x="208.711592" y="194.296575" style="stroke: #000000"/>
     <use xlink:href="#mdc2820c423" x="207.735561" y="192.460927" style="stroke: #000000"/>
     <use xlink:href="#mdc2820c423" x="208.186153" y="192.226364" style="stroke: #000000"/>
     <use xlink:href="#mdc2820c423" x="208.640769" y="191.9997" style="stroke: #000000"/>
     <use xlink:href="#mdc2820c423" x="209.099273" y="191.781006" style="stroke: #000000"/>
     <use xlink:href="#mdc2820c423" x="209.561523" y="191.570346" style="stroke: #000000"/>
     <use xlink:href="#mdc2820c423" x="210.02738" y="191.367786" style="stroke: #000000"/>
     <use xlink:href="#mdc2820c423" x="209.717893" y="189.245771" style="stroke: #000000"/>
     <use xlink:href="#mdc2820c423" x="209.717893" y="189.245771" style="stroke: #000000"/>
     <use xlink:href="#mdc2820c423" x="210.224295" y="189.046294" style="stroke: #000000"/>
     <use xlink:href="#mdc2820c423" x="210.224295" y="189.046294" style="stroke: #000000"/>
     <use xlink:href="#mdc2820c423" x="210.734102" y="188.855686" style="stroke: #000000"/>
     <use xlink:href="#mdc2820c423" x="211.247157" y="188.674003" style="stroke: #000000"/>
     <use xlink:href="#mdc2820c423" x="211.763305" y="188.501303" style="stroke: #000000"/>
     <use xlink:href="#mdc2820c423" x="212.282388" y="188.337636" style="stroke: #000000"/>
     <use xlink:href="#mdc2820c423" x="212.804249" y="188.183054" style="stroke: #000000"/>
     <use xlink:href="#mdc2820c423" x="212.790643" y="186.029443" style="stroke: #000000"/>
     <use xlink:href="#mdc2820c423" x="213.35271" y="185.884083" style="stroke: #000000"/>
     <use xlink:href="#mdc2820c423" x="214.384901" y="187.77427" style="stroke: #000000"/>
     <use xlink:href="#mdc2820c423" x="214.916274" y="187.656467" style="stroke: #000000"/>
     <use xlink:href="#mdc2820c423" x="215.449621" y="187.547956" style="stroke: #000000"/>
     <use xlink:href="#mdc2820c423" x="215.984782" y="187.44877" style="stroke: #000000"/>
     <use xlink:href="#mdc2820c423" x="216.196364" y="185.305535" style="stroke: #000000"/>
     <use xlink:href="#mdc2820c423" x="216.770546" y="185.219723" style="stroke: #000000"/>
     <use xlink:href="#mdc2820c423" x="217.346138" y="185.143945" style="stroke: #000000"/>
     <use xlink:href="#mdc2820c423" x="217.922965" y="185.078224" style="stroke: #000000"/>
     <use xlink:href="#mdc2820c423" x="218.500851" y="185.02258" style="stroke: #000000"/>
     <use xlink:href="#mdc2820c423" x="219.079621" y="184.977029" style="stroke: #000000"/>
     <use xlink:href="#mdc2820c423" x="219.767903" y="187.017738" style="stroke: #000000"/>
     <use xlink:href="#mdc2820c423" x="220.311659" y="186.993997" style="stroke: #000000"/>
     <use xlink:href="#mdc2820c423" x="220.855747" y="186.97975" style="stroke: #000000"/>
     <use xlink:href="#mdc2820c423" x="221.4" y="189.054" style="stroke: #000000"/>
     <use xlink:href="#mdc2820c423" x="221.90797" y="189.058433" style="stroke: #000000"/>
     <use xlink:href="#mdc2820c423" x="221.90797" y="189.058433" style="stroke: #000000"/>
     <use xlink:href="#mdc2820c423" x="222.415785" y="189.071731" style="stroke: #000000"/>
     <use xlink:href="#mdc2820c423" x="222.415785" y="189.071731" style="stroke: #000000"/>
     <use xlink:href="#mdc2820c423" x="222.92329" y="189.093889" style="stroke: #000000"/>
     <use xlink:href="#mdc2820c423" x="223.430332" y="189.124901" style="stroke: #000000"/>
     <use xlink:href="#mdc2820c423" x="223.936755" y="189.164757" style="stroke: #000000"/>
     <use xlink:href="#mdc2820c423" x="224.65972" y="187.145835" style="stroke: #000000"/>
     <use xlink:href="#mdc2820c423" x="225.200495" y="187.207448" style="stroke: #000000"/>
     <use xlink:href="#mdc2820c423" x="226.029454" y="185.219723" style="stroke: #000000"/>
     <use xlink:href="#mdc2820c423" x="226.603636" y="185.305535" style="stroke: #000000"/>
     <use xlink:href="#mdc2820c423" x="227.176233" y="185.401355" style="stroke: #000000"/>
     <use xlink:href="#mdc2820c423" x="227.74707" y="185.507153" style="stroke: #000000"/>
     <use xlink:href="#mdc2820c423" x="228.315974" y="185.622898" style="stroke: #000000"/>
     <use xlink:href="#mdc2820c423" x="228.882772" y="185.748554" style="stroke: #000000"/>
     <use xlink:href="#mdc2820c423" x="229.44729" y="185.884083" style="stroke: #000000"/>
     <use xlink:href="#mdc2820c423" x="229.471272" y="188.037603" style="stroke: #000000"/>
     <use xlink:href="#mdc2820c423" x="229.995751" y="188.183054" style="stroke: #000000"/>
     <use xlink:href="#mdc2820c423" x="230.517612" y="188.337636" style="stroke: #000000"/>
     <use xlink:href="#mdc2820c423" x="231.036695" y="188.501303" style="stroke: #000000"/>
     <use xlink:href="#mdc2820c423" x="231.552843" y="188.674003" style="stroke: #000000"/>
     <use xlink:href="#mdc2820c423" x="232.065898" y="188.855686" style="stroke: #000000"/>
     <use xlink:href="#mdc2820c423" x="232.575705" y="189.046294" style="stroke: #000000"/>
     <use xlink:href="#mdc2820c423" x="233.082107" y="189.245771" style="stroke: #000000"/>
     <use xlink:href="#mdc2820c423" x="233.58495" y="189.454056" style="stroke: #000000"/>
     <use xlink:href="#mdc2820c423" x="234.084082" y="189.671085" style="stroke: #000000"/>
     <use xlink:href="#mdc2820c423" x="234.57935" y="189.896792" style="stroke: #000000"/>
     <use xlink:href="#mdc2820c423" x="235.070604" y="190.131108" style="stroke: #000000"/>
     <use xlink:href="#mdc2820c423" x="235.557694" y="190.373962" style="stroke: #000000"/>
     <use xlink:href="#mdc2820c423" x="236.040471" y="190.625279" style="stroke: #000000"/>
     <use xlink:href="#mdc2820c423" x="236.518788" y="190.884984" style="stroke: #000000"/>
     <use xlink:href="#mdc2820c423" x="236.9925" y="191.152998" style="stroke: #000000"/>
     <use xlink:href="#mdc2820c423" x="236.390698" y="193.211289" style="stroke: #000000"/>
     <use xlink:href="#mdc2820c423" x="235.722128" y="195.239804" style="stroke: #000000"/>
     <use xlink:href="#mdc2820c423" x="236.119959" y="195.493251" style="stroke: #000000"/>
     <use xlink:href="#mdc2820c423" x="236.513307" y="195.753602" style="stroke: #000000"/>
     <use xlink:href="#mdc2820c423" x="236.90205" y="196.020778" style="stroke: #000000"/>
     <use xlink:href="#mdc2820c423" x="237.286072" y="196.294698" style="stroke: #000000"/>
     <use xlink:href="#mdc2820c423" x="237.665255" y="196.575278" style="stroke: #000000"/>
     <use xlink:href="#mdc2820c423" x="239.319443" y="195.224159" style="stroke: #000000"/>
     <use xlink:href="#mdc2820c423" x="239.716999" y="195.54039" style="stroke: #000000"/>
     <use xlink:href="#mdc2820c423" x="240.108976" y="195.86351" style="stroke: #000000"/>
     <use xlink:href="#mdc2820c423" x="239.131307" y="197.762464" style="stroke: #000000"/>
    </g>
   </g>
   <g id="patch_3">
    <path d="M 221.4 51.84 
C 199.559058 51.84 177.930491 56.142189 157.752092 64.500356 
C 137.573692 72.858523 119.237879 85.110122 103.794 100.554 
C 88.350122 115.997879 76.098523 134.333692 67.740356 154.512092 
C 59.382189 174.690491 55.08 196.319058 55.08 218.16 
C 55.08 240.000942 59.382189 261.629509 67.740356 281.807908 
C 76.098523 301.986308 88.350122 320.322121 103.794 335.766 
C 119.237879 351.209878 137.573692 363.461477 157.752092 371.819644 
C 177.930491 380.177811 199.559058 384.48 221.4 384.48 
C 243.240942 384.48 264.869509 380.177811 285.047908 371.819644 
C 305.226308 363.461477 323.562121 351.209878 339.006 335.766 
C 354.449878 320.322121 366.701477 301.986308 375.059644 281.807908 
C 383.417811 261.629509 387.72 240.000942 387.72 218.16 
C 387.72 196.319058 383.417811 174.690491 375.059644 154.512092 
C 366.701477 134.333692 354.449878 115.997879 339.006 100.554 
C 323.562121 85.110122 305.226308 72.858523 285.047908 64.500356 
C 264.869509 56.142189 243.240942 51.84 221.4 51.84 
" style="fill: none; stroke: #ffffff; stroke-width: 1.25; stroke-linejoin: miter; stroke-linecap: square"/>
   </g>
  </g>
 </g>
 <defs>
  <clipPath id="p4930186b40">
   <path d="M 387.72 218.16 
C 387.72 196.319058 383.417811 174.690491 375.059644 154.512092 
C 366.701477 134.333692 354.449878 115.997879 339.006 100.554 
C 323.562121 85.110122 305.226308 72.858523 285.047908 64.500356 
C 264.869509 56.142189 243.240942 51.84 221.4 51.84 
C 199.559058 51.84 177.930491 56.142189 157.752092 64.500356 
C 137.573692 72.858523 119.237879 85.110122 103.794 100.554 
C 88.350122 115.997879 76.098523 134.333692 67.740356 154.512092 
C 59.382189 174.690491 55.08 196.319058 55.08 218.16 
C 55.08 240.000942 59.382189 261.629509 67.740356 281.807908 
C 76.098523 301.986308 88.350122 320.322121 103.794 335.766 
C 119.237879 351.209878 137.573692 363.461477 157.752092 371.819644 
C 177.930491 380.177811 199.559058 384.48 221.4 384.48 
C 243.240942 384.48 264.869509 380.177811 285.047908 371.819644 
C 305.226308 363.461477 323.562121 351.209878 339.006 335.766 
C 354.449878 320.322121 366.701477 301.986308 375.059644 281.807908 
C 383.417811 261.629509 387.72 240.000942 387.72 218.16 
M 221.4 218.16 
C 221.4 218.16 221.4 218.16 221.4 218.16 
C 221.4 218.16 221.4 218.16 221.4 218.16 
C 221.4 218.16 221.4 218.16 221.4 218.16 
C 221.4 218.16 221.4 218.16 221.4 218.16 
C 221.4 218.16 221.4 218.16 221.4 218.16 
C 221.4 218.16 221.4 218.16 221.4 218.16 
C 221.4 218.16 221.4 218.16 221.4 218.16 
C 221.4 218.16 221.4 218.16 221.4 218.16 
C 221.4 218.16 221.4 218.16 221.4 218.16 
C 221.4 218.16 221.4 218.16 221.4 218.16 
C 221.4 218.16 221.4 218.16 221.4 218.16 
C 221.4 218.16 221.4 218.16 221.4 218.16 
C 221.4 218.16 221.4 218.16 221.4 218.16 
C 221.4 218.16 221.4 218.16 221.4 218.16 
C 221.4 218.16 221.4 218.16 221.4 218.16 
C 221.4 218.16 221.4 218.16 221.4 218.16 
z
"/>
  </clipPath>
 </defs>
</svg>
