<?xml version="1.0" encoding="utf-8" standalone="no"?>
<!DOCTYPE svg PUBLIC "-//W3C//DTD SVG 1.1//EN"
  "http://www.w3.org/Graphics/SVG/1.1/DTD/svg11.dtd">
<svg xmlns:xlink="http://www.w3.org/1999/xlink" width="432pt" height="432pt" viewBox="0 0 432 432" xmlns="http://www.w3.org/2000/svg" version="1.1">
 <metadata>
  <rdf:RDF xmlns:dc="http://purl.org/dc/elements/1.1/" xmlns:cc="http://creativecommons.org/ns#" xmlns:rdf="http://www.w3.org/1999/02/22-rdf-syntax-ns#">
   <cc:Work>
    <dc:type rdf:resource="http://purl.org/dc/dcmitype/StillImage"/>
    <dc:date>2024-09-06T15:34:06.310760</dc:date>
    <dc:format>image/svg+xml</dc:format>
    <dc:creator>
     <cc:Agent>
      <dc:title>Matplotlib v3.9.1, https://matplotlib.org/</dc:title>
     </cc:Agent>
    </dc:creator>
   </cc:Work>
  </rdf:RDF>
 </metadata>
 <defs>
  <style type="text/css">*{stroke-linejoin: round; stroke-linecap: butt}</style>
 </defs>
 <g id="figure_1">
  <g id="patch_1">
   <path d="M 0 432 
L 432 432 
L 432 0 
L 0 0 
z
" style="fill: #ffffff"/>
  </g>
  <g id="axes_1">
   <g id="patch_2">
    <path d="M 387.72 218.16 
C 387.72 196.319058 383.417811 174.690491 375.059644 154.512092 
C 366.701477 134.333692 354.449878 115.997879 339.006 100.554 
C 323.562121 85.110122 305.226308 72.858523 285.047908 64.500356 
C 264.869509 56.142189 243.240942 51.84 221.4 51.84 
C 199.559058 51.84 177.930491 56.142189 157.752092 64.500356 
C 137.573692 72.858523 119.237879 85.110122 103.794 100.554 
C 88.350122 115.997879 76.098523 134.333692 67.740356 154.512092 
C 59.382189 174.690491 55.08 196.319058 55.08 218.16 
C 55.08 240.000942 59.382189 261.629509 67.740356 281.807908 
C 76.098523 301.986308 88.350122 320.322121 103.794 335.766 
C 119.237879 351.209878 137.573692 363.461477 157.752092 371.819644 
C 177.930491 380.177811 199.559058 384.48 221.4 384.48 
C 243.240942 384.48 264.869509 380.177811 285.047908 371.819644 
C 305.226308 363.461477 323.562121 351.209878 339.006 335.766 
C 354.449878 320.322121 366.701477 301.986308 375.059644 281.807908 
C 383.417811 261.629509 387.72 240.000942 387.72 218.16 
M 221.4 218.16 
C 221.4 218.16 221.4 218.16 221.4 218.16 
C 221.4 218.16 221.4 218.16 221.4 218.16 
C 221.4 218.16 221.4 218.16 221.4 218.16 
C 221.4 218.16 221.4 218.16 221.4 218.16 
C 221.4 218.16 221.4 218.16 221.4 218.16 
C 221.4 218.16 221.4 218.16 221.4 218.16 
C 221.4 218.16 221.4 218.16 221.4 218.16 
C 221.4 218.16 221.4 218.16 221.4 218.16 
C 221.4 218.16 221.4 218.16 221.4 218.16 
C 221.4 218.16 221.4 218.16 221.4 218.16 
C 221.4 218.16 221.4 218.16 221.4 218.16 
C 221.4 218.16 221.4 218.16 221.4 218.16 
C 221.4 218.16 221.4 218.16 221.4 218.16 
C 221.4 218.16 221.4 218.16 221.4 218.16 
C 221.4 218.16 221.4 218.16 221.4 218.16 
C 221.4 218.16 221.4 218.16 221.4 218.16 
z
" style="fill: #eaeaf2"/>
   </g>
   <g id="matplotlib.axis_1">
    <g id="xtick_1">
     <g id="line2d_1">
      <path d="M 221.4 218.16 
L 221.4 51.84 
" clip-path="url(#p8bc4d92fb7)" style="fill: none; stroke: #ffffff; stroke-linecap: round"/>
     </g>
     <g id="text_1">
      <!-- 0° -->
      <g style="fill: #262626" transform="translate(216.142344 38.183672) scale(0.11 -0.11)">
       <defs>
        <path id="ArialMT-30" d="M 266 2259 
Q 266 3072 433 3567 
Q 600 4063 929 4331 
Q 1259 4600 1759 4600 
Q 2128 4600 2406 4451 
Q 2684 4303 2865 4023 
Q 3047 3744 3150 3342 
Q 3253 2941 3253 2259 
Q 3253 1453 3087 958 
Q 2922 463 2592 192 
Q 2263 -78 1759 -78 
Q 1097 -78 719 397 
Q 266 969 266 2259 
z
M 844 2259 
Q 844 1131 1108 757 
Q 1372 384 1759 384 
Q 2147 384 2411 759 
Q 2675 1134 2675 2259 
Q 2675 3391 2411 3762 
Q 2147 4134 1753 4134 
Q 1366 4134 1134 3806 
Q 844 3388 844 2259 
z
" transform="scale(0.015625)"/>
        <path id="ArialMT-b0" d="M 400 3794 
Q 400 4153 654 4406 
Q 909 4659 1266 4659 
Q 1628 4659 1881 4406 
Q 2134 4153 2134 3794 
Q 2134 3434 1879 3179 
Q 1625 2925 1266 2925 
Q 909 2925 654 3178 
Q 400 3431 400 3794 
z
M 741 3794 
Q 741 3575 895 3420 
Q 1050 3266 1269 3266 
Q 1484 3266 1639 3420 
Q 1794 3575 1794 3794 
Q 1794 4013 1639 4167 
Q 1484 4322 1269 4322 
Q 1050 4322 895 4167 
Q 741 4013 741 3794 
z
" transform="scale(0.015625)"/>
       </defs>
       <use xlink:href="#ArialMT-30"/>
       <use xlink:href="#ArialMT-b0" x="55.615234"/>
      </g>
     </g>
    </g>
    <g id="xtick_2">
     <g id="line2d_2">
      <path d="M 221.4 218.16 
L 339.006 100.554 
" clip-path="url(#p8bc4d92fb7)" style="fill: none; stroke: #ffffff; stroke-linecap: round"/>
     </g>
     <g id="text_2">
      <!-- 45° -->
      <g style="fill: #262626" transform="translate(342.35709 91.73041) scale(0.11 -0.11)">
       <defs>
        <path id="ArialMT-34" d="M 2069 0 
L 2069 1097 
L 81 1097 
L 81 1613 
L 2172 4581 
L 2631 4581 
L 2631 1613 
L 3250 1613 
L 3250 1097 
L 2631 1097 
L 2631 0 
L 2069 0 
z
M 2069 1613 
L 2069 3678 
L 634 1613 
L 2069 1613 
z
" transform="scale(0.015625)"/>
        <path id="ArialMT-35" d="M 266 1200 
L 856 1250 
Q 922 819 1161 601 
Q 1400 384 1738 384 
Q 2144 384 2425 690 
Q 2706 997 2706 1503 
Q 2706 1984 2436 2262 
Q 2166 2541 1728 2541 
Q 1456 2541 1237 2417 
Q 1019 2294 894 2097 
L 366 2166 
L 809 4519 
L 3088 4519 
L 3088 3981 
L 1259 3981 
L 1013 2750 
Q 1425 3038 1878 3038 
Q 2478 3038 2890 2622 
Q 3303 2206 3303 1553 
Q 3303 931 2941 478 
Q 2500 -78 1738 -78 
Q 1113 -78 717 272 
Q 322 622 266 1200 
z
" transform="scale(0.015625)"/>
       </defs>
       <use xlink:href="#ArialMT-34"/>
       <use xlink:href="#ArialMT-35" x="55.615234"/>
       <use xlink:href="#ArialMT-b0" x="111.230469"/>
      </g>
     </g>
    </g>
    <g id="xtick_3">
     <g id="line2d_3">
      <path d="M 221.4 218.16 
L 387.72 218.16 
" clip-path="url(#p8bc4d92fb7)" style="fill: none; stroke: #ffffff; stroke-linecap: round"/>
     </g>
     <g id="text_3">
      <!-- 90° -->
      <g style="fill: #262626" transform="translate(395.903828 221.003672) scale(0.11 -0.11)">
       <defs>
        <path id="ArialMT-39" d="M 350 1059 
L 891 1109 
Q 959 728 1153 556 
Q 1347 384 1650 384 
Q 1909 384 2104 503 
Q 2300 622 2425 820 
Q 2550 1019 2634 1356 
Q 2719 1694 2719 2044 
Q 2719 2081 2716 2156 
Q 2547 1888 2255 1720 
Q 1963 1553 1622 1553 
Q 1053 1553 659 1965 
Q 266 2378 266 3053 
Q 266 3750 677 4175 
Q 1088 4600 1706 4600 
Q 2153 4600 2523 4359 
Q 2894 4119 3086 3673 
Q 3278 3228 3278 2384 
Q 3278 1506 3087 986 
Q 2897 466 2520 194 
Q 2144 -78 1638 -78 
Q 1100 -78 759 220 
Q 419 519 350 1059 
z
M 2653 3081 
Q 2653 3566 2395 3850 
Q 2138 4134 1775 4134 
Q 1400 4134 1122 3828 
Q 844 3522 844 3034 
Q 844 2597 1108 2323 
Q 1372 2050 1759 2050 
Q 2150 2050 2401 2323 
Q 2653 2597 2653 3081 
z
" transform="scale(0.015625)"/>
       </defs>
       <use xlink:href="#ArialMT-39"/>
       <use xlink:href="#ArialMT-30" x="55.615234"/>
       <use xlink:href="#ArialMT-b0" x="111.230469"/>
      </g>
     </g>
    </g>
    <g id="xtick_4">
     <g id="line2d_4">
      <path d="M 221.4 218.16 
L 339.006 335.766 
" clip-path="url(#p8bc4d92fb7)" style="fill: none; stroke: #ffffff; stroke-linecap: round"/>
     </g>
     <g id="text_4">
      <!-- 135° -->
      <g style="fill: #262626" transform="translate(339.298574 350.276934) scale(0.11 -0.11)">
       <defs>
        <path id="ArialMT-31" d="M 2384 0 
L 1822 0 
L 1822 3584 
Q 1619 3391 1289 3197 
Q 959 3003 697 2906 
L 697 3450 
Q 1169 3672 1522 3987 
Q 1875 4303 2022 4600 
L 2384 4600 
L 2384 0 
z
" transform="scale(0.015625)"/>
        <path id="ArialMT-33" d="M 269 1209 
L 831 1284 
Q 928 806 1161 595 
Q 1394 384 1728 384 
Q 2125 384 2398 659 
Q 2672 934 2672 1341 
Q 2672 1728 2419 1979 
Q 2166 2231 1775 2231 
Q 1616 2231 1378 2169 
L 1441 2663 
Q 1497 2656 1531 2656 
Q 1891 2656 2178 2843 
Q 2466 3031 2466 3422 
Q 2466 3731 2256 3934 
Q 2047 4138 1716 4138 
Q 1388 4138 1169 3931 
Q 950 3725 888 3313 
L 325 3413 
Q 428 3978 793 4289 
Q 1159 4600 1703 4600 
Q 2078 4600 2393 4439 
Q 2709 4278 2876 4000 
Q 3044 3722 3044 3409 
Q 3044 3113 2884 2869 
Q 2725 2625 2413 2481 
Q 2819 2388 3044 2092 
Q 3269 1797 3269 1353 
Q 3269 753 2831 336 
Q 2394 -81 1725 -81 
Q 1122 -81 723 278 
Q 325 638 269 1209 
z
" transform="scale(0.015625)"/>
       </defs>
       <use xlink:href="#ArialMT-31"/>
       <use xlink:href="#ArialMT-33" x="55.615234"/>
       <use xlink:href="#ArialMT-35" x="111.230469"/>
       <use xlink:href="#ArialMT-b0" x="166.845703"/>
      </g>
     </g>
    </g>
    <g id="xtick_5">
     <g id="line2d_5">
      <path d="M 221.4 218.16 
L 221.4 384.48 
" clip-path="url(#p8bc4d92fb7)" style="fill: none; stroke: #ffffff; stroke-linecap: round"/>
     </g>
     <g id="text_5">
      <!-- 180° -->
      <g style="fill: #262626" transform="translate(210.025312 403.823672) scale(0.11 -0.11)">
       <defs>
        <path id="ArialMT-38" d="M 1131 2484 
Q 781 2613 612 2850 
Q 444 3088 444 3419 
Q 444 3919 803 4259 
Q 1163 4600 1759 4600 
Q 2359 4600 2725 4251 
Q 3091 3903 3091 3403 
Q 3091 3084 2923 2848 
Q 2756 2613 2416 2484 
Q 2838 2347 3058 2040 
Q 3278 1734 3278 1309 
Q 3278 722 2862 322 
Q 2447 -78 1769 -78 
Q 1091 -78 675 323 
Q 259 725 259 1325 
Q 259 1772 486 2073 
Q 713 2375 1131 2484 
z
M 1019 3438 
Q 1019 3113 1228 2906 
Q 1438 2700 1772 2700 
Q 2097 2700 2305 2904 
Q 2513 3109 2513 3406 
Q 2513 3716 2298 3927 
Q 2084 4138 1766 4138 
Q 1444 4138 1231 3931 
Q 1019 3725 1019 3438 
z
M 838 1322 
Q 838 1081 952 856 
Q 1066 631 1291 507 
Q 1516 384 1775 384 
Q 2178 384 2440 643 
Q 2703 903 2703 1303 
Q 2703 1709 2433 1975 
Q 2163 2241 1756 2241 
Q 1359 2241 1098 1978 
Q 838 1716 838 1322 
z
" transform="scale(0.015625)"/>
       </defs>
       <use xlink:href="#ArialMT-31"/>
       <use xlink:href="#ArialMT-38" x="55.615234"/>
       <use xlink:href="#ArialMT-30" x="111.230469"/>
       <use xlink:href="#ArialMT-b0" x="166.845703"/>
      </g>
     </g>
    </g>
    <g id="xtick_6">
     <g id="line2d_6">
      <path d="M 221.4 218.16 
L 103.794 335.766 
" clip-path="url(#p8bc4d92fb7)" style="fill: none; stroke: #ffffff; stroke-linecap: round"/>
     </g>
     <g id="text_6">
      <!-- 225° -->
      <g style="fill: #262626" transform="translate(80.752051 350.276934) scale(0.11 -0.11)">
       <defs>
        <path id="ArialMT-32" d="M 3222 541 
L 3222 0 
L 194 0 
Q 188 203 259 391 
Q 375 700 629 1000 
Q 884 1300 1366 1694 
Q 2113 2306 2375 2664 
Q 2638 3022 2638 3341 
Q 2638 3675 2398 3904 
Q 2159 4134 1775 4134 
Q 1369 4134 1125 3890 
Q 881 3647 878 3216 
L 300 3275 
Q 359 3922 746 4261 
Q 1134 4600 1788 4600 
Q 2447 4600 2831 4234 
Q 3216 3869 3216 3328 
Q 3216 3053 3103 2787 
Q 2991 2522 2730 2228 
Q 2469 1934 1863 1422 
Q 1356 997 1212 845 
Q 1069 694 975 541 
L 3222 541 
z
" transform="scale(0.015625)"/>
       </defs>
       <use xlink:href="#ArialMT-32"/>
       <use xlink:href="#ArialMT-32" x="55.615234"/>
       <use xlink:href="#ArialMT-35" x="111.230469"/>
       <use xlink:href="#ArialMT-b0" x="166.845703"/>
      </g>
     </g>
    </g>
    <g id="xtick_7">
     <g id="line2d_7">
      <path d="M 221.4 218.16 
L 55.08 218.16 
" clip-path="url(#p8bc4d92fb7)" style="fill: none; stroke: #ffffff; stroke-linecap: round"/>
     </g>
     <g id="text_7">
      <!-- 270° -->
      <g style="fill: #262626" transform="translate(27.205312 221.003672) scale(0.11 -0.11)">
       <defs>
        <path id="ArialMT-37" d="M 303 3981 
L 303 4522 
L 3269 4522 
L 3269 4084 
Q 2831 3619 2401 2847 
Q 1972 2075 1738 1259 
Q 1569 684 1522 0 
L 944 0 
Q 953 541 1156 1306 
Q 1359 2072 1739 2783 
Q 2119 3494 2547 3981 
L 303 3981 
z
" transform="scale(0.015625)"/>
       </defs>
       <use xlink:href="#ArialMT-32"/>
       <use xlink:href="#ArialMT-37" x="55.615234"/>
       <use xlink:href="#ArialMT-30" x="111.230469"/>
       <use xlink:href="#ArialMT-b0" x="166.845703"/>
      </g>
     </g>
    </g>
    <g id="xtick_8">
     <g id="line2d_8">
      <path d="M 221.4 218.16 
L 103.794 100.554 
" clip-path="url(#p8bc4d92fb7)" style="fill: none; stroke: #ffffff; stroke-linecap: round"/>
     </g>
     <g id="text_8">
      <!-- 315° -->
      <g style="fill: #262626" transform="translate(80.752051 91.73041) scale(0.11 -0.11)">
       <use xlink:href="#ArialMT-33"/>
       <use xlink:href="#ArialMT-31" x="55.615234"/>
       <use xlink:href="#ArialMT-35" x="111.230469"/>
       <use xlink:href="#ArialMT-b0" x="166.845703"/>
      </g>
     </g>
    </g>
   </g>
   <g id="matplotlib.axis_2">
    <g id="ytick_1">
     <g id="line2d_9">
      <path d="M 221.4 218.16 
C 221.4 218.16 221.4 218.16 221.4 218.16 
C 221.4 218.16 221.4 218.16 221.4 218.16 
C 221.4 218.16 221.4 218.16 221.4 218.16 
C 221.4 218.16 221.4 218.16 221.4 218.16 
C 221.4 218.16 221.4 218.16 221.4 218.16 
C 221.4 218.16 221.4 218.16 221.4 218.16 
C 221.4 218.16 221.4 218.16 221.4 218.16 
C 221.4 218.16 221.4 218.16 221.4 218.16 
C 221.4 218.16 221.4 218.16 221.4 218.16 
C 221.4 218.16 221.4 218.16 221.4 218.16 
C 221.4 218.16 221.4 218.16 221.4 218.16 
C 221.4 218.16 221.4 218.16 221.4 218.16 
C 221.4 218.16 221.4 218.16 221.4 218.16 
C 221.4 218.16 221.4 218.16 221.4 218.16 
C 221.4 218.16 221.4 218.16 221.4 218.16 
C 221.4 218.16 221.4 218.16 221.4 218.16 
" clip-path="url(#p8bc4d92fb7)" style="fill: none; stroke: #ffffff; stroke-linecap: round"/>
     </g>
     <g id="text_9">
      <!-- 0.0 -->
      <g style="fill: #dc143c" transform="translate(221.4 215.97375) scale(0.11 -0.11)">
       <defs>
        <path id="ArialMT-2e" d="M 581 0 
L 581 641 
L 1222 641 
L 1222 0 
L 581 0 
z
" transform="scale(0.015625)"/>
       </defs>
       <use xlink:href="#ArialMT-30"/>
       <use xlink:href="#ArialMT-2e" x="55.615234"/>
       <use xlink:href="#ArialMT-30" x="83.398438"/>
      </g>
     </g>
    </g>
    <g id="ytick_2">
     <g id="line2d_10">
      <path d="M 221.4 197.37 
C 224.130118 197.37 226.833689 197.907774 229.355989 198.952545 
C 231.878289 199.997315 234.170265 201.528765 236.10075 203.45925 
C 238.031235 205.389735 239.562685 207.681711 240.607455 210.204011 
C 241.652226 212.726311 242.19 215.429882 242.19 218.16 
C 242.19 220.890118 241.652226 223.593689 240.607455 226.115989 
C 239.562685 228.638289 238.031235 230.930265 236.10075 232.86075 
C 234.170265 234.791235 231.878289 236.322685 229.355989 237.367455 
C 226.833689 238.412226 224.130118 238.95 221.4 238.95 
C 218.669882 238.95 215.966311 238.412226 213.444011 237.367455 
C 210.921711 236.322685 208.629735 234.791235 206.69925 232.86075 
C 204.768765 230.930265 203.237315 228.638289 202.192545 226.115989 
C 201.147774 223.593689 200.61 220.890118 200.61 218.16 
C 200.61 215.429882 201.147774 212.726311 202.192545 210.204011 
C 203.237315 207.681711 204.768765 205.389735 206.69925 203.45925 
C 208.629735 201.528765 210.921711 199.997315 213.444011 198.952545 
C 215.966311 197.907774 218.669882 197.37 221.4 197.37 
" clip-path="url(#p8bc4d92fb7)" style="fill: none; stroke: #ffffff; stroke-linecap: round"/>
     </g>
     <g id="text_10">
      <!-- 0.1 -->
      <g style="fill: #dc143c" transform="translate(229.355989 196.766295) scale(0.11 -0.11)">
       <use xlink:href="#ArialMT-30"/>
       <use xlink:href="#ArialMT-2e" x="55.615234"/>
       <use xlink:href="#ArialMT-31" x="83.398438"/>
      </g>
     </g>
    </g>
    <g id="ytick_3">
     <g id="line2d_11">
      <path d="M 221.4 176.58 
C 226.860236 176.58 232.267377 177.655547 237.311977 179.745089 
C 242.356577 181.834631 246.94053 184.89753 250.8015 188.7585 
C 254.66247 192.61947 257.725369 197.203423 259.814911 202.248023 
C 261.904453 207.292623 262.98 212.699764 262.98 218.16 
C 262.98 223.620236 261.904453 229.027377 259.814911 234.071977 
C 257.725369 239.116577 254.66247 243.70053 250.8015 247.5615 
C 246.94053 251.42247 242.356577 254.485369 237.311977 256.574911 
C 232.267377 258.664453 226.860236 259.74 221.4 259.74 
C 215.939764 259.74 210.532623 258.664453 205.488023 256.574911 
C 200.443423 254.485369 195.85947 251.42247 191.9985 247.5615 
C 188.13753 243.70053 185.074631 239.116577 182.985089 234.071977 
C 180.895547 229.027377 179.82 223.620236 179.82 218.16 
C 179.82 212.699764 180.895547 207.292623 182.985089 202.248023 
C 185.074631 197.203423 188.13753 192.61947 191.9985 188.7585 
C 195.85947 184.89753 200.443423 181.834631 205.488023 179.745089 
C 210.532623 177.655547 215.939764 176.58 221.4 176.58 
" clip-path="url(#p8bc4d92fb7)" style="fill: none; stroke: #ffffff; stroke-linecap: round"/>
     </g>
     <g id="text_11">
      <!-- 0.2 -->
      <g style="fill: #dc143c" transform="translate(237.311977 177.558839) scale(0.11 -0.11)">
       <use xlink:href="#ArialMT-30"/>
       <use xlink:href="#ArialMT-2e" x="55.615234"/>
       <use xlink:href="#ArialMT-32" x="83.398438"/>
      </g>
     </g>
    </g>
    <g id="ytick_4">
     <g id="line2d_12">
      <path d="M 221.4 155.79 
C 229.590353 155.79 237.701066 157.403321 245.267966 160.537634 
C 252.834866 163.671946 259.710796 168.266296 265.50225 174.05775 
C 271.293704 179.849204 275.888054 186.725134 279.022366 194.292034 
C 282.156679 201.858934 283.77 209.969647 283.77 218.16 
C 283.77 226.350353 282.156679 234.461066 279.022366 242.027966 
C 275.888054 249.594866 271.293704 256.470796 265.50225 262.26225 
C 259.710796 268.053704 252.834866 272.648054 245.267966 275.782366 
C 237.701066 278.916679 229.590353 280.53 221.4 280.53 
C 213.209647 280.53 205.098934 278.916679 197.532034 275.782366 
C 189.965134 272.648054 183.089204 268.053704 177.29775 262.26225 
C 171.506296 256.470796 166.911946 249.594866 163.777634 242.027966 
C 160.643321 234.461066 159.03 226.350353 159.03 218.16 
C 159.03 209.969647 160.643321 201.858934 163.777634 194.292034 
C 166.911946 186.725134 171.506296 179.849204 177.29775 174.05775 
C 183.089204 168.266296 189.965134 163.671946 197.532034 160.537634 
C 205.098934 157.403321 213.209647 155.79 221.4 155.79 
" clip-path="url(#p8bc4d92fb7)" style="fill: none; stroke: #ffffff; stroke-linecap: round"/>
     </g>
     <g id="text_12">
      <!-- 0.3 -->
      <g style="fill: #dc143c" transform="translate(245.267966 158.351384) scale(0.11 -0.11)">
       <use xlink:href="#ArialMT-30"/>
       <use xlink:href="#ArialMT-2e" x="55.615234"/>
       <use xlink:href="#ArialMT-33" x="83.398438"/>
      </g>
     </g>
    </g>
    <g id="ytick_5">
     <g id="line2d_13">
      <path d="M 221.4 135 
C 232.320471 135 243.134754 137.151095 253.223954 141.330178 
C 263.313154 145.509261 272.481061 151.635061 280.203 159.357 
C 287.924939 167.078939 294.050739 176.246846 298.229822 186.336046 
C 302.408905 196.425246 304.56 207.239529 304.56 218.16 
C 304.56 229.080471 302.408905 239.894754 298.229822 249.983954 
C 294.050739 260.073154 287.924939 269.241061 280.203 276.963 
C 272.481061 284.684939 263.313154 290.810739 253.223954 294.989822 
C 243.134754 299.168905 232.320471 301.32 221.4 301.32 
C 210.479529 301.32 199.665246 299.168905 189.576046 294.989822 
C 179.486846 290.810739 170.318939 284.684939 162.597 276.963 
C 154.875061 269.241061 148.749261 260.073154 144.570178 249.983954 
C 140.391095 239.894754 138.24 229.080471 138.24 218.16 
C 138.24 207.239529 140.391095 196.425246 144.570178 186.336046 
C 148.749261 176.246846 154.875061 167.078939 162.597 159.357 
C 170.318939 151.635061 179.486846 145.509261 189.576046 141.330178 
C 199.665246 137.151095 210.479529 135 221.4 135 
" clip-path="url(#p8bc4d92fb7)" style="fill: none; stroke: #ffffff; stroke-linecap: round"/>
     </g>
     <g id="text_13">
      <!-- 0.4 -->
      <g style="fill: #dc143c" transform="translate(253.223954 139.143928) scale(0.11 -0.11)">
       <use xlink:href="#ArialMT-30"/>
       <use xlink:href="#ArialMT-2e" x="55.615234"/>
       <use xlink:href="#ArialMT-34" x="83.398438"/>
      </g>
     </g>
    </g>
    <g id="ytick_6">
     <g id="line2d_14">
      <path d="M 221.4 114.21 
C 235.050589 114.21 248.568443 116.898868 261.179943 122.122723 
C 273.791443 127.346577 285.251326 135.003826 294.90375 144.65625 
C 304.556174 154.308674 312.213423 165.768557 317.437277 178.380057 
C 322.661132 190.991557 325.35 204.509411 325.35 218.16 
C 325.35 231.810589 322.661132 245.328443 317.437277 257.939943 
C 312.213423 270.551443 304.556174 282.011326 294.90375 291.66375 
C 285.251326 301.316174 273.791443 308.973423 261.179943 314.197277 
C 248.568443 319.421132 235.050589 322.11 221.4 322.11 
C 207.749411 322.11 194.231557 319.421132 181.620057 314.197277 
C 169.008557 308.973423 157.548674 301.316174 147.89625 291.66375 
C 138.243826 282.011326 130.586577 270.551443 125.362723 257.939943 
C 120.138868 245.328443 117.45 231.810589 117.45 218.16 
C 117.45 204.509411 120.138868 190.991557 125.362723 178.380057 
C 130.586577 165.768557 138.243826 154.308674 147.89625 144.65625 
C 157.548674 135.003826 169.008557 127.346577 181.620057 122.122723 
C 194.231557 116.898868 207.749411 114.21 221.4 114.21 
" clip-path="url(#p8bc4d92fb7)" style="fill: none; stroke: #ffffff; stroke-linecap: round"/>
     </g>
     <g id="text_14">
      <!-- 0.5 -->
      <g style="fill: #dc143c" transform="translate(261.179943 119.936473) scale(0.11 -0.11)">
       <use xlink:href="#ArialMT-30"/>
       <use xlink:href="#ArialMT-2e" x="55.615234"/>
       <use xlink:href="#ArialMT-35" x="83.398438"/>
      </g>
     </g>
    </g>
    <g id="ytick_7">
     <g id="line2d_15">
      <path d="M 221.4 93.42 
C 237.780707 93.42 254.002132 96.646642 269.135931 102.915267 
C 284.269731 109.183892 298.021591 118.372591 309.6045 129.9555 
C 321.187409 141.538409 330.376108 155.290269 336.644733 170.424069 
C 342.913358 185.557868 346.14 201.779293 346.14 218.16 
C 346.14 234.540707 342.913358 250.762132 336.644733 265.895931 
C 330.376108 281.029731 321.187409 294.781591 309.6045 306.3645 
C 298.021591 317.947409 284.269731 327.136108 269.135931 333.404733 
C 254.002132 339.673358 237.780707 342.9 221.4 342.9 
C 205.019293 342.9 188.797868 339.673358 173.664069 333.404733 
C 158.530269 327.136108 144.778409 317.947409 133.1955 306.3645 
C 121.612591 294.781591 112.423892 281.029731 106.155267 265.895931 
C 99.886642 250.762132 96.66 234.540707 96.66 218.16 
C 96.66 201.779293 99.886642 185.557868 106.155267 170.424069 
C 112.423892 155.290269 121.612591 141.538409 133.1955 129.9555 
C 144.778409 118.372591 158.530269 109.183892 173.664069 102.915267 
C 188.797868 96.646642 205.019293 93.42 221.4 93.42 
" clip-path="url(#p8bc4d92fb7)" style="fill: none; stroke: #ffffff; stroke-linecap: round"/>
     </g>
     <g id="text_15">
      <!-- 0.6 -->
      <g style="fill: #dc143c" transform="translate(269.135931 100.729017) scale(0.11 -0.11)">
       <defs>
        <path id="ArialMT-36" d="M 3184 3459 
L 2625 3416 
Q 2550 3747 2413 3897 
Q 2184 4138 1850 4138 
Q 1581 4138 1378 3988 
Q 1113 3794 959 3422 
Q 806 3050 800 2363 
Q 1003 2672 1297 2822 
Q 1591 2972 1913 2972 
Q 2475 2972 2870 2558 
Q 3266 2144 3266 1488 
Q 3266 1056 3080 686 
Q 2894 316 2569 119 
Q 2244 -78 1831 -78 
Q 1128 -78 684 439 
Q 241 956 241 2144 
Q 241 3472 731 4075 
Q 1159 4600 1884 4600 
Q 2425 4600 2770 4297 
Q 3116 3994 3184 3459 
z
M 888 1484 
Q 888 1194 1011 928 
Q 1134 663 1356 523 
Q 1578 384 1822 384 
Q 2178 384 2434 671 
Q 2691 959 2691 1453 
Q 2691 1928 2437 2201 
Q 2184 2475 1800 2475 
Q 1419 2475 1153 2201 
Q 888 1928 888 1484 
z
" transform="scale(0.015625)"/>
       </defs>
       <use xlink:href="#ArialMT-30"/>
       <use xlink:href="#ArialMT-2e" x="55.615234"/>
       <use xlink:href="#ArialMT-36" x="83.398438"/>
      </g>
     </g>
    </g>
    <g id="ytick_8">
     <g id="line2d_16">
      <path d="M 221.4 72.63 
C 240.510824 72.63 259.43582 76.394416 277.09192 83.707812 
C 294.74802 91.021208 310.791856 101.741357 324.30525 115.25475 
C 337.818643 128.768144 348.538792 144.81198 355.852188 162.46808 
C 363.165584 180.12418 366.93 199.049176 366.93 218.16 
C 366.93 237.270824 363.165584 256.19582 355.852188 273.85192 
C 348.538792 291.50802 337.818643 307.551856 324.30525 321.06525 
C 310.791856 334.578643 294.74802 345.298792 277.09192 352.612188 
C 259.43582 359.925584 240.510824 363.69 221.4 363.69 
C 202.289176 363.69 183.36418 359.925584 165.70808 352.612188 
C 148.05198 345.298792 132.008144 334.578643 118.49475 321.06525 
C 104.981357 307.551856 94.261208 291.50802 86.947812 273.85192 
C 79.634416 256.19582 75.87 237.270824 75.87 218.16 
C 75.87 199.049176 79.634416 180.12418 86.947812 162.46808 
C 94.261208 144.81198 104.981357 128.768144 118.49475 115.25475 
C 132.008144 101.741357 148.05198 91.021208 165.70808 83.707812 
C 183.36418 76.394416 202.289176 72.63 221.4 72.63 
" clip-path="url(#p8bc4d92fb7)" style="fill: none; stroke: #ffffff; stroke-linecap: round"/>
     </g>
     <g id="text_16">
      <!-- 0.7 -->
      <g style="fill: #dc143c" transform="translate(277.09192 81.521562) scale(0.11 -0.11)">
       <use xlink:href="#ArialMT-30"/>
       <use xlink:href="#ArialMT-2e" x="55.615234"/>
       <use xlink:href="#ArialMT-37" x="83.398438"/>
      </g>
     </g>
    </g>
    <g id="ytick_9">
     <g id="line2d_17">
      <path d="M 221.4 51.84 
C 243.240942 51.84 264.869509 56.142189 285.047908 64.500356 
C 305.226308 72.858523 323.562121 85.110122 339.006 100.554 
C 354.449878 115.997879 366.701477 134.333692 375.059644 154.512092 
C 383.417811 174.690491 387.72 196.319058 387.72 218.16 
C 387.72 240.000942 383.417811 261.629509 375.059644 281.807908 
C 366.701477 301.986308 354.449878 320.322121 339.006 335.766 
C 323.562121 351.209878 305.226308 363.461477 285.047908 371.819644 
C 264.869509 380.177811 243.240942 384.48 221.4 384.48 
C 199.559058 384.48 177.930491 380.177811 157.752092 371.819644 
C 137.573692 363.461477 119.237879 351.209878 103.794 335.766 
C 88.350122 320.322121 76.098523 301.986308 67.740356 281.807908 
C 59.382189 261.629509 55.08 240.000942 55.08 218.16 
C 55.08 196.319058 59.382189 174.690491 67.740356 154.512092 
C 76.098523 134.333692 88.350122 115.997879 103.794 100.554 
C 119.237879 85.110122 137.573692 72.858523 157.752092 64.500356 
C 177.930491 56.142189 199.559058 51.84 221.4 51.84 
" clip-path="url(#p8bc4d92fb7)" style="fill: none; stroke: #ffffff; stroke-linecap: round"/>
     </g>
     <g id="text_17">
      <!-- 0.8 -->
      <g style="fill: #dc143c" transform="translate(285.047908 62.314106) scale(0.11 -0.11)">
       <use xlink:href="#ArialMT-30"/>
       <use xlink:href="#ArialMT-2e" x="55.615234"/>
       <use xlink:href="#ArialMT-38" x="83.398438"/>
      </g>
     </g>
    </g>
   </g>
   <g id="line2d_18">
    <defs>
     <path id="m7770ac0c94" d="M 0 0.5 
C 0.132602 0.5 0.25979 0.447317 0.353553 0.353553 
C 0.447317 0.25979 0.5 0.132602 0.5 0 
C 0.5 -0.132602 0.447317 -0.25979 0.353553 -0.353553 
C 0.25979 -0.447317 0.132602 -0.5 0 -0.5 
C -0.132602 -0.5 -0.25979 -0.447317 -0.353553 -0.353553 
C -0.447317 -0.25979 -0.5 -0.132602 -0.5 0 
C -0.5 0.132602 -0.447317 0.25979 -0.353553 0.353553 
C -0.25979 0.447317 -0.132602 0.5 0 0.5 
z
" style="stroke: #000000"/>
    </defs>
    <g clip-path="url(#p8bc4d92fb7)">
     <use xlink:href="#m7770ac0c94" x="219.628803" y="319.631792" style="stroke: #000000"/>
     <use xlink:href="#m7770ac0c94" x="220.805153" y="252.238736" style="stroke: #000000"/>
     <use xlink:href="#m7770ac0c94" x="217.858146" y="319.585425" style="stroke: #000000"/>
     <use xlink:href="#m7770ac0c94" x="220.155882" y="253.78687" style="stroke: #000000"/>
     <use xlink:href="#m7770ac0c94" x="216.088568" y="319.508164" style="stroke: #000000"/>
     <use xlink:href="#m7770ac0c94" x="219.534297" y="253.759731" style="stroke: #000000"/>
     <use xlink:href="#m7770ac0c94" x="214.822875" y="312.21727" style="stroke: #000000"/>
     <use xlink:href="#m7770ac0c94" x="220.09135" y="236.874562" style="stroke: #000000"/>
     <use xlink:href="#m7770ac0c94" x="213.182351" y="312.088158" style="stroke: #000000"/>
     <use xlink:href="#m7770ac0c94" x="218.969717" y="245.93826" style="stroke: #000000"/>
     <use xlink:href="#m7770ac0c94" x="211.54433" y="311.930435" style="stroke: #000000"/>
     <use xlink:href="#m7770ac0c94" x="218.324205" y="247.424237" style="stroke: #000000"/>
     <use xlink:href="#m7770ac0c94" x="209.909311" y="311.744148" style="stroke: #000000"/>
     <use xlink:href="#m7770ac0c94" x="217.813942" y="247.3661" style="stroke: #000000"/>
     <use xlink:href="#m7770ac0c94" x="208.277793" y="311.529355" style="stroke: #000000"/>
     <use xlink:href="#m7770ac0c94" x="217.519246" y="245.773" style="stroke: #000000"/>
     <use xlink:href="#m7770ac0c94" x="206.650272" y="311.28612" style="stroke: #000000"/>
     <use xlink:href="#m7770ac0c94" x="217.278084" y="244.184755" style="stroke: #000000"/>
     <use xlink:href="#m7770ac0c94" x="205.027243" y="311.014518" style="stroke: #000000"/>
     <use xlink:href="#m7770ac0c94" x="216.824517" y="244.108854" style="stroke: #000000"/>
     <use xlink:href="#m7770ac0c94" x="203.409202" y="310.714632" style="stroke: #000000"/>
     <use xlink:href="#m7770ac0c94" x="216.079412" y="245.532054" style="stroke: #000000"/>
     <use xlink:href="#m7770ac0c94" x="201.796641" y="310.386553" style="stroke: #000000"/>
     <use xlink:href="#m7770ac0c94" x="215.921702" y="243.933365" style="stroke: #000000"/>
     <use xlink:href="#m7770ac0c94" x="200.190051" y="310.03038" style="stroke: #000000"/>
     <use xlink:href="#m7770ac0c94" x="215.127382" y="245.329694" style="stroke: #000000"/>
     <use xlink:href="#m7770ac0c94" x="196.848012" y="316.632644" style="stroke: #000000"/>
     <use xlink:href="#m7770ac0c94" x="212.775826" y="252.749671" style="stroke: #000000"/>
     <use xlink:href="#m7770ac0c94" x="196.996742" y="309.234199" style="stroke: #000000"/>
     <use xlink:href="#m7770ac0c94" x="214.182994" y="245.094232" style="stroke: #000000"/>
     <use xlink:href="#m7770ac0c94" x="195.902614" y="307.079953" style="stroke: #000000"/>
     <use xlink:href="#m7770ac0c94" x="213.714026" y="244.964175" style="stroke: #000000"/>
     <use xlink:href="#m7770ac0c94" x="193.833164" y="308.327057" style="stroke: #000000"/>
     <use xlink:href="#m7770ac0c94" x="217.659794" y="230.393664" style="stroke: #000000"/>
     <use xlink:href="#m7770ac0c94" x="192.263731" y="307.832217" style="stroke: #000000"/>
     <use xlink:href="#m7770ac0c94" x="213.257663" y="243.219538" style="stroke: #000000"/>
     <use xlink:href="#m7770ac0c94" x="191.283846" y="305.623661" style="stroke: #000000"/>
     <use xlink:href="#m7770ac0c94" x="212.821553" y="243.073618" style="stroke: #000000"/>
     <use xlink:href="#m7770ac0c94" x="189.151964" y="306.76075" style="stroke: #000000"/>
     <use xlink:href="#m7770ac0c94" x="212.388057" y="242.920109" style="stroke: #000000"/>
     <use xlink:href="#m7770ac0c94" x="217.024659" y="230.181151" style="stroke: #000000"/>
     <use xlink:href="#m7770ac0c94" x="188.249754" y="304.519342" style="stroke: #000000"/>
     <use xlink:href="#m7770ac0c94" x="215.750316" y="232.87793" style="stroke: #000000"/>
     <use xlink:href="#m7770ac0c94" x="186.747625" y="303.927638" style="stroke: #000000"/>
     <use xlink:href="#m7770ac0c94" x="212.102346" y="241.1725" style="stroke: #000000"/>
     <use xlink:href="#m7770ac0c94" x="185.256051" y="303.309807" style="stroke: #000000"/>
     <use xlink:href="#m7770ac0c94" x="211.104564" y="242.414527" style="stroke: #000000"/>
     <use xlink:href="#m7770ac0c94" x="183.775487" y="302.66604" style="stroke: #000000"/>
     <use xlink:href="#m7770ac0c94" x="210.682832" y="242.231153" style="stroke: #000000"/>
     <use xlink:href="#m7770ac0c94" x="178.509635" y="310.138684" style="stroke: #000000"/>
     <use xlink:href="#m7770ac0c94" x="207.654259" y="247.637836" style="stroke: #000000"/>
     <use xlink:href="#m7770ac0c94" x="180.849189" y="301.301484" style="stroke: #000000"/>
     <use xlink:href="#m7770ac0c94" x="209.84929" y="241.842466" style="stroke: #000000"/>
     <use xlink:href="#m7770ac0c94" x="179.404346" y="300.581112" style="stroke: #000000"/>
     <use xlink:href="#m7770ac0c94" x="215.592262" y="229.558327" style="stroke: #000000"/>
     <use xlink:href="#m7770ac0c94" x="177.972295" y="299.835634" style="stroke: #000000"/>
     <use xlink:href="#m7770ac0c94" x="209.02982" y="241.424925" style="stroke: #000000"/>
     <use xlink:href="#m7770ac0c94" x="215.394219" y="229.455232" style="stroke: #000000"/>
     <use xlink:href="#m7770ac0c94" x="176.553473" y="299.065276" style="stroke: #000000"/>
     <use xlink:href="#m7770ac0c94" x="209.367131" y="239.86787" style="stroke: #000000"/>
     <use xlink:href="#m7770ac0c94" x="215.198004" y="229.348696" style="stroke: #000000"/>
     <use xlink:href="#m7770ac0c94" x="175.148312" y="298.270274" style="stroke: #000000"/>
     <use xlink:href="#m7770ac0c94" x="208.225421" y="240.97904" style="stroke: #000000"/>
     <use xlink:href="#m7770ac0c94" x="215.003679" y="229.238752" style="stroke: #000000"/>
     <use xlink:href="#m7770ac0c94" x="173.757239" y="297.45087" style="stroke: #000000"/>
     <use xlink:href="#m7770ac0c94" x="208.616868" y="239.434705" style="stroke: #000000"/>
     <use xlink:href="#m7770ac0c94" x="172.380679" y="296.607313" style="stroke: #000000"/>
     <use xlink:href="#m7770ac0c94" x="208.24752" y="239.208368" style="stroke: #000000"/>
     <use xlink:href="#m7770ac0c94" x="171.01905" y="295.73986" style="stroke: #000000"/>
     <use xlink:href="#m7770ac0c94" x="207.882178" y="238.97562" style="stroke: #000000"/>
     <use xlink:href="#m7770ac0c94" x="169.672768" y="294.848775" style="stroke: #000000"/>
     <use xlink:href="#m7770ac0c94" x="206.665738" y="240.004441" style="stroke: #000000"/>
     <use xlink:href="#m7770ac0c94" x="215.072755" y="227.540526" style="stroke: #000000"/>
     <use xlink:href="#m7770ac0c94" x="168.342243" y="293.93433" style="stroke: #000000"/>
     <use xlink:href="#m7770ac0c94" x="214.062442" y="228.639118" style="stroke: #000000"/>
     <use xlink:href="#m7770ac0c94" x="161.747292" y="300.264909" style="stroke: #000000"/>
     <use xlink:href="#m7770ac0c94" x="205.912354" y="239.476916" style="stroke: #000000"/>
     <use xlink:href="#m7770ac0c94" x="165.730078" y="292.036482" style="stroke: #000000"/>
     <use xlink:href="#m7770ac0c94" x="213.701196" y="228.376658" style="stroke: #000000"/>
     <use xlink:href="#m7770ac0c94" x="164.449234" y="291.053656" style="stroke: #000000"/>
     <use xlink:href="#m7770ac0c94" x="213.524064" y="228.240739" style="stroke: #000000"/>
     <use xlink:href="#m7770ac0c94" x="163.185739" y="290.048626" style="stroke: #000000"/>
     <use xlink:href="#m7770ac0c94" x="207.69437" y="235.085043" style="stroke: #000000"/>
     <use xlink:href="#m7770ac0c94" x="161.939975" y="289.021698" style="stroke: #000000"/>
     <use xlink:href="#m7770ac0c94" x="205.446152" y="237.173055" style="stroke: #000000"/>
     <use xlink:href="#m7770ac0c94" x="160.712324" y="287.973185" style="stroke: #000000"/>
     <use xlink:href="#m7770ac0c94" x="205.116758" y="236.891727" style="stroke: #000000"/>
     <use xlink:href="#m7770ac0c94" x="159.503159" y="286.903406" style="stroke: #000000"/>
     <use xlink:href="#m7770ac0c94" x="204.792325" y="236.604692" style="stroke: #000000"/>
     <use xlink:href="#m7770ac0c94" x="158.312849" y="285.812687" style="stroke: #000000"/>
     <use xlink:href="#m7770ac0c94" x="205.512015" y="235.197778" style="stroke: #000000"/>
     <use xlink:href="#m7770ac0c94" x="214.687139" y="225.358662" style="stroke: #000000"/>
     <use xlink:href="#m7770ac0c94" x="157.141755" y="284.701361" style="stroke: #000000"/>
     <use xlink:href="#m7770ac0c94" x="204.158731" y="236.013856" style="stroke: #000000"/>
     <use xlink:href="#m7770ac0c94" x="214.562527" y="225.24041" style="stroke: #000000"/>
     <use xlink:href="#m7770ac0c94" x="155.990235" y="283.569765" style="stroke: #000000"/>
     <use xlink:href="#m7770ac0c94" x="203.849764" y="235.710236" style="stroke: #000000"/>
     <use xlink:href="#m7770ac0c94" x="214.439998" y="225.120002" style="stroke: #000000"/>
     <use xlink:href="#m7770ac0c94" x="154.858639" y="282.418245" style="stroke: #000000"/>
     <use xlink:href="#m7770ac0c94" x="204.6421" y="234.342915" style="stroke: #000000"/>
     <use xlink:href="#m7770ac0c94" x="213.2607" y="226.020031" style="stroke: #000000"/>
     <use xlink:href="#m7770ac0c94" x="147.176925" y="287.374137" style="stroke: #000000"/>
     <use xlink:href="#m7770ac0c94" x="196.472594" y="241.405182" style="stroke: #000000"/>
     <use xlink:href="#m7770ac0c94" x="205.472242" y="233.012875" style="stroke: #000000"/>
     <use xlink:href="#m7770ac0c94" x="152.656594" y="280.056841" style="stroke: #000000"/>
     <use xlink:href="#m7770ac0c94" x="202.955308" y="234.767675" style="stroke: #000000"/>
     <use xlink:href="#m7770ac0c94" x="151.586815" y="278.847676" style="stroke: #000000"/>
     <use xlink:href="#m7770ac0c94" x="203.818118" y="233.443697" style="stroke: #000000"/>
     <use xlink:href="#m7770ac0c94" x="150.538302" y="277.620025" style="stroke: #000000"/>
     <use xlink:href="#m7770ac0c94" x="203.554059" y="233.134523" style="stroke: #000000"/>
     <use xlink:href="#m7770ac0c94" x="149.511374" y="276.374261" style="stroke: #000000"/>
     <use xlink:href="#m7770ac0c94" x="203.295435" y="232.820787" style="stroke: #000000"/>
     <use xlink:href="#m7770ac0c94" x="148.506344" y="275.110766" style="stroke: #000000"/>
     <use xlink:href="#m7770ac0c94" x="203.042327" y="232.502586" style="stroke: #000000"/>
     <use xlink:href="#m7770ac0c94" x="147.523518" y="273.829922" style="stroke: #000000"/>
     <use xlink:href="#m7770ac0c94" x="211.183342" y="225.858804" style="stroke: #000000"/>
     <use xlink:href="#m7770ac0c94" x="146.563196" y="272.532121" style="stroke: #000000"/>
     <use xlink:href="#m7770ac0c94" x="202.552961" y="231.853176" style="stroke: #000000"/>
     <use xlink:href="#m7770ac0c94" x="212.246006" y="224.810766" style="stroke: #000000"/>
     <use xlink:href="#m7770ac0c94" x="145.62567" y="271.217757" style="stroke: #000000"/>
     <use xlink:href="#m7770ac0c94" x="203.560129" y="230.651612" style="stroke: #000000"/>
     <use xlink:href="#m7770ac0c94" x="213.337145" y="223.805672" style="stroke: #000000"/>
     <use xlink:href="#m7770ac0c94" x="144.711225" y="269.887232" style="stroke: #000000"/>
     <use xlink:href="#m7770ac0c94" x="202.086557" y="231.187082" style="stroke: #000000"/>
     <use xlink:href="#m7770ac0c94" x="215.666581" y="222.02724" style="stroke: #000000"/>
     <use xlink:href="#m7770ac0c94" x="143.82014" y="268.54095" style="stroke: #000000"/>
     <use xlink:href="#m7770ac0c94" x="201.862144" y="230.848032" style="stroke: #000000"/>
     <use xlink:href="#m7770ac0c94" x="218.036119" y="220.34453" style="stroke: #000000"/>
     <use xlink:href="#m7770ac0c94" x="135.333932" y="271.940048" style="stroke: #000000"/>
     <use xlink:href="#m7770ac0c94" x="191.168284" y="237.050873" style="stroke: #000000"/>
     <use xlink:href="#m7770ac0c94" x="142.10913" y="265.802761" style="stroke: #000000"/>
     <use xlink:href="#m7770ac0c94" x="201.43124" y="230.158441" style="stroke: #000000"/>
     <use xlink:href="#m7770ac0c94" x="217.961929" y="220.225801" style="stroke: #000000"/>
     <use xlink:href="#m7770ac0c94" x="141.289726" y="264.411688" style="stroke: #000000"/>
     <use xlink:href="#m7770ac0c94" x="201.22488" y="229.808111" style="stroke: #000000"/>
     <use xlink:href="#m7770ac0c94" x="217.9264" y="220.165484" style="stroke: #000000"/>
     <use xlink:href="#m7770ac0c94" x="140.494724" y="263.006527" style="stroke: #000000"/>
     <use xlink:href="#m7770ac0c94" x="201.024665" y="229.454232" style="stroke: #000000"/>
     <use xlink:href="#m7770ac0c94" x="217.891928" y="220.104556" style="stroke: #000000"/>
     <use xlink:href="#m7770ac0c94" x="139.724366" y="261.587705" style="stroke: #000000"/>
     <use xlink:href="#m7770ac0c94" x="200.830657" y="229.096914" style="stroke: #000000"/>
     <use xlink:href="#m7770ac0c94" x="217.858525" y="220.043036" style="stroke: #000000"/>
     <use xlink:href="#m7770ac0c94" x="138.978888" y="260.155654" style="stroke: #000000"/>
     <use xlink:href="#m7770ac0c94" x="200.642914" y="228.736263" style="stroke: #000000"/>
     <use xlink:href="#m7770ac0c94" x="217.826201" y="219.980941" style="stroke: #000000"/>
     <use xlink:href="#m7770ac0c94" x="138.258516" y="258.710811" style="stroke: #000000"/>
     <use xlink:href="#m7770ac0c94" x="200.461495" y="228.372391" style="stroke: #000000"/>
     <use xlink:href="#m7770ac0c94" x="137.563469" y="257.253616" style="stroke: #000000"/>
     <use xlink:href="#m7770ac0c94" x="200.286453" y="228.005409" style="stroke: #000000"/>
     <use xlink:href="#m7770ac0c94" x="136.89396" y="255.784513" style="stroke: #000000"/>
     <use xlink:href="#m7770ac0c94" x="200.117842" y="227.635427" style="stroke: #000000"/>
     <use xlink:href="#m7770ac0c94" x="136.250193" y="254.303949" style="stroke: #000000"/>
     <use xlink:href="#m7770ac0c94" x="198.553271" y="227.857861" style="stroke: #000000"/>
     <use xlink:href="#m7770ac0c94" x="135.632362" y="252.812375" style="stroke: #000000"/>
     <use xlink:href="#m7770ac0c94" x="198.3875" y="227.457654" style="stroke: #000000"/>
     <use xlink:href="#m7770ac0c94" x="212.273796" y="221.847226" style="stroke: #000000"/>
     <use xlink:href="#m7770ac0c94" x="126.653491" y="254.529777" style="stroke: #000000"/>
     <use xlink:href="#m7770ac0c94" x="188.119177" y="230.935311" style="stroke: #000000"/>
     <use xlink:href="#m7770ac0c94" x="134.475259" y="249.798018" style="stroke: #000000"/>
     <use xlink:href="#m7770ac0c94" x="212.150673" y="221.52648" style="stroke: #000000"/>
     <use xlink:href="#m7770ac0c94" x="133.936339" y="248.276154" style="stroke: #000000"/>
     <use xlink:href="#m7770ac0c94" x="212.093328" y="221.364544" style="stroke: #000000"/>
     <use xlink:href="#m7770ac0c94" x="133.424061" y="246.745116" style="stroke: #000000"/>
     <use xlink:href="#m7770ac0c94" x="197.794985" y="225.829734" style="stroke: #000000"/>
     <use xlink:href="#m7770ac0c94" x="212.038819" y="221.201632" style="stroke: #000000"/>
     <use xlink:href="#m7770ac0c94" x="132.938581" y="245.20537" style="stroke: #000000"/>
     <use xlink:href="#m7770ac0c94" x="197.664725" y="225.416602" style="stroke: #000000"/>
     <use xlink:href="#m7770ac0c94" x="211.987161" y="221.037794" style="stroke: #000000"/>
     <use xlink:href="#m7770ac0c94" x="132.480047" y="243.657386" style="stroke: #000000"/>
     <use xlink:href="#m7770ac0c94" x="199.006234" y="224.581309" style="stroke: #000000"/>
     <use xlink:href="#m7770ac0c94" x="132.048599" y="242.101636" style="stroke: #000000"/>
     <use xlink:href="#m7770ac0c94" x="200.363622" y="223.79668" style="stroke: #000000"/>
     <use xlink:href="#m7770ac0c94" x="131.644369" y="240.538592" style="stroke: #000000"/>
     <use xlink:href="#m7770ac0c94" x="208.987355" y="221.25482" style="stroke: #000000"/>
     <use xlink:href="#m7770ac0c94" x="131.267479" y="238.968732" style="stroke: #000000"/>
     <use xlink:href="#m7770ac0c94" x="200.17972" y="223.059088" style="stroke: #000000"/>
     <use xlink:href="#m7770ac0c94" x="130.918044" y="237.392534" style="stroke: #000000"/>
     <use xlink:href="#m7770ac0c94" x="198.612857" y="223.003557" style="stroke: #000000"/>
     <use xlink:href="#m7770ac0c94" x="130.596171" y="235.810476" style="stroke: #000000"/>
     <use xlink:href="#m7770ac0c94" x="198.531795" y="222.605129" style="stroke: #000000"/>
     <use xlink:href="#m7770ac0c94" x="121.454571" y="235.783076" style="stroke: #000000"/>
     <use xlink:href="#m7770ac0c94" x="187.833884" y="224.078612" style="stroke: #000000"/>
     <use xlink:href="#m7770ac0c94" x="201.441413" y="221.679237" style="stroke: #000000"/>
     <use xlink:href="#m7770ac0c94" x="130.035493" y="232.630716" style="stroke: #000000"/>
     <use xlink:href="#m7770ac0c94" x="199.889668" y="221.566902" style="stroke: #000000"/>
     <use xlink:href="#m7770ac0c94" x="129.79686" y="231.033982" style="stroke: #000000"/>
     <use xlink:href="#m7770ac0c94" x="198.330495" y="221.402207" style="stroke: #000000"/>
     <use xlink:href="#m7770ac0c94" x="213.104987" y="219.325788" style="stroke: #000000"/>
     <use xlink:href="#m7770ac0c94" x="129.586129" y="229.433326" style="stroke: #000000"/>
     <use xlink:href="#m7770ac0c94" x="198.277425" y="220.999095" style="stroke: #000000"/>
     <use xlink:href="#m7770ac0c94" x="213.085905" y="219.180843" style="stroke: #000000"/>
     <use xlink:href="#m7770ac0c94" x="129.403366" y="227.829236" style="stroke: #000000"/>
     <use xlink:href="#m7770ac0c94" x="213.069355" y="219.035586" style="stroke: #000000"/>
     <use xlink:href="#m7770ac0c94" x="129.248626" y="226.222201" style="stroke: #000000"/>
     <use xlink:href="#m7770ac0c94" x="213.055342" y="218.890063" style="stroke: #000000"/>
     <use xlink:href="#m7770ac0c94" x="129.121957" y="224.612709" style="stroke: #000000"/>
     <use xlink:href="#m7770ac0c94" x="198.160527" y="219.785062" style="stroke: #000000"/>
     <use xlink:href="#m7770ac0c94" x="129.023396" y="223.001253" style="stroke: #000000"/>
     <use xlink:href="#m7770ac0c94" x="198.135705" y="219.37923" style="stroke: #000000"/>
     <use xlink:href="#m7770ac0c94" x="128.952974" y="221.388321" style="stroke: #000000"/>
     <use xlink:href="#m7770ac0c94" x="198.11797" y="218.973026" style="stroke: #000000"/>
     <use xlink:href="#m7770ac0c94" x="214.48846" y="218.401356" style="stroke: #000000"/>
     <use xlink:href="#m7770ac0c94" x="128.910712" y="219.774407" style="stroke: #000000"/>
     <use xlink:href="#m7770ac0c94" x="213.024743" y="218.306191" style="stroke: #000000"/>
     <use xlink:href="#m7770ac0c94" x="128.896623" y="218.16" style="stroke: #000000"/>
     <use xlink:href="#m7770ac0c94" x="198.103778" y="218.16" style="stroke: #000000"/>
     <use xlink:href="#m7770ac0c94" x="119.928208" y="216.388803" style="stroke: #000000"/>
     <use xlink:href="#m7770ac0c94" x="185.756843" y="217.537846" style="stroke: #000000"/>
     <use xlink:href="#m7770ac0c94" x="199.624856" y="217.779913" style="stroke: #000000"/>
     <use xlink:href="#m7770ac0c94" x="128.952974" y="214.931679" style="stroke: #000000"/>
     <use xlink:href="#m7770ac0c94" x="196.595338" y="217.293802" style="stroke: #000000"/>
     <use xlink:href="#m7770ac0c94" x="129.023396" y="213.318747" style="stroke: #000000"/>
     <use xlink:href="#m7770ac0c94" x="196.614233" y="216.861033" style="stroke: #000000"/>
     <use xlink:href="#m7770ac0c94" x="129.121957" y="211.707291" style="stroke: #000000"/>
     <use xlink:href="#m7770ac0c94" x="199.67459" y="216.640811" style="stroke: #000000"/>
     <use xlink:href="#m7770ac0c94" x="129.248626" y="210.097799" style="stroke: #000000"/>
     <use xlink:href="#m7770ac0c94" x="198.192427" y="216.1296" style="stroke: #000000"/>
     <use xlink:href="#m7770ac0c94" x="129.403366" y="208.490764" style="stroke: #000000"/>
     <use xlink:href="#m7770ac0c94" x="196.716184" y="215.565626" style="stroke: #000000"/>
     <use xlink:href="#m7770ac0c94" x="129.586129" y="206.886674" style="stroke: #000000"/>
     <use xlink:href="#m7770ac0c94" x="199.783872" y="215.505873" style="stroke: #000000"/>
     <use xlink:href="#m7770ac0c94" x="128.030645" y="205.037793" style="stroke: #000000"/>
     <use xlink:href="#m7770ac0c94" x="198.330495" y="214.917793" style="stroke: #000000"/>
     <use xlink:href="#m7770ac0c94" x="128.27388" y="203.410272" style="stroke: #000000"/>
     <use xlink:href="#m7770ac0c94" x="196.885792" y="214.277331" style="stroke: #000000"/>
     <use xlink:href="#m7770ac0c94" x="128.545482" y="201.787243" style="stroke: #000000"/>
     <use xlink:href="#m7770ac0c94" x="198.4577" y="214.114654" style="stroke: #000000"/>
     <use xlink:href="#m7770ac0c94" x="130.596171" y="200.509524" style="stroke: #000000"/>
     <use xlink:href="#m7770ac0c94" x="201.505872" y="214.292973" style="stroke: #000000"/>
     <use xlink:href="#m7770ac0c94" x="122.130491" y="197.059615" style="stroke: #000000"/>
     <use xlink:href="#m7770ac0c94" x="188.060889" y="211.073553" style="stroke: #000000"/>
     <use xlink:href="#m7770ac0c94" x="129.52962" y="196.950051" style="stroke: #000000"/>
     <use xlink:href="#m7770ac0c94" x="197.216348" y="212.576764" style="stroke: #000000"/>
     <use xlink:href="#m7770ac0c94" x="129.913777" y="195.349923" style="stroke: #000000"/>
     <use xlink:href="#m7770ac0c94" x="197.317472" y="212.155551" style="stroke: #000000"/>
     <use xlink:href="#m7770ac0c94" x="130.325801" y="193.756742" style="stroke: #000000"/>
     <use xlink:href="#m7770ac0c94" x="197.425932" y="211.736168" style="stroke: #000000"/>
     <use xlink:href="#m7770ac0c94" x="130.765568" y="192.170995" style="stroke: #000000"/>
     <use xlink:href="#m7770ac0c94" x="197.541695" y="211.318741" style="stroke: #000000"/>
     <use xlink:href="#m7770ac0c94" x="131.232943" y="190.593164" style="stroke: #000000"/>
     <use xlink:href="#m7770ac0c94" x="199.121712" y="211.348844" style="stroke: #000000"/>
     <use xlink:href="#m7770ac0c94" x="131.727783" y="189.023731" style="stroke: #000000"/>
     <use xlink:href="#m7770ac0c94" x="199.243976" y="210.961072" style="stroke: #000000"/>
     <use xlink:href="#m7770ac0c94" x="132.249939" y="187.463172" style="stroke: #000000"/>
     <use xlink:href="#m7770ac0c94" x="197.932436" y="210.07947" style="stroke: #000000"/>
     <use xlink:href="#m7770ac0c94" x="132.79925" y="185.911964" style="stroke: #000000"/>
     <use xlink:href="#m7770ac0c94" x="196.639891" y="209.148057" style="stroke: #000000"/>
     <use xlink:href="#m7770ac0c94" x="133.37555" y="184.37058" style="stroke: #000000"/>
     <use xlink:href="#m7770ac0c94" x="198.228738" y="209.265386" style="stroke: #000000"/>
     <use xlink:href="#m7770ac0c94" x="133.978664" y="182.839487" style="stroke: #000000"/>
     <use xlink:href="#m7770ac0c94" x="199.800119" y="209.433082" style="stroke: #000000"/>
     <use xlink:href="#m7770ac0c94" x="127.980495" y="178.505773" style="stroke: #000000"/>
     <use xlink:href="#m7770ac0c94" x="188.585303" y="204.230988" style="stroke: #000000"/>
     <use xlink:href="#m7770ac0c94" x="31.934891" y="133.804699" style="stroke: #000000"/>
     <use xlink:href="#m7770ac0c94" x="128.686785" y="176.881417" style="stroke: #000000"/>
     <use xlink:href="#m7770ac0c94" x="191.686757" y="204.930812" style="stroke: #000000"/>
     <use xlink:href="#m7770ac0c94" x="135.947004" y="178.312614" style="stroke: #000000"/>
     <use xlink:href="#m7770ac0c94" x="197.519554" y="207.024365" style="stroke: #000000"/>
     <use xlink:href="#m7770ac0c94" x="211.145165" y="213.378092" style="stroke: #000000"/>
     <use xlink:href="#m7770ac0c94" x="136.655452" y="176.827322" style="stroke: #000000"/>
     <use xlink:href="#m7770ac0c94" x="197.717534" y="206.60929" style="stroke: #000000"/>
     <use xlink:href="#m7770ac0c94" x="137.389714" y="175.354621" style="stroke: #000000"/>
     <use xlink:href="#m7770ac0c94" x="197.922729" y="206.197733" style="stroke: #000000"/>
     <use xlink:href="#m7770ac0c94" x="138.149566" y="173.894959" style="stroke: #000000"/>
     <use xlink:href="#m7770ac0c94" x="199.485434" y="206.507819" style="stroke: #000000"/>
     <use xlink:href="#m7770ac0c94" x="138.934777" y="172.44878" style="stroke: #000000"/>
     <use xlink:href="#m7770ac0c94" x="199.69213" y="206.127131" style="stroke: #000000"/>
     <use xlink:href="#m7770ac0c94" x="139.745107" y="171.016526" style="stroke: #000000"/>
     <use xlink:href="#m7770ac0c94" x="198.58096" y="204.985421" style="stroke: #000000"/>
     <use xlink:href="#m7770ac0c94" x="140.580311" y="169.598631" style="stroke: #000000"/>
     <use xlink:href="#m7770ac0c94" x="198.814364" y="204.589181" style="stroke: #000000"/>
     <use xlink:href="#m7770ac0c94" x="139.921995" y="167.246892" style="stroke: #000000"/>
     <use xlink:href="#m7770ac0c94" x="199.054647" y="204.197074" style="stroke: #000000"/>
     <use xlink:href="#m7770ac0c94" x="140.822961" y="165.832659" style="stroke: #000000"/>
     <use xlink:href="#m7770ac0c94" x="199.301737" y="203.80922" style="stroke: #000000"/>
     <use xlink:href="#m7770ac0c94" x="141.748471" y="164.434366" style="stroke: #000000"/>
     <use xlink:href="#m7770ac0c94" x="215.666581" y="214.29276" style="stroke: #000000"/>
     <use xlink:href="#m7770ac0c94" x="138.266513" y="159.949306" style="stroke: #000000"/>
     <use xlink:href="#m7770ac0c94" x="193.480081" y="198.610263" style="stroke: #000000"/>
     <use xlink:href="#m7770ac0c94" x="143.671991" y="161.687296" style="stroke: #000000"/>
     <use xlink:href="#m7770ac0c94" x="197.594325" y="200.864165" style="stroke: #000000"/>
     <use xlink:href="#m7770ac0c94" x="144.669414" y="160.339356" style="stroke: #000000"/>
     <use xlink:href="#m7770ac0c94" x="199.130553" y="201.378768" style="stroke: #000000"/>
     <use xlink:href="#m7770ac0c94" x="145.690209" y="159.009029" style="stroke: #000000"/>
     <use xlink:href="#m7770ac0c94" x="208.976981" y="208.454074" style="stroke: #000000"/>
     <use xlink:href="#m7770ac0c94" x="146.734067" y="157.69672" style="stroke: #000000"/>
     <use xlink:href="#m7770ac0c94" x="199.729776" y="200.611798" style="stroke: #000000"/>
     <use xlink:href="#m7770ac0c94" x="147.800669" y="156.402828" style="stroke: #000000"/>
     <use xlink:href="#m7770ac0c94" x="197.673789" y="198.251345" style="stroke: #000000"/>
     <use xlink:href="#m7770ac0c94" x="148.88969" y="155.127749" style="stroke: #000000"/>
     <use xlink:href="#m7770ac0c94" x="199.192344" y="198.855179" style="stroke: #000000"/>
     <use xlink:href="#m7770ac0c94" x="150.000798" y="153.87187" style="stroke: #000000"/>
     <use xlink:href="#m7770ac0c94" x="199.532642" y="198.470542" style="stroke: #000000"/>
     <use xlink:href="#m7770ac0c94" x="151.133655" y="152.635573" style="stroke: #000000"/>
     <use xlink:href="#m7770ac0c94" x="201.006664" y="199.142907" style="stroke: #000000"/>
     <use xlink:href="#m7770ac0c94" x="152.287916" y="151.419236" style="stroke: #000000"/>
     <use xlink:href="#m7770ac0c94" x="201.341664" y="198.78989" style="stroke: #000000"/>
     <use xlink:href="#m7770ac0c94" x="153.463229" y="150.223229" style="stroke: #000000"/>
     <use xlink:href="#m7770ac0c94" x="200.593077" y="197.353077" style="stroke: #000000"/>
     <use xlink:href="#m7770ac0c94" x="152.158374" y="146.458198" style="stroke: #000000"/>
     <use xlink:href="#m7770ac0c94" x="197.723315" y="193.642075" style="stroke: #000000"/>
     <use xlink:href="#m7770ac0c94" x="154.650188" y="146.579591" style="stroke: #000000"/>
     <use xlink:href="#m7770ac0c94" x="154.702911" y="144.085378" style="stroke: #000000"/>
     <use xlink:href="#m7770ac0c94" x="198.593401" y="192.830706" style="stroke: #000000"/>
     <use xlink:href="#m7770ac0c94" x="156.00585" y="142.932636" style="stroke: #000000"/>
     <use xlink:href="#m7770ac0c94" x="200.061553" y="193.612925" style="stroke: #000000"/>
     <use xlink:href="#m7770ac0c94" x="157.328708" y="141.802808" style="stroke: #000000"/>
     <use xlink:href="#m7770ac0c94" x="199.491274" y="192.050197" style="stroke: #000000"/>
     <use xlink:href="#m7770ac0c94" x="158.671083" y="140.696239" style="stroke: #000000"/>
     <use xlink:href="#m7770ac0c94" x="199.95029" y="191.671814" style="stroke: #000000"/>
     <use xlink:href="#m7770ac0c94" x="160.032566" y="139.613267" style="stroke: #000000"/>
     <use xlink:href="#m7770ac0c94" x="200.415839" y="191.301499" style="stroke: #000000"/>
     <use xlink:href="#m7770ac0c94" x="161.412742" y="138.55422" style="stroke: #000000"/>
     <use xlink:href="#m7770ac0c94" x="201.82585" y="192.184225" style="stroke: #000000"/>
     <use xlink:href="#m7770ac0c94" x="162.811191" y="137.519423" style="stroke: #000000"/>
     <use xlink:href="#m7770ac0c94" x="202.282171" y="191.846566" style="stroke: #000000"/>
     <use xlink:href="#m7770ac0c94" x="163.189306" y="135.026513" style="stroke: #000000"/>
     <use xlink:href="#m7770ac0c94" x="202.744315" y="191.516921" style="stroke: #000000"/>
     <use xlink:href="#m7770ac0c94" x="165.661197" y="135.523827" style="stroke: #000000"/>
     <use xlink:href="#m7770ac0c94" x="202.34051" y="189.903144" style="stroke: #000000"/>
     <use xlink:href="#m7770ac0c94" x="167.111887" y="134.563637" style="stroke: #000000"/>
     <use xlink:href="#m7770ac0c94" x="202.836563" y="189.574814" style="stroke: #000000"/>
     <use xlink:href="#m7770ac0c94" x="168.579113" y="133.62891" style="stroke: #000000"/>
     <use xlink:href="#m7770ac0c94" x="204.164273" y="190.577071" style="stroke: #000000"/>
     <use xlink:href="#m7770ac0c94" x="170.062429" y="132.719933" style="stroke: #000000"/>
     <use xlink:href="#m7770ac0c94" x="203.84548" y="188.944372" style="stroke: #000000"/>
     <use xlink:href="#m7770ac0c94" x="210.961991" y="200.788236" style="stroke: #000000"/>
     <use xlink:href="#m7770ac0c94" x="171.561382" y="131.836982" style="stroke: #000000"/>
     <use xlink:href="#m7770ac0c94" x="203.575707" y="187.287418" style="stroke: #000000"/>
     <use xlink:href="#m7770ac0c94" x="212.019869" y="201.913137" style="stroke: #000000"/>
     <use xlink:href="#m7770ac0c94" x="173.075517" y="130.980326" style="stroke: #000000"/>
     <use xlink:href="#m7770ac0c94" x="204.117222" y="186.981044" style="stroke: #000000"/>
     <use xlink:href="#m7770ac0c94" x="213.032289" y="203.064251" style="stroke: #000000"/>
     <use xlink:href="#m7770ac0c94" x="174.604373" y="130.150225" style="stroke: #000000"/>
     <use xlink:href="#m7770ac0c94" x="205.398566" y="188.065679" style="stroke: #000000"/>
     <use xlink:href="#m7770ac0c94" x="213.998763" y="204.240299" style="stroke: #000000"/>
     <use xlink:href="#m7770ac0c94" x="176.147482" y="129.346933" style="stroke: #000000"/>
     <use xlink:href="#m7770ac0c94" x="205.926221" y="187.790999" style="stroke: #000000"/>
     <use xlink:href="#m7770ac0c94" x="177.704376" y="128.570694" style="stroke: #000000"/>
     <use xlink:href="#m7770ac0c94" x="206.45859" y="187.525569" style="stroke: #000000"/>
     <use xlink:href="#m7770ac0c94" x="179.27458" y="127.821746" style="stroke: #000000"/>
     <use xlink:href="#m7770ac0c94" x="206.99551" y="187.269472" style="stroke: #000000"/>
     <use xlink:href="#m7770ac0c94" x="180.121417" y="125.446785" style="stroke: #000000"/>
     <use xlink:href="#m7770ac0c94" x="211.304886" y="195.486002" style="stroke: #000000"/>
     <use xlink:href="#m7770ac0c94" x="182.453001" y="126.406621" style="stroke: #000000"/>
     <use xlink:href="#m7770ac0c94" x="208.691394" y="188.220401" style="stroke: #000000"/>
     <use xlink:href="#m7770ac0c94" x="184.06025" y="125.740877" style="stroke: #000000"/>
     <use xlink:href="#m7770ac0c94" x="208.045804" y="185.107206" style="stroke: #000000"/>
     <use xlink:href="#m7770ac0c94" x="213.808043" y="199.369247" style="stroke: #000000"/>
     <use xlink:href="#m7770ac0c94" x="185.678874" y="125.103284" style="stroke: #000000"/>
     <use xlink:href="#m7770ac0c94" x="209.185413" y="186.339913" style="stroke: #000000"/>
     <use xlink:href="#m7770ac0c94" x="213.595298" y="197.828055" style="stroke: #000000"/>
     <use xlink:href="#m7770ac0c94" x="187.308378" y="124.494038" style="stroke: #000000"/>
     <use xlink:href="#m7770ac0c94" x="209.74261" y="186.131585" style="stroke: #000000"/>
     <use xlink:href="#m7770ac0c94" x="188.948266" y="123.913323" style="stroke: #000000"/>
     <use xlink:href="#m7770ac0c94" x="210.303359" y="185.933014" style="stroke: #000000"/>
     <use xlink:href="#m7770ac0c94" x="191.155314" y="125.076428" style="stroke: #000000"/>
     <use xlink:href="#m7770ac0c94" x="210.867487" y="185.744259" style="stroke: #000000"/>
     <use xlink:href="#m7770ac0c94" x="192.257197" y="122.838186" style="stroke: #000000"/>
     <use xlink:href="#m7770ac0c94" x="211.434824" y="185.565378" style="stroke: #000000"/>
     <use xlink:href="#m7770ac0c94" x="194.422308" y="124.077608" style="stroke: #000000"/>
     <use xlink:href="#m7770ac0c94" x="212.005196" y="185.396426" style="stroke: #000000"/>
     <use xlink:href="#m7770ac0c94" x="196.068381" y="123.621111" style="stroke: #000000"/>
     <use xlink:href="#m7770ac0c94" x="214.976168" y="194.185932" style="stroke: #000000"/>
     <use xlink:href="#m7770ac0c94" x="197.285894" y="121.443605" style="stroke: #000000"/>
     <use xlink:href="#m7770ac0c94" x="214.281344" y="189.608629" style="stroke: #000000"/>
     <use xlink:href="#m7770ac0c94" x="198.570336" y="119.273863" style="stroke: #000000"/>
     <use xlink:href="#m7770ac0c94" x="214.083423" y="186.468425" style="stroke: #000000"/>
     <use xlink:href="#m7770ac0c94" x="201.05088" y="122.424919" style="stroke: #000000"/>
     <use xlink:href="#m7770ac0c94" x="214.313553" y="184.820889" style="stroke: #000000"/>
     <use xlink:href="#m7770ac0c94" x="202.724787" y="122.084359" style="stroke: #000000"/>
     <use xlink:href="#m7770ac0c94" x="214.89648" y="184.702291" style="stroke: #000000"/>
     <use xlink:href="#m7770ac0c94" x="204.404383" y="121.773064" style="stroke: #000000"/>
     <use xlink:href="#m7770ac0c94" x="215.209688" y="183.052996" style="stroke: #000000"/>
     <use xlink:href="#m7770ac0c94" x="206.089155" y="121.49113" style="stroke: #000000"/>
     <use xlink:href="#m7770ac0c94" x="216.796848" y="189.096843" style="stroke: #000000"/>
     <use xlink:href="#m7770ac0c94" x="207.778591" y="121.238642" style="stroke: #000000"/>
     <use xlink:href="#m7770ac0c94" x="217.945754" y="193.581763" style="stroke: #000000"/>
     <use xlink:href="#m7770ac0c94" x="209.472177" y="121.015677" style="stroke: #000000"/>
     <use xlink:href="#m7770ac0c94" x="217.246214" y="184.330129" style="stroke: #000000"/>
     <use xlink:href="#m7770ac0c94" x="211.169396" y="120.822304" style="stroke: #000000"/>
     <use xlink:href="#m7770ac0c94" x="217.837259" y="184.262788" style="stroke: #000000"/>
     <use xlink:href="#m7770ac0c94" x="212.869731" y="120.65858" style="stroke: #000000"/>
     <use xlink:href="#m7770ac0c94" x="218.42939" y="184.205773" style="stroke: #000000"/>
     <use xlink:href="#m7770ac0c94" x="214.572665" y="120.524556" style="stroke: #000000"/>
     <use xlink:href="#m7770ac0c94" x="219.131157" y="185.714036" style="stroke: #000000"/>
     <use xlink:href="#m7770ac0c94" x="216.277678" y="120.420273" style="stroke: #000000"/>
     <use xlink:href="#m7770ac0c94" x="219.779031" y="187.230078" style="stroke: #000000"/>
     <use xlink:href="#m7770ac0c94" x="217.858146" y="116.734575" style="stroke: #000000"/>
     <use xlink:href="#m7770ac0c94" x="220.155882" y="182.53313" style="stroke: #000000"/>
     <use xlink:href="#m7770ac0c94" x="219.691866" y="120.301047" style="stroke: #000000"/>
     <use xlink:href="#m7770ac0c94" x="220.832357" y="185.63976" style="stroke: #000000"/>
     <use xlink:href="#m7770ac0c94" x="221.4" y="120.28614" style="stroke: #000000"/>
     <use xlink:href="#m7770ac0c94" x="221.4" y="184.076073" style="stroke: #000000"/>
     <use xlink:href="#m7770ac0c94" x="223.108134" y="120.301047" style="stroke: #000000"/>
     <use xlink:href="#m7770ac0c94" x="221.994847" y="184.081264" style="stroke: #000000"/>
     <use xlink:href="#m7770ac0c94" x="221.701225" y="200.902842" style="stroke: #000000"/>
     <use xlink:href="#m7770ac0c94" x="224.815748" y="120.345763" style="stroke: #000000"/>
     <use xlink:href="#m7770ac0c94" x="222.589512" y="184.096836" style="stroke: #000000"/>
     <use xlink:href="#m7770ac0c94" x="222.054724" y="199.411167" style="stroke: #000000"/>
     <use xlink:href="#m7770ac0c94" x="226.522322" y="120.420273" style="stroke: #000000"/>
     <use xlink:href="#m7770ac0c94" x="222.61923" y="194.895705" style="stroke: #000000"/>
     <use xlink:href="#m7770ac0c94" x="228.227335" y="120.524556" style="stroke: #000000"/>
     <use xlink:href="#m7770ac0c94" x="223.668843" y="185.714036" style="stroke: #000000"/>
     <use xlink:href="#m7770ac0c94" x="229.930269" y="120.65858" style="stroke: #000000"/>
     <use xlink:href="#m7770ac0c94" x="224.234757" y="185.758574" style="stroke: #000000"/>
     <use xlink:href="#m7770ac0c94" x="231.630604" y="120.822304" style="stroke: #000000"/>
     <use xlink:href="#m7770ac0c94" x="224.962741" y="184.262788" style="stroke: #000000"/>
     <use xlink:href="#m7770ac0c94" x="233.327823" y="121.015677" style="stroke: #000000"/>
     <use xlink:href="#m7770ac0c94" x="225.553786" y="184.330129" style="stroke: #000000"/>
     <use xlink:href="#m7770ac0c94" x="234.771348" y="123.017912" style="stroke: #000000"/>
     <use xlink:href="#m7770ac0c94" x="225.926632" y="185.951339" style="stroke: #000000"/>
     <use xlink:href="#m7770ac0c94" x="237.276103" y="117.922228" style="stroke: #000000"/>
     <use xlink:href="#m7770ac0c94" x="226.976668" y="182.950307" style="stroke: #000000"/>
     <use xlink:href="#m7770ac0c94" x="238.395617" y="121.773064" style="stroke: #000000"/>
     <use xlink:href="#m7770ac0c94" x="226.778295" y="187.658172" style="stroke: #000000"/>
     <use xlink:href="#m7770ac0c94" x="240.075213" y="122.084359" style="stroke: #000000"/>
     <use xlink:href="#m7770ac0c94" x="227.6061" y="186.232386" style="stroke: #000000"/>
     <use xlink:href="#m7770ac0c94" x="241.74912" y="122.424919" style="stroke: #000000"/>
     <use xlink:href="#m7770ac0c94" x="228.162368" y="186.34556" style="stroke: #000000"/>
     <use xlink:href="#m7770ac0c94" x="243.416828" y="122.794641" style="stroke: #000000"/>
     <use xlink:href="#m7770ac0c94" x="229.067215" y="184.949642" style="stroke: #000000"/>
     <use xlink:href="#m7770ac0c94" x="244.643155" y="124.936797" style="stroke: #000000"/>
     <use xlink:href="#m7770ac0c94" x="229.268557" y="186.600944" style="stroke: #000000"/>
     <use xlink:href="#m7770ac0c94" x="246.731619" y="123.621111" style="stroke: #000000"/>
     <use xlink:href="#m7770ac0c94" x="229.81814" y="186.743075" style="stroke: #000000"/>
     <use xlink:href="#m7770ac0c94" x="247.882439" y="125.804761" style="stroke: #000000"/>
     <use xlink:href="#m7770ac0c94" x="229.937142" y="188.387449" style="stroke: #000000"/>
     <use xlink:href="#m7770ac0c94" x="249.490227" y="126.281009" style="stroke: #000000"/>
     <use xlink:href="#m7770ac0c94" x="230.909446" y="187.056003" style="stroke: #000000"/>
     <use xlink:href="#m7770ac0c94" x="251.089458" y="126.785245" style="stroke: #000000"/>
     <use xlink:href="#m7770ac0c94" x="231.450838" y="187.226703" style="stroke: #000000"/>
     <use xlink:href="#m7770ac0c94" x="252.679645" y="127.317314" style="stroke: #000000"/>
     <use xlink:href="#m7770ac0c94" x="231.989167" y="187.406825" style="stroke: #000000"/>
     <use xlink:href="#m7770ac0c94" x="256.110683" y="122.793181" style="stroke: #000000"/>
     <use xlink:href="#m7770ac0c94" x="231.464091" y="190.509138" style="stroke: #000000"/>
     <use xlink:href="#m7770ac0c94" x="255.830955" y="128.464297" style="stroke: #000000"/>
     <use xlink:href="#m7770ac0c94" x="232.499504" y="189.244803" style="stroke: #000000"/>
     <use xlink:href="#m7770ac0c94" x="257.391116" y="129.078861" style="stroke: #000000"/>
     <use xlink:href="#m7770ac0c94" x="233.002453" y="189.44292" style="stroke: #000000"/>
     <use xlink:href="#m7770ac0c94" x="258.940315" y="129.72056" style="stroke: #000000"/>
     <use xlink:href="#m7770ac0c94" x="234.108606" y="188.220401" style="stroke: #000000"/>
     <use xlink:href="#m7770ac0c94" x="260.478079" y="130.389199" style="stroke: #000000"/>
     <use xlink:href="#m7770ac0c94" x="234.629188" y="188.446757" style="stroke: #000000"/>
     <use xlink:href="#m7770ac0c94" x="262.003938" y="131.084573" style="stroke: #000000"/>
     <use xlink:href="#m7770ac0c94" x="235.80449" y="187.269472" style="stroke: #000000"/>
     <use xlink:href="#m7770ac0c94" x="263.51743" y="131.806471" style="stroke: #000000"/>
     <use xlink:href="#m7770ac0c94" x="234.977393" y="190.32222" style="stroke: #000000"/>
     <use xlink:href="#m7770ac0c94" x="264.205379" y="134.149714" style="stroke: #000000"/>
     <use xlink:href="#m7770ac0c94" x="234.758867" y="191.941748" style="stroke: #000000"/>
     <use xlink:href="#m7770ac0c94" x="266.505468" y="133.328953" style="stroke: #000000"/>
     <use xlink:href="#m7770ac0c94" x="235.940646" y="190.813022" style="stroke: #000000"/>
     <use xlink:href="#m7770ac0c94" x="267.979104" y="134.129072" style="stroke: #000000"/>
     <use xlink:href="#m7770ac0c94" x="236.415702" y="191.070956" style="stroke: #000000"/>
     <use xlink:href="#m7770ac0c94" x="269.438552" y="134.954788" style="stroke: #000000"/>
     <use xlink:href="#m7770ac0c94" x="236.886184" y="191.337142" style="stroke: #000000"/>
     <use xlink:href="#m7770ac0c94" x="273.669797" y="131.168449" style="stroke: #000000"/>
     <use xlink:href="#m7770ac0c94" x="237.351949" y="191.611499" style="stroke: #000000"/>
     <use xlink:href="#m7770ac0c94" x="272.313108" y="136.681995" style="stroke: #000000"/>
     <use xlink:href="#m7770ac0c94" x="236.176464" y="194.512715" style="stroke: #000000"/>
     <use xlink:href="#m7770ac0c94" x="273.727341" y="137.582961" style="stroke: #000000"/>
     <use xlink:href="#m7770ac0c94" x="236.586915" y="194.774201" style="stroke: #000000"/>
     <use xlink:href="#m7770ac0c94" x="275.125634" y="138.508471" style="stroke: #000000"/>
     <use xlink:href="#m7770ac0c94" x="237.854493" y="193.765211" style="stroke: #000000"/>
     <use xlink:href="#m7770ac0c94" x="276.507563" y="139.458244" style="stroke: #000000"/>
     <use xlink:href="#m7770ac0c94" x="239.165021" y="192.788921" style="stroke: #000000"/>
     <use xlink:href="#m7770ac0c94" x="277.872704" y="140.431991" style="stroke: #000000"/>
     <use xlink:href="#m7770ac0c94" x="232.427005" y="202.98263" style="stroke: #000000"/>
     <use xlink:href="#m7770ac0c94" x="278.143302" y="142.859095" style="stroke: #000000"/>
     <use xlink:href="#m7770ac0c94" x="232.690207" y="203.177389" style="stroke: #000000"/>
     <use xlink:href="#m7770ac0c94" x="279.448842" y="143.860871" style="stroke: #000000"/>
     <use xlink:href="#m7770ac0c94" x="239.516105" y="194.972443" style="stroke: #000000"/>
     <use xlink:href="#m7770ac0c94" x="280.736699" y="144.885279" style="stroke: #000000"/>
     <use xlink:href="#m7770ac0c94" x="239.918025" y="195.292144" style="stroke: #000000"/>
     <use xlink:href="#m7770ac0c94" x="282.006482" y="145.932007" style="stroke: #000000"/>
     <use xlink:href="#m7770ac0c94" x="240.314303" y="195.618811" style="stroke: #000000"/>
     <use xlink:href="#m7770ac0c94" x="283.257804" y="147.000737" style="stroke: #000000"/>
     <use xlink:href="#m7770ac0c94" x="240.704821" y="195.952344" style="stroke: #000000"/>
    </g>
   </g>
   <g id="patch_3">
    <path d="M 221.4 51.84 
C 199.559058 51.84 177.930491 56.142189 157.752092 64.500356 
C 137.573692 72.858523 119.237879 85.110122 103.794 100.554 
C 88.350122 115.997879 76.098523 134.333692 67.740356 154.512092 
C 59.382189 174.690491 55.08 196.319058 55.08 218.16 
C 55.08 240.000942 59.382189 261.629509 67.740356 281.807908 
C 76.098523 301.986308 88.350122 320.322121 103.794 335.766 
C 119.237879 351.209878 137.573692 363.461477 157.752092 371.819644 
C 177.930491 380.177811 199.559058 384.48 221.4 384.48 
C 243.240942 384.48 264.869509 380.177811 285.047908 371.819644 
C 305.226308 363.461477 323.562121 351.209878 339.006 335.766 
C 354.449878 320.322121 366.701477 301.986308 375.059644 281.807908 
C 383.417811 261.629509 387.72 240.000942 387.72 218.16 
C 387.72 196.319058 383.417811 174.690491 375.059644 154.512092 
C 366.701477 134.333692 354.449878 115.997879 339.006 100.554 
C 323.562121 85.110122 305.226308 72.858523 285.047908 64.500356 
C 264.869509 56.142189 243.240942 51.84 221.4 51.84 
" style="fill: none; stroke: #ffffff; stroke-width: 1.25; stroke-linejoin: miter; stroke-linecap: square"/>
   </g>
  </g>
 </g>
 <defs>
  <clipPath id="p8bc4d92fb7">
   <path d="M 387.72 218.16 
C 387.72 196.319058 383.417811 174.690491 375.059644 154.512092 
C 366.701477 134.333692 354.449878 115.997879 339.006 100.554 
C 323.562121 85.110122 305.226308 72.858523 285.047908 64.500356 
C 264.869509 56.142189 243.240942 51.84 221.4 51.84 
C 199.559058 51.84 177.930491 56.142189 157.752092 64.500356 
C 137.573692 72.858523 119.237879 85.110122 103.794 100.554 
C 88.350122 115.997879 76.098523 134.333692 67.740356 154.512092 
C 59.382189 174.690491 55.08 196.319058 55.08 218.16 
C 55.08 240.000942 59.382189 261.629509 67.740356 281.807908 
C 76.098523 301.986308 88.350122 320.322121 103.794 335.766 
C 119.237879 351.209878 137.573692 363.461477 157.752092 371.819644 
C 177.930491 380.177811 199.559058 384.48 221.4 384.48 
C 243.240942 384.48 264.869509 380.177811 285.047908 371.819644 
C 305.226308 363.461477 323.562121 351.209878 339.006 335.766 
C 354.449878 320.322121 366.701477 301.986308 375.059644 281.807908 
C 383.417811 261.629509 387.72 240.000942 387.72 218.16 
M 221.4 218.16 
C 221.4 218.16 221.4 218.16 221.4 218.16 
C 221.4 218.16 221.4 218.16 221.4 218.16 
C 221.4 218.16 221.4 218.16 221.4 218.16 
C 221.4 218.16 221.4 218.16 221.4 218.16 
C 221.4 218.16 221.4 218.16 221.4 218.16 
C 221.4 218.16 221.4 218.16 221.4 218.16 
C 221.4 218.16 221.4 218.16 221.4 218.16 
C 221.4 218.16 221.4 218.16 221.4 218.16 
C 221.4 218.16 221.4 218.16 221.4 218.16 
C 221.4 218.16 221.4 218.16 221.4 218.16 
C 221.4 218.16 221.4 218.16 221.4 218.16 
C 221.4 218.16 221.4 218.16 221.4 218.16 
C 221.4 218.16 221.4 218.16 221.4 218.16 
C 221.4 218.16 221.4 218.16 221.4 218.16 
C 221.4 218.16 221.4 218.16 221.4 218.16 
C 221.4 218.16 221.4 218.16 221.4 218.16 
z
"/>
  </clipPath>
 </defs>
</svg>
