<?xml version="1.0" encoding="utf-8" standalone="no"?>
<!DOCTYPE svg PUBLIC "-//W3C//DTD SVG 1.1//EN"
  "http://www.w3.org/Graphics/SVG/1.1/DTD/svg11.dtd">
<svg xmlns:xlink="http://www.w3.org/1999/xlink" width="460.8pt" height="345.6pt" viewBox="0 0 460.8 345.6" xmlns="http://www.w3.org/2000/svg" version="1.1">
 <metadata>
  <rdf:RDF xmlns:dc="http://purl.org/dc/elements/1.1/" xmlns:cc="http://creativecommons.org/ns#" xmlns:rdf="http://www.w3.org/1999/02/22-rdf-syntax-ns#">
   <cc:Work>
    <dc:type rdf:resource="http://purl.org/dc/dcmitype/StillImage"/>
    <dc:date>2024-08-05T14:58:09.253918</dc:date>
    <dc:format>image/svg+xml</dc:format>
    <dc:creator>
     <cc:Agent>
      <dc:title>Matplotlib v3.9.1, https://matplotlib.org/</dc:title>
     </cc:Agent>
    </dc:creator>
   </cc:Work>
  </rdf:RDF>
 </metadata>
 <defs>
  <style type="text/css">*{stroke-linejoin: round; stroke-linecap: butt}</style>
 </defs>
 <g id="figure_1">
  <g id="patch_1">
   <path d="M 0 345.6 
L 460.8 345.6 
L 460.8 0 
L 0 0 
z
" style="fill: #ffffff"/>
  </g>
  <g id="axes_1">
   <g id="patch_2">
    <path d="M 369.216 174.528 
C 369.216 157.055246 365.774248 139.752393 359.087715 123.609673 
C 352.401182 107.466954 342.599903 92.798303 330.2448 80.4432 
C 317.889697 68.088097 303.221046 58.286818 287.078327 51.600285 
C 270.935607 44.913752 253.632754 41.472 236.16 41.472 
C 218.687246 41.472 201.384393 44.913752 185.241673 51.600285 
C 169.098954 58.286818 154.430303 68.088097 142.0752 80.4432 
C 129.720097 92.798303 119.918818 107.466954 113.232285 123.609673 
C 106.545752 139.752393 103.104 157.055246 103.104 174.528 
C 103.104 192.000754 106.545752 209.303607 113.232285 225.446327 
C 119.918818 241.589046 129.720097 256.257697 142.0752 268.6128 
C 154.430303 280.967903 169.098954 290.769182 185.241673 297.455715 
C 201.384393 304.142248 218.687246 307.584 236.16 307.584 
C 253.632754 307.584 270.935607 304.142248 287.078327 297.455715 
C 303.221046 290.769182 317.889697 280.967903 330.2448 268.6128 
C 342.599903 256.257697 352.401182 241.589046 359.087715 225.446327 
C 365.774248 209.303607 369.216 192.000754 369.216 174.528 
M 236.16 174.528 
C 236.16 174.528 236.16 174.528 236.16 174.528 
C 236.16 174.528 236.16 174.528 236.16 174.528 
C 236.16 174.528 236.16 174.528 236.16 174.528 
C 236.16 174.528 236.16 174.528 236.16 174.528 
C 236.16 174.528 236.16 174.528 236.16 174.528 
C 236.16 174.528 236.16 174.528 236.16 174.528 
C 236.16 174.528 236.16 174.528 236.16 174.528 
C 236.16 174.528 236.16 174.528 236.16 174.528 
C 236.16 174.528 236.16 174.528 236.16 174.528 
C 236.16 174.528 236.16 174.528 236.16 174.528 
C 236.16 174.528 236.16 174.528 236.16 174.528 
C 236.16 174.528 236.16 174.528 236.16 174.528 
C 236.16 174.528 236.16 174.528 236.16 174.528 
C 236.16 174.528 236.16 174.528 236.16 174.528 
C 236.16 174.528 236.16 174.528 236.16 174.528 
C 236.16 174.528 236.16 174.528 236.16 174.528 
z
" style="fill: #eaeaf2"/>
   </g>
   <g id="matplotlib.axis_1">
    <g id="xtick_1">
     <g id="line2d_1">
      <path d="M 236.16 174.528 
L 236.16 41.472 
" clip-path="url(#p7d8aaedaa4)" style="fill: none; stroke: #ffffff; stroke-linecap: round"/>
     </g>
     <g id="text_1">
      <!-- 0° -->
      <g style="fill: #262626" transform="translate(230.902344 27.815672) scale(0.11 -0.11)">
       <defs>
        <path id="ArialMT-30" d="M 266 2259 
Q 266 3072 433 3567 
Q 600 4063 929 4331 
Q 1259 4600 1759 4600 
Q 2128 4600 2406 4451 
Q 2684 4303 2865 4023 
Q 3047 3744 3150 3342 
Q 3253 2941 3253 2259 
Q 3253 1453 3087 958 
Q 2922 463 2592 192 
Q 2263 -78 1759 -78 
Q 1097 -78 719 397 
Q 266 969 266 2259 
z
M 844 2259 
Q 844 1131 1108 757 
Q 1372 384 1759 384 
Q 2147 384 2411 759 
Q 2675 1134 2675 2259 
Q 2675 3391 2411 3762 
Q 2147 4134 1753 4134 
Q 1366 4134 1134 3806 
Q 844 3388 844 2259 
z
" transform="scale(0.015625)"/>
        <path id="ArialMT-b0" d="M 400 3794 
Q 400 4153 654 4406 
Q 909 4659 1266 4659 
Q 1628 4659 1881 4406 
Q 2134 4153 2134 3794 
Q 2134 3434 1879 3179 
Q 1625 2925 1266 2925 
Q 909 2925 654 3178 
Q 400 3431 400 3794 
z
M 741 3794 
Q 741 3575 895 3420 
Q 1050 3266 1269 3266 
Q 1484 3266 1639 3420 
Q 1794 3575 1794 3794 
Q 1794 4013 1639 4167 
Q 1484 4322 1269 4322 
Q 1050 4322 895 4167 
Q 741 4013 741 3794 
z
" transform="scale(0.015625)"/>
       </defs>
       <use xlink:href="#ArialMT-30"/>
       <use xlink:href="#ArialMT-b0" x="55.615234"/>
      </g>
     </g>
    </g>
    <g id="xtick_2">
     <g id="line2d_2">
      <path d="M 236.16 174.528 
L 330.2448 80.4432 
" clip-path="url(#p7d8aaedaa4)" style="fill: none; stroke: #ffffff; stroke-linecap: round"/>
     </g>
     <g id="text_2">
      <!-- 45° -->
      <g style="fill: #262626" transform="translate(333.59589 71.61961) scale(0.11 -0.11)">
       <defs>
        <path id="ArialMT-34" d="M 2069 0 
L 2069 1097 
L 81 1097 
L 81 1613 
L 2172 4581 
L 2631 4581 
L 2631 1613 
L 3250 1613 
L 3250 1097 
L 2631 1097 
L 2631 0 
L 2069 0 
z
M 2069 1613 
L 2069 3678 
L 634 1613 
L 2069 1613 
z
" transform="scale(0.015625)"/>
        <path id="ArialMT-35" d="M 266 1200 
L 856 1250 
Q 922 819 1161 601 
Q 1400 384 1738 384 
Q 2144 384 2425 690 
Q 2706 997 2706 1503 
Q 2706 1984 2436 2262 
Q 2166 2541 1728 2541 
Q 1456 2541 1237 2417 
Q 1019 2294 894 2097 
L 366 2166 
L 809 4519 
L 3088 4519 
L 3088 3981 
L 1259 3981 
L 1013 2750 
Q 1425 3038 1878 3038 
Q 2478 3038 2890 2622 
Q 3303 2206 3303 1553 
Q 3303 931 2941 478 
Q 2500 -78 1738 -78 
Q 1113 -78 717 272 
Q 322 622 266 1200 
z
" transform="scale(0.015625)"/>
       </defs>
       <use xlink:href="#ArialMT-34"/>
       <use xlink:href="#ArialMT-35" x="55.615234"/>
       <use xlink:href="#ArialMT-b0" x="111.230469"/>
      </g>
     </g>
    </g>
    <g id="xtick_3">
     <g id="line2d_3">
      <path d="M 236.16 174.528 
L 369.216 174.528 
" clip-path="url(#p7d8aaedaa4)" style="fill: none; stroke: #ffffff; stroke-linecap: round"/>
     </g>
     <g id="text_3">
      <!-- 90° -->
      <g style="fill: #262626" transform="translate(377.399828 177.371672) scale(0.11 -0.11)">
       <defs>
        <path id="ArialMT-39" d="M 350 1059 
L 891 1109 
Q 959 728 1153 556 
Q 1347 384 1650 384 
Q 1909 384 2104 503 
Q 2300 622 2425 820 
Q 2550 1019 2634 1356 
Q 2719 1694 2719 2044 
Q 2719 2081 2716 2156 
Q 2547 1888 2255 1720 
Q 1963 1553 1622 1553 
Q 1053 1553 659 1965 
Q 266 2378 266 3053 
Q 266 3750 677 4175 
Q 1088 4600 1706 4600 
Q 2153 4600 2523 4359 
Q 2894 4119 3086 3673 
Q 3278 3228 3278 2384 
Q 3278 1506 3087 986 
Q 2897 466 2520 194 
Q 2144 -78 1638 -78 
Q 1100 -78 759 220 
Q 419 519 350 1059 
z
M 2653 3081 
Q 2653 3566 2395 3850 
Q 2138 4134 1775 4134 
Q 1400 4134 1122 3828 
Q 844 3522 844 3034 
Q 844 2597 1108 2323 
Q 1372 2050 1759 2050 
Q 2150 2050 2401 2323 
Q 2653 2597 2653 3081 
z
" transform="scale(0.015625)"/>
       </defs>
       <use xlink:href="#ArialMT-39"/>
       <use xlink:href="#ArialMT-30" x="55.615234"/>
       <use xlink:href="#ArialMT-b0" x="111.230469"/>
      </g>
     </g>
    </g>
    <g id="xtick_4">
     <g id="line2d_4">
      <path d="M 236.16 174.528 
L 330.2448 268.6128 
" clip-path="url(#p7d8aaedaa4)" style="fill: none; stroke: #ffffff; stroke-linecap: round"/>
     </g>
     <g id="text_4">
      <!-- 135° -->
      <g style="fill: #262626" transform="translate(330.537374 283.123734) scale(0.11 -0.11)">
       <defs>
        <path id="ArialMT-31" d="M 2384 0 
L 1822 0 
L 1822 3584 
Q 1619 3391 1289 3197 
Q 959 3003 697 2906 
L 697 3450 
Q 1169 3672 1522 3987 
Q 1875 4303 2022 4600 
L 2384 4600 
L 2384 0 
z
" transform="scale(0.015625)"/>
        <path id="ArialMT-33" d="M 269 1209 
L 831 1284 
Q 928 806 1161 595 
Q 1394 384 1728 384 
Q 2125 384 2398 659 
Q 2672 934 2672 1341 
Q 2672 1728 2419 1979 
Q 2166 2231 1775 2231 
Q 1616 2231 1378 2169 
L 1441 2663 
Q 1497 2656 1531 2656 
Q 1891 2656 2178 2843 
Q 2466 3031 2466 3422 
Q 2466 3731 2256 3934 
Q 2047 4138 1716 4138 
Q 1388 4138 1169 3931 
Q 950 3725 888 3313 
L 325 3413 
Q 428 3978 793 4289 
Q 1159 4600 1703 4600 
Q 2078 4600 2393 4439 
Q 2709 4278 2876 4000 
Q 3044 3722 3044 3409 
Q 3044 3113 2884 2869 
Q 2725 2625 2413 2481 
Q 2819 2388 3044 2092 
Q 3269 1797 3269 1353 
Q 3269 753 2831 336 
Q 2394 -81 1725 -81 
Q 1122 -81 723 278 
Q 325 638 269 1209 
z
" transform="scale(0.015625)"/>
       </defs>
       <use xlink:href="#ArialMT-31"/>
       <use xlink:href="#ArialMT-33" x="55.615234"/>
       <use xlink:href="#ArialMT-35" x="111.230469"/>
       <use xlink:href="#ArialMT-b0" x="166.845703"/>
      </g>
     </g>
    </g>
    <g id="xtick_5">
     <g id="line2d_5">
      <path d="M 236.16 174.528 
L 236.16 307.584 
" clip-path="url(#p7d8aaedaa4)" style="fill: none; stroke: #ffffff; stroke-linecap: round"/>
     </g>
     <g id="text_5">
      <!-- 180° -->
      <g style="fill: #262626" transform="translate(224.785313 326.927672) scale(0.11 -0.11)">
       <defs>
        <path id="ArialMT-38" d="M 1131 2484 
Q 781 2613 612 2850 
Q 444 3088 444 3419 
Q 444 3919 803 4259 
Q 1163 4600 1759 4600 
Q 2359 4600 2725 4251 
Q 3091 3903 3091 3403 
Q 3091 3084 2923 2848 
Q 2756 2613 2416 2484 
Q 2838 2347 3058 2040 
Q 3278 1734 3278 1309 
Q 3278 722 2862 322 
Q 2447 -78 1769 -78 
Q 1091 -78 675 323 
Q 259 725 259 1325 
Q 259 1772 486 2073 
Q 713 2375 1131 2484 
z
M 1019 3438 
Q 1019 3113 1228 2906 
Q 1438 2700 1772 2700 
Q 2097 2700 2305 2904 
Q 2513 3109 2513 3406 
Q 2513 3716 2298 3927 
Q 2084 4138 1766 4138 
Q 1444 4138 1231 3931 
Q 1019 3725 1019 3438 
z
M 838 1322 
Q 838 1081 952 856 
Q 1066 631 1291 507 
Q 1516 384 1775 384 
Q 2178 384 2440 643 
Q 2703 903 2703 1303 
Q 2703 1709 2433 1975 
Q 2163 2241 1756 2241 
Q 1359 2241 1098 1978 
Q 838 1716 838 1322 
z
" transform="scale(0.015625)"/>
       </defs>
       <use xlink:href="#ArialMT-31"/>
       <use xlink:href="#ArialMT-38" x="55.615234"/>
       <use xlink:href="#ArialMT-30" x="111.230469"/>
       <use xlink:href="#ArialMT-b0" x="166.845703"/>
      </g>
     </g>
    </g>
    <g id="xtick_6">
     <g id="line2d_6">
      <path d="M 236.16 174.528 
L 142.0752 268.6128 
" clip-path="url(#p7d8aaedaa4)" style="fill: none; stroke: #ffffff; stroke-linecap: round"/>
     </g>
     <g id="text_6">
      <!-- 225° -->
      <g style="fill: #262626" transform="translate(119.033251 283.123734) scale(0.11 -0.11)">
       <defs>
        <path id="ArialMT-32" d="M 3222 541 
L 3222 0 
L 194 0 
Q 188 203 259 391 
Q 375 700 629 1000 
Q 884 1300 1366 1694 
Q 2113 2306 2375 2664 
Q 2638 3022 2638 3341 
Q 2638 3675 2398 3904 
Q 2159 4134 1775 4134 
Q 1369 4134 1125 3890 
Q 881 3647 878 3216 
L 300 3275 
Q 359 3922 746 4261 
Q 1134 4600 1788 4600 
Q 2447 4600 2831 4234 
Q 3216 3869 3216 3328 
Q 3216 3053 3103 2787 
Q 2991 2522 2730 2228 
Q 2469 1934 1863 1422 
Q 1356 997 1212 845 
Q 1069 694 975 541 
L 3222 541 
z
" transform="scale(0.015625)"/>
       </defs>
       <use xlink:href="#ArialMT-32"/>
       <use xlink:href="#ArialMT-32" x="55.615234"/>
       <use xlink:href="#ArialMT-35" x="111.230469"/>
       <use xlink:href="#ArialMT-b0" x="166.845703"/>
      </g>
     </g>
    </g>
    <g id="xtick_7">
     <g id="line2d_7">
      <path d="M 236.16 174.528 
L 103.104 174.528 
" clip-path="url(#p7d8aaedaa4)" style="fill: none; stroke: #ffffff; stroke-linecap: round"/>
     </g>
     <g id="text_7">
      <!-- 270° -->
      <g style="fill: #262626" transform="translate(75.229313 177.371672) scale(0.11 -0.11)">
       <defs>
        <path id="ArialMT-37" d="M 303 3981 
L 303 4522 
L 3269 4522 
L 3269 4084 
Q 2831 3619 2401 2847 
Q 1972 2075 1738 1259 
Q 1569 684 1522 0 
L 944 0 
Q 953 541 1156 1306 
Q 1359 2072 1739 2783 
Q 2119 3494 2547 3981 
L 303 3981 
z
" transform="scale(0.015625)"/>
       </defs>
       <use xlink:href="#ArialMT-32"/>
       <use xlink:href="#ArialMT-37" x="55.615234"/>
       <use xlink:href="#ArialMT-30" x="111.230469"/>
       <use xlink:href="#ArialMT-b0" x="166.845703"/>
      </g>
     </g>
    </g>
    <g id="xtick_8">
     <g id="line2d_8">
      <path d="M 236.16 174.528 
L 142.0752 80.4432 
" clip-path="url(#p7d8aaedaa4)" style="fill: none; stroke: #ffffff; stroke-linecap: round"/>
     </g>
     <g id="text_8">
      <!-- 315° -->
      <g style="fill: #262626" transform="translate(119.033251 71.61961) scale(0.11 -0.11)">
       <use xlink:href="#ArialMT-33"/>
       <use xlink:href="#ArialMT-31" x="55.615234"/>
       <use xlink:href="#ArialMT-35" x="111.230469"/>
       <use xlink:href="#ArialMT-b0" x="166.845703"/>
      </g>
     </g>
    </g>
   </g>
   <g id="matplotlib.axis_2">
    <g id="ytick_1">
     <g id="line2d_9">
      <path d="M 236.16 174.528 
C 236.16 174.528 236.16 174.528 236.16 174.528 
C 236.16 174.528 236.16 174.528 236.16 174.528 
C 236.16 174.528 236.16 174.528 236.16 174.528 
C 236.16 174.528 236.16 174.528 236.16 174.528 
C 236.16 174.528 236.16 174.528 236.16 174.528 
C 236.16 174.528 236.16 174.528 236.16 174.528 
C 236.16 174.528 236.16 174.528 236.16 174.528 
C 236.16 174.528 236.16 174.528 236.16 174.528 
C 236.16 174.528 236.16 174.528 236.16 174.528 
C 236.16 174.528 236.16 174.528 236.16 174.528 
C 236.16 174.528 236.16 174.528 236.16 174.528 
C 236.16 174.528 236.16 174.528 236.16 174.528 
C 236.16 174.528 236.16 174.528 236.16 174.528 
C 236.16 174.528 236.16 174.528 236.16 174.528 
C 236.16 174.528 236.16 174.528 236.16 174.528 
C 236.16 174.528 236.16 174.528 236.16 174.528 
" clip-path="url(#p7d8aaedaa4)" style="fill: none; stroke: #ffffff; stroke-linecap: round"/>
     </g>
     <g id="text_9">
      <!-- 0.0 -->
      <g style="fill: #dc143c" transform="translate(236.16 172.34175) scale(0.11 -0.11)">
       <defs>
        <path id="ArialMT-2e" d="M 581 0 
L 581 641 
L 1222 641 
L 1222 0 
L 581 0 
z
" transform="scale(0.015625)"/>
       </defs>
       <use xlink:href="#ArialMT-30"/>
       <use xlink:href="#ArialMT-2e" x="55.615234"/>
       <use xlink:href="#ArialMT-30" x="83.398438"/>
      </g>
     </g>
    </g>
    <g id="ytick_2">
     <g id="line2d_10">
      <path d="M 236.16 161.2224 
C 237.907275 161.2224 239.637561 161.566575 241.251833 162.235228 
C 242.866105 162.903882 244.33297 163.88401 245.56848 165.11952 
C 246.80399 166.35503 247.784118 167.821895 248.452772 169.436167 
C 249.121425 171.050439 249.4656 172.780725 249.4656 174.528 
C 249.4656 176.275275 249.121425 178.005561 248.452772 179.619833 
C 247.784118 181.234105 246.80399 182.70097 245.56848 183.93648 
C 244.33297 185.17199 242.866105 186.152118 241.251833 186.820772 
C 239.637561 187.489425 237.907275 187.8336 236.16 187.8336 
C 234.412725 187.8336 232.682439 187.489425 231.068167 186.820772 
C 229.453895 186.152118 227.98703 185.17199 226.75152 183.93648 
C 225.51601 182.70097 224.535882 181.234105 223.867228 179.619833 
C 223.198575 178.005561 222.8544 176.275275 222.8544 174.528 
C 222.8544 172.780725 223.198575 171.050439 223.867228 169.436167 
C 224.535882 167.821895 225.51601 166.35503 226.75152 165.11952 
C 227.98703 163.88401 229.453895 162.903882 231.068167 162.235228 
C 232.682439 161.566575 234.412725 161.2224 236.16 161.2224 
" clip-path="url(#p7d8aaedaa4)" style="fill: none; stroke: #ffffff; stroke-linecap: round"/>
     </g>
     <g id="text_10">
      <!-- 0.1 -->
      <g style="fill: #dc143c" transform="translate(241.251833 160.048978) scale(0.11 -0.11)">
       <use xlink:href="#ArialMT-30"/>
       <use xlink:href="#ArialMT-2e" x="55.615234"/>
       <use xlink:href="#ArialMT-31" x="83.398438"/>
      </g>
     </g>
    </g>
    <g id="ytick_3">
     <g id="line2d_11">
      <path d="M 236.16 147.9168 
C 239.654551 147.9168 243.115121 148.60515 246.343665 149.942457 
C 249.572209 151.279764 252.505939 153.240019 254.97696 155.71104 
C 257.447981 158.182061 259.408236 161.115791 260.745543 164.344335 
C 262.08285 167.572879 262.7712 171.033449 262.7712 174.528 
C 262.7712 178.022551 262.08285 181.483121 260.745543 184.711665 
C 259.408236 187.940209 257.447981 190.873939 254.97696 193.34496 
C 252.505939 195.815981 249.572209 197.776236 246.343665 199.113543 
C 243.115121 200.45085 239.654551 201.1392 236.16 201.1392 
C 232.665449 201.1392 229.204879 200.45085 225.976335 199.113543 
C 222.747791 197.776236 219.814061 195.815981 217.34304 193.34496 
C 214.872019 190.873939 212.911764 187.940209 211.574457 184.711665 
C 210.23715 181.483121 209.5488 178.022551 209.5488 174.528 
C 209.5488 171.033449 210.23715 167.572879 211.574457 164.344335 
C 212.911764 161.115791 214.872019 158.182061 217.34304 155.71104 
C 219.814061 153.240019 222.747791 151.279764 225.976335 149.942457 
C 229.204879 148.60515 232.665449 147.9168 236.16 147.9168 
" clip-path="url(#p7d8aaedaa4)" style="fill: none; stroke: #ffffff; stroke-linecap: round"/>
     </g>
     <g id="text_11">
      <!-- 0.2 -->
      <g style="fill: #dc143c" transform="translate(246.343665 147.756207) scale(0.11 -0.11)">
       <use xlink:href="#ArialMT-30"/>
       <use xlink:href="#ArialMT-2e" x="55.615234"/>
       <use xlink:href="#ArialMT-32" x="83.398438"/>
      </g>
     </g>
    </g>
    <g id="ytick_4">
     <g id="line2d_12">
      <path d="M 236.16 134.6112 
C 241.401826 134.6112 246.592682 135.643725 251.435498 137.649685 
C 256.278314 139.655645 260.678909 142.596029 264.38544 146.30256 
C 268.091971 150.009091 271.032355 154.409686 273.038315 159.252502 
C 275.044275 164.095318 276.0768 169.286174 276.0768 174.528 
C 276.0768 179.769826 275.044275 184.960682 273.038315 189.803498 
C 271.032355 194.646314 268.091971 199.046909 264.38544 202.75344 
C 260.678909 206.459971 256.278314 209.400355 251.435498 211.406315 
C 246.592682 213.412275 241.401826 214.4448 236.16 214.4448 
C 230.918174 214.4448 225.727318 213.412275 220.884502 211.406315 
C 216.041686 209.400355 211.641091 206.459971 207.93456 202.75344 
C 204.228029 199.046909 201.287645 194.646314 199.281685 189.803498 
C 197.275725 184.960682 196.2432 179.769826 196.2432 174.528 
C 196.2432 169.286174 197.275725 164.095318 199.281685 159.252502 
C 201.287645 154.409686 204.228029 150.009091 207.93456 146.30256 
C 211.641091 142.596029 216.041686 139.655645 220.884502 137.649685 
C 225.727318 135.643725 230.918174 134.6112 236.16 134.6112 
" clip-path="url(#p7d8aaedaa4)" style="fill: none; stroke: #ffffff; stroke-linecap: round"/>
     </g>
     <g id="text_12">
      <!-- 0.3 -->
      <g style="fill: #dc143c" transform="translate(251.435498 135.463435) scale(0.11 -0.11)">
       <use xlink:href="#ArialMT-30"/>
       <use xlink:href="#ArialMT-2e" x="55.615234"/>
       <use xlink:href="#ArialMT-33" x="83.398438"/>
      </g>
     </g>
    </g>
    <g id="ytick_5">
     <g id="line2d_13">
      <path d="M 236.16 121.3056 
C 243.149102 121.3056 250.070243 122.682301 256.527331 125.356914 
C 262.984419 128.031527 268.851879 131.952039 273.79392 136.89408 
C 278.735961 141.836121 282.656473 147.703581 285.331086 154.160669 
C 288.005699 160.617757 289.3824 167.538898 289.3824 174.528 
C 289.3824 181.517102 288.005699 188.438243 285.331086 194.895331 
C 282.656473 201.352419 278.735961 207.219879 273.79392 212.16192 
C 268.851879 217.103961 262.984419 221.024473 256.527331 223.699086 
C 250.070243 226.373699 243.149102 227.7504 236.16 227.7504 
C 229.170898 227.7504 222.249757 226.373699 215.792669 223.699086 
C 209.335581 221.024473 203.468121 217.103961 198.52608 212.16192 
C 193.584039 207.219879 189.663527 201.352419 186.988914 194.895331 
C 184.314301 188.438243 182.9376 181.517102 182.9376 174.528 
C 182.9376 167.538898 184.314301 160.617757 186.988914 154.160669 
C 189.663527 147.703581 193.584039 141.836121 198.52608 136.89408 
C 203.468121 131.952039 209.335581 128.031527 215.792669 125.356914 
C 222.249757 122.682301 229.170898 121.3056 236.16 121.3056 
" clip-path="url(#p7d8aaedaa4)" style="fill: none; stroke: #ffffff; stroke-linecap: round"/>
     </g>
     <g id="text_13">
      <!-- 0.4 -->
      <g style="fill: #dc143c" transform="translate(256.527331 123.170664) scale(0.11 -0.11)">
       <use xlink:href="#ArialMT-30"/>
       <use xlink:href="#ArialMT-2e" x="55.615234"/>
       <use xlink:href="#ArialMT-34" x="83.398438"/>
      </g>
     </g>
    </g>
    <g id="ytick_6">
     <g id="line2d_14">
      <path d="M 236.16 108 
C 244.896377 108 253.547804 109.720876 261.619163 113.064142 
C 269.690523 116.407409 277.024849 121.308049 283.2024 127.4856 
C 289.379951 133.663151 294.280591 140.997477 297.623858 149.068837 
C 300.967124 157.140196 302.688 165.791623 302.688 174.528 
C 302.688 183.264377 300.967124 191.915804 297.623858 199.987163 
C 294.280591 208.058523 289.379951 215.392849 283.2024 221.5704 
C 277.024849 227.747951 269.690523 232.648591 261.619163 235.991858 
C 253.547804 239.335124 244.896377 241.056 236.16 241.056 
C 227.423623 241.056 218.772196 239.335124 210.700837 235.991858 
C 202.629477 232.648591 195.295151 227.747951 189.1176 221.5704 
C 182.940049 215.392849 178.039409 208.058523 174.696142 199.987163 
C 171.352876 191.915804 169.632 183.264377 169.632 174.528 
C 169.632 165.791623 171.352876 157.140196 174.696142 149.068837 
C 178.039409 140.997477 182.940049 133.663151 189.1176 127.4856 
C 195.295151 121.308049 202.629477 116.407409 210.700837 113.064142 
C 218.772196 109.720876 227.423623 108 236.16 108 
" clip-path="url(#p7d8aaedaa4)" style="fill: none; stroke: #ffffff; stroke-linecap: round"/>
     </g>
     <g id="text_14">
      <!-- 0.5 -->
      <g style="fill: #dc143c" transform="translate(261.619163 110.877892) scale(0.11 -0.11)">
       <use xlink:href="#ArialMT-30"/>
       <use xlink:href="#ArialMT-2e" x="55.615234"/>
       <use xlink:href="#ArialMT-35" x="83.398438"/>
      </g>
     </g>
    </g>
    <g id="ytick_7">
     <g id="line2d_15">
      <path d="M 236.16 94.6944 
C 246.643652 94.6944 257.025364 96.759451 266.710996 100.771371 
C 276.396628 104.783291 285.197818 110.664058 292.61088 118.07712 
C 300.023942 125.490182 305.904709 134.291372 309.916629 143.977004 
C 313.928549 153.662636 315.9936 164.044348 315.9936 174.528 
C 315.9936 185.011652 313.928549 195.393364 309.916629 205.078996 
C 305.904709 214.764628 300.023942 223.565818 292.61088 230.97888 
C 285.197818 238.391942 276.396628 244.272709 266.710996 248.284629 
C 257.025364 252.296549 246.643652 254.3616 236.16 254.3616 
C 225.676348 254.3616 215.294636 252.296549 205.609004 248.284629 
C 195.923372 244.272709 187.122182 238.391942 179.70912 230.97888 
C 172.296058 223.565818 166.415291 214.764628 162.403371 205.078996 
C 158.391451 195.393364 156.3264 185.011652 156.3264 174.528 
C 156.3264 164.044348 158.391451 153.662636 162.403371 143.977004 
C 166.415291 134.291372 172.296058 125.490182 179.70912 118.07712 
C 187.122182 110.664058 195.923372 104.783291 205.609004 100.771371 
C 215.294636 96.759451 225.676348 94.6944 236.16 94.6944 
" clip-path="url(#p7d8aaedaa4)" style="fill: none; stroke: #ffffff; stroke-linecap: round"/>
     </g>
     <g id="text_15">
      <!-- 0.6 -->
      <g style="fill: #dc143c" transform="translate(266.710996 98.585121) scale(0.11 -0.11)">
       <defs>
        <path id="ArialMT-36" d="M 3184 3459 
L 2625 3416 
Q 2550 3747 2413 3897 
Q 2184 4138 1850 4138 
Q 1581 4138 1378 3988 
Q 1113 3794 959 3422 
Q 806 3050 800 2363 
Q 1003 2672 1297 2822 
Q 1591 2972 1913 2972 
Q 2475 2972 2870 2558 
Q 3266 2144 3266 1488 
Q 3266 1056 3080 686 
Q 2894 316 2569 119 
Q 2244 -78 1831 -78 
Q 1128 -78 684 439 
Q 241 956 241 2144 
Q 241 3472 731 4075 
Q 1159 4600 1884 4600 
Q 2425 4600 2770 4297 
Q 3116 3994 3184 3459 
z
M 888 1484 
Q 888 1194 1011 928 
Q 1134 663 1356 523 
Q 1578 384 1822 384 
Q 2178 384 2434 671 
Q 2691 959 2691 1453 
Q 2691 1928 2437 2201 
Q 2184 2475 1800 2475 
Q 1419 2475 1153 2201 
Q 888 1928 888 1484 
z
" transform="scale(0.015625)"/>
       </defs>
       <use xlink:href="#ArialMT-30"/>
       <use xlink:href="#ArialMT-2e" x="55.615234"/>
       <use xlink:href="#ArialMT-36" x="83.398438"/>
      </g>
     </g>
    </g>
    <g id="ytick_8">
     <g id="line2d_16">
      <path d="M 236.16 81.3888 
C 248.390928 81.3888 260.502925 83.798026 271.802829 88.478599 
C 283.102732 93.159173 293.370788 100.020068 302.01936 108.66864 
C 310.667932 117.317212 317.528827 127.585268 322.209401 138.885171 
C 326.889974 150.185075 329.2992 162.297072 329.2992 174.528 
C 329.2992 186.758928 326.889974 198.870925 322.209401 210.170829 
C 317.528827 221.470732 310.667932 231.738788 302.01936 240.38736 
C 293.370788 249.035932 283.102732 255.896827 271.802829 260.577401 
C 260.502925 265.257974 248.390928 267.6672 236.16 267.6672 
C 223.929072 267.6672 211.817075 265.257974 200.517171 260.577401 
C 189.217268 255.896827 178.949212 249.035932 170.30064 240.38736 
C 161.652068 231.738788 154.791173 221.470732 150.110599 210.170829 
C 145.430026 198.870925 143.0208 186.758928 143.0208 174.528 
C 143.0208 162.297072 145.430026 150.185075 150.110599 138.885171 
C 154.791173 127.585268 161.652068 117.317212 170.30064 108.66864 
C 178.949212 100.020068 189.217268 93.159173 200.517171 88.478599 
C 211.817075 83.798026 223.929072 81.3888 236.16 81.3888 
" clip-path="url(#p7d8aaedaa4)" style="fill: none; stroke: #ffffff; stroke-linecap: round"/>
     </g>
     <g id="text_16">
      <!-- 0.7 -->
      <g style="fill: #dc143c" transform="translate(271.802829 86.292349) scale(0.11 -0.11)">
       <use xlink:href="#ArialMT-30"/>
       <use xlink:href="#ArialMT-2e" x="55.615234"/>
       <use xlink:href="#ArialMT-37" x="83.398438"/>
      </g>
     </g>
    </g>
    <g id="ytick_9">
     <g id="line2d_17">
      <path d="M 236.16 68.0832 
C 250.138203 68.0832 263.980486 70.836601 276.894661 76.185828 
C 289.808837 81.535055 301.543758 89.376078 311.42784 99.26016 
C 321.311922 109.144242 329.152945 120.879163 334.502172 133.793339 
C 339.851399 146.707514 342.6048 160.549797 342.6048 174.528 
C 342.6048 188.506203 339.851399 202.348486 334.502172 215.262661 
C 329.152945 228.176837 321.311922 239.911758 311.42784 249.79584 
C 301.543758 259.679922 289.808837 267.520945 276.894661 272.870172 
C 263.980486 278.219399 250.138203 280.9728 236.16 280.9728 
C 222.181797 280.9728 208.339514 278.219399 195.425339 272.870172 
C 182.511163 267.520945 170.776242 259.679922 160.89216 249.79584 
C 151.008078 239.911758 143.167055 228.176837 137.817828 215.262661 
C 132.468601 202.348486 129.7152 188.506203 129.7152 174.528 
C 129.7152 160.549797 132.468601 146.707514 137.817828 133.793339 
C 143.167055 120.879163 151.008078 109.144242 160.89216 99.26016 
C 170.776242 89.376078 182.511163 81.535055 195.425339 76.185828 
C 208.339514 70.836601 222.181797 68.0832 236.16 68.0832 
" clip-path="url(#p7d8aaedaa4)" style="fill: none; stroke: #ffffff; stroke-linecap: round"/>
     </g>
     <g id="text_17">
      <!-- 0.8 -->
      <g style="fill: #dc143c" transform="translate(276.894661 73.999578) scale(0.11 -0.11)">
       <use xlink:href="#ArialMT-30"/>
       <use xlink:href="#ArialMT-2e" x="55.615234"/>
       <use xlink:href="#ArialMT-38" x="83.398438"/>
      </g>
     </g>
    </g>
    <g id="ytick_10">
     <g id="line2d_18">
      <path d="M 236.16 54.7776 
C 251.885478 54.7776 267.458046 57.875176 281.986494 63.893056 
C 296.514942 69.910936 309.716727 78.732088 320.83632 89.85168 
C 331.955912 100.971273 340.777064 114.173058 346.794944 128.701506 
C 352.812824 143.229954 355.9104 158.802522 355.9104 174.528 
C 355.9104 190.253478 352.812824 205.826046 346.794944 220.354494 
C 340.777064 234.882942 331.955912 248.084727 320.83632 259.20432 
C 309.716727 270.323912 296.514942 279.145064 281.986494 285.162944 
C 267.458046 291.180824 251.885478 294.2784 236.16 294.2784 
C 220.434522 294.2784 204.861954 291.180824 190.333506 285.162944 
C 175.805058 279.145064 162.603273 270.323912 151.48368 259.20432 
C 140.364088 248.084727 131.542936 234.882942 125.525056 220.354494 
C 119.507176 205.826046 116.4096 190.253478 116.4096 174.528 
C 116.4096 158.802522 119.507176 143.229954 125.525056 128.701506 
C 131.542936 114.173058 140.364088 100.971273 151.48368 89.85168 
C 162.603273 78.732088 175.805058 69.910936 190.333506 63.893056 
C 204.861954 57.875176 220.434522 54.7776 236.16 54.7776 
" clip-path="url(#p7d8aaedaa4)" style="fill: none; stroke: #ffffff; stroke-linecap: round"/>
     </g>
     <g id="text_18">
      <!-- 0.9 -->
      <g style="fill: #dc143c" transform="translate(281.986494 61.706806) scale(0.11 -0.11)">
       <use xlink:href="#ArialMT-30"/>
       <use xlink:href="#ArialMT-2e" x="55.615234"/>
       <use xlink:href="#ArialMT-39" x="83.398438"/>
      </g>
     </g>
    </g>
   </g>
   <g id="line2d_19">
    <defs>
     <path id="m6c9e044493" d="M 0 1.5 
C 0.397805 1.5 0.77937 1.341951 1.06066 1.06066 
C 1.341951 0.77937 1.5 0.397805 1.5 0 
C 1.5 -0.397805 1.341951 -0.77937 1.06066 -1.06066 
C 0.77937 -1.341951 0.397805 -1.5 0 -1.5 
C -0.397805 -1.5 -0.77937 -1.341951 -1.06066 -1.06066 
C -1.341951 -0.77937 -1.5 -0.397805 -1.5 0 
C -1.5 0.397805 -1.341951 0.77937 -1.06066 1.06066 
C -0.77937 1.341951 -0.397805 1.5 0 1.5 
z
" style="stroke: #ffffff"/>
    </defs>
    <g clip-path="url(#p7d8aaedaa4)">
     <use xlink:href="#m6c9e044493" x="235.99956" y="266.453274" style="stroke: #ffffff"/>
     <use xlink:href="#m6c9e044493" x="236.068501" y="226.953214" style="stroke: #ffffff"/>
     <use xlink:href="#m6c9e044493" x="236.132704" y="190.167674" style="stroke: #ffffff"/>
     <use xlink:href="#m6c9e044493" x="236.249589" y="123.197383" style="stroke: #ffffff"/>
     <use xlink:href="#m6c9e044493" x="235.83912" y="266.452854" style="stroke: #ffffff"/>
     <use xlink:href="#m6c9e044493" x="235.981509" y="225.661697" style="stroke: #ffffff"/>
     <use xlink:href="#m6c9e044493" x="236.152961" y="176.544594" style="stroke: #ffffff"/>
     <use xlink:href="#m6c9e044493" x="236.345494" y="121.387987" style="stroke: #ffffff"/>
     <use xlink:href="#m6c9e044493" x="235.67117" y="267.886805" style="stroke: #ffffff"/>
     <use xlink:href="#m6c9e044493" x="235.912403" y="221.81505" style="stroke: #ffffff"/>
     <use xlink:href="#m6c9e044493" x="236.126015" y="181.018636" style="stroke: #ffffff"/>
     <use xlink:href="#m6c9e044493" x="236.424001" y="124.108062" style="stroke: #ffffff"/>
     <use xlink:href="#m6c9e044493" x="236.640998" y="82.66492" style="stroke: #ffffff"/>
     <use xlink:href="#m6c9e044493" x="235.518245" y="266.451174" style="stroke: #ffffff"/>
     <use xlink:href="#m6c9e044493" x="235.80302" y="225.660763" style="stroke: #ffffff"/>
     <use xlink:href="#m6c9e044493" x="236.106805" y="182.147456" style="stroke: #ffffff"/>
     <use xlink:href="#m6c9e044493" x="236.543523" y="119.593269" style="stroke: #ffffff"/>
     <use xlink:href="#m6c9e044493" x="235.34529" y="267.88453" style="stroke: #ffffff"/>
     <use xlink:href="#m6c9e044493" x="235.736194" y="223.091374" style="stroke: #ffffff"/>
     <use xlink:href="#m6c9e044493" x="236.599997" y="124.109291" style="stroke: #ffffff"/>
     <use xlink:href="#m6c9e044493" x="235.197377" y="266.448373" style="stroke: #ffffff"/>
     <use xlink:href="#m6c9e044493" x="235.624536" y="225.659205" style="stroke: #ffffff"/>
     <use xlink:href="#m6c9e044493" x="236.162049" y="174.332324" style="stroke: #ffffff"/>
     <use xlink:href="#m6c9e044493" x="236.286425" y="162.455746" style="stroke: #ffffff"/>
     <use xlink:href="#m6c9e044493" x="236.716474" y="121.390577" style="stroke: #ffffff"/>
     <use xlink:href="#m6c9e044493" x="235.01942" y="267.881118" style="stroke: #ffffff"/>
     <use xlink:href="#m6c9e044493" x="235.613334" y="219.270989" style="stroke: #ffffff"/>
     <use xlink:href="#m6c9e044493" x="236.162391" y="174.332328" style="stroke: #ffffff"/>
     <use xlink:href="#m6c9e044493" x="236.775989" y="124.111134" style="stroke: #ffffff"/>
     <use xlink:href="#m6c9e044493" x="234.85649" y="267.878985" style="stroke: #ffffff"/>
     <use xlink:href="#m6c9e044493" x="235.428029" y="226.948183" style="stroke: #ffffff"/>
     <use xlink:href="#m6c9e044493" x="236.863982" y="124.112286" style="stroke: #ffffff"/>
     <use xlink:href="#m6c9e044493" x="234.693564" y="267.876568" style="stroke: #ffffff"/>
     <use xlink:href="#m6c9e044493" x="235.356822" y="225.6557" style="stroke: #ffffff"/>
     <use xlink:href="#m6c9e044493" x="236.966268" y="123.203637" style="stroke: #ffffff"/>
     <use xlink:href="#m6c9e044493" x="234.530642" y="267.873866" style="stroke: #ffffff"/>
     <use xlink:href="#m6c9e044493" x="235.379069" y="219.267514" style="stroke: #ffffff"/>
     <use xlink:href="#m6c9e044493" x="237.039961" y="124.115051" style="stroke: #ffffff"/>
     <use xlink:href="#m6c9e044493" x="234.395267" y="266.436473" style="stroke: #ffffff"/>
     <use xlink:href="#m6c9e044493" x="235.178358" y="225.652585" style="stroke: #ffffff"/>
     <use xlink:href="#m6c9e044493" x="237.162822" y="122.300366" style="stroke: #ffffff"/>
     <use xlink:href="#m6c9e044493" x="234.234859" y="266.433253" style="stroke: #ffffff"/>
     <use xlink:href="#m6c9e044493" x="235.08913" y="225.650794" style="stroke: #ffffff"/>
     <use xlink:href="#m6c9e044493" x="237.272887" y="121.399317" style="stroke: #ffffff"/>
     <use xlink:href="#m6c9e044493" x="238.083862" y="82.683808" style="stroke: #ffffff"/>
     <use xlink:href="#m6c9e044493" x="234.074457" y="266.429753" style="stroke: #ffffff"/>
     <use xlink:href="#m6c9e044493" x="234.97061" y="226.9398" style="stroke: #ffffff"/>
     <use xlink:href="#m6c9e044493" x="235.537006" y="201.980937" style="stroke: #ffffff"/>
     <use xlink:href="#m6c9e044493" x="235.831458" y="189.005562" style="stroke: #ffffff"/>
     <use xlink:href="#m6c9e044493" x="237.30391" y="124.120349" style="stroke: #ffffff"/>
     <use xlink:href="#m6c9e044493" x="233.87901" y="267.860216" style="stroke: #ffffff"/>
     <use xlink:href="#m6c9e044493" x="235.004659" y="221.801583" style="stroke: #ffffff"/>
     <use xlink:href="#m6c9e044493" x="236.137806" y="175.436135" style="stroke: #ffffff"/>
     <use xlink:href="#m6c9e044493" x="237.391886" y="124.122422" style="stroke: #ffffff"/>
     <use xlink:href="#m6c9e044493" x="233.753673" y="266.421913" style="stroke: #ffffff"/>
     <use xlink:href="#m6c9e044493" x="234.753743" y="228.23078" style="stroke: #ffffff"/>
     <use xlink:href="#m6c9e044493" x="236.107211" y="176.543916" style="stroke: #ffffff"/>
     <use xlink:href="#m6c9e044493" x="237.503681" y="123.214895" style="stroke: #ffffff"/>
     <use xlink:href="#m6c9e044493" x="233.553233" y="267.851685" style="stroke: #ffffff"/>
     <use xlink:href="#m6c9e044493" x="234.732255" y="225.642072" style="stroke: #ffffff"/>
     <use xlink:href="#m6c9e044493" x="237.567827" y="124.12703" style="stroke: #ffffff"/>
     <use xlink:href="#m6c9e044493" x="233.432918" y="266.412954" style="stroke: #ffffff"/>
     <use xlink:href="#m6c9e044493" x="234.566294" y="228.225544" style="stroke: #ffffff"/>
     <use xlink:href="#m6c9e044493" x="235.933954" y="182.144288" style="stroke: #ffffff"/>
     <use xlink:href="#m6c9e044493" x="237.682789" y="123.219898" style="stroke: #ffffff"/>
     <use xlink:href="#m6c9e044493" x="233.227489" y="267.842018" style="stroke: #ffffff"/>
     <use xlink:href="#m6c9e044493" x="234.634529" y="223.069259" style="stroke: #ffffff"/>
     <use xlink:href="#m6c9e044493" x="237.74375" y="124.132251" style="stroke: #ffffff"/>
     <use xlink:href="#m6c9e044493" x="233.06463" y="267.836757" style="stroke: #ffffff"/>
     <use xlink:href="#m6c9e044493" x="234.378864" y="228.219654" style="stroke: #ffffff"/>
     <use xlink:href="#m6c9e044493" x="235.756263" y="186.69851" style="stroke: #ffffff"/>
     <use xlink:href="#m6c9e044493" x="236.093139" y="176.543498" style="stroke: #ffffff"/>
     <use xlink:href="#m6c9e044493" x="237.831705" y="124.135092" style="stroke: #ffffff"/>
     <use xlink:href="#m6c9e044493" x="232.90178" y="267.831213" style="stroke: #ffffff"/>
     <use xlink:href="#m6c9e044493" x="234.330384" y="226.921358" style="stroke: #ffffff"/>
     <use xlink:href="#m6c9e044493" x="236.089621" y="176.543378" style="stroke: #ffffff"/>
     <use xlink:href="#m6c9e044493" x="237.919655" y="124.138086" style="stroke: #ffffff"/>
     <use xlink:href="#m6c9e044493" x="232.73894" y="267.825384" style="stroke: #ffffff"/>
     <use xlink:href="#m6c9e044493" x="234.28626" y="225.627667" style="stroke: #ffffff"/>
     <use xlink:href="#m6c9e044493" x="235.415545" y="194.830404" style="stroke: #ffffff"/>
     <use xlink:href="#m6c9e044493" x="236.126713" y="175.435796" style="stroke: #ffffff"/>
     <use xlink:href="#m6c9e044493" x="238.007599" y="124.141234" style="stroke: #ffffff"/>
     <use xlink:href="#m6c9e044493" x="242.59632" y="-1" style="stroke: #ffffff"/>
     <use xlink:href="#m6c9e044493" x="242.575686" y="-1" style="stroke: #ffffff"/>
     <use xlink:href="#m6c9e044493" x="232.576111" y="267.819271" style="stroke: #ffffff"/>
     <use xlink:href="#m6c9e044493" x="234.147508" y="226.914652" style="stroke: #ffffff"/>
     <use xlink:href="#m6c9e044493" x="235.910835" y="181.013941" style="stroke: #ffffff"/>
     <use xlink:href="#m6c9e044493" x="238.095537" y="124.144536" style="stroke: #ffffff"/>
     <use xlink:href="#m6c9e044493" x="232.413292" y="267.812874" style="stroke: #ffffff"/>
     <use xlink:href="#m6c9e044493" x="234.159538" y="224.335165" style="stroke: #ffffff"/>
     <use xlink:href="#m6c9e044493" x="235.57884" y="188.997623" style="stroke: #ffffff"/>
     <use xlink:href="#m6c9e044493" x="238.219993" y="123.238657" style="stroke: #ffffff"/>
     <use xlink:href="#m6c9e044493" x="232.310563" y="266.37278" style="stroke: #ffffff"/>
     <use xlink:href="#m6c9e044493" x="233.964657" y="226.907308" style="stroke: #ffffff"/>
     <use xlink:href="#m6c9e044493" x="235.309252" y="194.826228" style="stroke: #ffffff"/>
     <use xlink:href="#m6c9e044493" x="236.075553" y="176.542838" style="stroke: #ffffff"/>
     <use xlink:href="#m6c9e044493" x="238.309506" y="123.242331" style="stroke: #ffffff"/>
     <use xlink:href="#m6c9e044493" x="232.15027" y="266.365921" style="stroke: #ffffff"/>
     <use xlink:href="#m6c9e044493" x="233.929566" y="225.61334" style="stroke: #ffffff"/>
     <use xlink:href="#m6c9e044493" x="236.072037" y="176.542687" style="stroke: #ffffff"/>
     <use xlink:href="#m6c9e044493" x="238.399013" y="123.24616" style="stroke: #ffffff"/>
     <use xlink:href="#m6c9e044493" x="231.989989" y="266.358783" style="stroke: #ffffff"/>
     <use xlink:href="#m6c9e044493" x="233.781832" y="226.899325" style="stroke: #ffffff"/>
     <use xlink:href="#m6c9e044493" x="235.450537" y="190.151598" style="stroke: #ffffff"/>
     <use xlink:href="#m6c9e044493" x="238.488514" y="123.250146" style="stroke: #ffffff"/>
     <use xlink:href="#m6c9e044493" x="231.762138" y="267.784444" style="stroke: #ffffff"/>
     <use xlink:href="#m6c9e044493" x="233.992409" y="220.491656" style="stroke: #ffffff"/>
     <use xlink:href="#m6c9e044493" x="238.535137" y="124.163345" style="stroke: #ffffff"/>
     <use xlink:href="#m6c9e044493" x="231.669465" y="266.343667" style="stroke: #ffffff"/>
     <use xlink:href="#m6c9e044493" x="233.662115" y="225.600962" style="stroke: #ffffff"/>
     <use xlink:href="#m6c9e044493" x="238.667493" y="123.258587" style="stroke: #ffffff"/>
     <use xlink:href="#m6c9e044493" x="231.509223" y="266.33569" style="stroke: #ffffff"/>
     <use xlink:href="#m6c9e044493" x="233.57298" y="225.596524" style="stroke: #ffffff"/>
     <use xlink:href="#m6c9e044493" x="238.756971" y="123.263041" style="stroke: #ffffff"/>
     <use xlink:href="#m6c9e044493" x="231.273911" y="267.760138" style="stroke: #ffffff"/>
     <use xlink:href="#m6c9e044493" x="233.818158" y="219.213005" style="stroke: #ffffff"/>
     <use xlink:href="#m6c9e044493" x="235.642396" y="184.404466" style="stroke: #ffffff"/>
     <use xlink:href="#m6c9e044493" x="238.798812" y="124.176471" style="stroke: #ffffff"/>
     <use xlink:href="#m6c9e044493" x="231.188783" y="266.318897" style="stroke: #ffffff"/>
     <use xlink:href="#m6c9e044493" x="233.394734" y="225.587183" style="stroke: #ffffff"/>
     <use xlink:href="#m6c9e044493" x="238.984929" y="122.36718" style="stroke: #ffffff"/>
     <use xlink:href="#m6c9e044493" x="230.9485" y="267.742515" style="stroke: #ffffff"/>
     <use xlink:href="#m6c9e044493" x="233.305623" y="225.582279" style="stroke: #ffffff"/>
     <use xlink:href="#m6c9e044493" x="236.04743" y="176.541462" style="stroke: #ffffff"/>
     <use xlink:href="#m6c9e044493" x="239.025357" y="123.277342" style="stroke: #ffffff"/>
     <use xlink:href="#m6c9e044493" x="230.785818" y="267.733277" style="stroke: #ffffff"/>
     <use xlink:href="#m6c9e044493" x="233.142189" y="226.866363" style="stroke: #ffffff"/>
     <use xlink:href="#m6c9e044493" x="236.423137" y="169.964368" style="stroke: #ffffff"/>
     <use xlink:href="#m6c9e044493" x="239.062414" y="124.190978" style="stroke: #ffffff"/>
     <use xlink:href="#m6c9e044493" x="230.708237" y="266.291609" style="stroke: #ffffff"/>
     <use xlink:href="#m6c9e044493" x="233.127427" y="225.572004" style="stroke: #ffffff"/>
     <use xlink:href="#m6c9e044493" x="239.258002" y="122.382686" style="stroke: #ffffff"/>
     <use xlink:href="#m6c9e044493" x="230.460503" y="267.71395" style="stroke: #ffffff"/>
     <use xlink:href="#m6c9e044493" x="233.350867" y="220.456911" style="stroke: #ffffff"/>
     <use xlink:href="#m6c9e044493" x="239.238106" y="124.201416" style="stroke: #ffffff"/>
     <use xlink:href="#m6c9e044493" x="230.297872" y="267.70386" style="stroke: #ffffff"/>
     <use xlink:href="#m6c9e044493" x="233.110564" y="222.99739" style="stroke: #ffffff"/>
     <use xlink:href="#m6c9e044493" x="239.325937" y="124.206865" style="stroke: #ffffff"/>
     <use xlink:href="#m6c9e044493" x="230.227841" y="266.261806" style="stroke: #ffffff"/>
     <use xlink:href="#m6c9e044493" x="232.943237" y="224.271421" style="stroke: #ffffff"/>
     <use xlink:href="#m6c9e044493" x="235.958083" y="177.650406" style="stroke: #ffffff"/>
     <use xlink:href="#m6c9e044493" x="239.530991" y="122.399622" style="stroke: #ffffff"/>
     <use xlink:href="#m6c9e044493" x="229.972663" y="267.68283" style="stroke: #ffffff"/>
     <use xlink:href="#m6c9e044493" x="233.02606" y="221.711735" style="stroke: #ffffff"/>
     <use xlink:href="#m6c9e044493" x="239.501572" y="124.218223" style="stroke: #ffffff"/>
     <use xlink:href="#m6c9e044493" x="229.907666" y="266.24054" style="stroke: #ffffff"/>
     <use xlink:href="#m6c9e044493" x="232.682106" y="225.543597" style="stroke: #ffffff"/>
     <use xlink:href="#m6c9e044493" x="239.835542" y="120.613205" style="stroke: #ffffff"/>
     <use xlink:href="#m6c9e044493" x="229.747607" y="266.229488" style="stroke: #ffffff"/>
     <use xlink:href="#m6c9e044493" x="232.412599" y="228.118327" style="stroke: #ffffff"/>
     <use xlink:href="#m6c9e044493" x="235.628481" y="182.12908" style="stroke: #ffffff"/>
     <use xlink:href="#m6c9e044493" x="239.677165" y="124.230193" style="stroke: #ffffff"/>
     <use xlink:href="#m6c9e044493" x="229.587568" y="266.218157" style="stroke: #ffffff"/>
     <use xlink:href="#m6c9e044493" x="232.504049" y="225.531146" style="stroke: #ffffff"/>
     <use xlink:href="#m6c9e044493" x="239.894831" y="122.424426" style="stroke: #ffffff"/>
     <use xlink:href="#m6c9e044493" x="229.427548" y="266.206546" style="stroke: #ffffff"/>
     <use xlink:href="#m6c9e044493" x="232.415037" y="225.524687" style="stroke: #ffffff"/>
     <use xlink:href="#m6c9e044493" x="235.183945" y="187.819339" style="stroke: #ffffff"/>
     <use xlink:href="#m6c9e044493" x="239.852716" y="124.242777" style="stroke: #ffffff"/>
     <use xlink:href="#m6c9e044493" x="229.26755" y="266.194656" style="stroke: #ffffff"/>
     <use xlink:href="#m6c9e044493" x="232.229218" y="226.805723" style="stroke: #ffffff"/>
     <use xlink:href="#m6c9e044493" x="240.076683" y="122.43778" style="stroke: #ffffff"/>
     <use xlink:href="#m6c9e044493" x="228.997505" y="267.61293" style="stroke: #ffffff"/>
     <use xlink:href="#m6c9e044493" x="232.137982" y="226.798783" style="stroke: #ffffff"/>
     <use xlink:href="#m6c9e044493" x="240.028222" y="124.255973" style="stroke: #ffffff"/>
     <use xlink:href="#m6c9e044493" x="228.947615" y="266.170038" style="stroke: #ffffff"/>
     <use xlink:href="#m6c9e044493" x="232.148072" y="225.50438" style="stroke: #ffffff"/>
     <use xlink:href="#m6c9e044493" x="240.540273" y="118.871353" style="stroke: #ffffff"/>
     <use xlink:href="#m6c9e044493" x="228.672622" y="267.587361" style="stroke: #ffffff"/>
     <use xlink:href="#m6c9e044493" x="231.955548" y="226.784425" style="stroke: #ffffff"/>
     <use xlink:href="#m6c9e044493" x="240.349372" y="122.459002" style="stroke: #ffffff"/>
     <use xlink:href="#m6c9e044493" x="228.510214" y="267.574151" style="stroke: #ffffff"/>
     <use xlink:href="#m6c9e044493" x="231.758166" y="228.068545" style="stroke: #ffffff"/>
     <use xlink:href="#m6c9e044493" x="234.973425" y="188.960595" style="stroke: #ffffff"/>
     <use xlink:href="#m6c9e044493" x="235.90362" y="177.646406" style="stroke: #ffffff"/>
     <use xlink:href="#m6c9e044493" x="240.365961" y="123.36991" style="stroke: #ffffff"/>
     <use xlink:href="#m6c9e044493" x="228.46788" y="266.131018" style="stroke: #ffffff"/>
     <use xlink:href="#m6c9e044493" x="231.664727" y="228.060781" style="stroke: #ffffff"/>
     <use xlink:href="#m6c9e044493" x="240.455242" y="123.377329" style="stroke: #ffffff"/>
     <use xlink:href="#m6c9e044493" x="244.096359" y="80.016422" style="stroke: #ffffff"/>
     <use xlink:href="#m6c9e044493" x="228.308014" y="266.117454" style="stroke: #ffffff"/>
     <use xlink:href="#m6c9e044493" x="231.79229" y="225.475129" style="stroke: #ffffff"/>
     <use xlink:href="#m6c9e044493" x="240.699084" y="121.581875" style="stroke: #ffffff"/>
     <use xlink:href="#m6c9e044493" x="228.023132" y="267.532822" style="stroke: #ffffff"/>
     <use xlink:href="#m6c9e044493" x="232.038606" y="221.635754" style="stroke: #ffffff"/>
     <use xlink:href="#m6c9e044493" x="240.554447" y="124.299237" style="stroke: #ffffff"/>
     <use xlink:href="#m6c9e044493" x="244.231813" y="82.266752" style="stroke: #ffffff"/>
     <use xlink:href="#m6c9e044493" x="227.988355" y="266.089487" style="stroke: #ffffff"/>
     <use xlink:href="#m6c9e044493" x="231.614478" y="225.459573" style="stroke: #ffffff"/>
     <use xlink:href="#m6c9e044493" x="236.662692" y="168.895448" style="stroke: #ffffff"/>
     <use xlink:href="#m6c9e044493" x="240.883873" y="121.598042" style="stroke: #ffffff"/>
     <use xlink:href="#m6c9e044493" x="227.698535" y="267.503852" style="stroke: #ffffff"/>
     <use xlink:href="#m6c9e044493" x="231.874194" y="221.621081" style="stroke: #ffffff"/>
     <use xlink:href="#m6c9e044493" x="240.729752" y="124.314883" style="stroke: #ffffff"/>
     <use xlink:href="#m6c9e044493" x="227.536274" y="267.488943" style="stroke: #ffffff"/>
     <use xlink:href="#m6c9e044493" x="231.909592" y="220.346011" style="stroke: #ffffff"/>
     <use xlink:href="#m6c9e044493" x="240.817383" y="124.322935" style="stroke: #ffffff"/>
     <use xlink:href="#m6c9e044493" x="227.509054" y="266.045446" style="stroke: #ffffff"/>
     <use xlink:href="#m6c9e044493" x="231.347865" y="225.435074" style="stroke: #ffffff"/>
     <use xlink:href="#m6c9e044493" x="236.48782" y="171.060025" style="stroke: #ffffff"/>
     <use xlink:href="#m6c9e044493" x="241.245607" y="120.727895" style="stroke: #ffffff"/>
     <use xlink:href="#m6c9e044493" x="227.211832" y="267.458274" style="stroke: #ffffff"/>
     <use xlink:href="#m6c9e044493" x="231.382346" y="224.145835" style="stroke: #ffffff"/>
     <use xlink:href="#m6c9e044493" x="241.16672" y="122.531229" style="stroke: #ffffff"/>
     <use xlink:href="#m6c9e044493" x="227.189652" y="266.014691" style="stroke: #ffffff"/>
     <use xlink:href="#m6c9e044493" x="231.044188" y="226.703089" style="stroke: #ffffff"/>
     <use xlink:href="#m6c9e044493" x="236.393379" y="172.147819" style="stroke: #ffffff"/>
     <use xlink:href="#m6c9e044493" x="241.257463" y="122.540047" style="stroke: #ffffff"/>
     <use xlink:href="#m6c9e044493" x="245.415173" y="80.136444" style="stroke: #ffffff"/>
     <use xlink:href="#m6c9e044493" x="227.029991" y="265.998895" style="stroke: #ffffff"/>
     <use xlink:href="#m6c9e044493" x="231.336514" y="222.853095" style="stroke: #ffffff"/>
     <use xlink:href="#m6c9e044493" x="245.653175" y="79.418655" style="stroke: #ffffff"/>
     <use xlink:href="#m6c9e044493" x="226.725375" y="267.410148" style="stroke: #ffffff"/>
     <use xlink:href="#m6c9e044493" x="231.638102" y="219.045259" style="stroke: #ffffff"/>
     <use xlink:href="#m6c9e044493" x="236.290937" y="173.238949" style="stroke: #ffffff"/>
     <use xlink:href="#m6c9e044493" x="241.255322" y="124.365489" style="stroke: #ffffff"/>
     <use xlink:href="#m6c9e044493" x="245.214516" y="85.387954" style="stroke: #ffffff"/>
     <use xlink:href="#m6c9e044493" x="226.710754" y="265.966468" style="stroke: #ffffff"/>
     <use xlink:href="#m6c9e044493" x="230.771071" y="226.675587" style="stroke: #ffffff"/>
     <use xlink:href="#m6c9e044493" x="236.85227" y="167.829046" style="stroke: #ffffff"/>
     <use xlink:href="#m6c9e044493" x="241.436412" y="123.469213" style="stroke: #ffffff"/>
     <use xlink:href="#m6c9e044493" x="226.551178" y="265.949837" style="stroke: #ffffff"/>
     <use xlink:href="#m6c9e044493" x="230.680065" y="226.666102" style="stroke: #ffffff"/>
     <use xlink:href="#m6c9e044493" x="241.620281" y="122.5769" style="stroke: #ffffff"/>
     <use xlink:href="#m6c9e044493" x="226.391631" y="265.932927" style="stroke: #ffffff"/>
     <use xlink:href="#m6c9e044493" x="230.863021" y="224.093084" style="stroke: #ffffff"/>
     <use xlink:href="#m6c9e044493" x="246.001506" y="82.438713" style="stroke: #ffffff"/>
     <use xlink:href="#m6c9e044493" x="226.077171" y="267.342019" style="stroke: #ffffff"/>
     <use xlink:href="#m6c9e044493" x="231.327425" y="219.012606" style="stroke: #ffffff"/>
     <use xlink:href="#m6c9e044493" x="236.536209" y="171.064941" style="stroke: #ffffff"/>
     <use xlink:href="#m6c9e044493" x="241.605395" y="124.402283" style="stroke: #ffffff"/>
     <use xlink:href="#m6c9e044493" x="226.072628" y="265.898272" style="stroke: #ffffff"/>
     <use xlink:href="#m6c9e044493" x="230.548845" y="225.353208" style="stroke: #ffffff"/>
     <use xlink:href="#m6c9e044493" x="234.949465" y="185.492886" style="stroke: #ffffff"/>
     <use xlink:href="#m6c9e044493" x="241.89222" y="122.606202" style="stroke: #ffffff"/>
     <use xlink:href="#m6c9e044493" x="246.648619" y="79.52328" style="stroke: #ffffff"/>
     <use xlink:href="#m6c9e044493" x="225.753251" y="267.306258" style="stroke: #ffffff"/>
     <use xlink:href="#m6c9e044493" x="230.316208" y="226.626575" style="stroke: #ffffff"/>
     <use xlink:href="#m6c9e044493" x="234.287058" y="191.225653" style="stroke: #ffffff"/>
     <use xlink:href="#m6c9e044493" x="241.780334" y="124.421597" style="stroke: #ffffff"/>
     <use xlink:href="#m6c9e044493" x="225.591338" y="267.287953" style="stroke: #ffffff"/>
     <use xlink:href="#m6c9e044493" x="231.094572" y="218.986693" style="stroke: #ffffff"/>
     <use xlink:href="#m6c9e044493" x="235.040418" y="184.354446" style="stroke: #ffffff"/>
     <use xlink:href="#m6c9e044493" x="236.922382" y="167.836662" style="stroke: #ffffff"/>
     <use xlink:href="#m6c9e044493" x="241.867777" y="124.431482" style="stroke: #ffffff"/>
     <use xlink:href="#m6c9e044493" x="225.594355" y="265.844202" style="stroke: #ffffff"/>
     <use xlink:href="#m6c9e044493" x="230.282803" y="225.323132" style="stroke: #ffffff"/>
     <use xlink:href="#m6c9e044493" x="242.474195" y="119.956005" style="stroke: #ffffff"/>
     <use xlink:href="#m6c9e044493" x="225.26761" y="267.250496" style="stroke: #ffffff"/>
     <use xlink:href="#m6c9e044493" x="230.791427" y="220.228487" style="stroke: #ffffff"/>
     <use xlink:href="#m6c9e044493" x="235.533948" y="179.857329" style="stroke: #ffffff"/>
     <use xlink:href="#m6c9e044493" x="242.14879" y="123.54786" style="stroke: #ffffff"/>
     <use xlink:href="#m6c9e044493" x="225.275666" y="265.806765" style="stroke: #ffffff"/>
     <use xlink:href="#m6c9e044493" x="230.10553" y="225.302307" style="stroke: #ffffff"/>
     <use xlink:href="#m6c9e044493" x="242.452027" y="121.761478" style="stroke: #ffffff"/>
     <use xlink:href="#m6c9e044493" x="224.944015" y="267.21191" style="stroke: #ffffff"/>
     <use xlink:href="#m6c9e044493" x="230.631935" y="220.209469" style="stroke: #ffffff"/>
     <use xlink:href="#m6c9e044493" x="235.784101" y="177.634266" style="stroke: #ffffff"/>
     <use xlink:href="#m6c9e044493" x="242.217375" y="124.472551" style="stroke: #ffffff"/>
     <use xlink:href="#m6c9e044493" x="247.375985" y="81.84409" style="stroke: #ffffff"/>
     <use xlink:href="#m6c9e044493" x="257.401222" y="-1" style="stroke: #ffffff"/>
     <use xlink:href="#m6c9e044493" x="257.383458" y="-1" style="stroke: #ffffff"/>
     <use xlink:href="#m6c9e044493" x="224.95711" y="265.768216" style="stroke: #ffffff"/>
     <use xlink:href="#m6c9e044493" x="229.928332" y="225.280864" style="stroke: #ffffff"/>
     <use xlink:href="#m6c9e044493" x="242.855023" y="120.001416" style="stroke: #ffffff"/>
     <use xlink:href="#m6c9e044493" x="224.620556" y="267.172194" style="stroke: #ffffff"/>
     <use xlink:href="#m6c9e044493" x="229.519982" y="227.837251" style="stroke: #ffffff"/>
     <use xlink:href="#m6c9e044493" x="242.50455" y="123.590912" style="stroke: #ffffff"/>
     <use xlink:href="#m6c9e044493" x="224.638691" y="265.728554" style="stroke: #ffffff"/>
     <use xlink:href="#m6c9e044493" x="229.751209" y="225.258802" style="stroke: #ffffff"/>
     <use xlink:href="#m6c9e044493" x="242.593442" y="123.602063" style="stroke: #ffffff"/>
     <use xlink:href="#m6c9e044493" x="248.139594" y="79.699749" style="stroke: #ffffff"/>
     <use xlink:href="#m6c9e044493" x="224.479533" y="265.708307" style="stroke: #ffffff"/>
     <use xlink:href="#m6c9e044493" x="229.662677" y="225.247539" style="stroke: #ffffff"/>
     <use xlink:href="#m6c9e044493" x="234.903328" y="184.337856" style="stroke: #ffffff"/>
     <use xlink:href="#m6c9e044493" x="242.797507" y="122.714151" style="stroke: #ffffff"/>
     <use xlink:href="#m6c9e044493" x="224.320411" y="265.687782" style="stroke: #ffffff"/>
     <use xlink:href="#m6c9e044493" x="229.739884" y="223.960152" style="stroke: #ffffff"/>
     <use xlink:href="#m6c9e044493" x="242.653955" y="124.527317" style="stroke: #ffffff"/>
     <use xlink:href="#m6c9e044493" x="223.974064" y="267.089377" style="stroke: #ffffff"/>
     <use xlink:href="#m6c9e044493" x="229.317126" y="226.504788" style="stroke: #ffffff"/>
     <use xlink:href="#m6c9e044493" x="234.269812" y="188.8854" style="stroke: #ffffff"/>
     <use xlink:href="#m6c9e044493" x="235.31279" y="180.963196" style="stroke: #ffffff"/>
     <use xlink:href="#m6c9e044493" x="236.329121" y="173.243401" style="stroke: #ffffff"/>
     <use xlink:href="#m6c9e044493" x="242.86" y="123.636446" style="stroke: #ffffff"/>
     <use xlink:href="#m6c9e044493" x="223.812532" y="267.067967" style="stroke: #ffffff"/>
     <use xlink:href="#m6c9e044493" x="229.397201" y="225.212824" style="stroke: #ffffff"/>
     <use xlink:href="#m6c9e044493" x="237.050698" y="167.852531" style="stroke: #ffffff"/>
     <use xlink:href="#m6c9e044493" x="242.948812" y="123.648217" style="stroke: #ffffff"/>
     <use xlink:href="#m6c9e044493" x="223.843264" y="265.624541" style="stroke: #ffffff"/>
     <use xlink:href="#m6c9e044493" x="229.308749" y="225.200944" style="stroke: #ffffff"/>
     <use xlink:href="#m6c9e044493" x="243.037604" y="123.660144" style="stroke: #ffffff"/>
     <use xlink:href="#m6c9e044493" x="223.489583" y="267.024303" style="stroke: #ffffff"/>
     <use xlink:href="#m6c9e044493" x="229.220319" y="225.188909" style="stroke: #ffffff"/>
     <use xlink:href="#m6c9e044493" x="236.186558" y="174.334123" style="stroke: #ffffff"/>
     <use xlink:href="#m6c9e044493" x="243.371971" y="121.879326" style="stroke: #ffffff"/>
     <use xlink:href="#m6c9e044493" x="223.328165" y="267.002048" style="stroke: #ffffff"/>
     <use xlink:href="#m6c9e044493" x="228.954429" y="226.455749" style="stroke: #ffffff"/>
     <use xlink:href="#m6c9e044493" x="234.48631" y="186.589637" style="stroke: #ffffff"/>
     <use xlink:href="#m6c9e044493" x="243.215124" y="123.684461" style="stroke: #ffffff"/>
     <use xlink:href="#m6c9e044493" x="223.366455" y="265.558802" style="stroke: #ffffff"/>
     <use xlink:href="#m6c9e044493" x="228.863809" y="226.443094" style="stroke: #ffffff"/>
     <use xlink:href="#m6c9e044493" x="236.187234" y="174.334217" style="stroke: #ffffff"/>
     <use xlink:href="#m6c9e044493" x="243.430022" y="122.799109" style="stroke: #ffffff"/>
     <use xlink:href="#m6c9e044493" x="223.005449" y="266.956693" style="stroke: #ffffff"/>
     <use xlink:href="#m6c9e044493" x="229.676467" y="220.083679" style="stroke: #ffffff"/>
     <use xlink:href="#m6c9e044493" x="236.496979" y="172.160264" style="stroke: #ffffff"/>
     <use xlink:href="#m6c9e044493" x="243.392558" y="123.709397" style="stroke: #ffffff"/>
     <use xlink:href="#m6c9e044493" x="223.048776" y="265.51359" style="stroke: #ffffff"/>
     <use xlink:href="#m6c9e044493" x="229.233194" y="222.596703" style="stroke: #ffffff"/>
     <use xlink:href="#m6c9e044493" x="236.811987" y="170.003523" style="stroke: #ffffff"/>
     <use xlink:href="#m6c9e044493" x="243.351441" y="124.62286" style="stroke: #ffffff"/>
     <use xlink:href="#m6c9e044493" x="222.682893" y="266.910212" style="stroke: #ffffff"/>
     <use xlink:href="#m6c9e044493" x="229.333727" y="221.320397" style="stroke: #ffffff"/>
     <use xlink:href="#m6c9e044493" x="236.819883" y="170.004668" style="stroke: #ffffff"/>
     <use xlink:href="#m6c9e044493" x="243.569904" y="123.734953" style="stroke: #ffffff"/>
     <use xlink:href="#m6c9e044493" x="222.731257" y="265.467269" style="stroke: #ffffff"/>
     <use xlink:href="#m6c9e044493" x="228.501554" y="226.390893" style="stroke: #ffffff"/>
     <use xlink:href="#m6c9e044493" x="233.534989" y="192.304538" style="stroke: #ffffff"/>
     <use xlink:href="#m6c9e044493" x="243.658543" y="123.747963" style="stroke: #ffffff"/>
     <use xlink:href="#m6c9e044493" x="222.360501" y="266.862605" style="stroke: #ffffff"/>
     <use xlink:href="#m6c9e044493" x="228.792097" y="223.827793" style="stroke: #ffffff"/>
     <use xlink:href="#m6c9e044493" x="233.676452" y="191.145807" style="stroke: #ffffff"/>
     <use xlink:href="#m6c9e044493" x="243.74716" y="123.761128" style="stroke: #ffffff"/>
     <use xlink:href="#m6c9e044493" x="222.413902" y="265.419839" style="stroke: #ffffff"/>
     <use xlink:href="#m6c9e044493" x="228.513658" y="225.087077" style="stroke: #ffffff"/>
     <use xlink:href="#m6c9e044493" x="243.835753" y="123.774448" style="stroke: #ffffff"/>
     <use xlink:href="#m6c9e044493" x="222.038277" y="266.813873" style="stroke: #ffffff"/>
     <use xlink:href="#m6c9e044493" x="228.230107" y="226.350082" style="stroke: #ffffff"/>
     <use xlink:href="#m6c9e044493" x="233.969548" y="188.842666" style="stroke: #ffffff"/>
     <use xlink:href="#m6c9e044493" x="236.851445" y="170.009385" style="stroke: #ffffff"/>
     <use xlink:href="#m6c9e044493" x="243.924323" y="123.787922" style="stroke: #ffffff"/>
     <use xlink:href="#m6c9e044493" x="221.877229" y="266.789086" style="stroke: #ffffff"/>
     <use xlink:href="#m6c9e044493" x="229.120397" y="220.00107" style="stroke: #ffffff"/>
     <use xlink:href="#m6c9e044493" x="243.873642" y="124.700904" style="stroke: #ffffff"/>
     <use xlink:href="#m6c9e044493" x="221.938184" y="265.346619" style="stroke: #ffffff"/>
     <use xlink:href="#m6c9e044493" x="228.249038" y="225.046348" style="stroke: #ffffff"/>
     <use xlink:href="#m6c9e044493" x="244.520539" y="121.138712" style="stroke: #ffffff"/>
     <use xlink:href="#m6c9e044493" x="221.555265" y="266.738668" style="stroke: #ffffff"/>
     <use xlink:href="#m6c9e044493" x="228.160879" y="225.032464" style="stroke: #ffffff"/>
     <use xlink:href="#m6c9e044493" x="244.047524" y="124.728133" style="stroke: #ffffff"/>
     <use xlink:href="#m6c9e044493" x="221.621254" y="265.296423" style="stroke: #ffffff"/>
     <use xlink:href="#m6c9e044493" x="228.072744" y="225.018426" style="stroke: #ffffff"/>
     <use xlink:href="#m6c9e044493" x="233.50257" y="191.118889" style="stroke: #ffffff"/>
     <use xlink:href="#m6c9e044493" x="244.848583" y="120.283367" style="stroke: #ffffff"/>
     <use xlink:href="#m6c9e044493" x="221.233479" y="266.687126" style="stroke: #ffffff"/>
     <use xlink:href="#m6c9e044493" x="229.005904" y="218.698724" style="stroke: #ffffff"/>
     <use xlink:href="#m6c9e044493" x="236.014763" y="175.42472" style="stroke: #ffffff"/>
     <use xlink:href="#m6c9e044493" x="244.22131" y="124.755969" style="stroke: #ffffff"/>
     <use xlink:href="#m6c9e044493" x="221.072654" y="266.660934" style="stroke: #ffffff"/>
     <use xlink:href="#m6c9e044493" x="228.518127" y="221.194136" style="stroke: #ffffff"/>
     <use xlink:href="#m6c9e044493" x="238.789626" y="158.469831" style="stroke: #ffffff"/>
     <use xlink:href="#m6c9e044493" x="244.160528" y="125.671685" style="stroke: #ffffff"/>
     <use xlink:href="#m6c9e044493" x="221.146193" y="265.219054" style="stroke: #ffffff"/>
     <use xlink:href="#m6c9e044493" x="227.808489" y="224.97539" style="stroke: #ffffff"/>
     <use xlink:href="#m6c9e044493" x="236.011634" y="175.424208" style="stroke: #ffffff"/>
     <use xlink:href="#m6c9e044493" x="245.42352" y="118.571615" style="stroke: #ffffff"/>
     <use xlink:href="#m6c9e044493" x="220.987931" y="265.192712" style="stroke: #ffffff"/>
     <use xlink:href="#m6c9e044493" x="227.720454" y="224.960737" style="stroke: #ffffff"/>
     <use xlink:href="#m6c9e044493" x="234.150181" y="186.538202" style="stroke: #ffffff"/>
     <use xlink:href="#m6c9e044493" x="236.734932" y="171.092339" style="stroke: #ffffff"/>
     <use xlink:href="#m6c9e044493" x="244.632008" y="123.901274" style="stroke: #ffffff"/>
     <use xlink:href="#m6c9e044493" x="220.590456" y="266.580674" style="stroke: #ffffff"/>
     <use xlink:href="#m6c9e044493" x="228.27389" y="221.153483" style="stroke: #ffffff"/>
     <use xlink:href="#m6c9e044493" x="244.416229" y="125.714245" style="stroke: #ffffff"/>
     <use xlink:href="#m6c9e044493" x="220.671544" y="265.139199" style="stroke: #ffffff"/>
     <use xlink:href="#m6c9e044493" x="227.544463" y="224.93097" style="stroke: #ffffff"/>
     <use xlink:href="#m6c9e044493" x="244.808677" y="123.931156" style="stroke: #ffffff"/>
     <use xlink:href="#m6c9e044493" x="220.513421" y="265.112029" style="stroke: #ffffff"/>
     <use xlink:href="#m6c9e044493" x="227.456506" y="224.915856" style="stroke: #ffffff"/>
     <use xlink:href="#m6c9e044493" x="236.380538" y="173.251223" style="stroke: #ffffff"/>
     <use xlink:href="#m6c9e044493" x="245.20499" y="122.163092" style="stroke: #ffffff"/>
     <use xlink:href="#m6c9e044493" x="220.108685" y="266.497891" style="stroke: #ffffff"/>
     <use xlink:href="#m6c9e044493" x="228.029869" y="221.111553" style="stroke: #ffffff"/>
     <use xlink:href="#m6c9e044493" x="234.65515" y="183.150402" style="stroke: #ffffff"/>
     <use xlink:href="#m6c9e044493" x="244.98524" y="123.961654" style="stroke: #ffffff"/>
     <use xlink:href="#m6c9e044493" x="252.082985" y="83.293409" style="stroke: #ffffff"/>
     <use xlink:href="#m6c9e044493" x="220.197319" y="265.05686" style="stroke: #ffffff"/>
     <use xlink:href="#m6c9e044493" x="227.056443" y="226.156836" style="stroke: #ffffff"/>
     <use xlink:href="#m6c9e044493" x="236.764892" y="171.097487" style="stroke: #ffffff"/>
     <use xlink:href="#m6c9e044493" x="245.230905" y="123.084341" style="stroke: #ffffff"/>
     <use xlink:href="#m6c9e044493" x="220.039341" y="265.028862" style="stroke: #ffffff"/>
     <use xlink:href="#m6c9e044493" x="227.192796" y="224.869594" style="stroke: #ffffff"/>
     <use xlink:href="#m6c9e044493" x="245.320677" y="123.100251" style="stroke: #ffffff"/>
     <use xlink:href="#m6c9e044493" x="219.627354" y="266.412586" style="stroke: #ffffff"/>
     <use xlink:href="#m6c9e044493" x="227.78607" y="221.068345" style="stroke: #ffffff"/>
     <use xlink:href="#m6c9e044493" x="235.999135" y="175.422049" style="stroke: #ffffff"/>
     <use xlink:href="#m6c9e044493" x="245.088724" y="124.904239" style="stroke: #ffffff"/>
     <use xlink:href="#m6c9e044493" x="219.723532" y="264.972039" style="stroke: #ffffff"/>
     <use xlink:href="#m6c9e044493" x="227.017126" y="224.837986" style="stroke: #ffffff"/>
     <use xlink:href="#m6c9e044493" x="235.799426" y="176.512109" style="stroke: #ffffff"/>
     <use xlink:href="#m6c9e044493" x="245.66161" y="122.244017" style="stroke: #ffffff"/>
     <use xlink:href="#m6c9e044493" x="219.306717" y="266.354316" style="stroke: #ffffff"/>
     <use xlink:href="#m6c9e044493" x="228.082431" y="218.539212" style="stroke: #ffffff"/>
     <use xlink:href="#m6c9e044493" x="236.591729" y="172.175695" style="stroke: #ffffff"/>
     <use xlink:href="#m6c9e044493" x="245.261889" y="124.935708" style="stroke: #ffffff"/>
     <use xlink:href="#m6c9e044493" x="219.407924" y="264.914114" style="stroke: #ffffff"/>
     <use xlink:href="#m6c9e044493" x="226.606249" y="226.075427" style="stroke: #ffffff"/>
     <use xlink:href="#m6c9e044493" x="236.39612" y="173.254013" style="stroke: #ffffff"/>
     <use xlink:href="#m6c9e044493" x="245.679485" y="123.165457" style="stroke: #ffffff"/>
     <use xlink:href="#m6c9e044493" x="218.986286" y="266.294928" style="stroke: #ffffff"/>
     <use xlink:href="#m6c9e044493" x="227.695527" y="219.757512" style="stroke: #ffffff"/>
     <use xlink:href="#m6c9e044493" x="233.283056" y="189.900812" style="stroke: #ffffff"/>
     <use xlink:href="#m6c9e044493" x="245.434943" y="124.967782" style="stroke: #ffffff"/>
     <use xlink:href="#m6c9e044493" x="219.09252" y="264.855088" style="stroke: #ffffff"/>
     <use xlink:href="#m6c9e044493" x="226.666122" y="224.772931" style="stroke: #ffffff"/>
     <use xlink:href="#m6c9e044493" x="246.193412" y="121.427667" style="stroke: #ffffff"/>
     <use xlink:href="#m6c9e044493" x="218.666065" y="266.234421" style="stroke: #ffffff"/>
     <use xlink:href="#m6c9e044493" x="226.33648" y="226.024698" style="stroke: #ffffff"/>
     <use xlink:href="#m6c9e044493" x="233.662745" y="187.619069" style="stroke: #ffffff"/>
     <use xlink:href="#m6c9e044493" x="245.778413" y="124.106513" style="stroke: #ffffff"/>
     <use xlink:href="#m6c9e044493" x="218.506033" y="266.203749" style="stroke: #ffffff"/>
     <use xlink:href="#m6c9e044493" x="226.490792" y="224.739485" style="stroke: #ffffff"/>
     <use xlink:href="#m6c9e044493" x="246.037828" y="123.233167" style="stroke: #ffffff"/>
     <use xlink:href="#m6c9e044493" x="253.531128" y="84.321011" style="stroke: #ffffff"/>
     <use xlink:href="#m6c9e044493" x="218.346056" y="266.172797" style="stroke: #ffffff"/>
     <use xlink:href="#m6c9e044493" x="226.156782" y="225.990093" style="stroke: #ffffff"/>
     <use xlink:href="#m6c9e044493" x="234.055089" y="185.356826" style="stroke: #ffffff"/>
     <use xlink:href="#m6c9e044493" x="235.562972" y="177.59944" style="stroke: #ffffff"/>
     <use xlink:href="#m6c9e044493" x="245.954358" y="124.140394" style="stroke: #ffffff"/>
     <use xlink:href="#m6c9e044493" x="218.462339" y="264.733734" style="stroke: #ffffff"/>
     <use xlink:href="#m6c9e044493" x="226.31558" y="224.705428" style="stroke: #ffffff"/>
     <use xlink:href="#m6c9e044493" x="233.372034" y="188.738383" style="stroke: #ffffff"/>
     <use xlink:href="#m6c9e044493" x="237.869969" y="165.812216" style="stroke: #ffffff"/>
     <use xlink:href="#m6c9e044493" x="246.042286" y="124.157565" style="stroke: #ffffff"/>
     <use xlink:href="#m6c9e044493" x="218.026264" y="266.110057" style="stroke: #ffffff"/>
     <use xlink:href="#m6c9e044493" x="227.222357" y="219.666394" style="stroke: #ffffff"/>
     <use xlink:href="#m6c9e044493" x="246.130184" y="124.17489" style="stroke: #ffffff"/>
     <use xlink:href="#m6c9e044493" x="217.866451" y="266.078268" style="stroke: #ffffff"/>
     <use xlink:href="#m6c9e044493" x="225.887466" y="225.937011" style="stroke: #ffffff"/>
     <use xlink:href="#m6c9e044493" x="246.218052" y="124.192368" style="stroke: #ffffff"/>
     <use xlink:href="#m6c9e044493" x="217.706694" y="266.0462" style="stroke: #ffffff"/>
     <use xlink:href="#m6c9e044493" x="227.31556" y="218.391536" style="stroke: #ffffff"/>
     <use xlink:href="#m6c9e044493" x="246.305889" y="124.209999" style="stroke: #ffffff"/>
     <use xlink:href="#m6c9e044493" x="217.83302" y="264.607984" style="stroke: #ffffff"/>
     <use xlink:href="#m6c9e044493" x="225.965518" y="224.635478" style="stroke: #ffffff"/>
     <use xlink:href="#m6c9e044493" x="246.393695" y="124.227784" style="stroke: #ffffff"/>
     <use xlink:href="#m6c9e044493" x="217.387348" y="265.981229" style="stroke: #ffffff"/>
     <use xlink:href="#m6c9e044493" x="225.87808" y="224.617609" style="stroke: #ffffff"/>
     <use xlink:href="#m6c9e044493" x="234.854859" y="180.886153" style="stroke: #ffffff"/>
     <use xlink:href="#m6c9e044493" x="246.481469" y="124.245722" style="stroke: #ffffff"/>
     <use xlink:href="#m6c9e044493" x="217.518694" y="264.543462" style="stroke: #ffffff"/>
     <use xlink:href="#m6c9e044493" x="225.790673" y="224.599588" style="stroke: #ffffff"/>
     <use xlink:href="#m6c9e044493" x="246.753053" y="123.376083" style="stroke: #ffffff"/>
     <use xlink:href="#m6c9e044493" x="217.361616" y="264.51079" style="stroke: #ffffff"/>
     <use xlink:href="#m6c9e044493" x="225.439234" y="225.84541" style="stroke: #ffffff"/>
     <use xlink:href="#m6c9e044493" x="234.601813" y="181.986618" style="stroke: #ffffff"/>
     <use xlink:href="#m6c9e044493" x="246.47082" y="125.172891" style="stroke: #ffffff"/>
     <use xlink:href="#m6c9e044493" x="255.251769" y="83.140857" style="stroke: #ffffff"/>
     <use xlink:href="#m6c9e044493" x="217.204595" y="264.477843" style="stroke: #ffffff"/>
     <use xlink:href="#m6c9e044493" x="225.615953" y="224.563087" style="stroke: #ffffff"/>
     <use xlink:href="#m6c9e044493" x="235.972683" y="175.416883" style="stroke: #ffffff"/>
     <use xlink:href="#m6c9e044493" x="247.303261" y="121.649437" style="stroke: #ffffff"/>
     <use xlink:href="#m6c9e044493" x="216.749347" y="265.847943" style="stroke: #ffffff"/>
     <use xlink:href="#m6c9e044493" x="225.528642" y="224.544608" style="stroke: #ffffff"/>
     <use xlink:href="#m6c9e044493" x="246.643038" y="125.209183" style="stroke: #ffffff"/>
     <use xlink:href="#m6c9e044493" x="216.589993" y="265.813926" style="stroke: #ffffff"/>
     <use xlink:href="#m6c9e044493" x="225.979828" y="222.014261" style="stroke: #ffffff"/>
     <use xlink:href="#m6c9e044493" x="246.919867" y="124.337707" style="stroke: #ffffff"/>
     <use xlink:href="#m6c9e044493" x="216.430699" y="265.779631" style="stroke: #ffffff"/>
     <use xlink:href="#m6c9e044493" x="226.703991" y="218.263773" style="stroke: #ffffff"/>
     <use xlink:href="#m6c9e044493" x="246.815129" y="125.246076" style="stroke: #ffffff"/>
     <use xlink:href="#m6c9e044493" x="216.577094" y="264.343319" style="stroke: #ffffff"/>
     <use xlink:href="#m6c9e044493" x="225.266902" y="224.488257" style="stroke: #ffffff"/>
     <use xlink:href="#m6c9e044493" x="247.288124" y="123.489816" style="stroke: #ffffff"/>
     <use xlink:href="#m6c9e044493" x="216.112292" y="265.710207" style="stroke: #ffffff"/>
     <use xlink:href="#m6c9e044493" x="226.005661" y="220.712584" style="stroke: #ffffff"/>
     <use xlink:href="#m6c9e044493" x="236.438229" y="173.262542" style="stroke: #ffffff"/>
     <use xlink:href="#m6c9e044493" x="246.98709" y="125.28357" style="stroke: #ffffff"/>
     <use xlink:href="#m6c9e044493" x="216.263699" y="264.274414" style="stroke: #ffffff"/>
     <use xlink:href="#m6c9e044493" x="225.092575" y="224.449929" style="stroke: #ffffff"/>
     <use xlink:href="#m6c9e044493" x="234.265561" y="183.073261" style="stroke: #ffffff"/>
     <use xlink:href="#m6c9e044493" x="247.466213" y="123.528971" style="stroke: #ffffff"/>
     <use xlink:href="#m6c9e044493" x="215.794128" y="265.639672" style="stroke: #ffffff"/>
     <use xlink:href="#m6c9e044493" x="225.844508" y="220.676858" style="stroke: #ffffff"/>
     <use xlink:href="#m6c9e044493" x="247.158919" y="125.321663" style="stroke: #ffffff"/>
     <use xlink:href="#m6c9e044493" x="215.950547" y="264.204417" style="stroke: #ffffff"/>
     <use xlink:href="#m6c9e044493" x="224.918382" y="224.410992" style="stroke: #ffffff"/>
     <use xlink:href="#m6c9e044493" x="247.842701" y="122.687765" style="stroke: #ffffff"/>
     <use xlink:href="#m6c9e044493" x="215.794063" y="264.169008" style="stroke: #ffffff"/>
     <use xlink:href="#m6c9e044493" x="224.831337" y="224.391296" style="stroke: #ffffff"/>
     <use xlink:href="#m6c9e044493" x="235.958744" y="175.413831" style="stroke: #ffffff"/>
     <use xlink:href="#m6c9e044493" x="248.132467" y="121.830991" style="stroke: #ffffff"/>
     <use xlink:href="#m6c9e044493" x="215.31735" y="265.531788" style="stroke: #ffffff"/>
     <use xlink:href="#m6c9e044493" x="224.744327" y="224.371447" style="stroke: #ffffff"/>
     <use xlink:href="#m6c9e044493" x="236.449262" y="173.265018" style="stroke: #ffffff"/>
     <use xlink:href="#m6c9e044493" x="247.416411" y="125.379928" style="stroke: #ffffff"/>
     <use xlink:href="#m6c9e044493" x="215.481281" y="264.097371" style="stroke: #ffffff"/>
     <use xlink:href="#m6c9e044493" x="224.075362" y="226.872318" style="stroke: #ffffff"/>
     <use xlink:href="#m6c9e044493" x="236.943602" y="171.133846" style="stroke: #ffffff"/>
     <use xlink:href="#m6c9e044493" x="247.706894" y="124.512907" style="stroke: #ffffff"/>
     <use xlink:href="#m6c9e044493" x="214.999815" y="265.458479" style="stroke: #ffffff"/>
     <use xlink:href="#m6c9e044493" x="224.277739" y="225.588976" style="stroke: #ffffff"/>
     <use xlink:href="#m6c9e044493" x="235.954109" y="175.412765" style="stroke: #ffffff"/>
     <use xlink:href="#m6c9e044493" x="247.587901" y="125.419519" style="stroke: #ffffff"/>
     <use xlink:href="#m6c9e044493" x="215.168752" y="264.024643" style="stroke: #ffffff"/>
     <use xlink:href="#m6c9e044493" x="224.188639" y="225.56816" style="stroke: #ffffff"/>
     <use xlink:href="#m6c9e044493" x="232.853185" y="188.626678" style="stroke: #ffffff"/>
     <use xlink:href="#m6c9e044493" x="247.881409" y="124.553518" style="stroke: #ffffff"/>
     <use xlink:href="#m6c9e044493" x="215.012583" y="263.987871" style="stroke: #ffffff"/>
     <use xlink:href="#m6c9e044493" x="224.396635" y="224.290537" style="stroke: #ffffff"/>
     <use xlink:href="#m6c9e044493" x="236.710186" y="172.20055" style="stroke: #ffffff"/>
     <use xlink:href="#m6c9e044493" x="247.759252" y="125.459709" style="stroke: #ffffff"/>
     <use xlink:href="#m6c9e044493" x="214.856478" y="263.950825" style="stroke: #ffffff"/>
     <use xlink:href="#m6c9e044493" x="224.010548" y="225.526061" style="stroke: #ffffff"/>
     <use xlink:href="#m6c9e044493" x="235.434878" y="177.571745" style="stroke: #ffffff"/>
     <use xlink:href="#m6c9e044493" x="247.844875" y="125.480029" style="stroke: #ffffff"/>
     <use xlink:href="#m6c9e044493" x="214.700438" y="263.913507" style="stroke: #ffffff"/>
     <use xlink:href="#m6c9e044493" x="223.619038" y="226.764868" style="stroke: #ffffff"/>
     <use xlink:href="#m6c9e044493" x="232.77941" y="188.60917" style="stroke: #ffffff"/>
     <use xlink:href="#m6c9e044493" x="236.205682" y="174.33772" style="stroke: #ffffff"/>
     <use xlink:href="#m6c9e044493" x="248.142913" y="124.615576" style="stroke: #ffffff"/>
     <use xlink:href="#m6c9e044493" x="214.544464" y="263.875917" style="stroke: #ffffff"/>
     <use xlink:href="#m6c9e044493" x="224.136241" y="224.228262" style="stroke: #ffffff"/>
     <use xlink:href="#m6c9e044493" x="249.705077" y="118.539361" style="stroke: #ffffff"/>
     <use xlink:href="#m6c9e044493" x="214.048771" y="265.231909" style="stroke: #ffffff"/>
     <use xlink:href="#m6c9e044493" x="224.354253" y="222.957122" style="stroke: #ffffff"/>
     <use xlink:href="#m6c9e044493" x="233.003627" y="187.475961" style="stroke: #ffffff"/>
     <use xlink:href="#m6c9e044493" x="237.755017" y="167.984977" style="stroke: #ffffff"/>
     <use xlink:href="#m6c9e044493" x="248.317067" y="124.657708" style="stroke: #ffffff"/>
     <use xlink:href="#m6c9e044493" x="213.890496" y="265.193179" style="stroke: #ffffff"/>
     <use xlink:href="#m6c9e044493" x="223.962828" y="224.185989" style="stroke: #ffffff"/>
     <use xlink:href="#m6c9e044493" x="235.943315" y="175.410184" style="stroke: #ffffff"/>
     <use xlink:href="#m6c9e044493" x="248.187007" y="125.562799" style="stroke: #ffffff"/>
     <use xlink:href="#m6c9e044493" x="214.076938" y="263.761514" style="stroke: #ffffff"/>
     <use xlink:href="#m6c9e044493" x="223.876177" y="224.164625" style="stroke: #ffffff"/>
     <use xlink:href="#m6c9e044493" x="248.708855" y="123.82043" style="stroke: #ffffff"/>
     <use xlink:href="#m6c9e044493" x="213.574151" y="265.114892" style="stroke: #ffffff"/>
     <use xlink:href="#m6c9e044493" x="223.163668" y="226.65344" style="stroke: #ffffff"/>
     <use xlink:href="#m6c9e044493" x="237.002719" y="171.148039" style="stroke: #ffffff"/>
     <use xlink:href="#m6c9e044493" x="248.357854" y="125.605079" style="stroke: #ffffff"/>
     <use xlink:href="#m6c9e044493" x="213.765589" y="263.683886" style="stroke: #ffffff"/>
     <use xlink:href="#m6c9e044493" x="223.702988" y="224.121444" style="stroke: #ffffff"/>
     <use xlink:href="#m6c9e044493" x="248.885781" y="123.864543" style="stroke: #ffffff"/>
     <use xlink:href="#m6c9e044493" x="213.610017" y="263.644665" style="stroke: #ffffff"/>
     <use xlink:href="#m6c9e044493" x="223.61645" y="224.099627" style="stroke: #ffffff"/>
     <use xlink:href="#m6c9e044493" x="249.636224" y="121.270483" style="stroke: #ffffff"/>
     <use xlink:href="#m6c9e044493" x="213.100151" y="264.995391" style="stroke: #ffffff"/>
     <use xlink:href="#m6c9e044493" x="224.479985" y="220.350524" style="stroke: #ffffff"/>
     <use xlink:href="#m6c9e044493" x="248.613846" y="125.669618" style="stroke: #ffffff"/>
     <use xlink:href="#m6c9e044493" x="213.299079" y="263.565408" style="stroke: #ffffff"/>
     <use xlink:href="#m6c9e044493" x="223.443489" y="224.05554" style="stroke: #ffffff"/>
     <use xlink:href="#m6c9e044493" x="248.925425" y="124.809953" style="stroke: #ffffff"/>
     <use xlink:href="#m6c9e044493" x="212.784502" y="264.914346" style="stroke: #ffffff"/>
     <use xlink:href="#m6c9e044493" x="224.320106" y="220.309474" style="stroke: #ffffff"/>
     <use xlink:href="#m6c9e044493" x="236.484413" y="173.273587" style="stroke: #ffffff"/>
     <use xlink:href="#m6c9e044493" x="248.784317" y="125.713387" style="stroke: #ffffff"/>
     <use xlink:href="#m6c9e044493" x="212.626783" y="264.873411" style="stroke: #ffffff"/>
     <use xlink:href="#m6c9e044493" x="224.880822" y="217.829433" style="stroke: #ffffff"/>
     <use xlink:href="#m6c9e044493" x="248.869496" y="125.735495" style="stroke: #ffffff"/>
     <use xlink:href="#m6c9e044493" x="212.833196" y="263.444488" style="stroke: #ffffff"/>
     <use xlink:href="#m6c9e044493" x="223.184339" y="223.988278" style="stroke: #ffffff"/>
     <use xlink:href="#m6c9e044493" x="249.644783" y="123.127065" style="stroke: #ffffff"/>
     <use xlink:href="#m6c9e044493" x="259.850863" y="84.2238" style="stroke: #ffffff"/>
     <use xlink:href="#m6c9e044493" x="212.311562" y="264.790714" style="stroke: #ffffff"/>
     <use xlink:href="#m6c9e044493" x="223.098034" y="223.965556" style="stroke: #ffffff"/>
     <use xlink:href="#m6c9e044493" x="249.503787" y="124.023795" style="stroke: #ffffff"/>
     <use xlink:href="#m6c9e044493" x="212.522962" y="263.362521" style="stroke: #ffffff"/>
     <use xlink:href="#m6c9e044493" x="223.01177" y="223.942683" style="stroke: #ffffff"/>
     <use xlink:href="#m6c9e044493" x="249.591913" y="124.047161" style="stroke: #ffffff"/>
     <use xlink:href="#m6c9e044493" x="211.996632" y="264.706917" style="stroke: #ffffff"/>
     <use xlink:href="#m6c9e044493" x="224.905911" y="216.528831" style="stroke: #ffffff"/>
     <use xlink:href="#m6c9e044493" x="249.445361" y="124.946356" style="stroke: #ffffff"/>
     <use xlink:href="#m6c9e044493" x="212.213015" y="263.279471" style="stroke: #ffffff"/>
     <use xlink:href="#m6c9e044493" x="222.83936" y="223.896486" style="stroke: #ffffff"/>
     <use xlink:href="#m6c9e044493" x="250.003297" y="123.222459" style="stroke: #ffffff"/>
    </g>
   </g>
   <g id="patch_3">
    <path d="M 236.16 41.472 
C 218.687246 41.472 201.384393 44.913752 185.241673 51.600285 
C 169.098954 58.286818 154.430303 68.088097 142.0752 80.4432 
C 129.720097 92.798303 119.918818 107.466954 113.232285 123.609673 
C 106.545752 139.752393 103.104 157.055246 103.104 174.528 
C 103.104 192.000754 106.545752 209.303607 113.232285 225.446327 
C 119.918818 241.589046 129.720097 256.257697 142.0752 268.6128 
C 154.430303 280.967903 169.098954 290.769182 185.241673 297.455715 
C 201.384393 304.142248 218.687246 307.584 236.16 307.584 
C 253.632754 307.584 270.935607 304.142248 287.078327 297.455715 
C 303.221046 290.769182 317.889697 280.967903 330.2448 268.6128 
C 342.599903 256.257697 352.401182 241.589046 359.087715 225.446327 
C 365.774248 209.303607 369.216 192.000754 369.216 174.528 
C 369.216 157.055246 365.774248 139.752393 359.087715 123.609673 
C 352.401182 107.466954 342.599903 92.798303 330.2448 80.4432 
C 317.889697 68.088097 303.221046 58.286818 287.078327 51.600285 
C 270.935607 44.913752 253.632754 41.472 236.16 41.472 
" style="fill: none; stroke: #ffffff; stroke-width: 1.25; stroke-linejoin: miter; stroke-linecap: square"/>
   </g>
  </g>
 </g>
 <defs>
  <clipPath id="p7d8aaedaa4">
   <path d="M 369.216 174.528 
C 369.216 157.055246 365.774248 139.752393 359.087715 123.609673 
C 352.401182 107.466954 342.599903 92.798303 330.2448 80.4432 
C 317.889697 68.088097 303.221046 58.286818 287.078327 51.600285 
C 270.935607 44.913752 253.632754 41.472 236.16 41.472 
C 218.687246 41.472 201.384393 44.913752 185.241673 51.600285 
C 169.098954 58.286818 154.430303 68.088097 142.0752 80.4432 
C 129.720097 92.798303 119.918818 107.466954 113.232285 123.609673 
C 106.545752 139.752393 103.104 157.055246 103.104 174.528 
C 103.104 192.000754 106.545752 209.303607 113.232285 225.446327 
C 119.918818 241.589046 129.720097 256.257697 142.0752 268.6128 
C 154.430303 280.967903 169.098954 290.769182 185.241673 297.455715 
C 201.384393 304.142248 218.687246 307.584 236.16 307.584 
C 253.632754 307.584 270.935607 304.142248 287.078327 297.455715 
C 303.221046 290.769182 317.889697 280.967903 330.2448 268.6128 
C 342.599903 256.257697 352.401182 241.589046 359.087715 225.446327 
C 365.774248 209.303607 369.216 192.000754 369.216 174.528 
M 236.16 174.528 
C 236.16 174.528 236.16 174.528 236.16 174.528 
C 236.16 174.528 236.16 174.528 236.16 174.528 
C 236.16 174.528 236.16 174.528 236.16 174.528 
C 236.16 174.528 236.16 174.528 236.16 174.528 
C 236.16 174.528 236.16 174.528 236.16 174.528 
C 236.16 174.528 236.16 174.528 236.16 174.528 
C 236.16 174.528 236.16 174.528 236.16 174.528 
C 236.16 174.528 236.16 174.528 236.16 174.528 
C 236.16 174.528 236.16 174.528 236.16 174.528 
C 236.16 174.528 236.16 174.528 236.16 174.528 
C 236.16 174.528 236.16 174.528 236.16 174.528 
C 236.16 174.528 236.16 174.528 236.16 174.528 
C 236.16 174.528 236.16 174.528 236.16 174.528 
C 236.16 174.528 236.16 174.528 236.16 174.528 
C 236.16 174.528 236.16 174.528 236.16 174.528 
C 236.16 174.528 236.16 174.528 236.16 174.528 
z
"/>
  </clipPath>
 </defs>
</svg>
