<?xml version="1.0" encoding="utf-8" standalone="no"?>
<!DOCTYPE svg PUBLIC "-//W3C//DTD SVG 1.1//EN"
  "http://www.w3.org/Graphics/SVG/1.1/DTD/svg11.dtd">
<svg xmlns:xlink="http://www.w3.org/1999/xlink" width="460.8pt" height="345.6pt" viewBox="0 0 460.8 345.6" xmlns="http://www.w3.org/2000/svg" version="1.1">
 <metadata>
  <rdf:RDF xmlns:dc="http://purl.org/dc/elements/1.1/" xmlns:cc="http://creativecommons.org/ns#" xmlns:rdf="http://www.w3.org/1999/02/22-rdf-syntax-ns#">
   <cc:Work>
    <dc:type rdf:resource="http://purl.org/dc/dcmitype/StillImage"/>
    <dc:date>2024-07-24T14:55:30.511842</dc:date>
    <dc:format>image/svg+xml</dc:format>
    <dc:creator>
     <cc:Agent>
      <dc:title>Matplotlib v3.9.1, https://matplotlib.org/</dc:title>
     </cc:Agent>
    </dc:creator>
   </cc:Work>
  </rdf:RDF>
 </metadata>
 <defs>
  <style type="text/css">*{stroke-linejoin: round; stroke-linecap: butt}</style>
 </defs>
 <g id="figure_1">
  <g id="patch_1">
   <path d="M 0 345.6 
L 460.8 345.6 
L 460.8 0 
L 0 0 
z
" style="fill: #ffffff"/>
  </g>
  <g id="axes_1">
   <g id="patch_2">
    <path d="M 369.216 174.528 
C 369.216 157.055246 365.774248 139.752393 359.087715 123.609673 
C 352.401182 107.466954 342.599903 92.798303 330.2448 80.4432 
C 317.889697 68.088097 303.221046 58.286818 287.078327 51.600285 
C 270.935607 44.913752 253.632754 41.472 236.16 41.472 
C 218.687246 41.472 201.384393 44.913752 185.241673 51.600285 
C 169.098954 58.286818 154.430303 68.088097 142.0752 80.4432 
C 129.720097 92.798303 119.918818 107.466954 113.232285 123.609673 
C 106.545752 139.752393 103.104 157.055246 103.104 174.528 
C 103.104 192.000754 106.545752 209.303607 113.232285 225.446327 
C 119.918818 241.589046 129.720097 256.257697 142.0752 268.6128 
C 154.430303 280.967903 169.098954 290.769182 185.241673 297.455715 
C 201.384393 304.142248 218.687246 307.584 236.16 307.584 
C 253.632754 307.584 270.935607 304.142248 287.078327 297.455715 
C 303.221046 290.769182 317.889697 280.967903 330.2448 268.6128 
C 342.599903 256.257697 352.401182 241.589046 359.087715 225.446327 
C 365.774248 209.303607 369.216 192.000754 369.216 174.528 
M 236.16 174.528 
C 236.16 174.528 236.16 174.528 236.16 174.528 
C 236.16 174.528 236.16 174.528 236.16 174.528 
C 236.16 174.528 236.16 174.528 236.16 174.528 
C 236.16 174.528 236.16 174.528 236.16 174.528 
C 236.16 174.528 236.16 174.528 236.16 174.528 
C 236.16 174.528 236.16 174.528 236.16 174.528 
C 236.16 174.528 236.16 174.528 236.16 174.528 
C 236.16 174.528 236.16 174.528 236.16 174.528 
C 236.16 174.528 236.16 174.528 236.16 174.528 
C 236.16 174.528 236.16 174.528 236.16 174.528 
C 236.16 174.528 236.16 174.528 236.16 174.528 
C 236.16 174.528 236.16 174.528 236.16 174.528 
C 236.16 174.528 236.16 174.528 236.16 174.528 
C 236.16 174.528 236.16 174.528 236.16 174.528 
C 236.16 174.528 236.16 174.528 236.16 174.528 
C 236.16 174.528 236.16 174.528 236.16 174.528 
z
" style="fill: #eaeaf2"/>
   </g>
   <g id="matplotlib.axis_1">
    <g id="xtick_1">
     <g id="line2d_1">
      <path d="M 236.16 174.528 
L 236.16 41.472 
" clip-path="url(#p54551c5c87)" style="fill: none; stroke: #ffffff; stroke-linecap: round"/>
     </g>
     <g id="text_1">
      <!-- 0° -->
      <g style="fill: #262626" transform="translate(230.902344 27.815672) scale(0.11 -0.11)">
       <defs>
        <path id="ArialMT-30" d="M 266 2259 
Q 266 3072 433 3567 
Q 600 4063 929 4331 
Q 1259 4600 1759 4600 
Q 2128 4600 2406 4451 
Q 2684 4303 2865 4023 
Q 3047 3744 3150 3342 
Q 3253 2941 3253 2259 
Q 3253 1453 3087 958 
Q 2922 463 2592 192 
Q 2263 -78 1759 -78 
Q 1097 -78 719 397 
Q 266 969 266 2259 
z
M 844 2259 
Q 844 1131 1108 757 
Q 1372 384 1759 384 
Q 2147 384 2411 759 
Q 2675 1134 2675 2259 
Q 2675 3391 2411 3762 
Q 2147 4134 1753 4134 
Q 1366 4134 1134 3806 
Q 844 3388 844 2259 
z
" transform="scale(0.015625)"/>
        <path id="ArialMT-b0" d="M 400 3794 
Q 400 4153 654 4406 
Q 909 4659 1266 4659 
Q 1628 4659 1881 4406 
Q 2134 4153 2134 3794 
Q 2134 3434 1879 3179 
Q 1625 2925 1266 2925 
Q 909 2925 654 3178 
Q 400 3431 400 3794 
z
M 741 3794 
Q 741 3575 895 3420 
Q 1050 3266 1269 3266 
Q 1484 3266 1639 3420 
Q 1794 3575 1794 3794 
Q 1794 4013 1639 4167 
Q 1484 4322 1269 4322 
Q 1050 4322 895 4167 
Q 741 4013 741 3794 
z
" transform="scale(0.015625)"/>
       </defs>
       <use xlink:href="#ArialMT-30"/>
       <use xlink:href="#ArialMT-b0" x="55.615234"/>
      </g>
     </g>
    </g>
    <g id="xtick_2">
     <g id="line2d_2">
      <path d="M 236.16 174.528 
L 330.2448 80.4432 
" clip-path="url(#p54551c5c87)" style="fill: none; stroke: #ffffff; stroke-linecap: round"/>
     </g>
     <g id="text_2">
      <!-- 45° -->
      <g style="fill: #262626" transform="translate(333.59589 71.61961) scale(0.11 -0.11)">
       <defs>
        <path id="ArialMT-34" d="M 2069 0 
L 2069 1097 
L 81 1097 
L 81 1613 
L 2172 4581 
L 2631 4581 
L 2631 1613 
L 3250 1613 
L 3250 1097 
L 2631 1097 
L 2631 0 
L 2069 0 
z
M 2069 1613 
L 2069 3678 
L 634 1613 
L 2069 1613 
z
" transform="scale(0.015625)"/>
        <path id="ArialMT-35" d="M 266 1200 
L 856 1250 
Q 922 819 1161 601 
Q 1400 384 1738 384 
Q 2144 384 2425 690 
Q 2706 997 2706 1503 
Q 2706 1984 2436 2262 
Q 2166 2541 1728 2541 
Q 1456 2541 1237 2417 
Q 1019 2294 894 2097 
L 366 2166 
L 809 4519 
L 3088 4519 
L 3088 3981 
L 1259 3981 
L 1013 2750 
Q 1425 3038 1878 3038 
Q 2478 3038 2890 2622 
Q 3303 2206 3303 1553 
Q 3303 931 2941 478 
Q 2500 -78 1738 -78 
Q 1113 -78 717 272 
Q 322 622 266 1200 
z
" transform="scale(0.015625)"/>
       </defs>
       <use xlink:href="#ArialMT-34"/>
       <use xlink:href="#ArialMT-35" x="55.615234"/>
       <use xlink:href="#ArialMT-b0" x="111.230469"/>
      </g>
     </g>
    </g>
    <g id="xtick_3">
     <g id="line2d_3">
      <path d="M 236.16 174.528 
L 369.216 174.528 
" clip-path="url(#p54551c5c87)" style="fill: none; stroke: #ffffff; stroke-linecap: round"/>
     </g>
     <g id="text_3">
      <!-- 90° -->
      <g style="fill: #262626" transform="translate(377.399828 177.371672) scale(0.11 -0.11)">
       <defs>
        <path id="ArialMT-39" d="M 350 1059 
L 891 1109 
Q 959 728 1153 556 
Q 1347 384 1650 384 
Q 1909 384 2104 503 
Q 2300 622 2425 820 
Q 2550 1019 2634 1356 
Q 2719 1694 2719 2044 
Q 2719 2081 2716 2156 
Q 2547 1888 2255 1720 
Q 1963 1553 1622 1553 
Q 1053 1553 659 1965 
Q 266 2378 266 3053 
Q 266 3750 677 4175 
Q 1088 4600 1706 4600 
Q 2153 4600 2523 4359 
Q 2894 4119 3086 3673 
Q 3278 3228 3278 2384 
Q 3278 1506 3087 986 
Q 2897 466 2520 194 
Q 2144 -78 1638 -78 
Q 1100 -78 759 220 
Q 419 519 350 1059 
z
M 2653 3081 
Q 2653 3566 2395 3850 
Q 2138 4134 1775 4134 
Q 1400 4134 1122 3828 
Q 844 3522 844 3034 
Q 844 2597 1108 2323 
Q 1372 2050 1759 2050 
Q 2150 2050 2401 2323 
Q 2653 2597 2653 3081 
z
" transform="scale(0.015625)"/>
       </defs>
       <use xlink:href="#ArialMT-39"/>
       <use xlink:href="#ArialMT-30" x="55.615234"/>
       <use xlink:href="#ArialMT-b0" x="111.230469"/>
      </g>
     </g>
    </g>
    <g id="xtick_4">
     <g id="line2d_4">
      <path d="M 236.16 174.528 
L 330.2448 268.6128 
" clip-path="url(#p54551c5c87)" style="fill: none; stroke: #ffffff; stroke-linecap: round"/>
     </g>
     <g id="text_4">
      <!-- 135° -->
      <g style="fill: #262626" transform="translate(330.537374 283.123734) scale(0.11 -0.11)">
       <defs>
        <path id="ArialMT-31" d="M 2384 0 
L 1822 0 
L 1822 3584 
Q 1619 3391 1289 3197 
Q 959 3003 697 2906 
L 697 3450 
Q 1169 3672 1522 3987 
Q 1875 4303 2022 4600 
L 2384 4600 
L 2384 0 
z
" transform="scale(0.015625)"/>
        <path id="ArialMT-33" d="M 269 1209 
L 831 1284 
Q 928 806 1161 595 
Q 1394 384 1728 384 
Q 2125 384 2398 659 
Q 2672 934 2672 1341 
Q 2672 1728 2419 1979 
Q 2166 2231 1775 2231 
Q 1616 2231 1378 2169 
L 1441 2663 
Q 1497 2656 1531 2656 
Q 1891 2656 2178 2843 
Q 2466 3031 2466 3422 
Q 2466 3731 2256 3934 
Q 2047 4138 1716 4138 
Q 1388 4138 1169 3931 
Q 950 3725 888 3313 
L 325 3413 
Q 428 3978 793 4289 
Q 1159 4600 1703 4600 
Q 2078 4600 2393 4439 
Q 2709 4278 2876 4000 
Q 3044 3722 3044 3409 
Q 3044 3113 2884 2869 
Q 2725 2625 2413 2481 
Q 2819 2388 3044 2092 
Q 3269 1797 3269 1353 
Q 3269 753 2831 336 
Q 2394 -81 1725 -81 
Q 1122 -81 723 278 
Q 325 638 269 1209 
z
" transform="scale(0.015625)"/>
       </defs>
       <use xlink:href="#ArialMT-31"/>
       <use xlink:href="#ArialMT-33" x="55.615234"/>
       <use xlink:href="#ArialMT-35" x="111.230469"/>
       <use xlink:href="#ArialMT-b0" x="166.845703"/>
      </g>
     </g>
    </g>
    <g id="xtick_5">
     <g id="line2d_5">
      <path d="M 236.16 174.528 
L 236.16 307.584 
" clip-path="url(#p54551c5c87)" style="fill: none; stroke: #ffffff; stroke-linecap: round"/>
     </g>
     <g id="text_5">
      <!-- 180° -->
      <g style="fill: #262626" transform="translate(224.785313 326.927672) scale(0.11 -0.11)">
       <defs>
        <path id="ArialMT-38" d="M 1131 2484 
Q 781 2613 612 2850 
Q 444 3088 444 3419 
Q 444 3919 803 4259 
Q 1163 4600 1759 4600 
Q 2359 4600 2725 4251 
Q 3091 3903 3091 3403 
Q 3091 3084 2923 2848 
Q 2756 2613 2416 2484 
Q 2838 2347 3058 2040 
Q 3278 1734 3278 1309 
Q 3278 722 2862 322 
Q 2447 -78 1769 -78 
Q 1091 -78 675 323 
Q 259 725 259 1325 
Q 259 1772 486 2073 
Q 713 2375 1131 2484 
z
M 1019 3438 
Q 1019 3113 1228 2906 
Q 1438 2700 1772 2700 
Q 2097 2700 2305 2904 
Q 2513 3109 2513 3406 
Q 2513 3716 2298 3927 
Q 2084 4138 1766 4138 
Q 1444 4138 1231 3931 
Q 1019 3725 1019 3438 
z
M 838 1322 
Q 838 1081 952 856 
Q 1066 631 1291 507 
Q 1516 384 1775 384 
Q 2178 384 2440 643 
Q 2703 903 2703 1303 
Q 2703 1709 2433 1975 
Q 2163 2241 1756 2241 
Q 1359 2241 1098 1978 
Q 838 1716 838 1322 
z
" transform="scale(0.015625)"/>
       </defs>
       <use xlink:href="#ArialMT-31"/>
       <use xlink:href="#ArialMT-38" x="55.615234"/>
       <use xlink:href="#ArialMT-30" x="111.230469"/>
       <use xlink:href="#ArialMT-b0" x="166.845703"/>
      </g>
     </g>
    </g>
    <g id="xtick_6">
     <g id="line2d_6">
      <path d="M 236.16 174.528 
L 142.0752 268.6128 
" clip-path="url(#p54551c5c87)" style="fill: none; stroke: #ffffff; stroke-linecap: round"/>
     </g>
     <g id="text_6">
      <!-- 225° -->
      <g style="fill: #262626" transform="translate(119.033251 283.123734) scale(0.11 -0.11)">
       <defs>
        <path id="ArialMT-32" d="M 3222 541 
L 3222 0 
L 194 0 
Q 188 203 259 391 
Q 375 700 629 1000 
Q 884 1300 1366 1694 
Q 2113 2306 2375 2664 
Q 2638 3022 2638 3341 
Q 2638 3675 2398 3904 
Q 2159 4134 1775 4134 
Q 1369 4134 1125 3890 
Q 881 3647 878 3216 
L 300 3275 
Q 359 3922 746 4261 
Q 1134 4600 1788 4600 
Q 2447 4600 2831 4234 
Q 3216 3869 3216 3328 
Q 3216 3053 3103 2787 
Q 2991 2522 2730 2228 
Q 2469 1934 1863 1422 
Q 1356 997 1212 845 
Q 1069 694 975 541 
L 3222 541 
z
" transform="scale(0.015625)"/>
       </defs>
       <use xlink:href="#ArialMT-32"/>
       <use xlink:href="#ArialMT-32" x="55.615234"/>
       <use xlink:href="#ArialMT-35" x="111.230469"/>
       <use xlink:href="#ArialMT-b0" x="166.845703"/>
      </g>
     </g>
    </g>
    <g id="xtick_7">
     <g id="line2d_7">
      <path d="M 236.16 174.528 
L 103.104 174.528 
" clip-path="url(#p54551c5c87)" style="fill: none; stroke: #ffffff; stroke-linecap: round"/>
     </g>
     <g id="text_7">
      <!-- 270° -->
      <g style="fill: #262626" transform="translate(75.229313 177.371672) scale(0.11 -0.11)">
       <defs>
        <path id="ArialMT-37" d="M 303 3981 
L 303 4522 
L 3269 4522 
L 3269 4084 
Q 2831 3619 2401 2847 
Q 1972 2075 1738 1259 
Q 1569 684 1522 0 
L 944 0 
Q 953 541 1156 1306 
Q 1359 2072 1739 2783 
Q 2119 3494 2547 3981 
L 303 3981 
z
" transform="scale(0.015625)"/>
       </defs>
       <use xlink:href="#ArialMT-32"/>
       <use xlink:href="#ArialMT-37" x="55.615234"/>
       <use xlink:href="#ArialMT-30" x="111.230469"/>
       <use xlink:href="#ArialMT-b0" x="166.845703"/>
      </g>
     </g>
    </g>
    <g id="xtick_8">
     <g id="line2d_8">
      <path d="M 236.16 174.528 
L 142.0752 80.4432 
" clip-path="url(#p54551c5c87)" style="fill: none; stroke: #ffffff; stroke-linecap: round"/>
     </g>
     <g id="text_8">
      <!-- 315° -->
      <g style="fill: #262626" transform="translate(119.033251 71.61961) scale(0.11 -0.11)">
       <use xlink:href="#ArialMT-33"/>
       <use xlink:href="#ArialMT-31" x="55.615234"/>
       <use xlink:href="#ArialMT-35" x="111.230469"/>
       <use xlink:href="#ArialMT-b0" x="166.845703"/>
      </g>
     </g>
    </g>
   </g>
   <g id="matplotlib.axis_2">
    <g id="ytick_1">
     <g id="line2d_9">
      <path d="M 236.16 174.528 
C 236.16 174.528 236.16 174.528 236.16 174.528 
C 236.16 174.528 236.16 174.528 236.16 174.528 
C 236.16 174.528 236.16 174.528 236.16 174.528 
C 236.16 174.528 236.16 174.528 236.16 174.528 
C 236.16 174.528 236.16 174.528 236.16 174.528 
C 236.16 174.528 236.16 174.528 236.16 174.528 
C 236.16 174.528 236.16 174.528 236.16 174.528 
C 236.16 174.528 236.16 174.528 236.16 174.528 
C 236.16 174.528 236.16 174.528 236.16 174.528 
C 236.16 174.528 236.16 174.528 236.16 174.528 
C 236.16 174.528 236.16 174.528 236.16 174.528 
C 236.16 174.528 236.16 174.528 236.16 174.528 
C 236.16 174.528 236.16 174.528 236.16 174.528 
C 236.16 174.528 236.16 174.528 236.16 174.528 
C 236.16 174.528 236.16 174.528 236.16 174.528 
C 236.16 174.528 236.16 174.528 236.16 174.528 
" clip-path="url(#p54551c5c87)" style="fill: none; stroke: #ffffff; stroke-linecap: round"/>
     </g>
     <g id="text_9">
      <!-- 0.0 -->
      <g style="fill: #dc143c" transform="translate(236.16 172.34175) scale(0.11 -0.11)">
       <defs>
        <path id="ArialMT-2e" d="M 581 0 
L 581 641 
L 1222 641 
L 1222 0 
L 581 0 
z
" transform="scale(0.015625)"/>
       </defs>
       <use xlink:href="#ArialMT-30"/>
       <use xlink:href="#ArialMT-2e" x="55.615234"/>
       <use xlink:href="#ArialMT-30" x="83.398438"/>
      </g>
     </g>
    </g>
    <g id="ytick_2">
     <g id="line2d_10">
      <path d="M 236.16 161.2224 
C 237.907275 161.2224 239.637561 161.566575 241.251833 162.235228 
C 242.866105 162.903882 244.33297 163.88401 245.56848 165.11952 
C 246.80399 166.35503 247.784118 167.821895 248.452772 169.436167 
C 249.121425 171.050439 249.4656 172.780725 249.4656 174.528 
C 249.4656 176.275275 249.121425 178.005561 248.452772 179.619833 
C 247.784118 181.234105 246.80399 182.70097 245.56848 183.93648 
C 244.33297 185.17199 242.866105 186.152118 241.251833 186.820772 
C 239.637561 187.489425 237.907275 187.8336 236.16 187.8336 
C 234.412725 187.8336 232.682439 187.489425 231.068167 186.820772 
C 229.453895 186.152118 227.98703 185.17199 226.75152 183.93648 
C 225.51601 182.70097 224.535882 181.234105 223.867228 179.619833 
C 223.198575 178.005561 222.8544 176.275275 222.8544 174.528 
C 222.8544 172.780725 223.198575 171.050439 223.867228 169.436167 
C 224.535882 167.821895 225.51601 166.35503 226.75152 165.11952 
C 227.98703 163.88401 229.453895 162.903882 231.068167 162.235228 
C 232.682439 161.566575 234.412725 161.2224 236.16 161.2224 
" clip-path="url(#p54551c5c87)" style="fill: none; stroke: #ffffff; stroke-linecap: round"/>
     </g>
     <g id="text_10">
      <!-- 0.1 -->
      <g style="fill: #dc143c" transform="translate(241.251833 160.048978) scale(0.11 -0.11)">
       <use xlink:href="#ArialMT-30"/>
       <use xlink:href="#ArialMT-2e" x="55.615234"/>
       <use xlink:href="#ArialMT-31" x="83.398438"/>
      </g>
     </g>
    </g>
    <g id="ytick_3">
     <g id="line2d_11">
      <path d="M 236.16 147.9168 
C 239.654551 147.9168 243.115121 148.60515 246.343665 149.942457 
C 249.572209 151.279764 252.505939 153.240019 254.97696 155.71104 
C 257.447981 158.182061 259.408236 161.115791 260.745543 164.344335 
C 262.08285 167.572879 262.7712 171.033449 262.7712 174.528 
C 262.7712 178.022551 262.08285 181.483121 260.745543 184.711665 
C 259.408236 187.940209 257.447981 190.873939 254.97696 193.34496 
C 252.505939 195.815981 249.572209 197.776236 246.343665 199.113543 
C 243.115121 200.45085 239.654551 201.1392 236.16 201.1392 
C 232.665449 201.1392 229.204879 200.45085 225.976335 199.113543 
C 222.747791 197.776236 219.814061 195.815981 217.34304 193.34496 
C 214.872019 190.873939 212.911764 187.940209 211.574457 184.711665 
C 210.23715 181.483121 209.5488 178.022551 209.5488 174.528 
C 209.5488 171.033449 210.23715 167.572879 211.574457 164.344335 
C 212.911764 161.115791 214.872019 158.182061 217.34304 155.71104 
C 219.814061 153.240019 222.747791 151.279764 225.976335 149.942457 
C 229.204879 148.60515 232.665449 147.9168 236.16 147.9168 
" clip-path="url(#p54551c5c87)" style="fill: none; stroke: #ffffff; stroke-linecap: round"/>
     </g>
     <g id="text_11">
      <!-- 0.2 -->
      <g style="fill: #dc143c" transform="translate(246.343665 147.756207) scale(0.11 -0.11)">
       <use xlink:href="#ArialMT-30"/>
       <use xlink:href="#ArialMT-2e" x="55.615234"/>
       <use xlink:href="#ArialMT-32" x="83.398438"/>
      </g>
     </g>
    </g>
    <g id="ytick_4">
     <g id="line2d_12">
      <path d="M 236.16 134.6112 
C 241.401826 134.6112 246.592682 135.643725 251.435498 137.649685 
C 256.278314 139.655645 260.678909 142.596029 264.38544 146.30256 
C 268.091971 150.009091 271.032355 154.409686 273.038315 159.252502 
C 275.044275 164.095318 276.0768 169.286174 276.0768 174.528 
C 276.0768 179.769826 275.044275 184.960682 273.038315 189.803498 
C 271.032355 194.646314 268.091971 199.046909 264.38544 202.75344 
C 260.678909 206.459971 256.278314 209.400355 251.435498 211.406315 
C 246.592682 213.412275 241.401826 214.4448 236.16 214.4448 
C 230.918174 214.4448 225.727318 213.412275 220.884502 211.406315 
C 216.041686 209.400355 211.641091 206.459971 207.93456 202.75344 
C 204.228029 199.046909 201.287645 194.646314 199.281685 189.803498 
C 197.275725 184.960682 196.2432 179.769826 196.2432 174.528 
C 196.2432 169.286174 197.275725 164.095318 199.281685 159.252502 
C 201.287645 154.409686 204.228029 150.009091 207.93456 146.30256 
C 211.641091 142.596029 216.041686 139.655645 220.884502 137.649685 
C 225.727318 135.643725 230.918174 134.6112 236.16 134.6112 
" clip-path="url(#p54551c5c87)" style="fill: none; stroke: #ffffff; stroke-linecap: round"/>
     </g>
     <g id="text_12">
      <!-- 0.3 -->
      <g style="fill: #dc143c" transform="translate(251.435498 135.463435) scale(0.11 -0.11)">
       <use xlink:href="#ArialMT-30"/>
       <use xlink:href="#ArialMT-2e" x="55.615234"/>
       <use xlink:href="#ArialMT-33" x="83.398438"/>
      </g>
     </g>
    </g>
    <g id="ytick_5">
     <g id="line2d_13">
      <path d="M 236.16 121.3056 
C 243.149102 121.3056 250.070243 122.682301 256.527331 125.356914 
C 262.984419 128.031527 268.851879 131.952039 273.79392 136.89408 
C 278.735961 141.836121 282.656473 147.703581 285.331086 154.160669 
C 288.005699 160.617757 289.3824 167.538898 289.3824 174.528 
C 289.3824 181.517102 288.005699 188.438243 285.331086 194.895331 
C 282.656473 201.352419 278.735961 207.219879 273.79392 212.16192 
C 268.851879 217.103961 262.984419 221.024473 256.527331 223.699086 
C 250.070243 226.373699 243.149102 227.7504 236.16 227.7504 
C 229.170898 227.7504 222.249757 226.373699 215.792669 223.699086 
C 209.335581 221.024473 203.468121 217.103961 198.52608 212.16192 
C 193.584039 207.219879 189.663527 201.352419 186.988914 194.895331 
C 184.314301 188.438243 182.9376 181.517102 182.9376 174.528 
C 182.9376 167.538898 184.314301 160.617757 186.988914 154.160669 
C 189.663527 147.703581 193.584039 141.836121 198.52608 136.89408 
C 203.468121 131.952039 209.335581 128.031527 215.792669 125.356914 
C 222.249757 122.682301 229.170898 121.3056 236.16 121.3056 
" clip-path="url(#p54551c5c87)" style="fill: none; stroke: #ffffff; stroke-linecap: round"/>
     </g>
     <g id="text_13">
      <!-- 0.4 -->
      <g style="fill: #dc143c" transform="translate(256.527331 123.170664) scale(0.11 -0.11)">
       <use xlink:href="#ArialMT-30"/>
       <use xlink:href="#ArialMT-2e" x="55.615234"/>
       <use xlink:href="#ArialMT-34" x="83.398438"/>
      </g>
     </g>
    </g>
    <g id="ytick_6">
     <g id="line2d_14">
      <path d="M 236.16 108 
C 244.896377 108 253.547804 109.720876 261.619163 113.064142 
C 269.690523 116.407409 277.024849 121.308049 283.2024 127.4856 
C 289.379951 133.663151 294.280591 140.997477 297.623858 149.068837 
C 300.967124 157.140196 302.688 165.791623 302.688 174.528 
C 302.688 183.264377 300.967124 191.915804 297.623858 199.987163 
C 294.280591 208.058523 289.379951 215.392849 283.2024 221.5704 
C 277.024849 227.747951 269.690523 232.648591 261.619163 235.991858 
C 253.547804 239.335124 244.896377 241.056 236.16 241.056 
C 227.423623 241.056 218.772196 239.335124 210.700837 235.991858 
C 202.629477 232.648591 195.295151 227.747951 189.1176 221.5704 
C 182.940049 215.392849 178.039409 208.058523 174.696142 199.987163 
C 171.352876 191.915804 169.632 183.264377 169.632 174.528 
C 169.632 165.791623 171.352876 157.140196 174.696142 149.068837 
C 178.039409 140.997477 182.940049 133.663151 189.1176 127.4856 
C 195.295151 121.308049 202.629477 116.407409 210.700837 113.064142 
C 218.772196 109.720876 227.423623 108 236.16 108 
" clip-path="url(#p54551c5c87)" style="fill: none; stroke: #ffffff; stroke-linecap: round"/>
     </g>
     <g id="text_14">
      <!-- 0.5 -->
      <g style="fill: #dc143c" transform="translate(261.619163 110.877892) scale(0.11 -0.11)">
       <use xlink:href="#ArialMT-30"/>
       <use xlink:href="#ArialMT-2e" x="55.615234"/>
       <use xlink:href="#ArialMT-35" x="83.398438"/>
      </g>
     </g>
    </g>
    <g id="ytick_7">
     <g id="line2d_15">
      <path d="M 236.16 94.6944 
C 246.643652 94.6944 257.025364 96.759451 266.710996 100.771371 
C 276.396628 104.783291 285.197818 110.664058 292.61088 118.07712 
C 300.023942 125.490182 305.904709 134.291372 309.916629 143.977004 
C 313.928549 153.662636 315.9936 164.044348 315.9936 174.528 
C 315.9936 185.011652 313.928549 195.393364 309.916629 205.078996 
C 305.904709 214.764628 300.023942 223.565818 292.61088 230.97888 
C 285.197818 238.391942 276.396628 244.272709 266.710996 248.284629 
C 257.025364 252.296549 246.643652 254.3616 236.16 254.3616 
C 225.676348 254.3616 215.294636 252.296549 205.609004 248.284629 
C 195.923372 244.272709 187.122182 238.391942 179.70912 230.97888 
C 172.296058 223.565818 166.415291 214.764628 162.403371 205.078996 
C 158.391451 195.393364 156.3264 185.011652 156.3264 174.528 
C 156.3264 164.044348 158.391451 153.662636 162.403371 143.977004 
C 166.415291 134.291372 172.296058 125.490182 179.70912 118.07712 
C 187.122182 110.664058 195.923372 104.783291 205.609004 100.771371 
C 215.294636 96.759451 225.676348 94.6944 236.16 94.6944 
" clip-path="url(#p54551c5c87)" style="fill: none; stroke: #ffffff; stroke-linecap: round"/>
     </g>
     <g id="text_15">
      <!-- 0.6 -->
      <g style="fill: #dc143c" transform="translate(266.710996 98.585121) scale(0.11 -0.11)">
       <defs>
        <path id="ArialMT-36" d="M 3184 3459 
L 2625 3416 
Q 2550 3747 2413 3897 
Q 2184 4138 1850 4138 
Q 1581 4138 1378 3988 
Q 1113 3794 959 3422 
Q 806 3050 800 2363 
Q 1003 2672 1297 2822 
Q 1591 2972 1913 2972 
Q 2475 2972 2870 2558 
Q 3266 2144 3266 1488 
Q 3266 1056 3080 686 
Q 2894 316 2569 119 
Q 2244 -78 1831 -78 
Q 1128 -78 684 439 
Q 241 956 241 2144 
Q 241 3472 731 4075 
Q 1159 4600 1884 4600 
Q 2425 4600 2770 4297 
Q 3116 3994 3184 3459 
z
M 888 1484 
Q 888 1194 1011 928 
Q 1134 663 1356 523 
Q 1578 384 1822 384 
Q 2178 384 2434 671 
Q 2691 959 2691 1453 
Q 2691 1928 2437 2201 
Q 2184 2475 1800 2475 
Q 1419 2475 1153 2201 
Q 888 1928 888 1484 
z
" transform="scale(0.015625)"/>
       </defs>
       <use xlink:href="#ArialMT-30"/>
       <use xlink:href="#ArialMT-2e" x="55.615234"/>
       <use xlink:href="#ArialMT-36" x="83.398438"/>
      </g>
     </g>
    </g>
    <g id="ytick_8">
     <g id="line2d_16">
      <path d="M 236.16 81.3888 
C 248.390928 81.3888 260.502925 83.798026 271.802829 88.478599 
C 283.102732 93.159173 293.370788 100.020068 302.01936 108.66864 
C 310.667932 117.317212 317.528827 127.585268 322.209401 138.885171 
C 326.889974 150.185075 329.2992 162.297072 329.2992 174.528 
C 329.2992 186.758928 326.889974 198.870925 322.209401 210.170829 
C 317.528827 221.470732 310.667932 231.738788 302.01936 240.38736 
C 293.370788 249.035932 283.102732 255.896827 271.802829 260.577401 
C 260.502925 265.257974 248.390928 267.6672 236.16 267.6672 
C 223.929072 267.6672 211.817075 265.257974 200.517171 260.577401 
C 189.217268 255.896827 178.949212 249.035932 170.30064 240.38736 
C 161.652068 231.738788 154.791173 221.470732 150.110599 210.170829 
C 145.430026 198.870925 143.0208 186.758928 143.0208 174.528 
C 143.0208 162.297072 145.430026 150.185075 150.110599 138.885171 
C 154.791173 127.585268 161.652068 117.317212 170.30064 108.66864 
C 178.949212 100.020068 189.217268 93.159173 200.517171 88.478599 
C 211.817075 83.798026 223.929072 81.3888 236.16 81.3888 
" clip-path="url(#p54551c5c87)" style="fill: none; stroke: #ffffff; stroke-linecap: round"/>
     </g>
     <g id="text_16">
      <!-- 0.7 -->
      <g style="fill: #dc143c" transform="translate(271.802829 86.292349) scale(0.11 -0.11)">
       <use xlink:href="#ArialMT-30"/>
       <use xlink:href="#ArialMT-2e" x="55.615234"/>
       <use xlink:href="#ArialMT-37" x="83.398438"/>
      </g>
     </g>
    </g>
    <g id="ytick_9">
     <g id="line2d_17">
      <path d="M 236.16 68.0832 
C 250.138203 68.0832 263.980486 70.836601 276.894661 76.185828 
C 289.808837 81.535055 301.543758 89.376078 311.42784 99.26016 
C 321.311922 109.144242 329.152945 120.879163 334.502172 133.793339 
C 339.851399 146.707514 342.6048 160.549797 342.6048 174.528 
C 342.6048 188.506203 339.851399 202.348486 334.502172 215.262661 
C 329.152945 228.176837 321.311922 239.911758 311.42784 249.79584 
C 301.543758 259.679922 289.808837 267.520945 276.894661 272.870172 
C 263.980486 278.219399 250.138203 280.9728 236.16 280.9728 
C 222.181797 280.9728 208.339514 278.219399 195.425339 272.870172 
C 182.511163 267.520945 170.776242 259.679922 160.89216 249.79584 
C 151.008078 239.911758 143.167055 228.176837 137.817828 215.262661 
C 132.468601 202.348486 129.7152 188.506203 129.7152 174.528 
C 129.7152 160.549797 132.468601 146.707514 137.817828 133.793339 
C 143.167055 120.879163 151.008078 109.144242 160.89216 99.26016 
C 170.776242 89.376078 182.511163 81.535055 195.425339 76.185828 
C 208.339514 70.836601 222.181797 68.0832 236.16 68.0832 
" clip-path="url(#p54551c5c87)" style="fill: none; stroke: #ffffff; stroke-linecap: round"/>
     </g>
     <g id="text_17">
      <!-- 0.8 -->
      <g style="fill: #dc143c" transform="translate(276.894661 73.999578) scale(0.11 -0.11)">
       <use xlink:href="#ArialMT-30"/>
       <use xlink:href="#ArialMT-2e" x="55.615234"/>
       <use xlink:href="#ArialMT-38" x="83.398438"/>
      </g>
     </g>
    </g>
    <g id="ytick_10">
     <g id="line2d_18">
      <path d="M 236.16 54.7776 
C 251.885478 54.7776 267.458046 57.875176 281.986494 63.893056 
C 296.514942 69.910936 309.716727 78.732088 320.83632 89.85168 
C 331.955912 100.971273 340.777064 114.173058 346.794944 128.701506 
C 352.812824 143.229954 355.9104 158.802522 355.9104 174.528 
C 355.9104 190.253478 352.812824 205.826046 346.794944 220.354494 
C 340.777064 234.882942 331.955912 248.084727 320.83632 259.20432 
C 309.716727 270.323912 296.514942 279.145064 281.986494 285.162944 
C 267.458046 291.180824 251.885478 294.2784 236.16 294.2784 
C 220.434522 294.2784 204.861954 291.180824 190.333506 285.162944 
C 175.805058 279.145064 162.603273 270.323912 151.48368 259.20432 
C 140.364088 248.084727 131.542936 234.882942 125.525056 220.354494 
C 119.507176 205.826046 116.4096 190.253478 116.4096 174.528 
C 116.4096 158.802522 119.507176 143.229954 125.525056 128.701506 
C 131.542936 114.173058 140.364088 100.971273 151.48368 89.85168 
C 162.603273 78.732088 175.805058 69.910936 190.333506 63.893056 
C 204.861954 57.875176 220.434522 54.7776 236.16 54.7776 
" clip-path="url(#p54551c5c87)" style="fill: none; stroke: #ffffff; stroke-linecap: round"/>
     </g>
     <g id="text_18">
      <!-- 0.9 -->
      <g style="fill: #dc143c" transform="translate(281.986494 61.706806) scale(0.11 -0.11)">
       <use xlink:href="#ArialMT-30"/>
       <use xlink:href="#ArialMT-2e" x="55.615234"/>
       <use xlink:href="#ArialMT-39" x="83.398438"/>
      </g>
     </g>
    </g>
   </g>
   <g id="line2d_19">
    <defs>
     <path id="m7fe4a0f395" d="M 0 1.5 
C 0.397805 1.5 0.77937 1.341951 1.06066 1.06066 
C 1.341951 0.77937 1.5 0.397805 1.5 0 
C 1.5 -0.397805 1.341951 -0.77937 1.06066 -1.06066 
C 0.77937 -1.341951 0.397805 -1.5 0 -1.5 
C -0.397805 -1.5 -0.77937 -1.341951 -1.06066 -1.06066 
C -1.341951 -0.77937 -1.5 -0.397805 -1.5 0 
C -1.5 0.397805 -1.341951 0.77937 -1.06066 1.06066 
C -0.77937 1.341951 -0.397805 1.5 0 1.5 
z
" style="stroke: #ffffff"/>
    </defs>
    <g clip-path="url(#p54551c5c87)">
     <use xlink:href="#m7fe4a0f395" x="237.731501" y="84.496776" style="stroke: #ffffff"/>
     <use xlink:href="#m7fe4a0f395" x="239.264701" y="85.620982" style="stroke: #ffffff"/>
     <use xlink:href="#m7fe4a0f395" x="240.929518" y="83.520178" style="stroke: #ffffff"/>
     <use xlink:href="#m7fe4a0f395" x="242.517097" y="83.617279" style="stroke: #ffffff"/>
     <use xlink:href="#m7fe4a0f395" x="239.434846" y="127.695518" style="stroke: #ffffff"/>
     <use xlink:href="#m7fe4a0f395" x="244.10274" y="83.742072" style="stroke: #ffffff"/>
     <use xlink:href="#m7fe4a0f395" x="240.171448" y="128.67694" style="stroke: #ffffff"/>
     <use xlink:href="#m7fe4a0f395" x="246.610978" y="75.093588" style="stroke: #ffffff"/>
     <use xlink:href="#m7fe4a0f395" x="248.344756" y="75.291127" style="stroke: #ffffff"/>
     <use xlink:href="#m7fe4a0f395" x="250.074822" y="75.518894" style="stroke: #ffffff"/>
     <use xlink:href="#m7fe4a0f395" x="251.103333" y="80.17951" style="stroke: #ffffff"/>
     <use xlink:href="#m7fe4a0f395" x="244.37994" y="122.629341" style="stroke: #ffffff"/>
     <use xlink:href="#m7fe4a0f395" x="252.747665" y="80.454677" style="stroke: #ffffff"/>
     <use xlink:href="#m7fe4a0f395" x="245.284445" y="122.780703" style="stroke: #ffffff"/>
     <use xlink:href="#m7fe4a0f395" x="254.81064" y="78.578775" style="stroke: #ffffff"/>
     <use xlink:href="#m7fe4a0f395" x="246.729603" y="120.152104" style="stroke: #ffffff"/>
     <use xlink:href="#m7fe4a0f395" x="256.482344" y="78.918887" style="stroke: #ffffff"/>
     <use xlink:href="#m7fe4a0f395" x="247.676984" y="120.344851" style="stroke: #ffffff"/>
     <use xlink:href="#m7fe4a0f395" x="258.147858" y="79.288123" style="stroke: #ffffff"/>
     <use xlink:href="#m7fe4a0f395" x="248.620856" y="120.554103" style="stroke: #ffffff"/>
     <use xlink:href="#m7fe4a0f395" x="259.806674" y="79.686369" style="stroke: #ffffff"/>
     <use xlink:href="#m7fe4a0f395" x="249.100717" y="122.625621" style="stroke: #ffffff"/>
     <use xlink:href="#m7fe4a0f395" x="261.747247" y="79.035095" style="stroke: #ffffff"/>
     <use xlink:href="#m7fe4a0f395" x="250.496927" y="121.02186" style="stroke: #ffffff"/>
     <use xlink:href="#m7fe4a0f395" x="262.490136" y="82.703903" style="stroke: #ffffff"/>
     <use xlink:href="#m7fe4a0f395" x="250.643525" y="124.017944" style="stroke: #ffffff"/>
     <use xlink:href="#m7fe4a0f395" x="264.088677" y="83.177413" style="stroke: #ffffff"/>
     <use xlink:href="#m7fe4a0f395" x="251.522842" y="124.278409" style="stroke: #ffffff"/>
     <use xlink:href="#m7fe4a0f395" x="267.056176" y="79.439349" style="stroke: #ffffff"/>
     <use xlink:href="#m7fe4a0f395" x="268.710996" y="79.993044" style="stroke: #ffffff"/>
     <use xlink:href="#m7fe4a0f395" x="267.329225" y="88.891259" style="stroke: #ffffff"/>
     <use xlink:href="#m7fe4a0f395" x="252.216766" y="130.412399" style="stroke: #ffffff"/>
     <use xlink:href="#m7fe4a0f395" x="268.819045" y="89.44828" style="stroke: #ffffff"/>
     <use xlink:href="#m7fe4a0f395" x="252.984244" y="130.699347" style="stroke: #ffffff"/>
     <use xlink:href="#m7fe4a0f395" x="270.298916" y="90.031217" style="stroke: #ffffff"/>
     <use xlink:href="#m7fe4a0f395" x="271.34336" y="91.641197" style="stroke: #ffffff"/>
     <use xlink:href="#m7fe4a0f395" x="253.78553" y="133.004854" style="stroke: #ffffff"/>
     <use xlink:href="#m7fe4a0f395" x="272.784576" y="92.267855" style="stroke: #ffffff"/>
     <use xlink:href="#m7fe4a0f395" x="274.214635" y="92.919571" style="stroke: #ffffff"/>
     <use xlink:href="#m7fe4a0f395" x="255.611514" y="132.814094" style="stroke: #ffffff"/>
     <use xlink:href="#m7fe4a0f395" x="275.633103" y="93.596145" style="stroke: #ffffff"/>
     <use xlink:href="#m7fe4a0f395" x="277.533387" y="93.328156" style="stroke: #ffffff"/>
     <use xlink:href="#m7fe4a0f395" x="278.944219" y="94.062588" style="stroke: #ffffff"/>
     <use xlink:href="#m7fe4a0f395" x="280.342017" y="94.821531" style="stroke: #ffffff"/>
     <use xlink:href="#m7fe4a0f395" x="281.726358" y="95.604753" style="stroke: #ffffff"/>
     <use xlink:href="#m7fe4a0f395" x="285.358783" y="92.647474" style="stroke: #ffffff"/>
     <use xlink:href="#m7fe4a0f395" x="263.222976" y="129.487645" style="stroke: #ffffff"/>
     <use xlink:href="#m7fe4a0f395" x="286.780302" y="93.518582" style="stroke: #ffffff"/>
     <use xlink:href="#m7fe4a0f395" x="264.004916" y="129.966819" style="stroke: #ffffff"/>
     <use xlink:href="#m7fe4a0f395" x="287.58507" y="95.340337" style="stroke: #ffffff"/>
     <use xlink:href="#m7fe4a0f395" x="264.265271" y="131.249677" style="stroke: #ffffff"/>
     <use xlink:href="#m7fe4a0f395" x="290.818354" y="93.493658" style="stroke: #ffffff"/>
     <use xlink:href="#m7fe4a0f395" x="266.602823" y="129.394659" style="stroke: #ffffff"/>
     <use xlink:href="#m7fe4a0f395" x="292.224273" y="94.45992" style="stroke: #ffffff"/>
     <use xlink:href="#m7fe4a0f395" x="267.932482" y="129.152193" style="stroke: #ffffff"/>
     <use xlink:href="#m7fe4a0f395" x="293.613115" y="95.450571" style="stroke: #ffffff"/>
     <use xlink:href="#m7fe4a0f395" x="268.71956" y="129.71361" style="stroke: #ffffff"/>
     <use xlink:href="#m7fe4a0f395" x="294.984456" y="96.46531" style="stroke: #ffffff"/>
     <use xlink:href="#m7fe4a0f395" x="268.351868" y="131.807949" style="stroke: #ffffff"/>
     <use xlink:href="#m7fe4a0f395" x="296.337879" y="97.503828" style="stroke: #ffffff"/>
     <use xlink:href="#m7fe4a0f395" x="269.092532" y="132.376281" style="stroke: #ffffff"/>
     <use xlink:href="#m7fe4a0f395" x="297.67297" y="98.565808" style="stroke: #ffffff"/>
     <use xlink:href="#m7fe4a0f395" x="269.823165" y="132.957453" style="stroke: #ffffff"/>
     <use xlink:href="#m7fe4a0f395" x="297.562001" y="101.351945" style="stroke: #ffffff"/>
     <use xlink:href="#m7fe4a0f395" x="301.754176" y="99.070533" style="stroke: #ffffff"/>
     <use xlink:href="#m7fe4a0f395" x="273.759121" y="131.275159" style="stroke: #ffffff"/>
     <use xlink:href="#m7fe4a0f395" x="303.0611" y="100.226801" style="stroke: #ffffff"/>
     <use xlink:href="#m7fe4a0f395" x="274.508261" y="131.937942" style="stroke: #ffffff"/>
     <use xlink:href="#m7fe4a0f395" x="298.312363" y="107.877751" style="stroke: #ffffff"/>
     <use xlink:href="#m7fe4a0f395" x="268.807963" y="139.517346" style="stroke: #ffffff"/>
     <use xlink:href="#m7fe4a0f395" x="299.466104" y="108.97261" style="stroke: #ffffff"/>
     <use xlink:href="#m7fe4a0f395" x="268.772017" y="140.757268" style="stroke: #ffffff"/>
     <use xlink:href="#m7fe4a0f395" x="299.831387" y="110.856613" style="stroke: #ffffff"/>
     <use xlink:href="#m7fe4a0f395" x="268.056951" y="142.631049" style="stroke: #ffffff"/>
     <use xlink:href="#m7fe4a0f395" x="300.932908" y="111.97753" style="stroke: #ffffff"/>
     <use xlink:href="#m7fe4a0f395" x="268.608771" y="143.192586" style="stroke: #ffffff"/>
     <use xlink:href="#m7fe4a0f395" x="301.222111" y="113.8566" style="stroke: #ffffff"/>
     <use xlink:href="#m7fe4a0f395" x="303.07643" y="114.276176" style="stroke: #ffffff"/>
     <use xlink:href="#m7fe4a0f395" x="304.938734" y="114.739559" style="stroke: #ffffff"/>
     <use xlink:href="#m7fe4a0f395" x="305.971711" y="115.949019" style="stroke: #ffffff"/>
     <use xlink:href="#m7fe4a0f395" x="306.983422" y="117.176324" style="stroke: #ffffff"/>
     <use xlink:href="#m7fe4a0f395" x="307.97356" y="118.421098" style="stroke: #ffffff"/>
     <use xlink:href="#m7fe4a0f395" x="310.689038" y="118.366341" style="stroke: #ffffff"/>
     <use xlink:href="#m7fe4a0f395" x="275.132434" y="145.160164" style="stroke: #ffffff"/>
     <use xlink:href="#m7fe4a0f395" x="311.657843" y="119.675606" style="stroke: #ffffff"/>
     <use xlink:href="#m7fe4a0f395" x="275.639038" y="145.8448" style="stroke: #ffffff"/>
     <use xlink:href="#m7fe4a0f395" x="313.504715" y="120.370647" style="stroke: #ffffff"/>
     <use xlink:href="#m7fe4a0f395" x="278.431099" y="144.929458" style="stroke: #ffffff"/>
     <use xlink:href="#m7fe4a0f395" x="314.438111" y="121.728747" style="stroke: #ffffff"/>
     <use xlink:href="#m7fe4a0f395" x="278.941227" y="145.671698" style="stroke: #ffffff"/>
     <use xlink:href="#m7fe4a0f395" x="319.072255" y="120.684152" style="stroke: #ffffff"/>
     <use xlink:href="#m7fe4a0f395" x="282.617009" y="144.358465" style="stroke: #ffffff"/>
     <use xlink:href="#m7fe4a0f395" x="319.999332" y="122.139371" style="stroke: #ffffff"/>
     <use xlink:href="#m7fe4a0f395" x="283.136465" y="145.173847" style="stroke: #ffffff"/>
     <use xlink:href="#m7fe4a0f395" x="320.90087" y="123.610548" style="stroke: #ffffff"/>
     <use xlink:href="#m7fe4a0f395" x="283.641611" y="145.99817" style="stroke: #ffffff"/>
     <use xlink:href="#m7fe4a0f395" x="317.93052" y="127.317769" style="stroke: #ffffff"/>
     <use xlink:href="#m7fe4a0f395" x="280.849927" y="148.726258" style="stroke: #ffffff"/>
     <use xlink:href="#m7fe4a0f395" x="318.741998" y="128.752051" style="stroke: #ffffff"/>
     <use xlink:href="#m7fe4a0f395" x="281.293423" y="149.510135" style="stroke: #ffffff"/>
     <use xlink:href="#m7fe4a0f395" x="318.557081" y="130.716695" style="stroke: #ffffff"/>
     <use xlink:href="#m7fe4a0f395" x="279.24676" y="151.618363" style="stroke: #ffffff"/>
     <use xlink:href="#m7fe4a0f395" x="319.309144" y="132.161395" style="stroke: #ffffff"/>
     <use xlink:href="#m7fe4a0f395" x="279.640026" y="152.37382" style="stroke: #ffffff"/>
     <use xlink:href="#m7fe4a0f395" x="326.023338" y="130.698721" style="stroke: #ffffff"/>
     <use xlink:href="#m7fe4a0f395" x="318.75429" y="136.01365" style="stroke: #ffffff"/>
     <use xlink:href="#m7fe4a0f395" x="319.413879" y="137.460985" style="stroke: #ffffff"/>
     <use xlink:href="#m7fe4a0f395" x="319.046803" y="139.34464" style="stroke: #ffffff"/>
     <use xlink:href="#m7fe4a0f395" x="319.648213" y="140.796572" style="stroke: #ffffff"/>
     <use xlink:href="#m7fe4a0f395" x="320.224192" y="142.25878" style="stroke: #ffffff"/>
     <use xlink:href="#m7fe4a0f395" x="320.774564" y="143.730817" style="stroke: #ffffff"/>
     <use xlink:href="#m7fe4a0f395" x="320.274477" y="145.565063" style="stroke: #ffffff"/>
     <use xlink:href="#m7fe4a0f395" x="323.870764" y="146.029045" style="stroke: #ffffff"/>
     <use xlink:href="#m7fe4a0f395" x="323.31065" y="147.883373" style="stroke: #ffffff"/>
     <use xlink:href="#m7fe4a0f395" x="332.268987" y="146.969191" style="stroke: #ffffff"/>
     <use xlink:href="#m7fe4a0f395" x="291.250462" y="158.731064" style="stroke: #ffffff"/>
     <use xlink:href="#m7fe4a0f395" x="332.735317" y="148.650722" style="stroke: #ffffff"/>
     <use xlink:href="#m7fe4a0f395" x="291.517766" y="159.694931" style="stroke: #ffffff"/>
     <use xlink:href="#m7fe4a0f395" x="333.172228" y="150.340135" style="stroke: #ffffff"/>
     <use xlink:href="#m7fe4a0f395" x="291.768207" y="160.663317" style="stroke: #ffffff"/>
     <use xlink:href="#m7fe4a0f395" x="333.579589" y="152.036916" style="stroke: #ffffff"/>
     <use xlink:href="#m7fe4a0f395" x="292.00171" y="161.635925" style="stroke: #ffffff"/>
     <use xlink:href="#m7fe4a0f395" x="333.957275" y="153.740547" style="stroke: #ffffff"/>
     <use xlink:href="#m7fe4a0f395" x="292.218203" y="162.612461" style="stroke: #ffffff"/>
     <use xlink:href="#m7fe4a0f395" x="333.205165" y="155.664331" style="stroke: #ffffff"/>
     <use xlink:href="#m7fe4a0f395" x="332.42011" y="157.554745" style="stroke: #ffffff"/>
     <use xlink:href="#m7fe4a0f395" x="289.77357" y="165.074481" style="stroke: #ffffff"/>
     <use xlink:href="#m7fe4a0f395" x="332.701673" y="159.237301" style="stroke: #ffffff"/>
     <use xlink:href="#m7fe4a0f395" x="289.930391" y="166.011607" style="stroke: #ffffff"/>
     <use xlink:href="#m7fe4a0f395" x="332.953829" y="160.924514" style="stroke: #ffffff"/>
     <use xlink:href="#m7fe4a0f395" x="290.070833" y="166.951327" style="stroke: #ffffff"/>
     <use xlink:href="#m7fe4a0f395" x="333.1765" y="162.615872" style="stroke: #ffffff"/>
     <use xlink:href="#m7fe4a0f395" x="290.194853" y="167.893354" style="stroke: #ffffff"/>
     <use xlink:href="#m7fe4a0f395" x="333.36962" y="164.310857" style="stroke: #ffffff"/>
     <use xlink:href="#m7fe4a0f395" x="290.302414" y="168.837403" style="stroke: #ffffff"/>
     <use xlink:href="#m7fe4a0f395" x="333.533128" y="166.008955" style="stroke: #ffffff"/>
     <use xlink:href="#m7fe4a0f395" x="290.393482" y="169.783185" style="stroke: #ffffff"/>
     <use xlink:href="#m7fe4a0f395" x="335.898573" y="167.5536" style="stroke: #ffffff"/>
     <use xlink:href="#m7fe4a0f395" x="336.005103" y="169.29534" style="stroke: #ffffff"/>
     <use xlink:href="#m7fe4a0f395" x="327.2372" y="171.347514" style="stroke: #ffffff"/>
     <use xlink:href="#m7fe4a0f395" x="328.370508" y="172.91846" style="stroke: #ffffff"/>
     <use xlink:href="#m7fe4a0f395" x="325.121211" y="174.528" style="stroke: #ffffff"/>
     <use xlink:href="#m7fe4a0f395" x="326.191224" y="176.099501" style="stroke: #ffffff"/>
     <use xlink:href="#m7fe4a0f395" x="326.150086" y="177.670523" style="stroke: #ffffff"/>
     <use xlink:href="#m7fe4a0f395" x="326.081535" y="179.240588" style="stroke: #ffffff"/>
     <use xlink:href="#m7fe4a0f395" x="325.985594" y="180.809217" style="stroke: #ffffff"/>
     <use xlink:href="#m7fe4a0f395" x="325.86229" y="182.375933" style="stroke: #ffffff"/>
     <use xlink:href="#m7fe4a0f395" x="325.711663" y="183.940259" style="stroke: #ffffff"/>
     <use xlink:href="#m7fe4a0f395" x="325.533757" y="185.501718" style="stroke: #ffffff"/>
     <use xlink:href="#m7fe4a0f395" x="331.852333" y="187.97668" style="stroke: #ffffff"/>
     <use xlink:href="#m7fe4a0f395" x="331.603047" y="189.644694" style="stroke: #ffffff"/>
     <use xlink:href="#m7fe4a0f395" x="288.992733" y="182.895883" style="stroke: #ffffff"/>
     <use xlink:href="#m7fe4a0f395" x="331.324688" y="191.308102" style="stroke: #ffffff"/>
     <use xlink:href="#m7fe4a0f395" x="288.838646" y="183.816667" style="stroke: #ffffff"/>
     <use xlink:href="#m7fe4a0f395" x="333.205165" y="193.391669" style="stroke: #ffffff"/>
     <use xlink:href="#m7fe4a0f395" x="292.41762" y="185.463373" style="stroke: #ffffff"/>
     <use xlink:href="#m7fe4a0f395" x="332.861168" y="195.082468" style="stroke: #ffffff"/>
     <use xlink:href="#m7fe4a0f395" x="292.218203" y="186.443539" style="stroke: #ffffff"/>
     <use xlink:href="#m7fe4a0f395" x="330.316065" y="196.265641" style="stroke: #ffffff"/>
     <use xlink:href="#m7fe4a0f395" x="288.280321" y="186.560924" style="stroke: #ffffff"/>
     <use xlink:href="#m7fe4a0f395" x="328.847068" y="197.637482" style="stroke: #ffffff"/>
     <use xlink:href="#m7fe4a0f395" x="286.230639" y="187.012013" style="stroke: #ffffff"/>
     <use xlink:href="#m7fe4a0f395" x="328.429635" y="199.251574" style="stroke: #ffffff"/>
     <use xlink:href="#m7fe4a0f395" x="286.005137" y="187.883964" style="stroke: #ffffff"/>
     <use xlink:href="#m7fe4a0f395" x="327.984097" y="200.858136" style="stroke: #ffffff"/>
     <use xlink:href="#m7fe4a0f395" x="285.764452" y="188.751848" style="stroke: #ffffff"/>
     <use xlink:href="#m7fe4a0f395" x="327.510587" y="202.456677" style="stroke: #ffffff"/>
     <use xlink:href="#m7fe4a0f395" x="285.508657" y="189.615398" style="stroke: #ffffff"/>
     <use xlink:href="#m7fe4a0f395" x="327.009251" y="204.046711" style="stroke: #ffffff"/>
     <use xlink:href="#m7fe4a0f395" x="285.237829" y="190.474353" style="stroke: #ffffff"/>
     <use xlink:href="#m7fe4a0f395" x="326.480242" y="205.627753" style="stroke: #ffffff"/>
     <use xlink:href="#m7fe4a0f395" x="283.180725" y="190.718534" style="stroke: #ffffff"/>
     <use xlink:href="#m7fe4a0f395" x="325.92372" y="207.199322" style="stroke: #ffffff"/>
     <use xlink:href="#m7fe4a0f395" x="282.890999" y="191.536693" style="stroke: #ffffff"/>
     <use xlink:href="#m7fe4a0f395" x="325.339856" y="208.760939" style="stroke: #ffffff"/>
     <use xlink:href="#m7fe4a0f395" x="282.587039" y="192.349671" style="stroke: #ffffff"/>
     <use xlink:href="#m7fe4a0f395" x="327.822814" y="211.562181" style="stroke: #ffffff"/>
     <use xlink:href="#m7fe4a0f395" x="289.297441" y="195.99692" style="stroke: #ffffff"/>
     <use xlink:href="#m7fe4a0f395" x="327.162518" y="213.156277" style="stroke: #ffffff"/>
     <use xlink:href="#m7fe4a0f395" x="288.914664" y="196.921026" style="stroke: #ffffff"/>
     <use xlink:href="#m7fe4a0f395" x="324.438416" y="213.832083" style="stroke: #ffffff"/>
     <use xlink:href="#m7fe4a0f395" x="285.894004" y="196.671005" style="stroke: #ffffff"/>
     <use xlink:href="#m7fe4a0f395" x="323.73902" y="215.366768" style="stroke: #ffffff"/>
     <use xlink:href="#m7fe4a0f395" x="284.639581" y="197.1344" style="stroke: #ffffff"/>
     <use xlink:href="#m7fe4a0f395" x="323.012946" y="216.889012" style="stroke: #ffffff"/>
     <use xlink:href="#m7fe4a0f395" x="284.237661" y="197.977042" style="stroke: #ffffff"/>
     <use xlink:href="#m7fe4a0f395" x="325.244725" y="219.918935" style="stroke: #ffffff"/>
     <use xlink:href="#m7fe4a0f395" x="287.224097" y="200.546457" style="stroke: #ffffff"/>
     <use xlink:href="#m7fe4a0f395" x="324.438976" y="221.466764" style="stroke: #ffffff"/>
     <use xlink:href="#m7fe4a0f395" x="286.762235" y="201.433686" style="stroke: #ffffff"/>
     <use xlink:href="#m7fe4a0f395" x="323.606337" y="223.000296" style="stroke: #ffffff"/>
     <use xlink:href="#m7fe4a0f395" x="286.284959" y="202.312719" style="stroke: #ffffff"/>
     <use xlink:href="#m7fe4a0f395" x="314.141204" y="219.550469" style="stroke: #ffffff"/>
     <use xlink:href="#m7fe4a0f395" x="313.343577" y="220.904572" style="stroke: #ffffff"/>
     <use xlink:href="#m7fe4a0f395" x="312.522439" y="222.244548" style="stroke: #ffffff"/>
     <use xlink:href="#m7fe4a0f395" x="275.192434" y="198.918172" style="stroke: #ffffff"/>
     <use xlink:href="#m7fe4a0f395" x="311.67804" y="223.569988" style="stroke: #ffffff"/>
     <use xlink:href="#m7fe4a0f395" x="274.760822" y="199.595667" style="stroke: #ffffff"/>
     <use xlink:href="#m7fe4a0f395" x="310.810637" y="224.880491" style="stroke: #ffffff"/>
     <use xlink:href="#m7fe4a0f395" x="274.317452" y="200.265526" style="stroke: #ffffff"/>
     <use xlink:href="#m7fe4a0f395" x="309.920495" y="226.175655" style="stroke: #ffffff"/>
     <use xlink:href="#m7fe4a0f395" x="273.862459" y="200.927546" style="stroke: #ffffff"/>
     <use xlink:href="#m7fe4a0f395" x="314.337542" y="231.327309" style="stroke: #ffffff"/>
     <use xlink:href="#m7fe4a0f395" x="279.43537" y="205.969397" style="stroke: #ffffff"/>
     <use xlink:href="#m7fe4a0f395" x="313.334351" y="232.683045" style="stroke: #ffffff"/>
     <use xlink:href="#m7fe4a0f395" x="312.307651" y="234.021066" style="stroke: #ffffff"/>
     <use xlink:href="#m7fe4a0f395" x="311.257757" y="235.340964" style="stroke: #ffffff"/>
     <use xlink:href="#m7fe4a0f395" x="309.336055" y="235.930001" style="stroke: #ffffff"/>
     <use xlink:href="#m7fe4a0f395" x="277.136713" y="208.911545" style="stroke: #ffffff"/>
     <use xlink:href="#m7fe4a0f395" x="308.253297" y="237.197747" style="stroke: #ffffff"/>
     <use xlink:href="#m7fe4a0f395" x="276.530396" y="209.62145" style="stroke: #ffffff"/>
     <use xlink:href="#m7fe4a0f395" x="305.510622" y="236.97158" style="stroke: #ffffff"/>
     <use xlink:href="#m7fe4a0f395" x="275.208978" y="209.687858" style="stroke: #ffffff"/>
     <use xlink:href="#m7fe4a0f395" x="304.410269" y="238.172405" style="stroke: #ffffff"/>
     <use xlink:href="#m7fe4a0f395" x="274.589406" y="210.364001" style="stroke: #ffffff"/>
     <use xlink:href="#m7fe4a0f395" x="303.289126" y="239.353843" style="stroke: #ffffff"/>
     <use xlink:href="#m7fe4a0f395" x="273.958129" y="211.029229" style="stroke: #ffffff"/>
     <use xlink:href="#m7fe4a0f395" x="302.147535" y="240.515535" style="stroke: #ffffff"/>
     <use xlink:href="#m7fe4a0f395" x="273.315338" y="211.683338" style="stroke: #ffffff"/>
     <use xlink:href="#m7fe4a0f395" x="300.985843" y="241.657126" style="stroke: #ffffff"/>
     <use xlink:href="#m7fe4a0f395" x="272.661229" y="212.326129" style="stroke: #ffffff"/>
     <use xlink:href="#m7fe4a0f395" x="299.804405" y="242.778269" style="stroke: #ffffff"/>
     <use xlink:href="#m7fe4a0f395" x="271.996001" y="212.957406" style="stroke: #ffffff"/>
     <use xlink:href="#m7fe4a0f395" x="298.60358" y="243.878622" style="stroke: #ffffff"/>
     <use xlink:href="#m7fe4a0f395" x="271.319858" y="213.576978" style="stroke: #ffffff"/>
     <use xlink:href="#m7fe4a0f395" x="298.829747" y="246.621297" style="stroke: #ffffff"/>
     <use xlink:href="#m7fe4a0f395" x="267.566221" y="210.656724" style="stroke: #ffffff"/>
     <use xlink:href="#m7fe4a0f395" x="297.562001" y="247.704055" style="stroke: #ffffff"/>
     <use xlink:href="#m7fe4a0f395" x="266.930904" y="211.199336" style="stroke: #ffffff"/>
     <use xlink:href="#m7fe4a0f395" x="296.275551" y="248.764523" style="stroke: #ffffff"/>
     <use xlink:href="#m7fe4a0f395" x="266.286214" y="211.730777" style="stroke: #ffffff"/>
     <use xlink:href="#m7fe4a0f395" x="295.653066" y="250.675651" style="stroke: #ffffff"/>
     <use xlink:href="#m7fe4a0f395" x="294.315045" y="251.702351" style="stroke: #ffffff"/>
     <use xlink:href="#m7fe4a0f395" x="292.959309" y="252.705542" style="stroke: #ffffff"/>
     <use xlink:href="#m7fe4a0f395" x="293.507391" y="256.428562" style="stroke: #ffffff"/>
     <use xlink:href="#m7fe4a0f395" x="292.069295" y="257.416938" style="stroke: #ffffff"/>
     <use xlink:href="#m7fe4a0f395" x="285.201988" y="250.04604" style="stroke: #ffffff"/>
     <use xlink:href="#m7fe4a0f395" x="283.876548" y="250.890439" style="stroke: #ffffff"/>
     <use xlink:href="#m7fe4a0f395" x="282.536572" y="251.711577" style="stroke: #ffffff"/>
     <use xlink:href="#m7fe4a0f395" x="281.182469" y="252.509204" style="stroke: #ffffff"/>
     <use xlink:href="#m7fe4a0f395" x="279.289251" y="252.335228" style="stroke: #ffffff"/>
     <use xlink:href="#m7fe4a0f395" x="283.098764" y="262.806976" style="stroke: #ffffff"/>
     <use xlink:href="#m7fe4a0f395" x="263.065686" y="225.130235" style="stroke: #ffffff"/>
     <use xlink:href="#m7fe4a0f395" x="281.550935" y="263.612725" style="stroke: #ffffff"/>
     <use xlink:href="#m7fe4a0f395" x="262.178457" y="225.592097" style="stroke: #ffffff"/>
     <use xlink:href="#m7fe4a0f395" x="278.521012" y="261.380946" style="stroke: #ffffff"/>
     <use xlink:href="#m7fe4a0f395" x="260.025208" y="223.458928" style="stroke: #ffffff"/>
     <use xlink:href="#m7fe4a0f395" x="276.998768" y="262.10702" style="stroke: #ffffff"/>
     <use xlink:href="#m7fe4a0f395" x="258.7664" y="223.007581" style="stroke: #ffffff"/>
     <use xlink:href="#m7fe4a0f395" x="275.464083" y="262.806416" style="stroke: #ffffff"/>
     <use xlink:href="#m7fe4a0f395" x="257.916872" y="223.394734" style="stroke: #ffffff"/>
     <use xlink:href="#m7fe4a0f395" x="273.917426" y="263.478922" style="stroke: #ffffff"/>
     <use xlink:href="#m7fe4a0f395" x="257.060716" y="223.767001" style="stroke: #ffffff"/>
     <use xlink:href="#m7fe4a0f395" x="272.359268" y="264.124332" style="stroke: #ffffff"/>
     <use xlink:href="#m7fe4a0f395" x="256.198193" y="224.124269" style="stroke: #ffffff"/>
     <use xlink:href="#m7fe4a0f395" x="270.392939" y="263.707856" style="stroke: #ffffff"/>
     <use xlink:href="#m7fe4a0f395" x="255.669783" y="225.352721" style="stroke: #ffffff"/>
     <use xlink:href="#m7fe4a0f395" x="268.831322" y="264.29172" style="stroke: #ffffff"/>
     <use xlink:href="#m7fe4a0f395" x="254.779797" y="225.685473" style="stroke: #ffffff"/>
     <use xlink:href="#m7fe4a0f395" x="267.259753" y="264.848242" style="stroke: #ffffff"/>
     <use xlink:href="#m7fe4a0f395" x="253.884141" y="226.002642" style="stroke: #ffffff"/>
     <use xlink:href="#m7fe4a0f395" x="265.678711" y="265.377251" style="stroke: #ffffff"/>
     <use xlink:href="#m7fe4a0f395" x="252.983085" y="226.304131" style="stroke: #ffffff"/>
     <use xlink:href="#m7fe4a0f395" x="264.088677" y="265.878587" style="stroke: #ffffff"/>
     <use xlink:href="#m7fe4a0f395" x="252.076904" y="226.589848" style="stroke: #ffffff"/>
     <use xlink:href="#m7fe4a0f395" x="262.490136" y="266.352097" style="stroke: #ffffff"/>
     <use xlink:href="#m7fe4a0f395" x="251.165876" y="226.859707" style="stroke: #ffffff"/>
     <use xlink:href="#m7fe4a0f395" x="260.883574" y="266.797635" style="stroke: #ffffff"/>
     <use xlink:href="#m7fe4a0f395" x="250.250276" y="227.113626" style="stroke: #ffffff"/>
     <use xlink:href="#m7fe4a0f395" x="259.269482" y="267.215068" style="stroke: #ffffff"/>
     <use xlink:href="#m7fe4a0f395" x="249.100717" y="226.430379" style="stroke: #ffffff"/>
     <use xlink:href="#m7fe4a0f395" x="257.64835" y="267.604268" style="stroke: #ffffff"/>
     <use xlink:href="#m7fe4a0f395" x="248.192924" y="226.648321" style="stroke: #ffffff"/>
     <use xlink:href="#m7fe4a0f395" x="256.020672" y="267.965115" style="stroke: #ffffff"/>
     <use xlink:href="#m7fe4a0f395" x="247.281467" y="226.850386" style="stroke: #ffffff"/>
     <use xlink:href="#m7fe4a0f395" x="254.386945" y="268.297501" style="stroke: #ffffff"/>
     <use xlink:href="#m7fe4a0f395" x="246.366621" y="227.036514" style="stroke: #ffffff"/>
     <use xlink:href="#m7fe4a0f395" x="252.747665" y="268.601323" style="stroke: #ffffff"/>
     <use xlink:href="#m7fe4a0f395" x="245.120851" y="225.34751" style="stroke: #ffffff"/>
     <use xlink:href="#m7fe4a0f395" x="251.276694" y="269.971047" style="stroke: #ffffff"/>
     <use xlink:href="#m7fe4a0f395" x="244.676393" y="228.298391" style="stroke: #ffffff"/>
     <use xlink:href="#m7fe4a0f395" x="250.074822" y="273.537106" style="stroke: #ffffff"/>
     <use xlink:href="#m7fe4a0f395" x="244.136091" y="231.280834" style="stroke: #ffffff"/>
     <use xlink:href="#m7fe4a0f395" x="248.344756" y="273.764873" style="stroke: #ffffff"/>
     <use xlink:href="#m7fe4a0f395" x="243.027371" y="230.458246" style="stroke: #ffffff"/>
     <use xlink:href="#m7fe4a0f395" x="245.572259" y="264.079663" style="stroke: #ffffff"/>
     <use xlink:href="#m7fe4a0f395" x="244.007933" y="264.23029" style="stroke: #ffffff"/>
     <use xlink:href="#m7fe4a0f395" x="242.441217" y="264.353594" style="stroke: #ffffff"/>
     <use xlink:href="#m7fe4a0f395" x="240.81587" y="263.367292" style="stroke: #ffffff"/>
     <use xlink:href="#m7fe4a0f395" x="239.302523" y="264.518086" style="stroke: #ffffff"/>
     <use xlink:href="#m7fe4a0f395" x="237.798421" y="221.446243" style="stroke: #ffffff"/>
     <use xlink:href="#m7fe4a0f395" x="237.904929" y="274.494897" style="stroke: #ffffff"/>
     <use xlink:href="#m7fe4a0f395" x="237.160207" y="231.829848" style="stroke: #ffffff"/>
     <use xlink:href="#m7fe4a0f395" x="236.16" y="274.510125" style="stroke: #ffffff"/>
     <use xlink:href="#m7fe4a0f395" x="236.16" y="229.921633" style="stroke: #ffffff"/>
     <use xlink:href="#m7fe4a0f395" x="234.415071" y="274.494897" style="stroke: #ffffff"/>
     <use xlink:href="#m7fe4a0f395" x="235.193248" y="229.913196" style="stroke: #ffffff"/>
     <use xlink:href="#m7fe4a0f395" x="232.670674" y="274.449218" style="stroke: #ffffff"/>
     <use xlink:href="#m7fe4a0f395" x="234.22679" y="229.887888" style="stroke: #ffffff"/>
     <use xlink:href="#m7fe4a0f395" x="231.160631" y="269.921643" style="stroke: #ffffff"/>
     <use xlink:href="#m7fe4a0f395" x="233.360482" y="227.945991" style="stroke: #ffffff"/>
     <use xlink:href="#m7fe4a0f395" x="229.496544" y="269.819863" style="stroke: #ffffff"/>
     <use xlink:href="#m7fe4a0f395" x="232.428636" y="227.888997" style="stroke: #ffffff"/>
     <use xlink:href="#m7fe4a0f395" x="227.834486" y="269.689056" style="stroke: #ffffff"/>
     <use xlink:href="#m7fe4a0f395" x="231.497926" y="227.815749" style="stroke: #ffffff"/>
     <use xlink:href="#m7fe4a0f395" x="225.709022" y="273.962412" style="stroke: #ffffff"/>
     <use xlink:href="#m7fe4a0f395" x="230.169414" y="231.524623" style="stroke: #ffffff"/>
     <use xlink:href="#m7fe4a0f395" x="223.975244" y="273.764873" style="stroke: #ffffff"/>
     <use xlink:href="#m7fe4a0f395" x="229.175598" y="231.411392" style="stroke: #ffffff"/>
     <use xlink:href="#m7fe4a0f395" x="222.245178" y="273.537106" style="stroke: #ffffff"/>
     <use xlink:href="#m7fe4a0f395" x="228.183909" y="231.280834" style="stroke: #ffffff"/>
     <use xlink:href="#m7fe4a0f395" x="220.51935" y="273.279179" style="stroke: #ffffff"/>
     <use xlink:href="#m7fe4a0f395" x="227.194651" y="231.132988" style="stroke: #ffffff"/>
     <use xlink:href="#m7fe4a0f395" x="218.798286" y="272.991172" style="stroke: #ffffff"/>
     <use xlink:href="#m7fe4a0f395" x="226.208123" y="230.9679" style="stroke: #ffffff"/>
     <use xlink:href="#m7fe4a0f395" x="217.082511" y="272.673172" style="stroke: #ffffff"/>
     <use xlink:href="#m7fe4a0f395" x="225.224627" y="230.78562" style="stroke: #ffffff"/>
     <use xlink:href="#m7fe4a0f395" x="215.372547" y="272.325275" style="stroke: #ffffff"/>
     <use xlink:href="#m7fe4a0f395" x="224.244461" y="230.586203" style="stroke: #ffffff"/>
     <use xlink:href="#m7fe4a0f395" x="213.668916" y="271.947589" style="stroke: #ffffff"/>
     <use xlink:href="#m7fe4a0f395" x="223.267925" y="230.36971" style="stroke: #ffffff"/>
     <use xlink:href="#m7fe4a0f395" x="211.972135" y="271.540228" style="stroke: #ffffff"/>
     <use xlink:href="#m7fe4a0f395" x="222.295317" y="230.136207" style="stroke: #ffffff"/>
     <use xlink:href="#m7fe4a0f395" x="210.282722" y="271.103317" style="stroke: #ffffff"/>
     <use xlink:href="#m7fe4a0f395" x="221.326931" y="229.885766" style="stroke: #ffffff"/>
     <use xlink:href="#m7fe4a0f395" x="208.601191" y="270.636987" style="stroke: #ffffff"/>
     <use xlink:href="#m7fe4a0f395" x="220.363064" y="229.618462" style="stroke: #ffffff"/>
     <use xlink:href="#m7fe4a0f395" x="206.928056" y="270.141381" style="stroke: #ffffff"/>
     <use xlink:href="#m7fe4a0f395" x="219.404009" y="229.334377" style="stroke: #ffffff"/>
     <use xlink:href="#m7fe4a0f395" x="206.298836" y="266.431213" style="stroke: #ffffff"/>
     <use xlink:href="#m7fe4a0f395" x="219.922522" y="224.501819" style="stroke: #ffffff"/>
     <use xlink:href="#m7fe4a0f395" x="204.699452" y="265.896067" style="stroke: #ffffff"/>
     <use xlink:href="#m7fe4a0f395" x="219.052832" y="224.210824" style="stroke: #ffffff"/>
     <use xlink:href="#m7fe4a0f395" x="203.109651" y="265.333088" style="stroke: #ffffff"/>
     <use xlink:href="#m7fe4a0f395" x="218.188352" y="223.904696" style="stroke: #ffffff"/>
     <use xlink:href="#m7fe4a0f395" x="200.329611" y="267.869355" style="stroke: #ffffff"/>
     <use xlink:href="#m7fe4a0f395" x="215.621726" y="228.032032" style="stroke: #ffffff"/>
     <use xlink:href="#m7fe4a0f395" x="198.706037" y="267.229812" style="stroke: #ffffff"/>
     <use xlink:href="#m7fe4a0f395" x="214.329967" y="228.559228" style="stroke: #ffffff"/>
     <use xlink:href="#m7fe4a0f395" x="197.093872" y="266.562031" style="stroke: #ffffff"/>
     <use xlink:href="#m7fe4a0f395" x="213.390317" y="228.170012" style="stroke: #ffffff"/>
     <use xlink:href="#m7fe4a0f395" x="199.976216" y="255.79811" style="stroke: #ffffff"/>
     <use xlink:href="#m7fe4a0f395" x="217.439457" y="216.575029" style="stroke: #ffffff"/>
     <use xlink:href="#m7fe4a0f395" x="197.64565" y="257.12229" style="stroke: #ffffff"/>
     <use xlink:href="#m7fe4a0f395" x="196.210047" y="256.437542" style="stroke: #ffffff"/>
     <use xlink:href="#m7fe4a0f395" x="194.786613" y="255.727844" style="stroke: #ffffff"/>
     <use xlink:href="#m7fe4a0f395" x="193.375781" y="254.993412" style="stroke: #ffffff"/>
     <use xlink:href="#m7fe4a0f395" x="187.687704" y="261.974337" style="stroke: #ffffff"/>
     <use xlink:href="#m7fe4a0f395" x="187.287461" y="259.17772" style="stroke: #ffffff"/>
     <use xlink:href="#m7fe4a0f395" x="208.939677" y="221.674982" style="stroke: #ffffff"/>
     <use xlink:href="#m7fe4a0f395" x="185.817563" y="258.311884" style="stroke: #ffffff"/>
     <use xlink:href="#m7fe4a0f395" x="208.120995" y="221.192741" style="stroke: #ffffff"/>
     <use xlink:href="#m7fe4a0f395" x="184.952441" y="256.477225" style="stroke: #ffffff"/>
     <use xlink:href="#m7fe4a0f395" x="207.81393" y="219.891195" style="stroke: #ffffff"/>
     <use xlink:href="#m7fe4a0f395" x="183.530029" y="255.571049" style="stroke: #ffffff"/>
     <use xlink:href="#m7fe4a0f395" x="207.02655" y="219.389578" style="stroke: #ffffff"/>
     <use xlink:href="#m7fe4a0f395" x="183.975857" y="251.894173" style="stroke: #ffffff"/>
     <use xlink:href="#m7fe4a0f395" x="206.776883" y="218.090262" style="stroke: #ffffff"/>
     <use xlink:href="#m7fe4a0f395" x="182.633579" y="250.971651" style="stroke: #ffffff"/>
     <use xlink:href="#m7fe4a0f395" x="206.021092" y="217.570821" style="stroke: #ffffff"/>
     <use xlink:href="#m7fe4a0f395" x="181.307606" y="250.025843" style="stroke: #ffffff"/>
     <use xlink:href="#m7fe4a0f395" x="205.274481" y="217.038269" style="stroke: #ffffff"/>
     <use xlink:href="#m7fe4a0f395" x="179.998341" y="249.057038" style="stroke: #ffffff"/>
     <use xlink:href="#m7fe4a0f395" x="204.537279" y="216.492768" style="stroke: #ffffff"/>
     <use xlink:href="#m7fe4a0f395" x="178.706184" y="248.065531" style="stroke: #ffffff"/>
     <use xlink:href="#m7fe4a0f395" x="203.809709" y="215.934484" style="stroke: #ffffff"/>
     <use xlink:href="#m7fe4a0f395" x="174.64703" y="250.490192" style="stroke: #ffffff"/>
     <use xlink:href="#m7fe4a0f395" x="202.496835" y="216.098547" style="stroke: #ffffff"/>
     <use xlink:href="#m7fe4a0f395" x="173.330675" y="249.405073" style="stroke: #ffffff"/>
     <use xlink:href="#m7fe4a0f395" x="201.776455" y="215.504713" style="stroke: #ffffff"/>
     <use xlink:href="#m7fe4a0f395" x="172.033459" y="248.297146" style="stroke: #ffffff"/>
     <use xlink:href="#m7fe4a0f395" x="199.818507" y="216.334105" style="stroke: #ffffff"/>
     <use xlink:href="#m7fe4a0f395" x="169.2589" y="248.829199" style="stroke: #ffffff"/>
     <use xlink:href="#m7fe4a0f395" x="167.972355" y="247.650297" style="stroke: #ffffff"/>
     <use xlink:href="#m7fe4a0f395" x="196.416848" y="217.147312" style="stroke: #ffffff"/>
     <use xlink:href="#m7fe4a0f395" x="166.70658" y="246.449122" style="stroke: #ffffff"/>
     <use xlink:href="#m7fe4a0f395" x="195.679092" y="216.447208" style="stroke: #ffffff"/>
     <use xlink:href="#m7fe4a0f395" x="165.461962" y="245.226038" style="stroke: #ffffff"/>
     <use xlink:href="#m7fe4a0f395" x="194.953666" y="215.734334" style="stroke: #ffffff"/>
     <use xlink:href="#m7fe4a0f395" x="164.238878" y="243.98142" style="stroke: #ffffff"/>
     <use xlink:href="#m7fe4a0f395" x="194.240792" y="215.008908" style="stroke: #ffffff"/>
     <use xlink:href="#m7fe4a0f395" x="163.037703" y="242.715645" style="stroke: #ffffff"/>
     <use xlink:href="#m7fe4a0f395" x="193.540688" y="214.271152" style="stroke: #ffffff"/>
     <use xlink:href="#m7fe4a0f395" x="161.858801" y="241.4291" style="stroke: #ffffff"/>
     <use xlink:href="#m7fe4a0f395" x="192.853565" y="213.521289" style="stroke: #ffffff"/>
     <use xlink:href="#m7fe4a0f395" x="169.020122" y="232.891806" style="stroke: #ffffff"/>
     <use xlink:href="#m7fe4a0f395" x="159.569249" y="238.795271" style="stroke: #ffffff"/>
     <use xlink:href="#m7fe4a0f395" x="192.993187" y="210.749257" style="stroke: #ffffff"/>
     <use xlink:href="#m7fe4a0f395" x="158.459296" y="237.44879" style="stroke: #ffffff"/>
     <use xlink:href="#m7fe4a0f395" x="191.621317" y="210.594714" style="stroke: #ffffff"/>
     <use xlink:href="#m7fe4a0f395" x="157.37301" y="236.083142" style="stroke: #ffffff"/>
     <use xlink:href="#m7fe4a0f395" x="190.99865" y="209.811914" style="stroke: #ffffff"/>
     <use xlink:href="#m7fe4a0f395" x="156.310725" y="234.698745" style="stroke: #ffffff"/>
     <use xlink:href="#m7fe4a0f395" x="190.389739" y="209.018366" style="stroke: #ffffff"/>
     <use xlink:href="#m7fe4a0f395" x="155.272762" y="233.296018" style="stroke: #ffffff"/>
     <use xlink:href="#m7fe4a0f395" x="189.79477" y="208.214312" style="stroke: #ffffff"/>
     <use xlink:href="#m7fe4a0f395" x="159.716349" y="228.054421" style="stroke: #ffffff"/>
     <use xlink:href="#m7fe4a0f395" x="193.117179" y="204.666908" style="stroke: #ffffff"/>
     <use xlink:href="#m7fe4a0f395" x="158.793827" y="226.712143" style="stroke: #ffffff"/>
     <use xlink:href="#m7fe4a0f395" x="192.597738" y="203.911117" style="stroke: #ffffff"/>
     <use xlink:href="#m7fe4a0f395" x="156.972337" y="225.95307" style="stroke: #ffffff"/>
     <use xlink:href="#m7fe4a0f395" x="191.298422" y="203.66145" style="stroke: #ffffff"/>
     <use xlink:href="#m7fe4a0f395" x="156.086906" y="224.563222" style="stroke: #ffffff"/>
     <use xlink:href="#m7fe4a0f395" x="190.796805" y="202.87407" style="stroke: #ffffff"/>
     <use xlink:href="#m7fe4a0f395" x="155.225867" y="223.158133" style="stroke: #ffffff"/>
     <use xlink:href="#m7fe4a0f395" x="190.309007" y="202.078056" style="stroke: #ffffff"/>
     <use xlink:href="#m7fe4a0f395" x="154.38948" y="221.738231" style="stroke: #ffffff"/>
     <use xlink:href="#m7fe4a0f395" x="190.654191" y="200.800791" style="stroke: #ffffff"/>
     <use xlink:href="#m7fe4a0f395" x="153.578002" y="220.303949" style="stroke: #ffffff"/>
     <use xlink:href="#m7fe4a0f395" x="190.202598" y="200.002604" style="stroke: #ffffff"/>
     <use xlink:href="#m7fe4a0f395" x="152.79168" y="218.855722" style="stroke: #ffffff"/>
     <use xlink:href="#m7fe4a0f395" x="189.765004" y="199.196657" style="stroke: #ffffff"/>
     <use xlink:href="#m7fe4a0f395" x="152.030752" y="217.393993" style="stroke: #ffffff"/>
     <use xlink:href="#m7fe4a0f395" x="189.341543" y="198.383195" style="stroke: #ffffff"/>
     <use xlink:href="#m7fe4a0f395" x="146.296662" y="218.357279" style="stroke: #ffffff"/>
     <use xlink:href="#m7fe4a0f395" x="184.649595" y="199.651303" style="stroke: #ffffff"/>
     <use xlink:href="#m7fe4a0f395" x="145.545422" y="216.782272" style="stroke: #ffffff"/>
     <use xlink:href="#m7fe4a0f395" x="184.218978" y="198.748496" style="stroke: #ffffff"/>
     <use xlink:href="#m7fe4a0f395" x="154.88989" y="210.711784" style="stroke: #ffffff"/>
     <use xlink:href="#m7fe4a0f395" x="194.112971" y="193.248543" style="stroke: #ffffff"/>
     <use xlink:href="#m7fe4a0f395" x="154.270774" y="209.287914" style="stroke: #ffffff"/>
     <use xlink:href="#m7fe4a0f395" x="193.792656" y="192.51187" style="stroke: #ffffff"/>
     <use xlink:href="#m7fe4a0f395" x="153.676602" y="207.853456" style="stroke: #ffffff"/>
     <use xlink:href="#m7fe4a0f395" x="193.485247" y="191.769719" style="stroke: #ffffff"/>
     <use xlink:href="#m7fe4a0f395" x="152.095808" y="206.79722" style="stroke: #ffffff"/>
     <use xlink:href="#m7fe4a0f395" x="193.190838" y="191.022316" style="stroke: #ffffff"/>
     <use xlink:href="#m7fe4a0f395" x="151.545436" y="205.325183" style="stroke: #ffffff"/>
     <use xlink:href="#m7fe4a0f395" x="192.909516" y="190.269889" style="stroke: #ffffff"/>
     <use xlink:href="#m7fe4a0f395" x="151.020838" y="203.843764" style="stroke: #ffffff"/>
     <use xlink:href="#m7fe4a0f395" x="192.64137" y="189.512666" style="stroke: #ffffff"/>
     <use xlink:href="#m7fe4a0f395" x="150.522175" y="202.353416" style="stroke: #ffffff"/>
     <use xlink:href="#m7fe4a0f395" x="192.386479" y="188.750879" style="stroke: #ffffff"/>
     <use xlink:href="#m7fe4a0f395" x="140.546619" y="203.759944" style="stroke: #ffffff"/>
     <use xlink:href="#m7fe4a0f395" x="140.051013" y="202.086809" style="stroke: #ffffff"/>
     <use xlink:href="#m7fe4a0f395" x="142.819925" y="199.538398" style="stroke: #ffffff"/>
     <use xlink:href="#m7fe4a0f395" x="185.404865" y="188.127798" style="stroke: #ffffff"/>
     <use xlink:href="#m7fe4a0f395" x="140.23508" y="198.444769" style="stroke: #ffffff"/>
     <use xlink:href="#m7fe4a0f395" x="181.483572" y="188.160365" style="stroke: #ffffff"/>
     <use xlink:href="#m7fe4a0f395" x="142.003935" y="196.265641" style="stroke: #ffffff"/>
     <use xlink:href="#m7fe4a0f395" x="184.039679" y="186.560924" style="stroke: #ffffff"/>
     <use xlink:href="#m7fe4a0f395" x="141.638901" y="194.61908" style="stroke: #ffffff"/>
     <use xlink:href="#m7fe4a0f395" x="183.837614" y="185.649467" style="stroke: #ffffff"/>
     <use xlink:href="#m7fe4a0f395" x="142.390499" y="192.754945" style="stroke: #ffffff"/>
     <use xlink:href="#m7fe4a0f395" x="184.579828" y="184.55417" style="stroke: #ffffff"/>
     <use xlink:href="#m7fe4a0f395" x="143.173996" y="190.923941" style="stroke: #ffffff"/>
     <use xlink:href="#m7fe4a0f395" x="185.34049" y="183.488851" style="stroke: #ffffff"/>
     <use xlink:href="#m7fe4a0f395" x="142.90201" y="189.298615" style="stroke: #ffffff"/>
     <use xlink:href="#m7fe4a0f395" x="185.191841" y="182.600563" style="stroke: #ffffff"/>
     <use xlink:href="#m7fe4a0f395" x="140.467667" y="187.97668" style="stroke: #ffffff"/>
     <use xlink:href="#m7fe4a0f395" x="183.189274" y="181.97255" style="stroke: #ffffff"/>
     <use xlink:href="#m7fe4a0f395" x="138.035369" y="186.57619" style="stroke: #ffffff"/>
     <use xlink:href="#m7fe4a0f395" x="180.229754" y="181.395371" style="stroke: #ffffff"/>
     <use xlink:href="#m7fe4a0f395" x="137.840044" y="184.861844" style="stroke: #ffffff"/>
     <use xlink:href="#m7fe4a0f395" x="180.11842" y="180.418207" style="stroke: #ffffff"/>
     <use xlink:href="#m7fe4a0f395" x="137.674668" y="183.14435" style="stroke: #ffffff"/>
     <use xlink:href="#m7fe4a0f395" x="180.024157" y="179.43925" style="stroke: #ffffff"/>
     <use xlink:href="#m7fe4a0f395" x="137.539292" y="181.424232" style="stroke: #ffffff"/>
     <use xlink:href="#m7fe4a0f395" x="179.946994" y="178.458796" style="stroke: #ffffff"/>
     <use xlink:href="#m7fe4a0f395" x="136.314897" y="179.76066" style="stroke: #ffffff"/>
     <use xlink:href="#m7fe4a0f395" x="136.238782" y="178.017326" style="stroke: #ffffff"/>
     <use xlink:href="#m7fe4a0f395" x="136.193103" y="176.272929" style="stroke: #ffffff"/>
     <use xlink:href="#m7fe4a0f395" x="146.115062" y="174.528" style="stroke: #ffffff"/>
     <use xlink:href="#m7fe4a0f395" x="190.133797" y="174.528" style="stroke: #ffffff"/>
     <use xlink:href="#m7fe4a0f395" x="146.128776" y="172.956499" style="stroke: #ffffff"/>
     <use xlink:href="#m7fe4a0f395" x="190.140807" y="173.724732" style="stroke: #ffffff"/>
     <use xlink:href="#m7fe4a0f395" x="146.169914" y="171.385477" style="stroke: #ffffff"/>
     <use xlink:href="#m7fe4a0f395" x="190.161835" y="172.921709" style="stroke: #ffffff"/>
     <use xlink:href="#m7fe4a0f395" x="146.238465" y="169.815412" style="stroke: #ffffff"/>
     <use xlink:href="#m7fe4a0f395" x="190.196874" y="172.119175" style="stroke: #ffffff"/>
     <use xlink:href="#m7fe4a0f395" x="146.334406" y="168.246783" style="stroke: #ffffff"/>
     <use xlink:href="#m7fe4a0f395" x="190.245914" y="171.317374" style="stroke: #ffffff"/>
     <use xlink:href="#m7fe4a0f395" x="146.45771" y="166.680067" style="stroke: #ffffff"/>
     <use xlink:href="#m7fe4a0f395" x="190.30894" y="170.516552" style="stroke: #ffffff"/>
     <use xlink:href="#m7fe4a0f395" x="140.056608" y="164.427126" style="stroke: #ffffff"/>
     <use xlink:href="#m7fe4a0f395" x="140.247529" y="162.751429" style="stroke: #ffffff"/>
     <use xlink:href="#m7fe4a0f395" x="182.125147" y="167.893354" style="stroke: #ffffff"/>
     <use xlink:href="#m7fe4a0f395" x="140.467667" y="161.07932" style="stroke: #ffffff"/>
     <use xlink:href="#m7fe4a0f395" x="182.249167" y="166.951327" style="stroke: #ffffff"/>
     <use xlink:href="#m7fe4a0f395" x="142.90201" y="159.757385" style="stroke: #ffffff"/>
     <use xlink:href="#m7fe4a0f395" x="184.261341" y="166.30806" style="stroke: #ffffff"/>
     <use xlink:href="#m7fe4a0f395" x="144.257281" y="158.323071" style="stroke: #ffffff"/>
     <use xlink:href="#m7fe4a0f395" x="185.34049" y="165.567149" style="stroke: #ffffff"/>
     <use xlink:href="#m7fe4a0f395" x="144.554093" y="156.721616" style="stroke: #ffffff"/>
     <use xlink:href="#m7fe4a0f395" x="185.504618" y="164.681591" style="stroke: #ffffff"/>
     <use xlink:href="#m7fe4a0f395" x="144.87881" y="155.125584" style="stroke: #ffffff"/>
     <use xlink:href="#m7fe4a0f395" x="185.684177" y="163.799033" style="stroke: #ffffff"/>
     <use xlink:href="#m7fe4a0f395" x="145.231331" y="153.535463" style="stroke: #ffffff"/>
     <use xlink:href="#m7fe4a0f395" x="185.879111" y="162.919742" style="stroke: #ffffff"/>
     <use xlink:href="#m7fe4a0f395" x="144.544228" y="151.685623" style="stroke: #ffffff"/>
     <use xlink:href="#m7fe4a0f395" x="186.089361" y="162.043987" style="stroke: #ffffff"/>
     <use xlink:href="#m7fe4a0f395" x="144.956836" y="150.090186" style="stroke: #ffffff"/>
     <use xlink:href="#m7fe4a0f395" x="186.314863" y="161.172036" style="stroke: #ffffff"/>
     <use xlink:href="#m7fe4a0f395" x="143.270632" y="147.892402" style="stroke: #ffffff"/>
     <use xlink:href="#m7fe4a0f395" x="183.828293" y="159.522124" style="stroke: #ffffff"/>
     <use xlink:href="#m7fe4a0f395" x="143.749635" y="146.275316" style="stroke: #ffffff"/>
     <use xlink:href="#m7fe4a0f395" x="144.256787" y="144.666836" style="stroke: #ffffff"/>
     <use xlink:href="#m7fe4a0f395" x="144.791933" y="143.067452" style="stroke: #ffffff"/>
     <use xlink:href="#m7fe4a0f395" x="145.354912" y="141.477651" style="stroke: #ffffff"/>
     <use xlink:href="#m7fe4a0f395" x="145.94555" y="139.897917" style="stroke: #ffffff"/>
     <use xlink:href="#m7fe4a0f395" x="146.563668" y="138.328732" style="stroke: #ffffff"/>
     <use xlink:href="#m7fe4a0f395" x="147.209078" y="136.770574" style="stroke: #ffffff"/>
     <use xlink:href="#m7fe4a0f395" x="153.899855" y="137.903424" style="stroke: #ffffff"/>
     <use xlink:href="#m7fe4a0f395" x="194.950786" y="156.180476" style="stroke: #ffffff"/>
     <use xlink:href="#m7fe4a0f395" x="154.551571" y="136.473365" style="stroke: #ffffff"/>
     <use xlink:href="#m7fe4a0f395" x="195.277271" y="155.46407" style="stroke: #ffffff"/>
     <use xlink:href="#m7fe4a0f395" x="152.28412" y="133.619" style="stroke: #ffffff"/>
     <use xlink:href="#m7fe4a0f395" x="192.299952" y="153.136025" style="stroke: #ffffff"/>
     <use xlink:href="#m7fe4a0f395" x="153.010856" y="132.161395" style="stroke: #ffffff"/>
     <use xlink:href="#m7fe4a0f395" x="192.679974" y="152.37382" style="stroke: #ffffff"/>
     <use xlink:href="#m7fe4a0f395" x="153.762919" y="130.716695" style="stroke: #ffffff"/>
     <use xlink:href="#m7fe4a0f395" x="193.07324" y="151.618363" style="stroke: #ffffff"/>
     <use xlink:href="#m7fe4a0f395" x="154.540081" y="129.28534" style="stroke: #ffffff"/>
     <use xlink:href="#m7fe4a0f395" x="193.47963" y="150.869885" style="stroke: #ffffff"/>
     <use xlink:href="#m7fe4a0f395" x="155.342105" y="127.867767" style="stroke: #ffffff"/>
     <use xlink:href="#m7fe4a0f395" x="193.899022" y="150.128613" style="stroke: #ffffff"/>
     <use xlink:href="#m7fe4a0f395" x="152.376116" y="124.185563" style="stroke: #ffffff"/>
     <use xlink:href="#m7fe4a0f395" x="152.320668" y="122.139371" style="stroke: #ffffff"/>
     <use xlink:href="#m7fe4a0f395" x="188.372259" y="144.666905" style="stroke: #ffffff"/>
     <use xlink:href="#m7fe4a0f395" x="154.18408" y="121.292215" style="stroke: #ffffff"/>
     <use xlink:href="#m7fe4a0f395" x="190.502233" y="144.877499" style="stroke: #ffffff"/>
     <use xlink:href="#m7fe4a0f395" x="158.793827" y="122.343857" style="stroke: #ffffff"/>
     <use xlink:href="#m7fe4a0f395" x="194.931886" y="146.719286" style="stroke: #ffffff"/>
     <use xlink:href="#m7fe4a0f395" x="159.716349" y="121.001579" style="stroke: #ffffff"/>
     <use xlink:href="#m7fe4a0f395" x="195.423494" y="146.003992" style="stroke: #ffffff"/>
     <use xlink:href="#m7fe4a0f395" x="163.312115" y="121.600913" style="stroke: #ffffff"/>
     <use xlink:href="#m7fe4a0f395" x="164.246915" y="120.337603" style="stroke: #ffffff"/>
     <use xlink:href="#m7fe4a0f395" x="200.134271" y="147.380666" style="stroke: #ffffff"/>
     <use xlink:href="#m7fe4a0f395" x="165.20362" y="119.0908" style="stroke: #ffffff"/>
     <use xlink:href="#m7fe4a0f395" x="200.613544" y="146.756065" style="stroke: #ffffff"/>
     <use xlink:href="#m7fe4a0f395" x="166.18194" y="117.860884" style="stroke: #ffffff"/>
     <use xlink:href="#m7fe4a0f395" x="201.103645" y="146.139923" style="stroke: #ffffff"/>
     <use xlink:href="#m7fe4a0f395" x="167.181575" y="116.648229" style="stroke: #ffffff"/>
     <use xlink:href="#m7fe4a0f395" x="201.604424" y="145.532429" style="stroke: #ffffff"/>
     <use xlink:href="#m7fe4a0f395" x="166.557245" y="114.023248" style="stroke: #ffffff"/>
     <use xlink:href="#m7fe4a0f395" x="161.858801" y="107.6269" style="stroke: #ffffff"/>
     <use xlink:href="#m7fe4a0f395" x="194.283587" y="136.822308" style="stroke: #ffffff"/>
     <use xlink:href="#m7fe4a0f395" x="167.909731" y="110.883595" style="stroke: #ffffff"/>
     <use xlink:href="#m7fe4a0f395" x="200.470836" y="141.247316" style="stroke: #ffffff"/>
     <use xlink:href="#m7fe4a0f395" x="169.030874" y="109.702157" style="stroke: #ffffff"/>
     <use xlink:href="#m7fe4a0f395" x="201.057099" y="140.629523" style="stroke: #ffffff"/>
     <use xlink:href="#m7fe4a0f395" x="170.172465" y="108.540465" style="stroke: #ffffff"/>
     <use xlink:href="#m7fe4a0f395" x="201.654056" y="140.022056" style="stroke: #ffffff"/>
     <use xlink:href="#m7fe4a0f395" x="171.334157" y="107.398874" style="stroke: #ffffff"/>
     <use xlink:href="#m7fe4a0f395" x="202.261523" y="139.425099" style="stroke: #ffffff"/>
     <use xlink:href="#m7fe4a0f395" x="172.515595" y="106.277731" style="stroke: #ffffff"/>
     <use xlink:href="#m7fe4a0f395" x="202.879316" y="138.838836" style="stroke: #ffffff"/>
     <use xlink:href="#m7fe4a0f395" x="173.71642" y="105.177378" style="stroke: #ffffff"/>
     <use xlink:href="#m7fe4a0f395" x="203.507247" y="138.263443" style="stroke: #ffffff"/>
     <use xlink:href="#m7fe4a0f395" x="174.936265" y="104.09815" style="stroke: #ffffff"/>
     <use xlink:href="#m7fe4a0f395" x="204.145123" y="137.699098" style="stroke: #ffffff"/>
     <use xlink:href="#m7fe4a0f395" x="176.17476" y="103.040375" style="stroke: #ffffff"/>
     <use xlink:href="#m7fe4a0f395" x="204.792752" y="137.14597" style="stroke: #ffffff"/>
     <use xlink:href="#m7fe4a0f395" x="177.431528" y="102.004376" style="stroke: #ffffff"/>
     <use xlink:href="#m7fe4a0f395" x="205.449936" y="136.60423" style="stroke: #ffffff"/>
     <use xlink:href="#m7fe4a0f395" x="178.706184" y="100.990469" style="stroke: #ffffff"/>
     <use xlink:href="#m7fe4a0f395" x="206.116475" y="136.074041" style="stroke: #ffffff"/>
     <use xlink:href="#m7fe4a0f395" x="179.998341" y="99.998962" style="stroke: #ffffff"/>
     <use xlink:href="#m7fe4a0f395" x="206.792164" y="135.555566" style="stroke: #ffffff"/>
     <use xlink:href="#m7fe4a0f395" x="181.951767" y="99.916768" style="stroke: #ffffff"/>
     <use xlink:href="#m7fe4a0f395" x="184.512345" y="100.767505" style="stroke: #ffffff"/>
     <use xlink:href="#m7fe4a0f395" x="185.807509" y="99.877363" style="stroke: #ffffff"/>
     <use xlink:href="#m7fe4a0f395" x="187.118012" y="99.00996" style="stroke: #ffffff"/>
     <use xlink:href="#m7fe4a0f395" x="211.591823" y="136.696325" style="stroke: #ffffff"/>
     <use xlink:href="#m7fe4a0f395" x="187.867018" y="97.243074" style="stroke: #ffffff"/>
     <use xlink:href="#m7fe4a0f395" x="189.223181" y="96.412016" style="stroke: #ffffff"/>
     <use xlink:href="#m7fe4a0f395" x="186.168938" y="87.94094" style="stroke: #ffffff"/>
     <use xlink:href="#m7fe4a0f395" x="208.463184" y="126.555707" style="stroke: #ffffff"/>
     <use xlink:href="#m7fe4a0f395" x="187.687704" y="87.081663" style="stroke: #ffffff"/>
     <use xlink:href="#m7fe4a0f395" x="209.304634" y="126.079637" style="stroke: #ffffff"/>
     <use xlink:href="#m7fe4a0f395" x="189.221236" y="86.249024" style="stroke: #ffffff"/>
     <use xlink:href="#m7fe4a0f395" x="210.154265" y="125.618325" style="stroke: #ffffff"/>
     <use xlink:href="#m7fe4a0f395" x="194.290928" y="92.35532" style="stroke: #ffffff"/>
     <use xlink:href="#m7fe4a0f395" x="214.427008" y="131.874601" style="stroke: #ffffff"/>
     <use xlink:href="#m7fe4a0f395" x="195.731416" y="91.637119" style="stroke: #ffffff"/>
     <use xlink:href="#m7fe4a0f395" x="215.174722" y="131.501804" style="stroke: #ffffff"/>
     <use xlink:href="#m7fe4a0f395" x="194.851145" y="85.940875" style="stroke: #ffffff"/>
     <use xlink:href="#m7fe4a0f395" x="213.5536" y="126.048419" style="stroke: #ffffff"/>
     <use xlink:href="#m7fe4a0f395" x="196.403495" y="85.233428" style="stroke: #ffffff"/>
     <use xlink:href="#m7fe4a0f395" x="214.403128" y="125.661266" style="stroke: #ffffff"/>
     <use xlink:href="#m7fe4a0f395" x="197.967956" y="84.553182" style="stroke: #ffffff"/>
     <use xlink:href="#m7fe4a0f395" x="215.259284" y="125.288999" style="stroke: #ffffff"/>
     <use xlink:href="#m7fe4a0f395" x="201.612074" y="89.018882" style="stroke: #ffffff"/>
     <use xlink:href="#m7fe4a0f395" x="203.109675" y="88.428961" style="stroke: #ffffff"/>
     <use xlink:href="#m7fe4a0f395" x="204.617345" y="87.865267" style="stroke: #ffffff"/>
     <use xlink:href="#m7fe4a0f395" x="203.609004" y="79.993044" style="stroke: #ffffff"/>
     <use xlink:href="#m7fe4a0f395" x="207.998442" y="87.855637" style="stroke: #ffffff"/>
     <use xlink:href="#m7fe4a0f395" x="209.515373" y="87.37735" style="stroke: #ffffff"/>
     <use xlink:href="#m7fe4a0f395" x="222.70324" y="130.512923" style="stroke: #ffffff"/>
     <use xlink:href="#m7fe4a0f395" x="211.340251" y="87.97125" style="stroke: #ffffff"/>
     <use xlink:href="#m7fe4a0f395" x="223.726247" y="131.16635" style="stroke: #ffffff"/>
     <use xlink:href="#m7fe4a0f395" x="212.854655" y="87.551268" style="stroke: #ffffff"/>
     <use xlink:href="#m7fe4a0f395" x="224.247542" y="130.070102" style="stroke: #ffffff"/>
     <use xlink:href="#m7fe4a0f395" x="214.376158" y="87.157781" style="stroke: #ffffff"/>
     <use xlink:href="#m7fe4a0f395" x="225.247121" y="130.758833" style="stroke: #ffffff"/>
     <use xlink:href="#m7fe4a0f395" x="215.904296" y="86.790907" style="stroke: #ffffff"/>
     <use xlink:href="#m7fe4a0f395" x="226.01266" y="130.575043" style="stroke: #ffffff"/>
     <use xlink:href="#m7fe4a0f395" x="217.438605" y="86.450759" style="stroke: #ffffff"/>
     <use xlink:href="#m7fe4a0f395" x="226.781291" y="130.404642" style="stroke: #ffffff"/>
     <use xlink:href="#m7fe4a0f395" x="218.978616" y="86.137441" style="stroke: #ffffff"/>
     <use xlink:href="#m7fe4a0f395" x="227.552778" y="130.247681" style="stroke: #ffffff"/>
     <use xlink:href="#m7fe4a0f395" x="220.523861" y="85.851046" style="stroke: #ffffff"/>
     <use xlink:href="#m7fe4a0f395" x="228.326887" y="130.104208" style="stroke: #ffffff"/>
     <use xlink:href="#m7fe4a0f395" x="220.869301" y="77.986327" style="stroke: #ffffff"/>
     <use xlink:href="#m7fe4a0f395" x="227.792117" y="121.695267" style="stroke: #ffffff"/>
     <use xlink:href="#m7fe4a0f395" x="222.401134" y="76.628584" style="stroke: #ffffff"/>
     <use xlink:href="#m7fe4a0f395" x="228.183909" y="117.775166" style="stroke: #ffffff"/>
     <use xlink:href="#m7fe4a0f395" x="224.11181" y="76.403369" style="stroke: #ffffff"/>
     <use xlink:href="#m7fe4a0f395" x="229.292629" y="118.597754" style="stroke: #ffffff"/>
     <use xlink:href="#m7fe4a0f395" x="225.942857" y="77.31838" style="stroke: #ffffff"/>
     <use xlink:href="#m7fe4a0f395" x="230.469403" y="120.385586" style="stroke: #ffffff"/>
     <use xlink:href="#m7fe4a0f395" x="227.640955" y="77.154872" style="stroke: #ffffff"/>
     <use xlink:href="#m7fe4a0f395" x="231.415185" y="120.294518" style="stroke: #ffffff"/>
     <use xlink:href="#m7fe4a0f395" x="229.341648" y="77.021025" style="stroke: #ffffff"/>
     <use xlink:href="#m7fe4a0f395" x="232.362413" y="120.219969" style="stroke: #ffffff"/>
     <use xlink:href="#m7fe4a0f395" x="231.044418" y="76.916879" style="stroke: #ffffff"/>
     <use xlink:href="#m7fe4a0f395" x="233.310797" y="120.161963" style="stroke: #ffffff"/>
     <use xlink:href="#m7fe4a0f395" x="233.017477" y="84.537914" style="stroke: #ffffff"/>
     <use xlink:href="#m7fe4a0f395" x="234.617599" y="130.359401" style="stroke: #ffffff"/>
     <use xlink:href="#m7fe4a0f395" x="234.588499" y="84.496776" style="stroke: #ffffff"/>
     <use xlink:href="#m7fe4a0f395" x="235.356732" y="128.508807" style="stroke: #ffffff"/>
     <use xlink:href="#m7fe4a0f395" x="236.16" y="85.566789" style="stroke: #ffffff"/>
    </g>
   </g>
   <g id="patch_3">
    <path d="M 236.16 41.472 
C 218.687246 41.472 201.384393 44.913752 185.241673 51.600285 
C 169.098954 58.286818 154.430303 68.088097 142.0752 80.4432 
C 129.720097 92.798303 119.918818 107.466954 113.232285 123.609673 
C 106.545752 139.752393 103.104 157.055246 103.104 174.528 
C 103.104 192.000754 106.545752 209.303607 113.232285 225.446327 
C 119.918818 241.589046 129.720097 256.257697 142.0752 268.6128 
C 154.430303 280.967903 169.098954 290.769182 185.241673 297.455715 
C 201.384393 304.142248 218.687246 307.584 236.16 307.584 
C 253.632754 307.584 270.935607 304.142248 287.078327 297.455715 
C 303.221046 290.769182 317.889697 280.967903 330.2448 268.6128 
C 342.599903 256.257697 352.401182 241.589046 359.087715 225.446327 
C 365.774248 209.303607 369.216 192.000754 369.216 174.528 
C 369.216 157.055246 365.774248 139.752393 359.087715 123.609673 
C 352.401182 107.466954 342.599903 92.798303 330.2448 80.4432 
C 317.889697 68.088097 303.221046 58.286818 287.078327 51.600285 
C 270.935607 44.913752 253.632754 41.472 236.16 41.472 
" style="fill: none; stroke: #ffffff; stroke-width: 1.25; stroke-linejoin: miter; stroke-linecap: square"/>
   </g>
  </g>
 </g>
 <defs>
  <clipPath id="p54551c5c87">
   <path d="M 369.216 174.528 
C 369.216 157.055246 365.774248 139.752393 359.087715 123.609673 
C 352.401182 107.466954 342.599903 92.798303 330.2448 80.4432 
C 317.889697 68.088097 303.221046 58.286818 287.078327 51.600285 
C 270.935607 44.913752 253.632754 41.472 236.16 41.472 
C 218.687246 41.472 201.384393 44.913752 185.241673 51.600285 
C 169.098954 58.286818 154.430303 68.088097 142.0752 80.4432 
C 129.720097 92.798303 119.918818 107.466954 113.232285 123.609673 
C 106.545752 139.752393 103.104 157.055246 103.104 174.528 
C 103.104 192.000754 106.545752 209.303607 113.232285 225.446327 
C 119.918818 241.589046 129.720097 256.257697 142.0752 268.6128 
C 154.430303 280.967903 169.098954 290.769182 185.241673 297.455715 
C 201.384393 304.142248 218.687246 307.584 236.16 307.584 
C 253.632754 307.584 270.935607 304.142248 287.078327 297.455715 
C 303.221046 290.769182 317.889697 280.967903 330.2448 268.6128 
C 342.599903 256.257697 352.401182 241.589046 359.087715 225.446327 
C 365.774248 209.303607 369.216 192.000754 369.216 174.528 
M 236.16 174.528 
C 236.16 174.528 236.16 174.528 236.16 174.528 
C 236.16 174.528 236.16 174.528 236.16 174.528 
C 236.16 174.528 236.16 174.528 236.16 174.528 
C 236.16 174.528 236.16 174.528 236.16 174.528 
C 236.16 174.528 236.16 174.528 236.16 174.528 
C 236.16 174.528 236.16 174.528 236.16 174.528 
C 236.16 174.528 236.16 174.528 236.16 174.528 
C 236.16 174.528 236.16 174.528 236.16 174.528 
C 236.16 174.528 236.16 174.528 236.16 174.528 
C 236.16 174.528 236.16 174.528 236.16 174.528 
C 236.16 174.528 236.16 174.528 236.16 174.528 
C 236.16 174.528 236.16 174.528 236.16 174.528 
C 236.16 174.528 236.16 174.528 236.16 174.528 
C 236.16 174.528 236.16 174.528 236.16 174.528 
C 236.16 174.528 236.16 174.528 236.16 174.528 
C 236.16 174.528 236.16 174.528 236.16 174.528 
z
"/>
  </clipPath>
 </defs>
</svg>
