<?xml version="1.0" encoding="utf-8" standalone="no"?>
<!DOCTYPE svg PUBLIC "-//W3C//DTD SVG 1.1//EN"
  "http://www.w3.org/Graphics/SVG/1.1/DTD/svg11.dtd">
<svg xmlns:xlink="http://www.w3.org/1999/xlink" width="432pt" height="432pt" viewBox="0 0 432 432" xmlns="http://www.w3.org/2000/svg" version="1.1">
 <metadata>
  <rdf:RDF xmlns:dc="http://purl.org/dc/elements/1.1/" xmlns:cc="http://creativecommons.org/ns#" xmlns:rdf="http://www.w3.org/1999/02/22-rdf-syntax-ns#">
   <cc:Work>
    <dc:type rdf:resource="http://purl.org/dc/dcmitype/StillImage"/>
    <dc:date>2024-09-06T16:16:20.234088</dc:date>
    <dc:format>image/svg+xml</dc:format>
    <dc:creator>
     <cc:Agent>
      <dc:title>Matplotlib v3.9.1, https://matplotlib.org/</dc:title>
     </cc:Agent>
    </dc:creator>
   </cc:Work>
  </rdf:RDF>
 </metadata>
 <defs>
  <style type="text/css">*{stroke-linejoin: round; stroke-linecap: butt}</style>
 </defs>
 <g id="figure_1">
  <g id="patch_1">
   <path d="M 0 432 
L 432 432 
L 432 0 
L 0 0 
z
" style="fill: #ffffff"/>
  </g>
  <g id="axes_1">
   <g id="patch_2">
    <path d="M 387.72 218.16 
C 387.72 196.319058 383.417811 174.690491 375.059644 154.512092 
C 366.701477 134.333692 354.449878 115.997879 339.006 100.554 
C 323.562121 85.110122 305.226308 72.858523 285.047908 64.500356 
C 264.869509 56.142189 243.240942 51.84 221.4 51.84 
C 199.559058 51.84 177.930491 56.142189 157.752092 64.500356 
C 137.573692 72.858523 119.237879 85.110122 103.794 100.554 
C 88.350122 115.997879 76.098523 134.333692 67.740356 154.512092 
C 59.382189 174.690491 55.08 196.319058 55.08 218.16 
C 55.08 240.000942 59.382189 261.629509 67.740356 281.807908 
C 76.098523 301.986308 88.350122 320.322121 103.794 335.766 
C 119.237879 351.209878 137.573692 363.461477 157.752092 371.819644 
C 177.930491 380.177811 199.559058 384.48 221.4 384.48 
C 243.240942 384.48 264.869509 380.177811 285.047908 371.819644 
C 305.226308 363.461477 323.562121 351.209878 339.006 335.766 
C 354.449878 320.322121 366.701477 301.986308 375.059644 281.807908 
C 383.417811 261.629509 387.72 240.000942 387.72 218.16 
M 221.4 218.16 
C 221.4 218.16 221.4 218.16 221.4 218.16 
C 221.4 218.16 221.4 218.16 221.4 218.16 
C 221.4 218.16 221.4 218.16 221.4 218.16 
C 221.4 218.16 221.4 218.16 221.4 218.16 
C 221.4 218.16 221.4 218.16 221.4 218.16 
C 221.4 218.16 221.4 218.16 221.4 218.16 
C 221.4 218.16 221.4 218.16 221.4 218.16 
C 221.4 218.16 221.4 218.16 221.4 218.16 
C 221.4 218.16 221.4 218.16 221.4 218.16 
C 221.4 218.16 221.4 218.16 221.4 218.16 
C 221.4 218.16 221.4 218.16 221.4 218.16 
C 221.4 218.16 221.4 218.16 221.4 218.16 
C 221.4 218.16 221.4 218.16 221.4 218.16 
C 221.4 218.16 221.4 218.16 221.4 218.16 
C 221.4 218.16 221.4 218.16 221.4 218.16 
C 221.4 218.16 221.4 218.16 221.4 218.16 
z
" style="fill: #eaeaf2"/>
   </g>
   <g id="matplotlib.axis_1">
    <g id="xtick_1">
     <g id="line2d_1">
      <path d="M 221.4 218.16 
L 221.4 51.84 
" clip-path="url(#p22ae85ad5d)" style="fill: none; stroke: #ffffff; stroke-linecap: round"/>
     </g>
     <g id="text_1">
      <!-- 0° -->
      <g style="fill: #262626" transform="translate(216.142344 38.183672) scale(0.11 -0.11)">
       <defs>
        <path id="ArialMT-30" d="M 266 2259 
Q 266 3072 433 3567 
Q 600 4063 929 4331 
Q 1259 4600 1759 4600 
Q 2128 4600 2406 4451 
Q 2684 4303 2865 4023 
Q 3047 3744 3150 3342 
Q 3253 2941 3253 2259 
Q 3253 1453 3087 958 
Q 2922 463 2592 192 
Q 2263 -78 1759 -78 
Q 1097 -78 719 397 
Q 266 969 266 2259 
z
M 844 2259 
Q 844 1131 1108 757 
Q 1372 384 1759 384 
Q 2147 384 2411 759 
Q 2675 1134 2675 2259 
Q 2675 3391 2411 3762 
Q 2147 4134 1753 4134 
Q 1366 4134 1134 3806 
Q 844 3388 844 2259 
z
" transform="scale(0.015625)"/>
        <path id="ArialMT-b0" d="M 400 3794 
Q 400 4153 654 4406 
Q 909 4659 1266 4659 
Q 1628 4659 1881 4406 
Q 2134 4153 2134 3794 
Q 2134 3434 1879 3179 
Q 1625 2925 1266 2925 
Q 909 2925 654 3178 
Q 400 3431 400 3794 
z
M 741 3794 
Q 741 3575 895 3420 
Q 1050 3266 1269 3266 
Q 1484 3266 1639 3420 
Q 1794 3575 1794 3794 
Q 1794 4013 1639 4167 
Q 1484 4322 1269 4322 
Q 1050 4322 895 4167 
Q 741 4013 741 3794 
z
" transform="scale(0.015625)"/>
       </defs>
       <use xlink:href="#ArialMT-30"/>
       <use xlink:href="#ArialMT-b0" x="55.615234"/>
      </g>
     </g>
    </g>
    <g id="xtick_2">
     <g id="line2d_2">
      <path d="M 221.4 218.16 
L 339.006 100.554 
" clip-path="url(#p22ae85ad5d)" style="fill: none; stroke: #ffffff; stroke-linecap: round"/>
     </g>
     <g id="text_2">
      <!-- 45° -->
      <g style="fill: #262626" transform="translate(342.35709 91.73041) scale(0.11 -0.11)">
       <defs>
        <path id="ArialMT-34" d="M 2069 0 
L 2069 1097 
L 81 1097 
L 81 1613 
L 2172 4581 
L 2631 4581 
L 2631 1613 
L 3250 1613 
L 3250 1097 
L 2631 1097 
L 2631 0 
L 2069 0 
z
M 2069 1613 
L 2069 3678 
L 634 1613 
L 2069 1613 
z
" transform="scale(0.015625)"/>
        <path id="ArialMT-35" d="M 266 1200 
L 856 1250 
Q 922 819 1161 601 
Q 1400 384 1738 384 
Q 2144 384 2425 690 
Q 2706 997 2706 1503 
Q 2706 1984 2436 2262 
Q 2166 2541 1728 2541 
Q 1456 2541 1237 2417 
Q 1019 2294 894 2097 
L 366 2166 
L 809 4519 
L 3088 4519 
L 3088 3981 
L 1259 3981 
L 1013 2750 
Q 1425 3038 1878 3038 
Q 2478 3038 2890 2622 
Q 3303 2206 3303 1553 
Q 3303 931 2941 478 
Q 2500 -78 1738 -78 
Q 1113 -78 717 272 
Q 322 622 266 1200 
z
" transform="scale(0.015625)"/>
       </defs>
       <use xlink:href="#ArialMT-34"/>
       <use xlink:href="#ArialMT-35" x="55.615234"/>
       <use xlink:href="#ArialMT-b0" x="111.230469"/>
      </g>
     </g>
    </g>
    <g id="xtick_3">
     <g id="line2d_3">
      <path d="M 221.4 218.16 
L 387.72 218.16 
" clip-path="url(#p22ae85ad5d)" style="fill: none; stroke: #ffffff; stroke-linecap: round"/>
     </g>
     <g id="text_3">
      <!-- 90° -->
      <g style="fill: #262626" transform="translate(395.903828 221.003672) scale(0.11 -0.11)">
       <defs>
        <path id="ArialMT-39" d="M 350 1059 
L 891 1109 
Q 959 728 1153 556 
Q 1347 384 1650 384 
Q 1909 384 2104 503 
Q 2300 622 2425 820 
Q 2550 1019 2634 1356 
Q 2719 1694 2719 2044 
Q 2719 2081 2716 2156 
Q 2547 1888 2255 1720 
Q 1963 1553 1622 1553 
Q 1053 1553 659 1965 
Q 266 2378 266 3053 
Q 266 3750 677 4175 
Q 1088 4600 1706 4600 
Q 2153 4600 2523 4359 
Q 2894 4119 3086 3673 
Q 3278 3228 3278 2384 
Q 3278 1506 3087 986 
Q 2897 466 2520 194 
Q 2144 -78 1638 -78 
Q 1100 -78 759 220 
Q 419 519 350 1059 
z
M 2653 3081 
Q 2653 3566 2395 3850 
Q 2138 4134 1775 4134 
Q 1400 4134 1122 3828 
Q 844 3522 844 3034 
Q 844 2597 1108 2323 
Q 1372 2050 1759 2050 
Q 2150 2050 2401 2323 
Q 2653 2597 2653 3081 
z
" transform="scale(0.015625)"/>
       </defs>
       <use xlink:href="#ArialMT-39"/>
       <use xlink:href="#ArialMT-30" x="55.615234"/>
       <use xlink:href="#ArialMT-b0" x="111.230469"/>
      </g>
     </g>
    </g>
    <g id="xtick_4">
     <g id="line2d_4">
      <path d="M 221.4 218.16 
L 339.006 335.766 
" clip-path="url(#p22ae85ad5d)" style="fill: none; stroke: #ffffff; stroke-linecap: round"/>
     </g>
     <g id="text_4">
      <!-- 135° -->
      <g style="fill: #262626" transform="translate(339.298574 350.276934) scale(0.11 -0.11)">
       <defs>
        <path id="ArialMT-31" d="M 2384 0 
L 1822 0 
L 1822 3584 
Q 1619 3391 1289 3197 
Q 959 3003 697 2906 
L 697 3450 
Q 1169 3672 1522 3987 
Q 1875 4303 2022 4600 
L 2384 4600 
L 2384 0 
z
" transform="scale(0.015625)"/>
        <path id="ArialMT-33" d="M 269 1209 
L 831 1284 
Q 928 806 1161 595 
Q 1394 384 1728 384 
Q 2125 384 2398 659 
Q 2672 934 2672 1341 
Q 2672 1728 2419 1979 
Q 2166 2231 1775 2231 
Q 1616 2231 1378 2169 
L 1441 2663 
Q 1497 2656 1531 2656 
Q 1891 2656 2178 2843 
Q 2466 3031 2466 3422 
Q 2466 3731 2256 3934 
Q 2047 4138 1716 4138 
Q 1388 4138 1169 3931 
Q 950 3725 888 3313 
L 325 3413 
Q 428 3978 793 4289 
Q 1159 4600 1703 4600 
Q 2078 4600 2393 4439 
Q 2709 4278 2876 4000 
Q 3044 3722 3044 3409 
Q 3044 3113 2884 2869 
Q 2725 2625 2413 2481 
Q 2819 2388 3044 2092 
Q 3269 1797 3269 1353 
Q 3269 753 2831 336 
Q 2394 -81 1725 -81 
Q 1122 -81 723 278 
Q 325 638 269 1209 
z
" transform="scale(0.015625)"/>
       </defs>
       <use xlink:href="#ArialMT-31"/>
       <use xlink:href="#ArialMT-33" x="55.615234"/>
       <use xlink:href="#ArialMT-35" x="111.230469"/>
       <use xlink:href="#ArialMT-b0" x="166.845703"/>
      </g>
     </g>
    </g>
    <g id="xtick_5">
     <g id="line2d_5">
      <path d="M 221.4 218.16 
L 221.4 384.48 
" clip-path="url(#p22ae85ad5d)" style="fill: none; stroke: #ffffff; stroke-linecap: round"/>
     </g>
     <g id="text_5">
      <!-- 180° -->
      <g style="fill: #262626" transform="translate(210.025312 403.823672) scale(0.11 -0.11)">
       <defs>
        <path id="ArialMT-38" d="M 1131 2484 
Q 781 2613 612 2850 
Q 444 3088 444 3419 
Q 444 3919 803 4259 
Q 1163 4600 1759 4600 
Q 2359 4600 2725 4251 
Q 3091 3903 3091 3403 
Q 3091 3084 2923 2848 
Q 2756 2613 2416 2484 
Q 2838 2347 3058 2040 
Q 3278 1734 3278 1309 
Q 3278 722 2862 322 
Q 2447 -78 1769 -78 
Q 1091 -78 675 323 
Q 259 725 259 1325 
Q 259 1772 486 2073 
Q 713 2375 1131 2484 
z
M 1019 3438 
Q 1019 3113 1228 2906 
Q 1438 2700 1772 2700 
Q 2097 2700 2305 2904 
Q 2513 3109 2513 3406 
Q 2513 3716 2298 3927 
Q 2084 4138 1766 4138 
Q 1444 4138 1231 3931 
Q 1019 3725 1019 3438 
z
M 838 1322 
Q 838 1081 952 856 
Q 1066 631 1291 507 
Q 1516 384 1775 384 
Q 2178 384 2440 643 
Q 2703 903 2703 1303 
Q 2703 1709 2433 1975 
Q 2163 2241 1756 2241 
Q 1359 2241 1098 1978 
Q 838 1716 838 1322 
z
" transform="scale(0.015625)"/>
       </defs>
       <use xlink:href="#ArialMT-31"/>
       <use xlink:href="#ArialMT-38" x="55.615234"/>
       <use xlink:href="#ArialMT-30" x="111.230469"/>
       <use xlink:href="#ArialMT-b0" x="166.845703"/>
      </g>
     </g>
    </g>
    <g id="xtick_6">
     <g id="line2d_6">
      <path d="M 221.4 218.16 
L 103.794 335.766 
" clip-path="url(#p22ae85ad5d)" style="fill: none; stroke: #ffffff; stroke-linecap: round"/>
     </g>
     <g id="text_6">
      <!-- 225° -->
      <g style="fill: #262626" transform="translate(80.752051 350.276934) scale(0.11 -0.11)">
       <defs>
        <path id="ArialMT-32" d="M 3222 541 
L 3222 0 
L 194 0 
Q 188 203 259 391 
Q 375 700 629 1000 
Q 884 1300 1366 1694 
Q 2113 2306 2375 2664 
Q 2638 3022 2638 3341 
Q 2638 3675 2398 3904 
Q 2159 4134 1775 4134 
Q 1369 4134 1125 3890 
Q 881 3647 878 3216 
L 300 3275 
Q 359 3922 746 4261 
Q 1134 4600 1788 4600 
Q 2447 4600 2831 4234 
Q 3216 3869 3216 3328 
Q 3216 3053 3103 2787 
Q 2991 2522 2730 2228 
Q 2469 1934 1863 1422 
Q 1356 997 1212 845 
Q 1069 694 975 541 
L 3222 541 
z
" transform="scale(0.015625)"/>
       </defs>
       <use xlink:href="#ArialMT-32"/>
       <use xlink:href="#ArialMT-32" x="55.615234"/>
       <use xlink:href="#ArialMT-35" x="111.230469"/>
       <use xlink:href="#ArialMT-b0" x="166.845703"/>
      </g>
     </g>
    </g>
    <g id="xtick_7">
     <g id="line2d_7">
      <path d="M 221.4 218.16 
L 55.08 218.16 
" clip-path="url(#p22ae85ad5d)" style="fill: none; stroke: #ffffff; stroke-linecap: round"/>
     </g>
     <g id="text_7">
      <!-- 270° -->
      <g style="fill: #262626" transform="translate(27.205312 221.003672) scale(0.11 -0.11)">
       <defs>
        <path id="ArialMT-37" d="M 303 3981 
L 303 4522 
L 3269 4522 
L 3269 4084 
Q 2831 3619 2401 2847 
Q 1972 2075 1738 1259 
Q 1569 684 1522 0 
L 944 0 
Q 953 541 1156 1306 
Q 1359 2072 1739 2783 
Q 2119 3494 2547 3981 
L 303 3981 
z
" transform="scale(0.015625)"/>
       </defs>
       <use xlink:href="#ArialMT-32"/>
       <use xlink:href="#ArialMT-37" x="55.615234"/>
       <use xlink:href="#ArialMT-30" x="111.230469"/>
       <use xlink:href="#ArialMT-b0" x="166.845703"/>
      </g>
     </g>
    </g>
    <g id="xtick_8">
     <g id="line2d_8">
      <path d="M 221.4 218.16 
L 103.794 100.554 
" clip-path="url(#p22ae85ad5d)" style="fill: none; stroke: #ffffff; stroke-linecap: round"/>
     </g>
     <g id="text_8">
      <!-- 315° -->
      <g style="fill: #262626" transform="translate(80.752051 91.73041) scale(0.11 -0.11)">
       <use xlink:href="#ArialMT-33"/>
       <use xlink:href="#ArialMT-31" x="55.615234"/>
       <use xlink:href="#ArialMT-35" x="111.230469"/>
       <use xlink:href="#ArialMT-b0" x="166.845703"/>
      </g>
     </g>
    </g>
   </g>
   <g id="matplotlib.axis_2">
    <g id="ytick_1">
     <g id="line2d_9">
      <path d="M 221.4 218.16 
C 221.4 218.16 221.4 218.16 221.4 218.16 
C 221.4 218.16 221.4 218.16 221.4 218.16 
C 221.4 218.16 221.4 218.16 221.4 218.16 
C 221.4 218.16 221.4 218.16 221.4 218.16 
C 221.4 218.16 221.4 218.16 221.4 218.16 
C 221.4 218.16 221.4 218.16 221.4 218.16 
C 221.4 218.16 221.4 218.16 221.4 218.16 
C 221.4 218.16 221.4 218.16 221.4 218.16 
C 221.4 218.16 221.4 218.16 221.4 218.16 
C 221.4 218.16 221.4 218.16 221.4 218.16 
C 221.4 218.16 221.4 218.16 221.4 218.16 
C 221.4 218.16 221.4 218.16 221.4 218.16 
C 221.4 218.16 221.4 218.16 221.4 218.16 
C 221.4 218.16 221.4 218.16 221.4 218.16 
C 221.4 218.16 221.4 218.16 221.4 218.16 
C 221.4 218.16 221.4 218.16 221.4 218.16 
" clip-path="url(#p22ae85ad5d)" style="fill: none; stroke: #ffffff; stroke-linecap: round"/>
     </g>
     <g id="text_9">
      <!-- 0.0 -->
      <g style="fill: #dc143c" transform="translate(221.4 215.97375) scale(0.11 -0.11)">
       <defs>
        <path id="ArialMT-2e" d="M 581 0 
L 581 641 
L 1222 641 
L 1222 0 
L 581 0 
z
" transform="scale(0.015625)"/>
       </defs>
       <use xlink:href="#ArialMT-30"/>
       <use xlink:href="#ArialMT-2e" x="55.615234"/>
       <use xlink:href="#ArialMT-30" x="83.398438"/>
      </g>
     </g>
    </g>
    <g id="ytick_2">
     <g id="line2d_10">
      <path d="M 221.4 197.37 
C 224.130118 197.37 226.833689 197.907774 229.355989 198.952545 
C 231.878289 199.997315 234.170265 201.528765 236.10075 203.45925 
C 238.031235 205.389735 239.562685 207.681711 240.607455 210.204011 
C 241.652226 212.726311 242.19 215.429882 242.19 218.16 
C 242.19 220.890118 241.652226 223.593689 240.607455 226.115989 
C 239.562685 228.638289 238.031235 230.930265 236.10075 232.86075 
C 234.170265 234.791235 231.878289 236.322685 229.355989 237.367455 
C 226.833689 238.412226 224.130118 238.95 221.4 238.95 
C 218.669882 238.95 215.966311 238.412226 213.444011 237.367455 
C 210.921711 236.322685 208.629735 234.791235 206.69925 232.86075 
C 204.768765 230.930265 203.237315 228.638289 202.192545 226.115989 
C 201.147774 223.593689 200.61 220.890118 200.61 218.16 
C 200.61 215.429882 201.147774 212.726311 202.192545 210.204011 
C 203.237315 207.681711 204.768765 205.389735 206.69925 203.45925 
C 208.629735 201.528765 210.921711 199.997315 213.444011 198.952545 
C 215.966311 197.907774 218.669882 197.37 221.4 197.37 
" clip-path="url(#p22ae85ad5d)" style="fill: none; stroke: #ffffff; stroke-linecap: round"/>
     </g>
     <g id="text_10">
      <!-- 0.1 -->
      <g style="fill: #dc143c" transform="translate(229.355989 196.766295) scale(0.11 -0.11)">
       <use xlink:href="#ArialMT-30"/>
       <use xlink:href="#ArialMT-2e" x="55.615234"/>
       <use xlink:href="#ArialMT-31" x="83.398438"/>
      </g>
     </g>
    </g>
    <g id="ytick_3">
     <g id="line2d_11">
      <path d="M 221.4 176.58 
C 226.860236 176.58 232.267377 177.655547 237.311977 179.745089 
C 242.356577 181.834631 246.94053 184.89753 250.8015 188.7585 
C 254.66247 192.61947 257.725369 197.203423 259.814911 202.248023 
C 261.904453 207.292623 262.98 212.699764 262.98 218.16 
C 262.98 223.620236 261.904453 229.027377 259.814911 234.071977 
C 257.725369 239.116577 254.66247 243.70053 250.8015 247.5615 
C 246.94053 251.42247 242.356577 254.485369 237.311977 256.574911 
C 232.267377 258.664453 226.860236 259.74 221.4 259.74 
C 215.939764 259.74 210.532623 258.664453 205.488023 256.574911 
C 200.443423 254.485369 195.85947 251.42247 191.9985 247.5615 
C 188.13753 243.70053 185.074631 239.116577 182.985089 234.071977 
C 180.895547 229.027377 179.82 223.620236 179.82 218.16 
C 179.82 212.699764 180.895547 207.292623 182.985089 202.248023 
C 185.074631 197.203423 188.13753 192.61947 191.9985 188.7585 
C 195.85947 184.89753 200.443423 181.834631 205.488023 179.745089 
C 210.532623 177.655547 215.939764 176.58 221.4 176.58 
" clip-path="url(#p22ae85ad5d)" style="fill: none; stroke: #ffffff; stroke-linecap: round"/>
     </g>
     <g id="text_11">
      <!-- 0.2 -->
      <g style="fill: #dc143c" transform="translate(237.311977 177.558839) scale(0.11 -0.11)">
       <use xlink:href="#ArialMT-30"/>
       <use xlink:href="#ArialMT-2e" x="55.615234"/>
       <use xlink:href="#ArialMT-32" x="83.398438"/>
      </g>
     </g>
    </g>
    <g id="ytick_4">
     <g id="line2d_12">
      <path d="M 221.4 155.79 
C 229.590353 155.79 237.701066 157.403321 245.267966 160.537634 
C 252.834866 163.671946 259.710796 168.266296 265.50225 174.05775 
C 271.293704 179.849204 275.888054 186.725134 279.022366 194.292034 
C 282.156679 201.858934 283.77 209.969647 283.77 218.16 
C 283.77 226.350353 282.156679 234.461066 279.022366 242.027966 
C 275.888054 249.594866 271.293704 256.470796 265.50225 262.26225 
C 259.710796 268.053704 252.834866 272.648054 245.267966 275.782366 
C 237.701066 278.916679 229.590353 280.53 221.4 280.53 
C 213.209647 280.53 205.098934 278.916679 197.532034 275.782366 
C 189.965134 272.648054 183.089204 268.053704 177.29775 262.26225 
C 171.506296 256.470796 166.911946 249.594866 163.777634 242.027966 
C 160.643321 234.461066 159.03 226.350353 159.03 218.16 
C 159.03 209.969647 160.643321 201.858934 163.777634 194.292034 
C 166.911946 186.725134 171.506296 179.849204 177.29775 174.05775 
C 183.089204 168.266296 189.965134 163.671946 197.532034 160.537634 
C 205.098934 157.403321 213.209647 155.79 221.4 155.79 
" clip-path="url(#p22ae85ad5d)" style="fill: none; stroke: #ffffff; stroke-linecap: round"/>
     </g>
     <g id="text_12">
      <!-- 0.3 -->
      <g style="fill: #dc143c" transform="translate(245.267966 158.351384) scale(0.11 -0.11)">
       <use xlink:href="#ArialMT-30"/>
       <use xlink:href="#ArialMT-2e" x="55.615234"/>
       <use xlink:href="#ArialMT-33" x="83.398438"/>
      </g>
     </g>
    </g>
    <g id="ytick_5">
     <g id="line2d_13">
      <path d="M 221.4 135 
C 232.320471 135 243.134754 137.151095 253.223954 141.330178 
C 263.313154 145.509261 272.481061 151.635061 280.203 159.357 
C 287.924939 167.078939 294.050739 176.246846 298.229822 186.336046 
C 302.408905 196.425246 304.56 207.239529 304.56 218.16 
C 304.56 229.080471 302.408905 239.894754 298.229822 249.983954 
C 294.050739 260.073154 287.924939 269.241061 280.203 276.963 
C 272.481061 284.684939 263.313154 290.810739 253.223954 294.989822 
C 243.134754 299.168905 232.320471 301.32 221.4 301.32 
C 210.479529 301.32 199.665246 299.168905 189.576046 294.989822 
C 179.486846 290.810739 170.318939 284.684939 162.597 276.963 
C 154.875061 269.241061 148.749261 260.073154 144.570178 249.983954 
C 140.391095 239.894754 138.24 229.080471 138.24 218.16 
C 138.24 207.239529 140.391095 196.425246 144.570178 186.336046 
C 148.749261 176.246846 154.875061 167.078939 162.597 159.357 
C 170.318939 151.635061 179.486846 145.509261 189.576046 141.330178 
C 199.665246 137.151095 210.479529 135 221.4 135 
" clip-path="url(#p22ae85ad5d)" style="fill: none; stroke: #ffffff; stroke-linecap: round"/>
     </g>
     <g id="text_13">
      <!-- 0.4 -->
      <g style="fill: #dc143c" transform="translate(253.223954 139.143928) scale(0.11 -0.11)">
       <use xlink:href="#ArialMT-30"/>
       <use xlink:href="#ArialMT-2e" x="55.615234"/>
       <use xlink:href="#ArialMT-34" x="83.398438"/>
      </g>
     </g>
    </g>
    <g id="ytick_6">
     <g id="line2d_14">
      <path d="M 221.4 114.21 
C 235.050589 114.21 248.568443 116.898868 261.179943 122.122723 
C 273.791443 127.346577 285.251326 135.003826 294.90375 144.65625 
C 304.556174 154.308674 312.213423 165.768557 317.437277 178.380057 
C 322.661132 190.991557 325.35 204.509411 325.35 218.16 
C 325.35 231.810589 322.661132 245.328443 317.437277 257.939943 
C 312.213423 270.551443 304.556174 282.011326 294.90375 291.66375 
C 285.251326 301.316174 273.791443 308.973423 261.179943 314.197277 
C 248.568443 319.421132 235.050589 322.11 221.4 322.11 
C 207.749411 322.11 194.231557 319.421132 181.620057 314.197277 
C 169.008557 308.973423 157.548674 301.316174 147.89625 291.66375 
C 138.243826 282.011326 130.586577 270.551443 125.362723 257.939943 
C 120.138868 245.328443 117.45 231.810589 117.45 218.16 
C 117.45 204.509411 120.138868 190.991557 125.362723 178.380057 
C 130.586577 165.768557 138.243826 154.308674 147.89625 144.65625 
C 157.548674 135.003826 169.008557 127.346577 181.620057 122.122723 
C 194.231557 116.898868 207.749411 114.21 221.4 114.21 
" clip-path="url(#p22ae85ad5d)" style="fill: none; stroke: #ffffff; stroke-linecap: round"/>
     </g>
     <g id="text_14">
      <!-- 0.5 -->
      <g style="fill: #dc143c" transform="translate(261.179943 119.936473) scale(0.11 -0.11)">
       <use xlink:href="#ArialMT-30"/>
       <use xlink:href="#ArialMT-2e" x="55.615234"/>
       <use xlink:href="#ArialMT-35" x="83.398438"/>
      </g>
     </g>
    </g>
    <g id="ytick_7">
     <g id="line2d_15">
      <path d="M 221.4 93.42 
C 237.780707 93.42 254.002132 96.646642 269.135931 102.915267 
C 284.269731 109.183892 298.021591 118.372591 309.6045 129.9555 
C 321.187409 141.538409 330.376108 155.290269 336.644733 170.424069 
C 342.913358 185.557868 346.14 201.779293 346.14 218.16 
C 346.14 234.540707 342.913358 250.762132 336.644733 265.895931 
C 330.376108 281.029731 321.187409 294.781591 309.6045 306.3645 
C 298.021591 317.947409 284.269731 327.136108 269.135931 333.404733 
C 254.002132 339.673358 237.780707 342.9 221.4 342.9 
C 205.019293 342.9 188.797868 339.673358 173.664069 333.404733 
C 158.530269 327.136108 144.778409 317.947409 133.1955 306.3645 
C 121.612591 294.781591 112.423892 281.029731 106.155267 265.895931 
C 99.886642 250.762132 96.66 234.540707 96.66 218.16 
C 96.66 201.779293 99.886642 185.557868 106.155267 170.424069 
C 112.423892 155.290269 121.612591 141.538409 133.1955 129.9555 
C 144.778409 118.372591 158.530269 109.183892 173.664069 102.915267 
C 188.797868 96.646642 205.019293 93.42 221.4 93.42 
" clip-path="url(#p22ae85ad5d)" style="fill: none; stroke: #ffffff; stroke-linecap: round"/>
     </g>
     <g id="text_15">
      <!-- 0.6 -->
      <g style="fill: #dc143c" transform="translate(269.135931 100.729017) scale(0.11 -0.11)">
       <defs>
        <path id="ArialMT-36" d="M 3184 3459 
L 2625 3416 
Q 2550 3747 2413 3897 
Q 2184 4138 1850 4138 
Q 1581 4138 1378 3988 
Q 1113 3794 959 3422 
Q 806 3050 800 2363 
Q 1003 2672 1297 2822 
Q 1591 2972 1913 2972 
Q 2475 2972 2870 2558 
Q 3266 2144 3266 1488 
Q 3266 1056 3080 686 
Q 2894 316 2569 119 
Q 2244 -78 1831 -78 
Q 1128 -78 684 439 
Q 241 956 241 2144 
Q 241 3472 731 4075 
Q 1159 4600 1884 4600 
Q 2425 4600 2770 4297 
Q 3116 3994 3184 3459 
z
M 888 1484 
Q 888 1194 1011 928 
Q 1134 663 1356 523 
Q 1578 384 1822 384 
Q 2178 384 2434 671 
Q 2691 959 2691 1453 
Q 2691 1928 2437 2201 
Q 2184 2475 1800 2475 
Q 1419 2475 1153 2201 
Q 888 1928 888 1484 
z
" transform="scale(0.015625)"/>
       </defs>
       <use xlink:href="#ArialMT-30"/>
       <use xlink:href="#ArialMT-2e" x="55.615234"/>
       <use xlink:href="#ArialMT-36" x="83.398438"/>
      </g>
     </g>
    </g>
    <g id="ytick_8">
     <g id="line2d_16">
      <path d="M 221.4 72.63 
C 240.510824 72.63 259.43582 76.394416 277.09192 83.707812 
C 294.74802 91.021208 310.791856 101.741357 324.30525 115.25475 
C 337.818643 128.768144 348.538792 144.81198 355.852188 162.46808 
C 363.165584 180.12418 366.93 199.049176 366.93 218.16 
C 366.93 237.270824 363.165584 256.19582 355.852188 273.85192 
C 348.538792 291.50802 337.818643 307.551856 324.30525 321.06525 
C 310.791856 334.578643 294.74802 345.298792 277.09192 352.612188 
C 259.43582 359.925584 240.510824 363.69 221.4 363.69 
C 202.289176 363.69 183.36418 359.925584 165.70808 352.612188 
C 148.05198 345.298792 132.008144 334.578643 118.49475 321.06525 
C 104.981357 307.551856 94.261208 291.50802 86.947812 273.85192 
C 79.634416 256.19582 75.87 237.270824 75.87 218.16 
C 75.87 199.049176 79.634416 180.12418 86.947812 162.46808 
C 94.261208 144.81198 104.981357 128.768144 118.49475 115.25475 
C 132.008144 101.741357 148.05198 91.021208 165.70808 83.707812 
C 183.36418 76.394416 202.289176 72.63 221.4 72.63 
" clip-path="url(#p22ae85ad5d)" style="fill: none; stroke: #ffffff; stroke-linecap: round"/>
     </g>
     <g id="text_16">
      <!-- 0.7 -->
      <g style="fill: #dc143c" transform="translate(277.09192 81.521562) scale(0.11 -0.11)">
       <use xlink:href="#ArialMT-30"/>
       <use xlink:href="#ArialMT-2e" x="55.615234"/>
       <use xlink:href="#ArialMT-37" x="83.398438"/>
      </g>
     </g>
    </g>
    <g id="ytick_9">
     <g id="line2d_17">
      <path d="M 221.4 51.84 
C 243.240942 51.84 264.869509 56.142189 285.047908 64.500356 
C 305.226308 72.858523 323.562121 85.110122 339.006 100.554 
C 354.449878 115.997879 366.701477 134.333692 375.059644 154.512092 
C 383.417811 174.690491 387.72 196.319058 387.72 218.16 
C 387.72 240.000942 383.417811 261.629509 375.059644 281.807908 
C 366.701477 301.986308 354.449878 320.322121 339.006 335.766 
C 323.562121 351.209878 305.226308 363.461477 285.047908 371.819644 
C 264.869509 380.177811 243.240942 384.48 221.4 384.48 
C 199.559058 384.48 177.930491 380.177811 157.752092 371.819644 
C 137.573692 363.461477 119.237879 351.209878 103.794 335.766 
C 88.350122 320.322121 76.098523 301.986308 67.740356 281.807908 
C 59.382189 261.629509 55.08 240.000942 55.08 218.16 
C 55.08 196.319058 59.382189 174.690491 67.740356 154.512092 
C 76.098523 134.333692 88.350122 115.997879 103.794 100.554 
C 119.237879 85.110122 137.573692 72.858523 157.752092 64.500356 
C 177.930491 56.142189 199.559058 51.84 221.4 51.84 
" clip-path="url(#p22ae85ad5d)" style="fill: none; stroke: #ffffff; stroke-linecap: round"/>
     </g>
     <g id="text_17">
      <!-- 0.8 -->
      <g style="fill: #dc143c" transform="translate(285.047908 62.314106) scale(0.11 -0.11)">
       <use xlink:href="#ArialMT-30"/>
       <use xlink:href="#ArialMT-2e" x="55.615234"/>
       <use xlink:href="#ArialMT-38" x="83.398438"/>
      </g>
     </g>
    </g>
   </g>
   <g id="line2d_18">
    <defs>
     <path id="mc6f6a6137d" d="M 0 0.5 
C 0.132602 0.5 0.25979 0.447317 0.353553 0.353553 
C 0.447317 0.25979 0.5 0.132602 0.5 0 
C 0.5 -0.132602 0.447317 -0.25979 0.353553 -0.353553 
C 0.25979 -0.447317 0.132602 -0.5 0 -0.5 
C -0.132602 -0.5 -0.25979 -0.447317 -0.353553 -0.353553 
C -0.447317 -0.25979 -0.5 -0.132602 -0.5 0 
C -0.5 0.132602 -0.447317 0.25979 -0.353553 0.353553 
C -0.25979 0.447317 -0.132602 0.5 0 0.5 
z
" style="stroke: #000000"/>
    </defs>
    <g clip-path="url(#p22ae85ad5d)">
     <use xlink:href="#mc6f6a6137d" x="213.432124" y="370.19613" style="stroke: #000000"/>
     <use xlink:href="#mc6f6a6137d" x="216.999423" y="302.128002" style="stroke: #000000"/>
     <use xlink:href="#mc6f6a6137d" x="225.50082" y="139.911687" style="stroke: #000000"/>
     <use xlink:href="#mc6f6a6137d" x="229.045005" y="72.28462" style="stroke: #000000"/>
     <use xlink:href="#mc6f6a6137d" x="206.057863" y="364.130679" style="stroke: #000000"/>
     <use xlink:href="#mc6f6a6137d" x="213.266361" y="295.546406" style="stroke: #000000"/>
     <use xlink:href="#mc6f6a6137d" x="230.948552" y="127.311598" style="stroke: #000000"/>
     <use xlink:href="#mc6f6a6137d" x="236.968171" y="70.038744" style="stroke: #000000"/>
     <use xlink:href="#mc6f6a6137d" x="198.439374" y="363.127686" style="stroke: #000000"/>
     <use xlink:href="#mc6f6a6137d" x="210.671146" y="285.899321" style="stroke: #000000"/>
     <use xlink:href="#mc6f6a6137d" x="235.263428" y="130.62976" style="stroke: #000000"/>
     <use xlink:href="#mc6f6a6137d" x="244.920819" y="69.655392" style="stroke: #000000"/>
     <use xlink:href="#mc6f6a6137d" x="191.260141" y="359.956886" style="stroke: #000000"/>
     <use xlink:href="#mc6f6a6137d" x="204.572446" y="297.327417" style="stroke: #000000"/>
     <use xlink:href="#mc6f6a6137d" x="240.392488" y="128.807371" style="stroke: #000000"/>
     <use xlink:href="#mc6f6a6137d" x="252.807565" y="70.399024" style="stroke: #000000"/>
     <use xlink:href="#mc6f6a6137d" x="183.880371" y="358.18516" style="stroke: #000000"/>
     <use xlink:href="#mc6f6a6137d" x="203.649232" y="284.406767" style="stroke: #000000"/>
     <use xlink:href="#mc6f6a6137d" x="245.042814" y="129.923815" style="stroke: #000000"/>
     <use xlink:href="#mc6f6a6137d" x="260.861823" y="70.886471" style="stroke: #000000"/>
     <use xlink:href="#mc6f6a6137d" x="176.60344" y="356.029635" style="stroke: #000000"/>
     <use xlink:href="#mc6f6a6137d" x="196.872887" y="293.646692" style="stroke: #000000"/>
     <use xlink:href="#mc6f6a6137d" x="249.348428" y="132.143584" style="stroke: #000000"/>
     <use xlink:href="#mc6f6a6137d" x="268.731898" y="72.487398" style="stroke: #000000"/>
     <use xlink:href="#mc6f6a6137d" x="169.449293" y="353.496219" style="stroke: #000000"/>
     <use xlink:href="#mc6f6a6137d" x="193.514432" y="290.804387" style="stroke: #000000"/>
     <use xlink:href="#mc6f6a6137d" x="253.811877" y="133.724175" style="stroke: #000000"/>
     <use xlink:href="#mc6f6a6137d" x="276.541284" y="74.512044" style="stroke: #000000"/>
     <use xlink:href="#mc6f6a6137d" x="159.476471" y="357.242524" style="stroke: #000000"/>
     <use xlink:href="#mc6f6a6137d" x="186.556587" y="296.419587" style="stroke: #000000"/>
     <use xlink:href="#mc6f6a6137d" x="253.656869" y="145.709886" style="stroke: #000000"/>
     <use xlink:href="#mc6f6a6137d" x="280.5212" y="85.371612" style="stroke: #000000"/>
     <use xlink:href="#mc6f6a6137d" x="155.587397" y="347.324505" style="stroke: #000000"/>
     <use xlink:href="#mc6f6a6137d" x="186.073786" y="287.491598" style="stroke: #000000"/>
     <use xlink:href="#mc6f6a6137d" x="263.281211" y="135.963495" style="stroke: #000000"/>
     <use xlink:href="#mc6f6a6137d" x="290.300497" y="82.935161" style="stroke: #000000"/>
     <use xlink:href="#mc6f6a6137d" x="148.917643" y="343.703124" style="stroke: #000000"/>
     <use xlink:href="#mc6f6a6137d" x="183.270077" y="284.202964" style="stroke: #000000"/>
     <use xlink:href="#mc6f6a6137d" x="190.126368" y="272.32752" style="stroke: #000000"/>
     <use xlink:href="#mc6f6a6137d" x="267.525647" y="138.268036" style="stroke: #000000"/>
     <use xlink:href="#mc6f6a6137d" x="297.283192" y="86.726456" style="stroke: #000000"/>
     <use xlink:href="#mc6f6a6137d" x="142.446559" y="339.737638" style="stroke: #000000"/>
     <use xlink:href="#mc6f6a6137d" x="179.020182" y="283.419198" style="stroke: #000000"/>
     <use xlink:href="#mc6f6a6137d" x="185.696755" y="273.138175" style="stroke: #000000"/>
     <use xlink:href="#mc6f6a6137d" x="270.658795" y="142.308108" style="stroke: #000000"/>
     <use xlink:href="#mc6f6a6137d" x="282.470186" y="124.120161" style="stroke: #000000"/>
     <use xlink:href="#mc6f6a6137d" x="304.440447" y="90.288925" style="stroke: #000000"/>
     <use xlink:href="#mc6f6a6137d" x="137.251877" y="333.979955" style="stroke: #000000"/>
     <use xlink:href="#mc6f6a6137d" x="175.662859" y="281.111774" style="stroke: #000000"/>
     <use xlink:href="#mc6f6a6137d" x="274.561068" y="144.990067" style="stroke: #000000"/>
     <use xlink:href="#mc6f6a6137d" x="311.841217" y="93.678344" style="stroke: #000000"/>
     <use xlink:href="#mc6f6a6137d" x="131.305651" y="329.417255" style="stroke: #000000"/>
     <use xlink:href="#mc6f6a6137d" x="172.430899" y="278.631804" style="stroke: #000000"/>
     <use xlink:href="#mc6f6a6137d" x="181.093452" y="267.934442" style="stroke: #000000"/>
     <use xlink:href="#mc6f6a6137d" x="278.887675" y="147.168633" style="stroke: #000000"/>
     <use xlink:href="#mc6f6a6137d" x="318.670557" y="98.040866" style="stroke: #000000"/>
     <use xlink:href="#mc6f6a6137d" x="125.606367" y="324.549607" style="stroke: #000000"/>
     <use xlink:href="#mc6f6a6137d" x="170.372203" y="274.83211" style="stroke: #000000"/>
     <use xlink:href="#mc6f6a6137d" x="282.524292" y="150.274597" style="stroke: #000000"/>
     <use xlink:href="#mc6f6a6137d" x="323.890225" y="104.333073" style="stroke: #000000"/>
     <use xlink:href="#mc6f6a6137d" x="385.336493" y="36.090079" style="stroke: #000000"/>
     <use xlink:href="#mc6f6a6137d" x="120.169647" y="319.390353" style="stroke: #000000"/>
     <use xlink:href="#mc6f6a6137d" x="168.569994" y="270.990006" style="stroke: #000000"/>
     <use xlink:href="#mc6f6a6137d" x="285.99337" y="153.56663" style="stroke: #000000"/>
     <use xlink:href="#mc6f6a6137d" x="329.707007" y="109.852993" style="stroke: #000000"/>
     <use xlink:href="#mc6f6a6137d" x="115.010393" y="313.953633" style="stroke: #000000"/>
     <use xlink:href="#mc6f6a6137d" x="165.877487" y="268.152695" style="stroke: #000000"/>
     <use xlink:href="#mc6f6a6137d" x="174.918324" y="260.012289" style="stroke: #000000"/>
     <use xlink:href="#mc6f6a6137d" x="289.285403" y="157.035708" style="stroke: #000000"/>
     <use xlink:href="#mc6f6a6137d" x="335.746051" y="115.202353" style="stroke: #000000"/>
     <use xlink:href="#mc6f6a6137d" x="110.142745" y="308.254349" style="stroke: #000000"/>
     <use xlink:href="#mc6f6a6137d" x="162.134968" y="266.151876" style="stroke: #000000"/>
     <use xlink:href="#mc6f6a6137d" x="293.092721" y="160.10438" style="stroke: #000000"/>
     <use xlink:href="#mc6f6a6137d" x="340.977731" y="121.327863" style="stroke: #000000"/>
     <use xlink:href="#mc6f6a6137d" x="105.580045" y="302.308123" style="stroke: #000000"/>
     <use xlink:href="#mc6f6a6137d" x="172.007478" y="254.045768" style="stroke: #000000"/>
     <use xlink:href="#mc6f6a6137d" x="293.834406" y="165.533324" style="stroke: #000000"/>
     <use xlink:href="#mc6f6a6137d" x="346.445263" y="127.309299" style="stroke: #000000"/>
     <use xlink:href="#mc6f6a6137d" x="93.716787" y="301.078448" style="stroke: #000000"/>
     <use xlink:href="#mc6f6a6137d" x="156.140802" y="260.539818" style="stroke: #000000"/>
     <use xlink:href="#mc6f6a6137d" x="287.114617" y="175.484429" style="stroke: #000000"/>
     <use xlink:href="#mc6f6a6137d" x="343.909283" y="138.601541" style="stroke: #000000"/>
     <use xlink:href="#mc6f6a6137d" x="97.418645" y="289.740669" style="stroke: #000000"/>
     <use xlink:href="#mc6f6a6137d" x="156.696721" y="255.516455" style="stroke: #000000"/>
     <use xlink:href="#mc6f6a6137d" x="165.933031" y="250.18387" style="stroke: #000000"/>
     <use xlink:href="#mc6f6a6137d" x="299.725946" y="172.938494" style="stroke: #000000"/>
     <use xlink:href="#mc6f6a6137d" x="355.256736" y="140.877777" style="stroke: #000000"/>
     <use xlink:href="#mc6f6a6137d" x="93.842314" y="283.153887" style="stroke: #000000"/>
     <use xlink:href="#mc6f6a6137d" x="154.830309" y="252.078952" style="stroke: #000000"/>
     <use xlink:href="#mc6f6a6137d" x="302.792395" y="176.688503" style="stroke: #000000"/>
     <use xlink:href="#mc6f6a6137d" x="359.736984" y="147.673786" style="stroke: #000000"/>
     <use xlink:href="#mc6f6a6137d" x="413.858802" y="120.097342" style="stroke: #000000"/>
     <use xlink:href="#mc6f6a6137d" x="90.61561" y="276.388962" style="stroke: #000000"/>
     <use xlink:href="#mc6f6a6137d" x="164.260231" y="243.600264" style="stroke: #000000"/>
     <use xlink:href="#mc6f6a6137d" x="305.675751" y="180.638018" style="stroke: #000000"/>
     <use xlink:href="#mc6f6a6137d" x="363.869378" y="154.728546" style="stroke: #000000"/>
     <use xlink:href="#mc6f6a6137d" x="87.747377" y="269.464435" style="stroke: #000000"/>
     <use xlink:href="#mc6f6a6137d" x="151.649489" y="244.934713" style="stroke: #000000"/>
     <use xlink:href="#mc6f6a6137d" x="168.557073" y="238.444499" style="stroke: #000000"/>
     <use xlink:href="#mc6f6a6137d" x="305.835825" y="185.748123" style="stroke: #000000"/>
     <use xlink:href="#mc6f6a6137d" x="366.993875" y="162.271748" style="stroke: #000000"/>
     <use xlink:href="#mc6f6a6137d" x="85.245477" y="262.399286" style="stroke: #000000"/>
     <use xlink:href="#mc6f6a6137d" x="150.3438" y="241.247559" style="stroke: #000000"/>
     <use xlink:href="#mc6f6a6137d" x="168.967868" y="235.196233" style="stroke: #000000"/>
     <use xlink:href="#mc6f6a6137d" x="307.416416" y="190.211572" style="stroke: #000000"/>
     <use xlink:href="#mc6f6a6137d" x="368.399523" y="170.39696" style="stroke: #000000"/>
     <use xlink:href="#mc6f6a6137d" x="83.116767" y="255.212881" style="stroke: #000000"/>
     <use xlink:href="#mc6f6a6137d" x="147.738645" y="237.897501" style="stroke: #000000"/>
     <use xlink:href="#mc6f6a6137d" x="168.148116" y="232.428799" style="stroke: #000000"/>
     <use xlink:href="#mc6f6a6137d" x="313.962935" y="193.357836" style="stroke: #000000"/>
     <use xlink:href="#mc6f6a6137d" x="372.038209" y="177.796613" style="stroke: #000000"/>
     <use xlink:href="#mc6f6a6137d" x="81.367081" y="247.924916" style="stroke: #000000"/>
     <use xlink:href="#mc6f6a6137d" x="148.319746" y="233.693688" style="stroke: #000000"/>
     <use xlink:href="#mc6f6a6137d" x="308.97732" y="199.544866" style="stroke: #000000"/>
     <use xlink:href="#mc6f6a6137d" x="373.26644" y="185.879792" style="stroke: #000000"/>
     <use xlink:href="#mc6f6a6137d" x="80.001216" y="240.555367" style="stroke: #000000"/>
     <use xlink:href="#mc6f6a6137d" x="162.569853" y="227.47778" style="stroke: #000000"/>
     <use xlink:href="#mc6f6a6137d" x="309.831539" y="204.15382" style="stroke: #000000"/>
     <use xlink:href="#mc6f6a6137d" x="374.0615" y="193.980794" style="stroke: #000000"/>
     <use xlink:href="#mc6f6a6137d" x="79.022915" y="233.124435" style="stroke: #000000"/>
     <use xlink:href="#mc6f6a6137d" x="147.096375" y="225.969626" style="stroke: #000000"/>
     <use xlink:href="#mc6f6a6137d" x="307.710637" y="209.088386" style="stroke: #000000"/>
     <use xlink:href="#mc6f6a6137d" x="375.117725" y="202.003616" style="stroke: #000000"/>
     <use xlink:href="#mc6f6a6137d" x="78.43486" y="225.652485" style="stroke: #000000"/>
     <use xlink:href="#mc6f6a6137d" x="146.789481" y="222.070172" style="stroke: #000000"/>
     <use xlink:href="#mc6f6a6137d" x="309.899863" y="213.521919" style="stroke: #000000"/>
     <use xlink:href="#mc6f6a6137d" x="375.056918" y="210.107182" style="stroke: #000000"/>
     <use xlink:href="#mc6f6a6137d" x="67.318476" y="218.16" style="stroke: #000000"/>
     <use xlink:href="#mc6f6a6137d" x="134.14567" y="218.16" style="stroke: #000000"/>
     <use xlink:href="#mc6f6a6137d" x="298.80128" y="218.16" style="stroke: #000000"/>
     <use xlink:href="#mc6f6a6137d" x="365.307462" y="218.16" style="stroke: #000000"/>
     <use xlink:href="#mc6f6a6137d" x="78.43486" y="210.667515" style="stroke: #000000"/>
     <use xlink:href="#mc6f6a6137d" x="148.328433" y="214.330481" style="stroke: #000000"/>
     <use xlink:href="#mc6f6a6137d" x="311.719063" y="222.893421" style="stroke: #000000"/>
     <use xlink:href="#mc6f6a6137d" x="374.359325" y="226.176259" style="stroke: #000000"/>
     <use xlink:href="#mc6f6a6137d" x="79.022915" y="203.195565" style="stroke: #000000"/>
     <use xlink:href="#mc6f6a6137d" x="160.681937" y="211.778274" style="stroke: #000000"/>
     <use xlink:href="#mc6f6a6137d" x="313.145932" y="227.802886" style="stroke: #000000"/>
     <use xlink:href="#mc6f6a6137d" x="334.559268" y="230.053518" style="stroke: #000000"/>
     <use xlink:href="#mc6f6a6137d" x="373.033537" y="234.097327" style="stroke: #000000"/>
     <use xlink:href="#mc6f6a6137d" x="80.001216" y="195.764633" style="stroke: #000000"/>
     <use xlink:href="#mc6f6a6137d" x="147.606929" y="206.472326" style="stroke: #000000"/>
     <use xlink:href="#mc6f6a6137d" x="311.624165" y="232.450104" style="stroke: #000000"/>
     <use xlink:href="#mc6f6a6137d" x="373.373421" y="242.230225" style="stroke: #000000"/>
     <use xlink:href="#mc6f6a6137d" x="79.603114" y="188.020141" style="stroke: #000000"/>
     <use xlink:href="#mc6f6a6137d" x="148.319746" y="202.626312" style="stroke: #000000"/>
     <use xlink:href="#mc6f6a6137d" x="311.635382" y="237.340123" style="stroke: #000000"/>
     <use xlink:href="#mc6f6a6137d" x="369.849925" y="249.714006" style="stroke: #000000"/>
     <use xlink:href="#mc6f6a6137d" x="83.116767" y="181.107119" style="stroke: #000000"/>
     <use xlink:href="#mc6f6a6137d" x="149.23287" y="198.822876" style="stroke: #000000"/>
     <use xlink:href="#mc6f6a6137d" x="309.636185" y="241.802814" style="stroke: #000000"/>
     <use xlink:href="#mc6f6a6137d" x="369.350123" y="257.803116" style="stroke: #000000"/>
     <use xlink:href="#mc6f6a6137d" x="85.245477" y="173.920714" style="stroke: #000000"/>
     <use xlink:href="#mc6f6a6137d" x="150.3438" y="195.072441" style="stroke: #000000"/>
     <use xlink:href="#mc6f6a6137d" x="304.812785" y="245.262457" style="stroke: #000000"/>
     <use xlink:href="#mc6f6a6137d" x="363.723177" y="264.403604" style="stroke: #000000"/>
     <use xlink:href="#mc6f6a6137d" x="86.063781" y="166.209293" style="stroke: #000000"/>
     <use xlink:href="#mc6f6a6137d" x="150.2053" y="190.830915" style="stroke: #000000"/>
     <use xlink:href="#mc6f6a6137d" x="304.135126" y="249.919039" style="stroke: #000000"/>
     <use xlink:href="#mc6f6a6137d" x="363.741865" y="272.799923" style="stroke: #000000"/>
     <use xlink:href="#mc6f6a6137d" x="88.968145" y="159.197539" style="stroke: #000000"/>
     <use xlink:href="#mc6f6a6137d" x="151.733164" y="187.142326" style="stroke: #000000"/>
     <use xlink:href="#mc6f6a6137d" x="301.522863" y="253.832997" style="stroke: #000000"/>
     <use xlink:href="#mc6f6a6137d" x="359.402044" y="279.602469" style="stroke: #000000"/>
     <use xlink:href="#mc6f6a6137d" x="92.235495" y="152.347397" style="stroke: #000000"/>
     <use xlink:href="#mc6f6a6137d" x="153.451979" y="183.538754" style="stroke: #000000"/>
     <use xlink:href="#mc6f6a6137d" x="300.36217" y="258.393235" style="stroke: #000000"/>
     <use xlink:href="#mc6f6a6137d" x="95.856876" y="145.677643" style="stroke: #000000"/>
     <use xlink:href="#mc6f6a6137d" x="155.357036" y="180.030077" style="stroke: #000000"/>
     <use xlink:href="#mc6f6a6137d" x="295.759801" y="261.091651" style="stroke: #000000"/>
     <use xlink:href="#mc6f6a6137d" x="353.441834" y="294.394388" style="stroke: #000000"/>
     <use xlink:href="#mc6f6a6137d" x="92.176361" y="134.241188" style="stroke: #000000"/>
     <use xlink:href="#mc6f6a6137d" x="146.885048" y="169.769424" style="stroke: #000000"/>
     <use xlink:href="#mc6f6a6137d" x="286.314176" y="260.315759" style="stroke: #000000"/>
     <use xlink:href="#mc6f6a6137d" x="342.090953" y="296.537621" style="stroke: #000000"/>
     <use xlink:href="#mc6f6a6137d" x="104.121083" y="132.951879" style="stroke: #000000"/>
     <use xlink:href="#mc6f6a6137d" x="169.58429" y="180.513683" style="stroke: #000000"/>
     <use xlink:href="#mc6f6a6137d" x="288.60851" y="266.989841" style="stroke: #000000"/>
     <use xlink:href="#mc6f6a6137d" x="343.611761" y="306.952042" style="stroke: #000000"/>
     <use xlink:href="#mc6f6a6137d" x="108.741259" y="126.93075" style="stroke: #000000"/>
     <use xlink:href="#mc6f6a6137d" x="160.928196" y="169.190899" style="stroke: #000000"/>
     <use xlink:href="#mc6f6a6137d" x="288.128318" y="272.195527" style="stroke: #000000"/>
     <use xlink:href="#mc6f6a6137d" x="339.344633" y="313.66968" style="stroke: #000000"/>
     <use xlink:href="#mc6f6a6137d" x="113.670224" y="121.159674" style="stroke: #000000"/>
     <use xlink:href="#mc6f6a6137d" x="163.573916" y="166.09316" style="stroke: #000000"/>
     <use xlink:href="#mc6f6a6137d" x="285.894612" y="276.231209" style="stroke: #000000"/>
     <use xlink:href="#mc6f6a6137d" x="332.609724" y="318.293685" style="stroke: #000000"/>
     <use xlink:href="#mc6f6a6137d" x="117.614595" y="114.374595" style="stroke: #000000"/>
     <use xlink:href="#mc6f6a6137d" x="165.275941" y="162.035941" style="stroke: #000000"/>
     <use xlink:href="#mc6f6a6137d" x="282.114523" y="278.874523" style="stroke: #000000"/>
     <use xlink:href="#mc6f6a6137d" x="327.216723" y="323.976723" style="stroke: #000000"/>
     <use xlink:href="#mc6f6a6137d" x="124.399674" y="110.430224" style="stroke: #000000"/>
     <use xlink:href="#mc6f6a6137d" x="175.508547" y="167.192378" style="stroke: #000000"/>
     <use xlink:href="#mc6f6a6137d" x="279.471209" y="282.654612" style="stroke: #000000"/>
     <use xlink:href="#mc6f6a6137d" x="130.17075" y="105.501259" style="stroke: #000000"/>
     <use xlink:href="#mc6f6a6137d" x="170.465284" y="155.260864" style="stroke: #000000"/>
     <use xlink:href="#mc6f6a6137d" x="275.435527" y="284.888318" style="stroke: #000000"/>
     <use xlink:href="#mc6f6a6137d" x="317.35171" y="336.650494" style="stroke: #000000"/>
     <use xlink:href="#mc6f6a6137d" x="135.12798" y="99.416752" style="stroke: #000000"/>
     <use xlink:href="#mc6f6a6137d" x="174.746659" y="153.947184" style="stroke: #000000"/>
     <use xlink:href="#mc6f6a6137d" x="271.869183" y="287.624871" style="stroke: #000000"/>
     <use xlink:href="#mc6f6a6137d" x="308.94306" y="338.652685" style="stroke: #000000"/>
     <use xlink:href="#mc6f6a6137d" x="141.460755" y="95.064357" style="stroke: #000000"/>
     <use xlink:href="#mc6f6a6137d" x="270.163629" y="293.249404" style="stroke: #000000"/>
     <use xlink:href="#mc6f6a6137d" x="303.674286" y="344.85129" style="stroke: #000000"/>
     <use xlink:href="#mc6f6a6137d" x="147.104302" y="89.476076" style="stroke: #000000"/>
     <use xlink:href="#mc6f6a6137d" x="180.931968" y="148.067312" style="stroke: #000000"/>
     <use xlink:href="#mc6f6a6137d" x="265.252696" y="294.115098" style="stroke: #000000"/>
     <use xlink:href="#mc6f6a6137d" x="296.223722" y="347.758489" style="stroke: #000000"/>
     <use xlink:href="#mc6f6a6137d" x="154.765668" y="87.382761" style="stroke: #000000"/>
     <use xlink:href="#mc6f6a6137d" x="183.942756" y="144.64602" style="stroke: #000000"/>
     <use xlink:href="#mc6f6a6137d" x="262.871497" y="299.552395" style="stroke: #000000"/>
     <use xlink:href="#mc6f6a6137d" x="289.338518" y="351.496849" style="stroke: #000000"/>
     <use xlink:href="#mc6f6a6137d" x="158.729398" y="77.399524" style="stroke: #000000"/>
     <use xlink:href="#mc6f6a6137d" x="188.480337" y="144.221226" style="stroke: #000000"/>
     <use xlink:href="#mc6f6a6137d" x="252.881937" y="288.869588" style="stroke: #000000"/>
     <use xlink:href="#mc6f6a6137d" x="279.63675" y="348.961881" style="stroke: #000000"/>
     <use xlink:href="#mc6f6a6137d" x="168.149606" y="79.437981" style="stroke: #000000"/>
     <use xlink:href="#mc6f6a6137d" x="194.070915" y="146.9653" style="stroke: #000000"/>
     <use xlink:href="#mc6f6a6137d" x="253.811877" y="302.595825" style="stroke: #000000"/>
     <use xlink:href="#mc6f6a6137d" x="274.519029" y="356.539802" style="stroke: #000000"/>
     <use xlink:href="#mc6f6a6137d" x="175.482733" y="76.841184" style="stroke: #000000"/>
     <use xlink:href="#mc6f6a6137d" x="195.904037" y="139.691495" style="stroke: #000000"/>
     <use xlink:href="#mc6f6a6137d" x="247.93322" y="299.820853" style="stroke: #000000"/>
     <use xlink:href="#mc6f6a6137d" x="255.017613" y="321.624375" style="stroke: #000000"/>
     <use xlink:href="#mc6f6a6137d" x="267.203992" y="359.130193" style="stroke: #000000"/>
     <use xlink:href="#mc6f6a6137d" x="182.941717" y="74.631733" style="stroke: #000000"/>
     <use xlink:href="#mc6f6a6137d" x="200.045703" y="138.464678" style="stroke: #000000"/>
     <use xlink:href="#mc6f6a6137d" x="245.042814" y="306.396185" style="stroke: #000000"/>
     <use xlink:href="#mc6f6a6137d" x="260.314928" y="363.392489" style="stroke: #000000"/>
     <use xlink:href="#mc6f6a6137d" x="190.506112" y="72.815682" style="stroke: #000000"/>
     <use xlink:href="#mc6f6a6137d" x="204.245899" y="137.4563" style="stroke: #000000"/>
     <use xlink:href="#mc6f6a6137d" x="240.392488" y="307.512629" style="stroke: #000000"/>
     <use xlink:href="#mc6f6a6137d" x="252.069153" y="362.447019" style="stroke: #000000"/>
     <use xlink:href="#mc6f6a6137d" x="198.155184" y="71.39801" style="stroke: #000000"/>
     <use xlink:href="#mc6f6a6137d" x="208.493113" y="136.669125" style="stroke: #000000"/>
     <use xlink:href="#mc6f6a6137d" x="235.831282" y="309.275527" style="stroke: #000000"/>
     <use xlink:href="#mc6f6a6137d" x="244.475722" y="363.854378" style="stroke: #000000"/>
     <use xlink:href="#mc6f6a6137d" x="205.86797" y="70.382603" style="stroke: #000000"/>
     <use xlink:href="#mc6f6a6137d" x="212.610909" y="134.537382" style="stroke: #000000"/>
     <use xlink:href="#mc6f6a6137d" x="231.042886" y="309.905932" style="stroke: #000000"/>
     <use xlink:href="#mc6f6a6137d" x="236.819043" y="364.862399" style="stroke: #000000"/>
     <use xlink:href="#mc6f6a6137d" x="213.623327" y="69.772243" style="stroke: #000000"/>
     <use xlink:href="#mc6f6a6137d" x="217.164134" y="137.334855" style="stroke: #000000"/>
     <use xlink:href="#mc6f6a6137d" x="226.180828" y="309.38363" style="stroke: #000000"/>
     <use xlink:href="#mc6f6a6137d" x="229.120102" y="365.468318" style="stroke: #000000"/>
     <use xlink:href="#mc6f6a6137d" x="221.4" y="69.568604" style="stroke: #000000"/>
     <use xlink:href="#mc6f6a6137d" x="221.4" y="135.653331" style="stroke: #000000"/>
     <use xlink:href="#mc6f6a6137d" x="221.4" y="365.670476" style="stroke: #000000"/>
     <use xlink:href="#mc6f6a6137d" x="229.176673" y="69.772243" style="stroke: #000000"/>
     <use xlink:href="#mc6f6a6137d" x="225.635866" y="137.334855" style="stroke: #000000"/>
     <use xlink:href="#mc6f6a6137d" x="213.642512" y="366.181696" style="stroke: #000000"/>
     <use xlink:href="#mc6f6a6137d" x="237.122622" y="68.569248" style="stroke: #000000"/>
     <use xlink:href="#mc6f6a6137d" x="230.024295" y="136.105312" style="stroke: #000000"/>
     <use xlink:href="#mc6f6a6137d" x="205.980957" y="364.862399" style="stroke: #000000"/>
     <use xlink:href="#mc6f6a6137d" x="245.503661" y="65.975476" style="stroke: #000000"/>
     <use xlink:href="#mc6f6a6137d" x="235.049584" y="131.979916" style="stroke: #000000"/>
     <use xlink:href="#mc6f6a6137d" x="209.142468" y="295.551008" style="stroke: #000000"/>
     <use xlink:href="#mc6f6a6137d" x="198.887913" y="360.295722" style="stroke: #000000"/>
     <use xlink:href="#mc6f6a6137d" x="252.672983" y="71.032183" style="stroke: #000000"/>
     <use xlink:href="#mc6f6a6137d" x="238.881888" y="135.914185" style="stroke: #000000"/>
     <use xlink:href="#mc6f6a6137d" x="191.029181" y="361.04347" style="stroke: #000000"/>
     <use xlink:href="#mc6f6a6137d" x="260.330199" y="72.870518" style="stroke: #000000"/>
     <use xlink:href="#mc6f6a6137d" x="243.162343" y="136.941832" style="stroke: #000000"/>
     <use xlink:href="#mc6f6a6137d" x="184.154008" y="357.163934" style="stroke: #000000"/>
     <use xlink:href="#mc6f6a6137d" x="267.880711" y="75.107081" style="stroke: #000000"/>
     <use xlink:href="#mc6f6a6137d" x="247.383149" y="138.192091" style="stroke: #000000"/>
     <use xlink:href="#mc6f6a6137d" x="176.482839" y="356.400808" style="stroke: #000000"/>
     <use xlink:href="#mc6f6a6137d" x="275.303822" y="77.735743" style="stroke: #000000"/>
     <use xlink:href="#mc6f6a6137d" x="252.099871" y="138.184102" style="stroke: #000000"/>
     <use xlink:href="#mc6f6a6137d" x="188.017864" y="305.123437" style="stroke: #000000"/>
     <use xlink:href="#mc6f6a6137d" x="169.051197" y="354.533295" style="stroke: #000000"/>
     <use xlink:href="#mc6f6a6137d" x="282.579186" y="80.749297" style="stroke: #000000"/>
     <use xlink:href="#mc6f6a6137d" x="255.599733" y="141.346142" style="stroke: #000000"/>
     <use xlink:href="#mc6f6a6137d" x="181.703675" y="307.319405" style="stroke: #000000"/>
     <use xlink:href="#mc6f6a6137d" x="161.402084" y="352.917526" style="stroke: #000000"/>
     <use xlink:href="#mc6f6a6137d" x="289.686863" y="84.139485" style="stroke: #000000"/>
     <use xlink:href="#mc6f6a6137d" x="261.012637" y="140.415823" style="stroke: #000000"/>
     <use xlink:href="#mc6f6a6137d" x="179.11058" y="301.157659" style="stroke: #000000"/>
     <use xlink:href="#mc6f6a6137d" x="154.75689" y="348.954467" style="stroke: #000000"/>
     <use xlink:href="#mc6f6a6137d" x="296.60737" y="87.897014" style="stroke: #000000"/>
     <use xlink:href="#mc6f6a6137d" x="264.232891" y="143.971256" style="stroke: #000000"/>
     <use xlink:href="#mc6f6a6137d" x="148.002969" y="345.287387" style="stroke: #000000"/>
     <use xlink:href="#mc6f6a6137d" x="304.318448" y="90.476787" style="stroke: #000000"/>
     <use xlink:href="#mc6f6a6137d" x="268.056929" y="146.314629" style="stroke: #000000"/>
     <use xlink:href="#mc6f6a6137d" x="170.178709" y="297.033871" style="stroke: #000000"/>
     <use xlink:href="#mc6f6a6137d" x="141.060037" y="341.872695" style="stroke: #000000"/>
     <use xlink:href="#mc6f6a6137d" x="310.887234" y="94.991389" style="stroke: #000000"/>
     <use xlink:href="#mc6f6a6137d" x="272.686808" y="147.569765" style="stroke: #000000"/>
     <use xlink:href="#mc6f6a6137d" x="161.976903" y="299.948876" style="stroke: #000000"/>
     <use xlink:href="#mc6f6a6137d" x="134.695517" y="337.498482" style="stroke: #000000"/>
     <use xlink:href="#mc6f6a6137d" x="317.210742" y="99.843587" style="stroke: #000000"/>
     <use xlink:href="#mc6f6a6137d" x="273.323129" y="154.040276" style="stroke: #000000"/>
     <use xlink:href="#mc6f6a6137d" x="129.925143" y="331.122041" style="stroke: #000000"/>
     <use xlink:href="#mc6f6a6137d" x="323.27164" y="105.020082" style="stroke: #000000"/>
     <use xlink:href="#mc6f6a6137d" x="278.721597" y="154.497917" style="stroke: #000000"/>
     <use xlink:href="#mc6f6a6137d" x="168.333578" y="277.096232" style="stroke: #000000"/>
     <use xlink:href="#mc6f6a6137d" x="123.656364" y="326.715305" style="stroke: #000000"/>
     <use xlink:href="#mc6f6a6137d" x="330.35209" y="109.20791" style="stroke: #000000"/>
     <use xlink:href="#mc6f6a6137d" x="284.225655" y="155.334345" style="stroke: #000000"/>
     <use xlink:href="#mc6f6a6137d" x="165.994155" y="273.565845" style="stroke: #000000"/>
     <use xlink:href="#mc6f6a6137d" x="121.18882" y="318.37118" style="stroke: #000000"/>
     <use xlink:href="#mc6f6a6137d" x="334.539918" y="116.28836" style="stroke: #000000"/>
     <use xlink:href="#mc6f6a6137d" x="286.242604" y="159.775458" style="stroke: #000000"/>
     <use xlink:href="#mc6f6a6137d" x="156.222192" y="276.846362" style="stroke: #000000"/>
     <use xlink:href="#mc6f6a6137d" x="113.380193" y="315.421471" style="stroke: #000000"/>
     <use xlink:href="#mc6f6a6137d" x="341.143834" y="121.193355" style="stroke: #000000"/>
     <use xlink:href="#mc6f6a6137d" x="287.974817" y="164.248776" style="stroke: #000000"/>
     <use xlink:href="#mc6f6a6137d" x="280.665032" y="170.168124" style="stroke: #000000"/>
     <use xlink:href="#mc6f6a6137d" x="140.152536" y="283.952899" style="stroke: #000000"/>
     <use xlink:href="#mc6f6a6137d" x="108.437959" y="309.634857" style="stroke: #000000"/>
     <use xlink:href="#mc6f6a6137d" x="346.054571" y="127.593153" style="stroke: #000000"/>
     <use xlink:href="#mc6f6a6137d" x="291.990235" y="166.873192" style="stroke: #000000"/>
     <use xlink:href="#mc6f6a6137d" x="147.497252" y="271.853489" style="stroke: #000000"/>
     <use xlink:href="#mc6f6a6137d" x="104.976418" y="302.746684" style="stroke: #000000"/>
     <use xlink:href="#mc6f6a6137d" x="350.623639" y="134.241188" style="stroke: #000000"/>
     <use xlink:href="#mc6f6a6137d" x="294.577638" y="170.637886" style="stroke: #000000"/>
     <use xlink:href="#mc6f6a6137d" x="100.709047" y="296.537621" style="stroke: #000000"/>
     <use xlink:href="#mc6f6a6137d" x="354.838514" y="141.119238" style="stroke: #000000"/>
     <use xlink:href="#mc6f6a6137d" x="296.964466" y="174.532835" style="stroke: #000000"/>
     <use xlink:href="#mc6f6a6137d" x="284.768678" y="181.574077" style="stroke: #000000"/>
     <use xlink:href="#mc6f6a6137d" x="96.772482" y="290.113731" style="stroke: #000000"/>
     <use xlink:href="#mc6f6a6137d" x="358.687643" y="148.208452" style="stroke: #000000"/>
     <use xlink:href="#mc6f6a6137d" x="299.144177" y="178.547363" style="stroke: #000000"/>
     <use xlink:href="#mc6f6a6137d" x="93.177512" y="283.492621" style="stroke: #000000"/>
     <use xlink:href="#mc6f6a6137d" x="362.160476" y="155.489398" style="stroke: #000000"/>
     <use xlink:href="#mc6f6a6137d" x="292.485413" y="186.510735" style="stroke: #000000"/>
     <use xlink:href="#mc6f6a6137d" x="143.806099" y="252.707031" style="stroke: #000000"/>
     <use xlink:href="#mc6f6a6137d" x="89.933992" y="276.692438" style="stroke: #000000"/>
     <use xlink:href="#mc6f6a6137d" x="365.247495" y="162.94212" style="stroke: #000000"/>
     <use xlink:href="#mc6f6a6137d" x="304.347588" y="186.319404" style="stroke: #000000"/>
     <use xlink:href="#mc6f6a6137d" x="147.360982" y="246.580916" style="stroke: #000000"/>
     <use xlink:href="#mc6f6a6137d" x="87.05081" y="269.731822" style="stroke: #000000"/>
     <use xlink:href="#mc6f6a6137d" x="367.940237" y="170.546191" style="stroke: #000000"/>
     <use xlink:href="#mc6f6a6137d" x="305.900319" y="190.704182" style="stroke: #000000"/>
     <use xlink:href="#mc6f6a6137d" x="290.990561" y="195.548656" style="stroke: #000000"/>
     <use xlink:href="#mc6f6a6137d" x="148.698144" y="241.782265" style="stroke: #000000"/>
     <use xlink:href="#mc6f6a6137d" x="84.535871" y="262.629851" style="stroke: #000000"/>
     <use xlink:href="#mc6f6a6137d" x="372.011984" y="177.80364" style="stroke: #000000"/>
     <use xlink:href="#mc6f6a6137d" x="295.061355" y="198.422499" style="stroke: #000000"/>
     <use xlink:href="#mc6f6a6137d" x="144.795781" y="238.686039" style="stroke: #000000"/>
     <use xlink:href="#mc6f6a6137d" x="82.396066" y="255.405992" style="stroke: #000000"/>
     <use xlink:href="#mc6f6a6137d" x="372.114473" y="186.12465" style="stroke: #000000"/>
     <use xlink:href="#mc6f6a6137d" x="308.307332" y="199.687276" style="stroke: #000000"/>
     <use xlink:href="#mc6f6a6137d" x="145.690123" y="234.252631" style="stroke: #000000"/>
     <use xlink:href="#mc6f6a6137d" x="373.584524" y="194.056339" style="stroke: #000000"/>
     <use xlink:href="#mc6f6a6137d" x="309.155016" y="204.260971" style="stroke: #000000"/>
     <use xlink:href="#mc6f6a6137d" x="144.008992" y="230.417532" style="stroke: #000000"/>
     <use xlink:href="#mc6f6a6137d" x="79.264278" y="240.672087" style="stroke: #000000"/>
     <use xlink:href="#mc6f6a6137d" x="374.637449" y="202.054095" style="stroke: #000000"/>
     <use xlink:href="#mc6f6a6137d" x="308.176341" y="209.039439" style="stroke: #000000"/>
     <use xlink:href="#mc6f6a6137d" x="144.422732" y="226.250637" style="stroke: #000000"/>
     <use xlink:href="#mc6f6a6137d" x="82.651542" y="232.743051" style="stroke: #000000"/>
     <use xlink:href="#mc6f6a6137d" x="375.27036" y="210.095996" style="stroke: #000000"/>
     <use xlink:href="#mc6f6a6137d" x="310.127129" y="213.510008" style="stroke: #000000"/>
     <use xlink:href="#mc6f6a6137d" x="145.061508" y="222.160731" style="stroke: #000000"/>
     <use xlink:href="#mc6f6a6137d" x="79.143884" y="225.615327" style="stroke: #000000"/>
     <use xlink:href="#mc6f6a6137d" x="375.481524" y="218.16" style="stroke: #000000"/>
     <use xlink:href="#mc6f6a6137d" x="296.112911" y="218.16" style="stroke: #000000"/>
     <use xlink:href="#mc6f6a6137d" x="144.956745" y="218.16" style="stroke: #000000"/>
     <use xlink:href="#mc6f6a6137d" x="77.492538" y="218.16" style="stroke: #000000"/>
     <use xlink:href="#mc6f6a6137d" x="375.27036" y="226.224004" style="stroke: #000000"/>
     <use xlink:href="#mc6f6a6137d" x="308.534751" y="222.726539" style="stroke: #000000"/>
     <use xlink:href="#mc6f6a6137d" x="146.985818" y="214.260118" style="stroke: #000000"/>
     <use xlink:href="#mc6f6a6137d" x="79.143884" y="210.704673" style="stroke: #000000"/>
     <use xlink:href="#mc6f6a6137d" x="374.637449" y="234.265905" style="stroke: #000000"/>
     <use xlink:href="#mc6f6a6137d" x="308.176341" y="227.280561" style="stroke: #000000"/>
     <use xlink:href="#mc6f6a6137d" x="146.331894" y="210.270024" style="stroke: #000000"/>
     <use xlink:href="#mc6f6a6137d" x="81.185863" y="203.4229" style="stroke: #000000"/>
     <use xlink:href="#mc6f6a6137d" x="373.584524" y="242.263661" style="stroke: #000000"/>
     <use xlink:href="#mc6f6a6137d" x="309.155016" y="232.059029" style="stroke: #000000"/>
     <use xlink:href="#mc6f6a6137d" x="147.801115" y="206.503082" style="stroke: #000000"/>
     <use xlink:href="#mc6f6a6137d" x="79.264278" y="195.647913" style="stroke: #000000"/>
     <use xlink:href="#mc6f6a6137d" x="372.114473" y="250.19535" style="stroke: #000000"/>
     <use xlink:href="#mc6f6a6137d" x="305.19378" y="235.970918" style="stroke: #000000"/>
     <use xlink:href="#mc6f6a6137d" x="148.512056" y="202.667189" style="stroke: #000000"/>
     <use xlink:href="#mc6f6a6137d" x="82.776912" y="188.694753" style="stroke: #000000"/>
     <use xlink:href="#mc6f6a6137d" x="370.231323" y="258.039233" style="stroke: #000000"/>
     <use xlink:href="#mc6f6a6137d" x="307.221441" y="241.155786" style="stroke: #000000"/>
     <use xlink:href="#mc6f6a6137d" x="149.422777" y="198.873761" style="stroke: #000000"/>
     <use xlink:href="#mc6f6a6137d" x="83.802572" y="181.29088" style="stroke: #000000"/>
     <use xlink:href="#mc6f6a6137d" x="369.693487" y="266.343475" style="stroke: #000000"/>
     <use xlink:href="#mc6f6a6137d" x="304.383799" y="245.123071" style="stroke: #000000"/>
     <use xlink:href="#mc6f6a6137d" x="150.530783" y="195.133196" style="stroke: #000000"/>
     <use xlink:href="#mc6f6a6137d" x="85.920725" y="174.140115" style="stroke: #000000"/>
     <use xlink:href="#mc6f6a6137d" x="365.247495" y="273.37788" style="stroke: #000000"/>
     <use xlink:href="#mc6f6a6137d" x="301.375898" y="248.859871" style="stroke: #000000"/>
     <use xlink:href="#mc6f6a6137d" x="148.248655" y="190.079829" style="stroke: #000000"/>
     <use xlink:href="#mc6f6a6137d" x="88.410217" y="167.110005" style="stroke: #000000"/>
     <use xlink:href="#mc6f6a6137d" x="362.160476" y="280.830602" style="stroke: #000000"/>
     <use xlink:href="#mc6f6a6137d" x="301.110796" y="253.649533" style="stroke: #000000"/>
     <use xlink:href="#mc6f6a6137d" x="150.690412" y="186.678063" style="stroke: #000000"/>
     <use xlink:href="#mc6f6a6137d" x="357.051089" y="287.277682" style="stroke: #000000"/>
     <use xlink:href="#mc6f6a6137d" x="299.144177" y="257.772637" style="stroke: #000000"/>
     <use xlink:href="#mc6f6a6137d" x="151.584563" y="182.587258" style="stroke: #000000"/>
     <use xlink:href="#mc6f6a6137d" x="353.247844" y="294.282388" style="stroke: #000000"/>
     <use xlink:href="#mc6f6a6137d" x="296.964466" y="261.787165" style="stroke: #000000"/>
     <use xlink:href="#mc6f6a6137d" x="284.768678" y="254.745923" style="stroke: #000000"/>
     <use xlink:href="#mc6f6a6137d" x="153.541976" y="178.982151" style="stroke: #000000"/>
     <use xlink:href="#mc6f6a6137d" x="96.772482" y="146.206269" style="stroke: #000000"/>
     <use xlink:href="#mc6f6a6137d" x="349.083213" y="301.078448" style="stroke: #000000"/>
     <use xlink:href="#mc6f6a6137d" x="294.577638" y="265.682114" style="stroke: #000000"/>
     <use xlink:href="#mc6f6a6137d" x="280.196895" y="256.34315" style="stroke: #000000"/>
     <use xlink:href="#mc6f6a6137d" x="155.685383" y="175.484429" style="stroke: #000000"/>
     <use xlink:href="#mc6f6a6137d" x="100.709047" y="139.782379" style="stroke: #000000"/>
     <use xlink:href="#mc6f6a6137d" x="344.568611" y="307.647234" style="stroke: #000000"/>
     <use xlink:href="#mc6f6a6137d" x="291.990235" y="269.446808" style="stroke: #000000"/>
     <use xlink:href="#mc6f6a6137d" x="157.239675" y="171.544795" style="stroke: #000000"/>
     <use xlink:href="#mc6f6a6137d" x="104.390019" y="133.147273" style="stroke: #000000"/>
     <use xlink:href="#mc6f6a6137d" x="339.716413" y="313.970742" style="stroke: #000000"/>
     <use xlink:href="#mc6f6a6137d" x="287.974817" y="272.071224" style="stroke: #000000"/>
     <use xlink:href="#mc6f6a6137d" x="159.767256" y="168.250788" style="stroke: #000000"/>
     <use xlink:href="#mc6f6a6137d" x="108.437959" y="126.685143" style="stroke: #000000"/>
     <use xlink:href="#mc6f6a6137d" x="334.539918" y="320.03164" style="stroke: #000000"/>
     <use xlink:href="#mc6f6a6137d" x="286.242604" y="276.544542" style="stroke: #000000"/>
     <use xlink:href="#mc6f6a6137d" x="161.759821" y="164.459741" style="stroke: #000000"/>
     <use xlink:href="#mc6f6a6137d" x="113.917262" y="121.382108" style="stroke: #000000"/>
     <use xlink:href="#mc6f6a6137d" x="329.053314" y="325.813314" style="stroke: #000000"/>
     <use xlink:href="#mc6f6a6137d" x="281.974856" y="278.734856" style="stroke: #000000"/>
     <use xlink:href="#mc6f6a6137d" x="165.32182" y="162.08182" style="stroke: #000000"/>
     <use xlink:href="#mc6f6a6137d" x="119.129527" y="115.889527" style="stroke: #000000"/>
     <use xlink:href="#mc6f6a6137d" x="48.159372" y="44.919372" style="stroke: #000000"/>
     <use xlink:href="#mc6f6a6137d" x="322.047106" y="329.939936" style="stroke: #000000"/>
     <use xlink:href="#mc6f6a6137d" x="273.46684" y="275.986084" style="stroke: #000000"/>
     <use xlink:href="#mc6f6a6137d" x="167.068283" y="157.818515" style="stroke: #000000"/>
     <use xlink:href="#mc6f6a6137d" x="123.656364" y="109.604695" style="stroke: #000000"/>
     <use xlink:href="#mc6f6a6137d" x="316.059063" y="335.054208" style="stroke: #000000"/>
     <use xlink:href="#mc6f6a6137d" x="276.310929" y="285.96935" style="stroke: #000000"/>
     <use xlink:href="#mc6f6a6137d" x="169.709108" y="154.327064" style="stroke: #000000"/>
     <use xlink:href="#mc6f6a6137d" x="129.925143" y="105.197959" style="stroke: #000000"/>
     <use xlink:href="#mc6f6a6137d" x="309.811566" y="339.848081" style="stroke: #000000"/>
     <use xlink:href="#mc6f6a6137d" x="272.686808" y="288.750235" style="stroke: #000000"/>
     <use xlink:href="#mc6f6a6137d" x="173.120706" y="151.709253" style="stroke: #000000"/>
     <use xlink:href="#mc6f6a6137d" x="135.538933" y="99.98238" style="stroke: #000000"/>
     <use xlink:href="#mc6f6a6137d" x="303.321739" y="344.308415" style="stroke: #000000"/>
     <use xlink:href="#mc6f6a6137d" x="267.195012" y="288.678135" style="stroke: #000000"/>
     <use xlink:href="#mc6f6a6137d" x="177.176685" y="150.062066" style="stroke: #000000"/>
     <use xlink:href="#mc6f6a6137d" x="141.060037" y="94.447305" style="stroke: #000000"/>
     <use xlink:href="#mc6f6a6137d" x="295.695698" y="346.843924" style="stroke: #000000"/>
     <use xlink:href="#mc6f6a6137d" x="263.441618" y="290.978218" style="stroke: #000000"/>
     <use xlink:href="#mc6f6a6137d" x="180.33118" y="147.026717" style="stroke: #000000"/>
     <use xlink:href="#mc6f6a6137d" x="147.644762" y="90.41218" style="stroke: #000000"/>
     <use xlink:href="#mc6f6a6137d" x="288.859082" y="350.555903" style="stroke: #000000"/>
     <use xlink:href="#mc6f6a6137d" x="254.619323" y="283.356592" style="stroke: #000000"/>
     <use xlink:href="#mc6f6a6137d" x="183.685063" y="144.140269" style="stroke: #000000"/>
     <use xlink:href="#mc6f6a6137d" x="155.410217" y="88.647758" style="stroke: #000000"/>
     <use xlink:href="#mc6f6a6137d" x="281.837566" y="353.904995" style="stroke: #000000"/>
     <use xlink:href="#mc6f6a6137d" x="256.243413" y="296.419587" style="stroke: #000000"/>
     <use xlink:href="#mc6f6a6137d" x="187.231098" y="141.415391" style="stroke: #000000"/>
     <use xlink:href="#mc6f6a6137d" x="160.821804" y="82.099144" style="stroke: #000000"/>
     <use xlink:href="#mc6f6a6137d" x="274.650394" y="356.882019" style="stroke: #000000"/>
     <use xlink:href="#mc6f6a6137d" x="250.967746" y="295.186611" style="stroke: #000000"/>
     <use xlink:href="#mc6f6a6137d" x="191.294428" y="139.732304" style="stroke: #000000"/>
     <use xlink:href="#mc6f6a6137d" x="167.771152" y="78.452075" style="stroke: #000000"/>
     <use xlink:href="#mc6f6a6137d" x="267.317267" y="359.478816" style="stroke: #000000"/>
     <use xlink:href="#mc6f6a6137d" x="247.383149" y="298.127909" style="stroke: #000000"/>
     <use xlink:href="#mc6f6a6137d" x="195.152993" y="137.380018" style="stroke: #000000"/>
     <use xlink:href="#mc6f6a6137d" x="175.156396" y="75.836823" style="stroke: #000000"/>
     <use xlink:href="#mc6f6a6137d" x="259.858283" y="361.688267" style="stroke: #000000"/>
     <use xlink:href="#mc6f6a6137d" x="242.754297" y="297.855322" style="stroke: #000000"/>
     <use xlink:href="#mc6f6a6137d" x="199.176942" y="135.222419" style="stroke: #000000"/>
     <use xlink:href="#mc6f6a6137d" x="182.302266" y="72.245271" style="stroke: #000000"/>
     <use xlink:href="#mc6f6a6137d" x="253.053469" y="367.077863" style="stroke: #000000"/>
     <use xlink:href="#mc6f6a6137d" x="239.210918" y="301.95378" style="stroke: #000000"/>
     <use xlink:href="#mc6f6a6137d" x="204.911247" y="140.586515" style="stroke: #000000"/>
     <use xlink:href="#mc6f6a6137d" x="191.178999" y="75.981368" style="stroke: #000000"/>
     <use xlink:href="#mc6f6a6137d" x="244.360626" y="363.127686" style="stroke: #000000"/>
     <use xlink:href="#mc6f6a6137d" x="234.553516" y="301.208031" style="stroke: #000000"/>
     <use xlink:href="#mc6f6a6137d" x="207.96802" y="133.353818" style="stroke: #000000"/>
     <use xlink:href="#mc6f6a6137d" x="197.989982" y="70.354964" style="stroke: #000000"/>
     <use xlink:href="#mc6f6a6137d" x="236.742137" y="364.130679" style="stroke: #000000"/>
     <use xlink:href="#mc6f6a6137d" x="230.024295" y="300.214688" style="stroke: #000000"/>
     <use xlink:href="#mc6f6a6137d" x="212.328386" y="131.849363" style="stroke: #000000"/>
     <use xlink:href="#mc6f6a6137d" x="229.081596" y="364.733577" style="stroke: #000000"/>
     <use xlink:href="#mc6f6a6137d" x="225.718065" y="300.553596" style="stroke: #000000"/>
     <use xlink:href="#mc6f6a6137d" x="216.857969" y="131.492877" style="stroke: #000000"/>
     <use xlink:href="#mc6f6a6137d" x="213.530989" y="68.010321" style="stroke: #000000"/>
     <use xlink:href="#mc6f6a6137d" x="221.4" y="364.934727" style="stroke: #000000"/>
     <use xlink:href="#mc6f6a6137d" x="221.4" y="300.666669" style="stroke: #000000"/>
     <use xlink:href="#mc6f6a6137d" x="221.4" y="129.538684" style="stroke: #000000"/>
     <use xlink:href="#mc6f6a6137d" x="221.4" y="67.097956" style="stroke: #000000"/>
    </g>
   </g>
   <g id="patch_3">
    <path d="M 221.4 51.84 
C 199.559058 51.84 177.930491 56.142189 157.752092 64.500356 
C 137.573692 72.858523 119.237879 85.110122 103.794 100.554 
C 88.350122 115.997879 76.098523 134.333692 67.740356 154.512092 
C 59.382189 174.690491 55.08 196.319058 55.08 218.16 
C 55.08 240.000942 59.382189 261.629509 67.740356 281.807908 
C 76.098523 301.986308 88.350122 320.322121 103.794 335.766 
C 119.237879 351.209878 137.573692 363.461477 157.752092 371.819644 
C 177.930491 380.177811 199.559058 384.48 221.4 384.48 
C 243.240942 384.48 264.869509 380.177811 285.047908 371.819644 
C 305.226308 363.461477 323.562121 351.209878 339.006 335.766 
C 354.449878 320.322121 366.701477 301.986308 375.059644 281.807908 
C 383.417811 261.629509 387.72 240.000942 387.72 218.16 
C 387.72 196.319058 383.417811 174.690491 375.059644 154.512092 
C 366.701477 134.333692 354.449878 115.997879 339.006 100.554 
C 323.562121 85.110122 305.226308 72.858523 285.047908 64.500356 
C 264.869509 56.142189 243.240942 51.84 221.4 51.84 
" style="fill: none; stroke: #ffffff; stroke-width: 1.25; stroke-linejoin: miter; stroke-linecap: square"/>
   </g>
  </g>
 </g>
 <defs>
  <clipPath id="p22ae85ad5d">
   <path d="M 387.72 218.16 
C 387.72 196.319058 383.417811 174.690491 375.059644 154.512092 
C 366.701477 134.333692 354.449878 115.997879 339.006 100.554 
C 323.562121 85.110122 305.226308 72.858523 285.047908 64.500356 
C 264.869509 56.142189 243.240942 51.84 221.4 51.84 
C 199.559058 51.84 177.930491 56.142189 157.752092 64.500356 
C 137.573692 72.858523 119.237879 85.110122 103.794 100.554 
C 88.350122 115.997879 76.098523 134.333692 67.740356 154.512092 
C 59.382189 174.690491 55.08 196.319058 55.08 218.16 
C 55.08 240.000942 59.382189 261.629509 67.740356 281.807908 
C 76.098523 301.986308 88.350122 320.322121 103.794 335.766 
C 119.237879 351.209878 137.573692 363.461477 157.752092 371.819644 
C 177.930491 380.177811 199.559058 384.48 221.4 384.48 
C 243.240942 384.48 264.869509 380.177811 285.047908 371.819644 
C 305.226308 363.461477 323.562121 351.209878 339.006 335.766 
C 354.449878 320.322121 366.701477 301.986308 375.059644 281.807908 
C 383.417811 261.629509 387.72 240.000942 387.72 218.16 
M 221.4 218.16 
C 221.4 218.16 221.4 218.16 221.4 218.16 
C 221.4 218.16 221.4 218.16 221.4 218.16 
C 221.4 218.16 221.4 218.16 221.4 218.16 
C 221.4 218.16 221.4 218.16 221.4 218.16 
C 221.4 218.16 221.4 218.16 221.4 218.16 
C 221.4 218.16 221.4 218.16 221.4 218.16 
C 221.4 218.16 221.4 218.16 221.4 218.16 
C 221.4 218.16 221.4 218.16 221.4 218.16 
C 221.4 218.16 221.4 218.16 221.4 218.16 
C 221.4 218.16 221.4 218.16 221.4 218.16 
C 221.4 218.16 221.4 218.16 221.4 218.16 
C 221.4 218.16 221.4 218.16 221.4 218.16 
C 221.4 218.16 221.4 218.16 221.4 218.16 
C 221.4 218.16 221.4 218.16 221.4 218.16 
C 221.4 218.16 221.4 218.16 221.4 218.16 
C 221.4 218.16 221.4 218.16 221.4 218.16 
z
"/>
  </clipPath>
 </defs>
</svg>
