<?xml version="1.0" encoding="utf-8" standalone="no"?>
<!DOCTYPE svg PUBLIC "-//W3C//DTD SVG 1.1//EN"
  "http://www.w3.org/Graphics/SVG/1.1/DTD/svg11.dtd">
<svg xmlns:xlink="http://www.w3.org/1999/xlink" width="432pt" height="432pt" viewBox="0 0 432 432" xmlns="http://www.w3.org/2000/svg" version="1.1">
 <metadata>
  <rdf:RDF xmlns:dc="http://purl.org/dc/elements/1.1/" xmlns:cc="http://creativecommons.org/ns#" xmlns:rdf="http://www.w3.org/1999/02/22-rdf-syntax-ns#">
   <cc:Work>
    <dc:type rdf:resource="http://purl.org/dc/dcmitype/StillImage"/>
    <dc:date>2024-09-06T16:16:24.884821</dc:date>
    <dc:format>image/svg+xml</dc:format>
    <dc:creator>
     <cc:Agent>
      <dc:title>Matplotlib v3.9.1, https://matplotlib.org/</dc:title>
     </cc:Agent>
    </dc:creator>
   </cc:Work>
  </rdf:RDF>
 </metadata>
 <defs>
  <style type="text/css">*{stroke-linejoin: round; stroke-linecap: butt}</style>
 </defs>
 <g id="figure_1">
  <g id="patch_1">
   <path d="M 0 432 
L 432 432 
L 432 0 
L 0 0 
z
" style="fill: #ffffff"/>
  </g>
  <g id="axes_1">
   <g id="patch_2">
    <path d="M 387.72 218.16 
C 387.72 196.319058 383.417811 174.690491 375.059644 154.512092 
C 366.701477 134.333692 354.449878 115.997879 339.006 100.554 
C 323.562121 85.110122 305.226308 72.858523 285.047908 64.500356 
C 264.869509 56.142189 243.240942 51.84 221.4 51.84 
C 199.559058 51.84 177.930491 56.142189 157.752092 64.500356 
C 137.573692 72.858523 119.237879 85.110122 103.794 100.554 
C 88.350122 115.997879 76.098523 134.333692 67.740356 154.512092 
C 59.382189 174.690491 55.08 196.319058 55.08 218.16 
C 55.08 240.000942 59.382189 261.629509 67.740356 281.807908 
C 76.098523 301.986308 88.350122 320.322121 103.794 335.766 
C 119.237879 351.209878 137.573692 363.461477 157.752092 371.819644 
C 177.930491 380.177811 199.559058 384.48 221.4 384.48 
C 243.240942 384.48 264.869509 380.177811 285.047908 371.819644 
C 305.226308 363.461477 323.562121 351.209878 339.006 335.766 
C 354.449878 320.322121 366.701477 301.986308 375.059644 281.807908 
C 383.417811 261.629509 387.72 240.000942 387.72 218.16 
M 221.4 218.16 
C 221.4 218.16 221.4 218.16 221.4 218.16 
C 221.4 218.16 221.4 218.16 221.4 218.16 
C 221.4 218.16 221.4 218.16 221.4 218.16 
C 221.4 218.16 221.4 218.16 221.4 218.16 
C 221.4 218.16 221.4 218.16 221.4 218.16 
C 221.4 218.16 221.4 218.16 221.4 218.16 
C 221.4 218.16 221.4 218.16 221.4 218.16 
C 221.4 218.16 221.4 218.16 221.4 218.16 
C 221.4 218.16 221.4 218.16 221.4 218.16 
C 221.4 218.16 221.4 218.16 221.4 218.16 
C 221.4 218.16 221.4 218.16 221.4 218.16 
C 221.4 218.16 221.4 218.16 221.4 218.16 
C 221.4 218.16 221.4 218.16 221.4 218.16 
C 221.4 218.16 221.4 218.16 221.4 218.16 
C 221.4 218.16 221.4 218.16 221.4 218.16 
C 221.4 218.16 221.4 218.16 221.4 218.16 
z
" style="fill: #eaeaf2"/>
   </g>
   <g id="matplotlib.axis_1">
    <g id="xtick_1">
     <g id="line2d_1">
      <path d="M 221.4 218.16 
L 221.4 51.84 
" clip-path="url(#pb44caa9f4a)" style="fill: none; stroke: #ffffff; stroke-linecap: round"/>
     </g>
     <g id="text_1">
      <!-- 0° -->
      <g style="fill: #262626" transform="translate(216.142344 38.183672) scale(0.11 -0.11)">
       <defs>
        <path id="ArialMT-30" d="M 266 2259 
Q 266 3072 433 3567 
Q 600 4063 929 4331 
Q 1259 4600 1759 4600 
Q 2128 4600 2406 4451 
Q 2684 4303 2865 4023 
Q 3047 3744 3150 3342 
Q 3253 2941 3253 2259 
Q 3253 1453 3087 958 
Q 2922 463 2592 192 
Q 2263 -78 1759 -78 
Q 1097 -78 719 397 
Q 266 969 266 2259 
z
M 844 2259 
Q 844 1131 1108 757 
Q 1372 384 1759 384 
Q 2147 384 2411 759 
Q 2675 1134 2675 2259 
Q 2675 3391 2411 3762 
Q 2147 4134 1753 4134 
Q 1366 4134 1134 3806 
Q 844 3388 844 2259 
z
" transform="scale(0.015625)"/>
        <path id="ArialMT-b0" d="M 400 3794 
Q 400 4153 654 4406 
Q 909 4659 1266 4659 
Q 1628 4659 1881 4406 
Q 2134 4153 2134 3794 
Q 2134 3434 1879 3179 
Q 1625 2925 1266 2925 
Q 909 2925 654 3178 
Q 400 3431 400 3794 
z
M 741 3794 
Q 741 3575 895 3420 
Q 1050 3266 1269 3266 
Q 1484 3266 1639 3420 
Q 1794 3575 1794 3794 
Q 1794 4013 1639 4167 
Q 1484 4322 1269 4322 
Q 1050 4322 895 4167 
Q 741 4013 741 3794 
z
" transform="scale(0.015625)"/>
       </defs>
       <use xlink:href="#ArialMT-30"/>
       <use xlink:href="#ArialMT-b0" x="55.615234"/>
      </g>
     </g>
    </g>
    <g id="xtick_2">
     <g id="line2d_2">
      <path d="M 221.4 218.16 
L 339.006 100.554 
" clip-path="url(#pb44caa9f4a)" style="fill: none; stroke: #ffffff; stroke-linecap: round"/>
     </g>
     <g id="text_2">
      <!-- 45° -->
      <g style="fill: #262626" transform="translate(342.35709 91.73041) scale(0.11 -0.11)">
       <defs>
        <path id="ArialMT-34" d="M 2069 0 
L 2069 1097 
L 81 1097 
L 81 1613 
L 2172 4581 
L 2631 4581 
L 2631 1613 
L 3250 1613 
L 3250 1097 
L 2631 1097 
L 2631 0 
L 2069 0 
z
M 2069 1613 
L 2069 3678 
L 634 1613 
L 2069 1613 
z
" transform="scale(0.015625)"/>
        <path id="ArialMT-35" d="M 266 1200 
L 856 1250 
Q 922 819 1161 601 
Q 1400 384 1738 384 
Q 2144 384 2425 690 
Q 2706 997 2706 1503 
Q 2706 1984 2436 2262 
Q 2166 2541 1728 2541 
Q 1456 2541 1237 2417 
Q 1019 2294 894 2097 
L 366 2166 
L 809 4519 
L 3088 4519 
L 3088 3981 
L 1259 3981 
L 1013 2750 
Q 1425 3038 1878 3038 
Q 2478 3038 2890 2622 
Q 3303 2206 3303 1553 
Q 3303 931 2941 478 
Q 2500 -78 1738 -78 
Q 1113 -78 717 272 
Q 322 622 266 1200 
z
" transform="scale(0.015625)"/>
       </defs>
       <use xlink:href="#ArialMT-34"/>
       <use xlink:href="#ArialMT-35" x="55.615234"/>
       <use xlink:href="#ArialMT-b0" x="111.230469"/>
      </g>
     </g>
    </g>
    <g id="xtick_3">
     <g id="line2d_3">
      <path d="M 221.4 218.16 
L 387.72 218.16 
" clip-path="url(#pb44caa9f4a)" style="fill: none; stroke: #ffffff; stroke-linecap: round"/>
     </g>
     <g id="text_3">
      <!-- 90° -->
      <g style="fill: #262626" transform="translate(395.903828 221.003672) scale(0.11 -0.11)">
       <defs>
        <path id="ArialMT-39" d="M 350 1059 
L 891 1109 
Q 959 728 1153 556 
Q 1347 384 1650 384 
Q 1909 384 2104 503 
Q 2300 622 2425 820 
Q 2550 1019 2634 1356 
Q 2719 1694 2719 2044 
Q 2719 2081 2716 2156 
Q 2547 1888 2255 1720 
Q 1963 1553 1622 1553 
Q 1053 1553 659 1965 
Q 266 2378 266 3053 
Q 266 3750 677 4175 
Q 1088 4600 1706 4600 
Q 2153 4600 2523 4359 
Q 2894 4119 3086 3673 
Q 3278 3228 3278 2384 
Q 3278 1506 3087 986 
Q 2897 466 2520 194 
Q 2144 -78 1638 -78 
Q 1100 -78 759 220 
Q 419 519 350 1059 
z
M 2653 3081 
Q 2653 3566 2395 3850 
Q 2138 4134 1775 4134 
Q 1400 4134 1122 3828 
Q 844 3522 844 3034 
Q 844 2597 1108 2323 
Q 1372 2050 1759 2050 
Q 2150 2050 2401 2323 
Q 2653 2597 2653 3081 
z
" transform="scale(0.015625)"/>
       </defs>
       <use xlink:href="#ArialMT-39"/>
       <use xlink:href="#ArialMT-30" x="55.615234"/>
       <use xlink:href="#ArialMT-b0" x="111.230469"/>
      </g>
     </g>
    </g>
    <g id="xtick_4">
     <g id="line2d_4">
      <path d="M 221.4 218.16 
L 339.006 335.766 
" clip-path="url(#pb44caa9f4a)" style="fill: none; stroke: #ffffff; stroke-linecap: round"/>
     </g>
     <g id="text_4">
      <!-- 135° -->
      <g style="fill: #262626" transform="translate(339.298574 350.276934) scale(0.11 -0.11)">
       <defs>
        <path id="ArialMT-31" d="M 2384 0 
L 1822 0 
L 1822 3584 
Q 1619 3391 1289 3197 
Q 959 3003 697 2906 
L 697 3450 
Q 1169 3672 1522 3987 
Q 1875 4303 2022 4600 
L 2384 4600 
L 2384 0 
z
" transform="scale(0.015625)"/>
        <path id="ArialMT-33" d="M 269 1209 
L 831 1284 
Q 928 806 1161 595 
Q 1394 384 1728 384 
Q 2125 384 2398 659 
Q 2672 934 2672 1341 
Q 2672 1728 2419 1979 
Q 2166 2231 1775 2231 
Q 1616 2231 1378 2169 
L 1441 2663 
Q 1497 2656 1531 2656 
Q 1891 2656 2178 2843 
Q 2466 3031 2466 3422 
Q 2466 3731 2256 3934 
Q 2047 4138 1716 4138 
Q 1388 4138 1169 3931 
Q 950 3725 888 3313 
L 325 3413 
Q 428 3978 793 4289 
Q 1159 4600 1703 4600 
Q 2078 4600 2393 4439 
Q 2709 4278 2876 4000 
Q 3044 3722 3044 3409 
Q 3044 3113 2884 2869 
Q 2725 2625 2413 2481 
Q 2819 2388 3044 2092 
Q 3269 1797 3269 1353 
Q 3269 753 2831 336 
Q 2394 -81 1725 -81 
Q 1122 -81 723 278 
Q 325 638 269 1209 
z
" transform="scale(0.015625)"/>
       </defs>
       <use xlink:href="#ArialMT-31"/>
       <use xlink:href="#ArialMT-33" x="55.615234"/>
       <use xlink:href="#ArialMT-35" x="111.230469"/>
       <use xlink:href="#ArialMT-b0" x="166.845703"/>
      </g>
     </g>
    </g>
    <g id="xtick_5">
     <g id="line2d_5">
      <path d="M 221.4 218.16 
L 221.4 384.48 
" clip-path="url(#pb44caa9f4a)" style="fill: none; stroke: #ffffff; stroke-linecap: round"/>
     </g>
     <g id="text_5">
      <!-- 180° -->
      <g style="fill: #262626" transform="translate(210.025312 403.823672) scale(0.11 -0.11)">
       <defs>
        <path id="ArialMT-38" d="M 1131 2484 
Q 781 2613 612 2850 
Q 444 3088 444 3419 
Q 444 3919 803 4259 
Q 1163 4600 1759 4600 
Q 2359 4600 2725 4251 
Q 3091 3903 3091 3403 
Q 3091 3084 2923 2848 
Q 2756 2613 2416 2484 
Q 2838 2347 3058 2040 
Q 3278 1734 3278 1309 
Q 3278 722 2862 322 
Q 2447 -78 1769 -78 
Q 1091 -78 675 323 
Q 259 725 259 1325 
Q 259 1772 486 2073 
Q 713 2375 1131 2484 
z
M 1019 3438 
Q 1019 3113 1228 2906 
Q 1438 2700 1772 2700 
Q 2097 2700 2305 2904 
Q 2513 3109 2513 3406 
Q 2513 3716 2298 3927 
Q 2084 4138 1766 4138 
Q 1444 4138 1231 3931 
Q 1019 3725 1019 3438 
z
M 838 1322 
Q 838 1081 952 856 
Q 1066 631 1291 507 
Q 1516 384 1775 384 
Q 2178 384 2440 643 
Q 2703 903 2703 1303 
Q 2703 1709 2433 1975 
Q 2163 2241 1756 2241 
Q 1359 2241 1098 1978 
Q 838 1716 838 1322 
z
" transform="scale(0.015625)"/>
       </defs>
       <use xlink:href="#ArialMT-31"/>
       <use xlink:href="#ArialMT-38" x="55.615234"/>
       <use xlink:href="#ArialMT-30" x="111.230469"/>
       <use xlink:href="#ArialMT-b0" x="166.845703"/>
      </g>
     </g>
    </g>
    <g id="xtick_6">
     <g id="line2d_6">
      <path d="M 221.4 218.16 
L 103.794 335.766 
" clip-path="url(#pb44caa9f4a)" style="fill: none; stroke: #ffffff; stroke-linecap: round"/>
     </g>
     <g id="text_6">
      <!-- 225° -->
      <g style="fill: #262626" transform="translate(80.752051 350.276934) scale(0.11 -0.11)">
       <defs>
        <path id="ArialMT-32" d="M 3222 541 
L 3222 0 
L 194 0 
Q 188 203 259 391 
Q 375 700 629 1000 
Q 884 1300 1366 1694 
Q 2113 2306 2375 2664 
Q 2638 3022 2638 3341 
Q 2638 3675 2398 3904 
Q 2159 4134 1775 4134 
Q 1369 4134 1125 3890 
Q 881 3647 878 3216 
L 300 3275 
Q 359 3922 746 4261 
Q 1134 4600 1788 4600 
Q 2447 4600 2831 4234 
Q 3216 3869 3216 3328 
Q 3216 3053 3103 2787 
Q 2991 2522 2730 2228 
Q 2469 1934 1863 1422 
Q 1356 997 1212 845 
Q 1069 694 975 541 
L 3222 541 
z
" transform="scale(0.015625)"/>
       </defs>
       <use xlink:href="#ArialMT-32"/>
       <use xlink:href="#ArialMT-32" x="55.615234"/>
       <use xlink:href="#ArialMT-35" x="111.230469"/>
       <use xlink:href="#ArialMT-b0" x="166.845703"/>
      </g>
     </g>
    </g>
    <g id="xtick_7">
     <g id="line2d_7">
      <path d="M 221.4 218.16 
L 55.08 218.16 
" clip-path="url(#pb44caa9f4a)" style="fill: none; stroke: #ffffff; stroke-linecap: round"/>
     </g>
     <g id="text_7">
      <!-- 270° -->
      <g style="fill: #262626" transform="translate(27.205312 221.003672) scale(0.11 -0.11)">
       <defs>
        <path id="ArialMT-37" d="M 303 3981 
L 303 4522 
L 3269 4522 
L 3269 4084 
Q 2831 3619 2401 2847 
Q 1972 2075 1738 1259 
Q 1569 684 1522 0 
L 944 0 
Q 953 541 1156 1306 
Q 1359 2072 1739 2783 
Q 2119 3494 2547 3981 
L 303 3981 
z
" transform="scale(0.015625)"/>
       </defs>
       <use xlink:href="#ArialMT-32"/>
       <use xlink:href="#ArialMT-37" x="55.615234"/>
       <use xlink:href="#ArialMT-30" x="111.230469"/>
       <use xlink:href="#ArialMT-b0" x="166.845703"/>
      </g>
     </g>
    </g>
    <g id="xtick_8">
     <g id="line2d_8">
      <path d="M 221.4 218.16 
L 103.794 100.554 
" clip-path="url(#pb44caa9f4a)" style="fill: none; stroke: #ffffff; stroke-linecap: round"/>
     </g>
     <g id="text_8">
      <!-- 315° -->
      <g style="fill: #262626" transform="translate(80.752051 91.73041) scale(0.11 -0.11)">
       <use xlink:href="#ArialMT-33"/>
       <use xlink:href="#ArialMT-31" x="55.615234"/>
       <use xlink:href="#ArialMT-35" x="111.230469"/>
       <use xlink:href="#ArialMT-b0" x="166.845703"/>
      </g>
     </g>
    </g>
   </g>
   <g id="matplotlib.axis_2">
    <g id="ytick_1">
     <g id="line2d_9">
      <path d="M 221.4 218.16 
C 221.4 218.16 221.4 218.16 221.4 218.16 
C 221.4 218.16 221.4 218.16 221.4 218.16 
C 221.4 218.16 221.4 218.16 221.4 218.16 
C 221.4 218.16 221.4 218.16 221.4 218.16 
C 221.4 218.16 221.4 218.16 221.4 218.16 
C 221.4 218.16 221.4 218.16 221.4 218.16 
C 221.4 218.16 221.4 218.16 221.4 218.16 
C 221.4 218.16 221.4 218.16 221.4 218.16 
C 221.4 218.16 221.4 218.16 221.4 218.16 
C 221.4 218.16 221.4 218.16 221.4 218.16 
C 221.4 218.16 221.4 218.16 221.4 218.16 
C 221.4 218.16 221.4 218.16 221.4 218.16 
C 221.4 218.16 221.4 218.16 221.4 218.16 
C 221.4 218.16 221.4 218.16 221.4 218.16 
C 221.4 218.16 221.4 218.16 221.4 218.16 
C 221.4 218.16 221.4 218.16 221.4 218.16 
" clip-path="url(#pb44caa9f4a)" style="fill: none; stroke: #ffffff; stroke-linecap: round"/>
     </g>
     <g id="text_9">
      <!-- 0.0 -->
      <g style="fill: #dc143c" transform="translate(221.4 215.97375) scale(0.11 -0.11)">
       <defs>
        <path id="ArialMT-2e" d="M 581 0 
L 581 641 
L 1222 641 
L 1222 0 
L 581 0 
z
" transform="scale(0.015625)"/>
       </defs>
       <use xlink:href="#ArialMT-30"/>
       <use xlink:href="#ArialMT-2e" x="55.615234"/>
       <use xlink:href="#ArialMT-30" x="83.398438"/>
      </g>
     </g>
    </g>
    <g id="ytick_2">
     <g id="line2d_10">
      <path d="M 221.4 197.37 
C 224.130118 197.37 226.833689 197.907774 229.355989 198.952545 
C 231.878289 199.997315 234.170265 201.528765 236.10075 203.45925 
C 238.031235 205.389735 239.562685 207.681711 240.607455 210.204011 
C 241.652226 212.726311 242.19 215.429882 242.19 218.16 
C 242.19 220.890118 241.652226 223.593689 240.607455 226.115989 
C 239.562685 228.638289 238.031235 230.930265 236.10075 232.86075 
C 234.170265 234.791235 231.878289 236.322685 229.355989 237.367455 
C 226.833689 238.412226 224.130118 238.95 221.4 238.95 
C 218.669882 238.95 215.966311 238.412226 213.444011 237.367455 
C 210.921711 236.322685 208.629735 234.791235 206.69925 232.86075 
C 204.768765 230.930265 203.237315 228.638289 202.192545 226.115989 
C 201.147774 223.593689 200.61 220.890118 200.61 218.16 
C 200.61 215.429882 201.147774 212.726311 202.192545 210.204011 
C 203.237315 207.681711 204.768765 205.389735 206.69925 203.45925 
C 208.629735 201.528765 210.921711 199.997315 213.444011 198.952545 
C 215.966311 197.907774 218.669882 197.37 221.4 197.37 
" clip-path="url(#pb44caa9f4a)" style="fill: none; stroke: #ffffff; stroke-linecap: round"/>
     </g>
     <g id="text_10">
      <!-- 0.1 -->
      <g style="fill: #dc143c" transform="translate(229.355989 196.766295) scale(0.11 -0.11)">
       <use xlink:href="#ArialMT-30"/>
       <use xlink:href="#ArialMT-2e" x="55.615234"/>
       <use xlink:href="#ArialMT-31" x="83.398438"/>
      </g>
     </g>
    </g>
    <g id="ytick_3">
     <g id="line2d_11">
      <path d="M 221.4 176.58 
C 226.860236 176.58 232.267377 177.655547 237.311977 179.745089 
C 242.356577 181.834631 246.94053 184.89753 250.8015 188.7585 
C 254.66247 192.61947 257.725369 197.203423 259.814911 202.248023 
C 261.904453 207.292623 262.98 212.699764 262.98 218.16 
C 262.98 223.620236 261.904453 229.027377 259.814911 234.071977 
C 257.725369 239.116577 254.66247 243.70053 250.8015 247.5615 
C 246.94053 251.42247 242.356577 254.485369 237.311977 256.574911 
C 232.267377 258.664453 226.860236 259.74 221.4 259.74 
C 215.939764 259.74 210.532623 258.664453 205.488023 256.574911 
C 200.443423 254.485369 195.85947 251.42247 191.9985 247.5615 
C 188.13753 243.70053 185.074631 239.116577 182.985089 234.071977 
C 180.895547 229.027377 179.82 223.620236 179.82 218.16 
C 179.82 212.699764 180.895547 207.292623 182.985089 202.248023 
C 185.074631 197.203423 188.13753 192.61947 191.9985 188.7585 
C 195.85947 184.89753 200.443423 181.834631 205.488023 179.745089 
C 210.532623 177.655547 215.939764 176.58 221.4 176.58 
" clip-path="url(#pb44caa9f4a)" style="fill: none; stroke: #ffffff; stroke-linecap: round"/>
     </g>
     <g id="text_11">
      <!-- 0.2 -->
      <g style="fill: #dc143c" transform="translate(237.311977 177.558839) scale(0.11 -0.11)">
       <use xlink:href="#ArialMT-30"/>
       <use xlink:href="#ArialMT-2e" x="55.615234"/>
       <use xlink:href="#ArialMT-32" x="83.398438"/>
      </g>
     </g>
    </g>
    <g id="ytick_4">
     <g id="line2d_12">
      <path d="M 221.4 155.79 
C 229.590353 155.79 237.701066 157.403321 245.267966 160.537634 
C 252.834866 163.671946 259.710796 168.266296 265.50225 174.05775 
C 271.293704 179.849204 275.888054 186.725134 279.022366 194.292034 
C 282.156679 201.858934 283.77 209.969647 283.77 218.16 
C 283.77 226.350353 282.156679 234.461066 279.022366 242.027966 
C 275.888054 249.594866 271.293704 256.470796 265.50225 262.26225 
C 259.710796 268.053704 252.834866 272.648054 245.267966 275.782366 
C 237.701066 278.916679 229.590353 280.53 221.4 280.53 
C 213.209647 280.53 205.098934 278.916679 197.532034 275.782366 
C 189.965134 272.648054 183.089204 268.053704 177.29775 262.26225 
C 171.506296 256.470796 166.911946 249.594866 163.777634 242.027966 
C 160.643321 234.461066 159.03 226.350353 159.03 218.16 
C 159.03 209.969647 160.643321 201.858934 163.777634 194.292034 
C 166.911946 186.725134 171.506296 179.849204 177.29775 174.05775 
C 183.089204 168.266296 189.965134 163.671946 197.532034 160.537634 
C 205.098934 157.403321 213.209647 155.79 221.4 155.79 
" clip-path="url(#pb44caa9f4a)" style="fill: none; stroke: #ffffff; stroke-linecap: round"/>
     </g>
     <g id="text_12">
      <!-- 0.3 -->
      <g style="fill: #dc143c" transform="translate(245.267966 158.351384) scale(0.11 -0.11)">
       <use xlink:href="#ArialMT-30"/>
       <use xlink:href="#ArialMT-2e" x="55.615234"/>
       <use xlink:href="#ArialMT-33" x="83.398438"/>
      </g>
     </g>
    </g>
    <g id="ytick_5">
     <g id="line2d_13">
      <path d="M 221.4 135 
C 232.320471 135 243.134754 137.151095 253.223954 141.330178 
C 263.313154 145.509261 272.481061 151.635061 280.203 159.357 
C 287.924939 167.078939 294.050739 176.246846 298.229822 186.336046 
C 302.408905 196.425246 304.56 207.239529 304.56 218.16 
C 304.56 229.080471 302.408905 239.894754 298.229822 249.983954 
C 294.050739 260.073154 287.924939 269.241061 280.203 276.963 
C 272.481061 284.684939 263.313154 290.810739 253.223954 294.989822 
C 243.134754 299.168905 232.320471 301.32 221.4 301.32 
C 210.479529 301.32 199.665246 299.168905 189.576046 294.989822 
C 179.486846 290.810739 170.318939 284.684939 162.597 276.963 
C 154.875061 269.241061 148.749261 260.073154 144.570178 249.983954 
C 140.391095 239.894754 138.24 229.080471 138.24 218.16 
C 138.24 207.239529 140.391095 196.425246 144.570178 186.336046 
C 148.749261 176.246846 154.875061 167.078939 162.597 159.357 
C 170.318939 151.635061 179.486846 145.509261 189.576046 141.330178 
C 199.665246 137.151095 210.479529 135 221.4 135 
" clip-path="url(#pb44caa9f4a)" style="fill: none; stroke: #ffffff; stroke-linecap: round"/>
     </g>
     <g id="text_13">
      <!-- 0.4 -->
      <g style="fill: #dc143c" transform="translate(253.223954 139.143928) scale(0.11 -0.11)">
       <use xlink:href="#ArialMT-30"/>
       <use xlink:href="#ArialMT-2e" x="55.615234"/>
       <use xlink:href="#ArialMT-34" x="83.398438"/>
      </g>
     </g>
    </g>
    <g id="ytick_6">
     <g id="line2d_14">
      <path d="M 221.4 114.21 
C 235.050589 114.21 248.568443 116.898868 261.179943 122.122723 
C 273.791443 127.346577 285.251326 135.003826 294.90375 144.65625 
C 304.556174 154.308674 312.213423 165.768557 317.437277 178.380057 
C 322.661132 190.991557 325.35 204.509411 325.35 218.16 
C 325.35 231.810589 322.661132 245.328443 317.437277 257.939943 
C 312.213423 270.551443 304.556174 282.011326 294.90375 291.66375 
C 285.251326 301.316174 273.791443 308.973423 261.179943 314.197277 
C 248.568443 319.421132 235.050589 322.11 221.4 322.11 
C 207.749411 322.11 194.231557 319.421132 181.620057 314.197277 
C 169.008557 308.973423 157.548674 301.316174 147.89625 291.66375 
C 138.243826 282.011326 130.586577 270.551443 125.362723 257.939943 
C 120.138868 245.328443 117.45 231.810589 117.45 218.16 
C 117.45 204.509411 120.138868 190.991557 125.362723 178.380057 
C 130.586577 165.768557 138.243826 154.308674 147.89625 144.65625 
C 157.548674 135.003826 169.008557 127.346577 181.620057 122.122723 
C 194.231557 116.898868 207.749411 114.21 221.4 114.21 
" clip-path="url(#pb44caa9f4a)" style="fill: none; stroke: #ffffff; stroke-linecap: round"/>
     </g>
     <g id="text_14">
      <!-- 0.5 -->
      <g style="fill: #dc143c" transform="translate(261.179943 119.936473) scale(0.11 -0.11)">
       <use xlink:href="#ArialMT-30"/>
       <use xlink:href="#ArialMT-2e" x="55.615234"/>
       <use xlink:href="#ArialMT-35" x="83.398438"/>
      </g>
     </g>
    </g>
    <g id="ytick_7">
     <g id="line2d_15">
      <path d="M 221.4 93.42 
C 237.780707 93.42 254.002132 96.646642 269.135931 102.915267 
C 284.269731 109.183892 298.021591 118.372591 309.6045 129.9555 
C 321.187409 141.538409 330.376108 155.290269 336.644733 170.424069 
C 342.913358 185.557868 346.14 201.779293 346.14 218.16 
C 346.14 234.540707 342.913358 250.762132 336.644733 265.895931 
C 330.376108 281.029731 321.187409 294.781591 309.6045 306.3645 
C 298.021591 317.947409 284.269731 327.136108 269.135931 333.404733 
C 254.002132 339.673358 237.780707 342.9 221.4 342.9 
C 205.019293 342.9 188.797868 339.673358 173.664069 333.404733 
C 158.530269 327.136108 144.778409 317.947409 133.1955 306.3645 
C 121.612591 294.781591 112.423892 281.029731 106.155267 265.895931 
C 99.886642 250.762132 96.66 234.540707 96.66 218.16 
C 96.66 201.779293 99.886642 185.557868 106.155267 170.424069 
C 112.423892 155.290269 121.612591 141.538409 133.1955 129.9555 
C 144.778409 118.372591 158.530269 109.183892 173.664069 102.915267 
C 188.797868 96.646642 205.019293 93.42 221.4 93.42 
" clip-path="url(#pb44caa9f4a)" style="fill: none; stroke: #ffffff; stroke-linecap: round"/>
     </g>
     <g id="text_15">
      <!-- 0.6 -->
      <g style="fill: #dc143c" transform="translate(269.135931 100.729017) scale(0.11 -0.11)">
       <defs>
        <path id="ArialMT-36" d="M 3184 3459 
L 2625 3416 
Q 2550 3747 2413 3897 
Q 2184 4138 1850 4138 
Q 1581 4138 1378 3988 
Q 1113 3794 959 3422 
Q 806 3050 800 2363 
Q 1003 2672 1297 2822 
Q 1591 2972 1913 2972 
Q 2475 2972 2870 2558 
Q 3266 2144 3266 1488 
Q 3266 1056 3080 686 
Q 2894 316 2569 119 
Q 2244 -78 1831 -78 
Q 1128 -78 684 439 
Q 241 956 241 2144 
Q 241 3472 731 4075 
Q 1159 4600 1884 4600 
Q 2425 4600 2770 4297 
Q 3116 3994 3184 3459 
z
M 888 1484 
Q 888 1194 1011 928 
Q 1134 663 1356 523 
Q 1578 384 1822 384 
Q 2178 384 2434 671 
Q 2691 959 2691 1453 
Q 2691 1928 2437 2201 
Q 2184 2475 1800 2475 
Q 1419 2475 1153 2201 
Q 888 1928 888 1484 
z
" transform="scale(0.015625)"/>
       </defs>
       <use xlink:href="#ArialMT-30"/>
       <use xlink:href="#ArialMT-2e" x="55.615234"/>
       <use xlink:href="#ArialMT-36" x="83.398438"/>
      </g>
     </g>
    </g>
    <g id="ytick_8">
     <g id="line2d_16">
      <path d="M 221.4 72.63 
C 240.510824 72.63 259.43582 76.394416 277.09192 83.707812 
C 294.74802 91.021208 310.791856 101.741357 324.30525 115.25475 
C 337.818643 128.768144 348.538792 144.81198 355.852188 162.46808 
C 363.165584 180.12418 366.93 199.049176 366.93 218.16 
C 366.93 237.270824 363.165584 256.19582 355.852188 273.85192 
C 348.538792 291.50802 337.818643 307.551856 324.30525 321.06525 
C 310.791856 334.578643 294.74802 345.298792 277.09192 352.612188 
C 259.43582 359.925584 240.510824 363.69 221.4 363.69 
C 202.289176 363.69 183.36418 359.925584 165.70808 352.612188 
C 148.05198 345.298792 132.008144 334.578643 118.49475 321.06525 
C 104.981357 307.551856 94.261208 291.50802 86.947812 273.85192 
C 79.634416 256.19582 75.87 237.270824 75.87 218.16 
C 75.87 199.049176 79.634416 180.12418 86.947812 162.46808 
C 94.261208 144.81198 104.981357 128.768144 118.49475 115.25475 
C 132.008144 101.741357 148.05198 91.021208 165.70808 83.707812 
C 183.36418 76.394416 202.289176 72.63 221.4 72.63 
" clip-path="url(#pb44caa9f4a)" style="fill: none; stroke: #ffffff; stroke-linecap: round"/>
     </g>
     <g id="text_16">
      <!-- 0.7 -->
      <g style="fill: #dc143c" transform="translate(277.09192 81.521562) scale(0.11 -0.11)">
       <use xlink:href="#ArialMT-30"/>
       <use xlink:href="#ArialMT-2e" x="55.615234"/>
       <use xlink:href="#ArialMT-37" x="83.398438"/>
      </g>
     </g>
    </g>
    <g id="ytick_9">
     <g id="line2d_17">
      <path d="M 221.4 51.84 
C 243.240942 51.84 264.869509 56.142189 285.047908 64.500356 
C 305.226308 72.858523 323.562121 85.110122 339.006 100.554 
C 354.449878 115.997879 366.701477 134.333692 375.059644 154.512092 
C 383.417811 174.690491 387.72 196.319058 387.72 218.16 
C 387.72 240.000942 383.417811 261.629509 375.059644 281.807908 
C 366.701477 301.986308 354.449878 320.322121 339.006 335.766 
C 323.562121 351.209878 305.226308 363.461477 285.047908 371.819644 
C 264.869509 380.177811 243.240942 384.48 221.4 384.48 
C 199.559058 384.48 177.930491 380.177811 157.752092 371.819644 
C 137.573692 363.461477 119.237879 351.209878 103.794 335.766 
C 88.350122 320.322121 76.098523 301.986308 67.740356 281.807908 
C 59.382189 261.629509 55.08 240.000942 55.08 218.16 
C 55.08 196.319058 59.382189 174.690491 67.740356 154.512092 
C 76.098523 134.333692 88.350122 115.997879 103.794 100.554 
C 119.237879 85.110122 137.573692 72.858523 157.752092 64.500356 
C 177.930491 56.142189 199.559058 51.84 221.4 51.84 
" clip-path="url(#pb44caa9f4a)" style="fill: none; stroke: #ffffff; stroke-linecap: round"/>
     </g>
     <g id="text_17">
      <!-- 0.8 -->
      <g style="fill: #dc143c" transform="translate(285.047908 62.314106) scale(0.11 -0.11)">
       <use xlink:href="#ArialMT-30"/>
       <use xlink:href="#ArialMT-2e" x="55.615234"/>
       <use xlink:href="#ArialMT-38" x="83.398438"/>
      </g>
     </g>
    </g>
   </g>
   <g id="line2d_18">
    <defs>
     <path id="m7a91faa85c" d="M 0 0.5 
C 0.132602 0.5 0.25979 0.447317 0.353553 0.353553 
C 0.447317 0.25979 0.5 0.132602 0.5 0 
C 0.5 -0.132602 0.447317 -0.25979 0.353553 -0.353553 
C 0.25979 -0.447317 0.132602 -0.5 0 -0.5 
C -0.132602 -0.5 -0.25979 -0.447317 -0.353553 -0.353553 
C -0.447317 -0.25979 -0.5 -0.132602 -0.5 0 
C -0.5 0.132602 -0.447317 0.25979 -0.353553 0.353553 
C -0.25979 0.447317 -0.132602 0.5 0 0.5 
z
" style="stroke: #000000"/>
    </defs>
    <g clip-path="url(#pb44caa9f4a)">
     <use xlink:href="#m7a91faa85c" x="213.674742" y="365.566707" style="stroke: #000000"/>
     <use xlink:href="#m7a91faa85c" x="205.970658" y="364.960382" style="stroke: #000000"/>
     <use xlink:href="#m7a91faa85c" x="198.308865" y="363.951688" style="stroke: #000000"/>
     <use xlink:href="#m7a91faa85c" x="190.710363" y="362.543389" style="stroke: #000000"/>
     <use xlink:href="#m7a91faa85c" x="183.19598" y="360.739345" style="stroke: #000000"/>
     <use xlink:href="#m7a91faa85c" x="175.78631" y="358.544501" style="stroke: #000000"/>
     <use xlink:href="#m7a91faa85c" x="169.246712" y="354.023959" style="stroke: #000000"/>
     <use xlink:href="#m7a91faa85c" x="162.207616" y="351.10827" style="stroke: #000000"/>
     <use xlink:href="#m7a91faa85c" x="155.330763" y="347.828179" style="stroke: #000000"/>
     <use xlink:href="#m7a91faa85c" x="148.635" y="344.192677" style="stroke: #000000"/>
     <use xlink:href="#m7a91faa85c" x="142.138681" y="340.211728" style="stroke: #000000"/>
     <use xlink:href="#m7a91faa85c" x="135.859612" y="335.896243" style="stroke: #000000"/>
     <use xlink:href="#m7a91faa85c" x="131.123361" y="329.642365" style="stroke: #000000"/>
     <use xlink:href="#m7a91faa85c" x="125.412545" y="324.764868" style="stroke: #000000"/>
     <use xlink:href="#m7a91faa85c" x="119.964825" y="319.595175" style="stroke: #000000"/>
     <use xlink:href="#m7a91faa85c" x="114.795132" y="314.147455" style="stroke: #000000"/>
     <use xlink:href="#m7a91faa85c" x="109.917635" y="308.436639" style="stroke: #000000"/>
     <use xlink:href="#m7a91faa85c" x="105.345703" y="302.478382" style="stroke: #000000"/>
     <use xlink:href="#m7a91faa85c" x="101.091868" y="296.289014" style="stroke: #000000"/>
     <use xlink:href="#m7a91faa85c" x="97.16779" y="289.8855" style="stroke: #000000"/>
     <use xlink:href="#m7a91faa85c" x="93.584223" y="283.285391" style="stroke: #000000"/>
     <use xlink:href="#m7a91faa85c" x="90.350991" y="276.506778" style="stroke: #000000"/>
     <use xlink:href="#m7a91faa85c" x="87.476954" y="269.568241" style="stroke: #000000"/>
     <use xlink:href="#m7a91faa85c" x="84.969992" y="262.488797" style="stroke: #000000"/>
     <use xlink:href="#m7a91faa85c" x="82.836974" y="255.287851" style="stroke: #000000"/>
     <use xlink:href="#m7a91faa85c" x="81.083749" y="247.98514" style="stroke: #000000"/>
     <use xlink:href="#m7a91faa85c" x="79.71512" y="240.60068" style="stroke: #000000"/>
     <use xlink:href="#m7a91faa85c" x="78.73484" y="233.154713" style="stroke: #000000"/>
     <use xlink:href="#m7a91faa85c" x="78.145595" y="225.667645" style="stroke: #000000"/>
     <use xlink:href="#m7a91faa85c" x="77.949" y="218.16" style="stroke: #000000"/>
     <use xlink:href="#m7a91faa85c" x="78.145595" y="210.652355" style="stroke: #000000"/>
     <use xlink:href="#m7a91faa85c" x="78.73484" y="203.165287" style="stroke: #000000"/>
     <use xlink:href="#m7a91faa85c" x="77.661716" y="195.394092" style="stroke: #000000"/>
     <use xlink:href="#m7a91faa85c" x="79.05018" y="187.902612" style="stroke: #000000"/>
     <use xlink:href="#m7a91faa85c" x="80.828815" y="180.494064" style="stroke: #000000"/>
     <use xlink:href="#m7a91faa85c" x="82.992745" y="173.188757" style="stroke: #000000"/>
     <use xlink:href="#m7a91faa85c" x="85.536041" y="166.006712" style="stroke: #000000"/>
     <use xlink:href="#m7a91faa85c" x="88.45173" y="158.967616" style="stroke: #000000"/>
     <use xlink:href="#m7a91faa85c" x="91.731821" y="152.090763" style="stroke: #000000"/>
     <use xlink:href="#m7a91faa85c" x="95.367323" y="145.395" style="stroke: #000000"/>
     <use xlink:href="#m7a91faa85c" x="99.348272" y="138.898681" style="stroke: #000000"/>
     <use xlink:href="#m7a91faa85c" x="103.663757" y="132.619612" style="stroke: #000000"/>
     <use xlink:href="#m7a91faa85c" x="108.301948" y="126.575003" style="stroke: #000000"/>
     <use xlink:href="#m7a91faa85c" x="113.250134" y="120.781423" style="stroke: #000000"/>
     <use xlink:href="#m7a91faa85c" x="117.024675" y="113.784675" style="stroke: #000000"/>
     <use xlink:href="#m7a91faa85c" x="122.6303" y="108.465135" style="stroke: #000000"/>
     <use xlink:href="#m7a91faa85c" x="128.506646" y="103.446262" style="stroke: #000000"/>
     <use xlink:href="#m7a91faa85c" x="134.637607" y="98.74181" style="stroke: #000000"/>
     <use xlink:href="#m7a91faa85c" x="141.006377" y="94.364676" style="stroke: #000000"/>
     <use xlink:href="#m7a91faa85c" x="147.5955" y="90.326856" style="stroke: #000000"/>
     <use xlink:href="#m7a91faa85c" x="154.386916" y="86.639418" style="stroke: #000000"/>
     <use xlink:href="#m7a91faa85c" x="161.362011" y="83.312469" style="stroke: #000000"/>
     <use xlink:href="#m7a91faa85c" x="168.501665" y="80.355127" style="stroke: #000000"/>
     <use xlink:href="#m7a91faa85c" x="175.143864" y="75.798252" style="stroke: #000000"/>
     <use xlink:href="#m7a91faa85c" x="182.657895" y="73.572495" style="stroke: #000000"/>
     <use xlink:href="#m7a91faa85c" x="190.278115" y="71.743042" style="stroke: #000000"/>
     <use xlink:href="#m7a91faa85c" x="197.983638" y="70.314908" style="stroke: #000000"/>
     <use xlink:href="#m7a91faa85c" x="205.753343" y="69.292007" style="stroke: #000000"/>
     <use xlink:href="#m7a91faa85c" x="213.565935" y="68.677142" style="stroke: #000000"/>
     <use xlink:href="#m7a91faa85c" x="221.4" y="68.472" style="stroke: #000000"/>
     <use xlink:href="#m7a91faa85c" x="229.234065" y="68.677142" style="stroke: #000000"/>
     <use xlink:href="#m7a91faa85c" x="237.046657" y="69.292007" style="stroke: #000000"/>
     <use xlink:href="#m7a91faa85c" x="244.816362" y="70.314908" style="stroke: #000000"/>
     <use xlink:href="#m7a91faa85c" x="252.521885" y="71.743042" style="stroke: #000000"/>
     <use xlink:href="#m7a91faa85c" x="260.142105" y="73.572495" style="stroke: #000000"/>
     <use xlink:href="#m7a91faa85c" x="268.298582" y="73.821006" style="stroke: #000000"/>
     <use xlink:href="#m7a91faa85c" x="275.788429" y="76.473299" style="stroke: #000000"/>
     <use xlink:href="#m7a91faa85c" x="283.1292" y="79.513947" style="stroke: #000000"/>
     <use xlink:href="#m7a91faa85c" x="290.300776" y="82.934613" style="stroke: #000000"/>
     <use xlink:href="#m7a91faa85c" x="297.2835" y="86.725923" style="stroke: #000000"/>
     <use xlink:href="#m7a91faa85c" x="304.058232" y="90.877484" style="stroke: #000000"/>
     <use xlink:href="#m7a91faa85c" x="310.606404" y="95.377918" style="stroke: #000000"/>
     <use xlink:href="#m7a91faa85c" x="316.910068" y="100.214889" style="stroke: #000000"/>
     <use xlink:href="#m7a91faa85c" x="322.951945" y="105.375139" style="stroke: #000000"/>
     <use xlink:href="#m7a91faa85c" x="330.18555" y="109.37445" style="stroke: #000000"/>
     <use xlink:href="#m7a91faa85c" x="335.729859" y="115.216933" style="stroke: #000000"/>
     <use xlink:href="#m7a91faa85c" x="340.960798" y="121.341575" style="stroke: #000000"/>
     <use xlink:href="#m7a91faa85c" x="345.864029" y="127.73159" style="stroke: #000000"/>
     <use xlink:href="#m7a91faa85c" x="350.426112" y="134.369463" style="stroke: #000000"/>
     <use xlink:href="#m7a91faa85c" x="354.634544" y="141.237" style="stroke: #000000"/>
     <use xlink:href="#m7a91faa85c" x="358.47779" y="148.315378" style="stroke: #000000"/>
     <use xlink:href="#m7a91faa85c" x="361.945314" y="155.585194" style="stroke: #000000"/>
     <use xlink:href="#m7a91faa85c" x="365.027614" y="163.026524" style="stroke: #000000"/>
     <use xlink:href="#m7a91faa85c" x="367.716241" y="170.618971" style="stroke: #000000"/>
     <use xlink:href="#m7a91faa85c" x="370.003825" y="178.341725" style="stroke: #000000"/>
     <use xlink:href="#m7a91faa85c" x="371.884096" y="186.173618" style="stroke: #000000"/>
     <use xlink:href="#m7a91faa85c" x="373.3519" y="194.093183" style="stroke: #000000"/>
     <use xlink:href="#m7a91faa85c" x="374.403216" y="202.078714" style="stroke: #000000"/>
     <use xlink:href="#m7a91faa85c" x="375.035159" y="210.108322" style="stroke: #000000"/>
     <use xlink:href="#m7a91faa85c" x="375.246" y="218.16" style="stroke: #000000"/>
     <use xlink:href="#m7a91faa85c" x="375.035159" y="226.211678" style="stroke: #000000"/>
     <use xlink:href="#m7a91faa85c" x="374.403216" y="234.241286" style="stroke: #000000"/>
     <use xlink:href="#m7a91faa85c" x="373.3519" y="242.226817" style="stroke: #000000"/>
     <use xlink:href="#m7a91faa85c" x="371.884096" y="250.146382" style="stroke: #000000"/>
     <use xlink:href="#m7a91faa85c" x="370.003825" y="257.978275" style="stroke: #000000"/>
     <use xlink:href="#m7a91faa85c" x="367.716241" y="265.701029" style="stroke: #000000"/>
     <use xlink:href="#m7a91faa85c" x="365.027614" y="273.293476" style="stroke: #000000"/>
     <use xlink:href="#m7a91faa85c" x="361.945314" y="280.734806" style="stroke: #000000"/>
     <use xlink:href="#m7a91faa85c" x="358.47779" y="288.004622" style="stroke: #000000"/>
     <use xlink:href="#m7a91faa85c" x="354.634544" y="295.083" style="stroke: #000000"/>
     <use xlink:href="#m7a91faa85c" x="348.682516" y="300.818232" style="stroke: #000000"/>
     <use xlink:href="#m7a91faa85c" x="344.182082" y="307.366404" style="stroke: #000000"/>
     <use xlink:href="#m7a91faa85c" x="339.345111" y="313.670068" style="stroke: #000000"/>
     <use xlink:href="#m7a91faa85c" x="334.184861" y="319.711945" style="stroke: #000000"/>
     <use xlink:href="#m7a91faa85c" x="328.715475" y="325.475475" style="stroke: #000000"/>
     <use xlink:href="#m7a91faa85c" x="322.951945" y="330.944861" style="stroke: #000000"/>
     <use xlink:href="#m7a91faa85c" x="315.601711" y="334.489425" style="stroke: #000000"/>
     <use xlink:href="#m7a91faa85c" x="309.384399" y="339.260136" style="stroke: #000000"/>
     <use xlink:href="#m7a91faa85c" x="302.925928" y="343.69892" style="stroke: #000000"/>
     <use xlink:href="#m7a91faa85c" x="296.244" y="347.793611" style="stroke: #000000"/>
     <use xlink:href="#m7a91faa85c" x="289.35693" y="351.532985" style="stroke: #000000"/>
     <use xlink:href="#m7a91faa85c" x="282.283595" y="354.906792" style="stroke: #000000"/>
     <use xlink:href="#m7a91faa85c" x="275.043382" y="357.905787" style="stroke: #000000"/>
     <use xlink:href="#m7a91faa85c" x="267.01369" y="358.544501" style="stroke: #000000"/>
     <use xlink:href="#m7a91faa85c" x="259.60402" y="360.739345" style="stroke: #000000"/>
     <use xlink:href="#m7a91faa85c" x="252.089637" y="362.543389" style="stroke: #000000"/>
     <use xlink:href="#m7a91faa85c" x="244.491135" y="363.951688" style="stroke: #000000"/>
     <use xlink:href="#m7a91faa85c" x="236.829342" y="364.960382" style="stroke: #000000"/>
     <use xlink:href="#m7a91faa85c" x="229.125258" y="365.566707" style="stroke: #000000"/>
     <use xlink:href="#m7a91faa85c" x="221.4" y="365.769" style="stroke: #000000"/>
     <use xlink:href="#m7a91faa85c" x="217.265355" y="297.053731" style="stroke: #000000"/>
     <use xlink:href="#m7a91faa85c" x="213.142042" y="296.729219" style="stroke: #000000"/>
     <use xlink:href="#m7a91faa85c" x="209.041364" y="296.189354" style="stroke: #000000"/>
     <use xlink:href="#m7a91faa85c" x="204.974561" y="295.435617" style="stroke: #000000"/>
     <use xlink:href="#m7a91faa85c" x="200.952778" y="294.470072" style="stroke: #000000"/>
     <use xlink:href="#m7a91faa85c" x="197.629486" y="291.31812" style="stroke: #000000"/>
     <use xlink:href="#m7a91faa85c" x="194.578309" y="288.032893" style="stroke: #000000"/>
     <use xlink:href="#m7a91faa85c" x="190.958203" y="286.533396" style="stroke: #000000"/>
     <use xlink:href="#m7a91faa85c" x="187.421535" y="284.846492" style="stroke: #000000"/>
     <use xlink:href="#m7a91faa85c" x="183.978" y="282.976805" style="stroke: #000000"/>
     <use xlink:href="#m7a91faa85c" x="183.978" y="282.976805" style="stroke: #000000"/>
     <use xlink:href="#m7a91faa85c" x="180.637036" y="280.92946" style="stroke: #000000"/>
     <use xlink:href="#m7a91faa85c" x="180.637036" y="280.92946" style="stroke: #000000"/>
     <use xlink:href="#m7a91faa85c" x="178.629806" y="277.028122" style="stroke: #000000"/>
     <use xlink:href="#m7a91faa85c" x="175.607502" y="274.709026" style="stroke: #000000"/>
     <use xlink:href="#m7a91faa85c" x="175.607502" y="274.709026" style="stroke: #000000"/>
     <use xlink:href="#m7a91faa85c" x="174.101834" y="270.689935" style="stroke: #000000"/>
     <use xlink:href="#m7a91faa85c" x="171.41745" y="268.14255" style="stroke: #000000"/>
     <use xlink:href="#m7a91faa85c" x="167.325067" y="266.849289" style="stroke: #000000"/>
     <use xlink:href="#m7a91faa85c" x="168.870065" y="265.458166" style="stroke: #000000"/>
     <use xlink:href="#m7a91faa85c" x="166.466661" y="262.644141" style="stroke: #000000"/>
     <use xlink:href="#m7a91faa85c" x="164.213825" y="259.708188" style="stroke: #000000"/>
     <use xlink:href="#m7a91faa85c" x="162.117732" y="256.658355" style="stroke: #000000"/>
     <use xlink:href="#m7a91faa85c" x="160.184128" y="253.503" style="stroke: #000000"/>
     <use xlink:href="#m7a91faa85c" x="160.184128" y="253.503" style="stroke: #000000"/>
     <use xlink:href="#m7a91faa85c" x="156.56591" y="251.194619" style="stroke: #000000"/>
     <use xlink:href="#m7a91faa85c" x="156.825126" y="246.910586" style="stroke: #000000"/>
     <use xlink:href="#m7a91faa85c" x="155.408934" y="243.491597" style="stroke: #000000"/>
     <use xlink:href="#m7a91faa85c" x="154.173619" y="240.003175" style="stroke: #000000"/>
     <use xlink:href="#m7a91faa85c" x="151.114407" y="236.992968" style="stroke: #000000"/>
     <use xlink:href="#m7a91faa85c" x="150.22509" y="233.288694" style="stroke: #000000"/>
     <use xlink:href="#m7a91faa85c" x="149.530858" y="229.542954" style="stroke: #000000"/>
     <use xlink:href="#m7a91faa85c" x="149.033614" y="225.766014" style="stroke: #000000"/>
     <use xlink:href="#m7a91faa85c" x="148.734722" y="221.968226" style="stroke: #000000"/>
     <use xlink:href="#m7a91faa85c" x="148.635" y="218.16" style="stroke: #000000"/>
     <use xlink:href="#m7a91faa85c" x="148.734722" y="214.351774" style="stroke: #000000"/>
     <use xlink:href="#m7a91faa85c" x="149.033614" y="210.553986" style="stroke: #000000"/>
     <use xlink:href="#m7a91faa85c" x="147.477454" y="206.451819" style="stroke: #000000"/>
     <use xlink:href="#m7a91faa85c" x="148.191521" y="202.599057" style="stroke: #000000"/>
     <use xlink:href="#m7a91faa85c" x="149.106247" y="198.788947" style="stroke: #000000"/>
     <use xlink:href="#m7a91faa85c" x="150.219126" y="195.031932" style="stroke: #000000"/>
     <use xlink:href="#m7a91faa85c" x="151.527107" y="191.338309" style="stroke: #000000"/>
     <use xlink:href="#m7a91faa85c" x="153.026604" y="187.718203" style="stroke: #000000"/>
     <use xlink:href="#m7a91faa85c" x="152.861105" y="183.237689" style="stroke: #000000"/>
     <use xlink:href="#m7a91faa85c" x="154.782728" y="179.6985" style="stroke: #000000"/>
     <use xlink:href="#m7a91faa85c" x="156.886944" y="176.264732" style="stroke: #000000"/>
     <use xlink:href="#m7a91faa85c" x="159.167986" y="172.945795" style="stroke: #000000"/>
     <use xlink:href="#m7a91faa85c" x="161.619601" y="169.750788" style="stroke: #000000"/>
     <use xlink:href="#m7a91faa85c" x="164.235071" y="166.688466" style="stroke: #000000"/>
     <use xlink:href="#m7a91faa85c" x="167.007225" y="163.767225" style="stroke: #000000"/>
     <use xlink:href="#m7a91faa85c" x="168.537344" y="159.450072" style="stroke: #000000"/>
     <use xlink:href="#m7a91faa85c" x="172.990788" y="158.379601" style="stroke: #000000"/>
     <use xlink:href="#m7a91faa85c" x="174.963789" y="154.246039" style="stroke: #000000"/>
     <use xlink:href="#m7a91faa85c" x="181.899" y="149.742261" style="stroke: #000000"/>
     <use xlink:href="#m7a91faa85c" x="185.533843" y="147.768703" style="stroke: #000000"/>
     <use xlink:href="#m7a91faa85c" x="189.266992" y="145.988082" style="stroke: #000000"/>
     <use xlink:href="#m7a91faa85c" x="192.343168" y="142.464365" style="stroke: #000000"/>
     <use xlink:href="#m7a91faa85c" x="196.344593" y="141.047387" style="stroke: #000000"/>
     <use xlink:href="#m7a91faa85c" x="200.414693" y="139.841768" style="stroke: #000000"/>
     <use xlink:href="#m7a91faa85c" x="204.542312" y="138.850814" style="stroke: #000000"/>
     <use xlink:href="#m7a91faa85c" x="208.716137" y="138.077242" style="stroke: #000000"/>
     <use xlink:href="#m7a91faa85c" x="212.707413" y="135.455559" style="stroke: #000000"/>
     <use xlink:href="#m7a91faa85c" x="217.047742" y="135.113968" style="stroke: #000000"/>
     <use xlink:href="#m7a91faa85c" x="221.4" y="135" style="stroke: #000000"/>
     <use xlink:href="#m7a91faa85c" x="225.752258" y="135.113968" style="stroke: #000000"/>
     <use xlink:href="#m7a91faa85c" x="230.092587" y="135.455559" style="stroke: #000000"/>
     <use xlink:href="#m7a91faa85c" x="234.40909" y="136.023838" style="stroke: #000000"/>
     <use xlink:href="#m7a91faa85c" x="238.689936" y="136.817246" style="stroke: #000000"/>
     <use xlink:href="#m7a91faa85c" x="243.461477" y="135.825448" style="stroke: #000000"/>
     <use xlink:href="#m7a91faa85c" x="247.7403" y="137.092894" style="stroke: #000000"/>
     <use xlink:href="#m7a91faa85c" x="251.946926" y="138.582538" style="stroke: #000000"/>
     <use xlink:href="#m7a91faa85c" x="256.069825" y="140.290299" style="stroke: #000000"/>
     <use xlink:href="#m7a91faa85c" x="260.097696" y="142.211495" style="stroke: #000000"/>
     <use xlink:href="#m7a91faa85c" x="264.0195" y="144.340861" style="stroke: #000000"/>
     <use xlink:href="#m7a91faa85c" x="267.824487" y="146.672559" style="stroke: #000000"/>
     <use xlink:href="#m7a91faa85c" x="271.502227" y="149.2002" style="stroke: #000000"/>
     <use xlink:href="#m7a91faa85c" x="275.042641" y="151.916855" style="stroke: #000000"/>
     <use xlink:href="#m7a91faa85c" x="278.436024" y="154.815078" style="stroke: #000000"/>
     <use xlink:href="#m7a91faa85c" x="281.673075" y="157.886925" style="stroke: #000000"/>
     <use xlink:href="#m7a91faa85c" x="284.744922" y="161.123976" style="stroke: #000000"/>
     <use xlink:href="#m7a91faa85c" x="287.643145" y="164.517359" style="stroke: #000000"/>
     <use xlink:href="#m7a91faa85c" x="287.643145" y="164.517359" style="stroke: #000000"/>
     <use xlink:href="#m7a91faa85c" x="288.677853" y="169.279778" style="stroke: #000000"/>
     <use xlink:href="#m7a91faa85c" x="292.887441" y="171.735513" style="stroke: #000000"/>
     <use xlink:href="#m7a91faa85c" x="295.219139" y="175.5405" style="stroke: #000000"/>
     <use xlink:href="#m7a91faa85c" x="293.418673" y="176.58" style="stroke: #000000"/>
     <use xlink:href="#m7a91faa85c" x="295.496103" y="180.40615" style="stroke: #000000"/>
     <use xlink:href="#m7a91faa85c" x="297.37044" y="184.335781" style="stroke: #000000"/>
     <use xlink:href="#m7a91faa85c" x="299.036548" y="188.358121" style="stroke: #000000"/>
     <use xlink:href="#m7a91faa85c" x="300.48986" y="192.462147" style="stroke: #000000"/>
     <use xlink:href="#m7a91faa85c" x="300.48986" y="192.462147" style="stroke: #000000"/>
     <use xlink:href="#m7a91faa85c" x="301.726392" y="196.636608" style="stroke: #000000"/>
     <use xlink:href="#m7a91faa85c" x="302.742754" y="200.870064" style="stroke: #000000"/>
     <use xlink:href="#m7a91faa85c" x="305.589566" y="204.825683" style="stroke: #000000"/>
     <use xlink:href="#m7a91faa85c" x="306.172052" y="209.250098" style="stroke: #000000"/>
     <use xlink:href="#m7a91faa85c" x="306.522183" y="213.698935" style="stroke: #000000"/>
     <use xlink:href="#m7a91faa85c" x="306.639" y="218.16" style="stroke: #000000"/>
     <use xlink:href="#m7a91faa85c" x="308.598334" y="222.729871" style="stroke: #000000"/>
     <use xlink:href="#m7a91faa85c" x="308.239663" y="227.287216" style="stroke: #000000"/>
     <use xlink:href="#m7a91faa85c" x="305.589566" y="231.494317" style="stroke: #000000"/>
     <use xlink:href="#m7a91faa85c" x="304.776323" y="235.882185" style="stroke: #000000"/>
     <use xlink:href="#m7a91faa85c" x="303.734552" y="240.221477" style="stroke: #000000"/>
     <use xlink:href="#m7a91faa85c" x="302.467106" y="244.5003" style="stroke: #000000"/>
     <use xlink:href="#m7a91faa85c" x="300.977462" y="248.706926" style="stroke: #000000"/>
     <use xlink:href="#m7a91faa85c" x="299.269701" y="252.829825" style="stroke: #000000"/>
     <use xlink:href="#m7a91faa85c" x="297.348505" y="256.857696" style="stroke: #000000"/>
     <use xlink:href="#m7a91faa85c" x="295.219139" y="260.7795" style="stroke: #000000"/>
     <use xlink:href="#m7a91faa85c" x="293.418673" y="259.74" style="stroke: #000000"/>
     <use xlink:href="#m7a91faa85c" x="291.143844" y="263.452182" style="stroke: #000000"/>
     <use xlink:href="#m7a91faa85c" x="291.143844" y="263.452182" style="stroke: #000000"/>
     <use xlink:href="#m7a91faa85c" x="288.677853" y="267.040222" style="stroke: #000000"/>
     <use xlink:href="#m7a91faa85c" x="286.027458" y="270.494284" style="stroke: #000000"/>
     <use xlink:href="#m7a91faa85c" x="283.199924" y="273.804901" style="stroke: #000000"/>
     <use xlink:href="#m7a91faa85c" x="280.203" y="276.963" style="stroke: #000000"/>
     <use xlink:href="#m7a91faa85c" x="277.044901" y="279.959924" style="stroke: #000000"/>
     <use xlink:href="#m7a91faa85c" x="273.734284" y="282.787458" style="stroke: #000000"/>
     <use xlink:href="#m7a91faa85c" x="270.280222" y="285.437853" style="stroke: #000000"/>
     <use xlink:href="#m7a91faa85c" x="266.692182" y="287.903844" style="stroke: #000000"/>
     <use xlink:href="#m7a91faa85c" x="262.98" y="290.178673" style="stroke: #000000"/>
     <use xlink:href="#m7a91faa85c" x="259.15385" y="292.256103" style="stroke: #000000"/>
     <use xlink:href="#m7a91faa85c" x="255.224219" y="294.13044" style="stroke: #000000"/>
     <use xlink:href="#m7a91faa85c" x="251.201879" y="295.796548" style="stroke: #000000"/>
     <use xlink:href="#m7a91faa85c" x="247.097853" y="297.24986" style="stroke: #000000"/>
     <use xlink:href="#m7a91faa85c" x="242.923392" y="298.486392" style="stroke: #000000"/>
     <use xlink:href="#m7a91faa85c" x="238.689936" y="299.502754" style="stroke: #000000"/>
     <use xlink:href="#m7a91faa85c" x="234.40909" y="300.296162" style="stroke: #000000"/>
     <use xlink:href="#m7a91faa85c" x="229.875272" y="298.79683" style="stroke: #000000"/>
     <use xlink:href="#m7a91faa85c" x="225.643452" y="299.129881" style="stroke: #000000"/>
     <use xlink:href="#m7a91faa85c" x="221.4" y="297.162" style="stroke: #000000"/>
    </g>
   </g>
   <g id="patch_3">
    <path d="M 221.4 51.84 
C 199.559058 51.84 177.930491 56.142189 157.752092 64.500356 
C 137.573692 72.858523 119.237879 85.110122 103.794 100.554 
C 88.350122 115.997879 76.098523 134.333692 67.740356 154.512092 
C 59.382189 174.690491 55.08 196.319058 55.08 218.16 
C 55.08 240.000942 59.382189 261.629509 67.740356 281.807908 
C 76.098523 301.986308 88.350122 320.322121 103.794 335.766 
C 119.237879 351.209878 137.573692 363.461477 157.752092 371.819644 
C 177.930491 380.177811 199.559058 384.48 221.4 384.48 
C 243.240942 384.48 264.869509 380.177811 285.047908 371.819644 
C 305.226308 363.461477 323.562121 351.209878 339.006 335.766 
C 354.449878 320.322121 366.701477 301.986308 375.059644 281.807908 
C 383.417811 261.629509 387.72 240.000942 387.72 218.16 
C 387.72 196.319058 383.417811 174.690491 375.059644 154.512092 
C 366.701477 134.333692 354.449878 115.997879 339.006 100.554 
C 323.562121 85.110122 305.226308 72.858523 285.047908 64.500356 
C 264.869509 56.142189 243.240942 51.84 221.4 51.84 
" style="fill: none; stroke: #ffffff; stroke-width: 1.25; stroke-linejoin: miter; stroke-linecap: square"/>
   </g>
  </g>
 </g>
 <defs>
  <clipPath id="pb44caa9f4a">
   <path d="M 387.72 218.16 
C 387.72 196.319058 383.417811 174.690491 375.059644 154.512092 
C 366.701477 134.333692 354.449878 115.997879 339.006 100.554 
C 323.562121 85.110122 305.226308 72.858523 285.047908 64.500356 
C 264.869509 56.142189 243.240942 51.84 221.4 51.84 
C 199.559058 51.84 177.930491 56.142189 157.752092 64.500356 
C 137.573692 72.858523 119.237879 85.110122 103.794 100.554 
C 88.350122 115.997879 76.098523 134.333692 67.740356 154.512092 
C 59.382189 174.690491 55.08 196.319058 55.08 218.16 
C 55.08 240.000942 59.382189 261.629509 67.740356 281.807908 
C 76.098523 301.986308 88.350122 320.322121 103.794 335.766 
C 119.237879 351.209878 137.573692 363.461477 157.752092 371.819644 
C 177.930491 380.177811 199.559058 384.48 221.4 384.48 
C 243.240942 384.48 264.869509 380.177811 285.047908 371.819644 
C 305.226308 363.461477 323.562121 351.209878 339.006 335.766 
C 354.449878 320.322121 366.701477 301.986308 375.059644 281.807908 
C 383.417811 261.629509 387.72 240.000942 387.72 218.16 
M 221.4 218.16 
C 221.4 218.16 221.4 218.16 221.4 218.16 
C 221.4 218.16 221.4 218.16 221.4 218.16 
C 221.4 218.16 221.4 218.16 221.4 218.16 
C 221.4 218.16 221.4 218.16 221.4 218.16 
C 221.4 218.16 221.4 218.16 221.4 218.16 
C 221.4 218.16 221.4 218.16 221.4 218.16 
C 221.4 218.16 221.4 218.16 221.4 218.16 
C 221.4 218.16 221.4 218.16 221.4 218.16 
C 221.4 218.16 221.4 218.16 221.4 218.16 
C 221.4 218.16 221.4 218.16 221.4 218.16 
C 221.4 218.16 221.4 218.16 221.4 218.16 
C 221.4 218.16 221.4 218.16 221.4 218.16 
C 221.4 218.16 221.4 218.16 221.4 218.16 
C 221.4 218.16 221.4 218.16 221.4 218.16 
C 221.4 218.16 221.4 218.16 221.4 218.16 
C 221.4 218.16 221.4 218.16 221.4 218.16 
z
"/>
  </clipPath>
 </defs>
</svg>
