<?xml version="1.0" encoding="utf-8" standalone="no"?>
<!DOCTYPE svg PUBLIC "-//W3C//DTD SVG 1.1//EN"
  "http://www.w3.org/Graphics/SVG/1.1/DTD/svg11.dtd">
<svg xmlns:xlink="http://www.w3.org/1999/xlink" width="460.8pt" height="345.6pt" viewBox="0 0 460.8 345.6" xmlns="http://www.w3.org/2000/svg" version="1.1">
 <metadata>
  <rdf:RDF xmlns:dc="http://purl.org/dc/elements/1.1/" xmlns:cc="http://creativecommons.org/ns#" xmlns:rdf="http://www.w3.org/1999/02/22-rdf-syntax-ns#">
   <cc:Work>
    <dc:type rdf:resource="http://purl.org/dc/dcmitype/StillImage"/>
    <dc:date>2024-07-23T10:01:52.634178</dc:date>
    <dc:format>image/svg+xml</dc:format>
    <dc:creator>
     <cc:Agent>
      <dc:title>Matplotlib v3.9.1, https://matplotlib.org/</dc:title>
     </cc:Agent>
    </dc:creator>
   </cc:Work>
  </rdf:RDF>
 </metadata>
 <defs>
  <style type="text/css">*{stroke-linejoin: round; stroke-linecap: butt}</style>
 </defs>
 <g id="figure_1">
  <g id="patch_1">
   <path d="M 0 345.6 
L 460.8 345.6 
L 460.8 0 
L 0 0 
z
" style="fill: #ffffff"/>
  </g>
  <g id="axes_1">
   <g id="patch_2">
    <path d="M 369.216 174.528 
C 369.216 157.055246 365.774248 139.752393 359.087715 123.609673 
C 352.401182 107.466954 342.599903 92.798303 330.2448 80.4432 
C 317.889697 68.088097 303.221046 58.286818 287.078327 51.600285 
C 270.935607 44.913752 253.632754 41.472 236.16 41.472 
C 218.687246 41.472 201.384393 44.913752 185.241673 51.600285 
C 169.098954 58.286818 154.430303 68.088097 142.0752 80.4432 
C 129.720097 92.798303 119.918818 107.466954 113.232285 123.609673 
C 106.545752 139.752393 103.104 157.055246 103.104 174.528 
C 103.104 192.000754 106.545752 209.303607 113.232285 225.446327 
C 119.918818 241.589046 129.720097 256.257697 142.0752 268.6128 
C 154.430303 280.967903 169.098954 290.769182 185.241673 297.455715 
C 201.384393 304.142248 218.687246 307.584 236.16 307.584 
C 253.632754 307.584 270.935607 304.142248 287.078327 297.455715 
C 303.221046 290.769182 317.889697 280.967903 330.2448 268.6128 
C 342.599903 256.257697 352.401182 241.589046 359.087715 225.446327 
C 365.774248 209.303607 369.216 192.000754 369.216 174.528 
M 236.16 174.528 
C 236.16 174.528 236.16 174.528 236.16 174.528 
C 236.16 174.528 236.16 174.528 236.16 174.528 
C 236.16 174.528 236.16 174.528 236.16 174.528 
C 236.16 174.528 236.16 174.528 236.16 174.528 
C 236.16 174.528 236.16 174.528 236.16 174.528 
C 236.16 174.528 236.16 174.528 236.16 174.528 
C 236.16 174.528 236.16 174.528 236.16 174.528 
C 236.16 174.528 236.16 174.528 236.16 174.528 
C 236.16 174.528 236.16 174.528 236.16 174.528 
C 236.16 174.528 236.16 174.528 236.16 174.528 
C 236.16 174.528 236.16 174.528 236.16 174.528 
C 236.16 174.528 236.16 174.528 236.16 174.528 
C 236.16 174.528 236.16 174.528 236.16 174.528 
C 236.16 174.528 236.16 174.528 236.16 174.528 
C 236.16 174.528 236.16 174.528 236.16 174.528 
C 236.16 174.528 236.16 174.528 236.16 174.528 
z
" style="fill: #eaeaf2"/>
   </g>
   <g id="matplotlib.axis_1">
    <g id="xtick_1">
     <g id="line2d_1">
      <path d="M 236.16 174.528 
L 236.16 41.472 
" clip-path="url(#pf6bd00bb8d)" style="fill: none; stroke: #ffffff; stroke-linecap: round"/>
     </g>
     <g id="text_1">
      <!-- 0° -->
      <g style="fill: #262626" transform="translate(230.902344 27.815672) scale(0.11 -0.11)">
       <defs>
        <path id="ArialMT-30" d="M 266 2259 
Q 266 3072 433 3567 
Q 600 4063 929 4331 
Q 1259 4600 1759 4600 
Q 2128 4600 2406 4451 
Q 2684 4303 2865 4023 
Q 3047 3744 3150 3342 
Q 3253 2941 3253 2259 
Q 3253 1453 3087 958 
Q 2922 463 2592 192 
Q 2263 -78 1759 -78 
Q 1097 -78 719 397 
Q 266 969 266 2259 
z
M 844 2259 
Q 844 1131 1108 757 
Q 1372 384 1759 384 
Q 2147 384 2411 759 
Q 2675 1134 2675 2259 
Q 2675 3391 2411 3762 
Q 2147 4134 1753 4134 
Q 1366 4134 1134 3806 
Q 844 3388 844 2259 
z
" transform="scale(0.015625)"/>
        <path id="ArialMT-b0" d="M 400 3794 
Q 400 4153 654 4406 
Q 909 4659 1266 4659 
Q 1628 4659 1881 4406 
Q 2134 4153 2134 3794 
Q 2134 3434 1879 3179 
Q 1625 2925 1266 2925 
Q 909 2925 654 3178 
Q 400 3431 400 3794 
z
M 741 3794 
Q 741 3575 895 3420 
Q 1050 3266 1269 3266 
Q 1484 3266 1639 3420 
Q 1794 3575 1794 3794 
Q 1794 4013 1639 4167 
Q 1484 4322 1269 4322 
Q 1050 4322 895 4167 
Q 741 4013 741 3794 
z
" transform="scale(0.015625)"/>
       </defs>
       <use xlink:href="#ArialMT-30"/>
       <use xlink:href="#ArialMT-b0" x="55.615234"/>
      </g>
     </g>
    </g>
    <g id="xtick_2">
     <g id="line2d_2">
      <path d="M 236.16 174.528 
L 330.2448 80.4432 
" clip-path="url(#pf6bd00bb8d)" style="fill: none; stroke: #ffffff; stroke-linecap: round"/>
     </g>
     <g id="text_2">
      <!-- 45° -->
      <g style="fill: #262626" transform="translate(333.59589 71.61961) scale(0.11 -0.11)">
       <defs>
        <path id="ArialMT-34" d="M 2069 0 
L 2069 1097 
L 81 1097 
L 81 1613 
L 2172 4581 
L 2631 4581 
L 2631 1613 
L 3250 1613 
L 3250 1097 
L 2631 1097 
L 2631 0 
L 2069 0 
z
M 2069 1613 
L 2069 3678 
L 634 1613 
L 2069 1613 
z
" transform="scale(0.015625)"/>
        <path id="ArialMT-35" d="M 266 1200 
L 856 1250 
Q 922 819 1161 601 
Q 1400 384 1738 384 
Q 2144 384 2425 690 
Q 2706 997 2706 1503 
Q 2706 1984 2436 2262 
Q 2166 2541 1728 2541 
Q 1456 2541 1237 2417 
Q 1019 2294 894 2097 
L 366 2166 
L 809 4519 
L 3088 4519 
L 3088 3981 
L 1259 3981 
L 1013 2750 
Q 1425 3038 1878 3038 
Q 2478 3038 2890 2622 
Q 3303 2206 3303 1553 
Q 3303 931 2941 478 
Q 2500 -78 1738 -78 
Q 1113 -78 717 272 
Q 322 622 266 1200 
z
" transform="scale(0.015625)"/>
       </defs>
       <use xlink:href="#ArialMT-34"/>
       <use xlink:href="#ArialMT-35" x="55.615234"/>
       <use xlink:href="#ArialMT-b0" x="111.230469"/>
      </g>
     </g>
    </g>
    <g id="xtick_3">
     <g id="line2d_3">
      <path d="M 236.16 174.528 
L 369.216 174.528 
" clip-path="url(#pf6bd00bb8d)" style="fill: none; stroke: #ffffff; stroke-linecap: round"/>
     </g>
     <g id="text_3">
      <!-- 90° -->
      <g style="fill: #262626" transform="translate(377.399828 177.371672) scale(0.11 -0.11)">
       <defs>
        <path id="ArialMT-39" d="M 350 1059 
L 891 1109 
Q 959 728 1153 556 
Q 1347 384 1650 384 
Q 1909 384 2104 503 
Q 2300 622 2425 820 
Q 2550 1019 2634 1356 
Q 2719 1694 2719 2044 
Q 2719 2081 2716 2156 
Q 2547 1888 2255 1720 
Q 1963 1553 1622 1553 
Q 1053 1553 659 1965 
Q 266 2378 266 3053 
Q 266 3750 677 4175 
Q 1088 4600 1706 4600 
Q 2153 4600 2523 4359 
Q 2894 4119 3086 3673 
Q 3278 3228 3278 2384 
Q 3278 1506 3087 986 
Q 2897 466 2520 194 
Q 2144 -78 1638 -78 
Q 1100 -78 759 220 
Q 419 519 350 1059 
z
M 2653 3081 
Q 2653 3566 2395 3850 
Q 2138 4134 1775 4134 
Q 1400 4134 1122 3828 
Q 844 3522 844 3034 
Q 844 2597 1108 2323 
Q 1372 2050 1759 2050 
Q 2150 2050 2401 2323 
Q 2653 2597 2653 3081 
z
" transform="scale(0.015625)"/>
       </defs>
       <use xlink:href="#ArialMT-39"/>
       <use xlink:href="#ArialMT-30" x="55.615234"/>
       <use xlink:href="#ArialMT-b0" x="111.230469"/>
      </g>
     </g>
    </g>
    <g id="xtick_4">
     <g id="line2d_4">
      <path d="M 236.16 174.528 
L 330.2448 268.6128 
" clip-path="url(#pf6bd00bb8d)" style="fill: none; stroke: #ffffff; stroke-linecap: round"/>
     </g>
     <g id="text_4">
      <!-- 135° -->
      <g style="fill: #262626" transform="translate(330.537374 283.123734) scale(0.11 -0.11)">
       <defs>
        <path id="ArialMT-31" d="M 2384 0 
L 1822 0 
L 1822 3584 
Q 1619 3391 1289 3197 
Q 959 3003 697 2906 
L 697 3450 
Q 1169 3672 1522 3987 
Q 1875 4303 2022 4600 
L 2384 4600 
L 2384 0 
z
" transform="scale(0.015625)"/>
        <path id="ArialMT-33" d="M 269 1209 
L 831 1284 
Q 928 806 1161 595 
Q 1394 384 1728 384 
Q 2125 384 2398 659 
Q 2672 934 2672 1341 
Q 2672 1728 2419 1979 
Q 2166 2231 1775 2231 
Q 1616 2231 1378 2169 
L 1441 2663 
Q 1497 2656 1531 2656 
Q 1891 2656 2178 2843 
Q 2466 3031 2466 3422 
Q 2466 3731 2256 3934 
Q 2047 4138 1716 4138 
Q 1388 4138 1169 3931 
Q 950 3725 888 3313 
L 325 3413 
Q 428 3978 793 4289 
Q 1159 4600 1703 4600 
Q 2078 4600 2393 4439 
Q 2709 4278 2876 4000 
Q 3044 3722 3044 3409 
Q 3044 3113 2884 2869 
Q 2725 2625 2413 2481 
Q 2819 2388 3044 2092 
Q 3269 1797 3269 1353 
Q 3269 753 2831 336 
Q 2394 -81 1725 -81 
Q 1122 -81 723 278 
Q 325 638 269 1209 
z
" transform="scale(0.015625)"/>
       </defs>
       <use xlink:href="#ArialMT-31"/>
       <use xlink:href="#ArialMT-33" x="55.615234"/>
       <use xlink:href="#ArialMT-35" x="111.230469"/>
       <use xlink:href="#ArialMT-b0" x="166.845703"/>
      </g>
     </g>
    </g>
    <g id="xtick_5">
     <g id="line2d_5">
      <path d="M 236.16 174.528 
L 236.16 307.584 
" clip-path="url(#pf6bd00bb8d)" style="fill: none; stroke: #ffffff; stroke-linecap: round"/>
     </g>
     <g id="text_5">
      <!-- 180° -->
      <g style="fill: #262626" transform="translate(224.785312 326.927672) scale(0.11 -0.11)">
       <defs>
        <path id="ArialMT-38" d="M 1131 2484 
Q 781 2613 612 2850 
Q 444 3088 444 3419 
Q 444 3919 803 4259 
Q 1163 4600 1759 4600 
Q 2359 4600 2725 4251 
Q 3091 3903 3091 3403 
Q 3091 3084 2923 2848 
Q 2756 2613 2416 2484 
Q 2838 2347 3058 2040 
Q 3278 1734 3278 1309 
Q 3278 722 2862 322 
Q 2447 -78 1769 -78 
Q 1091 -78 675 323 
Q 259 725 259 1325 
Q 259 1772 486 2073 
Q 713 2375 1131 2484 
z
M 1019 3438 
Q 1019 3113 1228 2906 
Q 1438 2700 1772 2700 
Q 2097 2700 2305 2904 
Q 2513 3109 2513 3406 
Q 2513 3716 2298 3927 
Q 2084 4138 1766 4138 
Q 1444 4138 1231 3931 
Q 1019 3725 1019 3438 
z
M 838 1322 
Q 838 1081 952 856 
Q 1066 631 1291 507 
Q 1516 384 1775 384 
Q 2178 384 2440 643 
Q 2703 903 2703 1303 
Q 2703 1709 2433 1975 
Q 2163 2241 1756 2241 
Q 1359 2241 1098 1978 
Q 838 1716 838 1322 
z
" transform="scale(0.015625)"/>
       </defs>
       <use xlink:href="#ArialMT-31"/>
       <use xlink:href="#ArialMT-38" x="55.615234"/>
       <use xlink:href="#ArialMT-30" x="111.230469"/>
       <use xlink:href="#ArialMT-b0" x="166.845703"/>
      </g>
     </g>
    </g>
    <g id="xtick_6">
     <g id="line2d_6">
      <path d="M 236.16 174.528 
L 142.0752 268.6128 
" clip-path="url(#pf6bd00bb8d)" style="fill: none; stroke: #ffffff; stroke-linecap: round"/>
     </g>
     <g id="text_6">
      <!-- 225° -->
      <g style="fill: #262626" transform="translate(119.033251 283.123734) scale(0.11 -0.11)">
       <defs>
        <path id="ArialMT-32" d="M 3222 541 
L 3222 0 
L 194 0 
Q 188 203 259 391 
Q 375 700 629 1000 
Q 884 1300 1366 1694 
Q 2113 2306 2375 2664 
Q 2638 3022 2638 3341 
Q 2638 3675 2398 3904 
Q 2159 4134 1775 4134 
Q 1369 4134 1125 3890 
Q 881 3647 878 3216 
L 300 3275 
Q 359 3922 746 4261 
Q 1134 4600 1788 4600 
Q 2447 4600 2831 4234 
Q 3216 3869 3216 3328 
Q 3216 3053 3103 2787 
Q 2991 2522 2730 2228 
Q 2469 1934 1863 1422 
Q 1356 997 1212 845 
Q 1069 694 975 541 
L 3222 541 
z
" transform="scale(0.015625)"/>
       </defs>
       <use xlink:href="#ArialMT-32"/>
       <use xlink:href="#ArialMT-32" x="55.615234"/>
       <use xlink:href="#ArialMT-35" x="111.230469"/>
       <use xlink:href="#ArialMT-b0" x="166.845703"/>
      </g>
     </g>
    </g>
    <g id="xtick_7">
     <g id="line2d_7">
      <path d="M 236.16 174.528 
L 103.104 174.528 
" clip-path="url(#pf6bd00bb8d)" style="fill: none; stroke: #ffffff; stroke-linecap: round"/>
     </g>
     <g id="text_7">
      <!-- 270° -->
      <g style="fill: #262626" transform="translate(75.229313 177.371672) scale(0.11 -0.11)">
       <defs>
        <path id="ArialMT-37" d="M 303 3981 
L 303 4522 
L 3269 4522 
L 3269 4084 
Q 2831 3619 2401 2847 
Q 1972 2075 1738 1259 
Q 1569 684 1522 0 
L 944 0 
Q 953 541 1156 1306 
Q 1359 2072 1739 2783 
Q 2119 3494 2547 3981 
L 303 3981 
z
" transform="scale(0.015625)"/>
       </defs>
       <use xlink:href="#ArialMT-32"/>
       <use xlink:href="#ArialMT-37" x="55.615234"/>
       <use xlink:href="#ArialMT-30" x="111.230469"/>
       <use xlink:href="#ArialMT-b0" x="166.845703"/>
      </g>
     </g>
    </g>
    <g id="xtick_8">
     <g id="line2d_8">
      <path d="M 236.16 174.528 
L 142.0752 80.4432 
" clip-path="url(#pf6bd00bb8d)" style="fill: none; stroke: #ffffff; stroke-linecap: round"/>
     </g>
     <g id="text_8">
      <!-- 315° -->
      <g style="fill: #262626" transform="translate(119.033251 71.61961) scale(0.11 -0.11)">
       <use xlink:href="#ArialMT-33"/>
       <use xlink:href="#ArialMT-31" x="55.615234"/>
       <use xlink:href="#ArialMT-35" x="111.230469"/>
       <use xlink:href="#ArialMT-b0" x="166.845703"/>
      </g>
     </g>
    </g>
   </g>
   <g id="matplotlib.axis_2">
    <g id="ytick_1">
     <g id="line2d_9">
      <path d="M 236.16 174.528 
C 236.16 174.528 236.16 174.528 236.16 174.528 
C 236.16 174.528 236.16 174.528 236.16 174.528 
C 236.16 174.528 236.16 174.528 236.16 174.528 
C 236.16 174.528 236.16 174.528 236.16 174.528 
C 236.16 174.528 236.16 174.528 236.16 174.528 
C 236.16 174.528 236.16 174.528 236.16 174.528 
C 236.16 174.528 236.16 174.528 236.16 174.528 
C 236.16 174.528 236.16 174.528 236.16 174.528 
C 236.16 174.528 236.16 174.528 236.16 174.528 
C 236.16 174.528 236.16 174.528 236.16 174.528 
C 236.16 174.528 236.16 174.528 236.16 174.528 
C 236.16 174.528 236.16 174.528 236.16 174.528 
C 236.16 174.528 236.16 174.528 236.16 174.528 
C 236.16 174.528 236.16 174.528 236.16 174.528 
C 236.16 174.528 236.16 174.528 236.16 174.528 
C 236.16 174.528 236.16 174.528 236.16 174.528 
" clip-path="url(#pf6bd00bb8d)" style="fill: none; stroke: #ffffff; stroke-linecap: round"/>
     </g>
     <g id="text_9">
      <!-- 0.0 -->
      <g style="fill: #dc143c" transform="translate(236.16 172.34175) scale(0.11 -0.11)">
       <defs>
        <path id="ArialMT-2e" d="M 581 0 
L 581 641 
L 1222 641 
L 1222 0 
L 581 0 
z
" transform="scale(0.015625)"/>
       </defs>
       <use xlink:href="#ArialMT-30"/>
       <use xlink:href="#ArialMT-2e" x="55.615234"/>
       <use xlink:href="#ArialMT-30" x="83.398438"/>
      </g>
     </g>
    </g>
    <g id="ytick_2">
     <g id="line2d_10">
      <path d="M 236.16 160.304219 
C 238.02785 160.304219 239.877537 160.672145 241.603205 161.38694 
C 243.328874 162.101735 244.896963 163.149499 246.217732 164.470268 
C 247.538501 165.791037 248.586265 167.359126 249.30106 169.084795 
C 250.015855 170.810463 250.383781 172.66015 250.383781 174.528 
C 250.383781 176.39585 250.015855 178.245537 249.30106 179.971205 
C 248.586265 181.696874 247.538501 183.264963 246.217732 184.585732 
C 244.896963 185.906501 243.328874 186.954265 241.603205 187.66906 
C 239.877537 188.383855 238.02785 188.751781 236.16 188.751781 
C 234.29215 188.751781 232.442463 188.383855 230.716795 187.66906 
C 228.991126 186.954265 227.423037 185.906501 226.102268 184.585732 
C 224.781499 183.264963 223.733735 181.696874 223.01894 179.971205 
C 222.304145 178.245537 221.936219 176.39585 221.936219 174.528 
C 221.936219 172.66015 222.304145 170.810463 223.01894 169.084795 
C 223.733735 167.359126 224.781499 165.791037 226.102268 164.470268 
C 227.423037 163.149499 228.991126 162.101735 230.716795 161.38694 
C 232.442463 160.672145 234.29215 160.304219 236.16 160.304219 
" clip-path="url(#pf6bd00bb8d)" style="fill: none; stroke: #ffffff; stroke-linecap: round"/>
     </g>
     <g id="text_10">
      <!-- 0.1 -->
      <g style="fill: #dc143c" transform="translate(241.603205 159.20069) scale(0.11 -0.11)">
       <use xlink:href="#ArialMT-30"/>
       <use xlink:href="#ArialMT-2e" x="55.615234"/>
       <use xlink:href="#ArialMT-31" x="83.398438"/>
      </g>
     </g>
    </g>
    <g id="ytick_3">
     <g id="line2d_11">
      <path d="M 236.16 146.080438 
C 239.8957 146.080438 243.595074 146.816289 247.046411 148.245879 
C 250.497747 149.67547 253.633926 151.770997 256.275464 154.412536 
C 258.917003 157.054074 261.01253 160.190253 262.442121 163.641589 
C 263.871711 167.092926 264.607562 170.7923 264.607562 174.528 
C 264.607562 178.2637 263.871711 181.963074 262.442121 185.414411 
C 261.01253 188.865747 258.917003 192.001926 256.275464 194.643464 
C 253.633926 197.285003 250.497747 199.38053 247.046411 200.810121 
C 243.595074 202.239711 239.8957 202.975562 236.16 202.975562 
C 232.4243 202.975562 228.724926 202.239711 225.273589 200.810121 
C 221.822253 199.38053 218.686074 197.285003 216.044536 194.643464 
C 213.402997 192.001926 211.30747 188.865747 209.877879 185.414411 
C 208.448289 181.963074 207.712438 178.2637 207.712438 174.528 
C 207.712438 170.7923 208.448289 167.092926 209.877879 163.641589 
C 211.30747 160.190253 213.402997 157.054074 216.044536 154.412536 
C 218.686074 151.770997 221.822253 149.67547 225.273589 148.245879 
C 228.724926 146.816289 232.4243 146.080438 236.16 146.080438 
" clip-path="url(#pf6bd00bb8d)" style="fill: none; stroke: #ffffff; stroke-linecap: round"/>
     </g>
     <g id="text_11">
      <!-- 0.2 -->
      <g style="fill: #dc143c" transform="translate(247.046411 146.059629) scale(0.11 -0.11)">
       <use xlink:href="#ArialMT-30"/>
       <use xlink:href="#ArialMT-2e" x="55.615234"/>
       <use xlink:href="#ArialMT-32" x="83.398438"/>
      </g>
     </g>
    </g>
    <g id="ytick_4">
     <g id="line2d_12">
      <path d="M 236.16 131.856657 
C 241.763549 131.856657 247.312612 132.960434 252.489616 135.104819 
C 257.666621 137.249205 262.370889 140.392496 266.333196 144.354804 
C 270.295504 148.317111 273.438795 153.021379 275.583181 158.198384 
C 277.727566 163.375388 278.831343 168.924451 278.831343 174.528 
C 278.831343 180.131549 277.727566 185.680612 275.583181 190.857616 
C 273.438795 196.034621 270.295504 200.738889 266.333196 204.701196 
C 262.370889 208.663504 257.666621 211.806795 252.489616 213.951181 
C 247.312612 216.095566 241.763549 217.199343 236.16 217.199343 
C 230.556451 217.199343 225.007388 216.095566 219.830384 213.951181 
C 214.653379 211.806795 209.949111 208.663504 205.986804 204.701196 
C 202.024496 200.738889 198.881205 196.034621 196.736819 190.857616 
C 194.592434 185.680612 193.488657 180.131549 193.488657 174.528 
C 193.488657 168.924451 194.592434 163.375388 196.736819 158.198384 
C 198.881205 153.021379 202.024496 148.317111 205.986804 144.354804 
C 209.949111 140.392496 214.653379 137.249205 219.830384 135.104819 
C 225.007388 132.960434 230.556451 131.856657 236.16 131.856657 
" clip-path="url(#pf6bd00bb8d)" style="fill: none; stroke: #ffffff; stroke-linecap: round"/>
     </g>
     <g id="text_12">
      <!-- 0.3 -->
      <g style="fill: #dc143c" transform="translate(252.489616 132.918569) scale(0.11 -0.11)">
       <use xlink:href="#ArialMT-30"/>
       <use xlink:href="#ArialMT-2e" x="55.615234"/>
       <use xlink:href="#ArialMT-33" x="83.398438"/>
      </g>
     </g>
    </g>
    <g id="ytick_5">
     <g id="line2d_13">
      <path d="M 236.16 117.632875 
C 243.631399 117.632875 251.030149 119.104578 257.932822 121.963759 
C 264.835494 124.82294 271.107851 129.013994 276.390928 134.297072 
C 281.674006 139.580149 285.86506 145.852506 288.724241 152.755178 
C 291.583422 159.657851 293.055125 167.056601 293.055125 174.528 
C 293.055125 181.999399 291.583422 189.398149 288.724241 196.300822 
C 285.86506 203.203494 281.674006 209.475851 276.390928 214.758928 
C 271.107851 220.042006 264.835494 224.23306 257.932822 227.092241 
C 251.030149 229.951422 243.631399 231.423125 236.16 231.423125 
C 228.688601 231.423125 221.289851 229.951422 214.387178 227.092241 
C 207.484506 224.23306 201.212149 220.042006 195.929072 214.758928 
C 190.645994 209.475851 186.45494 203.203494 183.595759 196.300822 
C 180.736578 189.398149 179.264875 181.999399 179.264875 174.528 
C 179.264875 167.056601 180.736578 159.657851 183.595759 152.755178 
C 186.45494 145.852506 190.645994 139.580149 195.929072 134.297072 
C 201.212149 129.013994 207.484506 124.82294 214.387178 121.963759 
C 221.289851 119.104578 228.688601 117.632875 236.16 117.632875 
" clip-path="url(#pf6bd00bb8d)" style="fill: none; stroke: #ffffff; stroke-linecap: round"/>
     </g>
     <g id="text_13">
      <!-- 0.4 -->
      <g style="fill: #dc143c" transform="translate(257.932822 119.777509) scale(0.11 -0.11)">
       <use xlink:href="#ArialMT-30"/>
       <use xlink:href="#ArialMT-2e" x="55.615234"/>
       <use xlink:href="#ArialMT-34" x="83.398438"/>
      </g>
     </g>
    </g>
    <g id="ytick_6">
     <g id="line2d_14">
      <path d="M 236.16 103.409094 
C 245.499249 103.409094 254.747686 105.248723 263.376027 108.822699 
C 272.004368 112.396674 279.844814 117.635493 286.448661 124.239339 
C 293.052507 130.843186 298.291326 138.683632 301.865301 147.311973 
C 305.439277 155.940314 307.278906 165.188751 307.278906 174.528 
C 307.278906 183.867249 305.439277 193.115686 301.865301 201.744027 
C 298.291326 210.372368 293.052507 218.212814 286.448661 224.816661 
C 279.844814 231.420507 272.004368 236.659326 263.376027 240.233301 
C 254.747686 243.807277 245.499249 245.646906 236.16 245.646906 
C 226.820751 245.646906 217.572314 243.807277 208.943973 240.233301 
C 200.315632 236.659326 192.475186 231.420507 185.871339 224.816661 
C 179.267493 218.212814 174.028674 210.372368 170.454699 201.744027 
C 166.880723 193.115686 165.041094 183.867249 165.041094 174.528 
C 165.041094 165.188751 166.880723 155.940314 170.454699 147.311973 
C 174.028674 138.683632 179.267493 130.843186 185.871339 124.239339 
C 192.475186 117.635493 200.315632 112.396674 208.943973 108.822699 
C 217.572314 105.248723 226.820751 103.409094 236.16 103.409094 
" clip-path="url(#pf6bd00bb8d)" style="fill: none; stroke: #ffffff; stroke-linecap: round"/>
     </g>
     <g id="text_14">
      <!-- 0.5 -->
      <g style="fill: #dc143c" transform="translate(263.376027 106.636449) scale(0.11 -0.11)">
       <use xlink:href="#ArialMT-30"/>
       <use xlink:href="#ArialMT-2e" x="55.615234"/>
       <use xlink:href="#ArialMT-35" x="83.398438"/>
      </g>
     </g>
    </g>
    <g id="ytick_7">
     <g id="line2d_15">
      <path d="M 236.16 89.185313 
C 247.367099 89.185313 258.465223 91.392867 268.819232 95.681638 
C 279.173242 99.970409 288.581777 106.256992 296.506393 114.181607 
C 304.431008 122.106223 310.717591 131.514758 315.006362 141.868768 
C 319.295133 152.222777 321.502687 163.320901 321.502687 174.528 
C 321.502687 185.735099 319.295133 196.833223 315.006362 207.187232 
C 310.717591 217.541242 304.431008 226.949777 296.506393 234.874393 
C 288.581777 242.799008 279.173242 249.085591 268.819232 253.374362 
C 258.465223 257.663133 247.367099 259.870687 236.16 259.870687 
C 224.952901 259.870687 213.854777 257.663133 203.500768 253.374362 
C 193.146758 249.085591 183.738223 242.799008 175.813607 234.874393 
C 167.888992 226.949777 161.602409 217.541242 157.313638 207.187232 
C 153.024867 196.833223 150.817313 185.735099 150.817313 174.528 
C 150.817313 163.320901 153.024867 152.222777 157.313638 141.868768 
C 161.602409 131.514758 167.888992 122.106223 175.813607 114.181607 
C 183.738223 106.256992 193.146758 99.970409 203.500768 95.681638 
C 213.854777 91.392867 224.952901 89.185313 236.16 89.185313 
" clip-path="url(#pf6bd00bb8d)" style="fill: none; stroke: #ffffff; stroke-linecap: round"/>
     </g>
     <g id="text_15">
      <!-- 0.6 -->
      <g style="fill: #dc143c" transform="translate(268.819232 93.495388) scale(0.11 -0.11)">
       <defs>
        <path id="ArialMT-36" d="M 3184 3459 
L 2625 3416 
Q 2550 3747 2413 3897 
Q 2184 4138 1850 4138 
Q 1581 4138 1378 3988 
Q 1113 3794 959 3422 
Q 806 3050 800 2363 
Q 1003 2672 1297 2822 
Q 1591 2972 1913 2972 
Q 2475 2972 2870 2558 
Q 3266 2144 3266 1488 
Q 3266 1056 3080 686 
Q 2894 316 2569 119 
Q 2244 -78 1831 -78 
Q 1128 -78 684 439 
Q 241 956 241 2144 
Q 241 3472 731 4075 
Q 1159 4600 1884 4600 
Q 2425 4600 2770 4297 
Q 3116 3994 3184 3459 
z
M 888 1484 
Q 888 1194 1011 928 
Q 1134 663 1356 523 
Q 1578 384 1822 384 
Q 2178 384 2434 671 
Q 2691 959 2691 1453 
Q 2691 1928 2437 2201 
Q 2184 2475 1800 2475 
Q 1419 2475 1153 2201 
Q 888 1928 888 1484 
z
" transform="scale(0.015625)"/>
       </defs>
       <use xlink:href="#ArialMT-30"/>
       <use xlink:href="#ArialMT-2e" x="55.615234"/>
       <use xlink:href="#ArialMT-36" x="83.398438"/>
      </g>
     </g>
    </g>
    <g id="ytick_8">
     <g id="line2d_16">
      <path d="M 236.16 74.961532 
C 249.234949 74.961532 262.18276 77.537012 274.262438 82.540578 
C 286.342115 87.544144 297.31874 94.87849 306.564125 104.123875 
C 315.80951 113.36926 323.143856 124.345885 328.147422 136.425562 
C 333.150988 148.50524 335.726468 161.453051 335.726468 174.528 
C 335.726468 187.602949 333.150988 200.55076 328.147422 212.630438 
C 323.143856 224.710115 315.80951 235.68674 306.564125 244.932125 
C 297.31874 254.17751 286.342115 261.511856 274.262438 266.515422 
C 262.18276 271.518988 249.234949 274.094468 236.16 274.094468 
C 223.085051 274.094468 210.13724 271.518988 198.057562 266.515422 
C 185.977885 261.511856 175.00126 254.17751 165.755875 244.932125 
C 156.51049 235.68674 149.176144 224.710115 144.172578 212.630438 
C 139.169012 200.55076 136.593532 187.602949 136.593532 174.528 
C 136.593532 161.453051 139.169012 148.50524 144.172578 136.425562 
C 149.176144 124.345885 156.51049 113.36926 165.755875 104.123875 
C 175.00126 94.87849 185.977885 87.544144 198.057562 82.540578 
C 210.13724 77.537012 223.085051 74.961532 236.16 74.961532 
" clip-path="url(#pf6bd00bb8d)" style="fill: none; stroke: #ffffff; stroke-linecap: round"/>
     </g>
     <g id="text_16">
      <!-- 0.7 -->
      <g style="fill: #dc143c" transform="translate(274.262438 80.354328) scale(0.11 -0.11)">
       <use xlink:href="#ArialMT-30"/>
       <use xlink:href="#ArialMT-2e" x="55.615234"/>
       <use xlink:href="#ArialMT-37" x="83.398438"/>
      </g>
     </g>
    </g>
    <g id="ytick_9">
     <g id="line2d_17">
      <path d="M 236.16 60.737751 
C 251.102799 60.737751 265.900297 63.681156 279.705643 69.399518 
C 293.510989 75.117879 306.055703 83.499989 316.621857 94.066143 
C 327.188011 104.632297 335.570121 117.177011 341.288482 130.982357 
C 347.006844 144.787703 349.950249 159.585201 349.950249 174.528 
C 349.950249 189.470799 347.006844 204.268297 341.288482 218.073643 
C 335.570121 231.878989 327.188011 244.423703 316.621857 254.989857 
C 306.055703 265.556011 293.510989 273.938121 279.705643 279.656482 
C 265.900297 285.374844 251.102799 288.318249 236.16 288.318249 
C 221.217201 288.318249 206.419703 285.374844 192.614357 279.656482 
C 178.809011 273.938121 166.264297 265.556011 155.698143 254.989857 
C 145.131989 244.423703 136.749879 231.878989 131.031518 218.073643 
C 125.313156 204.268297 122.369751 189.470799 122.369751 174.528 
C 122.369751 159.585201 125.313156 144.787703 131.031518 130.982357 
C 136.749879 117.177011 145.131989 104.632297 155.698143 94.066143 
C 166.264297 83.499989 178.809011 75.117879 192.614357 69.399518 
C 206.419703 63.681156 221.217201 60.737751 236.16 60.737751 
" clip-path="url(#pf6bd00bb8d)" style="fill: none; stroke: #ffffff; stroke-linecap: round"/>
     </g>
     <g id="text_17">
      <!-- 0.8 -->
      <g style="fill: #dc143c" transform="translate(279.705643 67.213268) scale(0.11 -0.11)">
       <use xlink:href="#ArialMT-30"/>
       <use xlink:href="#ArialMT-2e" x="55.615234"/>
       <use xlink:href="#ArialMT-38" x="83.398438"/>
      </g>
     </g>
    </g>
    <g id="ytick_10">
     <g id="line2d_18">
      <path d="M 236.16 46.51397 
C 252.970648 46.51397 269.617835 49.825301 285.148849 56.258457 
C 300.679863 62.691614 314.792666 72.121487 326.679589 84.008411 
C 338.566513 95.895334 347.996386 110.008137 354.429543 125.539151 
C 360.862699 141.070165 364.17403 157.717352 364.17403 174.528 
C 364.17403 191.338648 360.862699 207.985835 354.429543 223.516849 
C 347.996386 239.047863 338.566513 253.160666 326.679589 265.047589 
C 314.792666 276.934513 300.679863 286.364386 285.148849 292.797543 
C 269.617835 299.230699 252.970648 302.54203 236.16 302.54203 
C 219.349352 302.54203 202.702165 299.230699 187.171151 292.797543 
C 171.640137 286.364386 157.527334 276.934513 145.640411 265.047589 
C 133.753487 253.160666 124.323614 239.047863 117.890457 223.516849 
C 111.457301 207.985835 108.14597 191.338648 108.14597 174.528 
C 108.14597 157.717352 111.457301 141.070165 117.890457 125.539151 
C 124.323614 110.008137 133.753487 95.895334 145.640411 84.008411 
C 157.527334 72.121487 171.640137 62.691614 187.171151 56.258457 
C 202.702165 49.825301 219.349352 46.51397 236.16 46.51397 
" clip-path="url(#pf6bd00bb8d)" style="fill: none; stroke: #ffffff; stroke-linecap: round"/>
     </g>
     <g id="text_18">
      <!-- 0.9 -->
      <g style="fill: #dc143c" transform="translate(285.148849 54.072207) scale(0.11 -0.11)">
       <use xlink:href="#ArialMT-30"/>
       <use xlink:href="#ArialMT-2e" x="55.615234"/>
       <use xlink:href="#ArialMT-39" x="83.398438"/>
      </g>
     </g>
    </g>
   </g>
   <g id="line2d_19">
    <defs>
     <path id="me1452fdfd1" d="M 0 1.5 
C 0.397805 1.5 0.77937 1.341951 1.06066 1.06066 
C 1.341951 0.77937 1.5 0.397805 1.5 0 
C 1.5 -0.397805 1.341951 -0.77937 1.06066 -1.06066 
C 0.77937 -1.341951 0.397805 -1.5 0 -1.5 
C -0.397805 -1.5 -0.77937 -1.341951 -1.06066 -1.06066 
C -1.341951 -0.77937 -1.5 -0.397805 -1.5 0 
C -1.5 0.397805 -1.341951 0.77937 -1.06066 1.06066 
C -0.77937 1.341951 -0.397805 1.5 0 1.5 
z
" style="stroke: #ffffff"/>
    </defs>
    <g clip-path="url(#pf6bd00bb8d)">
     <use xlink:href="#me1452fdfd1" x="240.662849" y="45.583277" style="stroke: #ffffff"/>
     <use xlink:href="#me1452fdfd1" x="239.112674" y="89.974483" style="stroke: #ffffff"/>
     <use xlink:href="#me1452fdfd1" x="245.160212" y="45.818973" style="stroke: #ffffff"/>
     <use xlink:href="#me1452fdfd1" x="242.06175" y="90.129038" style="stroke: #ffffff"/>
     <use xlink:href="#me1452fdfd1" x="248.904983" y="53.267589" style="stroke: #ffffff"/>
     <use xlink:href="#me1452fdfd1" x="253.129146" y="53.786251" style="stroke: #ffffff"/>
     <use xlink:href="#me1452fdfd1" x="258.772682" y="46.285108" style="stroke: #ffffff"/>
     <use xlink:href="#me1452fdfd1" x="261.510329" y="55.264079" style="stroke: #ffffff"/>
     <use xlink:href="#me1452fdfd1" x="251.652355" y="101.6422" style="stroke: #ffffff"/>
     <use xlink:href="#me1452fdfd1" x="265.657137" y="56.221446" style="stroke: #ffffff"/>
     <use xlink:href="#me1452fdfd1" x="254.186595" y="102.227275" style="stroke: #ffffff"/>
     <use xlink:href="#me1452fdfd1" x="269.768007" y="57.32295" style="stroke: #ffffff"/>
     <use xlink:href="#me1452fdfd1" x="256.698873" y="102.900438" style="stroke: #ffffff"/>
     <use xlink:href="#me1452fdfd1" x="275.294143" y="54.085492" style="stroke: #ffffff"/>
     <use xlink:href="#me1452fdfd1" x="261.356343" y="96.981629" style="stroke: #ffffff"/>
     <use xlink:href="#me1452fdfd1" x="279.473686" y="55.524625" style="stroke: #ffffff"/>
     <use xlink:href="#me1452fdfd1" x="264.047324" y="97.908208" style="stroke: #ffffff"/>
     <use xlink:href="#me1452fdfd1" x="283.600459" y="57.108744" style="stroke: #ffffff"/>
     <use xlink:href="#me1452fdfd1" x="266.704328" y="98.928136" style="stroke: #ffffff"/>
     <use xlink:href="#me1452fdfd1" x="287.669432" y="58.835921" style="stroke: #ffffff"/>
     <use xlink:href="#me1452fdfd1" x="269.324118" y="100.040171" style="stroke: #ffffff"/>
     <use xlink:href="#me1452fdfd1" x="291.675649" y="60.704051" style="stroke: #ffffff"/>
     <use xlink:href="#me1452fdfd1" x="271.903503" y="101.242958" style="stroke: #ffffff"/>
     <use xlink:href="#me1452fdfd1" x="295.614229" y="62.710857" style="stroke: #ffffff"/>
     <use xlink:href="#me1452fdfd1" x="274.43934" y="102.535032" style="stroke: #ffffff"/>
     <use xlink:href="#me1452fdfd1" x="299.480373" y="64.853896" style="stroke: #ffffff"/>
     <use xlink:href="#me1452fdfd1" x="276.92854" y="103.914818" style="stroke: #ffffff"/>
     <use xlink:href="#me1452fdfd1" x="303.269371" y="67.130556" style="stroke: #ffffff"/>
     <use xlink:href="#me1452fdfd1" x="279.368069" y="105.380635" style="stroke: #ffffff"/>
     <use xlink:href="#me1452fdfd1" x="306.314145" y="70.520202" style="stroke: #ffffff"/>
     <use xlink:href="#me1452fdfd1" x="281.754956" y="106.930697" style="stroke: #ffffff"/>
     <use xlink:href="#me1452fdfd1" x="310.597563" y="72.073484" style="stroke: #ffffff"/>
     <use xlink:href="#me1452fdfd1" x="284.685099" y="107.738931" style="stroke: #ffffff"/>
     <use xlink:href="#me1452fdfd1" x="310.507996" y="79.366904" style="stroke: #ffffff"/>
     <use xlink:href="#me1452fdfd1" x="313.78378" y="82.019581" style="stroke: #ffffff"/>
     <use xlink:href="#me1452fdfd1" x="316.964991" y="84.784966" style="stroke: #ffffff"/>
     <use xlink:href="#me1452fdfd1" x="320.047753" y="87.659688" style="stroke: #ffffff"/>
     <use xlink:href="#me1452fdfd1" x="323.028312" y="90.640247" style="stroke: #ffffff"/>
     <use xlink:href="#me1452fdfd1" x="325.903034" y="93.723009" style="stroke: #ffffff"/>
     <use xlink:href="#me1452fdfd1" x="332.264927" y="93.886391" style="stroke: #ffffff"/>
     <use xlink:href="#me1452fdfd1" x="297.069146" y="123.419158" style="stroke: #ffffff"/>
     <use xlink:href="#me1452fdfd1" x="332.240849" y="99.461414" style="stroke: #ffffff"/>
     <use xlink:href="#me1452fdfd1" x="338.614516" y="100.090437" style="stroke: #ffffff"/>
     <use xlink:href="#me1452fdfd1" x="341.149937" y="103.711393" style="stroke: #ffffff"/>
     <use xlink:href="#me1452fdfd1" x="343.557444" y="107.418629" style="stroke: #ffffff"/>
     <use xlink:href="#me1452fdfd1" x="306.171314" y="130.780076" style="stroke: #ffffff"/>
     <use xlink:href="#me1452fdfd1" x="346.863876" y="110.613087" style="stroke: #ffffff"/>
     <use xlink:href="#me1452fdfd1" x="342.785779" y="117.834068" style="stroke: #ffffff"/>
     <use xlink:href="#me1452fdfd1" x="351.052686" y="118.491093" style="stroke: #ffffff"/>
     <use xlink:href="#me1452fdfd1" x="346.480813" y="125.41001" style="stroke: #ffffff"/>
     <use xlink:href="#me1452fdfd1" x="348.127802" y="129.290072" style="stroke: #ffffff"/>
     <use xlink:href="#me1452fdfd1" x="349.638375" y="133.225249" style="stroke: #ffffff"/>
     <use xlink:href="#me1452fdfd1" x="352.120749" y="136.850069" style="stroke: #ffffff"/>
     <use xlink:href="#me1452fdfd1" x="353.36505" y="140.919993" style="stroke: #ffffff"/>
     <use xlink:href="#me1452fdfd1" x="354.466554" y="145.030863" style="stroke: #ffffff"/>
     <use xlink:href="#me1452fdfd1" x="354.282243" y="149.420342" style="stroke: #ffffff"/>
     <use xlink:href="#me1452fdfd1" x="363.223167" y="152.123335" style="stroke: #ffffff"/>
     <use xlink:href="#me1452fdfd1" x="318.468739" y="160.014749" style="stroke: #ffffff"/>
     <use xlink:href="#me1452fdfd1" x="363.927675" y="156.571424" style="stroke: #ffffff"/>
     <use xlink:href="#me1452fdfd1" x="318.925104" y="162.896123" style="stroke: #ffffff"/>
     <use xlink:href="#me1452fdfd1" x="364.476518" y="161.041391" style="stroke: #ffffff"/>
     <use xlink:href="#me1452fdfd1" x="319.280633" y="165.791669" style="stroke: #ffffff"/>
     <use xlink:href="#me1452fdfd1" x="364.869027" y="165.527788" style="stroke: #ffffff"/>
     <use xlink:href="#me1452fdfd1" x="319.534891" y="168.69786" style="stroke: #ffffff"/>
     <use xlink:href="#me1452fdfd1" x="356.8476" y="170.313496" style="stroke: #ffffff"/>
     <use xlink:href="#me1452fdfd1" x="311.619883" y="171.892883" style="stroke: #ffffff"/>
     <use xlink:href="#me1452fdfd1" x="363.989826" y="174.528" style="stroke: #ffffff"/>
     <use xlink:href="#me1452fdfd1" x="318.71583" y="174.528" style="stroke: #ffffff"/>
     <use xlink:href="#me1452fdfd1" x="356.8476" y="178.742504" style="stroke: #ffffff"/>
     <use xlink:href="#me1452fdfd1" x="309.64136" y="177.094026" style="stroke: #ffffff"/>
     <use xlink:href="#me1452fdfd1" x="356.626996" y="182.951873" style="stroke: #ffffff"/>
     <use xlink:href="#me1452fdfd1" x="309.507044" y="179.656925" style="stroke: #ffffff"/>
     <use xlink:href="#me1452fdfd1" x="356.259622" y="187.150979" style="stroke: #ffffff"/>
     <use xlink:href="#me1452fdfd1" x="355.745925" y="191.334706" style="stroke: #ffffff"/>
     <use xlink:href="#me1452fdfd1" x="359.710113" y="196.313218" style="stroke: #ffffff"/>
     <use xlink:href="#me1452fdfd1" x="358.874556" y="200.611784" style="stroke: #ffffff"/>
     <use xlink:href="#me1452fdfd1" x="357.889491" y="204.878571" style="stroke: #ffffff"/>
     <use xlink:href="#me1452fdfd1" x="356.756117" y="209.10838" style="stroke: #ffffff"/>
     <use xlink:href="#me1452fdfd1" x="314.538471" y="197.002665" style="stroke: #ffffff"/>
     <use xlink:href="#me1452fdfd1" x="355.475815" y="213.296058" style="stroke: #ffffff"/>
     <use xlink:href="#me1452fdfd1" x="313.706371" y="199.724343" style="stroke: #ffffff"/>
     <use xlink:href="#me1452fdfd1" x="355.163375" y="217.841686" style="stroke: #ffffff"/>
     <use xlink:href="#me1452fdfd1" x="349.209995" y="220.203163" style="stroke: #ffffff"/>
     <use xlink:href="#me1452fdfd1" x="355.123027" y="227.493752" style="stroke: #ffffff"/>
     <use xlink:href="#me1452fdfd1" x="349.983949" y="230.043649" style="stroke: #ffffff"/>
     <use xlink:href="#me1452fdfd1" x="308.532894" y="209.826619" style="stroke: #ffffff"/>
     <use xlink:href="#me1452fdfd1" x="347.977143" y="233.982229" style="stroke: #ffffff"/>
     <use xlink:href="#me1452fdfd1" x="307.256902" y="212.330893" style="stroke: #ffffff"/>
     <use xlink:href="#me1452fdfd1" x="345.834104" y="237.848373" style="stroke: #ffffff"/>
     <use xlink:href="#me1452fdfd1" x="305.89429" y="214.789111" style="stroke: #ffffff"/>
     <use xlink:href="#me1452fdfd1" x="343.557444" y="241.637371" style="stroke: #ffffff"/>
     <use xlink:href="#me1452fdfd1" x="304.446717" y="217.198277" style="stroke: #ffffff"/>
     <use xlink:href="#me1452fdfd1" x="336.275542" y="242.056786" style="stroke: #ffffff"/>
     <use xlink:href="#me1452fdfd1" x="333.857834" y="245.509631" style="stroke: #ffffff"/>
     <use xlink:href="#me1452fdfd1" x="338.775742" y="254.700204" style="stroke: #ffffff"/>
     <use xlink:href="#me1452fdfd1" x="335.915261" y="258.232603" style="stroke: #ffffff"/>
     <use xlink:href="#me1452fdfd1" x="332.933245" y="261.663021" style="stroke: #ffffff"/>
     <use xlink:href="#me1452fdfd1" x="329.833325" y="264.987278" style="stroke: #ffffff"/>
     <use xlink:href="#me1452fdfd1" x="326.619278" y="268.201325" style="stroke: #ffffff"/>
     <use xlink:href="#me1452fdfd1" x="316.964991" y="264.271034" style="stroke: #ffffff"/>
     <use xlink:href="#me1452fdfd1" x="285.358598" y="229.168578" style="stroke: #ffffff"/>
     <use xlink:href="#me1452fdfd1" x="313.78378" y="267.036419" style="stroke: #ffffff"/>
     <use xlink:href="#me1452fdfd1" x="283.421699" y="230.852299" style="stroke: #ffffff"/>
     <use xlink:href="#me1452fdfd1" x="313.398471" y="273.388734" style="stroke: #ffffff"/>
     <use xlink:href="#me1452fdfd1" x="285.73443" y="237.980377" style="stroke: #ffffff"/>
     <use xlink:href="#me1452fdfd1" x="312.702127" y="279.8792" style="stroke: #ffffff"/>
     <use xlink:href="#me1452fdfd1" x="308.978796" y="282.486305" style="stroke: #ffffff"/>
     <use xlink:href="#me1452fdfd1" x="305.166746" y="284.961879" style="stroke: #ffffff"/>
     <use xlink:href="#me1452fdfd1" x="296.540582" y="279.110236" style="stroke: #ffffff"/>
     <use xlink:href="#me1452fdfd1" x="292.853932" y="281.153779" style="stroke: #ffffff"/>
     <use xlink:href="#me1452fdfd1" x="289.09821" y="283.067415" style="stroke: #ffffff"/>
     <use xlink:href="#me1452fdfd1" x="285.27799" y="284.848813" style="stroke: #ffffff"/>
     <use xlink:href="#me1452fdfd1" x="281.397928" y="286.495802" style="stroke: #ffffff"/>
     <use xlink:href="#me1452fdfd1" x="277.462751" y="288.006375" style="stroke: #ffffff"/>
     <use xlink:href="#me1452fdfd1" x="273.477252" y="289.378692" style="stroke: #ffffff"/>
     <use xlink:href="#me1452fdfd1" x="269.446288" y="290.611081" style="stroke: #ffffff"/>
     <use xlink:href="#me1452fdfd1" x="265.37477" y="291.702041" style="stroke: #ffffff"/>
     <use xlink:href="#me1452fdfd1" x="261.267658" y="292.650243" style="stroke: #ffffff"/>
     <use xlink:href="#me1452fdfd1" x="257.129956" y="293.454531" style="stroke: #ffffff"/>
     <use xlink:href="#me1452fdfd1" x="254.116576" y="302.295675" style="stroke: #ffffff"/>
     <use xlink:href="#me1452fdfd1" x="247.649551" y="256.280402" style="stroke: #ffffff"/>
     <use xlink:href="#me1452fdfd1" x="249.646609" y="302.844518" style="stroke: #ffffff"/>
     <use xlink:href="#me1452fdfd1" x="245.003636" y="258.669581" style="stroke: #ffffff"/>
     <use xlink:href="#me1452fdfd1" x="244.583873" y="294.994996" style="stroke: #ffffff"/>
     <use xlink:href="#me1452fdfd1" x="240.662849" y="303.472723" style="stroke: #ffffff"/>
     <use xlink:href="#me1452fdfd1" x="239.076847" y="258.05557" style="stroke: #ffffff"/>
     <use xlink:href="#me1452fdfd1" x="236.16" y="303.551321" style="stroke: #ffffff"/>
     <use xlink:href="#me1452fdfd1" x="231.657151" y="303.472723" style="stroke: #ffffff"/>
     <use xlink:href="#me1452fdfd1" x="227.243042" y="302.046439" style="stroke: #ffffff"/>
     <use xlink:href="#me1452fdfd1" x="223.537021" y="294.627622" style="stroke: #ffffff"/>
     <use xlink:href="#me1452fdfd1" x="219.353294" y="294.113925" style="stroke: #ffffff"/>
     <use xlink:href="#me1452fdfd1" x="215.190044" y="293.454531" style="stroke: #ffffff"/>
     <use xlink:href="#me1452fdfd1" x="209.085481" y="301.903599" style="stroke: #ffffff"/>
     <use xlink:href="#me1452fdfd1" x="218.783056" y="256.280094" style="stroke: #ffffff"/>
     <use xlink:href="#me1452fdfd1" x="204.656629" y="300.881118" style="stroke: #ffffff"/>
     <use xlink:href="#me1452fdfd1" x="215.940535" y="255.623846" style="stroke: #ffffff"/>
     <use xlink:href="#me1452fdfd1" x="200.596353" y="298.553176" style="stroke: #ffffff"/>
     <use xlink:href="#me1452fdfd1" x="212.839686" y="255.8556" style="stroke: #ffffff"/>
     <use xlink:href="#me1452fdfd1" x="198.482069" y="290.488749" style="stroke: #ffffff"/>
     <use xlink:href="#me1452fdfd1" x="212.8274" y="246.338358" style="stroke: #ffffff"/>
     <use xlink:href="#me1452fdfd1" x="194.458049" y="289.103168" style="stroke: #ffffff"/>
     <use xlink:href="#me1452fdfd1" x="210.335468" y="245.480317" style="stroke: #ffffff"/>
     <use xlink:href="#me1452fdfd1" x="190.045971" y="288.664226" style="stroke: #ffffff"/>
     <use xlink:href="#me1452fdfd1" x="186.090766" y="286.985341" style="stroke: #ffffff"/>
     <use xlink:href="#me1452fdfd1" x="182.196562" y="285.169444" style="stroke: #ffffff"/>
     <use xlink:href="#me1452fdfd1" x="178.368105" y="283.218747" style="stroke: #ffffff"/>
     <use xlink:href="#me1452fdfd1" x="174.610057" y="281.135628" style="stroke: #ffffff"/>
     <use xlink:href="#me1452fdfd1" x="170.927" y="278.922623" style="stroke: #ffffff"/>
     <use xlink:href="#me1452fdfd1" x="167.323418" y="276.58243" style="stroke: #ffffff"/>
     <use xlink:href="#me1452fdfd1" x="163.112524" y="275.069225" style="stroke: #ffffff"/>
     <use xlink:href="#me1452fdfd1" x="190.016428" y="238.039178" style="stroke: #ffffff"/>
     <use xlink:href="#me1452fdfd1" x="159.648184" y="272.458658" style="stroke: #ffffff"/>
     <use xlink:href="#me1452fdfd1" x="187.82803" y="236.390101" style="stroke: #ffffff"/>
     <use xlink:href="#me1452fdfd1" x="156.277063" y="269.728778" style="stroke: #ffffff"/>
     <use xlink:href="#me1452fdfd1" x="185.698516" y="234.665655" style="stroke: #ffffff"/>
     <use xlink:href="#me1452fdfd1" x="153.003266" y="266.88291" style="stroke: #ffffff"/>
     <use xlink:href="#me1452fdfd1" x="183.630482" y="232.86794" style="stroke: #ffffff"/>
     <use xlink:href="#me1452fdfd1" x="150.647634" y="263.078647" style="stroke: #ffffff"/>
     <use xlink:href="#me1452fdfd1" x="182.323367" y="230.277465" style="stroke: #ffffff"/>
     <use xlink:href="#me1452fdfd1" x="147.609353" y="260.040366" style="stroke: #ffffff"/>
     <use xlink:href="#me1452fdfd1" x="180.410535" y="228.364633" style="stroke: #ffffff"/>
     <use xlink:href="#me1452fdfd1" x="140.276987" y="260.861453" style="stroke: #ffffff"/>
     <use xlink:href="#me1452fdfd1" x="174.049082" y="230.452922" style="stroke: #ffffff"/>
     <use xlink:href="#me1452fdfd1" x="142.757467" y="252.902031" style="stroke: #ffffff"/>
     <use xlink:href="#me1452fdfd1" x="178.319141" y="223.062244" style="stroke: #ffffff"/>
     <use xlink:href="#me1452fdfd1" x="140.079151" y="249.594586" style="stroke: #ffffff"/>
     <use xlink:href="#me1452fdfd1" x="176.660555" y="221.014061" style="stroke: #ffffff"/>
     <use xlink:href="#me1452fdfd1" x="130.8088" y="251.070127" style="stroke: #ffffff"/>
     <use xlink:href="#me1452fdfd1" x="167.713072" y="224.257604" style="stroke: #ffffff"/>
     <use xlink:href="#me1452fdfd1" x="128.201695" y="247.346796" style="stroke: #ffffff"/>
     <use xlink:href="#me1452fdfd1" x="166.01923" y="221.838547" style="stroke: #ffffff"/>
     <use xlink:href="#me1452fdfd1" x="125.726121" y="243.534746" style="stroke: #ffffff"/>
     <use xlink:href="#me1452fdfd1" x="164.410843" y="219.361849" style="stroke: #ffffff"/>
     <use xlink:href="#me1452fdfd1" x="123.385093" y="239.638623" style="stroke: #ffffff"/>
     <use xlink:href="#me1452fdfd1" x="162.889872" y="216.830528" style="stroke: #ffffff"/>
     <use xlink:href="#me1452fdfd1" x="121.181465" y="235.663172" style="stroke: #ffffff"/>
     <use xlink:href="#me1452fdfd1" x="161.458169" y="214.247668" style="stroke: #ffffff"/>
     <use xlink:href="#me1452fdfd1" x="121.267314" y="230.564907" style="stroke: #ffffff"/>
     <use xlink:href="#me1452fdfd1" x="125.839187" y="223.64599" style="stroke: #ffffff"/>
     <use xlink:href="#me1452fdfd1" x="124.192198" y="219.765928" style="stroke: #ffffff"/>
     <use xlink:href="#me1452fdfd1" x="114.917737" y="218.656575" style="stroke: #ffffff"/>
     <use xlink:href="#me1452fdfd1" x="113.45153" y="214.398399" style="stroke: #ffffff"/>
     <use xlink:href="#me1452fdfd1" x="155.69581" y="200.6724" style="stroke: #ffffff"/>
     <use xlink:href="#me1452fdfd1" x="112.134824" y="210.091647" style="stroke: #ffffff"/>
     <use xlink:href="#me1452fdfd1" x="154.8324" y="197.848314" style="stroke: #ffffff"/>
     <use xlink:href="#me1452fdfd1" x="112.127266" y="205.452834" style="stroke: #ffffff"/>
     <use xlink:href="#me1452fdfd1" x="156.056431" y="194.500063" style="stroke: #ffffff"/>
     <use xlink:href="#me1452fdfd1" x="111.123563" y="201.105315" style="stroke: #ffffff"/>
     <use xlink:href="#me1452fdfd1" x="110.272197" y="196.725416" style="stroke: #ffffff"/>
     <use xlink:href="#me1452fdfd1" x="109.574205" y="192.318473" style="stroke: #ffffff"/>
     <use xlink:href="#me1452fdfd1" x="109.030439" y="187.889855" style="stroke: #ffffff"/>
     <use xlink:href="#me1452fdfd1" x="115.693004" y="182.951873" style="stroke: #ffffff"/>
     <use xlink:href="#me1452fdfd1" x="115.4724" y="178.742504" style="stroke: #ffffff"/>
     <use xlink:href="#me1452fdfd1" x="111.884211" y="174.528" style="stroke: #ffffff"/>
     <use xlink:href="#me1452fdfd1" x="111.959916" y="170.190838" style="stroke: #ffffff"/>
     <use xlink:href="#me1452fdfd1" x="112.18694" y="165.858959" style="stroke: #ffffff"/>
     <use xlink:href="#me1452fdfd1" x="112.565007" y="161.537643" style="stroke: #ffffff"/>
     <use xlink:href="#me1452fdfd1" x="158.085921" y="166.322084" style="stroke: #ffffff"/>
     <use xlink:href="#me1452fdfd1" x="113.093654" y="157.232153" style="stroke: #ffffff"/>
     <use xlink:href="#me1452fdfd1" x="158.419864" y="163.602336" style="stroke: #ffffff"/>
     <use xlink:href="#me1452fdfd1" x="114.930279" y="153.151929" style="stroke: #ffffff"/>
     <use xlink:href="#me1452fdfd1" x="115.750143" y="148.934095" style="stroke: #ffffff"/>
     <use xlink:href="#me1452fdfd1" x="116.716708" y="144.747442" style="stroke: #ffffff"/>
     <use xlink:href="#me1452fdfd1" x="112.134824" y="138.964353" style="stroke: #ffffff"/>
     <use xlink:href="#me1452fdfd1" x="113.45153" y="134.657601" style="stroke: #ffffff"/>
     <use xlink:href="#me1452fdfd1" x="114.917737" y="130.399425" style="stroke: #ffffff"/>
     <use xlink:href="#me1452fdfd1" x="115.420964" y="125.746263" style="stroke: #ffffff"/>
     <use xlink:href="#me1452fdfd1" x="157.715558" y="142.834388" style="stroke: #ffffff"/>
     <use xlink:href="#me1452fdfd1" x="117.196973" y="121.562248" style="stroke: #ffffff"/>
     <use xlink:href="#me1452fdfd1" x="158.869435" y="140.116024" style="stroke: #ffffff"/>
     <use xlink:href="#me1452fdfd1" x="120.194607" y="117.967899" style="stroke: #ffffff"/>
     <use xlink:href="#me1452fdfd1" x="122.239169" y="113.95522" style="stroke: #ffffff"/>
     <use xlink:href="#me1452fdfd1" x="124.422526" y="110.01634" style="stroke: #ffffff"/>
     <use xlink:href="#me1452fdfd1" x="133.748725" y="110.534333" style="stroke: #ffffff"/>
     <use xlink:href="#me1452fdfd1" x="129.194819" y="102.379075" style="stroke: #ffffff"/>
     <use xlink:href="#me1452fdfd1" x="138.462166" y="103.546369" style="stroke: #ffffff"/>
     <use xlink:href="#me1452fdfd1" x="140.998904" y="100.180004" style="stroke: #ffffff"/>
     <use xlink:href="#me1452fdfd1" x="143.651581" y="96.90422" style="stroke: #ffffff"/>
     <use xlink:href="#me1452fdfd1" x="140.276987" y="88.194547" style="stroke: #ffffff"/>
     <use xlink:href="#me1452fdfd1" x="175.566141" y="119.969044" style="stroke: #ffffff"/>
     <use xlink:href="#me1452fdfd1" x="143.34839" y="84.90087" style="stroke: #ffffff"/>
     <use xlink:href="#me1452fdfd1" x="152.272247" y="87.659688" style="stroke: #ffffff"/>
     <use xlink:href="#me1452fdfd1" x="149.024979" y="77.754755" style="stroke: #ffffff"/>
     <use xlink:href="#me1452fdfd1" x="158.53622" y="82.019581" style="stroke: #ffffff"/>
     <use xlink:href="#me1452fdfd1" x="161.812004" y="79.366904" style="stroke: #ffffff"/>
     <use xlink:href="#me1452fdfd1" x="190.892782" y="116.588603" style="stroke: #ffffff"/>
     <use xlink:href="#me1452fdfd1" x="165.178369" y="76.830166" style="stroke: #ffffff"/>
     <use xlink:href="#me1452fdfd1" x="192.942413" y="115.044095" style="stroke: #ffffff"/>
     <use xlink:href="#me1452fdfd1" x="168.631214" y="74.412458" style="stroke: #ffffff"/>
     <use xlink:href="#me1452fdfd1" x="168.420513" y="66.12216" style="stroke: #ffffff"/>
     <use xlink:href="#me1452fdfd1" x="191.870151" y="103.649426" style="stroke: #ffffff"/>
     <use xlink:href="#me1452fdfd1" x="172.245087" y="63.824124" style="stroke: #ffffff"/>
     <use xlink:href="#me1452fdfd1" x="176.147532" y="61.660963" style="stroke: #ffffff"/>
     <use xlink:href="#me1452fdfd1" x="179.599899" y="58.562607" style="stroke: #ffffff"/>
     <use xlink:href="#me1452fdfd1" x="183.681488" y="56.659331" style="stroke: #ffffff"/>
     <use xlink:href="#me1452fdfd1" x="187.827013" y="54.89966" style="stroke: #ffffff"/>
     <use xlink:href="#me1452fdfd1" x="192.031425" y="53.285737" style="stroke: #ffffff"/>
     <use xlink:href="#me1452fdfd1" x="197.756669" y="56.334701" style="stroke: #ffffff"/>
     <use xlink:href="#me1452fdfd1" x="201.90495" y="55.066444" style="stroke: #ffffff"/>
     <use xlink:href="#me1452fdfd1" x="206.094966" y="53.943733" style="stroke: #ffffff"/>
     <use xlink:href="#me1452fdfd1" x="210.321611" y="52.967935" style="stroke: #ffffff"/>
     <use xlink:href="#me1452fdfd1" x="214.374782" y="50.977887" style="stroke: #ffffff"/>
     <use xlink:href="#me1452fdfd1" x="222.5279" y="97.216521" style="stroke: #ffffff"/>
     <use xlink:href="#me1452fdfd1" x="218.699889" y="50.292858" style="stroke: #ffffff"/>
     <use xlink:href="#me1452fdfd1" x="225.234336" y="96.787864" style="stroke: #ffffff"/>
     <use xlink:href="#me1452fdfd1" x="223.04627" y="49.759189" style="stroke: #ffffff"/>
     <use xlink:href="#me1452fdfd1" x="227.954084" y="96.453921" style="stroke: #ffffff"/>
     <use xlink:href="#me1452fdfd1" x="227.076225" y="44.623967" style="stroke: #ffffff"/>
     <use xlink:href="#me1452fdfd1" x="230.32986" y="91.153109" style="stroke: #ffffff"/>
     <use xlink:href="#me1452fdfd1" x="231.657151" y="45.583277" style="stroke: #ffffff"/>
     <use xlink:href="#me1452fdfd1" x="236.16" y="45.504679" style="stroke: #ffffff"/>
    </g>
   </g>
   <g id="patch_3">
    <path d="M 236.16 41.472 
C 218.687246 41.472 201.384393 44.913752 185.241673 51.600285 
C 169.098954 58.286818 154.430303 68.088097 142.0752 80.4432 
C 129.720097 92.798303 119.918818 107.466954 113.232285 123.609673 
C 106.545752 139.752393 103.104 157.055246 103.104 174.528 
C 103.104 192.000754 106.545752 209.303607 113.232285 225.446327 
C 119.918818 241.589046 129.720097 256.257697 142.0752 268.6128 
C 154.430303 280.967903 169.098954 290.769182 185.241673 297.455715 
C 201.384393 304.142248 218.687246 307.584 236.16 307.584 
C 253.632754 307.584 270.935607 304.142248 287.078327 297.455715 
C 303.221046 290.769182 317.889697 280.967903 330.2448 268.6128 
C 342.599903 256.257697 352.401182 241.589046 359.087715 225.446327 
C 365.774248 209.303607 369.216 192.000754 369.216 174.528 
C 369.216 157.055246 365.774248 139.752393 359.087715 123.609673 
C 352.401182 107.466954 342.599903 92.798303 330.2448 80.4432 
C 317.889697 68.088097 303.221046 58.286818 287.078327 51.600285 
C 270.935607 44.913752 253.632754 41.472 236.16 41.472 
" style="fill: none; stroke: #ffffff; stroke-width: 1.25; stroke-linejoin: miter; stroke-linecap: square"/>
   </g>
  </g>
 </g>
 <defs>
  <clipPath id="pf6bd00bb8d">
   <path d="M 369.216 174.528 
C 369.216 157.055246 365.774248 139.752393 359.087715 123.609673 
C 352.401182 107.466954 342.599903 92.798303 330.2448 80.4432 
C 317.889697 68.088097 303.221046 58.286818 287.078327 51.600285 
C 270.935607 44.913752 253.632754 41.472 236.16 41.472 
C 218.687246 41.472 201.384393 44.913752 185.241673 51.600285 
C 169.098954 58.286818 154.430303 68.088097 142.0752 80.4432 
C 129.720097 92.798303 119.918818 107.466954 113.232285 123.609673 
C 106.545752 139.752393 103.104 157.055246 103.104 174.528 
C 103.104 192.000754 106.545752 209.303607 113.232285 225.446327 
C 119.918818 241.589046 129.720097 256.257697 142.0752 268.6128 
C 154.430303 280.967903 169.098954 290.769182 185.241673 297.455715 
C 201.384393 304.142248 218.687246 307.584 236.16 307.584 
C 253.632754 307.584 270.935607 304.142248 287.078327 297.455715 
C 303.221046 290.769182 317.889697 280.967903 330.2448 268.6128 
C 342.599903 256.257697 352.401182 241.589046 359.087715 225.446327 
C 365.774248 209.303607 369.216 192.000754 369.216 174.528 
M 236.16 174.528 
C 236.16 174.528 236.16 174.528 236.16 174.528 
C 236.16 174.528 236.16 174.528 236.16 174.528 
C 236.16 174.528 236.16 174.528 236.16 174.528 
C 236.16 174.528 236.16 174.528 236.16 174.528 
C 236.16 174.528 236.16 174.528 236.16 174.528 
C 236.16 174.528 236.16 174.528 236.16 174.528 
C 236.16 174.528 236.16 174.528 236.16 174.528 
C 236.16 174.528 236.16 174.528 236.16 174.528 
C 236.16 174.528 236.16 174.528 236.16 174.528 
C 236.16 174.528 236.16 174.528 236.16 174.528 
C 236.16 174.528 236.16 174.528 236.16 174.528 
C 236.16 174.528 236.16 174.528 236.16 174.528 
C 236.16 174.528 236.16 174.528 236.16 174.528 
C 236.16 174.528 236.16 174.528 236.16 174.528 
C 236.16 174.528 236.16 174.528 236.16 174.528 
C 236.16 174.528 236.16 174.528 236.16 174.528 
z
"/>
  </clipPath>
 </defs>
</svg>
