<?xml version="1.0" encoding="utf-8" standalone="no"?>
<!DOCTYPE svg PUBLIC "-//W3C//DTD SVG 1.1//EN"
  "http://www.w3.org/Graphics/SVG/1.1/DTD/svg11.dtd">
<svg xmlns:xlink="http://www.w3.org/1999/xlink" width="460.8pt" height="345.6pt" viewBox="0 0 460.8 345.6" xmlns="http://www.w3.org/2000/svg" version="1.1">
 <metadata>
  <rdf:RDF xmlns:dc="http://purl.org/dc/elements/1.1/" xmlns:cc="http://creativecommons.org/ns#" xmlns:rdf="http://www.w3.org/1999/02/22-rdf-syntax-ns#">
   <cc:Work>
    <dc:type rdf:resource="http://purl.org/dc/dcmitype/StillImage"/>
    <dc:date>2024-07-23T10:01:51.589363</dc:date>
    <dc:format>image/svg+xml</dc:format>
    <dc:creator>
     <cc:Agent>
      <dc:title>Matplotlib v3.9.1, https://matplotlib.org/</dc:title>
     </cc:Agent>
    </dc:creator>
   </cc:Work>
  </rdf:RDF>
 </metadata>
 <defs>
  <style type="text/css">*{stroke-linejoin: round; stroke-linecap: butt}</style>
 </defs>
 <g id="figure_1">
  <g id="patch_1">
   <path d="M 0 345.6 
L 460.8 345.6 
L 460.8 0 
L 0 0 
z
" style="fill: #ffffff"/>
  </g>
  <g id="axes_1">
   <g id="patch_2">
    <path d="M 369.216 174.528 
C 369.216 157.055246 365.774248 139.752393 359.087715 123.609673 
C 352.401182 107.466954 342.599903 92.798303 330.2448 80.4432 
C 317.889697 68.088097 303.221046 58.286818 287.078327 51.600285 
C 270.935607 44.913752 253.632754 41.472 236.16 41.472 
C 218.687246 41.472 201.384393 44.913752 185.241673 51.600285 
C 169.098954 58.286818 154.430303 68.088097 142.0752 80.4432 
C 129.720097 92.798303 119.918818 107.466954 113.232285 123.609673 
C 106.545752 139.752393 103.104 157.055246 103.104 174.528 
C 103.104 192.000754 106.545752 209.303607 113.232285 225.446327 
C 119.918818 241.589046 129.720097 256.257697 142.0752 268.6128 
C 154.430303 280.967903 169.098954 290.769182 185.241673 297.455715 
C 201.384393 304.142248 218.687246 307.584 236.16 307.584 
C 253.632754 307.584 270.935607 304.142248 287.078327 297.455715 
C 303.221046 290.769182 317.889697 280.967903 330.2448 268.6128 
C 342.599903 256.257697 352.401182 241.589046 359.087715 225.446327 
C 365.774248 209.303607 369.216 192.000754 369.216 174.528 
M 236.16 174.528 
C 236.16 174.528 236.16 174.528 236.16 174.528 
C 236.16 174.528 236.16 174.528 236.16 174.528 
C 236.16 174.528 236.16 174.528 236.16 174.528 
C 236.16 174.528 236.16 174.528 236.16 174.528 
C 236.16 174.528 236.16 174.528 236.16 174.528 
C 236.16 174.528 236.16 174.528 236.16 174.528 
C 236.16 174.528 236.16 174.528 236.16 174.528 
C 236.16 174.528 236.16 174.528 236.16 174.528 
C 236.16 174.528 236.16 174.528 236.16 174.528 
C 236.16 174.528 236.16 174.528 236.16 174.528 
C 236.16 174.528 236.16 174.528 236.16 174.528 
C 236.16 174.528 236.16 174.528 236.16 174.528 
C 236.16 174.528 236.16 174.528 236.16 174.528 
C 236.16 174.528 236.16 174.528 236.16 174.528 
C 236.16 174.528 236.16 174.528 236.16 174.528 
C 236.16 174.528 236.16 174.528 236.16 174.528 
z
" style="fill: #eaeaf2"/>
   </g>
   <g id="matplotlib.axis_1">
    <g id="xtick_1">
     <g id="line2d_1">
      <path d="M 236.16 174.528 
L 236.16 41.472 
" clip-path="url(#pa42f514ab1)" style="fill: none; stroke: #ffffff; stroke-linecap: round"/>
     </g>
     <g id="text_1">
      <!-- 0° -->
      <g style="fill: #262626" transform="translate(230.902344 27.815672) scale(0.11 -0.11)">
       <defs>
        <path id="ArialMT-30" d="M 266 2259 
Q 266 3072 433 3567 
Q 600 4063 929 4331 
Q 1259 4600 1759 4600 
Q 2128 4600 2406 4451 
Q 2684 4303 2865 4023 
Q 3047 3744 3150 3342 
Q 3253 2941 3253 2259 
Q 3253 1453 3087 958 
Q 2922 463 2592 192 
Q 2263 -78 1759 -78 
Q 1097 -78 719 397 
Q 266 969 266 2259 
z
M 844 2259 
Q 844 1131 1108 757 
Q 1372 384 1759 384 
Q 2147 384 2411 759 
Q 2675 1134 2675 2259 
Q 2675 3391 2411 3762 
Q 2147 4134 1753 4134 
Q 1366 4134 1134 3806 
Q 844 3388 844 2259 
z
" transform="scale(0.015625)"/>
        <path id="ArialMT-b0" d="M 400 3794 
Q 400 4153 654 4406 
Q 909 4659 1266 4659 
Q 1628 4659 1881 4406 
Q 2134 4153 2134 3794 
Q 2134 3434 1879 3179 
Q 1625 2925 1266 2925 
Q 909 2925 654 3178 
Q 400 3431 400 3794 
z
M 741 3794 
Q 741 3575 895 3420 
Q 1050 3266 1269 3266 
Q 1484 3266 1639 3420 
Q 1794 3575 1794 3794 
Q 1794 4013 1639 4167 
Q 1484 4322 1269 4322 
Q 1050 4322 895 4167 
Q 741 4013 741 3794 
z
" transform="scale(0.015625)"/>
       </defs>
       <use xlink:href="#ArialMT-30"/>
       <use xlink:href="#ArialMT-b0" x="55.615234"/>
      </g>
     </g>
    </g>
    <g id="xtick_2">
     <g id="line2d_2">
      <path d="M 236.16 174.528 
L 330.2448 80.4432 
" clip-path="url(#pa42f514ab1)" style="fill: none; stroke: #ffffff; stroke-linecap: round"/>
     </g>
     <g id="text_2">
      <!-- 45° -->
      <g style="fill: #262626" transform="translate(333.59589 71.61961) scale(0.11 -0.11)">
       <defs>
        <path id="ArialMT-34" d="M 2069 0 
L 2069 1097 
L 81 1097 
L 81 1613 
L 2172 4581 
L 2631 4581 
L 2631 1613 
L 3250 1613 
L 3250 1097 
L 2631 1097 
L 2631 0 
L 2069 0 
z
M 2069 1613 
L 2069 3678 
L 634 1613 
L 2069 1613 
z
" transform="scale(0.015625)"/>
        <path id="ArialMT-35" d="M 266 1200 
L 856 1250 
Q 922 819 1161 601 
Q 1400 384 1738 384 
Q 2144 384 2425 690 
Q 2706 997 2706 1503 
Q 2706 1984 2436 2262 
Q 2166 2541 1728 2541 
Q 1456 2541 1237 2417 
Q 1019 2294 894 2097 
L 366 2166 
L 809 4519 
L 3088 4519 
L 3088 3981 
L 1259 3981 
L 1013 2750 
Q 1425 3038 1878 3038 
Q 2478 3038 2890 2622 
Q 3303 2206 3303 1553 
Q 3303 931 2941 478 
Q 2500 -78 1738 -78 
Q 1113 -78 717 272 
Q 322 622 266 1200 
z
" transform="scale(0.015625)"/>
       </defs>
       <use xlink:href="#ArialMT-34"/>
       <use xlink:href="#ArialMT-35" x="55.615234"/>
       <use xlink:href="#ArialMT-b0" x="111.230469"/>
      </g>
     </g>
    </g>
    <g id="xtick_3">
     <g id="line2d_3">
      <path d="M 236.16 174.528 
L 369.216 174.528 
" clip-path="url(#pa42f514ab1)" style="fill: none; stroke: #ffffff; stroke-linecap: round"/>
     </g>
     <g id="text_3">
      <!-- 90° -->
      <g style="fill: #262626" transform="translate(377.399828 177.371672) scale(0.11 -0.11)">
       <defs>
        <path id="ArialMT-39" d="M 350 1059 
L 891 1109 
Q 959 728 1153 556 
Q 1347 384 1650 384 
Q 1909 384 2104 503 
Q 2300 622 2425 820 
Q 2550 1019 2634 1356 
Q 2719 1694 2719 2044 
Q 2719 2081 2716 2156 
Q 2547 1888 2255 1720 
Q 1963 1553 1622 1553 
Q 1053 1553 659 1965 
Q 266 2378 266 3053 
Q 266 3750 677 4175 
Q 1088 4600 1706 4600 
Q 2153 4600 2523 4359 
Q 2894 4119 3086 3673 
Q 3278 3228 3278 2384 
Q 3278 1506 3087 986 
Q 2897 466 2520 194 
Q 2144 -78 1638 -78 
Q 1100 -78 759 220 
Q 419 519 350 1059 
z
M 2653 3081 
Q 2653 3566 2395 3850 
Q 2138 4134 1775 4134 
Q 1400 4134 1122 3828 
Q 844 3522 844 3034 
Q 844 2597 1108 2323 
Q 1372 2050 1759 2050 
Q 2150 2050 2401 2323 
Q 2653 2597 2653 3081 
z
" transform="scale(0.015625)"/>
       </defs>
       <use xlink:href="#ArialMT-39"/>
       <use xlink:href="#ArialMT-30" x="55.615234"/>
       <use xlink:href="#ArialMT-b0" x="111.230469"/>
      </g>
     </g>
    </g>
    <g id="xtick_4">
     <g id="line2d_4">
      <path d="M 236.16 174.528 
L 330.2448 268.6128 
" clip-path="url(#pa42f514ab1)" style="fill: none; stroke: #ffffff; stroke-linecap: round"/>
     </g>
     <g id="text_4">
      <!-- 135° -->
      <g style="fill: #262626" transform="translate(330.537374 283.123734) scale(0.11 -0.11)">
       <defs>
        <path id="ArialMT-31" d="M 2384 0 
L 1822 0 
L 1822 3584 
Q 1619 3391 1289 3197 
Q 959 3003 697 2906 
L 697 3450 
Q 1169 3672 1522 3987 
Q 1875 4303 2022 4600 
L 2384 4600 
L 2384 0 
z
" transform="scale(0.015625)"/>
        <path id="ArialMT-33" d="M 269 1209 
L 831 1284 
Q 928 806 1161 595 
Q 1394 384 1728 384 
Q 2125 384 2398 659 
Q 2672 934 2672 1341 
Q 2672 1728 2419 1979 
Q 2166 2231 1775 2231 
Q 1616 2231 1378 2169 
L 1441 2663 
Q 1497 2656 1531 2656 
Q 1891 2656 2178 2843 
Q 2466 3031 2466 3422 
Q 2466 3731 2256 3934 
Q 2047 4138 1716 4138 
Q 1388 4138 1169 3931 
Q 950 3725 888 3313 
L 325 3413 
Q 428 3978 793 4289 
Q 1159 4600 1703 4600 
Q 2078 4600 2393 4439 
Q 2709 4278 2876 4000 
Q 3044 3722 3044 3409 
Q 3044 3113 2884 2869 
Q 2725 2625 2413 2481 
Q 2819 2388 3044 2092 
Q 3269 1797 3269 1353 
Q 3269 753 2831 336 
Q 2394 -81 1725 -81 
Q 1122 -81 723 278 
Q 325 638 269 1209 
z
" transform="scale(0.015625)"/>
       </defs>
       <use xlink:href="#ArialMT-31"/>
       <use xlink:href="#ArialMT-33" x="55.615234"/>
       <use xlink:href="#ArialMT-35" x="111.230469"/>
       <use xlink:href="#ArialMT-b0" x="166.845703"/>
      </g>
     </g>
    </g>
    <g id="xtick_5">
     <g id="line2d_5">
      <path d="M 236.16 174.528 
L 236.16 307.584 
" clip-path="url(#pa42f514ab1)" style="fill: none; stroke: #ffffff; stroke-linecap: round"/>
     </g>
     <g id="text_5">
      <!-- 180° -->
      <g style="fill: #262626" transform="translate(224.785313 326.927672) scale(0.11 -0.11)">
       <defs>
        <path id="ArialMT-38" d="M 1131 2484 
Q 781 2613 612 2850 
Q 444 3088 444 3419 
Q 444 3919 803 4259 
Q 1163 4600 1759 4600 
Q 2359 4600 2725 4251 
Q 3091 3903 3091 3403 
Q 3091 3084 2923 2848 
Q 2756 2613 2416 2484 
Q 2838 2347 3058 2040 
Q 3278 1734 3278 1309 
Q 3278 722 2862 322 
Q 2447 -78 1769 -78 
Q 1091 -78 675 323 
Q 259 725 259 1325 
Q 259 1772 486 2073 
Q 713 2375 1131 2484 
z
M 1019 3438 
Q 1019 3113 1228 2906 
Q 1438 2700 1772 2700 
Q 2097 2700 2305 2904 
Q 2513 3109 2513 3406 
Q 2513 3716 2298 3927 
Q 2084 4138 1766 4138 
Q 1444 4138 1231 3931 
Q 1019 3725 1019 3438 
z
M 838 1322 
Q 838 1081 952 856 
Q 1066 631 1291 507 
Q 1516 384 1775 384 
Q 2178 384 2440 643 
Q 2703 903 2703 1303 
Q 2703 1709 2433 1975 
Q 2163 2241 1756 2241 
Q 1359 2241 1098 1978 
Q 838 1716 838 1322 
z
" transform="scale(0.015625)"/>
       </defs>
       <use xlink:href="#ArialMT-31"/>
       <use xlink:href="#ArialMT-38" x="55.615234"/>
       <use xlink:href="#ArialMT-30" x="111.230469"/>
       <use xlink:href="#ArialMT-b0" x="166.845703"/>
      </g>
     </g>
    </g>
    <g id="xtick_6">
     <g id="line2d_6">
      <path d="M 236.16 174.528 
L 142.0752 268.6128 
" clip-path="url(#pa42f514ab1)" style="fill: none; stroke: #ffffff; stroke-linecap: round"/>
     </g>
     <g id="text_6">
      <!-- 225° -->
      <g style="fill: #262626" transform="translate(119.033251 283.123734) scale(0.11 -0.11)">
       <defs>
        <path id="ArialMT-32" d="M 3222 541 
L 3222 0 
L 194 0 
Q 188 203 259 391 
Q 375 700 629 1000 
Q 884 1300 1366 1694 
Q 2113 2306 2375 2664 
Q 2638 3022 2638 3341 
Q 2638 3675 2398 3904 
Q 2159 4134 1775 4134 
Q 1369 4134 1125 3890 
Q 881 3647 878 3216 
L 300 3275 
Q 359 3922 746 4261 
Q 1134 4600 1788 4600 
Q 2447 4600 2831 4234 
Q 3216 3869 3216 3328 
Q 3216 3053 3103 2787 
Q 2991 2522 2730 2228 
Q 2469 1934 1863 1422 
Q 1356 997 1212 845 
Q 1069 694 975 541 
L 3222 541 
z
" transform="scale(0.015625)"/>
       </defs>
       <use xlink:href="#ArialMT-32"/>
       <use xlink:href="#ArialMT-32" x="55.615234"/>
       <use xlink:href="#ArialMT-35" x="111.230469"/>
       <use xlink:href="#ArialMT-b0" x="166.845703"/>
      </g>
     </g>
    </g>
    <g id="xtick_7">
     <g id="line2d_7">
      <path d="M 236.16 174.528 
L 103.104 174.528 
" clip-path="url(#pa42f514ab1)" style="fill: none; stroke: #ffffff; stroke-linecap: round"/>
     </g>
     <g id="text_7">
      <!-- 270° -->
      <g style="fill: #262626" transform="translate(75.229313 177.371672) scale(0.11 -0.11)">
       <defs>
        <path id="ArialMT-37" d="M 303 3981 
L 303 4522 
L 3269 4522 
L 3269 4084 
Q 2831 3619 2401 2847 
Q 1972 2075 1738 1259 
Q 1569 684 1522 0 
L 944 0 
Q 953 541 1156 1306 
Q 1359 2072 1739 2783 
Q 2119 3494 2547 3981 
L 303 3981 
z
" transform="scale(0.015625)"/>
       </defs>
       <use xlink:href="#ArialMT-32"/>
       <use xlink:href="#ArialMT-37" x="55.615234"/>
       <use xlink:href="#ArialMT-30" x="111.230469"/>
       <use xlink:href="#ArialMT-b0" x="166.845703"/>
      </g>
     </g>
    </g>
    <g id="xtick_8">
     <g id="line2d_8">
      <path d="M 236.16 174.528 
L 142.0752 80.4432 
" clip-path="url(#pa42f514ab1)" style="fill: none; stroke: #ffffff; stroke-linecap: round"/>
     </g>
     <g id="text_8">
      <!-- 315° -->
      <g style="fill: #262626" transform="translate(119.033251 71.61961) scale(0.11 -0.11)">
       <use xlink:href="#ArialMT-33"/>
       <use xlink:href="#ArialMT-31" x="55.615234"/>
       <use xlink:href="#ArialMT-35" x="111.230469"/>
       <use xlink:href="#ArialMT-b0" x="166.845703"/>
      </g>
     </g>
    </g>
   </g>
   <g id="matplotlib.axis_2">
    <g id="ytick_1">
     <g id="line2d_9">
      <path d="M 236.16 174.528 
C 236.16 174.528 236.16 174.528 236.16 174.528 
C 236.16 174.528 236.16 174.528 236.16 174.528 
C 236.16 174.528 236.16 174.528 236.16 174.528 
C 236.16 174.528 236.16 174.528 236.16 174.528 
C 236.16 174.528 236.16 174.528 236.16 174.528 
C 236.16 174.528 236.16 174.528 236.16 174.528 
C 236.16 174.528 236.16 174.528 236.16 174.528 
C 236.16 174.528 236.16 174.528 236.16 174.528 
C 236.16 174.528 236.16 174.528 236.16 174.528 
C 236.16 174.528 236.16 174.528 236.16 174.528 
C 236.16 174.528 236.16 174.528 236.16 174.528 
C 236.16 174.528 236.16 174.528 236.16 174.528 
C 236.16 174.528 236.16 174.528 236.16 174.528 
C 236.16 174.528 236.16 174.528 236.16 174.528 
C 236.16 174.528 236.16 174.528 236.16 174.528 
C 236.16 174.528 236.16 174.528 236.16 174.528 
" clip-path="url(#pa42f514ab1)" style="fill: none; stroke: #ffffff; stroke-linecap: round"/>
     </g>
     <g id="text_9">
      <!-- 0.0 -->
      <g style="fill: #dc143c" transform="translate(236.16 172.34175) scale(0.11 -0.11)">
       <defs>
        <path id="ArialMT-2e" d="M 581 0 
L 581 641 
L 1222 641 
L 1222 0 
L 581 0 
z
" transform="scale(0.015625)"/>
       </defs>
       <use xlink:href="#ArialMT-30"/>
       <use xlink:href="#ArialMT-2e" x="55.615234"/>
       <use xlink:href="#ArialMT-30" x="83.398438"/>
      </g>
     </g>
    </g>
    <g id="ytick_2">
     <g id="line2d_10">
      <path d="M 236.16 160.547658 
C 237.995882 160.547658 239.813912 160.909287 241.510045 161.611849 
C 243.206179 162.31441 244.74743 163.344241 246.045594 164.642406 
C 247.343759 165.94057 248.37359 167.481821 249.076151 169.177955 
C 249.778713 170.874088 250.140342 172.692118 250.140342 174.528 
C 250.140342 176.363882 249.778713 178.181912 249.076151 179.878045 
C 248.37359 181.574179 247.343759 183.11543 246.045594 184.413594 
C 244.74743 185.711759 243.206179 186.74159 241.510045 187.444151 
C 239.813912 188.146713 237.995882 188.508342 236.16 188.508342 
C 234.324118 188.508342 232.506088 188.146713 230.809955 187.444151 
C 229.113821 186.74159 227.57257 185.711759 226.274406 184.413594 
C 224.976241 183.11543 223.94641 181.574179 223.243849 179.878045 
C 222.541287 178.181912 222.179658 176.363882 222.179658 174.528 
C 222.179658 172.692118 222.541287 170.874088 223.243849 169.177955 
C 223.94641 167.481821 224.976241 165.94057 226.274406 164.642406 
C 227.57257 163.344241 229.113821 162.31441 230.809955 161.611849 
C 232.506088 160.909287 234.324118 160.547658 236.16 160.547658 
" clip-path="url(#pa42f514ab1)" style="fill: none; stroke: #ffffff; stroke-linecap: round"/>
     </g>
     <g id="text_10">
      <!-- 0.1 -->
      <g style="fill: #dc143c" transform="translate(241.510045 159.425599) scale(0.11 -0.11)">
       <use xlink:href="#ArialMT-30"/>
       <use xlink:href="#ArialMT-2e" x="55.615234"/>
       <use xlink:href="#ArialMT-31" x="83.398438"/>
      </g>
     </g>
    </g>
    <g id="ytick_3">
     <g id="line2d_11">
      <path d="M 236.16 146.567317 
C 239.831763 146.567317 243.467823 147.290574 246.86009 148.695697 
C 250.252357 150.10082 253.33486 152.160483 255.931189 154.756811 
C 258.527517 157.35314 260.58718 160.435643 261.992303 163.82791 
C 263.397426 167.220177 264.120683 170.856237 264.120683 174.528 
C 264.120683 178.199763 263.397426 181.835823 261.992303 185.22809 
C 260.58718 188.620357 258.527517 191.70286 255.931189 194.299189 
C 253.33486 196.895517 250.252357 198.95518 246.86009 200.360303 
C 243.467823 201.765426 239.831763 202.488683 236.16 202.488683 
C 232.488237 202.488683 228.852177 201.765426 225.45991 200.360303 
C 222.067643 198.95518 218.98514 196.895517 216.388811 194.299189 
C 213.792483 191.70286 211.73282 188.620357 210.327697 185.22809 
C 208.922574 181.835823 208.199317 178.199763 208.199317 174.528 
C 208.199317 170.856237 208.922574 167.220177 210.327697 163.82791 
C 211.73282 160.435643 213.792483 157.35314 216.388811 154.756811 
C 218.98514 152.160483 222.067643 150.10082 225.45991 148.695697 
C 228.852177 147.290574 232.488237 146.567317 236.16 146.567317 
" clip-path="url(#pa42f514ab1)" style="fill: none; stroke: #ffffff; stroke-linecap: round"/>
     </g>
     <g id="text_11">
      <!-- 0.2 -->
      <g style="fill: #dc143c" transform="translate(246.86009 146.509447) scale(0.11 -0.11)">
       <use xlink:href="#ArialMT-30"/>
       <use xlink:href="#ArialMT-2e" x="55.615234"/>
       <use xlink:href="#ArialMT-32" x="83.398438"/>
      </g>
     </g>
    </g>
    <g id="ytick_4">
     <g id="line2d_12">
      <path d="M 236.16 132.586975 
C 241.667645 132.586975 247.121735 133.671861 252.210135 135.779546 
C 257.298536 137.88723 261.92229 140.976724 265.816783 144.871217 
C 269.711276 148.76571 272.80077 153.389464 274.908454 158.477865 
C 277.016139 163.566265 278.101025 169.020355 278.101025 174.528 
C 278.101025 180.035645 277.016139 185.489735 274.908454 190.578135 
C 272.80077 195.666536 269.711276 200.29029 265.816783 204.184783 
C 261.92229 208.079276 257.298536 211.16877 252.210135 213.276454 
C 247.121735 215.384139 241.667645 216.469025 236.16 216.469025 
C 230.652355 216.469025 225.198265 215.384139 220.109865 213.276454 
C 215.021464 211.16877 210.39771 208.079276 206.503217 204.184783 
C 202.608724 200.29029 199.51923 195.666536 197.411546 190.578135 
C 195.303861 185.489735 194.218975 180.035645 194.218975 174.528 
C 194.218975 169.020355 195.303861 163.566265 197.411546 158.477865 
C 199.51923 153.389464 202.608724 148.76571 206.503217 144.871217 
C 210.39771 140.976724 215.021464 137.88723 220.109865 135.779546 
C 225.198265 133.671861 230.652355 132.586975 236.16 132.586975 
" clip-path="url(#pa42f514ab1)" style="fill: none; stroke: #ffffff; stroke-linecap: round"/>
     </g>
     <g id="text_12">
      <!-- 0.3 -->
      <g style="fill: #dc143c" transform="translate(252.210135 133.593296) scale(0.11 -0.11)">
       <use xlink:href="#ArialMT-30"/>
       <use xlink:href="#ArialMT-2e" x="55.615234"/>
       <use xlink:href="#ArialMT-33" x="83.398438"/>
      </g>
     </g>
    </g>
    <g id="ytick_5">
     <g id="line2d_13">
      <path d="M 236.16 118.606634 
C 243.503527 118.606634 250.775646 120.053148 257.56018 122.863394 
C 264.344714 125.67364 270.50972 129.792965 275.702377 134.985623 
C 280.895035 140.17828 285.01436 146.343286 287.824606 153.12782 
C 290.634852 159.912354 292.081366 167.184473 292.081366 174.528 
C 292.081366 181.871527 290.634852 189.143646 287.824606 195.92818 
C 285.01436 202.712714 280.895035 208.87772 275.702377 214.070377 
C 270.50972 219.263035 264.344714 223.38236 257.56018 226.192606 
C 250.775646 229.002852 243.503527 230.449366 236.16 230.449366 
C 228.816473 230.449366 221.544354 229.002852 214.75982 226.192606 
C 207.975286 223.38236 201.81028 219.263035 196.617623 214.070377 
C 191.424965 208.87772 187.30564 202.712714 184.495394 195.92818 
C 181.685148 189.143646 180.238634 181.871527 180.238634 174.528 
C 180.238634 167.184473 181.685148 159.912354 184.495394 153.12782 
C 187.30564 146.343286 191.424965 140.17828 196.617623 134.985623 
C 201.81028 129.792965 207.975286 125.67364 214.75982 122.863394 
C 221.544354 120.053148 228.816473 118.606634 236.16 118.606634 
" clip-path="url(#pa42f514ab1)" style="fill: none; stroke: #ffffff; stroke-linecap: round"/>
     </g>
     <g id="text_13">
      <!-- 0.4 -->
      <g style="fill: #dc143c" transform="translate(257.56018 120.677144) scale(0.11 -0.11)">
       <use xlink:href="#ArialMT-30"/>
       <use xlink:href="#ArialMT-2e" x="55.615234"/>
       <use xlink:href="#ArialMT-34" x="83.398438"/>
      </g>
     </g>
    </g>
    <g id="ytick_6">
     <g id="line2d_14">
      <path d="M 236.16 104.626292 
C 245.339408 104.626292 254.429558 106.434436 262.910225 109.947243 
C 271.390893 113.46005 279.09715 118.609207 285.587972 125.100028 
C 292.078793 131.59085 297.22795 139.297107 300.740757 147.777775 
C 304.253564 156.258442 306.061708 165.348592 306.061708 174.528 
C 306.061708 183.707408 304.253564 192.797558 300.740757 201.278225 
C 297.22795 209.758893 292.078793 217.46515 285.587972 223.955972 
C 279.09715 230.446793 271.390893 235.59595 262.910225 239.108757 
C 254.429558 242.621564 245.339408 244.429708 236.16 244.429708 
C 226.980592 244.429708 217.890442 242.621564 209.409775 239.108757 
C 200.929107 235.59595 193.22285 230.446793 186.732028 223.955972 
C 180.241207 217.46515 175.09205 209.758893 171.579243 201.278225 
C 168.066436 192.797558 166.258292 183.707408 166.258292 174.528 
C 166.258292 165.348592 168.066436 156.258442 171.579243 147.777775 
C 175.09205 139.297107 180.241207 131.59085 186.732028 125.100028 
C 193.22285 118.609207 200.929107 113.46005 209.409775 109.947243 
C 217.890442 106.434436 226.980592 104.626292 236.16 104.626292 
" clip-path="url(#pa42f514ab1)" style="fill: none; stroke: #ffffff; stroke-linecap: round"/>
     </g>
     <g id="text_14">
      <!-- 0.5 -->
      <g style="fill: #dc143c" transform="translate(262.910225 107.760993) scale(0.11 -0.11)">
       <use xlink:href="#ArialMT-30"/>
       <use xlink:href="#ArialMT-2e" x="55.615234"/>
       <use xlink:href="#ArialMT-35" x="83.398438"/>
      </g>
     </g>
    </g>
    <g id="ytick_7">
     <g id="line2d_15">
      <path d="M 236.16 90.645951 
C 247.17529 90.645951 258.08347 92.815723 268.260271 97.031092 
C 278.437071 101.24646 287.68458 107.425448 295.473566 115.214434 
C 303.262552 123.00342 309.44154 132.250929 313.656908 142.427729 
C 317.872277 152.60453 320.042049 163.51271 320.042049 174.528 
C 320.042049 185.54329 317.872277 196.45147 313.656908 206.628271 
C 309.44154 216.805071 303.262552 226.05258 295.473566 233.841566 
C 287.68458 241.630552 278.437071 247.80954 268.260271 252.024908 
C 258.08347 256.240277 247.17529 258.410049 236.16 258.410049 
C 225.14471 258.410049 214.23653 256.240277 204.059729 252.024908 
C 193.882929 247.80954 184.63542 241.630552 176.846434 233.841566 
C 169.057448 226.05258 162.87846 216.805071 158.663092 206.628271 
C 154.447723 196.45147 152.277951 185.54329 152.277951 174.528 
C 152.277951 163.51271 154.447723 152.60453 158.663092 142.427729 
C 162.87846 132.250929 169.057448 123.00342 176.846434 115.214434 
C 184.63542 107.425448 193.882929 101.24646 204.059729 97.031092 
C 214.23653 92.815723 225.14471 90.645951 236.16 90.645951 
" clip-path="url(#pa42f514ab1)" style="fill: none; stroke: #ffffff; stroke-linecap: round"/>
     </g>
     <g id="text_15">
      <!-- 0.6 -->
      <g style="fill: #dc143c" transform="translate(268.260271 94.844842) scale(0.11 -0.11)">
       <defs>
        <path id="ArialMT-36" d="M 3184 3459 
L 2625 3416 
Q 2550 3747 2413 3897 
Q 2184 4138 1850 4138 
Q 1581 4138 1378 3988 
Q 1113 3794 959 3422 
Q 806 3050 800 2363 
Q 1003 2672 1297 2822 
Q 1591 2972 1913 2972 
Q 2475 2972 2870 2558 
Q 3266 2144 3266 1488 
Q 3266 1056 3080 686 
Q 2894 316 2569 119 
Q 2244 -78 1831 -78 
Q 1128 -78 684 439 
Q 241 956 241 2144 
Q 241 3472 731 4075 
Q 1159 4600 1884 4600 
Q 2425 4600 2770 4297 
Q 3116 3994 3184 3459 
z
M 888 1484 
Q 888 1194 1011 928 
Q 1134 663 1356 523 
Q 1578 384 1822 384 
Q 2178 384 2434 671 
Q 2691 959 2691 1453 
Q 2691 1928 2437 2201 
Q 2184 2475 1800 2475 
Q 1419 2475 1153 2201 
Q 888 1928 888 1484 
z
" transform="scale(0.015625)"/>
       </defs>
       <use xlink:href="#ArialMT-30"/>
       <use xlink:href="#ArialMT-2e" x="55.615234"/>
       <use xlink:href="#ArialMT-36" x="83.398438"/>
      </g>
     </g>
    </g>
    <g id="ytick_8">
     <g id="line2d_16">
      <path d="M 236.16 76.665609 
C 249.011171 76.665609 261.737381 79.19701 273.610316 84.11494 
C 285.48325 89.032871 296.27201 96.241689 305.35916 105.32884 
C 314.446311 114.41599 321.655129 125.20475 326.57306 137.077684 
C 331.49099 148.950619 334.022391 161.676829 334.022391 174.528 
C 334.022391 187.379171 331.49099 200.105381 326.57306 211.978316 
C 321.655129 223.85125 314.446311 234.64001 305.35916 243.72716 
C 296.27201 252.814311 285.48325 260.023129 273.610316 264.94106 
C 261.737381 269.85899 249.011171 272.390391 236.16 272.390391 
C 223.308829 272.390391 210.582619 269.85899 198.709684 264.94106 
C 186.83675 260.023129 176.04799 252.814311 166.96084 243.72716 
C 157.873689 234.64001 150.664871 223.85125 145.74694 211.978316 
C 140.82901 200.105381 138.297609 187.379171 138.297609 174.528 
C 138.297609 161.676829 140.82901 148.950619 145.74694 137.077684 
C 150.664871 125.20475 157.873689 114.41599 166.96084 105.32884 
C 176.04799 96.241689 186.83675 89.032871 198.709684 84.11494 
C 210.582619 79.19701 223.308829 76.665609 236.16 76.665609 
" clip-path="url(#pa42f514ab1)" style="fill: none; stroke: #ffffff; stroke-linecap: round"/>
     </g>
     <g id="text_16">
      <!-- 0.7 -->
      <g style="fill: #dc143c" transform="translate(273.610316 81.92869) scale(0.11 -0.11)">
       <use xlink:href="#ArialMT-30"/>
       <use xlink:href="#ArialMT-2e" x="55.615234"/>
       <use xlink:href="#ArialMT-37" x="83.398438"/>
      </g>
     </g>
    </g>
    <g id="ytick_9">
     <g id="line2d_17">
      <path d="M 236.16 62.685268 
C 250.847053 62.685268 265.391293 65.578297 278.960361 71.198789 
C 292.529428 76.819281 304.85944 85.057931 315.244754 95.443246 
C 325.630069 105.82856 333.868719 118.158572 339.489211 131.727639 
C 345.109703 145.296707 348.002732 159.840947 348.002732 174.528 
C 348.002732 189.215053 345.109703 203.759293 339.489211 217.328361 
C 333.868719 230.897428 325.630069 243.22744 315.244754 253.612754 
C 304.85944 263.998069 292.529428 272.236719 278.960361 277.857211 
C 265.391293 283.477703 250.847053 286.370732 236.16 286.370732 
C 221.472947 286.370732 206.928707 283.477703 193.359639 277.857211 
C 179.790572 272.236719 167.46056 263.998069 157.075246 253.612754 
C 146.689931 243.22744 138.451281 230.897428 132.830789 217.328361 
C 127.210297 203.759293 124.317268 189.215053 124.317268 174.528 
C 124.317268 159.840947 127.210297 145.296707 132.830789 131.727639 
C 138.451281 118.158572 146.689931 105.82856 157.075246 95.443246 
C 167.46056 85.057931 179.790572 76.819281 193.359639 71.198789 
C 206.928707 65.578297 221.472947 62.685268 236.16 62.685268 
" clip-path="url(#pa42f514ab1)" style="fill: none; stroke: #ffffff; stroke-linecap: round"/>
     </g>
     <g id="text_17">
      <!-- 0.8 -->
      <g style="fill: #dc143c" transform="translate(278.960361 69.012539) scale(0.11 -0.11)">
       <use xlink:href="#ArialMT-30"/>
       <use xlink:href="#ArialMT-2e" x="55.615234"/>
       <use xlink:href="#ArialMT-38" x="83.398438"/>
      </g>
     </g>
    </g>
    <g id="ytick_10">
     <g id="line2d_18">
      <path d="M 236.16 48.704926 
C 252.682935 48.704926 269.045205 51.959584 284.310406 58.282637 
C 299.575607 64.605691 313.44687 73.874172 325.130349 85.557651 
C 336.813828 97.24113 346.082309 111.112393 352.405363 126.377594 
C 358.728416 141.642795 361.983074 158.005065 361.983074 174.528 
C 361.983074 191.050935 358.728416 207.413205 352.405363 222.678406 
C 346.082309 237.943607 336.813828 251.81487 325.130349 263.498349 
C 313.44687 275.181828 299.575607 284.450309 284.310406 290.773363 
C 269.045205 297.096416 252.682935 300.351074 236.16 300.351074 
C 219.637065 300.351074 203.274795 297.096416 188.009594 290.773363 
C 172.744393 284.450309 158.87313 275.181828 147.189651 263.498349 
C 135.506172 251.81487 126.237691 237.943607 119.914637 222.678406 
C 113.591584 207.413205 110.336926 191.050935 110.336926 174.528 
C 110.336926 158.005065 113.591584 141.642795 119.914637 126.377594 
C 126.237691 111.112393 135.506172 97.24113 147.189651 85.557651 
C 158.87313 73.874172 172.744393 64.605691 188.009594 58.282637 
C 203.274795 51.959584 219.637065 48.704926 236.16 48.704926 
" clip-path="url(#pa42f514ab1)" style="fill: none; stroke: #ffffff; stroke-linecap: round"/>
     </g>
     <g id="text_18">
      <!-- 0.9 -->
      <g style="fill: #dc143c" transform="translate(284.310406 56.096387) scale(0.11 -0.11)">
       <use xlink:href="#ArialMT-30"/>
       <use xlink:href="#ArialMT-2e" x="55.615234"/>
       <use xlink:href="#ArialMT-39" x="83.398438"/>
      </g>
     </g>
    </g>
   </g>
   <g id="line2d_19">
    <defs>
     <path id="mfc85432769" d="M 0 1.5 
C 0.397805 1.5 0.77937 1.341951 1.06066 1.06066 
C 1.341951 0.77937 1.5 0.397805 1.5 0 
C 1.5 -0.397805 1.341951 -0.77937 1.06066 -1.06066 
C 0.77937 -1.341951 0.397805 -1.5 0 -1.5 
C -0.397805 -1.5 -0.77937 -1.341951 -1.06066 -1.06066 
C -1.341951 -0.77937 -1.5 -0.397805 -1.5 0 
C -1.5 0.397805 -1.341951 0.77937 -1.06066 1.06066 
C -0.77937 1.341951 -0.397805 1.5 0 1.5 
z
" style="stroke: #ffffff"/>
    </defs>
    <g clip-path="url(#pa42f514ab1)">
     <use xlink:href="#mfc85432769" x="232.410452" y="210.202566" style="stroke: #ffffff"/>
     <use xlink:href="#mfc85432769" x="223.042498" y="299.332699" style="stroke: #ffffff"/>
     <use xlink:href="#mfc85432769" x="231.167712" y="210.049976" style="stroke: #ffffff"/>
     <use xlink:href="#mfc85432769" x="218.694867" y="298.798877" style="stroke: #ffffff"/>
     <use xlink:href="#mfc85432769" x="231.519642" y="200.844778" style="stroke: #ffffff"/>
     <use xlink:href="#mfc85432769" x="197.636959" y="293.089728" style="stroke: #ffffff"/>
     <use xlink:href="#mfc85432769" x="193.522682" y="291.673069" style="stroke: #ffffff"/>
     <use xlink:href="#mfc85432769" x="189.460352" y="290.113686" style="stroke: #ffffff"/>
     <use xlink:href="#mfc85432769" x="185.454917" y="288.41348" style="stroke: #ffffff"/>
     <use xlink:href="#mfc85432769" x="181.51126" y="286.574522" style="stroke: #ffffff"/>
     <use xlink:href="#mfc85432769" x="177.634183" y="284.599053" style="stroke: #ffffff"/>
     <use xlink:href="#mfc85432769" x="173.828411" y="282.489479" style="stroke: #ffffff"/>
     <use xlink:href="#mfc85432769" x="170.09858" y="280.248371" style="stroke: #ffffff"/>
     <use xlink:href="#mfc85432769" x="211.709221" y="205.82357" style="stroke: #ffffff"/>
     <use xlink:href="#mfc85432769" x="210.631916" y="204.951186" style="stroke: #ffffff"/>
     <use xlink:href="#mfc85432769" x="209.585713" y="204.041735" style="stroke: #ffffff"/>
     <use xlink:href="#mfc85432769" x="208.571887" y="203.096327" style="stroke: #ffffff"/>
     <use xlink:href="#mfc85432769" x="207.591673" y="202.116113" style="stroke: #ffffff"/>
     <use xlink:href="#mfc85432769" x="206.646265" y="201.102287" style="stroke: #ffffff"/>
     <use xlink:href="#mfc85432769" x="137.924075" y="251.278316" style="stroke: #ffffff"/>
     <use xlink:href="#mfc85432769" x="132.611882" y="249.760111" style="stroke: #ffffff"/>
     <use xlink:href="#mfc85432769" x="130.049398" y="246.100505" style="stroke: #ffffff"/>
     <use xlink:href="#mfc85432769" x="129.629058" y="236.033668" style="stroke: #ffffff"/>
     <use xlink:href="#mfc85432769" x="201.094047" y="193.172898" style="stroke: #ffffff"/>
     <use xlink:href="#mfc85432769" x="124.113478" y="229.17674" style="stroke: #ffffff"/>
     <use xlink:href="#mfc85432769" x="201.874923" y="189.7927" style="stroke: #ffffff"/>
     <use xlink:href="#mfc85432769" x="201.363078" y="188.586869" style="stroke: #ffffff"/>
     <use xlink:href="#mfc85432769" x="200.893628" y="187.36391" style="stroke: #ffffff"/>
     <use xlink:href="#mfc85432769" x="201.516945" y="185.784211" style="stroke: #ffffff"/>
     <use xlink:href="#mfc85432769" x="201.145213" y="184.568329" style="stroke: #ffffff"/>
     <use xlink:href="#mfc85432769" x="200.81614" y="183.340214" style="stroke: #ffffff"/>
     <use xlink:href="#mfc85432769" x="198.913365" y="182.445017" style="stroke: #ffffff"/>
     <use xlink:href="#mfc85432769" x="208.114516" y="179.473175" style="stroke: #ffffff"/>
     <use xlink:href="#mfc85432769" x="207.959017" y="178.49139" style="stroke: #ffffff"/>
     <use xlink:href="#mfc85432769" x="207.837876" y="177.504775" style="stroke: #ffffff"/>
     <use xlink:href="#mfc85432769" x="207.751241" y="176.514534" style="stroke: #ffffff"/>
     <use xlink:href="#mfc85432769" x="197.557612" y="175.876025" style="stroke: #ffffff"/>
     <use xlink:href="#mfc85432769" x="154.951778" y="177.363854" style="stroke: #ffffff"/>
     <use xlink:href="#mfc85432769" x="196.469545" y="173.141979" style="stroke: #ffffff"/>
     <use xlink:href="#mfc85432769" x="196.542094" y="171.757646" style="stroke: #ffffff"/>
     <use xlink:href="#mfc85432769" x="197.20337" y="170.433493" style="stroke: #ffffff"/>
     <use xlink:href="#mfc85432769" x="197.369997" y="169.076421" style="stroke: #ffffff"/>
     <use xlink:href="#mfc85432769" x="113.390736" y="152.880466" style="stroke: #ffffff"/>
     <use xlink:href="#mfc85432769" x="114.221011" y="148.609068" style="stroke: #ffffff"/>
     <use xlink:href="#mfc85432769" x="115.199851" y="144.369248" style="stroke: #ffffff"/>
     <use xlink:href="#mfc85432769" x="119.403689" y="132.032178" style="stroke: #ffffff"/>
     <use xlink:href="#mfc85432769" x="202.386528" y="160.882631" style="stroke: #ffffff"/>
     <use xlink:href="#mfc85432769" x="123.406965" y="124.327114" style="stroke: #ffffff"/>
     <use xlink:href="#mfc85432769" x="168.439802" y="128.85015" style="stroke: #ffffff"/>
     <use xlink:href="#mfc85432769" x="170.07519" y="126.514575" style="stroke: #ffffff"/>
     <use xlink:href="#mfc85432769" x="215.10218" y="158.075828" style="stroke: #ffffff"/>
     <use xlink:href="#mfc85432769" x="215.689181" y="157.350943" style="stroke: #ffffff"/>
     <use xlink:href="#mfc85432769" x="216.301122" y="156.646986" style="stroke: #ffffff"/>
     <use xlink:href="#mfc85432769" x="216.937257" y="155.964813" style="stroke: #ffffff"/>
     <use xlink:href="#mfc85432769" x="150.422789" y="85.744519" style="stroke: #ffffff"/>
     <use xlink:href="#mfc85432769" x="210.314216" y="145.823349" style="stroke: #ffffff"/>
     <use xlink:href="#mfc85432769" x="211.331738" y="144.93883" style="stroke: #ffffff"/>
     <use xlink:href="#mfc85432769" x="163.127993" y="74.008066" style="stroke: #ffffff"/>
     <use xlink:href="#mfc85432769" x="166.680577" y="71.52052" style="stroke: #ffffff"/>
     <use xlink:href="#mfc85432769" x="170.317812" y="69.158472" style="stroke: #ffffff"/>
     <use xlink:href="#mfc85432769" x="217.120627" y="141.550838" style="stroke: #ffffff"/>
     <use xlink:href="#mfc85432769" x="218.283111" y="140.906462" style="stroke: #ffffff"/>
     <use xlink:href="#mfc85432769" x="219.467376" y="140.303049" style="stroke: #ffffff"/>
     <use xlink:href="#mfc85432769" x="202.761982" y="99.514824" style="stroke: #ffffff"/>
     <use xlink:href="#mfc85432769" x="185.454917" y="60.64252" style="stroke: #ffffff"/>
     <use xlink:href="#mfc85432769" x="221.282631" y="137.705219" style="stroke: #ffffff"/>
     <use xlink:href="#mfc85432769" x="222.57679" y="137.208438" style="stroke: #ffffff"/>
     <use xlink:href="#mfc85432769" x="223.887499" y="136.757125" style="stroke: #ffffff"/>
     <use xlink:href="#mfc85432769" x="225.213159" y="136.35183" style="stroke: #ffffff"/>
     <use xlink:href="#mfc85432769" x="226.552157" y="135.993046" style="stroke: #ffffff"/>
     <use xlink:href="#mfc85432769" x="227.90286" y="135.681212" style="stroke: #ffffff"/>
     <use xlink:href="#mfc85432769" x="229.263624" y="135.416706" style="stroke: #ffffff"/>
     <use xlink:href="#mfc85432769" x="233.122502" y="145.628141" style="stroke: #ffffff"/>
     <use xlink:href="#mfc85432769" x="233.542061" y="137.089731" style="stroke: #ffffff"/>
     <use xlink:href="#mfc85432769" x="235.145854" y="145.486654" style="stroke: #ffffff"/>
     <use xlink:href="#mfc85432769" x="236.16" y="49.864822" style="stroke: #ffffff"/>
     <use xlink:href="#mfc85432769" x="240.510682" y="49.940763" style="stroke: #ffffff"/>
     <use xlink:href="#mfc85432769" x="238.187057" y="145.539739" style="stroke: #ffffff"/>
     <use xlink:href="#mfc85432769" x="244.856064" y="50.168495" style="stroke: #ffffff"/>
     <use xlink:href="#mfc85432769" x="240.311311" y="135.030913" style="stroke: #ffffff"/>
     <use xlink:href="#mfc85432769" x="244.743056" y="92.865676" style="stroke: #ffffff"/>
     <use xlink:href="#mfc85432769" x="241.383123" y="137.363547" style="stroke: #ffffff"/>
     <use xlink:href="#mfc85432769" x="242.581289" y="138.111058" style="stroke: #ffffff"/>
     <use xlink:href="#mfc85432769" x="282.859648" y="58.942314" style="stroke: #ffffff"/>
     <use xlink:href="#mfc85432769" x="286.865083" y="60.64252" style="stroke: #ffffff"/>
     <use xlink:href="#mfc85432769" x="290.80874" y="62.481478" style="stroke: #ffffff"/>
     <use xlink:href="#mfc85432769" x="294.685817" y="64.456947" style="stroke: #ffffff"/>
     <use xlink:href="#mfc85432769" x="298.491589" y="66.566521" style="stroke: #ffffff"/>
     <use xlink:href="#mfc85432769" x="302.22142" y="68.807629" style="stroke: #ffffff"/>
     <use xlink:href="#mfc85432769" x="305.870765" y="71.177541" style="stroke: #ffffff"/>
     <use xlink:href="#mfc85432769" x="261.755974" y="162.044009" style="stroke: #ffffff"/>
     <use xlink:href="#mfc85432769" x="272.441137" y="158.374597" style="stroke: #ffffff"/>
     <use xlink:href="#mfc85432769" x="311.562407" y="140.956685" style="stroke: #ffffff"/>
     <use xlink:href="#mfc85432769" x="272.982781" y="159.650631" style="stroke: #ffffff"/>
     <use xlink:href="#mfc85432769" x="312.688096" y="143.608642" style="stroke: #ffffff"/>
     <use xlink:href="#mfc85432769" x="263.466573" y="164.58922" style="stroke: #ffffff"/>
     <use xlink:href="#mfc85432769" x="264.584038" y="168.486284" style="stroke: #ffffff"/>
     <use xlink:href="#mfc85432769" x="264.777575" y="169.481949" style="stroke: #ffffff"/>
     <use xlink:href="#mfc85432769" x="264.936247" y="170.483762" style="stroke: #ffffff"/>
     <use xlink:href="#mfc85432769" x="265.059859" y="171.490502" style="stroke: #ffffff"/>
     <use xlink:href="#mfc85432769" x="357.231355" y="166.061866" style="stroke: #ffffff"/>
     <use xlink:href="#mfc85432769" x="357.453065" y="170.292353" style="stroke: #ffffff"/>
     <use xlink:href="#mfc85432769" x="358.348279" y="174.528" style="stroke: #ffffff"/>
     <use xlink:href="#mfc85432769" x="358.273845" y="178.792309" style="stroke: #ffffff"/>
     <use xlink:href="#mfc85432769" x="358.050634" y="183.051423" style="stroke: #ffffff"/>
     <use xlink:href="#mfc85432769" x="358.929264" y="196.175534" style="stroke: #ffffff"/>
     <use xlink:href="#mfc85432769" x="358.098989" y="200.446932" style="stroke: #ffffff"/>
     <use xlink:href="#mfc85432769" x="357.120149" y="204.686752" style="stroke: #ffffff"/>
     <use xlink:href="#mfc85432769" x="355.993938" y="208.889829" style="stroke: #ffffff"/>
     <use xlink:href="#mfc85432769" x="354.721728" y="213.051041" style="stroke: #ffffff"/>
     <use xlink:href="#mfc85432769" x="353.305069" y="217.165318" style="stroke: #ffffff"/>
     <use xlink:href="#mfc85432769" x="261.755974" y="187.011991" style="stroke: #ffffff"/>
     <use xlink:href="#mfc85432769" x="261.304697" y="187.897672" style="stroke: #ffffff"/>
     <use xlink:href="#mfc85432769" x="260.822784" y="188.767065" style="stroke: #ffffff"/>
     <use xlink:href="#mfc85432769" x="341.880371" y="240.58942" style="stroke: #ffffff"/>
     <use xlink:href="#mfc85432769" x="259.76944" y="190.452768" style="stroke: #ffffff"/>
     <use xlink:href="#mfc85432769" x="266.966353" y="196.910126" style="stroke: #ffffff"/>
     <use xlink:href="#mfc85432769" x="266.166462" y="197.971618" style="stroke: #ffffff"/>
     <use xlink:href="#mfc85432769" x="265.74917" y="199.356262" style="stroke: #ffffff"/>
     <use xlink:href="#mfc85432769" x="257.755081" y="193.972298" style="stroke: #ffffff"/>
     <use xlink:href="#mfc85432769" x="325.240358" y="260.551902" style="stroke: #ffffff"/>
     <use xlink:href="#mfc85432769" x="322.75832" y="264.203186" style="stroke: #ffffff"/>
     <use xlink:href="#mfc85432769" x="254.825477" y="195.258112" style="stroke: #ffffff"/>
     <use xlink:href="#mfc85432769" x="288.940668" y="237.429551" style="stroke: #ffffff"/>
     <use xlink:href="#mfc85432769" x="257.453365" y="206.096712" style="stroke: #ffffff"/>
     <use xlink:href="#mfc85432769" x="251.558949" y="199.17147" style="stroke: #ffffff"/>
     <use xlink:href="#mfc85432769" x="297.871781" y="281.415941" style="stroke: #ffffff"/>
     <use xlink:href="#mfc85432769" x="294.103853" y="283.504538" style="stroke: #ffffff"/>
     <use xlink:href="#mfc85432769" x="248.643991" y="200.123974" style="stroke: #ffffff"/>
     <use xlink:href="#mfc85432769" x="247.743099" y="200.544067" style="stroke: #ffffff"/>
     <use xlink:href="#mfc85432769" x="246.828095" y="200.932463" style="stroke: #ffffff"/>
     <use xlink:href="#mfc85432769" x="245.900094" y="201.288689" style="stroke: #ffffff"/>
     <use xlink:href="#mfc85432769" x="274.172594" y="291.518733" style="stroke: #ffffff"/>
     <use xlink:href="#mfc85432769" x="270.06652" y="292.774086" style="stroke: #ffffff"/>
     <use xlink:href="#mfc85432769" x="265.919136" y="293.885374" style="stroke: #ffffff"/>
     <use xlink:href="#mfc85432769" x="261.735495" y="294.851244" style="stroke: #ffffff"/>
     <use xlink:href="#mfc85432769" x="240.510682" y="299.115237" style="stroke: #ffffff"/>
     <use xlink:href="#mfc85432769" x="236.16" y="299.191178" style="stroke: #ffffff"/>
    </g>
   </g>
   <g id="patch_3">
    <path d="M 236.16 41.472 
C 218.687246 41.472 201.384393 44.913752 185.241673 51.600285 
C 169.098954 58.286818 154.430303 68.088097 142.0752 80.4432 
C 129.720097 92.798303 119.918818 107.466954 113.232285 123.609673 
C 106.545752 139.752393 103.104 157.055246 103.104 174.528 
C 103.104 192.000754 106.545752 209.303607 113.232285 225.446327 
C 119.918818 241.589046 129.720097 256.257697 142.0752 268.6128 
C 154.430303 280.967903 169.098954 290.769182 185.241673 297.455715 
C 201.384393 304.142248 218.687246 307.584 236.16 307.584 
C 253.632754 307.584 270.935607 304.142248 287.078327 297.455715 
C 303.221046 290.769182 317.889697 280.967903 330.2448 268.6128 
C 342.599903 256.257697 352.401182 241.589046 359.087715 225.446327 
C 365.774248 209.303607 369.216 192.000754 369.216 174.528 
C 369.216 157.055246 365.774248 139.752393 359.087715 123.609673 
C 352.401182 107.466954 342.599903 92.798303 330.2448 80.4432 
C 317.889697 68.088097 303.221046 58.286818 287.078327 51.600285 
C 270.935607 44.913752 253.632754 41.472 236.16 41.472 
" style="fill: none; stroke: #ffffff; stroke-width: 1.25; stroke-linejoin: miter; stroke-linecap: square"/>
   </g>
  </g>
 </g>
 <defs>
  <clipPath id="pa42f514ab1">
   <path d="M 369.216 174.528 
C 369.216 157.055246 365.774248 139.752393 359.087715 123.609673 
C 352.401182 107.466954 342.599903 92.798303 330.2448 80.4432 
C 317.889697 68.088097 303.221046 58.286818 287.078327 51.600285 
C 270.935607 44.913752 253.632754 41.472 236.16 41.472 
C 218.687246 41.472 201.384393 44.913752 185.241673 51.600285 
C 169.098954 58.286818 154.430303 68.088097 142.0752 80.4432 
C 129.720097 92.798303 119.918818 107.466954 113.232285 123.609673 
C 106.545752 139.752393 103.104 157.055246 103.104 174.528 
C 103.104 192.000754 106.545752 209.303607 113.232285 225.446327 
C 119.918818 241.589046 129.720097 256.257697 142.0752 268.6128 
C 154.430303 280.967903 169.098954 290.769182 185.241673 297.455715 
C 201.384393 304.142248 218.687246 307.584 236.16 307.584 
C 253.632754 307.584 270.935607 304.142248 287.078327 297.455715 
C 303.221046 290.769182 317.889697 280.967903 330.2448 268.6128 
C 342.599903 256.257697 352.401182 241.589046 359.087715 225.446327 
C 365.774248 209.303607 369.216 192.000754 369.216 174.528 
M 236.16 174.528 
C 236.16 174.528 236.16 174.528 236.16 174.528 
C 236.16 174.528 236.16 174.528 236.16 174.528 
C 236.16 174.528 236.16 174.528 236.16 174.528 
C 236.16 174.528 236.16 174.528 236.16 174.528 
C 236.16 174.528 236.16 174.528 236.16 174.528 
C 236.16 174.528 236.16 174.528 236.16 174.528 
C 236.16 174.528 236.16 174.528 236.16 174.528 
C 236.16 174.528 236.16 174.528 236.16 174.528 
C 236.16 174.528 236.16 174.528 236.16 174.528 
C 236.16 174.528 236.16 174.528 236.16 174.528 
C 236.16 174.528 236.16 174.528 236.16 174.528 
C 236.16 174.528 236.16 174.528 236.16 174.528 
C 236.16 174.528 236.16 174.528 236.16 174.528 
C 236.16 174.528 236.16 174.528 236.16 174.528 
C 236.16 174.528 236.16 174.528 236.16 174.528 
C 236.16 174.528 236.16 174.528 236.16 174.528 
z
"/>
  </clipPath>
 </defs>
</svg>
