<?xml version="1.0" encoding="utf-8" standalone="no"?>
<!DOCTYPE svg PUBLIC "-//W3C//DTD SVG 1.1//EN"
  "http://www.w3.org/Graphics/SVG/1.1/DTD/svg11.dtd">
<svg xmlns:xlink="http://www.w3.org/1999/xlink" width="345.6pt" height="360pt" viewBox="0 0 345.6 360" xmlns="http://www.w3.org/2000/svg" version="1.1">
 <metadata>
  <rdf:RDF xmlns:dc="http://purl.org/dc/elements/1.1/" xmlns:cc="http://creativecommons.org/ns#" xmlns:rdf="http://www.w3.org/1999/02/22-rdf-syntax-ns#">
   <cc:Work>
    <dc:type rdf:resource="http://purl.org/dc/dcmitype/StillImage"/>
    <dc:date>2024-09-11T16:24:13.027308</dc:date>
    <dc:format>image/svg+xml</dc:format>
    <dc:creator>
     <cc:Agent>
      <dc:title>Matplotlib v3.9.1, https://matplotlib.org/</dc:title>
     </cc:Agent>
    </dc:creator>
   </cc:Work>
  </rdf:RDF>
 </metadata>
 <defs>
  <style type="text/css">*{stroke-linejoin: round; stroke-linecap: butt}</style>
 </defs>
 <g id="figure_1">
  <g id="patch_1">
   <path d="M 0 360 
L 345.6 360 
L 345.6 0 
L 0 0 
z
" style="fill: #ffffff"/>
  </g>
  <g id="axes_1">
   <g id="patch_2">
    <path d="M 43.2 320.4 
L 311.04 320.4 
L 311.04 43.2 
L 43.2 43.2 
z
" style="fill: #eaeaf2"/>
   </g>
   <g id="matplotlib.axis_1">
    <g id="xtick_1">
     <g id="line2d_1">
      <path d="M 55.374545 320.4 
L 55.374545 43.2 
" clip-path="url(#p54b47fad6e)" style="fill: none; stroke: #ffffff; stroke-linecap: round"/>
     </g>
     <g id="text_1">
      <!-- 0 -->
      <g style="fill: #262626" transform="translate(52.31603 337.773594) scale(0.11 -0.11)">
       <defs>
        <path id="ArialMT-30" d="M 266 2259 
Q 266 3072 433 3567 
Q 600 4063 929 4331 
Q 1259 4600 1759 4600 
Q 2128 4600 2406 4451 
Q 2684 4303 2865 4023 
Q 3047 3744 3150 3342 
Q 3253 2941 3253 2259 
Q 3253 1453 3087 958 
Q 2922 463 2592 192 
Q 2263 -78 1759 -78 
Q 1097 -78 719 397 
Q 266 969 266 2259 
z
M 844 2259 
Q 844 1131 1108 757 
Q 1372 384 1759 384 
Q 2147 384 2411 759 
Q 2675 1134 2675 2259 
Q 2675 3391 2411 3762 
Q 2147 4134 1753 4134 
Q 1366 4134 1134 3806 
Q 844 3388 844 2259 
z
" transform="scale(0.015625)"/>
       </defs>
       <use xlink:href="#ArialMT-30"/>
      </g>
     </g>
    </g>
    <g id="xtick_2">
     <g id="line2d_2">
      <path d="M 104.072727 320.4 
L 104.072727 43.2 
" clip-path="url(#p54b47fad6e)" style="fill: none; stroke: #ffffff; stroke-linecap: round"/>
     </g>
     <g id="text_2">
      <!-- 20 -->
      <g style="fill: #262626" transform="translate(97.955696 337.773594) scale(0.11 -0.11)">
       <defs>
        <path id="ArialMT-32" d="M 3222 541 
L 3222 0 
L 194 0 
Q 188 203 259 391 
Q 375 700 629 1000 
Q 884 1300 1366 1694 
Q 2113 2306 2375 2664 
Q 2638 3022 2638 3341 
Q 2638 3675 2398 3904 
Q 2159 4134 1775 4134 
Q 1369 4134 1125 3890 
Q 881 3647 878 3216 
L 300 3275 
Q 359 3922 746 4261 
Q 1134 4600 1788 4600 
Q 2447 4600 2831 4234 
Q 3216 3869 3216 3328 
Q 3216 3053 3103 2787 
Q 2991 2522 2730 2228 
Q 2469 1934 1863 1422 
Q 1356 997 1212 845 
Q 1069 694 975 541 
L 3222 541 
z
" transform="scale(0.015625)"/>
       </defs>
       <use xlink:href="#ArialMT-32"/>
       <use xlink:href="#ArialMT-30" x="55.615234"/>
      </g>
     </g>
    </g>
    <g id="xtick_3">
     <g id="line2d_3">
      <path d="M 152.770909 320.4 
L 152.770909 43.2 
" clip-path="url(#p54b47fad6e)" style="fill: none; stroke: #ffffff; stroke-linecap: round"/>
     </g>
     <g id="text_3">
      <!-- 40 -->
      <g style="fill: #262626" transform="translate(146.653878 337.773594) scale(0.11 -0.11)">
       <defs>
        <path id="ArialMT-34" d="M 2069 0 
L 2069 1097 
L 81 1097 
L 81 1613 
L 2172 4581 
L 2631 4581 
L 2631 1613 
L 3250 1613 
L 3250 1097 
L 2631 1097 
L 2631 0 
L 2069 0 
z
M 2069 1613 
L 2069 3678 
L 634 1613 
L 2069 1613 
z
" transform="scale(0.015625)"/>
       </defs>
       <use xlink:href="#ArialMT-34"/>
       <use xlink:href="#ArialMT-30" x="55.615234"/>
      </g>
     </g>
    </g>
    <g id="xtick_4">
     <g id="line2d_4">
      <path d="M 201.469091 320.4 
L 201.469091 43.2 
" clip-path="url(#p54b47fad6e)" style="fill: none; stroke: #ffffff; stroke-linecap: round"/>
     </g>
     <g id="text_4">
      <!-- 60 -->
      <g style="fill: #262626" transform="translate(195.35206 337.773594) scale(0.11 -0.11)">
       <defs>
        <path id="ArialMT-36" d="M 3184 3459 
L 2625 3416 
Q 2550 3747 2413 3897 
Q 2184 4138 1850 4138 
Q 1581 4138 1378 3988 
Q 1113 3794 959 3422 
Q 806 3050 800 2363 
Q 1003 2672 1297 2822 
Q 1591 2972 1913 2972 
Q 2475 2972 2870 2558 
Q 3266 2144 3266 1488 
Q 3266 1056 3080 686 
Q 2894 316 2569 119 
Q 2244 -78 1831 -78 
Q 1128 -78 684 439 
Q 241 956 241 2144 
Q 241 3472 731 4075 
Q 1159 4600 1884 4600 
Q 2425 4600 2770 4297 
Q 3116 3994 3184 3459 
z
M 888 1484 
Q 888 1194 1011 928 
Q 1134 663 1356 523 
Q 1578 384 1822 384 
Q 2178 384 2434 671 
Q 2691 959 2691 1453 
Q 2691 1928 2437 2201 
Q 2184 2475 1800 2475 
Q 1419 2475 1153 2201 
Q 888 1928 888 1484 
z
" transform="scale(0.015625)"/>
       </defs>
       <use xlink:href="#ArialMT-36"/>
       <use xlink:href="#ArialMT-30" x="55.615234"/>
      </g>
     </g>
    </g>
    <g id="xtick_5">
     <g id="line2d_5">
      <path d="M 250.167273 320.4 
L 250.167273 43.2 
" clip-path="url(#p54b47fad6e)" style="fill: none; stroke: #ffffff; stroke-linecap: round"/>
     </g>
     <g id="text_5">
      <!-- 80 -->
      <g style="fill: #262626" transform="translate(244.050241 337.773594) scale(0.11 -0.11)">
       <defs>
        <path id="ArialMT-38" d="M 1131 2484 
Q 781 2613 612 2850 
Q 444 3088 444 3419 
Q 444 3919 803 4259 
Q 1163 4600 1759 4600 
Q 2359 4600 2725 4251 
Q 3091 3903 3091 3403 
Q 3091 3084 2923 2848 
Q 2756 2613 2416 2484 
Q 2838 2347 3058 2040 
Q 3278 1734 3278 1309 
Q 3278 722 2862 322 
Q 2447 -78 1769 -78 
Q 1091 -78 675 323 
Q 259 725 259 1325 
Q 259 1772 486 2073 
Q 713 2375 1131 2484 
z
M 1019 3438 
Q 1019 3113 1228 2906 
Q 1438 2700 1772 2700 
Q 2097 2700 2305 2904 
Q 2513 3109 2513 3406 
Q 2513 3716 2298 3927 
Q 2084 4138 1766 4138 
Q 1444 4138 1231 3931 
Q 1019 3725 1019 3438 
z
M 838 1322 
Q 838 1081 952 856 
Q 1066 631 1291 507 
Q 1516 384 1775 384 
Q 2178 384 2440 643 
Q 2703 903 2703 1303 
Q 2703 1709 2433 1975 
Q 2163 2241 1756 2241 
Q 1359 2241 1098 1978 
Q 838 1716 838 1322 
z
" transform="scale(0.015625)"/>
       </defs>
       <use xlink:href="#ArialMT-38"/>
       <use xlink:href="#ArialMT-30" x="55.615234"/>
      </g>
     </g>
    </g>
    <g id="xtick_6">
     <g id="line2d_6">
      <path d="M 298.865455 320.4 
L 298.865455 43.2 
" clip-path="url(#p54b47fad6e)" style="fill: none; stroke: #ffffff; stroke-linecap: round"/>
     </g>
     <g id="text_6">
      <!-- 100 -->
      <g style="fill: #262626" transform="translate(289.689908 337.773594) scale(0.11 -0.11)">
       <defs>
        <path id="ArialMT-31" d="M 2384 0 
L 1822 0 
L 1822 3584 
Q 1619 3391 1289 3197 
Q 959 3003 697 2906 
L 697 3450 
Q 1169 3672 1522 3987 
Q 1875 4303 2022 4600 
L 2384 4600 
L 2384 0 
z
" transform="scale(0.015625)"/>
       </defs>
       <use xlink:href="#ArialMT-31"/>
       <use xlink:href="#ArialMT-30" x="55.615234"/>
       <use xlink:href="#ArialMT-30" x="111.230469"/>
      </g>
     </g>
    </g>
    <g id="text_7">
     <!-- range (%) -->
     <g style="fill: #262626" transform="translate(150.778125 352.695469) scale(0.12 -0.12)">
      <defs>
       <path id="ArialMT-72" d="M 416 0 
L 416 3319 
L 922 3319 
L 922 2816 
Q 1116 3169 1280 3281 
Q 1444 3394 1641 3394 
Q 1925 3394 2219 3213 
L 2025 2691 
Q 1819 2813 1613 2813 
Q 1428 2813 1281 2702 
Q 1134 2591 1072 2394 
Q 978 2094 978 1738 
L 978 0 
L 416 0 
z
" transform="scale(0.015625)"/>
       <path id="ArialMT-61" d="M 2588 409 
Q 2275 144 1986 34 
Q 1697 -75 1366 -75 
Q 819 -75 525 192 
Q 231 459 231 875 
Q 231 1119 342 1320 
Q 453 1522 633 1644 
Q 813 1766 1038 1828 
Q 1203 1872 1538 1913 
Q 2219 1994 2541 2106 
Q 2544 2222 2544 2253 
Q 2544 2597 2384 2738 
Q 2169 2928 1744 2928 
Q 1347 2928 1158 2789 
Q 969 2650 878 2297 
L 328 2372 
Q 403 2725 575 2942 
Q 747 3159 1072 3276 
Q 1397 3394 1825 3394 
Q 2250 3394 2515 3294 
Q 2781 3194 2906 3042 
Q 3031 2891 3081 2659 
Q 3109 2516 3109 2141 
L 3109 1391 
Q 3109 606 3145 398 
Q 3181 191 3288 0 
L 2700 0 
Q 2613 175 2588 409 
z
M 2541 1666 
Q 2234 1541 1622 1453 
Q 1275 1403 1131 1340 
Q 988 1278 909 1158 
Q 831 1038 831 891 
Q 831 666 1001 516 
Q 1172 366 1500 366 
Q 1825 366 2078 508 
Q 2331 650 2450 897 
Q 2541 1088 2541 1459 
L 2541 1666 
z
" transform="scale(0.015625)"/>
       <path id="ArialMT-6e" d="M 422 0 
L 422 3319 
L 928 3319 
L 928 2847 
Q 1294 3394 1984 3394 
Q 2284 3394 2536 3286 
Q 2788 3178 2913 3003 
Q 3038 2828 3088 2588 
Q 3119 2431 3119 2041 
L 3119 0 
L 2556 0 
L 2556 2019 
Q 2556 2363 2490 2533 
Q 2425 2703 2258 2804 
Q 2091 2906 1866 2906 
Q 1506 2906 1245 2678 
Q 984 2450 984 1813 
L 984 0 
L 422 0 
z
" transform="scale(0.015625)"/>
       <path id="ArialMT-67" d="M 319 -275 
L 866 -356 
Q 900 -609 1056 -725 
Q 1266 -881 1628 -881 
Q 2019 -881 2231 -725 
Q 2444 -569 2519 -288 
Q 2563 -116 2559 434 
Q 2191 0 1641 0 
Q 956 0 581 494 
Q 206 988 206 1678 
Q 206 2153 378 2554 
Q 550 2956 876 3175 
Q 1203 3394 1644 3394 
Q 2231 3394 2613 2919 
L 2613 3319 
L 3131 3319 
L 3131 450 
Q 3131 -325 2973 -648 
Q 2816 -972 2473 -1159 
Q 2131 -1347 1631 -1347 
Q 1038 -1347 672 -1080 
Q 306 -813 319 -275 
z
M 784 1719 
Q 784 1066 1043 766 
Q 1303 466 1694 466 
Q 2081 466 2343 764 
Q 2606 1063 2606 1700 
Q 2606 2309 2336 2618 
Q 2066 2928 1684 2928 
Q 1309 2928 1046 2623 
Q 784 2319 784 1719 
z
" transform="scale(0.015625)"/>
       <path id="ArialMT-65" d="M 2694 1069 
L 3275 997 
Q 3138 488 2766 206 
Q 2394 -75 1816 -75 
Q 1088 -75 661 373 
Q 234 822 234 1631 
Q 234 2469 665 2931 
Q 1097 3394 1784 3394 
Q 2450 3394 2872 2941 
Q 3294 2488 3294 1666 
Q 3294 1616 3291 1516 
L 816 1516 
Q 847 969 1125 678 
Q 1403 388 1819 388 
Q 2128 388 2347 550 
Q 2566 713 2694 1069 
z
M 847 1978 
L 2700 1978 
Q 2663 2397 2488 2606 
Q 2219 2931 1791 2931 
Q 1403 2931 1139 2672 
Q 875 2413 847 1978 
z
" transform="scale(0.015625)"/>
       <path id="ArialMT-20" transform="scale(0.015625)"/>
       <path id="ArialMT-28" d="M 1497 -1347 
Q 1031 -759 709 28 
Q 388 816 388 1659 
Q 388 2403 628 3084 
Q 909 3875 1497 4659 
L 1900 4659 
Q 1522 4009 1400 3731 
Q 1209 3300 1100 2831 
Q 966 2247 966 1656 
Q 966 153 1900 -1347 
L 1497 -1347 
z
" transform="scale(0.015625)"/>
       <path id="ArialMT-25" d="M 372 3481 
Q 372 3972 619 4315 
Q 866 4659 1334 4659 
Q 1766 4659 2048 4351 
Q 2331 4044 2331 3447 
Q 2331 2866 2045 2552 
Q 1759 2238 1341 2238 
Q 925 2238 648 2547 
Q 372 2856 372 3481 
z
M 1350 4272 
Q 1141 4272 1002 4090 
Q 863 3909 863 3425 
Q 863 2984 1003 2804 
Q 1144 2625 1350 2625 
Q 1563 2625 1702 2806 
Q 1841 2988 1841 3469 
Q 1841 3913 1700 4092 
Q 1559 4272 1350 4272 
z
M 1353 -169 
L 3859 4659 
L 4316 4659 
L 1819 -169 
L 1353 -169 
z
M 3334 1075 
Q 3334 1569 3581 1911 
Q 3828 2253 4300 2253 
Q 4731 2253 5014 1945 
Q 5297 1638 5297 1041 
Q 5297 459 5011 145 
Q 4725 -169 4303 -169 
Q 3888 -169 3611 142 
Q 3334 453 3334 1075 
z
M 4316 1866 
Q 4103 1866 3964 1684 
Q 3825 1503 3825 1019 
Q 3825 581 3965 400 
Q 4106 219 4313 219 
Q 4528 219 4667 400 
Q 4806 581 4806 1063 
Q 4806 1506 4665 1686 
Q 4525 1866 4316 1866 
z
" transform="scale(0.015625)"/>
       <path id="ArialMT-29" d="M 791 -1347 
L 388 -1347 
Q 1322 153 1322 1656 
Q 1322 2244 1188 2822 
Q 1081 3291 891 3722 
Q 769 4003 388 4659 
L 791 4659 
Q 1378 3875 1659 3084 
Q 1900 2403 1900 1659 
Q 1900 816 1576 28 
Q 1253 -759 791 -1347 
z
" transform="scale(0.015625)"/>
      </defs>
      <use xlink:href="#ArialMT-72"/>
      <use xlink:href="#ArialMT-61" x="33.300781"/>
      <use xlink:href="#ArialMT-6e" x="88.916016"/>
      <use xlink:href="#ArialMT-67" x="144.53125"/>
      <use xlink:href="#ArialMT-65" x="200.146484"/>
      <use xlink:href="#ArialMT-20" x="255.761719"/>
      <use xlink:href="#ArialMT-28" x="283.544922"/>
      <use xlink:href="#ArialMT-25" x="316.845703"/>
      <use xlink:href="#ArialMT-29" x="405.761719"/>
     </g>
    </g>
   </g>
   <g id="matplotlib.axis_2">
    <g id="ytick_1">
     <g id="line2d_7">
      <path d="M 43.2 307.8 
L 311.04 307.8 
" clip-path="url(#p54b47fad6e)" style="fill: none; stroke: #ffffff; stroke-linecap: round"/>
     </g>
     <g id="text_8">
      <!-- 0 -->
      <g style="fill: #262626" transform="translate(27.582969 311.736797) scale(0.11 -0.11)">
       <use xlink:href="#ArialMT-30"/>
      </g>
     </g>
    </g>
    <g id="ytick_2">
     <g id="line2d_8">
      <path d="M 43.2 256.85 
L 311.04 256.85 
" clip-path="url(#p54b47fad6e)" style="fill: none; stroke: #ffffff; stroke-linecap: round"/>
     </g>
     <g id="text_9">
      <!-- 2 -->
      <g style="fill: #262626" transform="translate(27.582969 260.786797) scale(0.11 -0.11)">
       <use xlink:href="#ArialMT-32"/>
      </g>
     </g>
    </g>
    <g id="ytick_3">
     <g id="line2d_9">
      <path d="M 43.2 205.9 
L 311.04 205.9 
" clip-path="url(#p54b47fad6e)" style="fill: none; stroke: #ffffff; stroke-linecap: round"/>
     </g>
     <g id="text_10">
      <!-- 4 -->
      <g style="fill: #262626" transform="translate(27.582969 209.836797) scale(0.11 -0.11)">
       <use xlink:href="#ArialMT-34"/>
      </g>
     </g>
    </g>
    <g id="ytick_4">
     <g id="line2d_10">
      <path d="M 43.2 154.95 
L 311.04 154.95 
" clip-path="url(#p54b47fad6e)" style="fill: none; stroke: #ffffff; stroke-linecap: round"/>
     </g>
     <g id="text_11">
      <!-- 6 -->
      <g style="fill: #262626" transform="translate(27.582969 158.886797) scale(0.11 -0.11)">
       <use xlink:href="#ArialMT-36"/>
      </g>
     </g>
    </g>
    <g id="ytick_5">
     <g id="line2d_11">
      <path d="M 43.2 104 
L 311.04 104 
" clip-path="url(#p54b47fad6e)" style="fill: none; stroke: #ffffff; stroke-linecap: round"/>
     </g>
     <g id="text_12">
      <!-- 8 -->
      <g style="fill: #262626" transform="translate(27.582969 107.936797) scale(0.11 -0.11)">
       <use xlink:href="#ArialMT-38"/>
      </g>
     </g>
    </g>
    <g id="ytick_6">
     <g id="line2d_12">
      <path d="M 43.2 53.05 
L 311.04 53.05 
" clip-path="url(#p54b47fad6e)" style="fill: none; stroke: #ffffff; stroke-linecap: round"/>
     </g>
     <g id="text_13">
      <!-- 10 -->
      <g style="fill: #262626" transform="translate(21.465937 56.986797) scale(0.11 -0.11)">
       <use xlink:href="#ArialMT-31"/>
       <use xlink:href="#ArialMT-30" x="55.615234"/>
      </g>
     </g>
    </g>
    <g id="text_14">
     <!-- intensity (%) -->
     <g style="fill: #262626" transform="translate(14.940312 214.8075) rotate(-90) scale(0.12 -0.12)">
      <defs>
       <path id="ArialMT-69" d="M 425 3934 
L 425 4581 
L 988 4581 
L 988 3934 
L 425 3934 
z
M 425 0 
L 425 3319 
L 988 3319 
L 988 0 
L 425 0 
z
" transform="scale(0.015625)"/>
       <path id="ArialMT-74" d="M 1650 503 
L 1731 6 
Q 1494 -44 1306 -44 
Q 1000 -44 831 53 
Q 663 150 594 308 
Q 525 466 525 972 
L 525 2881 
L 113 2881 
L 113 3319 
L 525 3319 
L 525 4141 
L 1084 4478 
L 1084 3319 
L 1650 3319 
L 1650 2881 
L 1084 2881 
L 1084 941 
Q 1084 700 1114 631 
Q 1144 563 1211 522 
Q 1278 481 1403 481 
Q 1497 481 1650 503 
z
" transform="scale(0.015625)"/>
       <path id="ArialMT-73" d="M 197 991 
L 753 1078 
Q 800 744 1014 566 
Q 1228 388 1613 388 
Q 2000 388 2187 545 
Q 2375 703 2375 916 
Q 2375 1106 2209 1216 
Q 2094 1291 1634 1406 
Q 1016 1563 777 1677 
Q 538 1791 414 1992 
Q 291 2194 291 2438 
Q 291 2659 392 2848 
Q 494 3038 669 3163 
Q 800 3259 1026 3326 
Q 1253 3394 1513 3394 
Q 1903 3394 2198 3281 
Q 2494 3169 2634 2976 
Q 2775 2784 2828 2463 
L 2278 2388 
Q 2241 2644 2061 2787 
Q 1881 2931 1553 2931 
Q 1166 2931 1000 2803 
Q 834 2675 834 2503 
Q 834 2394 903 2306 
Q 972 2216 1119 2156 
Q 1203 2125 1616 2013 
Q 2213 1853 2448 1751 
Q 2684 1650 2818 1456 
Q 2953 1263 2953 975 
Q 2953 694 2789 445 
Q 2625 197 2315 61 
Q 2006 -75 1616 -75 
Q 969 -75 630 194 
Q 291 463 197 991 
z
" transform="scale(0.015625)"/>
       <path id="ArialMT-79" d="M 397 -1278 
L 334 -750 
Q 519 -800 656 -800 
Q 844 -800 956 -737 
Q 1069 -675 1141 -563 
Q 1194 -478 1313 -144 
Q 1328 -97 1363 -6 
L 103 3319 
L 709 3319 
L 1400 1397 
Q 1534 1031 1641 628 
Q 1738 1016 1872 1384 
L 2581 3319 
L 3144 3319 
L 1881 -56 
Q 1678 -603 1566 -809 
Q 1416 -1088 1222 -1217 
Q 1028 -1347 759 -1347 
Q 597 -1347 397 -1278 
z
" transform="scale(0.015625)"/>
      </defs>
      <use xlink:href="#ArialMT-69"/>
      <use xlink:href="#ArialMT-6e" x="22.216797"/>
      <use xlink:href="#ArialMT-74" x="77.832031"/>
      <use xlink:href="#ArialMT-65" x="105.615234"/>
      <use xlink:href="#ArialMT-6e" x="161.230469"/>
      <use xlink:href="#ArialMT-73" x="216.845703"/>
      <use xlink:href="#ArialMT-69" x="266.845703"/>
      <use xlink:href="#ArialMT-74" x="289.0625"/>
      <use xlink:href="#ArialMT-79" x="316.845703"/>
      <use xlink:href="#ArialMT-20" x="366.845703"/>
      <use xlink:href="#ArialMT-28" x="394.628906"/>
      <use xlink:href="#ArialMT-25" x="427.929688"/>
      <use xlink:href="#ArialMT-29" x="516.845703"/>
     </g>
    </g>
   </g>
   <g id="line2d_13">
    <path d="M 55.374545 245.55 
L 56.804042 235.925 
L 57.280541 231.05 
L 58.233539 224.55 
L 58.710037 218.425 
L 59.186536 216.8 
L 59.663035 209.05 
L 60.139534 206.3 
L 61.092532 191.925 
L 61.56903 183.425 
L 62.045529 169.05 
L 62.522028 146.8 
L 63.475026 72.55 
L 63.951525 55.8 
L 64.428023 73.55 
L 64.904522 107.05 
L 65.381021 126.8 
L 65.85752 137.55 
L 66.334019 142.925 
L 68.240014 157.925 
L 69.193012 166.8 
L 70.622508 184.175 
L 71.575506 195.05 
L 73.481502 216.05 
L 73.958 220.3 
L 74.434499 223.55 
L 74.910998 225.55 
L 75.387497 229.55 
L 75.863996 231.05 
L 76.816993 236.3 
L 77.293492 238.05 
L 77.769991 239.175 
L 79.199488 243.925 
L 79.675986 244.675 
L 80.152485 248.05 
L 80.628984 249.55 
L 81.105483 250.3 
L 81.581982 252.3 
L 82.058481 253.175 
L 83.487977 257.8 
L 83.964476 258.8 
L 84.440975 261.425 
L 84.917474 262.3 
L 85.393973 262.8 
L 85.870471 264.425 
L 86.34697 264.175 
L 86.823469 265.55 
L 87.299968 266.55 
L 88.252966 267.425 
L 88.729465 266.925 
L 89.205963 267.55 
L 89.682462 267.8 
L 90.158961 268.425 
L 91.588458 267.3 
L 92.064956 268.3 
L 92.541455 266.8 
L 93.494453 267.05 
L 93.970952 266.55 
L 94.447451 267.05 
L 94.923949 265.8 
L 95.400448 265.05 
L 95.876947 266.175 
L 96.353446 263.175 
L 96.829945 264.05 
L 97.306444 262.8 
L 97.782943 261.925 
L 98.259441 261.55 
L 98.73594 261.55 
L 99.212439 259.8 
L 99.688938 259.925 
L 100.165437 259.05 
L 100.641936 258.925 
L 101.118434 256.3 
L 101.594933 256.3 
L 102.071432 254.55 
L 104.930425 247.55 
L 105.406924 244.8 
L 105.883423 243.425 
L 106.359922 243.05 
L 106.836421 241.3 
L 107.312919 241.55 
L 107.789418 238.8 
L 108.265917 238.8 
L 108.742416 238.05 
L 109.218915 236.8 
L 109.695414 236.05 
L 110.171912 234.8 
L 110.648411 236.05 
L 111.12491 234.8 
L 112.077908 233.425 
L 112.554407 233.3 
L 113.983903 229.425 
L 114.460402 229.55 
L 114.936901 228.425 
L 116.842896 225.3 
L 117.319395 226.175 
L 117.795894 223.55 
L 118.272393 223.175 
L 119.701889 220.925 
L 120.178388 220.8 
L 120.654887 219.55 
L 121.131386 217.675 
L 121.607885 217.3 
L 122.084384 215.3 
L 122.560882 215.05 
L 123.037381 211.55 
L 123.51388 210.3 
L 123.990379 208.3 
L 124.466878 204.05 
L 124.943377 197.175 
L 125.419875 192.675 
L 125.896374 185.425 
L 126.849372 178.55 
L 127.325871 176.8 
L 127.80237 176.55 
L 128.755367 186.55 
L 129.231866 189.175 
L 130.184864 198.425 
L 131.137862 202.175 
L 131.61436 203.925 
L 132.567358 205.3 
L 133.043857 205.55 
L 133.520356 208.3 
L 133.996855 210.05 
L 134.473353 208.425 
L 134.949852 209.05 
L 135.426351 210.55 
L 136.379349 211.175 
L 137.332347 211.8 
L 137.808845 211.05 
L 138.285344 214.3 
L 138.761843 212.3 
L 139.238342 213.05 
L 139.714841 215.3 
L 140.19134 212.675 
L 140.667838 214.3 
L 141.144337 214.55 
L 141.620836 213.675 
L 142.097335 213.8 
L 142.573834 213.8 
L 143.050333 214.425 
L 143.526832 213.925 
L 144.00333 215.8 
L 144.479829 214.8 
L 144.956328 213.3 
L 145.909326 214.925 
L 146.385825 214.55 
L 146.862323 215.05 
L 147.338822 214.55 
L 147.815321 214.675 
L 148.29182 215.05 
L 148.768319 215.175 
L 149.244818 213.55 
L 149.721316 215.3 
L 150.197815 213.8 
L 150.674314 213.3 
L 151.150813 214.8 
L 151.627312 213.55 
L 152.103811 213.675 
L 152.58031 210.8 
L 153.056808 210.8 
L 153.533307 206.925 
L 154.009806 204.55 
L 154.962804 194.05 
L 155.439303 190.3 
L 155.915801 188.3 
L 156.3923 183.425 
L 156.868799 188.3 
L 157.345298 186.8 
L 158.298296 193.675 
L 158.774795 194.8 
L 159.251293 196.55 
L 159.727792 199.3 
L 160.68079 202.05 
L 161.157289 201.55 
L 161.633788 201.425 
L 162.110286 203.05 
L 162.586785 203.05 
L 163.539783 205.8 
L 164.016282 206.05 
L 164.492781 205.3 
L 164.969279 206.8 
L 165.445778 207.3 
L 165.922277 207.425 
L 166.398776 208.675 
L 166.875275 207.8 
L 167.351774 208.8 
L 167.828273 208.8 
L 168.304771 210.55 
L 168.78127 211.55 
L 169.257769 209.05 
L 169.734268 211.8 
L 170.210767 210.3 
L 170.687266 211.3 
L 171.163764 213.3 
L 171.640263 213.425 
L 172.116762 214.3 
L 172.593261 214.8 
L 173.06976 213.55 
L 173.546259 213.3 
L 174.022758 216.675 
L 174.975755 213.925 
L 175.452254 216.05 
L 175.928753 216.8 
L 176.405252 216.675 
L 176.881751 215.8 
L 177.358249 216.675 
L 177.834748 217.175 
L 178.311247 218.675 
L 178.787746 219.05 
L 179.264245 219.05 
L 179.740744 218.55 
L 180.217242 218.925 
L 180.693741 219.675 
L 181.17024 220.8 
L 182.123238 221.3 
L 182.599737 221.3 
L 183.076236 222.925 
L 183.552734 222.8 
L 184.029233 222.8 
L 184.505732 222.3 
L 184.982231 224.425 
L 185.45873 223.925 
L 185.935229 225.3 
L 186.411727 225.05 
L 186.888226 225.175 
L 187.841224 226.8 
L 188.317723 227.3 
L 188.794222 226.55 
L 189.270721 227.3 
L 190.700217 228.8 
L 191.176716 230.425 
L 191.653215 229.55 
L 192.129714 229.55 
L 192.606212 231.3 
L 193.082711 231.3 
L 193.55921 233.3 
L 194.035709 233.05 
L 194.512208 232.425 
L 194.988707 234.3 
L 195.465205 235.3 
L 195.941704 234.3 
L 196.418203 236.05 
L 196.894702 235.675 
L 197.371201 237.3 
L 197.8477 237.05 
L 198.324199 238.3 
L 198.800697 238.05 
L 199.277196 239.175 
L 199.753695 238.8 
L 200.230194 240.8 
L 200.706693 240.05 
L 201.183192 241.8 
L 201.65969 241.3 
L 202.136189 242.55 
L 202.612688 242.3 
L 203.565686 244.3 
L 204.042185 243.8 
L 204.518684 244.8 
L 204.995182 245.3 
L 205.471681 245.05 
L 205.94818 246.425 
L 206.424679 247.3 
L 206.901178 247.3 
L 207.377677 248.3 
L 207.854175 248.8 
L 208.330674 248.55 
L 208.807173 249.05 
L 209.283672 248.8 
L 209.760171 251.05 
L 210.23667 251.05 
L 210.713168 250.8 
L 211.189667 252.3 
L 211.666166 253.3 
L 212.142665 253.3 
L 212.619164 253.8 
L 213.095663 255.3 
L 213.572162 253.925 
L 214.04866 256.55 
L 214.525159 255.175 
L 215.001658 256.8 
L 215.478157 257.05 
L 215.954656 257.55 
L 216.431155 257.05 
L 216.907653 258.425 
L 217.384152 258.925 
L 217.860651 258.55 
L 218.33715 258.8 
L 218.813649 260.05 
L 219.290148 259.8 
L 219.766647 261.55 
L 220.243145 261.3 
L 220.719644 262.8 
L 221.196143 261.8 
L 221.672642 263.05 
L 222.149141 263.925 
L 222.62564 264.55 
L 223.102138 264.3 
L 223.578637 264.3 
L 224.055136 265.3 
L 224.531635 265.3 
L 225.008134 265.55 
L 225.484633 266.8 
L 226.43763 266.8 
L 226.914129 268.3 
L 227.390628 268.8 
L 227.867127 268.05 
L 228.343626 269.3 
L 228.820125 269.55 
L 230.249621 271.05 
L 230.72612 270.925 
L 231.202619 271.8 
L 231.679118 270.8 
L 232.155616 272.8 
L 232.632115 272.3 
L 233.108614 273.55 
L 233.585113 273.675 
L 234.061612 273.425 
L 235.01461 274.55 
L 235.491108 273.925 
L 235.967607 275.425 
L 236.444106 275.55 
L 237.397104 276.55 
L 238.350101 276.8 
L 238.8266 277.8 
L 239.303099 276.8 
L 239.779598 277.925 
L 240.256097 278.3 
L 240.732596 278.175 
L 241.209094 278.925 
L 241.685593 278.55 
L 242.638591 279.8 
L 243.11509 280.175 
L 243.591589 278.925 
L 244.068088 279.8 
L 244.544586 279.8 
L 245.497584 280.925 
L 245.974083 281.3 
L 246.450582 280.925 
L 246.927081 281.55 
L 247.403579 281.05 
L 247.880078 281.8 
L 248.356577 281.8 
L 248.833076 282.675 
L 249.309575 281.8 
L 249.786074 283.05 
L 250.262572 282.55 
L 250.739071 283.05 
L 251.21557 283.05 
L 251.692069 282.8 
L 252.168568 283.55 
L 252.645067 283.175 
L 253.598064 283.8 
L 254.074563 285.05 
L 254.551062 284.05 
L 255.027561 284.55 
L 255.50406 284.05 
L 255.980559 284.55 
L 256.457057 284.55 
L 256.933556 283.3 
L 257.410055 285.3 
L 257.886554 285.3 
L 258.363053 285.175 
L 258.839552 285.3 
L 259.316051 285.8 
L 259.792549 285.8 
L 260.269048 286.05 
L 260.745547 285.8 
L 261.222046 287.55 
L 261.698545 287.55 
L 262.175044 286.925 
L 263.128041 288.05 
L 263.60454 287.55 
L 264.081039 288.3 
L 264.557538 287.925 
L 265.034037 287.925 
L 265.510535 289.05 
L 266.463533 288.05 
L 266.940032 288.3 
L 267.416531 287.8 
L 267.89303 288.425 
L 268.369529 287.675 
L 268.846027 288.425 
L 269.322526 288.675 
L 269.799025 288.3 
L 270.275524 288.55 
L 270.752023 288.05 
L 271.228522 288.675 
L 271.70502 288.8 
L 272.181519 287.05 
L 272.658018 288.55 
L 273.134517 288.8 
L 273.611016 288.55 
L 274.087515 288.05 
L 274.564014 288.3 
L 275.040512 288.3 
L 275.99351 287.925 
L 276.946508 288.8 
L 277.423007 288.3 
L 277.899505 289.3 
L 278.376004 288.425 
L 278.852503 288.925 
L 279.329002 289.175 
L 279.805501 288.05 
L 280.282 288.675 
L 280.758498 288.05 
L 281.234997 288.675 
L 281.711496 288.925 
L 282.187995 288.8 
L 282.664494 289.3 
L 283.140993 288.8 
L 283.617492 289.925 
L 284.09399 290.3 
L 284.570489 289.3 
L 285.046988 289.05 
L 285.523487 289.55 
L 286.476485 289.55 
L 286.952983 290.05 
L 287.429482 288.925 
L 287.905981 290.55 
L 288.38248 290.675 
L 288.858979 290.55 
L 289.335478 290.8 
L 289.811977 290.675 
L 290.288475 291.55 
L 290.764974 290.925 
L 291.241473 290.55 
L 291.717972 291.3 
L 292.194471 291.3 
L 292.67097 292.05 
L 293.147468 291.425 
L 293.623967 292.3 
L 294.100466 291.55 
L 294.576965 291.175 
L 295.053464 291.05 
L 295.529963 291.8 
L 296.006461 292.3 
L 296.48296 291.8 
L 296.959459 292.8 
L 297.435958 291.8 
L 297.912457 292.175 
L 298.865455 291.55 
L 298.865455 291.55 
" clip-path="url(#p54b47fad6e)" style="fill: none; stroke: #ff7f0e; stroke-width: 1.5; stroke-linecap: round"/>
   </g>
   <g id="line2d_14">
    <path d="M 55.374545 301.953174 
L 55.851044 301.048129 
L 56.804042 304.300187 
L 57.280541 298.094728 
L 57.75704 300.720277 
L 58.233539 304.50796 
L 58.710037 295.598548 
L 59.186536 303.717809 
L 59.663035 295.656412 
L 60.139534 299.643423 
L 61.092532 289.733776 
L 61.56903 282.38979 
L 62.045529 264.009341 
L 62.522028 228.39434 
L 63.475026 114.751434 
L 63.951525 101.164818 
L 64.428023 147.305752 
L 64.904522 212.711646 
L 65.381021 251.48166 
L 65.85752 273.081299 
L 66.334019 281.807738 
L 66.810518 287.910474 
L 67.763515 295.178075 
L 68.240014 296.919466 
L 68.716513 296.685749 
L 69.193012 297.41466 
L 69.669511 297.882534 
L 70.622508 300.182053 
L 71.099007 300.302999 
L 71.575506 298.120042 
L 72.052005 298.183482 
L 72.528504 301.427175 
L 73.005003 298.28788 
L 73.481502 300.736472 
L 73.958 301.059602 
L 74.434499 299.254674 
L 74.910998 295.88225 
L 75.387497 299.293189 
L 75.863996 296.550805 
L 76.340495 295.306473 
L 76.816993 296.610187 
L 77.769991 294.155022 
L 78.24649 290.979237 
L 78.722989 290.831456 
L 79.199488 289.893223 
L 79.675986 287.520622 
L 80.152485 291.927703 
L 80.628984 291.753233 
L 81.105483 285.781688 
L 81.581982 286.154373 
L 82.058481 283.315824 
L 82.53498 284.426565 
L 83.011478 282.011773 
L 83.487977 283.931707 
L 83.964476 280.107197 
L 84.440975 292.102795 
L 84.917474 292.386648 
L 85.393973 287.979346 
L 85.870471 293.235987 
L 86.34697 289.536145 
L 86.823469 292.724954 
L 87.299968 296.723545 
L 87.776467 297.496049 
L 88.729465 295.617549 
L 89.205963 297.308132 
L 89.682462 297.359182 
L 90.158961 299.057567 
L 90.63546 296.503069 
L 91.111959 295.780968 
L 91.588458 292.463298 
L 92.064956 299.353693 
L 92.541455 292.832078 
L 93.017954 294.561679 
L 93.494453 294.674335 
L 93.970952 293.266244 
L 94.447451 299.934236 
L 94.923949 293.960465 
L 95.400448 290.381102 
L 95.876947 300.358398 
L 96.353446 288.860211 
L 96.829945 292.80431 
L 97.306444 290.516509 
L 97.782943 287.045573 
L 98.73594 292.560743 
L 99.212439 287.531892 
L 99.688938 291.156125 
L 100.165437 292.852877 
L 100.641936 295.462066 
L 101.118434 288.274659 
L 101.594933 291.013176 
L 102.071432 287.35347 
L 102.547931 287.308279 
L 103.02443 288.964229 
L 103.500929 286.784861 
L 103.977428 287.877973 
L 104.453926 285.803567 
L 104.930425 285.027471 
L 105.406924 279.238915 
L 105.883423 276.93524 
L 106.359922 280.276867 
L 106.836421 277.971081 
L 107.312919 281.637829 
L 107.789418 277.949671 
L 108.742416 280.43564 
L 109.218915 279.707968 
L 109.695414 281.567156 
L 110.171912 280.218354 
L 110.648411 285.823879 
L 111.12491 284.642705 
L 111.601409 286.785256 
L 112.077908 286.70822 
L 112.554407 288.063648 
L 113.030906 286.819679 
L 113.507404 286.203397 
L 113.983903 284.97481 
L 114.460402 286.993116 
L 114.936901 285.088162 
L 115.4134 284.848039 
L 115.889899 285.810899 
L 116.366397 285.595702 
L 116.842896 284.380558 
L 117.319395 287.301955 
L 117.795894 284.914029 
L 118.272393 283.831424 
L 118.748892 284.039521 
L 119.701889 283.481844 
L 120.178388 284.320042 
L 120.654887 283.207835 
L 121.131386 279.812875 
L 121.607885 280.417818 
L 122.084384 277.991011 
L 122.560882 277.736484 
L 123.037381 273.392634 
L 123.51388 271.93293 
L 123.990379 269.189094 
L 124.466878 262.403768 
L 124.943377 251.211351 
L 125.419875 245.472065 
L 125.896374 234.785542 
L 126.849372 225.763611 
L 127.325871 223.975641 
L 127.80237 223.823001 
L 128.755367 242.087617 
L 129.231866 246.379195 
L 130.184864 262.295917 
L 131.61436 273.442752 
L 132.090859 275.311524 
L 132.567358 276.484145 
L 133.043857 278.019655 
L 133.520356 281.974009 
L 133.996855 284.804218 
L 134.473353 283.690508 
L 134.949852 284.260974 
L 135.426351 286.899291 
L 135.90285 288.001462 
L 136.855848 291.038088 
L 137.332347 291.621895 
L 137.808845 291.014028 
L 138.285344 296.009804 
L 138.761843 293.273851 
L 139.238342 294.6147 
L 139.714841 298.01795 
L 140.19134 295.04835 
L 140.667838 297.882493 
L 141.144337 298.764013 
L 141.620836 297.502002 
L 142.097335 298.256422 
L 142.573834 297.999266 
L 143.050333 299.300202 
L 143.526832 299.012871 
L 144.00333 301.111993 
L 144.479829 300.878232 
L 144.956328 299.070936 
L 145.432827 299.134452 
L 145.909326 300.654004 
L 146.862323 301.521991 
L 147.338822 301.139386 
L 147.815321 301.449875 
L 148.29182 302.410624 
L 148.768319 302.381644 
L 149.244818 301.063654 
L 149.721316 302.580137 
L 150.674314 301.041397 
L 151.150813 302.506135 
L 151.627312 301.343012 
L 152.103811 301.651654 
L 152.58031 298.265621 
L 153.056808 297.799974 
L 153.533307 293.956366 
L 154.009806 291.695233 
L 154.486305 284.702331 
L 155.439303 275.271732 
L 155.915801 273.1768 
L 156.3923 267.70961 
L 156.868799 273.502562 
L 157.345298 272.518523 
L 158.298296 279.621683 
L 158.774795 280.837158 
L 159.251293 282.555253 
L 159.727792 285.745105 
L 160.204291 286.703647 
L 160.68079 288.10656 
L 161.157289 288.151969 
L 161.633788 287.863423 
L 162.110286 289.6381 
L 162.586785 290.018485 
L 163.063284 290.856842 
L 163.539783 292.116629 
L 164.016282 293.019294 
L 164.492781 292.305911 
L 164.969279 293.594508 
L 165.445778 293.819531 
L 165.922277 294.189812 
L 166.398776 295.286909 
L 166.875275 294.653809 
L 167.351774 295.386061 
L 167.828273 295.70123 
L 168.78127 298.47367 
L 169.257769 295.954 
L 169.734268 298.571566 
L 170.210767 297.298521 
L 170.687266 298.096096 
L 171.163764 299.853844 
L 171.640263 299.556826 
L 172.116762 300.880381 
L 172.593261 300.897236 
L 173.06976 299.59423 
L 173.546259 299.215015 
L 174.022758 301.642826 
L 174.499256 300.782233 
L 174.975755 299.360292 
L 175.452254 301.092471 
L 175.928753 301.654794 
L 176.405252 301.810527 
L 176.881751 300.45754 
L 177.358249 301.248741 
L 178.787746 302.757172 
L 179.264245 302.502414 
L 179.740744 302.05 
L 180.217242 302.287186 
L 180.693741 302.751891 
L 181.17024 303.53211 
L 181.646739 303.288665 
L 182.599737 303.768527 
L 183.076236 305.018476 
L 183.552734 304.524463 
L 184.029233 304.784934 
L 184.505732 303.527243 
L 184.982231 305.272544 
L 185.45873 304.870817 
L 185.935229 305.49312 
L 186.411727 304.709277 
L 186.888226 304.467859 
L 187.364725 304.994765 
L 187.841224 304.98837 
L 188.317723 305.758375 
L 188.794222 304.474994 
L 189.270721 304.449772 
L 189.747219 304.956612 
L 190.223718 304.92242 
L 190.700217 305.174392 
L 191.176716 305.693496 
L 191.653215 305.176805 
L 192.129714 304.330849 
L 192.606212 305.389253 
L 193.082711 305.663937 
L 193.55921 306.461382 
L 194.035709 306.184918 
L 194.512208 305.220834 
L 194.988707 305.89206 
L 195.465205 306.969728 
L 195.941704 305.56879 
L 196.418203 306.395789 
L 196.894702 305.253774 
L 197.371201 306.804126 
L 197.8477 306.077574 
L 198.324199 306.359662 
L 198.800697 305.457903 
L 199.277196 306.774848 
L 199.753695 305.433716 
L 200.230194 306.904881 
L 200.706693 305.704528 
L 201.183192 307.20045 
L 201.65969 306.294429 
L 202.136189 306.889047 
L 202.612688 305.97229 
L 203.089187 305.93351 
L 203.565686 306.527758 
L 204.042185 305.894328 
L 204.518684 305.864391 
L 204.995182 306.170459 
L 205.471681 305.489121 
L 205.94818 306.290649 
L 206.424679 306.438766 
L 206.901178 305.910803 
L 207.377677 307.102517 
L 208.807173 305.621478 
L 209.283672 304.665682 
L 209.760171 306.679238 
L 210.23667 306.677111 
L 210.713168 304.985052 
L 211.189667 307.042019 
L 212.142665 306.258154 
L 212.619164 306.236274 
L 213.095663 307.005213 
L 213.572162 304.992269 
L 214.04866 307.8 
L 214.525159 305.730897 
L 215.001658 307.165058 
L 215.478157 306.937811 
L 215.954656 306.919922 
L 216.431155 305.56181 
L 216.907653 306.442146 
L 217.384152 306.889205 
L 217.860651 305.485993 
L 218.33715 304.750165 
L 218.813649 306.608239 
L 219.290148 305.382343 
L 219.766647 307.063291 
L 220.243145 305.790212 
L 220.719644 307.8 
L 221.196143 304.92859 
L 221.672642 305.153118 
L 222.149141 307.266008 
L 222.62564 307.528053 
L 223.102138 306.688073 
L 223.578637 305.254687 
L 224.055136 306.389756 
L 224.531635 305.215663 
L 225.008134 305.488464 
L 225.484633 306.625967 
L 225.961131 304.82629 
L 226.43763 305.381411 
L 227.390628 307.174337 
L 227.867127 305.227951 
L 228.343626 306.49257 
L 228.820125 305.811515 
L 229.296623 305.425489 
L 229.773122 306.420119 
L 230.249621 307.091781 
L 230.72612 305.652021 
L 231.202619 307.8 
L 231.679118 303.662272 
L 232.155616 307.030572 
L 232.632115 304.682413 
L 233.108614 307.010133 
L 233.585113 306.193503 
L 234.061612 306.989461 
L 234.538111 305.354902 
L 235.01461 306.128835 
L 235.491108 304.804168 
L 235.967607 307.365738 
L 236.444106 306.469763 
L 236.920605 306.895927 
L 237.397104 307.8 
L 237.873603 306.868545 
L 238.350101 306.861614 
L 238.8266 307.8 
L 239.303099 304.395469 
L 239.779598 307.8 
L 240.732596 306.767785 
L 241.209094 307.8 
L 241.685593 306.715866 
L 242.162092 307.8 
L 242.638591 307.8 
L 243.11509 307.222038 
L 243.591589 303.139568 
L 244.068088 305.453539 
L 244.544586 304.215536 
L 245.021085 306.58772 
L 245.497584 307.8 
L 245.974083 305.892756 
L 246.450582 307.147996 
L 246.927081 305.796043 
L 247.403579 306.444624 
L 248.356577 306.391142 
L 248.833076 307.8 
L 249.309575 306.337384 
L 249.786074 306.310388 
L 250.262572 307.8 
L 251.21557 307.8 
L 251.692069 304.552736 
L 252.168568 305.29049 
L 252.645067 304.41349 
L 253.121566 306.061881 
L 253.598064 306.040347 
L 254.074563 307.8 
L 255.027561 307.8 
L 255.50406 305.882318 
L 255.980559 305.855301 
L 256.457057 307.8 
L 256.933556 301.787369 
L 257.410055 307.8 
L 298.865455 307.8 
L 298.865455 307.8 
" clip-path="url(#p54b47fad6e)" style="fill: none; stroke: #1f77b4; stroke-width: 1.5; stroke-linecap: round"/>
   </g>
   <g id="patch_3">
    <path d="M 43.2 320.4 
L 43.2 43.2 
" style="fill: none; stroke: #ffffff; stroke-width: 1.25; stroke-linejoin: miter; stroke-linecap: square"/>
   </g>
   <g id="patch_4">
    <path d="M 311.04 320.4 
L 311.04 43.2 
" style="fill: none; stroke: #ffffff; stroke-width: 1.25; stroke-linejoin: miter; stroke-linecap: square"/>
   </g>
   <g id="patch_5">
    <path d="M 43.2 320.4 
L 311.04 320.4 
" style="fill: none; stroke: #ffffff; stroke-width: 1.25; stroke-linejoin: miter; stroke-linecap: square"/>
   </g>
   <g id="patch_6">
    <path d="M 43.2 43.2 
L 311.04 43.2 
" style="fill: none; stroke: #ffffff; stroke-width: 1.25; stroke-linejoin: miter; stroke-linecap: square"/>
   </g>
   <g id="legend_1">
    <g id="patch_7">
     <path d="M 246.743281 83.119687 
L 303.34 83.119687 
Q 305.54 83.119687 305.54 80.919687 
L 305.54 50.9 
Q 305.54 48.7 303.34 48.7 
L 246.743281 48.7 
Q 244.543281 48.7 244.543281 50.9 
L 244.543281 80.919687 
Q 244.543281 83.119687 246.743281 83.119687 
z
" style="fill: #eaeaf2; opacity: 0.8; stroke: #cccccc; stroke-linejoin: miter"/>
    </g>
    <g id="line2d_15">
     <path d="M 248.943281 57.123594 
L 259.943281 57.123594 
L 270.943281 57.123594 
" style="fill: none; stroke: #ff7f0e; stroke-width: 1.5; stroke-linecap: round"/>
    </g>
    <g id="text_15">
     <!-- raw -->
     <g style="fill: #262626" transform="translate(279.743281 60.973594) scale(0.11 -0.11)">
      <defs>
       <path id="ArialMT-77" d="M 1034 0 
L 19 3319 
L 600 3319 
L 1128 1403 
L 1325 691 
Q 1338 744 1497 1375 
L 2025 3319 
L 2603 3319 
L 3100 1394 
L 3266 759 
L 3456 1400 
L 4025 3319 
L 4572 3319 
L 3534 0 
L 2950 0 
L 2422 1988 
L 2294 2553 
L 1622 0 
L 1034 0 
z
" transform="scale(0.015625)"/>
      </defs>
      <use xlink:href="#ArialMT-72"/>
      <use xlink:href="#ArialMT-61" x="33.300781"/>
      <use xlink:href="#ArialMT-77" x="88.916016"/>
     </g>
    </g>
    <g id="line2d_16">
     <path d="M 248.943281 72.683437 
L 259.943281 72.683437 
L 270.943281 72.683437 
" style="fill: none; stroke: #1f77b4; stroke-width: 1.5; stroke-linecap: round"/>
    </g>
    <g id="text_16">
     <!-- dark -->
     <g style="fill: #262626" transform="translate(279.743281 76.533437) scale(0.11 -0.11)">
      <defs>
       <path id="ArialMT-64" d="M 2575 0 
L 2575 419 
Q 2259 -75 1647 -75 
Q 1250 -75 917 144 
Q 584 363 401 755 
Q 219 1147 219 1656 
Q 219 2153 384 2558 
Q 550 2963 881 3178 
Q 1213 3394 1622 3394 
Q 1922 3394 2156 3267 
Q 2391 3141 2538 2938 
L 2538 4581 
L 3097 4581 
L 3097 0 
L 2575 0 
z
M 797 1656 
Q 797 1019 1065 703 
Q 1334 388 1700 388 
Q 2069 388 2326 689 
Q 2584 991 2584 1609 
Q 2584 2291 2321 2609 
Q 2059 2928 1675 2928 
Q 1300 2928 1048 2622 
Q 797 2316 797 1656 
z
" transform="scale(0.015625)"/>
       <path id="ArialMT-6b" d="M 425 0 
L 425 4581 
L 988 4581 
L 988 1969 
L 2319 3319 
L 3047 3319 
L 1778 2088 
L 3175 0 
L 2481 0 
L 1384 1697 
L 988 1316 
L 988 0 
L 425 0 
z
" transform="scale(0.015625)"/>
      </defs>
      <use xlink:href="#ArialMT-64"/>
      <use xlink:href="#ArialMT-61" x="55.615234"/>
      <use xlink:href="#ArialMT-72" x="111.230469"/>
      <use xlink:href="#ArialMT-6b" x="144.53125"/>
     </g>
    </g>
   </g>
  </g>
 </g>
 <defs>
  <clipPath id="p54b47fad6e">
   <rect x="43.2" y="43.2" width="267.84" height="277.2"/>
  </clipPath>
 </defs>
</svg>
