<?xml version="1.0" encoding="utf-8" standalone="no"?>
<!DOCTYPE svg PUBLIC "-//W3C//DTD SVG 1.1//EN"
  "http://www.w3.org/Graphics/SVG/1.1/DTD/svg11.dtd">
<svg xmlns:xlink="http://www.w3.org/1999/xlink" width="460.8pt" height="345.6pt" viewBox="0 0 460.8 345.6" xmlns="http://www.w3.org/2000/svg" version="1.1">
 <metadata>
  <rdf:RDF xmlns:dc="http://purl.org/dc/elements/1.1/" xmlns:cc="http://creativecommons.org/ns#" xmlns:rdf="http://www.w3.org/1999/02/22-rdf-syntax-ns#">
   <cc:Work>
    <dc:type rdf:resource="http://purl.org/dc/dcmitype/StillImage"/>
    <dc:date>2024-09-11T16:24:11.476973</dc:date>
    <dc:format>image/svg+xml</dc:format>
    <dc:creator>
     <cc:Agent>
      <dc:title>Matplotlib v3.9.1, https://matplotlib.org/</dc:title>
     </cc:Agent>
    </dc:creator>
   </cc:Work>
  </rdf:RDF>
 </metadata>
 <defs>
  <style type="text/css">*{stroke-linejoin: round; stroke-linecap: butt}</style>
 </defs>
 <g id="figure_1">
  <g id="patch_1">
   <path d="M 0 345.6 
L 460.8 345.6 
L 460.8 0 
L 0 0 
z
" style="fill: #ffffff"/>
  </g>
  <g id="axes_1">
   <g id="patch_2">
    <path d="M 57.6 307.584 
L 414.72 307.584 
L 414.72 41.472 
L 57.6 41.472 
z
" style="fill: #eaeaf2"/>
   </g>
   <g id="matplotlib.axis_1">
    <g id="xtick_1">
     <g id="line2d_1">
      <path d="M 57.6 307.584 
L 57.6 41.472 
" clip-path="url(#p0d7911a33a)" style="fill: none; stroke: #ffffff; stroke-linecap: round"/>
     </g>
     <g id="text_1">
      <!-- 0.0 -->
      <g style="fill: #262626" transform="translate(49.955 324.957594) scale(0.11 -0.11)">
       <defs>
        <path id="ArialMT-30" d="M 266 2259 
Q 266 3072 433 3567 
Q 600 4063 929 4331 
Q 1259 4600 1759 4600 
Q 2128 4600 2406 4451 
Q 2684 4303 2865 4023 
Q 3047 3744 3150 3342 
Q 3253 2941 3253 2259 
Q 3253 1453 3087 958 
Q 2922 463 2592 192 
Q 2263 -78 1759 -78 
Q 1097 -78 719 397 
Q 266 969 266 2259 
z
M 844 2259 
Q 844 1131 1108 757 
Q 1372 384 1759 384 
Q 2147 384 2411 759 
Q 2675 1134 2675 2259 
Q 2675 3391 2411 3762 
Q 2147 4134 1753 4134 
Q 1366 4134 1134 3806 
Q 844 3388 844 2259 
z
" transform="scale(0.015625)"/>
        <path id="ArialMT-2e" d="M 581 0 
L 581 641 
L 1222 641 
L 1222 0 
L 581 0 
z
" transform="scale(0.015625)"/>
       </defs>
       <use xlink:href="#ArialMT-30"/>
       <use xlink:href="#ArialMT-2e" x="55.615234"/>
       <use xlink:href="#ArialMT-30" x="83.398438"/>
      </g>
     </g>
    </g>
    <g id="xtick_2">
     <g id="line2d_2">
      <path d="M 124.981132 307.584 
L 124.981132 41.472 
" clip-path="url(#p0d7911a33a)" style="fill: none; stroke: #ffffff; stroke-linecap: round"/>
     </g>
     <g id="text_2">
      <!-- 0.5 -->
      <g style="fill: #262626" transform="translate(117.336132 324.957594) scale(0.11 -0.11)">
       <defs>
        <path id="ArialMT-35" d="M 266 1200 
L 856 1250 
Q 922 819 1161 601 
Q 1400 384 1738 384 
Q 2144 384 2425 690 
Q 2706 997 2706 1503 
Q 2706 1984 2436 2262 
Q 2166 2541 1728 2541 
Q 1456 2541 1237 2417 
Q 1019 2294 894 2097 
L 366 2166 
L 809 4519 
L 3088 4519 
L 3088 3981 
L 1259 3981 
L 1013 2750 
Q 1425 3038 1878 3038 
Q 2478 3038 2890 2622 
Q 3303 2206 3303 1553 
Q 3303 931 2941 478 
Q 2500 -78 1738 -78 
Q 1113 -78 717 272 
Q 322 622 266 1200 
z
" transform="scale(0.015625)"/>
       </defs>
       <use xlink:href="#ArialMT-30"/>
       <use xlink:href="#ArialMT-2e" x="55.615234"/>
       <use xlink:href="#ArialMT-35" x="83.398438"/>
      </g>
     </g>
    </g>
    <g id="xtick_3">
     <g id="line2d_3">
      <path d="M 192.362264 307.584 
L 192.362264 41.472 
" clip-path="url(#p0d7911a33a)" style="fill: none; stroke: #ffffff; stroke-linecap: round"/>
     </g>
     <g id="text_3">
      <!-- 1.0 -->
      <g style="fill: #262626" transform="translate(184.717264 324.957594) scale(0.11 -0.11)">
       <defs>
        <path id="ArialMT-31" d="M 2384 0 
L 1822 0 
L 1822 3584 
Q 1619 3391 1289 3197 
Q 959 3003 697 2906 
L 697 3450 
Q 1169 3672 1522 3987 
Q 1875 4303 2022 4600 
L 2384 4600 
L 2384 0 
z
" transform="scale(0.015625)"/>
       </defs>
       <use xlink:href="#ArialMT-31"/>
       <use xlink:href="#ArialMT-2e" x="55.615234"/>
       <use xlink:href="#ArialMT-30" x="83.398438"/>
      </g>
     </g>
    </g>
    <g id="xtick_4">
     <g id="line2d_4">
      <path d="M 259.743396 307.584 
L 259.743396 41.472 
" clip-path="url(#p0d7911a33a)" style="fill: none; stroke: #ffffff; stroke-linecap: round"/>
     </g>
     <g id="text_4">
      <!-- 1.5 -->
      <g style="fill: #262626" transform="translate(252.098396 324.957594) scale(0.11 -0.11)">
       <use xlink:href="#ArialMT-31"/>
       <use xlink:href="#ArialMT-2e" x="55.615234"/>
       <use xlink:href="#ArialMT-35" x="83.398438"/>
      </g>
     </g>
    </g>
    <g id="xtick_5">
     <g id="line2d_5">
      <path d="M 327.124528 307.584 
L 327.124528 41.472 
" clip-path="url(#p0d7911a33a)" style="fill: none; stroke: #ffffff; stroke-linecap: round"/>
     </g>
     <g id="text_5">
      <!-- 2.0 -->
      <g style="fill: #262626" transform="translate(319.479528 324.957594) scale(0.11 -0.11)">
       <defs>
        <path id="ArialMT-32" d="M 3222 541 
L 3222 0 
L 194 0 
Q 188 203 259 391 
Q 375 700 629 1000 
Q 884 1300 1366 1694 
Q 2113 2306 2375 2664 
Q 2638 3022 2638 3341 
Q 2638 3675 2398 3904 
Q 2159 4134 1775 4134 
Q 1369 4134 1125 3890 
Q 881 3647 878 3216 
L 300 3275 
Q 359 3922 746 4261 
Q 1134 4600 1788 4600 
Q 2447 4600 2831 4234 
Q 3216 3869 3216 3328 
Q 3216 3053 3103 2787 
Q 2991 2522 2730 2228 
Q 2469 1934 1863 1422 
Q 1356 997 1212 845 
Q 1069 694 975 541 
L 3222 541 
z
" transform="scale(0.015625)"/>
       </defs>
       <use xlink:href="#ArialMT-32"/>
       <use xlink:href="#ArialMT-2e" x="55.615234"/>
       <use xlink:href="#ArialMT-30" x="83.398438"/>
      </g>
     </g>
    </g>
    <g id="xtick_6">
     <g id="line2d_6">
      <path d="M 394.50566 307.584 
L 394.50566 41.472 
" clip-path="url(#p0d7911a33a)" style="fill: none; stroke: #ffffff; stroke-linecap: round"/>
     </g>
     <g id="text_6">
      <!-- 2.5 -->
      <g style="fill: #262626" transform="translate(386.86066 324.957594) scale(0.11 -0.11)">
       <use xlink:href="#ArialMT-32"/>
       <use xlink:href="#ArialMT-2e" x="55.615234"/>
       <use xlink:href="#ArialMT-35" x="83.398438"/>
      </g>
     </g>
    </g>
    <g id="text_7">
     <!-- Wavelength Range (mm) -->
     <g style="fill: #262626" transform="translate(169.697812 339.879469) scale(0.12 -0.12)">
      <defs>
       <path id="ArialMT-57" d="M 1294 0 
L 78 4581 
L 700 4581 
L 1397 1578 
Q 1509 1106 1591 641 
Q 1766 1375 1797 1488 
L 2669 4581 
L 3400 4581 
L 4056 2263 
Q 4303 1400 4413 641 
Q 4500 1075 4641 1638 
L 5359 4581 
L 5969 4581 
L 4713 0 
L 4128 0 
L 3163 3491 
Q 3041 3928 3019 4028 
Q 2947 3713 2884 3491 
L 1913 0 
L 1294 0 
z
" transform="scale(0.015625)"/>
       <path id="ArialMT-61" d="M 2588 409 
Q 2275 144 1986 34 
Q 1697 -75 1366 -75 
Q 819 -75 525 192 
Q 231 459 231 875 
Q 231 1119 342 1320 
Q 453 1522 633 1644 
Q 813 1766 1038 1828 
Q 1203 1872 1538 1913 
Q 2219 1994 2541 2106 
Q 2544 2222 2544 2253 
Q 2544 2597 2384 2738 
Q 2169 2928 1744 2928 
Q 1347 2928 1158 2789 
Q 969 2650 878 2297 
L 328 2372 
Q 403 2725 575 2942 
Q 747 3159 1072 3276 
Q 1397 3394 1825 3394 
Q 2250 3394 2515 3294 
Q 2781 3194 2906 3042 
Q 3031 2891 3081 2659 
Q 3109 2516 3109 2141 
L 3109 1391 
Q 3109 606 3145 398 
Q 3181 191 3288 0 
L 2700 0 
Q 2613 175 2588 409 
z
M 2541 1666 
Q 2234 1541 1622 1453 
Q 1275 1403 1131 1340 
Q 988 1278 909 1158 
Q 831 1038 831 891 
Q 831 666 1001 516 
Q 1172 366 1500 366 
Q 1825 366 2078 508 
Q 2331 650 2450 897 
Q 2541 1088 2541 1459 
L 2541 1666 
z
" transform="scale(0.015625)"/>
       <path id="ArialMT-76" d="M 1344 0 
L 81 3319 
L 675 3319 
L 1388 1331 
Q 1503 1009 1600 663 
Q 1675 925 1809 1294 
L 2547 3319 
L 3125 3319 
L 1869 0 
L 1344 0 
z
" transform="scale(0.015625)"/>
       <path id="ArialMT-65" d="M 2694 1069 
L 3275 997 
Q 3138 488 2766 206 
Q 2394 -75 1816 -75 
Q 1088 -75 661 373 
Q 234 822 234 1631 
Q 234 2469 665 2931 
Q 1097 3394 1784 3394 
Q 2450 3394 2872 2941 
Q 3294 2488 3294 1666 
Q 3294 1616 3291 1516 
L 816 1516 
Q 847 969 1125 678 
Q 1403 388 1819 388 
Q 2128 388 2347 550 
Q 2566 713 2694 1069 
z
M 847 1978 
L 2700 1978 
Q 2663 2397 2488 2606 
Q 2219 2931 1791 2931 
Q 1403 2931 1139 2672 
Q 875 2413 847 1978 
z
" transform="scale(0.015625)"/>
       <path id="ArialMT-6c" d="M 409 0 
L 409 4581 
L 972 4581 
L 972 0 
L 409 0 
z
" transform="scale(0.015625)"/>
       <path id="ArialMT-6e" d="M 422 0 
L 422 3319 
L 928 3319 
L 928 2847 
Q 1294 3394 1984 3394 
Q 2284 3394 2536 3286 
Q 2788 3178 2913 3003 
Q 3038 2828 3088 2588 
Q 3119 2431 3119 2041 
L 3119 0 
L 2556 0 
L 2556 2019 
Q 2556 2363 2490 2533 
Q 2425 2703 2258 2804 
Q 2091 2906 1866 2906 
Q 1506 2906 1245 2678 
Q 984 2450 984 1813 
L 984 0 
L 422 0 
z
" transform="scale(0.015625)"/>
       <path id="ArialMT-67" d="M 319 -275 
L 866 -356 
Q 900 -609 1056 -725 
Q 1266 -881 1628 -881 
Q 2019 -881 2231 -725 
Q 2444 -569 2519 -288 
Q 2563 -116 2559 434 
Q 2191 0 1641 0 
Q 956 0 581 494 
Q 206 988 206 1678 
Q 206 2153 378 2554 
Q 550 2956 876 3175 
Q 1203 3394 1644 3394 
Q 2231 3394 2613 2919 
L 2613 3319 
L 3131 3319 
L 3131 450 
Q 3131 -325 2973 -648 
Q 2816 -972 2473 -1159 
Q 2131 -1347 1631 -1347 
Q 1038 -1347 672 -1080 
Q 306 -813 319 -275 
z
M 784 1719 
Q 784 1066 1043 766 
Q 1303 466 1694 466 
Q 2081 466 2343 764 
Q 2606 1063 2606 1700 
Q 2606 2309 2336 2618 
Q 2066 2928 1684 2928 
Q 1309 2928 1046 2623 
Q 784 2319 784 1719 
z
" transform="scale(0.015625)"/>
       <path id="ArialMT-74" d="M 1650 503 
L 1731 6 
Q 1494 -44 1306 -44 
Q 1000 -44 831 53 
Q 663 150 594 308 
Q 525 466 525 972 
L 525 2881 
L 113 2881 
L 113 3319 
L 525 3319 
L 525 4141 
L 1084 4478 
L 1084 3319 
L 1650 3319 
L 1650 2881 
L 1084 2881 
L 1084 941 
Q 1084 700 1114 631 
Q 1144 563 1211 522 
Q 1278 481 1403 481 
Q 1497 481 1650 503 
z
" transform="scale(0.015625)"/>
       <path id="ArialMT-68" d="M 422 0 
L 422 4581 
L 984 4581 
L 984 2938 
Q 1378 3394 1978 3394 
Q 2347 3394 2619 3248 
Q 2891 3103 3008 2847 
Q 3125 2591 3125 2103 
L 3125 0 
L 2563 0 
L 2563 2103 
Q 2563 2525 2380 2717 
Q 2197 2909 1863 2909 
Q 1613 2909 1392 2779 
Q 1172 2650 1078 2428 
Q 984 2206 984 1816 
L 984 0 
L 422 0 
z
" transform="scale(0.015625)"/>
       <path id="ArialMT-20" transform="scale(0.015625)"/>
       <path id="ArialMT-52" d="M 503 0 
L 503 4581 
L 2534 4581 
Q 3147 4581 3465 4457 
Q 3784 4334 3975 4021 
Q 4166 3709 4166 3331 
Q 4166 2844 3850 2509 
Q 3534 2175 2875 2084 
Q 3116 1969 3241 1856 
Q 3506 1613 3744 1247 
L 4541 0 
L 3778 0 
L 3172 953 
Q 2906 1366 2734 1584 
Q 2563 1803 2427 1890 
Q 2291 1978 2150 2013 
Q 2047 2034 1813 2034 
L 1109 2034 
L 1109 0 
L 503 0 
z
M 1109 2559 
L 2413 2559 
Q 2828 2559 3062 2645 
Q 3297 2731 3419 2920 
Q 3541 3109 3541 3331 
Q 3541 3656 3305 3865 
Q 3069 4075 2559 4075 
L 1109 4075 
L 1109 2559 
z
" transform="scale(0.015625)"/>
       <path id="ArialMT-28" d="M 1497 -1347 
Q 1031 -759 709 28 
Q 388 816 388 1659 
Q 388 2403 628 3084 
Q 909 3875 1497 4659 
L 1900 4659 
Q 1522 4009 1400 3731 
Q 1209 3300 1100 2831 
Q 966 2247 966 1656 
Q 966 153 1900 -1347 
L 1497 -1347 
z
" transform="scale(0.015625)"/>
       <path id="ArialMT-6d" d="M 422 0 
L 422 3319 
L 925 3319 
L 925 2853 
Q 1081 3097 1340 3245 
Q 1600 3394 1931 3394 
Q 2300 3394 2536 3241 
Q 2772 3088 2869 2813 
Q 3263 3394 3894 3394 
Q 4388 3394 4653 3120 
Q 4919 2847 4919 2278 
L 4919 0 
L 4359 0 
L 4359 2091 
Q 4359 2428 4304 2576 
Q 4250 2725 4106 2815 
Q 3963 2906 3769 2906 
Q 3419 2906 3187 2673 
Q 2956 2441 2956 1928 
L 2956 0 
L 2394 0 
L 2394 2156 
Q 2394 2531 2256 2718 
Q 2119 2906 1806 2906 
Q 1569 2906 1367 2781 
Q 1166 2656 1075 2415 
Q 984 2175 984 1722 
L 984 0 
L 422 0 
z
" transform="scale(0.015625)"/>
       <path id="ArialMT-29" d="M 791 -1347 
L 388 -1347 
Q 1322 153 1322 1656 
Q 1322 2244 1188 2822 
Q 1081 3291 891 3722 
Q 769 4003 388 4659 
L 791 4659 
Q 1378 3875 1659 3084 
Q 1900 2403 1900 1659 
Q 1900 816 1576 28 
Q 1253 -759 791 -1347 
z
" transform="scale(0.015625)"/>
      </defs>
      <use xlink:href="#ArialMT-57"/>
      <use xlink:href="#ArialMT-61" x="90.634766"/>
      <use xlink:href="#ArialMT-76" x="146.25"/>
      <use xlink:href="#ArialMT-65" x="196.25"/>
      <use xlink:href="#ArialMT-6c" x="251.865234"/>
      <use xlink:href="#ArialMT-65" x="274.082031"/>
      <use xlink:href="#ArialMT-6e" x="329.697266"/>
      <use xlink:href="#ArialMT-67" x="385.3125"/>
      <use xlink:href="#ArialMT-74" x="440.927734"/>
      <use xlink:href="#ArialMT-68" x="468.710938"/>
      <use xlink:href="#ArialMT-20" x="524.326172"/>
      <use xlink:href="#ArialMT-52" x="552.109375"/>
      <use xlink:href="#ArialMT-61" x="624.326172"/>
      <use xlink:href="#ArialMT-6e" x="679.941406"/>
      <use xlink:href="#ArialMT-67" x="735.556641"/>
      <use xlink:href="#ArialMT-65" x="791.171875"/>
      <use xlink:href="#ArialMT-20" x="846.787109"/>
      <use xlink:href="#ArialMT-28" x="874.570312"/>
      <use xlink:href="#ArialMT-6d" x="907.871094"/>
      <use xlink:href="#ArialMT-6d" x="991.171875"/>
      <use xlink:href="#ArialMT-29" x="1074.472656"/>
     </g>
    </g>
   </g>
   <g id="matplotlib.axis_2">
    <g id="ytick_1">
     <g id="line2d_7">
      <path d="M 57.6 307.584 
L 414.72 307.584 
" clip-path="url(#p0d7911a33a)" style="fill: none; stroke: #ffffff; stroke-linecap: round"/>
     </g>
     <g id="text_8">
      <!-- 0 -->
      <g style="fill: #262626" transform="translate(41.982969 311.520797) scale(0.11 -0.11)">
       <use xlink:href="#ArialMT-30"/>
      </g>
     </g>
    </g>
    <g id="ytick_2">
     <g id="line2d_8">
      <path d="M 57.6 254.3616 
L 414.72 254.3616 
" clip-path="url(#p0d7911a33a)" style="fill: none; stroke: #ffffff; stroke-linecap: round"/>
     </g>
     <g id="text_9">
      <!-- 20 -->
      <g style="fill: #262626" transform="translate(35.865938 258.298397) scale(0.11 -0.11)">
       <use xlink:href="#ArialMT-32"/>
       <use xlink:href="#ArialMT-30" x="55.615234"/>
      </g>
     </g>
    </g>
    <g id="ytick_3">
     <g id="line2d_9">
      <path d="M 57.6 201.1392 
L 414.72 201.1392 
" clip-path="url(#p0d7911a33a)" style="fill: none; stroke: #ffffff; stroke-linecap: round"/>
     </g>
     <g id="text_10">
      <!-- 40 -->
      <g style="fill: #262626" transform="translate(35.865938 205.075997) scale(0.11 -0.11)">
       <defs>
        <path id="ArialMT-34" d="M 2069 0 
L 2069 1097 
L 81 1097 
L 81 1613 
L 2172 4581 
L 2631 4581 
L 2631 1613 
L 3250 1613 
L 3250 1097 
L 2631 1097 
L 2631 0 
L 2069 0 
z
M 2069 1613 
L 2069 3678 
L 634 1613 
L 2069 1613 
z
" transform="scale(0.015625)"/>
       </defs>
       <use xlink:href="#ArialMT-34"/>
       <use xlink:href="#ArialMT-30" x="55.615234"/>
      </g>
     </g>
    </g>
    <g id="ytick_4">
     <g id="line2d_10">
      <path d="M 57.6 147.9168 
L 414.72 147.9168 
" clip-path="url(#p0d7911a33a)" style="fill: none; stroke: #ffffff; stroke-linecap: round"/>
     </g>
     <g id="text_11">
      <!-- 60 -->
      <g style="fill: #262626" transform="translate(35.865938 151.853597) scale(0.11 -0.11)">
       <defs>
        <path id="ArialMT-36" d="M 3184 3459 
L 2625 3416 
Q 2550 3747 2413 3897 
Q 2184 4138 1850 4138 
Q 1581 4138 1378 3988 
Q 1113 3794 959 3422 
Q 806 3050 800 2363 
Q 1003 2672 1297 2822 
Q 1591 2972 1913 2972 
Q 2475 2972 2870 2558 
Q 3266 2144 3266 1488 
Q 3266 1056 3080 686 
Q 2894 316 2569 119 
Q 2244 -78 1831 -78 
Q 1128 -78 684 439 
Q 241 956 241 2144 
Q 241 3472 731 4075 
Q 1159 4600 1884 4600 
Q 2425 4600 2770 4297 
Q 3116 3994 3184 3459 
z
M 888 1484 
Q 888 1194 1011 928 
Q 1134 663 1356 523 
Q 1578 384 1822 384 
Q 2178 384 2434 671 
Q 2691 959 2691 1453 
Q 2691 1928 2437 2201 
Q 2184 2475 1800 2475 
Q 1419 2475 1153 2201 
Q 888 1928 888 1484 
z
" transform="scale(0.015625)"/>
       </defs>
       <use xlink:href="#ArialMT-36"/>
       <use xlink:href="#ArialMT-30" x="55.615234"/>
      </g>
     </g>
    </g>
    <g id="ytick_5">
     <g id="line2d_11">
      <path d="M 57.6 94.6944 
L 414.72 94.6944 
" clip-path="url(#p0d7911a33a)" style="fill: none; stroke: #ffffff; stroke-linecap: round"/>
     </g>
     <g id="text_12">
      <!-- 80 -->
      <g style="fill: #262626" transform="translate(35.865938 98.631197) scale(0.11 -0.11)">
       <defs>
        <path id="ArialMT-38" d="M 1131 2484 
Q 781 2613 612 2850 
Q 444 3088 444 3419 
Q 444 3919 803 4259 
Q 1163 4600 1759 4600 
Q 2359 4600 2725 4251 
Q 3091 3903 3091 3403 
Q 3091 3084 2923 2848 
Q 2756 2613 2416 2484 
Q 2838 2347 3058 2040 
Q 3278 1734 3278 1309 
Q 3278 722 2862 322 
Q 2447 -78 1769 -78 
Q 1091 -78 675 323 
Q 259 725 259 1325 
Q 259 1772 486 2073 
Q 713 2375 1131 2484 
z
M 1019 3438 
Q 1019 3113 1228 2906 
Q 1438 2700 1772 2700 
Q 2097 2700 2305 2904 
Q 2513 3109 2513 3406 
Q 2513 3716 2298 3927 
Q 2084 4138 1766 4138 
Q 1444 4138 1231 3931 
Q 1019 3725 1019 3438 
z
M 838 1322 
Q 838 1081 952 856 
Q 1066 631 1291 507 
Q 1516 384 1775 384 
Q 2178 384 2440 643 
Q 2703 903 2703 1303 
Q 2703 1709 2433 1975 
Q 2163 2241 1756 2241 
Q 1359 2241 1098 1978 
Q 838 1716 838 1322 
z
" transform="scale(0.015625)"/>
       </defs>
       <use xlink:href="#ArialMT-38"/>
       <use xlink:href="#ArialMT-30" x="55.615234"/>
      </g>
     </g>
    </g>
    <g id="ytick_6">
     <g id="line2d_12">
      <path d="M 57.6 41.472 
L 414.72 41.472 
" clip-path="url(#p0d7911a33a)" style="fill: none; stroke: #ffffff; stroke-linecap: round"/>
     </g>
     <g id="text_13">
      <!-- 100 -->
      <g style="fill: #262626" transform="translate(29.748906 45.408797) scale(0.11 -0.11)">
       <use xlink:href="#ArialMT-31"/>
       <use xlink:href="#ArialMT-30" x="55.615234"/>
       <use xlink:href="#ArialMT-30" x="111.230469"/>
      </g>
     </g>
    </g>
    <g id="text_14">
     <!-- Intensity (%) -->
     <g style="fill: #262626" transform="translate(23.223281 207.86925) rotate(-90) scale(0.12 -0.12)">
      <defs>
       <path id="ArialMT-49" d="M 597 0 
L 597 4581 
L 1203 4581 
L 1203 0 
L 597 0 
z
" transform="scale(0.015625)"/>
       <path id="ArialMT-73" d="M 197 991 
L 753 1078 
Q 800 744 1014 566 
Q 1228 388 1613 388 
Q 2000 388 2187 545 
Q 2375 703 2375 916 
Q 2375 1106 2209 1216 
Q 2094 1291 1634 1406 
Q 1016 1563 777 1677 
Q 538 1791 414 1992 
Q 291 2194 291 2438 
Q 291 2659 392 2848 
Q 494 3038 669 3163 
Q 800 3259 1026 3326 
Q 1253 3394 1513 3394 
Q 1903 3394 2198 3281 
Q 2494 3169 2634 2976 
Q 2775 2784 2828 2463 
L 2278 2388 
Q 2241 2644 2061 2787 
Q 1881 2931 1553 2931 
Q 1166 2931 1000 2803 
Q 834 2675 834 2503 
Q 834 2394 903 2306 
Q 972 2216 1119 2156 
Q 1203 2125 1616 2013 
Q 2213 1853 2448 1751 
Q 2684 1650 2818 1456 
Q 2953 1263 2953 975 
Q 2953 694 2789 445 
Q 2625 197 2315 61 
Q 2006 -75 1616 -75 
Q 969 -75 630 194 
Q 291 463 197 991 
z
" transform="scale(0.015625)"/>
       <path id="ArialMT-69" d="M 425 3934 
L 425 4581 
L 988 4581 
L 988 3934 
L 425 3934 
z
M 425 0 
L 425 3319 
L 988 3319 
L 988 0 
L 425 0 
z
" transform="scale(0.015625)"/>
       <path id="ArialMT-79" d="M 397 -1278 
L 334 -750 
Q 519 -800 656 -800 
Q 844 -800 956 -737 
Q 1069 -675 1141 -563 
Q 1194 -478 1313 -144 
Q 1328 -97 1363 -6 
L 103 3319 
L 709 3319 
L 1400 1397 
Q 1534 1031 1641 628 
Q 1738 1016 1872 1384 
L 2581 3319 
L 3144 3319 
L 1881 -56 
Q 1678 -603 1566 -809 
Q 1416 -1088 1222 -1217 
Q 1028 -1347 759 -1347 
Q 597 -1347 397 -1278 
z
" transform="scale(0.015625)"/>
       <path id="ArialMT-25" d="M 372 3481 
Q 372 3972 619 4315 
Q 866 4659 1334 4659 
Q 1766 4659 2048 4351 
Q 2331 4044 2331 3447 
Q 2331 2866 2045 2552 
Q 1759 2238 1341 2238 
Q 925 2238 648 2547 
Q 372 2856 372 3481 
z
M 1350 4272 
Q 1141 4272 1002 4090 
Q 863 3909 863 3425 
Q 863 2984 1003 2804 
Q 1144 2625 1350 2625 
Q 1563 2625 1702 2806 
Q 1841 2988 1841 3469 
Q 1841 3913 1700 4092 
Q 1559 4272 1350 4272 
z
M 1353 -169 
L 3859 4659 
L 4316 4659 
L 1819 -169 
L 1353 -169 
z
M 3334 1075 
Q 3334 1569 3581 1911 
Q 3828 2253 4300 2253 
Q 4731 2253 5014 1945 
Q 5297 1638 5297 1041 
Q 5297 459 5011 145 
Q 4725 -169 4303 -169 
Q 3888 -169 3611 142 
Q 3334 453 3334 1075 
z
M 4316 1866 
Q 4103 1866 3964 1684 
Q 3825 1503 3825 1019 
Q 3825 581 3965 400 
Q 4106 219 4313 219 
Q 4528 219 4667 400 
Q 4806 581 4806 1063 
Q 4806 1506 4665 1686 
Q 4525 1866 4316 1866 
z
" transform="scale(0.015625)"/>
      </defs>
      <use xlink:href="#ArialMT-49"/>
      <use xlink:href="#ArialMT-6e" x="27.783203"/>
      <use xlink:href="#ArialMT-74" x="83.398438"/>
      <use xlink:href="#ArialMT-65" x="111.181641"/>
      <use xlink:href="#ArialMT-6e" x="166.796875"/>
      <use xlink:href="#ArialMT-73" x="222.412109"/>
      <use xlink:href="#ArialMT-69" x="272.412109"/>
      <use xlink:href="#ArialMT-74" x="294.628906"/>
      <use xlink:href="#ArialMT-79" x="322.412109"/>
      <use xlink:href="#ArialMT-20" x="372.412109"/>
      <use xlink:href="#ArialMT-28" x="400.195312"/>
      <use xlink:href="#ArialMT-25" x="433.496094"/>
      <use xlink:href="#ArialMT-29" x="522.412109"/>
     </g>
    </g>
   </g>
   <g id="line2d_13">
    <path d="M 59.073237 292.024895 
L 60.541414 293.20997 
L 64.915705 296.105381 
L 70.677977 298.89344 
L 73.529275 300.034215 
L 77.769191 301.366104 
L 80.571253 302.023263 
L 84.737759 302.817967 
L 87.491175 303.144675 
L 92.940227 303.432752 
L 95.63605 303.385443 
L 99.644174 303.071896 
L 104.922361 302.263888 
L 108.831933 301.417145 
L 116.52628 299.352129 
L 121.564429 298.133253 
L 124.056363 297.636873 
L 126.53033 296.994648 
L 127.760604 296.790828 
L 130.207796 295.804035 
L 133.845368 294.218804 
L 135.049082 293.761885 
L 136.24841 293.136512 
L 142.179683 290.705555 
L 145.686577 289.754442 
L 146.846969 289.44506 
L 148.003092 289.303967 
L 149.154961 289.047851 
L 152.585153 289.061154 
L 153.720118 288.97227 
L 154.850887 289.084007 
L 157.099884 289.444976 
L 158.218135 289.602692 
L 159.332238 289.881139 
L 161.548043 290.119515 
L 162.64977 290.394637 
L 164.84093 291.215705 
L 167.015779 291.741604 
L 169.17441 292.38197 
L 171.316919 293.331091 
L 175.553947 294.929329 
L 177.648656 295.644828 
L 180.761229 296.701866 
L 181.790936 296.943819 
L 184.856773 297.944926 
L 186.881379 298.436765 
L 188.890666 298.938228 
L 190.88473 299.442633 
L 195.803906 300.290705 
L 202.534713 301.312859 
L 205.364504 301.658091 
L 212.752865 302.345091 
L 218.146375 302.644928 
L 223.416072 302.899505 
L 226.005288 303.020691 
L 230.254151 303.283919 
L 232.764091 303.344763 
L 246.44597 303.787791 
L 251.062315 303.993489 
L 284.994021 304.721284 
L 288.11083 304.722176 
L 294.765078 304.865763 
L 301.153446 304.858478 
L 308.382074 304.921805 
L 313.195513 304.842405 
L 316.837663 304.832511 
L 319.892107 304.732761 
L 322.391903 304.68271 
L 325.339182 304.528278 
L 330.130721 304.341497 
L 332.007337 304.150075 
L 335.239604 303.81462 
L 337.509885 303.599809 
L 339.304158 303.480962 
L 342.399609 302.995222 
L 343.709711 302.766115 
L 345.010362 302.589553 
L 348.858807 301.794525 
L 349.703724 301.563215 
L 350.124849 301.579474 
L 352.217625 301.147843 
L 353.048958 300.924146 
L 353.877131 300.625541 
L 355.113675 300.239944 
L 356.752224 299.576007 
L 357.567351 299.287727 
L 359.59383 298.689658 
L 360.802415 298.144216 
L 362.005914 297.669146 
L 362.406006 297.595372 
L 362.805579 297.329805 
L 363.60322 297.051974 
L 364.398931 296.596609 
L 365.589088 295.738262 
L 365.984945 295.395596 
L 367.564376 294.865747 
L 368.35186 294.377804 
L 370.31482 292.681001 
L 370.706521 292.587434 
L 371.880055 291.727859 
L 372.270749 291.216056 
L 373.051482 290.710041 
L 374.610663 289.082628 
L 375.00005 288.853407 
L 375.389298 288.46513 
L 375.778419 287.899676 
L 376.167424 287.653303 
L 376.556326 287.171271 
L 376.945135 286.883694 
L 377.333864 286.151717 
L 377.722524 286.250222 
L 378.888214 283.620968 
L 379.665216 282.885347 
L 380.442228 281.674467 
L 380.830767 280.30041 
L 381.219345 279.579497 
L 381.607972 279.395257 
L 382.385424 278.120309 
L 382.774273 277.404 
L 383.163218 276.395735 
L 383.941448 275.535902 
L 384.720208 273.845047 
L 385.109817 273.034476 
L 385.499594 272.559787 
L 385.889551 270.787646 
L 386.2797 270.816942 
L 386.670053 270.581256 
L 387.060621 269.524035 
L 387.451416 269.355999 
L 387.842451 268.663288 
L 388.625285 266.183389 
L 389.017108 266.204587 
L 389.409217 265.33384 
L 389.801625 264.147907 
L 390.194343 262.543966 
L 390.587383 259.537631 
L 391.374475 256.859676 
L 391.768552 256.500566 
L 392.953045 252.955343 
L 393.348669 249.079661 
L 393.744711 249.859719 
L 394.14118 249.013704 
L 395.333277 243.44591 
L 395.731579 244.535635 
L 396.130368 241.170637 
L 396.529656 238.991641 
L 396.929456 233.578512 
L 397.329778 233.814951 
L 397.730636 228.971166 
L 398.13204 229.578215 
L 398.534002 222.353518 
L 398.936535 226.709351 
L 399.743359 218.528307 
L 400.147674 211.57688 
L 400.552606 211.745475 
L 400.958168 205.803152 
L 401.364371 205.956745 
L 401.771228 204.299998 
L 402.178749 196.147164 
L 402.586947 196.575767 
L 402.995834 187.95869 
L 403.405421 187.046058 
L 403.81572 168.489347 
L 404.226744 176.392452 
L 404.638503 167.221007 
L 405.05101 173.962979 
L 405.464277 148.12466 
L 405.878315 153.241003 
L 406.293136 146.680081 
L 406.708752 147.238775 
L 407.125175 144.725527 
L 407.542417 129.970828 
L 407.96049 137.806703 
L 408.379405 136.802104 
L 409.219809 122.866301 
L 409.641322 120.072005 
L 410.063724 108.534755 
L 410.487028 115.16973 
L 410.911246 115.16973 
L 411.336388 76.686876 
L 411.762468 78.519393 
L 412.189496 65.881346 
L 412.617485 71.653696 
L 413.046446 46.359329 
L 413.046446 46.359329 
" clip-path="url(#p0d7911a33a)" style="fill: none; stroke: #4c72b0; stroke-width: 1.5; stroke-linecap: round"/>
   </g>
   <g id="line2d_14">
    <path d="M 59.073237 296.009907 
L 64.915705 298.433747 
L 72.106102 300.751681 
L 76.360807 301.827877 
L 80.571253 302.66858 
L 86.116885 303.453669 
L 90.2253 303.725076 
L 95.63605 303.747998 
L 99.644174 303.469361 
L 104.922361 302.787674 
L 108.831933 302.088649 
L 119.054433 299.962487 
L 128.986423 298.231985 
L 135.049082 296.559942 
L 137.443365 295.804334 
L 138.633957 295.470404 
L 141.002105 295.000749 
L 142.179683 294.673457 
L 149.154961 293.7315 
L 150.302586 293.830224 
L 153.720118 293.645929 
L 154.850887 293.714608 
L 155.977472 293.925764 
L 158.218135 294.004182 
L 159.332238 294.211754 
L 161.548043 294.319335 
L 169.17441 295.646428 
L 174.50066 296.904814 
L 187.887932 299.793168 
L 192.863664 300.683415 
L 200.630005 301.605935 
L 203.481601 301.952944 
L 210.927072 302.526337 
L 214.564616 302.749289 
L 227.714749 303.381708 
L 231.094056 303.472851 
L 240.921866 303.798501 
L 247.996774 303.987561 
L 264.280881 304.459592 
L 267.094768 304.502782 
L 300.010991 304.871115 
L 302.287631 304.896259 
L 308.382074 304.920307 
L 313.195513 304.845011 
L 316.837663 304.831465 
L 319.892107 304.737041 
L 322.391903 304.686203 
L 325.339182 304.541559 
L 330.130721 304.361882 
L 332.007337 304.181967 
L 335.696162 303.827148 
L 341.960753 303.216896 
L 349.281713 301.99849 
L 350.124849 301.901751 
L 353.048958 301.356064 
L 354.290063 301.015236 
L 364.001311 298.173442 
L 365.192808 297.647976 
L 365.984945 297.200462 
L 366.775436 297.011445 
L 367.564376 296.777511 
L 368.35186 296.481197 
L 369.530563 295.841705 
L 369.922838 295.723859 
L 370.31482 295.391744 
L 370.706521 295.362351 
L 373.441545 293.903903 
L 373.831422 293.521476 
L 374.221124 293.496252 
L 376.556326 292.235401 
L 376.945135 292.083979 
L 377.333864 291.781194 
L 377.722524 291.705494 
L 378.888214 290.426261 
L 380.442228 289.545723 
L 381.219345 288.554195 
L 381.607972 288.306088 
L 381.996662 288.300286 
L 383.163218 287.544029 
L 383.552272 287.428386 
L 385.109817 286.199551 
L 385.499594 286.088325 
L 385.889551 285.650024 
L 386.2797 285.388115 
L 387.060621 285.165633 
L 387.451416 284.891341 
L 387.842451 285.032665 
L 388.625285 284.726117 
L 389.409217 284.348585 
L 391.374475 283.059774 
L 391.768552 282.90332 
L 393.348669 281.663085 
L 393.744711 281.488239 
L 394.53809 280.903334 
L 396.130368 280.097701 
L 397.329778 279.085314 
L 398.936535 277.767456 
L 399.33965 277.241281 
L 400.147674 276.634427 
L 401.771228 275.545105 
L 402.178749 275.005502 
L 403.405421 274.016133 
L 403.81572 273.796257 
L 405.464277 272.253437 
L 406.708752 270.73927 
L 407.542417 270.205289 
L 408.799174 268.800074 
L 409.641322 267.597472 
L 410.063724 267.389749 
L 410.487028 266.860878 
L 411.762468 265.760253 
L 413.046446 264.598482 
L 413.046446 264.598482 
" clip-path="url(#p0d7911a33a)" style="fill: none; stroke: #dd8452; stroke-width: 1.5; stroke-linecap: round"/>
   </g>
   <g id="line2d_15">
    <path d="M 59.073237 283.474708 
L 63.462636 277.376067 
L 64.915705 274.904196 
L 66.363762 272.74013 
L 67.806818 270.11712 
L 72.106102 261.151977 
L 74.947506 254.549831 
L 77.769191 247.255068 
L 86.116885 225.682097 
L 87.491175 223.084887 
L 90.2253 219.275925 
L 91.585157 218.100185 
L 92.940227 217.221053 
L 94.29052 217.204147 
L 95.63605 218.239252 
L 98.312865 221.973268 
L 99.644174 224.447833 
L 100.970766 227.632536 
L 102.292654 230.298547 
L 108.831933 246.755748 
L 110.125839 250.159262 
L 112.699799 255.301169 
L 113.979875 258.096304 
L 115.255365 260.272105 
L 117.792632 263.725756 
L 120.311695 266.642366 
L 121.564429 267.892001 
L 124.056363 269.872706 
L 125.295586 271.239549 
L 126.53033 272.159828 
L 127.760604 272.828784 
L 131.424737 277.174154 
L 136.24841 281.619692 
L 138.633957 283.405391 
L 141.002105 284.720246 
L 142.179683 285.359262 
L 144.521907 286.359138 
L 145.686577 286.544835 
L 146.846969 286.903683 
L 148.003092 287.063303 
L 149.154961 287.34684 
L 152.585153 287.332305 
L 153.720118 287.429022 
L 154.850887 287.307289 
L 157.099884 286.90378 
L 158.218135 286.722391 
L 159.332238 286.39426 
L 161.548043 286.105037 
L 162.64977 285.761259 
L 164.84093 284.666585 
L 167.015779 283.905825 
L 169.17441 282.908413 
L 172.382157 280.55382 
L 173.4434 279.834058 
L 178.690101 275.096334 
L 179.727621 273.995077 
L 181.790936 272.329054 
L 185.870997 267.531245 
L 187.887932 265.632369 
L 190.88473 261.508323 
L 191.876082 260.438646 
L 192.863664 259.180209 
L 193.847488 258.1632 
L 194.827565 257.358538 
L 195.803906 256.150588 
L 196.776525 255.192135 
L 197.745432 253.921149 
L 198.71064 253.061908 
L 199.67216 252.0384 
L 203.481601 246.274838 
L 204.424861 245.576706 
L 205.364504 244.282486 
L 206.300541 243.223237 
L 208.16185 241.561297 
L 209.087144 240.272935 
L 210.927072 238.364903 
L 212.752865 235.981492 
L 213.66049 235.539889 
L 216.362421 233.677238 
L 217.256124 232.539766 
L 219.033187 230.774281 
L 219.916571 230.36435 
L 220.79654 229.557645 
L 221.673105 229.046031 
L 222.546279 227.694849 
L 224.282496 227.265182 
L 225.145565 226.461538 
L 226.861679 224.18633 
L 227.714749 222.636923 
L 228.56451 221.568 
L 229.410973 221.454391 
L 230.254151 220.348652 
L 231.094056 220.507215 
L 231.930698 219.578061 
L 233.594245 218.651433 
L 234.421173 218.574572 
L 236.065396 217.724404 
L 236.882716 216.260923 
L 238.50783 214.298585 
L 240.120323 212.915631 
L 240.921866 212.065899 
L 241.720289 211.80364 
L 242.515603 211.112172 
L 243.307822 211.768423 
L 244.096956 211.476236 
L 244.883017 210.575895 
L 245.666018 209.424738 
L 246.44597 208.769893 
L 247.222885 207.382365 
L 247.996774 206.812116 
L 248.76765 205.958543 
L 249.535524 205.691218 
L 250.300409 204.684006 
L 251.062315 203.108906 
L 251.821255 202.566455 
L 252.577242 202.759174 
L 253.330285 202.282929 
L 254.080398 201.499115 
L 254.827592 200.498317 
L 255.571879 199.712364 
L 256.313271 197.713292 
L 257.787416 196.929969 
L 258.520193 195.575678 
L 259.250123 194.543262 
L 259.977216 193.714708 
L 260.701485 194.158769 
L 261.422942 193.100062 
L 262.141598 192.510171 
L 262.857465 191.183976 
L 263.570556 191.042215 
L 264.280881 189.883416 
L 264.988453 190.512916 
L 265.693284 189.876866 
L 266.395385 189.43677 
L 267.094768 188.144684 
L 267.791446 187.657392 
L 268.485429 187.759867 
L 269.865361 187.217496 
L 270.551333 187.458391 
L 271.234658 186.003877 
L 271.915348 185.393969 
L 273.941727 184.223205 
L 275.279688 182.8992 
L 275.944817 182.761551 
L 277.267429 181.729595 
L 277.924937 181.393875 
L 278.579928 181.270154 
L 279.232414 180.804014 
L 279.882407 180.551455 
L 280.529919 179.754929 
L 281.174961 179.793464 
L 281.817546 178.742567 
L 282.457685 178.4448 
L 283.09539 178.546215 
L 284.363546 176.780367 
L 284.994021 176.547938 
L 285.622108 177.257354 
L 286.871172 175.665231 
L 288.11083 176.507077 
L 288.727163 175.530263 
L 289.341179 175.217559 
L 289.952892 173.550086 
L 290.562313 172.740923 
L 291.169454 172.141065 
L 291.774326 172.144246 
L 292.376942 171.553477 
L 293.575452 170.110459 
L 294.17137 169.9968 
L 294.765078 169.583152 
L 295.356589 170.100923 
L 295.945914 170.779569 
L 296.533066 170.076554 
L 297.118056 169.7408 
L 297.700895 170.155979 
L 298.281597 170.069056 
L 298.860172 170.21952 
L 299.436633 169.488867 
L 300.010991 169.789725 
L 300.583258 170.982516 
L 301.153446 169.952 
L 301.721566 169.315305 
L 302.287631 168.396237 
L 302.851653 167.724111 
L 303.413643 168.199498 
L 303.973613 169.085538 
L 304.531575 167.818338 
L 305.08754 167.887385 
L 305.641521 166.621165 
L 306.19353 166.948816 
L 306.743578 167.964554 
L 307.291676 167.212032 
L 308.382074 166.678099 
L 308.924397 167.721635 
L 309.464818 168.218758 
L 310.540003 167.325538 
L 311.07479 167.371956 
L 311.607723 168.152444 
L 312.668072 170.096862 
L 313.195513 170.758892 
L 314.244985 169.396715 
L 314.76704 169.711015 
L 315.287324 169.495113 
L 315.805847 169.801019 
L 316.322623 170.838318 
L 316.837663 171.250919 
L 317.350979 172.870892 
L 318.372484 173.748185 
L 318.880698 173.241305 
L 319.387235 175.525978 
L 319.892107 176.02048 
L 320.395325 175.600246 
L 320.896902 175.95302 
L 321.396849 176.665429 
L 321.895179 177.77973 
L 322.391903 178.290145 
L 322.887032 180.2496 
L 324.362974 183.020677 
L 324.851845 183.730544 
L 325.339182 184.824451 
L 325.824994 185.249162 
L 326.309296 187.210831 
L 326.792098 187.267692 
L 327.753252 189.474462 
L 328.231626 189.86112 
L 328.708548 190.026831 
L 329.18403 190.549662 
L 329.658084 191.527385 
L 330.130721 191.895912 
L 331.071791 196.785231 
L 331.540249 196.628786 
L 332.007337 198.344862 
L 332.937452 200.834585 
L 333.862232 204.028849 
L 334.32265 204.988062 
L 335.696162 209.567205 
L 336.151458 210.525415 
L 337.058307 213.253415 
L 337.960247 213.690514 
L 339.749775 217.438523 
L 340.194237 218.904369 
L 340.637553 219.7248 
L 343.709711 229.724308 
L 344.144296 230.199508 
L 345.441868 233.658266 
L 346.301883 235.830987 
L 347.157981 239.350154 
L 348.434992 241.589169 
L 349.703724 245.28 
L 350.124849 245.11129 
L 350.545102 246.2208 
L 350.964495 246.601672 
L 352.217625 249.300923 
L 352.633692 250.043077 
L 353.877131 253.675651 
L 354.290063 254.416837 
L 354.70224 255.639631 
L 355.113675 256.506092 
L 355.524379 257.824352 
L 355.934364 258.364652 
L 357.160123 261.782843 
L 358.785123 264.105872 
L 359.189783 264.3456 
L 359.997277 266.412636 
L 360.400134 267.008606 
L 361.204131 268.604062 
L 361.605293 268.989637 
L 362.005914 269.749957 
L 362.406006 270.029391 
L 362.805579 271.001994 
L 363.204647 271.355077 
L 364.001311 272.617945 
L 365.984945 276.807286 
L 367.564376 278.089461 
L 367.958294 278.514215 
L 369.530563 281.205662 
L 369.922838 281.583313 
L 370.31482 282.413292 
L 370.706521 282.570338 
L 371.880055 283.926351 
L 372.270749 284.666092 
L 373.051482 285.353354 
L 374.610663 287.3088 
L 375.00005 287.556923 
L 377.333864 290.081477 
L 377.722524 290.000663 
L 378.888214 291.929928 
L 379.665216 292.396167 
L 380.442228 293.105969 
L 380.830767 293.835112 
L 381.219345 294.189046 
L 381.607972 294.276595 
L 382.385424 294.852431 
L 383.552272 295.724308 
L 383.941448 295.879124 
L 384.720208 296.465723 
L 385.499594 296.873723 
L 385.889551 297.389538 
L 386.670053 297.4464 
L 387.060621 297.728 
L 387.451416 297.771323 
L 388.233736 298.235077 
L 388.625285 298.523288 
L 389.017108 298.518646 
L 389.801625 298.947887 
L 390.194343 299.255431 
L 390.587383 299.776563 
L 391.374475 300.188751 
L 391.768552 300.240738 
L 392.953045 300.717292 
L 393.348669 301.172185 
L 393.744711 301.085538 
L 394.53809 301.380923 
L 395.333277 301.735385 
L 395.731579 301.634297 
L 396.929456 302.5152 
L 397.329778 302.498954 
L 397.730636 302.812273 
L 398.13204 302.775138 
L 398.534002 303.182769 
L 398.936535 302.945723 
L 400.147674 303.6768 
L 400.552606 303.669927 
L 400.958168 303.898444 
L 401.771228 303.952082 
L 402.178749 304.217797 
L 402.586947 304.2048 
L 402.995834 304.448217 
L 403.405421 304.471959 
L 403.81572 304.887138 
L 404.226744 304.724677 
L 404.638503 304.911508 
L 405.05101 304.776665 
L 405.464277 305.231557 
L 405.878315 305.153575 
L 406.708752 305.244554 
L 407.125175 305.280656 
L 407.542417 305.472 
L 408.379405 305.38752 
L 410.063724 305.699446 
L 410.911246 305.634462 
L 411.336388 305.959385 
L 412.617485 305.994043 
L 413.046446 306.147998 
L 413.046446 306.147998 
" clip-path="url(#p0d7911a33a)" style="fill: none; stroke: #55a868; stroke-width: 1.5; stroke-linecap: round"/>
   </g>
   <g id="line2d_16">
    <path d="M 59.073237 272.00431 
L 62.004543 267.983287 
L 66.363762 260.119009 
L 70.677977 251.046158 
L 76.360807 236.04233 
L 86.116885 207.881914 
L 87.491175 205.085423 
L 90.2253 200.869634 
L 92.940227 199.058466 
L 94.29052 199.088436 
L 95.63605 200.231964 
L 98.312865 204.723751 
L 99.644174 207.501675 
L 100.970766 210.996066 
L 102.292654 213.97175 
L 110.125839 236.30516 
L 111.415124 239.500016 
L 115.255365 247.878611 
L 117.792632 251.617805 
L 119.054433 253.552387 
L 121.564429 256.391596 
L 122.812648 257.429139 
L 124.056363 258.686031 
L 125.295586 260.136807 
L 126.53033 261.127556 
L 127.760604 261.962252 
L 131.424737 266.599447 
L 132.637258 267.989802 
L 133.845368 269.192219 
L 135.049082 270.229093 
L 136.24841 271.613468 
L 138.633957 273.588923 
L 139.8202 274.118249 
L 142.179683 275.687385 
L 146.846969 277.296931 
L 148.003092 277.428313 
L 149.154961 277.856324 
L 150.302586 277.64294 
L 151.445979 277.790178 
L 152.585153 277.757388 
L 153.720118 278.038832 
L 154.850887 277.892529 
L 155.977472 277.433502 
L 158.218135 277.259393 
L 159.332238 276.788677 
L 161.548043 276.538917 
L 162.64977 276.102853 
L 164.84093 274.988565 
L 165.930388 274.669292 
L 167.015779 274.216899 
L 168.097116 273.454816 
L 169.17441 273.087651 
L 174.50066 269.022763 
L 175.553947 268.154146 
L 176.603276 266.940765 
L 178.690101 264.98349 
L 179.727621 263.870474 
L 181.790936 261.999927 
L 184.856773 258.10738 
L 188.890666 253.394954 
L 189.889595 251.843446 
L 192.863664 247.907518 
L 194.827565 246.152462 
L 195.803906 244.769477 
L 196.776525 243.646875 
L 197.745432 242.288903 
L 198.71064 241.437785 
L 199.67216 240.370051 
L 201.584185 237.161753 
L 202.534713 235.929297 
L 203.481601 234.453372 
L 204.424861 233.683495 
L 206.300541 231.030457 
L 207.232986 230.355025 
L 208.16185 229.455391 
L 209.087144 228.076371 
L 210.927072 226.162469 
L 211.841729 224.878752 
L 212.752865 223.3913 
L 213.66049 223.151058 
L 216.362421 221.047701 
L 217.256124 219.864923 
L 219.033187 218.205505 
L 219.916571 217.611752 
L 220.79654 216.76912 
L 221.673105 216.355754 
L 222.546279 214.827895 
L 224.282496 214.396062 
L 225.145565 213.490469 
L 226.861679 211.175962 
L 227.714749 209.589231 
L 228.56451 208.443877 
L 229.410973 208.345272 
L 230.254151 207.316452 
L 231.094056 207.416714 
L 231.930698 206.537116 
L 232.764091 205.950228 
L 233.594245 205.544709 
L 234.421173 205.423852 
L 235.244886 204.862818 
L 236.065396 204.45059 
L 236.882716 202.992246 
L 238.50783 200.965271 
L 240.921866 198.799754 
L 241.720289 198.535002 
L 242.515603 197.617453 
L 243.307822 198.364639 
L 244.096956 197.986326 
L 244.883017 197.003393 
L 245.666018 195.823458 
L 246.44597 195.037867 
L 247.222885 193.617832 
L 247.996774 193.081108 
L 248.76765 192.202767 
L 249.535524 191.985653 
L 250.300409 190.873727 
L 251.062315 189.352335 
L 251.821255 188.688629 
L 252.577242 188.708571 
L 253.330285 188.261849 
L 255.571879 185.873466 
L 256.313271 183.796431 
L 257.787416 182.900185 
L 258.520193 181.434188 
L 259.977216 179.746764 
L 260.701485 180.130974 
L 261.422942 178.992443 
L 262.141598 178.348855 
L 262.857465 176.979597 
L 263.570556 176.848492 
L 264.280881 175.782203 
L 264.988453 176.3584 
L 265.693284 175.689299 
L 266.395385 175.413415 
L 267.094768 173.934715 
L 267.791446 173.505742 
L 268.485429 173.688199 
L 269.865361 172.988364 
L 270.551333 173.249498 
L 271.234658 171.867963 
L 271.915348 171.186491 
L 272.593415 170.716773 
L 273.268871 170.625969 
L 274.611995 169.325332 
L 275.279688 168.812308 
L 275.944817 168.628697 
L 277.267429 167.387191 
L 278.579928 167.014479 
L 279.232414 166.479006 
L 279.882407 166.295068 
L 280.529919 165.510302 
L 281.174961 165.629749 
L 281.817546 164.766382 
L 282.457685 164.278796 
L 283.09539 164.355308 
L 284.363546 162.629317 
L 284.994021 162.486892 
L 285.622108 163.285662 
L 286.871172 161.53228 
L 288.11083 162.520615 
L 288.727163 161.416104 
L 289.341179 161.227815 
L 289.952892 159.463099 
L 291.169454 158.081893 
L 291.774326 158.103912 
L 292.376942 157.542999 
L 292.977314 156.631959 
L 293.575452 156.110512 
L 294.17137 155.877415 
L 294.765078 155.503152 
L 295.945914 156.761548 
L 296.533066 156.045785 
L 297.118056 155.673797 
L 297.700895 156.068759 
L 298.281597 156.042198 
L 298.860172 156.227186 
L 299.436633 155.579569 
L 300.010991 155.788902 
L 300.583258 156.97642 
L 302.287631 154.368844 
L 302.851653 153.710828 
L 303.413643 154.239562 
L 303.973613 155.573169 
L 304.531575 154.01607 
L 305.08754 154.114708 
L 305.641521 152.836135 
L 306.19353 153.186462 
L 306.743578 154.127473 
L 307.291676 153.476884 
L 307.837838 153.350236 
L 308.382074 152.9856 
L 308.924397 154.031543 
L 309.464818 154.60257 
L 310.003349 154.160974 
L 310.540003 153.483815 
L 311.07479 153.799455 
L 311.607723 154.562954 
L 312.668072 156.486105 
L 313.195513 157.235594 
L 313.721147 156.715717 
L 314.244985 155.972393 
L 314.76704 156.373465 
L 315.287324 156.117858 
L 315.805847 156.472275 
L 316.322623 157.656847 
L 316.837663 157.97549 
L 317.350979 159.524052 
L 318.372484 160.736492 
L 318.880698 160.066827 
L 319.387235 162.468712 
L 319.892107 162.93753 
L 320.395325 162.457758 
L 320.896902 162.877703 
L 321.396849 163.640369 
L 321.895179 164.934105 
L 322.391903 165.475143 
L 322.887032 167.388554 
L 323.872556 169.377969 
L 324.362974 170.458338 
L 324.851845 171.14519 
L 325.339182 172.231307 
L 325.824994 172.673231 
L 326.309296 174.722954 
L 326.792098 174.823138 
L 327.753252 177.224862 
L 328.708548 177.924402 
L 329.18403 178.2528 
L 329.658084 179.585969 
L 330.130721 179.779039 
L 331.071791 184.936369 
L 331.540249 184.76067 
L 332.007337 186.537969 
L 332.937452 188.950974 
L 333.400503 190.947446 
L 333.862232 192.413932 
L 334.32265 193.214326 
L 335.696162 197.970244 
L 336.151458 199.022558 
L 337.058307 201.8432 
L 337.960247 202.282929 
L 339.304158 204.866532 
L 340.194237 207.689649 
L 340.637553 208.599434 
L 342.399609 214.701871 
L 343.274076 218.029785 
L 344.144296 219.412062 
L 346.301883 225.366646 
L 347.584591 229.767422 
L 348.010257 230.788431 
L 348.434992 231.289108 
L 349.703724 235.093662 
L 350.124849 235.112229 
L 350.545102 235.979077 
L 350.964495 236.577477 
L 352.217625 239.191303 
L 353.877131 244.088123 
L 354.290063 244.892959 
L 355.524379 248.084086 
L 355.934364 248.924554 
L 357.160123 252.506585 
L 358.379839 254.408018 
L 359.189783 255.084554 
L 361.204131 259.495385 
L 361.605293 259.950277 
L 362.005914 260.724677 
L 362.406006 261.058626 
L 362.805579 262.074462 
L 363.204647 262.374703 
L 364.796093 265.344 
L 365.192808 266.138585 
L 365.589088 267.324119 
L 366.38039 268.463262 
L 367.170094 268.885662 
L 367.564376 269.477022 
L 367.958294 269.855789 
L 370.31482 273.808246 
L 370.706521 273.889477 
L 373.441545 277.481682 
L 373.831422 278.300308 
L 374.221124 278.352738 
L 375.778419 280.057885 
L 376.167424 280.333785 
L 377.333864 281.525169 
L 377.722524 281.649405 
L 378.888214 283.583015 
L 380.442228 284.754622 
L 380.830767 285.48239 
L 381.219345 285.944123 
L 381.607972 286.222629 
L 381.996662 286.229056 
L 383.163218 287.034936 
L 383.552272 287.152837 
L 384.330756 287.909908 
L 384.720208 287.988185 
L 385.109817 288.326892 
L 385.499594 288.426535 
L 385.889551 288.809354 
L 386.2797 289.030892 
L 387.060621 289.215015 
L 387.451416 289.437046 
L 387.842451 289.323323 
L 395.333277 292.389005 
L 396.130368 292.601894 
L 398.936535 293.772787 
L 399.33965 294.012288 
L 401.771228 294.73079 
L 402.586947 295.076736 
L 405.464277 295.928294 
L 407.125175 296.48713 
L 408.379405 296.833075 
L 411.336388 297.658022 
L 413.046446 298.003968 
L 413.046446 298.003968 
" clip-path="url(#p0d7911a33a)" style="fill: none; stroke: #c44e52; stroke-width: 1.5; stroke-linecap: round"/>
   </g>
   <g id="patch_3">
    <path d="M 57.6 307.584 
L 57.6 41.472 
" style="fill: none; stroke: #ffffff; stroke-width: 1.25; stroke-linejoin: miter; stroke-linecap: square"/>
   </g>
   <g id="patch_4">
    <path d="M 414.72 307.584 
L 414.72 41.472 
" style="fill: none; stroke: #ffffff; stroke-width: 1.25; stroke-linejoin: miter; stroke-linecap: square"/>
   </g>
   <g id="patch_5">
    <path d="M 57.6 307.584 
L 414.72 307.584 
" style="fill: none; stroke: #ffffff; stroke-width: 1.25; stroke-linejoin: miter; stroke-linecap: square"/>
   </g>
   <g id="patch_6">
    <path d="M 57.6 41.472 
L 414.72 41.472 
" style="fill: none; stroke: #ffffff; stroke-width: 1.25; stroke-linejoin: miter; stroke-linecap: square"/>
   </g>
   <g id="legend_1">
    <g id="patch_7">
     <path d="M 65.3 112.511375 
L 166.522344 112.511375 
Q 168.722344 112.511375 168.722344 110.311375 
L 168.722344 49.172 
Q 168.722344 46.972 166.522344 46.972 
L 65.3 46.972 
Q 63.1 46.972 63.1 49.172 
L 63.1 110.311375 
Q 63.1 112.511375 65.3 112.511375 
z
" style="fill: #eaeaf2; opacity: 0.8; stroke: #cccccc; stroke-linejoin: miter"/>
    </g>
    <g id="line2d_17">
     <path d="M 67.5 55.395594 
L 78.5 55.395594 
L 89.5 55.395594 
" style="fill: none; stroke: #4c72b0; stroke-width: 1.5; stroke-linecap: round"/>
    </g>
    <g id="text_15">
     <!-- Dark Inverted -->
     <g style="fill: #262626" transform="translate(98.3 59.245594) scale(0.11 -0.11)">
      <defs>
       <path id="ArialMT-44" d="M 494 0 
L 494 4581 
L 2072 4581 
Q 2606 4581 2888 4516 
Q 3281 4425 3559 4188 
Q 3922 3881 4101 3404 
Q 4281 2928 4281 2316 
Q 4281 1794 4159 1391 
Q 4038 988 3847 723 
Q 3656 459 3429 307 
Q 3203 156 2883 78 
Q 2563 0 2147 0 
L 494 0 
z
M 1100 541 
L 2078 541 
Q 2531 541 2789 625 
Q 3047 709 3200 863 
Q 3416 1078 3536 1442 
Q 3656 1806 3656 2325 
Q 3656 3044 3420 3430 
Q 3184 3816 2847 3947 
Q 2603 4041 2063 4041 
L 1100 4041 
L 1100 541 
z
" transform="scale(0.015625)"/>
       <path id="ArialMT-72" d="M 416 0 
L 416 3319 
L 922 3319 
L 922 2816 
Q 1116 3169 1280 3281 
Q 1444 3394 1641 3394 
Q 1925 3394 2219 3213 
L 2025 2691 
Q 1819 2813 1613 2813 
Q 1428 2813 1281 2702 
Q 1134 2591 1072 2394 
Q 978 2094 978 1738 
L 978 0 
L 416 0 
z
" transform="scale(0.015625)"/>
       <path id="ArialMT-6b" d="M 425 0 
L 425 4581 
L 988 4581 
L 988 1969 
L 2319 3319 
L 3047 3319 
L 1778 2088 
L 3175 0 
L 2481 0 
L 1384 1697 
L 988 1316 
L 988 0 
L 425 0 
z
" transform="scale(0.015625)"/>
       <path id="ArialMT-64" d="M 2575 0 
L 2575 419 
Q 2259 -75 1647 -75 
Q 1250 -75 917 144 
Q 584 363 401 755 
Q 219 1147 219 1656 
Q 219 2153 384 2558 
Q 550 2963 881 3178 
Q 1213 3394 1622 3394 
Q 1922 3394 2156 3267 
Q 2391 3141 2538 2938 
L 2538 4581 
L 3097 4581 
L 3097 0 
L 2575 0 
z
M 797 1656 
Q 797 1019 1065 703 
Q 1334 388 1700 388 
Q 2069 388 2326 689 
Q 2584 991 2584 1609 
Q 2584 2291 2321 2609 
Q 2059 2928 1675 2928 
Q 1300 2928 1048 2622 
Q 797 2316 797 1656 
z
" transform="scale(0.015625)"/>
      </defs>
      <use xlink:href="#ArialMT-44"/>
      <use xlink:href="#ArialMT-61" x="72.216797"/>
      <use xlink:href="#ArialMT-72" x="127.832031"/>
      <use xlink:href="#ArialMT-6b" x="161.132812"/>
      <use xlink:href="#ArialMT-20" x="211.132812"/>
      <use xlink:href="#ArialMT-49" x="238.916016"/>
      <use xlink:href="#ArialMT-6e" x="266.699219"/>
      <use xlink:href="#ArialMT-76" x="322.314453"/>
      <use xlink:href="#ArialMT-65" x="372.314453"/>
      <use xlink:href="#ArialMT-72" x="427.929688"/>
      <use xlink:href="#ArialMT-74" x="461.230469"/>
      <use xlink:href="#ArialMT-65" x="489.013672"/>
      <use xlink:href="#ArialMT-64" x="544.628906"/>
     </g>
    </g>
    <g id="line2d_18">
     <path d="M 67.5 70.955437 
L 78.5 70.955437 
L 89.5 70.955437 
" style="fill: none; stroke: #dd8452; stroke-width: 1.5; stroke-linecap: round"/>
    </g>
    <g id="text_16">
     <!-- Raw Inverted -->
     <g style="fill: #262626" transform="translate(98.3 74.805437) scale(0.11 -0.11)">
      <defs>
       <path id="ArialMT-77" d="M 1034 0 
L 19 3319 
L 600 3319 
L 1128 1403 
L 1325 691 
Q 1338 744 1497 1375 
L 2025 3319 
L 2603 3319 
L 3100 1394 
L 3266 759 
L 3456 1400 
L 4025 3319 
L 4572 3319 
L 3534 0 
L 2950 0 
L 2422 1988 
L 2294 2553 
L 1622 0 
L 1034 0 
z
" transform="scale(0.015625)"/>
      </defs>
      <use xlink:href="#ArialMT-52"/>
      <use xlink:href="#ArialMT-61" x="72.216797"/>
      <use xlink:href="#ArialMT-77" x="127.832031"/>
      <use xlink:href="#ArialMT-20" x="200.048828"/>
      <use xlink:href="#ArialMT-49" x="227.832031"/>
      <use xlink:href="#ArialMT-6e" x="255.615234"/>
      <use xlink:href="#ArialMT-76" x="311.230469"/>
      <use xlink:href="#ArialMT-65" x="361.230469"/>
      <use xlink:href="#ArialMT-72" x="416.845703"/>
      <use xlink:href="#ArialMT-74" x="450.146484"/>
      <use xlink:href="#ArialMT-65" x="477.929688"/>
      <use xlink:href="#ArialMT-64" x="533.544922"/>
     </g>
    </g>
    <g id="line2d_19">
     <path d="M 67.5 86.515281 
L 78.5 86.515281 
L 89.5 86.515281 
" style="fill: none; stroke: #55a868; stroke-width: 1.5; stroke-linecap: round"/>
    </g>
    <g id="text_17">
     <!-- Dark -->
     <g style="fill: #262626" transform="translate(98.3 90.365281) scale(0.11 -0.11)">
      <use xlink:href="#ArialMT-44"/>
      <use xlink:href="#ArialMT-61" x="72.216797"/>
      <use xlink:href="#ArialMT-72" x="127.832031"/>
      <use xlink:href="#ArialMT-6b" x="161.132812"/>
     </g>
    </g>
    <g id="line2d_20">
     <path d="M 67.5 102.075125 
L 78.5 102.075125 
L 89.5 102.075125 
" style="fill: none; stroke: #c44e52; stroke-width: 1.5; stroke-linecap: round"/>
    </g>
    <g id="text_18">
     <!-- Raw -->
     <g style="fill: #262626" transform="translate(98.3 105.925125) scale(0.11 -0.11)">
      <use xlink:href="#ArialMT-52"/>
      <use xlink:href="#ArialMT-61" x="72.216797"/>
      <use xlink:href="#ArialMT-77" x="127.832031"/>
     </g>
    </g>
   </g>
  </g>
 </g>
 <defs>
  <clipPath id="p0d7911a33a">
   <rect x="57.6" y="41.472" width="357.12" height="266.112"/>
  </clipPath>
 </defs>
</svg>
