<?xml version="1.0" encoding="utf-8" standalone="no"?>
<!DOCTYPE svg PUBLIC "-//W3C//DTD SVG 1.1//EN"
  "http://www.w3.org/Graphics/SVG/1.1/DTD/svg11.dtd">
<svg xmlns:xlink="http://www.w3.org/1999/xlink" width="460.8pt" height="345.6pt" viewBox="0 0 460.8 345.6" xmlns="http://www.w3.org/2000/svg" version="1.1">
 <metadata>
  <rdf:RDF xmlns:dc="http://purl.org/dc/elements/1.1/" xmlns:cc="http://creativecommons.org/ns#" xmlns:rdf="http://www.w3.org/1999/02/22-rdf-syntax-ns#">
   <cc:Work>
    <dc:type rdf:resource="http://purl.org/dc/dcmitype/StillImage"/>
    <dc:date>2024-07-24T15:13:07.028826</dc:date>
    <dc:format>image/svg+xml</dc:format>
    <dc:creator>
     <cc:Agent>
      <dc:title>Matplotlib v3.9.1, https://matplotlib.org/</dc:title>
     </cc:Agent>
    </dc:creator>
   </cc:Work>
  </rdf:RDF>
 </metadata>
 <defs>
  <style type="text/css">*{stroke-linejoin: round; stroke-linecap: butt}</style>
 </defs>
 <g id="figure_1">
  <g id="patch_1">
   <path d="M 0 345.6 
L 460.8 345.6 
L 460.8 0 
L 0 0 
z
" style="fill: #ffffff"/>
  </g>
  <g id="axes_1">
   <g id="patch_2">
    <path d="M 57.6 307.584 
L 414.72 307.584 
L 414.72 41.472 
L 57.6 41.472 
z
" style="fill: #eaeaf2"/>
   </g>
   <g id="matplotlib.axis_1">
    <g id="xtick_1">
     <g id="line2d_1">
      <path d="M 72.481515 307.584 
L 72.481515 41.472 
" clip-path="url(#pe0bb6e7896)" style="fill: none; stroke: #ffffff; stroke-linecap: round"/>
     </g>
     <g id="text_1">
      <!-- 0.0 -->
      <g style="fill: #262626" transform="translate(64.836515 324.957594) scale(0.11 -0.11)">
       <defs>
        <path id="ArialMT-30" d="M 266 2259 
Q 266 3072 433 3567 
Q 600 4063 929 4331 
Q 1259 4600 1759 4600 
Q 2128 4600 2406 4451 
Q 2684 4303 2865 4023 
Q 3047 3744 3150 3342 
Q 3253 2941 3253 2259 
Q 3253 1453 3087 958 
Q 2922 463 2592 192 
Q 2263 -78 1759 -78 
Q 1097 -78 719 397 
Q 266 969 266 2259 
z
M 844 2259 
Q 844 1131 1108 757 
Q 1372 384 1759 384 
Q 2147 384 2411 759 
Q 2675 1134 2675 2259 
Q 2675 3391 2411 3762 
Q 2147 4134 1753 4134 
Q 1366 4134 1134 3806 
Q 844 3388 844 2259 
z
" transform="scale(0.015625)"/>
        <path id="ArialMT-2e" d="M 581 0 
L 581 641 
L 1222 641 
L 1222 0 
L 581 0 
z
" transform="scale(0.015625)"/>
       </defs>
       <use xlink:href="#ArialMT-30"/>
       <use xlink:href="#ArialMT-2e" x="55.615234"/>
       <use xlink:href="#ArialMT-30" x="83.398438"/>
      </g>
     </g>
    </g>
    <g id="xtick_2">
     <g id="line2d_2">
      <path d="M 134.281646 307.584 
L 134.281646 41.472 
" clip-path="url(#pe0bb6e7896)" style="fill: none; stroke: #ffffff; stroke-linecap: round"/>
     </g>
     <g id="text_2">
      <!-- 0.5 -->
      <g style="fill: #262626" transform="translate(126.636646 324.957594) scale(0.11 -0.11)">
       <defs>
        <path id="ArialMT-35" d="M 266 1200 
L 856 1250 
Q 922 819 1161 601 
Q 1400 384 1738 384 
Q 2144 384 2425 690 
Q 2706 997 2706 1503 
Q 2706 1984 2436 2262 
Q 2166 2541 1728 2541 
Q 1456 2541 1237 2417 
Q 1019 2294 894 2097 
L 366 2166 
L 809 4519 
L 3088 4519 
L 3088 3981 
L 1259 3981 
L 1013 2750 
Q 1425 3038 1878 3038 
Q 2478 3038 2890 2622 
Q 3303 2206 3303 1553 
Q 3303 931 2941 478 
Q 2500 -78 1738 -78 
Q 1113 -78 717 272 
Q 322 622 266 1200 
z
" transform="scale(0.015625)"/>
       </defs>
       <use xlink:href="#ArialMT-30"/>
       <use xlink:href="#ArialMT-2e" x="55.615234"/>
       <use xlink:href="#ArialMT-35" x="83.398438"/>
      </g>
     </g>
    </g>
    <g id="xtick_3">
     <g id="line2d_3">
      <path d="M 196.081777 307.584 
L 196.081777 41.472 
" clip-path="url(#pe0bb6e7896)" style="fill: none; stroke: #ffffff; stroke-linecap: round"/>
     </g>
     <g id="text_3">
      <!-- 1.0 -->
      <g style="fill: #262626" transform="translate(188.436777 324.957594) scale(0.11 -0.11)">
       <defs>
        <path id="ArialMT-31" d="M 2384 0 
L 1822 0 
L 1822 3584 
Q 1619 3391 1289 3197 
Q 959 3003 697 2906 
L 697 3450 
Q 1169 3672 1522 3987 
Q 1875 4303 2022 4600 
L 2384 4600 
L 2384 0 
z
" transform="scale(0.015625)"/>
       </defs>
       <use xlink:href="#ArialMT-31"/>
       <use xlink:href="#ArialMT-2e" x="55.615234"/>
       <use xlink:href="#ArialMT-30" x="83.398438"/>
      </g>
     </g>
    </g>
    <g id="xtick_4">
     <g id="line2d_4">
      <path d="M 257.881908 307.584 
L 257.881908 41.472 
" clip-path="url(#pe0bb6e7896)" style="fill: none; stroke: #ffffff; stroke-linecap: round"/>
     </g>
     <g id="text_4">
      <!-- 1.5 -->
      <g style="fill: #262626" transform="translate(250.236908 324.957594) scale(0.11 -0.11)">
       <use xlink:href="#ArialMT-31"/>
       <use xlink:href="#ArialMT-2e" x="55.615234"/>
       <use xlink:href="#ArialMT-35" x="83.398438"/>
      </g>
     </g>
    </g>
    <g id="xtick_5">
     <g id="line2d_5">
      <path d="M 319.68204 307.584 
L 319.68204 41.472 
" clip-path="url(#pe0bb6e7896)" style="fill: none; stroke: #ffffff; stroke-linecap: round"/>
     </g>
     <g id="text_5">
      <!-- 2.0 -->
      <g style="fill: #262626" transform="translate(312.03704 324.957594) scale(0.11 -0.11)">
       <defs>
        <path id="ArialMT-32" d="M 3222 541 
L 3222 0 
L 194 0 
Q 188 203 259 391 
Q 375 700 629 1000 
Q 884 1300 1366 1694 
Q 2113 2306 2375 2664 
Q 2638 3022 2638 3341 
Q 2638 3675 2398 3904 
Q 2159 4134 1775 4134 
Q 1369 4134 1125 3890 
Q 881 3647 878 3216 
L 300 3275 
Q 359 3922 746 4261 
Q 1134 4600 1788 4600 
Q 2447 4600 2831 4234 
Q 3216 3869 3216 3328 
Q 3216 3053 3103 2787 
Q 2991 2522 2730 2228 
Q 2469 1934 1863 1422 
Q 1356 997 1212 845 
Q 1069 694 975 541 
L 3222 541 
z
" transform="scale(0.015625)"/>
       </defs>
       <use xlink:href="#ArialMT-32"/>
       <use xlink:href="#ArialMT-2e" x="55.615234"/>
       <use xlink:href="#ArialMT-30" x="83.398438"/>
      </g>
     </g>
    </g>
    <g id="xtick_6">
     <g id="line2d_6">
      <path d="M 381.482171 307.584 
L 381.482171 41.472 
" clip-path="url(#pe0bb6e7896)" style="fill: none; stroke: #ffffff; stroke-linecap: round"/>
     </g>
     <g id="text_6">
      <!-- 2.5 -->
      <g style="fill: #262626" transform="translate(373.837171 324.957594) scale(0.11 -0.11)">
       <use xlink:href="#ArialMT-32"/>
       <use xlink:href="#ArialMT-2e" x="55.615234"/>
       <use xlink:href="#ArialMT-35" x="83.398438"/>
      </g>
     </g>
    </g>
   </g>
   <g id="matplotlib.axis_2">
    <g id="ytick_1">
     <g id="line2d_7">
      <path d="M 57.6 296.825231 
L 414.72 296.825231 
" clip-path="url(#pe0bb6e7896)" style="fill: none; stroke: #ffffff; stroke-linecap: round"/>
     </g>
     <g id="text_7">
      <!-- 0 -->
      <g style="fill: #262626" transform="translate(41.982969 300.762028) scale(0.11 -0.11)">
       <use xlink:href="#ArialMT-30"/>
      </g>
     </g>
    </g>
    <g id="ytick_2">
     <g id="line2d_8">
      <path d="M 57.6 247.263551 
L 414.72 247.263551 
" clip-path="url(#pe0bb6e7896)" style="fill: none; stroke: #ffffff; stroke-linecap: round"/>
     </g>
     <g id="text_8">
      <!-- 20 -->
      <g style="fill: #262626" transform="translate(35.865938 251.200348) scale(0.11 -0.11)">
       <use xlink:href="#ArialMT-32"/>
       <use xlink:href="#ArialMT-30" x="55.615234"/>
      </g>
     </g>
    </g>
    <g id="ytick_3">
     <g id="line2d_9">
      <path d="M 57.6 197.70187 
L 414.72 197.70187 
" clip-path="url(#pe0bb6e7896)" style="fill: none; stroke: #ffffff; stroke-linecap: round"/>
     </g>
     <g id="text_9">
      <!-- 40 -->
      <g style="fill: #262626" transform="translate(35.865938 201.638667) scale(0.11 -0.11)">
       <defs>
        <path id="ArialMT-34" d="M 2069 0 
L 2069 1097 
L 81 1097 
L 81 1613 
L 2172 4581 
L 2631 4581 
L 2631 1613 
L 3250 1613 
L 3250 1097 
L 2631 1097 
L 2631 0 
L 2069 0 
z
M 2069 1613 
L 2069 3678 
L 634 1613 
L 2069 1613 
z
" transform="scale(0.015625)"/>
       </defs>
       <use xlink:href="#ArialMT-34"/>
       <use xlink:href="#ArialMT-30" x="55.615234"/>
      </g>
     </g>
    </g>
    <g id="ytick_4">
     <g id="line2d_10">
      <path d="M 57.6 148.14019 
L 414.72 148.14019 
" clip-path="url(#pe0bb6e7896)" style="fill: none; stroke: #ffffff; stroke-linecap: round"/>
     </g>
     <g id="text_10">
      <!-- 60 -->
      <g style="fill: #262626" transform="translate(35.865938 152.076987) scale(0.11 -0.11)">
       <defs>
        <path id="ArialMT-36" d="M 3184 3459 
L 2625 3416 
Q 2550 3747 2413 3897 
Q 2184 4138 1850 4138 
Q 1581 4138 1378 3988 
Q 1113 3794 959 3422 
Q 806 3050 800 2363 
Q 1003 2672 1297 2822 
Q 1591 2972 1913 2972 
Q 2475 2972 2870 2558 
Q 3266 2144 3266 1488 
Q 3266 1056 3080 686 
Q 2894 316 2569 119 
Q 2244 -78 1831 -78 
Q 1128 -78 684 439 
Q 241 956 241 2144 
Q 241 3472 731 4075 
Q 1159 4600 1884 4600 
Q 2425 4600 2770 4297 
Q 3116 3994 3184 3459 
z
M 888 1484 
Q 888 1194 1011 928 
Q 1134 663 1356 523 
Q 1578 384 1822 384 
Q 2178 384 2434 671 
Q 2691 959 2691 1453 
Q 2691 1928 2437 2201 
Q 2184 2475 1800 2475 
Q 1419 2475 1153 2201 
Q 888 1928 888 1484 
z
" transform="scale(0.015625)"/>
       </defs>
       <use xlink:href="#ArialMT-36"/>
       <use xlink:href="#ArialMT-30" x="55.615234"/>
      </g>
     </g>
    </g>
    <g id="ytick_5">
     <g id="line2d_11">
      <path d="M 57.6 98.578509 
L 414.72 98.578509 
" clip-path="url(#pe0bb6e7896)" style="fill: none; stroke: #ffffff; stroke-linecap: round"/>
     </g>
     <g id="text_11">
      <!-- 80 -->
      <g style="fill: #262626" transform="translate(35.865938 102.515306) scale(0.11 -0.11)">
       <defs>
        <path id="ArialMT-38" d="M 1131 2484 
Q 781 2613 612 2850 
Q 444 3088 444 3419 
Q 444 3919 803 4259 
Q 1163 4600 1759 4600 
Q 2359 4600 2725 4251 
Q 3091 3903 3091 3403 
Q 3091 3084 2923 2848 
Q 2756 2613 2416 2484 
Q 2838 2347 3058 2040 
Q 3278 1734 3278 1309 
Q 3278 722 2862 322 
Q 2447 -78 1769 -78 
Q 1091 -78 675 323 
Q 259 725 259 1325 
Q 259 1772 486 2073 
Q 713 2375 1131 2484 
z
M 1019 3438 
Q 1019 3113 1228 2906 
Q 1438 2700 1772 2700 
Q 2097 2700 2305 2904 
Q 2513 3109 2513 3406 
Q 2513 3716 2298 3927 
Q 2084 4138 1766 4138 
Q 1444 4138 1231 3931 
Q 1019 3725 1019 3438 
z
M 838 1322 
Q 838 1081 952 856 
Q 1066 631 1291 507 
Q 1516 384 1775 384 
Q 2178 384 2440 643 
Q 2703 903 2703 1303 
Q 2703 1709 2433 1975 
Q 2163 2241 1756 2241 
Q 1359 2241 1098 1978 
Q 838 1716 838 1322 
z
" transform="scale(0.015625)"/>
       </defs>
       <use xlink:href="#ArialMT-38"/>
       <use xlink:href="#ArialMT-30" x="55.615234"/>
      </g>
     </g>
    </g>
    <g id="ytick_6">
     <g id="line2d_12">
      <path d="M 57.6 49.016829 
L 414.72 49.016829 
" clip-path="url(#pe0bb6e7896)" style="fill: none; stroke: #ffffff; stroke-linecap: round"/>
     </g>
     <g id="text_12">
      <!-- 100 -->
      <g style="fill: #262626" transform="translate(29.748906 52.953626) scale(0.11 -0.11)">
       <use xlink:href="#ArialMT-31"/>
       <use xlink:href="#ArialMT-30" x="55.615234"/>
       <use xlink:href="#ArialMT-30" x="111.230469"/>
      </g>
     </g>
    </g>
   </g>
   <g id="line2d_13">
    <path d="M 73.832727 282.336305 
L 75.179299 283.439869 
L 79.19128 286.136129 
L 84.476277 288.732421 
L 87.09141 289.794732 
L 90.980145 291.035012 
L 94.828385 291.913457 
L 97.371525 292.387014 
L 99.896883 292.69125 
L 104.894604 292.959512 
L 107.36714 292.915457 
L 111.043281 292.623477 
L 115.88429 291.871045 
L 119.470042 291.082542 
L 126.527087 289.159561 
L 131.14794 288.024522 
L 133.433473 287.562283 
L 135.702528 286.964231 
L 136.830902 286.774431 
L 139.0754 285.855511 
L 142.411681 284.379314 
L 143.515694 283.953823 
L 145.711665 282.90814 
L 146.803644 282.377843 
L 148.975644 281.546998 
L 151.131772 280.784854 
L 152.203911 280.367279 
L 153.272114 280.222018 
L 154.336393 279.933916 
L 158.55448 279.492077 
L 159.599299 279.576416 
L 160.640258 279.493645 
L 162.710641 279.805705 
L 164.765716 280.080705 
L 165.787541 280.34 
L 167.819817 280.561981 
L 168.83029 280.818179 
L 170.839963 281.582773 
L 172.834674 282.0725 
L 174.814512 282.66882 
L 177.75657 283.901982 
L 179.699602 284.649213 
L 182.586859 285.707254 
L 185.441625 286.691587 
L 187.326897 287.250539 
L 190.128164 288.10379 
L 192.897723 288.774129 
L 194.726623 289.24384 
L 200.130417 290.157827 
L 205.411669 290.985429 
L 208.007076 291.306915 
L 214.783478 291.946662 
L 219.730258 292.225876 
L 225.358141 292.476092 
L 235.412545 292.920021 
L 239.884162 293.135321 
L 247.815254 293.387926 
L 253.373267 293.563191 
L 266.533904 293.915966 
L 288.363148 294.272589 
L 294.287459 294.295687 
L 299.470317 294.324686 
L 301.992815 294.340905 
L 306.422974 294.284501 
L 322.439237 293.805752 
L 324.587573 293.59472 
L 333.289419 292.629394 
L 343.459217 290.623453 
L 344.218795 290.345386 
L 345.352919 289.986311 
L 347.229866 289.198399 
L 349.461995 288.542656 
L 350.570476 288.03473 
L 351.674293 287.592336 
L 352.041246 287.523637 
L 352.407724 287.276336 
L 353.139298 287.017614 
L 354.233369 286.353689 
L 355.686442 285.367332 
L 356.772362 284.981759 
L 357.494621 284.527378 
L 359.294994 282.947284 
L 359.654251 282.860153 
L 360.730584 282.0597 
L 361.088918 281.5831 
L 361.804986 281.111889 
L 363.235023 279.596412 
L 363.592159 279.382958 
L 363.949167 279.021387 
L 364.306057 278.494825 
L 364.662842 278.265399 
L 365.019532 277.816522 
L 365.376137 277.548725 
L 365.732669 276.867094 
L 366.089138 276.958823 
L 367.158277 274.510414 
L 367.870921 273.82539 
L 368.583575 272.697796 
L 368.939933 271.418249 
L 369.296326 270.746922 
L 369.652764 270.575354 
L 370.365822 269.388099 
L 370.722463 268.721058 
L 371.079193 267.782143 
L 371.792964 266.981451 
L 372.507222 265.406896 
L 372.86456 264.652078 
L 373.222053 264.210038 
L 373.579711 262.559787 
L 373.937545 262.587069 
L 374.295566 262.367593 
L 374.653784 261.383089 
L 375.012211 261.226612 
L 375.370857 260.581546 
L 376.088851 258.272218 
L 376.448221 258.291959 
L 376.807853 257.481103 
L 377.167758 256.376741 
L 377.527948 254.883121 
L 377.888434 252.083566 
L 378.610334 249.589805 
L 378.97177 249.255395 
L 380.058154 245.954018 
L 380.42101 242.344912 
L 380.784249 243.071316 
L 381.14788 242.283491 
L 382.241239 237.098659 
L 382.60655 238.113431 
L 382.972308 234.979883 
L 383.338524 232.950761 
L 383.70521 227.909955 
L 384.072374 228.130132 
L 384.44003 223.61951 
L 384.808187 224.184805 
L 385.176856 217.457034 
L 385.546048 221.513266 
L 386.286045 213.894927 
L 386.656871 207.42163 
L 387.028264 207.578629 
L 387.400235 202.045028 
L 387.772793 202.188057 
L 388.14595 200.645264 
L 388.519718 193.053194 
L 388.894106 193.452318 
L 389.269126 185.427936 
L 389.644788 184.578077 
L 390.021103 167.297725 
L 390.398082 174.657243 
L 390.775737 166.116623 
L 391.154077 172.394872 
L 391.533114 148.333753 
L 391.912858 153.098186 
L 392.293321 146.988534 
L 392.674513 147.508801 
L 393.056445 145.168418 
L 393.439128 131.42857 
L 393.822572 138.725481 
L 394.20679 137.78998 
L 394.977585 124.812703 
L 395.364185 122.210603 
L 395.751601 111.466904 
L 396.139844 117.645515 
L 396.528925 117.645515 
L 396.918854 81.809571 
L 397.309642 83.516045 
L 397.701301 71.747262 
L 398.093841 77.122581 
L 398.487273 53.568 
L 398.487273 53.568 
" clip-path="url(#pe0bb6e7896)" style="fill: none; stroke: #4c72b0; stroke-width: 1.5; stroke-linecap: round"/>
   </g>
   <g id="line2d_14">
    <path d="M 73.832727 286.047222 
L 79.19128 288.304347 
L 87.09141 290.81508 
L 90.980145 291.754585 
L 94.828385 292.451874 
L 98.636421 292.97899 
L 102.404547 293.23173 
L 107.36714 293.253075 
L 112.259995 292.854981 
L 114.680489 292.558375 
L 119.470042 291.707859 
L 128.84584 289.727938 
L 137.955189 288.116463 
L 143.515694 286.559425 
L 145.711665 285.855789 
L 146.803644 285.544827 
L 148.975644 285.107476 
L 150.055686 284.802695 
L 156.453221 283.925528 
L 157.505791 284.017461 
L 160.640258 283.845843 
L 161.677368 283.909798 
L 162.710641 284.106429 
L 164.765716 284.179454 
L 165.787541 284.372749 
L 168.83029 284.644029 
L 171.839183 285.174567 
L 174.814512 285.708744 
L 182.586859 287.604044 
L 190.128164 289.251242 
L 197.443984 290.495507 
L 202.786214 291.119894 
L 206.280129 291.581488 
L 213.108911 292.115442 
L 216.445167 292.323059 
L 228.50611 292.911979 
L 232.372863 293.030179 
L 272.13137 294.061856 
L 287.259802 294.259818 
L 294.814245 294.298943 
L 296.902317 294.322357 
L 302.491973 294.344751 
L 307.388825 294.283423 
L 310.247208 294.26202 
L 313.510199 294.182854 
L 317.597597 294.014607 
L 326.28396 293.47226 
L 330.443083 293.116204 
L 332.481375 292.891977 
L 334.093437 292.613384 
L 341.16275 291.469758 
L 342.696742 291.218226 
L 346.855752 290.001716 
L 347.603364 289.781711 
L 349.461995 289.392696 
L 350.570476 288.986265 
L 351.674293 288.641626 
L 352.041246 288.582886 
L 352.407724 288.398905 
L 353.139298 288.211441 
L 354.597225 287.572622 
L 355.323751 287.155889 
L 356.048768 286.979873 
L 356.772362 286.762029 
L 357.494621 286.486096 
L 358.575695 285.89059 
L 358.935479 285.780849 
L 359.294994 285.471577 
L 359.654251 285.444206 
L 362.162741 284.086072 
L 362.520325 283.729949 
L 362.877749 283.706461 
L 365.019532 282.532332 
L 365.376137 282.391326 
L 365.732669 282.109367 
L 366.089138 282.038873 
L 367.158277 280.847628 
L 368.583575 280.027655 
L 369.296326 279.104326 
L 369.652764 278.873284 
L 370.009259 278.867881 
L 371.079193 278.163641 
L 371.436023 278.055952 
L 372.86456 276.911638 
L 373.222053 276.808062 
L 373.937545 276.156014 
L 374.653784 275.948834 
L 375.012211 275.693408 
L 375.370857 275.825012 
L 378.249225 274.238387 
L 382.241239 271.588092 
L 382.972308 271.229482 
L 384.808187 269.738001 
L 385.915774 268.569532 
L 387.028264 267.771992 
L 391.154077 264.36936 
L 393.056445 262.267901 
L 393.439128 262.017486 
L 394.59179 260.708924 
L 395.364185 259.589038 
L 395.751601 259.395604 
L 396.139844 258.903109 
L 397.701301 257.559818 
L 398.487273 256.796324 
L 398.487273 256.796324 
" clip-path="url(#pe0bb6e7896)" style="fill: none; stroke: #dd8452; stroke-width: 1.5; stroke-linecap: round"/>
   </g>
   <g id="line2d_15">
    <path d="M 73.832727 274.374213 
L 77.858565 268.695047 
L 79.19128 266.393195 
L 80.519398 264.377977 
L 81.84293 261.935381 
L 85.786115 253.586875 
L 88.392173 247.438835 
L 90.980145 240.645817 
L 98.636421 220.556668 
L 99.896883 218.138099 
L 102.404547 214.591123 
L 103.651771 213.496252 
L 104.894604 212.677588 
L 106.133057 212.661845 
L 107.36714 213.625754 
L 109.822241 217.102938 
L 111.043281 219.407299 
L 112.259995 222.372953 
L 113.472394 224.855592 
L 119.470042 240.180841 
L 120.656778 243.350256 
L 123.017543 248.138495 
L 124.191594 250.741376 
L 125.361438 252.767522 
L 127.68855 255.983625 
L 129.998966 258.699627 
L 131.14794 259.86331 
L 133.433473 261.707778 
L 134.570055 262.980608 
L 135.702528 263.837589 
L 136.830902 264.460533 
L 140.191545 268.507022 
L 144.615685 272.646789 
L 146.803644 274.309664 
L 148.975644 275.534082 
L 150.055686 276.129145 
L 152.203911 277.060249 
L 153.272114 277.233172 
L 154.336393 277.567339 
L 155.396758 277.715979 
L 156.453221 277.980014 
L 159.599299 277.966479 
L 160.640258 278.056543 
L 161.677368 277.943184 
L 163.740087 277.567428 
L 164.765716 277.398516 
L 165.787541 277.092955 
L 167.819817 276.823625 
L 168.83029 276.503493 
L 170.839963 275.484111 
L 172.834674 274.775678 
L 174.814512 273.84687 
L 177.75657 271.654229 
L 178.729913 270.983973 
L 183.542043 266.572117 
L 184.493628 265.546606 
L 186.386045 263.995175 
L 190.128164 259.527367 
L 191.978042 257.759099 
L 194.726623 253.918711 
L 195.635865 252.922608 
L 196.541648 251.750728 
L 197.443984 250.803671 
L 198.342883 250.054354 
L 199.238357 248.92949 
L 200.130417 248.03696 
L 201.019072 246.853394 
L 201.904334 246.053253 
L 202.786214 245.100144 
L 206.280129 239.733009 
L 207.145261 239.082895 
L 208.007076 237.877694 
L 208.865584 236.891302 
L 210.572725 235.343672 
L 211.42138 234.143926 
L 213.108911 232.367132 
L 214.783478 230.147655 
L 215.615927 229.736426 
L 218.094065 228.001891 
L 218.913744 226.942657 
L 220.543618 225.298604 
L 221.353834 224.916869 
L 222.160917 224.16565 
L 222.964879 223.689226 
L 223.76573 222.43098 
L 225.358141 222.030866 
L 226.149724 221.282499 
L 227.723697 219.163783 
L 228.50611 217.720946 
L 229.285487 216.725546 
L 230.06184 216.61975 
L 230.83518 215.590067 
L 231.605517 215.737723 
L 232.372863 214.872477 
L 233.898622 214.009585 
L 234.657058 213.93801 
L 236.165095 213.146318 
L 236.914718 211.783498 
L 238.405228 209.956132 
L 239.884162 208.6683 
L 240.619316 207.877014 
L 241.351607 207.632793 
L 242.081048 206.988886 
L 242.807649 207.599998 
L 243.531422 207.327908 
L 244.252376 206.489494 
L 244.970522 205.417516 
L 245.685873 204.807713 
L 246.398438 203.51562 
L 247.108228 202.984594 
L 247.815254 202.189731 
L 248.519528 201.940793 
L 249.221059 201.002859 
L 249.919858 199.536097 
L 250.615938 199.030956 
L 251.309307 199.21042 
L 251.999978 198.766932 
L 252.687961 198.03703 
L 253.373267 197.105068 
L 254.055907 196.373174 
L 254.735891 194.511602 
L 256.087937 193.782157 
L 256.76002 192.521016 
L 258.096361 190.788046 
L 258.760641 191.201564 
L 259.422342 190.215676 
L 260.081473 189.66636 
L 260.738047 188.431382 
L 261.392074 188.299372 
L 262.043566 187.220277 
L 262.692531 187.806478 
L 263.338983 187.214177 
L 263.982931 186.804352 
L 264.624386 185.601137 
L 265.26336 185.147362 
L 265.899862 185.242789 
L 267.165497 184.737723 
L 267.794652 184.962049 
L 268.421379 183.607578 
L 269.04569 183.039621 
L 270.904229 181.949383 
L 272.13137 180.716446 
L 272.741408 180.588264 
L 273.954472 179.627288 
L 274.55752 179.314659 
L 275.15826 179.199448 
L 275.756702 178.76537 
L 276.352858 178.530182 
L 276.946738 177.788443 
L 277.538353 177.824327 
L 278.127715 176.845712 
L 278.714833 176.568426 
L 279.299719 176.662866 
L 280.462837 175.018476 
L 281.04109 174.802034 
L 281.617155 175.462655 
L 282.762762 173.98004 
L 283.899743 174.763983 
L 284.465026 173.854356 
L 285.028186 173.56316 
L 285.589232 172.010379 
L 286.148176 171.256871 
L 286.705029 170.698272 
L 287.259802 170.701235 
L 287.812504 170.151099 
L 288.911745 168.807334 
L 289.458304 168.701493 
L 290.002837 168.316297 
L 290.545354 168.798454 
L 291.085868 169.430422 
L 291.624387 168.775761 
L 292.160924 168.463101 
L 292.695488 168.849724 
L 293.228092 168.768779 
L 293.758745 168.908894 
L 294.287459 168.228496 
L 294.814245 168.508661 
L 295.339112 169.61941 
L 295.862073 168.659774 
L 296.383138 168.066873 
L 296.902317 167.21102 
L 297.419622 166.585123 
L 297.935064 167.027812 
L 298.448653 167.852909 
L 298.960401 166.672869 
L 299.470317 166.737167 
L 299.978413 165.558039 
L 300.484701 165.863154 
L 300.989189 166.809028 
L 301.49189 166.108266 
L 302.491973 165.611058 
L 302.989377 166.582818 
L 303.485036 167.045748 
L 304.471166 166.213965 
L 304.961659 166.25719 
L 305.45045 166.983995 
L 306.422974 168.794672 
L 306.906728 169.411167 
L 307.869275 168.142683 
L 308.34809 168.435365 
L 308.825279 168.234312 
L 309.300855 168.519178 
L 309.774828 169.48513 
L 310.247208 169.869351 
L 310.718007 171.377901 
L 311.654904 172.194852 
L 312.121024 171.722836 
L 312.585606 173.850366 
L 313.04866 174.310855 
L 313.510199 173.919525 
L 313.970231 174.248035 
L 314.428769 174.911443 
L 314.885824 175.949101 
L 315.341405 176.424409 
L 315.795524 178.249089 
L 317.149218 180.829567 
L 317.597597 181.490608 
L 318.044568 182.509275 
L 318.490143 182.904774 
L 318.934331 184.731516 
L 319.377144 184.784466 
L 320.258687 186.839451 
L 320.697439 187.199514 
L 321.13486 187.353827 
L 321.570959 187.840697 
L 322.005748 188.751171 
L 322.439237 189.09435 
L 323.302361 193.647374 
L 323.732018 193.50169 
L 324.160418 195.099731 
L 325.013494 197.418207 
L 325.861677 200.392765 
L 326.28396 201.286001 
L 327.543708 205.550184 
L 327.961292 206.442487 
L 328.79303 208.982851 
L 329.620265 209.389886 
L 331.261571 212.8801 
L 331.669219 214.245123 
L 332.075816 215.009124 
L 334.893515 224.32085 
L 335.292105 224.763365 
L 336.482203 227.984224 
L 337.270984 230.007502 
L 338.056174 233.284615 
L 339.227414 235.369628 
L 340.39106 238.806597 
L 340.777305 238.649491 
L 341.16275 239.682688 
L 341.547405 240.037363 
L 342.696742 242.550955 
L 343.078347 243.242062 
L 344.218795 246.624783 
L 344.597525 247.314988 
L 345.729605 250.488129 
L 346.105633 250.991267 
L 347.229866 254.174349 
L 348.720271 256.337597 
L 349.091414 256.560836 
L 349.832025 258.485698 
L 350.201515 259.040676 
L 350.938919 260.526394 
L 351.306854 260.885448 
L 351.674293 261.593472 
L 352.041246 261.853686 
L 352.407724 262.759392 
L 352.773737 263.08819 
L 353.504416 264.264195 
L 355.323751 268.165388 
L 356.772362 269.359372 
L 357.133653 269.754912 
L 358.575695 272.261236 
L 358.935479 272.612912 
L 359.294994 273.385804 
L 359.654251 273.532048 
L 360.730584 274.794792 
L 361.088918 275.483653 
L 361.804986 276.123643 
L 363.235023 277.944591 
L 363.592159 278.175648 
L 365.732669 280.526559 
L 366.089138 280.451303 
L 367.158277 282.247871 
L 367.870921 282.682041 
L 368.583575 283.343022 
L 368.939933 284.022013 
L 369.296326 284.351603 
L 369.652764 284.43313 
L 370.365822 284.969359 
L 371.436023 285.781267 
L 371.792964 285.925435 
L 372.507222 286.471687 
L 373.937545 287.324396 
L 374.295566 287.384911 
L 374.653784 287.647142 
L 375.012211 287.687485 
L 375.729734 288.119341 
L 376.088851 288.387729 
L 376.448221 288.383406 
L 377.167758 288.783123 
L 377.527948 289.069514 
L 377.888434 289.554801 
L 378.610334 289.938639 
L 379.333545 290.143381 
L 380.058154 290.430826 
L 380.42101 290.85443 
L 380.784249 290.773744 
L 381.511914 291.048811 
L 382.241239 291.378893 
L 382.60655 291.284758 
L 383.70521 292.105071 
L 384.072374 292.089942 
L 384.44003 292.38171 
L 384.808187 292.347131 
L 385.176856 292.726724 
L 385.546048 292.505982 
L 386.656871 293.186774 
L 387.028264 293.180374 
L 387.400235 293.393173 
L 388.14595 293.443122 
L 388.519718 293.690561 
L 388.894106 293.678458 
L 389.269126 293.905132 
L 389.644788 293.927241 
L 390.021103 294.313864 
L 390.398082 294.162577 
L 390.775737 294.336557 
L 391.154077 294.210989 
L 391.533114 294.634593 
L 391.912858 294.561975 
L 392.674513 294.646696 
L 393.056445 294.680315 
L 393.439128 294.858498 
L 394.20679 294.779828 
L 395.751601 295.0703 
L 396.528925 295.009785 
L 396.918854 295.312359 
L 398.093841 295.344634 
L 398.487273 295.488 
L 398.487273 295.488 
" clip-path="url(#pe0bb6e7896)" style="fill: none; stroke: #55a868; stroke-width: 1.5; stroke-linecap: round"/>
   </g>
   <g id="line2d_16">
    <path d="M 73.832727 263.692768 
L 76.521241 259.948317 
L 80.519398 252.624956 
L 84.476277 244.17615 
L 89.688414 230.204309 
L 98.636421 203.98081 
L 99.896883 201.376666 
L 102.404547 197.450846 
L 104.894604 195.764253 
L 106.133057 195.792161 
L 107.36714 196.857035 
L 109.822241 201.039871 
L 111.043281 203.626725 
L 112.259995 206.880766 
L 113.472394 209.651778 
L 121.839275 233.42417 
L 125.361438 241.226472 
L 127.68855 244.708478 
L 128.84584 246.509996 
L 131.14794 249.15392 
L 132.292772 250.1201 
L 133.433473 251.29054 
L 134.570055 252.64153 
L 136.830902 254.341418 
L 140.191545 258.65966 
L 142.411681 261.074097 
L 143.515694 262.039653 
L 144.615685 263.328808 
L 146.803644 265.168389 
L 147.891633 265.661307 
L 150.055686 267.122515 
L 154.336393 268.621354 
L 155.396758 268.743699 
L 156.453221 269.14227 
L 157.505791 268.943564 
L 158.55448 269.080675 
L 159.599299 269.05014 
L 160.640258 269.312226 
L 161.677368 269.175986 
L 162.710641 268.748531 
L 164.765716 268.586398 
L 165.787541 268.148058 
L 167.819817 267.915477 
L 169.837002 266.985348 
L 170.839963 266.47176 
L 171.839183 266.174448 
L 172.834674 265.753172 
L 173.826447 265.043505 
L 174.814512 264.701594 
L 179.699602 260.916296 
L 180.665649 260.107423 
L 181.628064 258.977501 
L 183.542043 257.154851 
L 184.493628 256.118389 
L 186.386045 254.376501 
L 189.197946 250.75169 
L 192.897723 246.363392 
L 193.813913 244.918599 
L 196.541648 241.253391 
L 198.342883 239.61905 
L 199.238357 238.331189 
L 200.130417 237.285801 
L 201.019072 236.021232 
L 201.904334 235.228655 
L 202.786214 234.234362 
L 204.539871 231.246736 
L 205.411669 230.09905 
L 206.280129 228.724642 
L 207.145261 228.007718 
L 208.865584 225.53716 
L 209.720797 224.908186 
L 210.572725 224.07043 
L 211.42138 222.786261 
L 213.94781 219.808579 
L 214.783478 218.423437 
L 215.615927 218.199718 
L 218.094065 216.241034 
L 218.913744 215.139609 
L 220.543618 213.594328 
L 221.353834 213.041414 
L 222.160917 212.25674 
L 222.964879 211.871806 
L 223.76573 210.449035 
L 225.358141 210.046904 
L 226.149724 209.2036 
L 227.723697 207.048288 
L 228.50611 205.570695 
L 229.285487 204.50412 
L 230.06184 204.412297 
L 230.83518 203.454241 
L 231.605517 203.547607 
L 232.372863 202.728509 
L 233.137227 202.181988 
L 233.898622 201.804361 
L 234.657058 201.691818 
L 235.412545 201.169372 
L 236.165095 200.785498 
L 236.914718 199.427461 
L 238.405228 197.539904 
L 240.619316 195.523335 
L 241.351607 195.276793 
L 242.081048 194.422355 
L 242.807649 195.118148 
L 243.531422 194.765856 
L 244.252376 193.850531 
L 244.970522 192.751754 
L 245.685873 192.020196 
L 246.398438 190.697834 
L 247.108228 190.198026 
L 247.815254 189.380099 
L 248.519528 189.177918 
L 249.221059 188.142473 
L 249.919858 186.725724 
L 250.615938 186.107669 
L 251.309307 186.12624 
L 251.999978 185.710243 
L 254.055907 183.486137 
L 254.735891 181.551964 
L 256.087937 180.717363 
L 256.76002 179.352199 
L 258.096361 177.78084 
L 258.760641 178.138622 
L 259.422342 177.078402 
L 260.081473 176.47908 
L 260.738047 175.204002 
L 261.392074 175.081915 
L 262.043566 174.088967 
L 262.692531 174.625532 
L 263.338983 174.002453 
L 263.982931 173.745545 
L 264.624386 172.368552 
L 265.26336 171.969085 
L 265.899862 172.138992 
L 267.165497 171.487293 
L 267.794652 171.730466 
L 268.421379 170.443955 
L 269.04569 169.809355 
L 269.667594 169.371945 
L 270.287104 169.287387 
L 271.518981 168.076209 
L 272.13137 167.598472 
L 272.741408 167.42749 
L 273.954472 166.271377 
L 275.15826 165.924301 
L 275.756702 165.425658 
L 276.352858 165.254372 
L 276.946738 164.523583 
L 277.538353 164.634815 
L 278.127715 163.830832 
L 278.714833 163.376782 
L 279.299719 163.448032 
L 280.462837 161.840757 
L 281.04109 161.708129 
L 281.617155 162.451957 
L 282.762762 160.819176 
L 283.899743 161.739532 
L 284.465026 160.710991 
L 285.028186 160.535653 
L 285.589232 158.892316 
L 286.705029 157.606112 
L 287.259802 157.626616 
L 287.812504 157.104284 
L 288.363148 156.255907 
L 288.911745 155.770326 
L 289.458304 155.553262 
L 290.002837 155.204741 
L 291.085868 156.376582 
L 291.624387 155.71005 
L 292.160924 155.363648 
L 292.695488 155.731444 
L 293.228092 155.70671 
L 293.758745 155.878974 
L 294.287459 155.275902 
L 294.814245 155.470836 
L 295.339112 156.576675 
L 296.902317 154.148452 
L 297.419622 153.535696 
L 297.935064 154.028063 
L 298.448653 155.269942 
L 298.960401 153.819943 
L 299.470317 153.911796 
L 299.978413 152.721166 
L 300.484701 153.047396 
L 300.989189 153.923683 
L 301.49189 153.317842 
L 301.992815 153.199906 
L 302.491973 152.86035 
L 302.989377 153.834351 
L 303.485036 154.366102 
L 303.978963 153.95488 
L 304.471166 153.324297 
L 304.961659 153.618227 
L 305.45045 154.329211 
L 306.906728 156.818023 
L 307.388825 156.333904 
L 307.869275 155.641707 
L 308.34809 156.015192 
L 308.825279 155.777167 
L 309.300855 156.107206 
L 309.774828 157.210301 
L 310.247208 157.507028 
L 310.718007 158.949077 
L 311.654904 160.078124 
L 312.121024 159.454519 
L 312.585606 161.691199 
L 313.04866 162.12777 
L 313.510199 161.680998 
L 313.970231 162.072058 
L 314.428769 162.782267 
L 314.885824 163.987018 
L 315.341405 164.490843 
L 315.795524 166.272646 
L 316.69942 168.125226 
L 317.149218 169.131286 
L 317.597597 169.770895 
L 318.044568 170.782307 
L 318.490143 171.193835 
L 318.934331 173.102575 
L 319.377144 173.195868 
L 320.258687 175.432397 
L 321.13486 176.083822 
L 321.570959 176.389633 
L 322.005748 177.631104 
L 322.439237 177.810895 
L 323.302361 182.613495 
L 323.732018 182.449881 
L 324.160418 184.104935 
L 325.013494 186.35197 
L 325.861677 189.57674 
L 326.28396 190.322082 
L 327.961292 195.730814 
L 328.79303 198.357448 
L 329.620265 198.766932 
L 330.852862 201.17283 
L 331.669219 203.801769 
L 332.075816 204.648978 
L 333.691926 210.33168 
L 334.493963 213.430694 
L 335.689742 215.837077 
L 337.270984 220.262915 
L 338.447449 224.360999 
L 338.837859 225.311781 
L 339.227414 225.77802 
L 340.39106 229.320891 
L 340.777305 229.338181 
L 343.078347 234.277059 
L 343.459217 235.251349 
L 343.839363 236.718834 
L 345.729605 241.417814 
L 346.105633 242.200473 
L 347.229866 245.536126 
L 348.348556 247.306776 
L 349.091414 247.936779 
L 350.938919 252.044226 
L 351.306854 252.46783 
L 351.674293 253.188965 
L 352.041246 253.499944 
L 352.407724 254.44591 
L 352.773737 254.7255 
L 354.233369 257.490564 
L 354.597225 258.230496 
L 354.960682 259.334488 
L 355.686442 260.395278 
L 356.410737 260.788625 
L 359.294994 265.372626 
L 359.654251 265.44827 
L 362.162741 268.793397 
L 362.520325 269.555717 
L 362.877749 269.604541 
L 364.306057 271.192405 
L 365.376137 272.084734 
L 365.732669 272.558767 
L 366.089138 272.674457 
L 367.158277 274.475072 
L 368.583575 275.566093 
L 368.939933 276.243805 
L 369.652764 276.933128 
L 370.009259 276.939113 
L 371.079193 277.689564 
L 371.436023 277.799355 
L 372.86456 278.892657 
L 373.222053 278.985447 
L 373.937545 279.548235 
L 374.653784 279.719694 
L 375.012211 279.926453 
L 375.370857 279.820552 
L 382.241239 282.675371 
L 382.972308 282.873618 
L 388.894106 285.178236 
L 391.533114 285.971223 
L 393.056445 286.491621 
L 394.20679 286.813772 
L 396.918854 287.581978 
L 398.487273 287.904129 
L 398.487273 287.904129 
" clip-path="url(#pe0bb6e7896)" style="fill: none; stroke: #c44e52; stroke-width: 1.5; stroke-linecap: round"/>
   </g>
   <g id="patch_3">
    <path d="M 57.6 307.584 
L 57.6 41.472 
" style="fill: none; stroke: #ffffff; stroke-width: 1.25; stroke-linejoin: miter; stroke-linecap: square"/>
   </g>
   <g id="patch_4">
    <path d="M 414.72 307.584 
L 414.72 41.472 
" style="fill: none; stroke: #ffffff; stroke-width: 1.25; stroke-linejoin: miter; stroke-linecap: square"/>
   </g>
   <g id="patch_5">
    <path d="M 57.6 307.584 
L 414.72 307.584 
" style="fill: none; stroke: #ffffff; stroke-width: 1.25; stroke-linejoin: miter; stroke-linecap: square"/>
   </g>
   <g id="patch_6">
    <path d="M 57.6 41.472 
L 414.72 41.472 
" style="fill: none; stroke: #ffffff; stroke-width: 1.25; stroke-linejoin: miter; stroke-linecap: square"/>
   </g>
   <g id="legend_1">
    <g id="patch_7">
     <path d="M 65.3 112.7795 
L 139.01375 112.7795 
Q 141.21375 112.7795 141.21375 110.5795 
L 141.21375 49.172 
Q 141.21375 46.972 139.01375 46.972 
L 65.3 46.972 
Q 63.1 46.972 63.1 49.172 
L 63.1 110.5795 
Q 63.1 112.7795 65.3 112.7795 
z
" style="fill: #eaeaf2; opacity: 0.8; stroke: #cccccc; stroke-linejoin: miter"/>
    </g>
    <g id="line2d_17">
     <path d="M 67.5 55.529656 
L 78.5 55.529656 
L 89.5 55.529656 
" style="fill: none; stroke: #4c72b0; stroke-width: 1.5; stroke-linecap: round"/>
    </g>
    <g id="text_13">
     <!-- dark flip -->
     <g style="fill: #262626" transform="translate(98.3 59.379656) scale(0.11 -0.11)">
      <defs>
       <path id="ArialMT-64" d="M 2575 0 
L 2575 419 
Q 2259 -75 1647 -75 
Q 1250 -75 917 144 
Q 584 363 401 755 
Q 219 1147 219 1656 
Q 219 2153 384 2558 
Q 550 2963 881 3178 
Q 1213 3394 1622 3394 
Q 1922 3394 2156 3267 
Q 2391 3141 2538 2938 
L 2538 4581 
L 3097 4581 
L 3097 0 
L 2575 0 
z
M 797 1656 
Q 797 1019 1065 703 
Q 1334 388 1700 388 
Q 2069 388 2326 689 
Q 2584 991 2584 1609 
Q 2584 2291 2321 2609 
Q 2059 2928 1675 2928 
Q 1300 2928 1048 2622 
Q 797 2316 797 1656 
z
" transform="scale(0.015625)"/>
       <path id="ArialMT-61" d="M 2588 409 
Q 2275 144 1986 34 
Q 1697 -75 1366 -75 
Q 819 -75 525 192 
Q 231 459 231 875 
Q 231 1119 342 1320 
Q 453 1522 633 1644 
Q 813 1766 1038 1828 
Q 1203 1872 1538 1913 
Q 2219 1994 2541 2106 
Q 2544 2222 2544 2253 
Q 2544 2597 2384 2738 
Q 2169 2928 1744 2928 
Q 1347 2928 1158 2789 
Q 969 2650 878 2297 
L 328 2372 
Q 403 2725 575 2942 
Q 747 3159 1072 3276 
Q 1397 3394 1825 3394 
Q 2250 3394 2515 3294 
Q 2781 3194 2906 3042 
Q 3031 2891 3081 2659 
Q 3109 2516 3109 2141 
L 3109 1391 
Q 3109 606 3145 398 
Q 3181 191 3288 0 
L 2700 0 
Q 2613 175 2588 409 
z
M 2541 1666 
Q 2234 1541 1622 1453 
Q 1275 1403 1131 1340 
Q 988 1278 909 1158 
Q 831 1038 831 891 
Q 831 666 1001 516 
Q 1172 366 1500 366 
Q 1825 366 2078 508 
Q 2331 650 2450 897 
Q 2541 1088 2541 1459 
L 2541 1666 
z
" transform="scale(0.015625)"/>
       <path id="ArialMT-72" d="M 416 0 
L 416 3319 
L 922 3319 
L 922 2816 
Q 1116 3169 1280 3281 
Q 1444 3394 1641 3394 
Q 1925 3394 2219 3213 
L 2025 2691 
Q 1819 2813 1613 2813 
Q 1428 2813 1281 2702 
Q 1134 2591 1072 2394 
Q 978 2094 978 1738 
L 978 0 
L 416 0 
z
" transform="scale(0.015625)"/>
       <path id="ArialMT-6b" d="M 425 0 
L 425 4581 
L 988 4581 
L 988 1969 
L 2319 3319 
L 3047 3319 
L 1778 2088 
L 3175 0 
L 2481 0 
L 1384 1697 
L 988 1316 
L 988 0 
L 425 0 
z
" transform="scale(0.015625)"/>
       <path id="ArialMT-20" transform="scale(0.015625)"/>
       <path id="ArialMT-66" d="M 556 0 
L 556 2881 
L 59 2881 
L 59 3319 
L 556 3319 
L 556 3672 
Q 556 4006 616 4169 
Q 697 4388 901 4523 
Q 1106 4659 1475 4659 
Q 1713 4659 2000 4603 
L 1916 4113 
Q 1741 4144 1584 4144 
Q 1328 4144 1222 4034 
Q 1116 3925 1116 3625 
L 1116 3319 
L 1763 3319 
L 1763 2881 
L 1116 2881 
L 1116 0 
L 556 0 
z
" transform="scale(0.015625)"/>
       <path id="ArialMT-6c" d="M 409 0 
L 409 4581 
L 972 4581 
L 972 0 
L 409 0 
z
" transform="scale(0.015625)"/>
       <path id="ArialMT-69" d="M 425 3934 
L 425 4581 
L 988 4581 
L 988 3934 
L 425 3934 
z
M 425 0 
L 425 3319 
L 988 3319 
L 988 0 
L 425 0 
z
" transform="scale(0.015625)"/>
       <path id="ArialMT-70" d="M 422 -1272 
L 422 3319 
L 934 3319 
L 934 2888 
Q 1116 3141 1344 3267 
Q 1572 3394 1897 3394 
Q 2322 3394 2647 3175 
Q 2972 2956 3137 2557 
Q 3303 2159 3303 1684 
Q 3303 1175 3120 767 
Q 2938 359 2589 142 
Q 2241 -75 1856 -75 
Q 1575 -75 1351 44 
Q 1128 163 984 344 
L 984 -1272 
L 422 -1272 
z
M 931 1641 
Q 931 1000 1190 694 
Q 1450 388 1819 388 
Q 2194 388 2461 705 
Q 2728 1022 2728 1688 
Q 2728 2322 2467 2637 
Q 2206 2953 1844 2953 
Q 1484 2953 1207 2617 
Q 931 2281 931 1641 
z
" transform="scale(0.015625)"/>
      </defs>
      <use xlink:href="#ArialMT-64"/>
      <use xlink:href="#ArialMT-61" x="55.615234"/>
      <use xlink:href="#ArialMT-72" x="111.230469"/>
      <use xlink:href="#ArialMT-6b" x="144.53125"/>
      <use xlink:href="#ArialMT-20" x="194.53125"/>
      <use xlink:href="#ArialMT-66" x="222.314453"/>
      <use xlink:href="#ArialMT-6c" x="250.097656"/>
      <use xlink:href="#ArialMT-69" x="272.314453"/>
      <use xlink:href="#ArialMT-70" x="294.53125"/>
     </g>
    </g>
    <g id="line2d_18">
     <path d="M 67.5 71.223562 
L 78.5 71.223562 
L 89.5 71.223562 
" style="fill: none; stroke: #dd8452; stroke-width: 1.5; stroke-linecap: round"/>
    </g>
    <g id="text_14">
     <!-- raw flip -->
     <g style="fill: #262626" transform="translate(98.3 75.073562) scale(0.11 -0.11)">
      <defs>
       <path id="ArialMT-77" d="M 1034 0 
L 19 3319 
L 600 3319 
L 1128 1403 
L 1325 691 
Q 1338 744 1497 1375 
L 2025 3319 
L 2603 3319 
L 3100 1394 
L 3266 759 
L 3456 1400 
L 4025 3319 
L 4572 3319 
L 3534 0 
L 2950 0 
L 2422 1988 
L 2294 2553 
L 1622 0 
L 1034 0 
z
" transform="scale(0.015625)"/>
      </defs>
      <use xlink:href="#ArialMT-72"/>
      <use xlink:href="#ArialMT-61" x="33.300781"/>
      <use xlink:href="#ArialMT-77" x="88.916016"/>
      <use xlink:href="#ArialMT-20" x="161.132812"/>
      <use xlink:href="#ArialMT-66" x="188.916016"/>
      <use xlink:href="#ArialMT-6c" x="216.699219"/>
      <use xlink:href="#ArialMT-69" x="238.916016"/>
      <use xlink:href="#ArialMT-70" x="261.132812"/>
     </g>
    </g>
    <g id="line2d_19">
     <path d="M 67.5 86.783406 
L 78.5 86.783406 
L 89.5 86.783406 
" style="fill: none; stroke: #55a868; stroke-width: 1.5; stroke-linecap: round"/>
    </g>
    <g id="text_15">
     <!-- dark -->
     <g style="fill: #262626" transform="translate(98.3 90.633406) scale(0.11 -0.11)">
      <use xlink:href="#ArialMT-64"/>
      <use xlink:href="#ArialMT-61" x="55.615234"/>
      <use xlink:href="#ArialMT-72" x="111.230469"/>
      <use xlink:href="#ArialMT-6b" x="144.53125"/>
     </g>
    </g>
    <g id="line2d_20">
     <path d="M 67.5 102.34325 
L 78.5 102.34325 
L 89.5 102.34325 
" style="fill: none; stroke: #c44e52; stroke-width: 1.5; stroke-linecap: round"/>
    </g>
    <g id="text_16">
     <!-- raw -->
     <g style="fill: #262626" transform="translate(98.3 106.19325) scale(0.11 -0.11)">
      <use xlink:href="#ArialMT-72"/>
      <use xlink:href="#ArialMT-61" x="33.300781"/>
      <use xlink:href="#ArialMT-77" x="88.916016"/>
     </g>
    </g>
   </g>
  </g>
 </g>
 <defs>
  <clipPath id="pe0bb6e7896">
   <rect x="57.6" y="41.472" width="357.12" height="266.112"/>
  </clipPath>
 </defs>
</svg>
